  0
SECTION
  2
HEADER
  9
$ANGBASE
  50
0.0
  9
$ANGDIR
  70
1
  9
$MEASUREMENT
  70
0
  0
ENDSEC
  0
SECTION
  2
TABLES
  0
TABLE
  2
LTYPE
  70
4
  0
LTYPE
  5
40F
  2
CONTINUOUS
  70
0
  3
Solid line
  72
65
  73
0
  40
0.0
  0
LTYPE
  5
410
  2
DASHDOT
 70
0
  3
Dash Dot ____ _ ____ _
 72
65
 73
4
 40
2.0
 49
1.25
 49
-0.25
 49
0.25
 49
-0.25
  0
LTYPE
  5
411
  2
DASHED
 70
0
  3
Dashed __ __ __ __ __
 72
65
 73
2
 40
0.75
 49
0.5
 49
-0.25
  0
LTYPE
  5
43B
  2
DOTTED
 70
0
  3
Dotted .  .  .  .
 72
65
 73
2
 40
0.2
 49
0.0
 49
-0.2
  0
ENDTAB
  0
TABLE
  2
STYLE
  70
4
  0
STYLE
  2
KICAD
  70
0
  40
0
  41
1
  42
1
  50
0
  71
0
  3
isocp.shx
  0
STYLE
  2
KICADB
  70
0
  40
0
  41
1
  42
1
  50
0
  71
0
  3
isocp.shx
  0
STYLE
  2
KICADI
  70
0
  40
0
  41
1
  42
1
  50
15
  71
0
  3
isocp.shx
  0
STYLE
  2
KICADBI
  70
0
  40
0
  41
1
  42
1
  50
15
  71
0
  3
isocp.shx
  0
ENDTAB
  0
TABLE
  2
LAYER
  70
1
  0
LAYER
  2
BLACK
  70
0
  62
7
  6
CONTINUOUS
  0
ENDTAB
  0
ENDSEC
  0
SECTION
  2
ENTITIES
0
LINE
8
BLACK
6
CONTINUOUS
10
6.6378
20
-5.95404
11
6.59843
21
-5.95404
0
LINE
8
BLACK
6
CONTINUOUS
10
6.59843
20
-5.95404
11
6.59843
21
-5.8753
0
LINE
8
BLACK
6
CONTINUOUS
10
6.59843
20
-5.8753
11
6.6378
21
-5.8753
0
LINE
8
BLACK
6
CONTINUOUS
10
6.6378
20
-5.8753
11
6.6378
21
-5.95404
0
LINE
8
BLACK
6
CONTINUOUS
10
6.52756
20
-5.95404
11
6.48819
21
-5.95404
0
LINE
8
BLACK
6
CONTINUOUS
10
6.48819
20
-5.95404
11
6.48819
21
-5.8753
0
LINE
8
BLACK
6
CONTINUOUS
10
6.48819
20
-5.8753
11
6.52756
21
-5.8753
0
LINE
8
BLACK
6
CONTINUOUS
10
6.52756
20
-5.8753
11
6.52756
21
-5.95404
0
LINE
8
BLACK
6
CONTINUOUS
10
6.89811
20
-5.83931
11
6.90122
21
-5.84139
0
LINE
8
BLACK
6
CONTINUOUS
10
6.90122
20
-5.84139
11
6.9033
21
-5.84451
0
LINE
8
BLACK
6
CONTINUOUS
10
6.9033
20
-5.84451
11
6.90404
21
-5.84818
0
LINE
8
BLACK
6
CONTINUOUS
10
6.90404
20
-5.84818
11
6.90404
21
-5.8841
0
LINE
8
BLACK
6
CONTINUOUS
10
6.90404
20
-5.8841
11
6.9033
21
-5.88778
0
LINE
8
BLACK
6
CONTINUOUS
10
6.9033
20
-5.88778
11
6.90122
21
-5.89089
0
LINE
8
BLACK
6
CONTINUOUS
10
6.90122
20
-5.89089
11
6.89811
21
-5.89297
0
LINE
8
BLACK
6
CONTINUOUS
10
6.89811
20
-5.89297
11
6.89444
21
-5.8937
0
LINE
8
BLACK
6
CONTINUOUS
10
6.89444
20
-5.8937
11
6.87525
21
-5.8937
0
LINE
8
BLACK
6
CONTINUOUS
10
6.87525
20
-5.8937
11
6.87157
21
-5.89297
0
LINE
8
BLACK
6
CONTINUOUS
10
6.87157
20
-5.89297
11
6.86846
21
-5.89089
0
LINE
8
BLACK
6
CONTINUOUS
10
6.86846
20
-5.89089
11
6.86638
21
-5.88778
0
LINE
8
BLACK
6
CONTINUOUS
10
6.86638
20
-5.88778
11
6.86565
21
-5.8841
0
LINE
8
BLACK
6
CONTINUOUS
10
6.86565
20
-5.8841
11
6.86565
21
-5.84818
0
LINE
8
BLACK
6
CONTINUOUS
10
6.86565
20
-5.84818
11
6.86638
21
-5.84451
0
LINE
8
BLACK
6
CONTINUOUS
10
6.86638
20
-5.84451
11
6.86846
21
-5.84139
0
LINE
8
BLACK
6
CONTINUOUS
10
6.86846
20
-5.84139
11
6.87157
21
-5.83931
0
LINE
8
BLACK
6
CONTINUOUS
10
6.87157
20
-5.83931
11
6.87525
21
-5.83858
0
LINE
8
BLACK
6
CONTINUOUS
10
6.87525
20
-5.83858
11
6.89444
21
-5.83858
0
LINE
8
BLACK
6
CONTINUOUS
10
6.89444
20
-5.83858
11
6.89811
21
-5.83931
0
LINE
8
BLACK
6
CONTINUOUS
10
6.82429
20
-5.83931
11
6.82741
21
-5.84139
0
LINE
8
BLACK
6
CONTINUOUS
10
6.82741
20
-5.84139
11
6.82949
21
-5.84451
0
LINE
8
BLACK
6
CONTINUOUS
10
6.82949
20
-5.84451
11
6.83022
21
-5.84818
0
LINE
8
BLACK
6
CONTINUOUS
10
6.83022
20
-5.84818
11
6.83022
21
-5.8841
0
LINE
8
BLACK
6
CONTINUOUS
10
6.83022
20
-5.8841
11
6.82949
21
-5.88778
0
LINE
8
BLACK
6
CONTINUOUS
10
6.82949
20
-5.88778
11
6.82741
21
-5.89089
0
LINE
8
BLACK
6
CONTINUOUS
10
6.82741
20
-5.89089
11
6.82429
21
-5.89297
0
LINE
8
BLACK
6
CONTINUOUS
10
6.82429
20
-5.89297
11
6.82062
21
-5.8937
0
LINE
8
BLACK
6
CONTINUOUS
10
6.82062
20
-5.8937
11
6.80143
21
-5.8937
0
LINE
8
BLACK
6
CONTINUOUS
10
6.80143
20
-5.8937
11
6.79775
21
-5.89297
0
LINE
8
BLACK
6
CONTINUOUS
10
6.79775
20
-5.89297
11
6.79464
21
-5.89089
0
LINE
8
BLACK
6
CONTINUOUS
10
6.79464
20
-5.89089
11
6.79256
21
-5.88778
0
LINE
8
BLACK
6
CONTINUOUS
10
6.79256
20
-5.88778
11
6.79183
21
-5.8841
0
LINE
8
BLACK
6
CONTINUOUS
10
6.79183
20
-5.8841
11
6.79183
21
-5.84818
0
LINE
8
BLACK
6
CONTINUOUS
10
6.79183
20
-5.84818
11
6.79256
21
-5.84451
0
LINE
8
BLACK
6
CONTINUOUS
10
6.79256
20
-5.84451
11
6.79464
21
-5.84139
0
LINE
8
BLACK
6
CONTINUOUS
10
6.79464
20
-5.84139
11
6.79775
21
-5.83931
0
LINE
8
BLACK
6
CONTINUOUS
10
6.79775
20
-5.83931
11
6.80143
21
-5.83858
0
LINE
8
BLACK
6
CONTINUOUS
10
6.80143
20
-5.83858
11
6.82062
21
-5.83858
0
LINE
8
BLACK
6
CONTINUOUS
10
6.82062
20
-5.83858
11
6.82429
21
-5.83931
0
LINE
8
BLACK
6
CONTINUOUS
10
6.29772
20
-5.83931
11
6.30083
21
-5.84139
0
LINE
8
BLACK
6
CONTINUOUS
10
6.30083
20
-5.84139
11
6.30291
21
-5.84451
0
LINE
8
BLACK
6
CONTINUOUS
10
6.30291
20
-5.84451
11
6.30364
21
-5.84818
0
LINE
8
BLACK
6
CONTINUOUS
10
6.30364
20
-5.84818
11
6.30364
21
-5.8841
0
LINE
8
BLACK
6
CONTINUOUS
10
6.30364
20
-5.8841
11
6.30291
21
-5.88778
0
LINE
8
BLACK
6
CONTINUOUS
10
6.30291
20
-5.88778
11
6.30083
21
-5.89089
0
LINE
8
BLACK
6
CONTINUOUS
10
6.30083
20
-5.89089
11
6.29772
21
-5.89297
0
LINE
8
BLACK
6
CONTINUOUS
10
6.29772
20
-5.89297
11
6.29405
21
-5.8937
0
LINE
8
BLACK
6
CONTINUOUS
10
6.29405
20
-5.8937
11
6.27485
21
-5.8937
0
LINE
8
BLACK
6
CONTINUOUS
10
6.27485
20
-5.8937
11
6.27118
21
-5.89297
0
LINE
8
BLACK
6
CONTINUOUS
10
6.27118
20
-5.89297
11
6.26807
21
-5.89089
0
LINE
8
BLACK
6
CONTINUOUS
10
6.26807
20
-5.89089
11
6.26599
21
-5.88778
0
LINE
8
BLACK
6
CONTINUOUS
10
6.26599
20
-5.88778
11
6.26526
21
-5.8841
0
LINE
8
BLACK
6
CONTINUOUS
10
6.26526
20
-5.8841
11
6.26526
21
-5.84818
0
LINE
8
BLACK
6
CONTINUOUS
10
6.26526
20
-5.84818
11
6.26599
21
-5.84451
0
LINE
8
BLACK
6
CONTINUOUS
10
6.26599
20
-5.84451
11
6.26807
21
-5.84139
0
LINE
8
BLACK
6
CONTINUOUS
10
6.26807
20
-5.84139
11
6.27118
21
-5.83931
0
LINE
8
BLACK
6
CONTINUOUS
10
6.27118
20
-5.83931
11
6.27485
21
-5.83858
0
LINE
8
BLACK
6
CONTINUOUS
10
6.27485
20
-5.83858
11
6.29405
21
-5.83858
0
LINE
8
BLACK
6
CONTINUOUS
10
6.29405
20
-5.83858
11
6.29772
21
-5.83931
0
LINE
8
BLACK
6
CONTINUOUS
10
6.2239
20
-5.83931
11
6.22701
21
-5.84139
0
LINE
8
BLACK
6
CONTINUOUS
10
6.22701
20
-5.84139
11
6.22909
21
-5.84451
0
LINE
8
BLACK
6
CONTINUOUS
10
6.22909
20
-5.84451
11
6.22982
21
-5.84818
0
LINE
8
BLACK
6
CONTINUOUS
10
6.22982
20
-5.84818
11
6.22982
21
-5.8841
0
LINE
8
BLACK
6
CONTINUOUS
10
6.22982
20
-5.8841
11
6.22909
21
-5.88778
0
LINE
8
BLACK
6
CONTINUOUS
10
6.22909
20
-5.88778
11
6.22701
21
-5.89089
0
LINE
8
BLACK
6
CONTINUOUS
10
6.22701
20
-5.89089
11
6.2239
21
-5.89297
0
LINE
8
BLACK
6
CONTINUOUS
10
6.2239
20
-5.89297
11
6.22023
21
-5.8937
0
LINE
8
BLACK
6
CONTINUOUS
10
6.22023
20
-5.8937
11
6.20103
21
-5.8937
0
LINE
8
BLACK
6
CONTINUOUS
10
6.20103
20
-5.8937
11
6.19736
21
-5.89297
0
LINE
8
BLACK
6
CONTINUOUS
10
6.19736
20
-5.89297
11
6.19425
21
-5.89089
0
LINE
8
BLACK
6
CONTINUOUS
10
6.19425
20
-5.89089
11
6.19217
21
-5.88778
0
LINE
8
BLACK
6
CONTINUOUS
10
6.19217
20
-5.88778
11
6.19144
21
-5.8841
0
LINE
8
BLACK
6
CONTINUOUS
10
6.19144
20
-5.8841
11
6.19144
21
-5.84818
0
LINE
8
BLACK
6
CONTINUOUS
10
6.19144
20
-5.84818
11
6.19217
21
-5.84451
0
LINE
8
BLACK
6
CONTINUOUS
10
6.19217
20
-5.84451
11
6.19425
21
-5.84139
0
LINE
8
BLACK
6
CONTINUOUS
10
6.19425
20
-5.84139
11
6.19736
21
-5.83931
0
LINE
8
BLACK
6
CONTINUOUS
10
6.19736
20
-5.83931
11
6.20103
21
-5.83858
0
LINE
8
BLACK
6
CONTINUOUS
10
6.20103
20
-5.83858
11
6.22023
21
-5.83858
0
LINE
8
BLACK
6
CONTINUOUS
10
6.22023
20
-5.83858
11
6.2239
21
-5.83931
0
LINE
8
BLACK
6
CONTINUOUS
10
6.6372
20
-5.76506
11
6.62657
21
-5.76506
0
LINE
8
BLACK
6
CONTINUOUS
10
6.62657
20
-5.76506
11
6.62657
21
-5.72569
0
LINE
8
BLACK
6
CONTINUOUS
10
6.62657
20
-5.72569
11
6.6372
21
-5.72569
0
LINE
8
BLACK
6
CONTINUOUS
10
6.6372
20
-5.72569
11
6.6372
21
-5.76506
0
LINE
8
BLACK
6
CONTINUOUS
10
6.61752
20
-5.76506
11
6.60689
21
-5.76506
0
LINE
8
BLACK
6
CONTINUOUS
10
6.60689
20
-5.76506
11
6.60689
21
-5.72569
0
LINE
8
BLACK
6
CONTINUOUS
10
6.60689
20
-5.72569
11
6.61752
21
-5.72569
0
LINE
8
BLACK
6
CONTINUOUS
10
6.61752
20
-5.72569
11
6.61752
21
-5.76506
0
LINE
8
BLACK
6
CONTINUOUS
10
6.59783
20
-5.76506
11
6.5872
21
-5.76506
0
LINE
8
BLACK
6
CONTINUOUS
10
6.5872
20
-5.76506
11
6.5872
21
-5.72569
0
LINE
8
BLACK
6
CONTINUOUS
10
6.5872
20
-5.72569
11
6.59783
21
-5.72569
0
LINE
8
BLACK
6
CONTINUOUS
10
6.59783
20
-5.72569
11
6.59783
21
-5.76506
0
LINE
8
BLACK
6
CONTINUOUS
10
6.57815
20
-5.76506
11
6.56752
21
-5.76506
0
LINE
8
BLACK
6
CONTINUOUS
10
6.56752
20
-5.76506
11
6.56752
21
-5.72569
0
LINE
8
BLACK
6
CONTINUOUS
10
6.56752
20
-5.72569
11
6.57815
21
-5.72569
0
LINE
8
BLACK
6
CONTINUOUS
10
6.57815
20
-5.72569
11
6.57815
21
-5.76506
0
LINE
8
BLACK
6
CONTINUOUS
10
6.55846
20
-5.76506
11
6.54783
21
-5.76506
0
LINE
8
BLACK
6
CONTINUOUS
10
6.54783
20
-5.76506
11
6.54783
21
-5.72569
0
LINE
8
BLACK
6
CONTINUOUS
10
6.54783
20
-5.72569
11
6.55846
21
-5.72569
0
LINE
8
BLACK
6
CONTINUOUS
10
6.55846
20
-5.72569
11
6.55846
21
-5.76506
0
LINE
8
BLACK
6
CONTINUOUS
10
6.53878
20
-5.76506
11
6.52815
21
-5.76506
0
LINE
8
BLACK
6
CONTINUOUS
10
6.52815
20
-5.76506
11
6.52815
21
-5.72569
0
LINE
8
BLACK
6
CONTINUOUS
10
6.52815
20
-5.72569
11
6.53878
21
-5.72569
0
LINE
8
BLACK
6
CONTINUOUS
10
6.53878
20
-5.72569
11
6.53878
21
-5.76506
0
LINE
8
BLACK
6
CONTINUOUS
10
6.51909
20
-5.76506
11
6.50846
21
-5.76506
0
LINE
8
BLACK
6
CONTINUOUS
10
6.50846
20
-5.76506
11
6.50846
21
-5.72569
0
LINE
8
BLACK
6
CONTINUOUS
10
6.50846
20
-5.72569
11
6.51909
21
-5.72569
0
LINE
8
BLACK
6
CONTINUOUS
10
6.51909
20
-5.72569
11
6.51909
21
-5.76506
0
LINE
8
BLACK
6
CONTINUOUS
10
6.49941
20
-5.76506
11
6.48878
21
-5.76506
0
LINE
8
BLACK
6
CONTINUOUS
10
6.48878
20
-5.76506
11
6.48878
21
-5.72569
0
LINE
8
BLACK
6
CONTINUOUS
10
6.48878
20
-5.72569
11
6.49941
21
-5.72569
0
LINE
8
BLACK
6
CONTINUOUS
10
6.49941
20
-5.72569
11
6.49941
21
-5.76506
0
LINE
8
BLACK
6
CONTINUOUS
10
6.69528
20
-5.76506
11
6.6748
21
-5.76506
0
LINE
8
BLACK
6
CONTINUOUS
10
6.6748
20
-5.76506
11
6.6748
21
-5.72569
0
LINE
8
BLACK
6
CONTINUOUS
10
6.6748
20
-5.72569
11
6.69528
21
-5.72569
0
LINE
8
BLACK
6
CONTINUOUS
10
6.69528
20
-5.72569
11
6.69528
21
-5.76506
0
LINE
8
BLACK
6
CONTINUOUS
10
6.66575
20
-5.76506
11
6.64528
21
-5.76506
0
LINE
8
BLACK
6
CONTINUOUS
10
6.64528
20
-5.76506
11
6.64528
21
-5.72569
0
LINE
8
BLACK
6
CONTINUOUS
10
6.64528
20
-5.72569
11
6.66575
21
-5.72569
0
LINE
8
BLACK
6
CONTINUOUS
10
6.66575
20
-5.72569
11
6.66575
21
-5.76506
0
LINE
8
BLACK
6
CONTINUOUS
10
6.45118
20
-5.76506
11
6.43071
21
-5.76506
0
LINE
8
BLACK
6
CONTINUOUS
10
6.43071
20
-5.76506
11
6.43071
21
-5.72569
0
LINE
8
BLACK
6
CONTINUOUS
10
6.43071
20
-5.72569
11
6.45118
21
-5.72569
0
LINE
8
BLACK
6
CONTINUOUS
10
6.45118
20
-5.72569
11
6.45118
21
-5.76506
0
LINE
8
BLACK
6
CONTINUOUS
10
6.48071
20
-5.76506
11
6.46024
21
-5.76506
0
LINE
8
BLACK
6
CONTINUOUS
10
6.46024
20
-5.76506
11
6.46024
21
-5.72569
0
LINE
8
BLACK
6
CONTINUOUS
10
6.46024
20
-5.72569
11
6.48071
21
-5.72569
0
LINE
8
BLACK
6
CONTINUOUS
10
6.48071
20
-5.72569
11
6.48071
21
-5.76506
  0
ENDSEC
  0
EOF
