  0
SECTION
  2
HEADER
  9
$ANGBASE
  50
0.0
  9
$ANGDIR
  70
1
  9
$MEASUREMENT
  70
0
  0
ENDSEC
  0
SECTION
  2
TABLES
  0
TABLE
  2
LTYPE
  70
4
  0
LTYPE
  5
40F
  2
CONTINUOUS
  70
0
  3
Solid line
  72
65
  73
0
  40
0.0
  0
LTYPE
  5
410
  2
DASHDOT
 70
0
  3
Dash Dot ____ _ ____ _
 72
65
 73
4
 40
2.0
 49
1.25
 49
-0.25
 49
0.25
 49
-0.25
  0
LTYPE
  5
411
  2
DASHED
 70
0
  3
Dashed __ __ __ __ __
 72
65
 73
2
 40
0.75
 49
0.5
 49
-0.25
  0
LTYPE
  5
43B
  2
DOTTED
 70
0
  3
Dotted .  .  .  .
 72
65
 73
2
 40
0.2
 49
0.0
 49
-0.2
  0
ENDTAB
  0
TABLE
  2
STYLE
  70
4
  0
STYLE
  2
KICAD
  70
0
  40
0
  41
1
  42
1
  50
0
  71
0
  3
isocp.shx
  0
STYLE
  2
KICADB
  70
0
  40
0
  41
1
  42
1
  50
0
  71
0
  3
isocp.shx
  0
STYLE
  2
KICADI
  70
0
  40
0
  41
1
  42
1
  50
15
  71
0
  3
isocp.shx
  0
STYLE
  2
KICADBI
  70
0
  40
0
  41
1
  42
1
  50
15
  71
0
  3
isocp.shx
  0
ENDTAB
  0
TABLE
  2
LAYER
  70
1
  0
LAYER
  2
BLACK
  70
0
  62
7
  6
CONTINUOUS
  0
ENDTAB
  0
ENDSEC
  0
SECTION
  2
ENTITIES
0
LINE
8
BLACK
6
CONTINUOUS
10
6.46243
20
-5.84917
11
6.46562
21
-5.85131
0
LINE
8
BLACK
6
CONTINUOUS
10
6.46562
20
-5.85131
11
6.46775
21
-5.8545
0
LINE
8
BLACK
6
CONTINUOUS
10
6.46775
20
-5.8545
11
6.4685
21
-5.85827
0
LINE
8
BLACK
6
CONTINUOUS
10
6.4685
20
-5.85827
11
6.4685
21
-5.8937
0
LINE
8
BLACK
6
CONTINUOUS
10
6.4685
20
-5.8937
11
6.46775
21
-5.89747
0
LINE
8
BLACK
6
CONTINUOUS
10
6.46775
20
-5.89747
11
6.46562
21
-5.90066
0
LINE
8
BLACK
6
CONTINUOUS
10
6.46562
20
-5.90066
11
6.46243
21
-5.90279
0
LINE
8
BLACK
6
CONTINUOUS
10
6.46243
20
-5.90279
11
6.45866
21
-5.90354
0
LINE
8
BLACK
6
CONTINUOUS
10
6.45866
20
-5.90354
11
6.43307
21
-5.90354
0
LINE
8
BLACK
6
CONTINUOUS
10
6.43307
20
-5.90354
11
6.4293
21
-5.90279
0
LINE
8
BLACK
6
CONTINUOUS
10
6.4293
20
-5.90279
11
6.42611
21
-5.90066
0
LINE
8
BLACK
6
CONTINUOUS
10
6.42611
20
-5.90066
11
6.42398
21
-5.89747
0
LINE
8
BLACK
6
CONTINUOUS
10
6.42398
20
-5.89747
11
6.42323
21
-5.8937
0
LINE
8
BLACK
6
CONTINUOUS
10
6.42323
20
-5.8937
11
6.42323
21
-5.85827
0
LINE
8
BLACK
6
CONTINUOUS
10
6.42323
20
-5.85827
11
6.42398
21
-5.8545
0
LINE
8
BLACK
6
CONTINUOUS
10
6.42398
20
-5.8545
11
6.42611
21
-5.85131
0
LINE
8
BLACK
6
CONTINUOUS
10
6.42611
20
-5.85131
11
6.4293
21
-5.84917
0
LINE
8
BLACK
6
CONTINUOUS
10
6.4293
20
-5.84917
11
6.43307
21
-5.84843
0
LINE
8
BLACK
6
CONTINUOUS
10
6.43307
20
-5.84843
11
6.45866
21
-5.84843
0
LINE
8
BLACK
6
CONTINUOUS
10
6.45866
20
-5.84843
11
6.46243
21
-5.84917
0
LINE
8
BLACK
6
CONTINUOUS
10
6.54314
20
-5.84917
11
6.54633
21
-5.85131
0
LINE
8
BLACK
6
CONTINUOUS
10
6.54633
20
-5.85131
11
6.54846
21
-5.8545
0
LINE
8
BLACK
6
CONTINUOUS
10
6.54846
20
-5.8545
11
6.54921
21
-5.85827
0
LINE
8
BLACK
6
CONTINUOUS
10
6.54921
20
-5.85827
11
6.54921
21
-5.8937
0
LINE
8
BLACK
6
CONTINUOUS
10
6.54921
20
-5.8937
11
6.54846
21
-5.89747
0
LINE
8
BLACK
6
CONTINUOUS
10
6.54846
20
-5.89747
11
6.54633
21
-5.90066
0
LINE
8
BLACK
6
CONTINUOUS
10
6.54633
20
-5.90066
11
6.54314
21
-5.90279
0
LINE
8
BLACK
6
CONTINUOUS
10
6.54314
20
-5.90279
11
6.53937
21
-5.90354
0
LINE
8
BLACK
6
CONTINUOUS
10
6.53937
20
-5.90354
11
6.51378
21
-5.90354
0
LINE
8
BLACK
6
CONTINUOUS
10
6.51378
20
-5.90354
11
6.51001
21
-5.90279
0
LINE
8
BLACK
6
CONTINUOUS
10
6.51001
20
-5.90279
11
6.50682
21
-5.90066
0
LINE
8
BLACK
6
CONTINUOUS
10
6.50682
20
-5.90066
11
6.50469
21
-5.89747
0
LINE
8
BLACK
6
CONTINUOUS
10
6.50469
20
-5.89747
11
6.50394
21
-5.8937
0
LINE
8
BLACK
6
CONTINUOUS
10
6.50394
20
-5.8937
11
6.50394
21
-5.85827
0
LINE
8
BLACK
6
CONTINUOUS
10
6.50394
20
-5.85827
11
6.50469
21
-5.8545
0
LINE
8
BLACK
6
CONTINUOUS
10
6.50469
20
-5.8545
11
6.50682
21
-5.85131
0
LINE
8
BLACK
6
CONTINUOUS
10
6.50682
20
-5.85131
11
6.51001
21
-5.84917
0
LINE
8
BLACK
6
CONTINUOUS
10
6.51001
20
-5.84917
11
6.51378
21
-5.84843
0
LINE
8
BLACK
6
CONTINUOUS
10
6.51378
20
-5.84843
11
6.53937
21
-5.84843
0
LINE
8
BLACK
6
CONTINUOUS
10
6.53937
20
-5.84843
11
6.54314
21
-5.84917
0
LINE
8
BLACK
6
CONTINUOUS
10
6.69077
20
-5.84917
11
6.69397
21
-5.85131
0
LINE
8
BLACK
6
CONTINUOUS
10
6.69397
20
-5.85131
11
6.6961
21
-5.8545
0
LINE
8
BLACK
6
CONTINUOUS
10
6.6961
20
-5.8545
11
6.69685
21
-5.85827
0
LINE
8
BLACK
6
CONTINUOUS
10
6.69685
20
-5.85827
11
6.69685
21
-5.8937
0
LINE
8
BLACK
6
CONTINUOUS
10
6.69685
20
-5.8937
11
6.6961
21
-5.89747
0
LINE
8
BLACK
6
CONTINUOUS
10
6.6961
20
-5.89747
11
6.69397
21
-5.90066
0
LINE
8
BLACK
6
CONTINUOUS
10
6.69397
20
-5.90066
11
6.69077
21
-5.90279
0
LINE
8
BLACK
6
CONTINUOUS
10
6.69077
20
-5.90279
11
6.68701
21
-5.90354
0
LINE
8
BLACK
6
CONTINUOUS
10
6.68701
20
-5.90354
11
6.66142
21
-5.90354
0
LINE
8
BLACK
6
CONTINUOUS
10
6.66142
20
-5.90354
11
6.65765
21
-5.90279
0
LINE
8
BLACK
6
CONTINUOUS
10
6.65765
20
-5.90279
11
6.65446
21
-5.90066
0
LINE
8
BLACK
6
CONTINUOUS
10
6.65446
20
-5.90066
11
6.65232
21
-5.89747
0
LINE
8
BLACK
6
CONTINUOUS
10
6.65232
20
-5.89747
11
6.65157
21
-5.8937
0
LINE
8
BLACK
6
CONTINUOUS
10
6.65157
20
-5.8937
11
6.65157
21
-5.85827
0
LINE
8
BLACK
6
CONTINUOUS
10
6.65157
20
-5.85827
11
6.65232
21
-5.8545
0
LINE
8
BLACK
6
CONTINUOUS
10
6.65232
20
-5.8545
11
6.65446
21
-5.85131
0
LINE
8
BLACK
6
CONTINUOUS
10
6.65446
20
-5.85131
11
6.65765
21
-5.84917
0
LINE
8
BLACK
6
CONTINUOUS
10
6.65765
20
-5.84917
11
6.66142
21
-5.84843
0
LINE
8
BLACK
6
CONTINUOUS
10
6.66142
20
-5.84843
11
6.68701
21
-5.84843
0
LINE
8
BLACK
6
CONTINUOUS
10
6.68701
20
-5.84843
11
6.69077
21
-5.84917
0
LINE
8
BLACK
6
CONTINUOUS
10
6.61007
20
-5.84917
11
6.61326
21
-5.85131
0
LINE
8
BLACK
6
CONTINUOUS
10
6.61326
20
-5.85131
11
6.61539
21
-5.8545
0
LINE
8
BLACK
6
CONTINUOUS
10
6.61539
20
-5.8545
11
6.61614
21
-5.85827
0
LINE
8
BLACK
6
CONTINUOUS
10
6.61614
20
-5.85827
11
6.61614
21
-5.8937
0
LINE
8
BLACK
6
CONTINUOUS
10
6.61614
20
-5.8937
11
6.61539
21
-5.89747
0
LINE
8
BLACK
6
CONTINUOUS
10
6.61539
20
-5.89747
11
6.61326
21
-5.90066
0
LINE
8
BLACK
6
CONTINUOUS
10
6.61326
20
-5.90066
11
6.61007
21
-5.90279
0
LINE
8
BLACK
6
CONTINUOUS
10
6.61007
20
-5.90279
11
6.6063
21
-5.90354
0
LINE
8
BLACK
6
CONTINUOUS
10
6.6063
20
-5.90354
11
6.58071
21
-5.90354
0
LINE
8
BLACK
6
CONTINUOUS
10
6.58071
20
-5.90354
11
6.57694
21
-5.90279
0
LINE
8
BLACK
6
CONTINUOUS
10
6.57694
20
-5.90279
11
6.57375
21
-5.90066
0
LINE
8
BLACK
6
CONTINUOUS
10
6.57375
20
-5.90066
11
6.57162
21
-5.89747
0
LINE
8
BLACK
6
CONTINUOUS
10
6.57162
20
-5.89747
11
6.57087
21
-5.8937
0
LINE
8
BLACK
6
CONTINUOUS
10
6.57087
20
-5.8937
11
6.57087
21
-5.85827
0
LINE
8
BLACK
6
CONTINUOUS
10
6.57087
20
-5.85827
11
6.57162
21
-5.8545
0
LINE
8
BLACK
6
CONTINUOUS
10
6.57162
20
-5.8545
11
6.57375
21
-5.85131
0
LINE
8
BLACK
6
CONTINUOUS
10
6.57375
20
-5.85131
11
6.57694
21
-5.84917
0
LINE
8
BLACK
6
CONTINUOUS
10
6.57694
20
-5.84917
11
6.58071
21
-5.84843
0
LINE
8
BLACK
6
CONTINUOUS
10
6.58071
20
-5.84843
11
6.6063
21
-5.84843
0
LINE
8
BLACK
6
CONTINUOUS
10
6.6063
20
-5.84843
11
6.61007
21
-5.84917
0
LINE
8
BLACK
6
CONTINUOUS
10
6.82562
20
-5.83933
11
6.82881
21
-5.84147
0
LINE
8
BLACK
6
CONTINUOUS
10
6.82881
20
-5.84147
11
6.83094
21
-5.84466
0
LINE
8
BLACK
6
CONTINUOUS
10
6.83094
20
-5.84466
11
6.83169
21
-5.84843
0
LINE
8
BLACK
6
CONTINUOUS
10
6.83169
20
-5.84843
11
6.83169
21
-5.88386
0
LINE
8
BLACK
6
CONTINUOUS
10
6.83169
20
-5.88386
11
6.83094
21
-5.88762
0
LINE
8
BLACK
6
CONTINUOUS
10
6.83094
20
-5.88762
11
6.82881
21
-5.89082
0
LINE
8
BLACK
6
CONTINUOUS
10
6.82881
20
-5.89082
11
6.82562
21
-5.89295
0
LINE
8
BLACK
6
CONTINUOUS
10
6.82562
20
-5.89295
11
6.82185
21
-5.8937
0
LINE
8
BLACK
6
CONTINUOUS
10
6.82185
20
-5.8937
11
6.79626
21
-5.8937
0
LINE
8
BLACK
6
CONTINUOUS
10
6.79626
20
-5.8937
11
6.79249
21
-5.89295
0
LINE
8
BLACK
6
CONTINUOUS
10
6.79249
20
-5.89295
11
6.7893
21
-5.89082
0
LINE
8
BLACK
6
CONTINUOUS
10
6.7893
20
-5.89082
11
6.78717
21
-5.88762
0
LINE
8
BLACK
6
CONTINUOUS
10
6.78717
20
-5.88762
11
6.78642
21
-5.88386
0
LINE
8
BLACK
6
CONTINUOUS
10
6.78642
20
-5.88386
11
6.78642
21
-5.84843
0
LINE
8
BLACK
6
CONTINUOUS
10
6.78642
20
-5.84843
11
6.78717
21
-5.84466
0
LINE
8
BLACK
6
CONTINUOUS
10
6.78717
20
-5.84466
11
6.7893
21
-5.84147
0
LINE
8
BLACK
6
CONTINUOUS
10
6.7893
20
-5.84147
11
6.79249
21
-5.83933
0
LINE
8
BLACK
6
CONTINUOUS
10
6.79249
20
-5.83933
11
6.79626
21
-5.83858
0
LINE
8
BLACK
6
CONTINUOUS
10
6.79626
20
-5.83858
11
6.82185
21
-5.83858
0
LINE
8
BLACK
6
CONTINUOUS
10
6.82185
20
-5.83858
11
6.82562
21
-5.83933
0
LINE
8
BLACK
6
CONTINUOUS
10
6.90633
20
-5.83933
11
6.90952
21
-5.84147
0
LINE
8
BLACK
6
CONTINUOUS
10
6.90952
20
-5.84147
11
6.91165
21
-5.84466
0
LINE
8
BLACK
6
CONTINUOUS
10
6.91165
20
-5.84466
11
6.9124
21
-5.84843
0
LINE
8
BLACK
6
CONTINUOUS
10
6.9124
20
-5.84843
11
6.9124
21
-5.88386
0
LINE
8
BLACK
6
CONTINUOUS
10
6.9124
20
-5.88386
11
6.91165
21
-5.88762
0
LINE
8
BLACK
6
CONTINUOUS
10
6.91165
20
-5.88762
11
6.90952
21
-5.89082
0
LINE
8
BLACK
6
CONTINUOUS
10
6.90952
20
-5.89082
11
6.90633
21
-5.89295
0
LINE
8
BLACK
6
CONTINUOUS
10
6.90633
20
-5.89295
11
6.90256
21
-5.8937
0
LINE
8
BLACK
6
CONTINUOUS
10
6.90256
20
-5.8937
11
6.87697
21
-5.8937
0
LINE
8
BLACK
6
CONTINUOUS
10
6.87697
20
-5.8937
11
6.8732
21
-5.89295
0
LINE
8
BLACK
6
CONTINUOUS
10
6.8732
20
-5.89295
11
6.87001
21
-5.89082
0
LINE
8
BLACK
6
CONTINUOUS
10
6.87001
20
-5.89082
11
6.86788
21
-5.88762
0
LINE
8
BLACK
6
CONTINUOUS
10
6.86788
20
-5.88762
11
6.86713
21
-5.88386
0
LINE
8
BLACK
6
CONTINUOUS
10
6.86713
20
-5.88386
11
6.86713
21
-5.84843
0
LINE
8
BLACK
6
CONTINUOUS
10
6.86713
20
-5.84843
11
6.86788
21
-5.84466
0
LINE
8
BLACK
6
CONTINUOUS
10
6.86788
20
-5.84466
11
6.87001
21
-5.84147
0
LINE
8
BLACK
6
CONTINUOUS
10
6.87001
20
-5.84147
11
6.8732
21
-5.83933
0
LINE
8
BLACK
6
CONTINUOUS
10
6.8732
20
-5.83933
11
6.87697
21
-5.83858
0
LINE
8
BLACK
6
CONTINUOUS
10
6.87697
20
-5.83858
11
6.90256
21
-5.83858
0
LINE
8
BLACK
6
CONTINUOUS
10
6.90256
20
-5.83858
11
6.90633
21
-5.83933
0
LINE
8
BLACK
6
CONTINUOUS
10
6.22522
20
-5.83933
11
6.22842
21
-5.84147
0
LINE
8
BLACK
6
CONTINUOUS
10
6.22842
20
-5.84147
11
6.23055
21
-5.84466
0
LINE
8
BLACK
6
CONTINUOUS
10
6.23055
20
-5.84466
11
6.2313
21
-5.84843
0
LINE
8
BLACK
6
CONTINUOUS
10
6.2313
20
-5.84843
11
6.2313
21
-5.88386
0
LINE
8
BLACK
6
CONTINUOUS
10
6.2313
20
-5.88386
11
6.23055
21
-5.88762
0
LINE
8
BLACK
6
CONTINUOUS
10
6.23055
20
-5.88762
11
6.22842
21
-5.89082
0
LINE
8
BLACK
6
CONTINUOUS
10
6.22842
20
-5.89082
11
6.22522
21
-5.89295
0
LINE
8
BLACK
6
CONTINUOUS
10
6.22522
20
-5.89295
11
6.22146
21
-5.8937
0
LINE
8
BLACK
6
CONTINUOUS
10
6.22146
20
-5.8937
11
6.19587
21
-5.8937
0
LINE
8
BLACK
6
CONTINUOUS
10
6.19587
20
-5.8937
11
6.1921
21
-5.89295
0
LINE
8
BLACK
6
CONTINUOUS
10
6.1921
20
-5.89295
11
6.18891
21
-5.89082
0
LINE
8
BLACK
6
CONTINUOUS
10
6.18891
20
-5.89082
11
6.18677
21
-5.88762
0
LINE
8
BLACK
6
CONTINUOUS
10
6.18677
20
-5.88762
11
6.18602
21
-5.88386
0
LINE
8
BLACK
6
CONTINUOUS
10
6.18602
20
-5.88386
11
6.18602
21
-5.84843
0
LINE
8
BLACK
6
CONTINUOUS
10
6.18602
20
-5.84843
11
6.18677
21
-5.84466
0
LINE
8
BLACK
6
CONTINUOUS
10
6.18677
20
-5.84466
11
6.18891
21
-5.84147
0
LINE
8
BLACK
6
CONTINUOUS
10
6.18891
20
-5.84147
11
6.1921
21
-5.83933
0
LINE
8
BLACK
6
CONTINUOUS
10
6.1921
20
-5.83933
11
6.19587
21
-5.83858
0
LINE
8
BLACK
6
CONTINUOUS
10
6.19587
20
-5.83858
11
6.22146
21
-5.83858
0
LINE
8
BLACK
6
CONTINUOUS
10
6.22146
20
-5.83858
11
6.22522
21
-5.83933
0
LINE
8
BLACK
6
CONTINUOUS
10
6.30593
20
-5.83933
11
6.30913
21
-5.84147
0
LINE
8
BLACK
6
CONTINUOUS
10
6.30913
20
-5.84147
11
6.31126
21
-5.84466
0
LINE
8
BLACK
6
CONTINUOUS
10
6.31126
20
-5.84466
11
6.31201
21
-5.84843
0
LINE
8
BLACK
6
CONTINUOUS
10
6.31201
20
-5.84843
11
6.31201
21
-5.88386
0
LINE
8
BLACK
6
CONTINUOUS
10
6.31201
20
-5.88386
11
6.31126
21
-5.88762
0
LINE
8
BLACK
6
CONTINUOUS
10
6.31126
20
-5.88762
11
6.30913
21
-5.89082
0
LINE
8
BLACK
6
CONTINUOUS
10
6.30913
20
-5.89082
11
6.30593
21
-5.89295
0
LINE
8
BLACK
6
CONTINUOUS
10
6.30593
20
-5.89295
11
6.30217
21
-5.8937
0
LINE
8
BLACK
6
CONTINUOUS
10
6.30217
20
-5.8937
11
6.27657
21
-5.8937
0
LINE
8
BLACK
6
CONTINUOUS
10
6.27657
20
-5.8937
11
6.27281
21
-5.89295
0
LINE
8
BLACK
6
CONTINUOUS
10
6.27281
20
-5.89295
11
6.26962
21
-5.89082
0
LINE
8
BLACK
6
CONTINUOUS
10
6.26962
20
-5.89082
11
6.26748
21
-5.88762
0
LINE
8
BLACK
6
CONTINUOUS
10
6.26748
20
-5.88762
11
6.26673
21
-5.88386
0
LINE
8
BLACK
6
CONTINUOUS
10
6.26673
20
-5.88386
11
6.26673
21
-5.84843
0
LINE
8
BLACK
6
CONTINUOUS
10
6.26673
20
-5.84843
11
6.26748
21
-5.84466
0
LINE
8
BLACK
6
CONTINUOUS
10
6.26748
20
-5.84466
11
6.26962
21
-5.84147
0
LINE
8
BLACK
6
CONTINUOUS
10
6.26962
20
-5.84147
11
6.27281
21
-5.83933
0
LINE
8
BLACK
6
CONTINUOUS
10
6.27281
20
-5.83933
11
6.27657
21
-5.83858
0
LINE
8
BLACK
6
CONTINUOUS
10
6.27657
20
-5.83858
11
6.30217
21
-5.83858
0
LINE
8
BLACK
6
CONTINUOUS
10
6.30217
20
-5.83858
11
6.30593
21
-5.83933
0
LINE
8
BLACK
6
CONTINUOUS
10
6.07759
20
-5.83933
11
6.08078
21
-5.84147
0
LINE
8
BLACK
6
CONTINUOUS
10
6.08078
20
-5.84147
11
6.08291
21
-5.84466
0
LINE
8
BLACK
6
CONTINUOUS
10
6.08291
20
-5.84466
11
6.08366
21
-5.84843
0
LINE
8
BLACK
6
CONTINUOUS
10
6.08366
20
-5.84843
11
6.08366
21
-5.88386
0
LINE
8
BLACK
6
CONTINUOUS
10
6.08366
20
-5.88386
11
6.08291
21
-5.88762
0
LINE
8
BLACK
6
CONTINUOUS
10
6.08291
20
-5.88762
11
6.08078
21
-5.89082
0
LINE
8
BLACK
6
CONTINUOUS
10
6.08078
20
-5.89082
11
6.07759
21
-5.89295
0
LINE
8
BLACK
6
CONTINUOUS
10
6.07759
20
-5.89295
11
6.07382
21
-5.8937
0
LINE
8
BLACK
6
CONTINUOUS
10
6.07382
20
-5.8937
11
6.04823
21
-5.8937
0
LINE
8
BLACK
6
CONTINUOUS
10
6.04823
20
-5.8937
11
6.04446
21
-5.89295
0
LINE
8
BLACK
6
CONTINUOUS
10
6.04446
20
-5.89295
11
6.04127
21
-5.89082
0
LINE
8
BLACK
6
CONTINUOUS
10
6.04127
20
-5.89082
11
6.03914
21
-5.88762
0
LINE
8
BLACK
6
CONTINUOUS
10
6.03914
20
-5.88762
11
6.03839
21
-5.88386
0
LINE
8
BLACK
6
CONTINUOUS
10
6.03839
20
-5.88386
11
6.03839
21
-5.84843
0
LINE
8
BLACK
6
CONTINUOUS
10
6.03839
20
-5.84843
11
6.03914
21
-5.84466
0
LINE
8
BLACK
6
CONTINUOUS
10
6.03914
20
-5.84466
11
6.04127
21
-5.84147
0
LINE
8
BLACK
6
CONTINUOUS
10
6.04127
20
-5.84147
11
6.04446
21
-5.83933
0
LINE
8
BLACK
6
CONTINUOUS
10
6.04446
20
-5.83933
11
6.04823
21
-5.83858
0
LINE
8
BLACK
6
CONTINUOUS
10
6.04823
20
-5.83858
11
6.07382
21
-5.83858
0
LINE
8
BLACK
6
CONTINUOUS
10
6.07382
20
-5.83858
11
6.07759
21
-5.83933
0
LINE
8
BLACK
6
CONTINUOUS
10
6.15829
20
-5.83933
11
6.16149
21
-5.84147
0
LINE
8
BLACK
6
CONTINUOUS
10
6.16149
20
-5.84147
11
6.16362
21
-5.84466
0
LINE
8
BLACK
6
CONTINUOUS
10
6.16362
20
-5.84466
11
6.16437
21
-5.84843
0
LINE
8
BLACK
6
CONTINUOUS
10
6.16437
20
-5.84843
11
6.16437
21
-5.88386
0
LINE
8
BLACK
6
CONTINUOUS
10
6.16437
20
-5.88386
11
6.16362
21
-5.88762
0
LINE
8
BLACK
6
CONTINUOUS
10
6.16362
20
-5.88762
11
6.16149
21
-5.89082
0
LINE
8
BLACK
6
CONTINUOUS
10
6.16149
20
-5.89082
11
6.15829
21
-5.89295
0
LINE
8
BLACK
6
CONTINUOUS
10
6.15829
20
-5.89295
11
6.15453
21
-5.8937
0
LINE
8
BLACK
6
CONTINUOUS
10
6.15453
20
-5.8937
11
6.12894
21
-5.8937
0
LINE
8
BLACK
6
CONTINUOUS
10
6.12894
20
-5.8937
11
6.12517
21
-5.89295
0
LINE
8
BLACK
6
CONTINUOUS
10
6.12517
20
-5.89295
11
6.12198
21
-5.89082
0
LINE
8
BLACK
6
CONTINUOUS
10
6.12198
20
-5.89082
11
6.11984
21
-5.88762
0
LINE
8
BLACK
6
CONTINUOUS
10
6.11984
20
-5.88762
11
6.11909
21
-5.88386
0
LINE
8
BLACK
6
CONTINUOUS
10
6.11909
20
-5.88386
11
6.11909
21
-5.84843
0
LINE
8
BLACK
6
CONTINUOUS
10
6.11909
20
-5.84843
11
6.11984
21
-5.84466
0
LINE
8
BLACK
6
CONTINUOUS
10
6.11984
20
-5.84466
11
6.12198
21
-5.84147
0
LINE
8
BLACK
6
CONTINUOUS
10
6.12198
20
-5.84147
11
6.12517
21
-5.83933
0
LINE
8
BLACK
6
CONTINUOUS
10
6.12517
20
-5.83933
11
6.12894
21
-5.83858
0
LINE
8
BLACK
6
CONTINUOUS
10
6.12894
20
-5.83858
11
6.15453
21
-5.83858
0
LINE
8
BLACK
6
CONTINUOUS
10
6.15453
20
-5.83858
11
6.15829
21
-5.83933
0
LINE
8
BLACK
6
CONTINUOUS
10
6.07986
20
-5.76154
11
6.08289
21
-5.76357
0
LINE
8
BLACK
6
CONTINUOUS
10
6.08289
20
-5.76357
11
6.08492
21
-5.7666
0
LINE
8
BLACK
6
CONTINUOUS
10
6.08492
20
-5.7666
11
6.08563
21
-5.77018
0
LINE
8
BLACK
6
CONTINUOUS
10
6.08563
20
-5.77018
11
6.08563
21
-5.78888
0
LINE
8
BLACK
6
CONTINUOUS
10
6.08563
20
-5.78888
11
6.08492
21
-5.79246
0
LINE
8
BLACK
6
CONTINUOUS
10
6.08492
20
-5.79246
11
6.08289
21
-5.79549
0
LINE
8
BLACK
6
CONTINUOUS
10
6.08289
20
-5.79549
11
6.07986
21
-5.79752
0
LINE
8
BLACK
6
CONTINUOUS
10
6.07986
20
-5.79752
11
6.07628
21
-5.79823
0
LINE
8
BLACK
6
CONTINUOUS
10
6.07628
20
-5.79823
11
6.05364
21
-5.79823
0
LINE
8
BLACK
6
CONTINUOUS
10
6.05364
20
-5.79823
11
6.05006
21
-5.79752
0
LINE
8
BLACK
6
CONTINUOUS
10
6.05006
20
-5.79752
11
6.04703
21
-5.79549
0
LINE
8
BLACK
6
CONTINUOUS
10
6.04703
20
-5.79549
11
6.045
21
-5.79246
0
LINE
8
BLACK
6
CONTINUOUS
10
6.045
20
-5.79246
11
6.04429
21
-5.78888
0
LINE
8
BLACK
6
CONTINUOUS
10
6.04429
20
-5.78888
11
6.04429
21
-5.77018
0
LINE
8
BLACK
6
CONTINUOUS
10
6.04429
20
-5.77018
11
6.045
21
-5.7666
0
LINE
8
BLACK
6
CONTINUOUS
10
6.045
20
-5.7666
11
6.04703
21
-5.76357
0
LINE
8
BLACK
6
CONTINUOUS
10
6.04703
20
-5.76357
11
6.05006
21
-5.76154
0
LINE
8
BLACK
6
CONTINUOUS
10
6.05006
20
-5.76154
11
6.05364
21
-5.76083
0
LINE
8
BLACK
6
CONTINUOUS
10
6.05364
20
-5.76083
11
6.07628
21
-5.76083
0
LINE
8
BLACK
6
CONTINUOUS
10
6.07628
20
-5.76083
11
6.07986
21
-5.76154
0
LINE
8
BLACK
6
CONTINUOUS
10
6.14876
20
-5.76154
11
6.15179
21
-5.76357
0
LINE
8
BLACK
6
CONTINUOUS
10
6.15179
20
-5.76357
11
6.15382
21
-5.7666
0
LINE
8
BLACK
6
CONTINUOUS
10
6.15382
20
-5.7666
11
6.15453
21
-5.77018
0
LINE
8
BLACK
6
CONTINUOUS
10
6.15453
20
-5.77018
11
6.15453
21
-5.78888
0
LINE
8
BLACK
6
CONTINUOUS
10
6.15453
20
-5.78888
11
6.15382
21
-5.79246
0
LINE
8
BLACK
6
CONTINUOUS
10
6.15382
20
-5.79246
11
6.15179
21
-5.79549
0
LINE
8
BLACK
6
CONTINUOUS
10
6.15179
20
-5.79549
11
6.14876
21
-5.79752
0
LINE
8
BLACK
6
CONTINUOUS
10
6.14876
20
-5.79752
11
6.14518
21
-5.79823
0
LINE
8
BLACK
6
CONTINUOUS
10
6.14518
20
-5.79823
11
6.12254
21
-5.79823
0
LINE
8
BLACK
6
CONTINUOUS
10
6.12254
20
-5.79823
11
6.11896
21
-5.79752
0
LINE
8
BLACK
6
CONTINUOUS
10
6.11896
20
-5.79752
11
6.11593
21
-5.79549
0
LINE
8
BLACK
6
CONTINUOUS
10
6.11593
20
-5.79549
11
6.1139
21
-5.79246
0
LINE
8
BLACK
6
CONTINUOUS
10
6.1139
20
-5.79246
11
6.11319
21
-5.78888
0
LINE
8
BLACK
6
CONTINUOUS
10
6.11319
20
-5.78888
11
6.11319
21
-5.77018
0
LINE
8
BLACK
6
CONTINUOUS
10
6.11319
20
-5.77018
11
6.1139
21
-5.7666
0
LINE
8
BLACK
6
CONTINUOUS
10
6.1139
20
-5.7666
11
6.11593
21
-5.76357
0
LINE
8
BLACK
6
CONTINUOUS
10
6.11593
20
-5.76357
11
6.11896
21
-5.76154
0
LINE
8
BLACK
6
CONTINUOUS
10
6.11896
20
-5.76154
11
6.12254
21
-5.76083
0
LINE
8
BLACK
6
CONTINUOUS
10
6.12254
20
-5.76083
11
6.14518
21
-5.76083
0
LINE
8
BLACK
6
CONTINUOUS
10
6.14518
20
-5.76083
11
6.14876
21
-5.76154
0
LINE
8
BLACK
6
CONTINUOUS
10
6.28163
20
-5.76154
11
6.28466
21
-5.76357
0
LINE
8
BLACK
6
CONTINUOUS
10
6.28466
20
-5.76357
11
6.28669
21
-5.7666
0
LINE
8
BLACK
6
CONTINUOUS
10
6.28669
20
-5.7666
11
6.2874
21
-5.77018
0
LINE
8
BLACK
6
CONTINUOUS
10
6.2874
20
-5.77018
11
6.2874
21
-5.78888
0
LINE
8
BLACK
6
CONTINUOUS
10
6.2874
20
-5.78888
11
6.28669
21
-5.79246
0
LINE
8
BLACK
6
CONTINUOUS
10
6.28669
20
-5.79246
11
6.28466
21
-5.79549
0
LINE
8
BLACK
6
CONTINUOUS
10
6.28466
20
-5.79549
11
6.28163
21
-5.79752
0
LINE
8
BLACK
6
CONTINUOUS
10
6.28163
20
-5.79752
11
6.27805
21
-5.79823
0
LINE
8
BLACK
6
CONTINUOUS
10
6.27805
20
-5.79823
11
6.25541
21
-5.79823
0
LINE
8
BLACK
6
CONTINUOUS
10
6.25541
20
-5.79823
11
6.25184
21
-5.79752
0
LINE
8
BLACK
6
CONTINUOUS
10
6.25184
20
-5.79752
11
6.2488
21
-5.79549
0
LINE
8
BLACK
6
CONTINUOUS
10
6.2488
20
-5.79549
11
6.24677
21
-5.79246
0
LINE
8
BLACK
6
CONTINUOUS
10
6.24677
20
-5.79246
11
6.24606
21
-5.78888
0
LINE
8
BLACK
6
CONTINUOUS
10
6.24606
20
-5.78888
11
6.24606
21
-5.77018
0
LINE
8
BLACK
6
CONTINUOUS
10
6.24606
20
-5.77018
11
6.24677
21
-5.7666
0
LINE
8
BLACK
6
CONTINUOUS
10
6.24677
20
-5.7666
11
6.2488
21
-5.76357
0
LINE
8
BLACK
6
CONTINUOUS
10
6.2488
20
-5.76357
11
6.25184
21
-5.76154
0
LINE
8
BLACK
6
CONTINUOUS
10
6.25184
20
-5.76154
11
6.25541
21
-5.76083
0
LINE
8
BLACK
6
CONTINUOUS
10
6.25541
20
-5.76083
11
6.27805
21
-5.76083
0
LINE
8
BLACK
6
CONTINUOUS
10
6.27805
20
-5.76083
11
6.28163
21
-5.76154
0
LINE
8
BLACK
6
CONTINUOUS
10
6.21273
20
-5.76154
11
6.21577
21
-5.76357
0
LINE
8
BLACK
6
CONTINUOUS
10
6.21577
20
-5.76357
11
6.21779
21
-5.7666
0
LINE
8
BLACK
6
CONTINUOUS
10
6.21779
20
-5.7666
11
6.2185
21
-5.77018
0
LINE
8
BLACK
6
CONTINUOUS
10
6.2185
20
-5.77018
11
6.2185
21
-5.78888
0
LINE
8
BLACK
6
CONTINUOUS
10
6.2185
20
-5.78888
11
6.21779
21
-5.79246
0
LINE
8
BLACK
6
CONTINUOUS
10
6.21779
20
-5.79246
11
6.21577
21
-5.79549
0
LINE
8
BLACK
6
CONTINUOUS
10
6.21577
20
-5.79549
11
6.21273
21
-5.79752
0
LINE
8
BLACK
6
CONTINUOUS
10
6.21273
20
-5.79752
11
6.20915
21
-5.79823
0
LINE
8
BLACK
6
CONTINUOUS
10
6.20915
20
-5.79823
11
6.18652
21
-5.79823
0
LINE
8
BLACK
6
CONTINUOUS
10
6.18652
20
-5.79823
11
6.18294
21
-5.79752
0
LINE
8
BLACK
6
CONTINUOUS
10
6.18294
20
-5.79752
11
6.1799
21
-5.79549
0
LINE
8
BLACK
6
CONTINUOUS
10
6.1799
20
-5.79549
11
6.17788
21
-5.79246
0
LINE
8
BLACK
6
CONTINUOUS
10
6.17788
20
-5.79246
11
6.17717
21
-5.78888
0
LINE
8
BLACK
6
CONTINUOUS
10
6.17717
20
-5.78888
11
6.17717
21
-5.77018
0
LINE
8
BLACK
6
CONTINUOUS
10
6.17717
20
-5.77018
11
6.17788
21
-5.7666
0
LINE
8
BLACK
6
CONTINUOUS
10
6.17788
20
-5.7666
11
6.1799
21
-5.76357
0
LINE
8
BLACK
6
CONTINUOUS
10
6.1799
20
-5.76357
11
6.18294
21
-5.76154
0
LINE
8
BLACK
6
CONTINUOUS
10
6.18294
20
-5.76154
11
6.18652
21
-5.76083
0
LINE
8
BLACK
6
CONTINUOUS
10
6.18652
20
-5.76083
11
6.20915
21
-5.76083
0
LINE
8
BLACK
6
CONTINUOUS
10
6.20915
20
-5.76083
11
6.21273
21
-5.76154
0
LINE
8
BLACK
6
CONTINUOUS
10
6.05236
20
-5.69685
11
6.01693
21
-5.69685
0
LINE
8
BLACK
6
CONTINUOUS
10
6.01693
20
-5.69685
11
6.01693
21
-5.61811
0
LINE
8
BLACK
6
CONTINUOUS
10
6.01693
20
-5.61811
11
6.05236
21
-5.61811
0
LINE
8
BLACK
6
CONTINUOUS
10
6.05236
20
-5.61811
11
6.05236
21
-5.69685
0
LINE
8
BLACK
6
CONTINUOUS
10
6.10236
20
-5.69685
11
6.06693
21
-5.69685
0
LINE
8
BLACK
6
CONTINUOUS
10
6.06693
20
-5.69685
11
6.06693
21
-5.61811
0
LINE
8
BLACK
6
CONTINUOUS
10
6.06693
20
-5.61811
11
6.10236
21
-5.61811
0
LINE
8
BLACK
6
CONTINUOUS
10
6.10236
20
-5.61811
11
6.10236
21
-5.69685
0
LINE
8
BLACK
6
CONTINUOUS
10
6.15236
20
-5.69685
11
6.11693
21
-5.69685
0
LINE
8
BLACK
6
CONTINUOUS
10
6.11693
20
-5.69685
11
6.11693
21
-5.61811
0
LINE
8
BLACK
6
CONTINUOUS
10
6.11693
20
-5.61811
11
6.15236
21
-5.61811
0
LINE
8
BLACK
6
CONTINUOUS
10
6.15236
20
-5.61811
11
6.15236
21
-5.69685
0
LINE
8
BLACK
6
CONTINUOUS
10
6.20236
20
-5.69685
11
6.16693
21
-5.69685
0
LINE
8
BLACK
6
CONTINUOUS
10
6.16693
20
-5.69685
11
6.16693
21
-5.61811
0
LINE
8
BLACK
6
CONTINUOUS
10
6.16693
20
-5.61811
11
6.20236
21
-5.61811
0
LINE
8
BLACK
6
CONTINUOUS
10
6.20236
20
-5.61811
11
6.20236
21
-5.69685
0
LINE
8
BLACK
6
CONTINUOUS
10
6.25236
20
-5.69685
11
6.21693
21
-5.69685
0
LINE
8
BLACK
6
CONTINUOUS
10
6.21693
20
-5.69685
11
6.21693
21
-5.61811
0
LINE
8
BLACK
6
CONTINUOUS
10
6.21693
20
-5.61811
11
6.25236
21
-5.61811
0
LINE
8
BLACK
6
CONTINUOUS
10
6.25236
20
-5.61811
11
6.25236
21
-5.69685
0
LINE
8
BLACK
6
CONTINUOUS
10
6.30236
20
-5.69685
11
6.26693
21
-5.69685
0
LINE
8
BLACK
6
CONTINUOUS
10
6.26693
20
-5.69685
11
6.26693
21
-5.61811
0
LINE
8
BLACK
6
CONTINUOUS
10
6.26693
20
-5.61811
11
6.30236
21
-5.61811
0
LINE
8
BLACK
6
CONTINUOUS
10
6.30236
20
-5.61811
11
6.30236
21
-5.69685
0
LINE
8
BLACK
6
CONTINUOUS
10
6.35236
20
-5.69685
11
6.31693
21
-5.69685
0
LINE
8
BLACK
6
CONTINUOUS
10
6.31693
20
-5.69685
11
6.31693
21
-5.61811
0
LINE
8
BLACK
6
CONTINUOUS
10
6.31693
20
-5.61811
11
6.35236
21
-5.61811
0
LINE
8
BLACK
6
CONTINUOUS
10
6.35236
20
-5.61811
11
6.35236
21
-5.69685
0
LINE
8
BLACK
6
CONTINUOUS
10
6.40236
20
-5.69685
11
6.36693
21
-5.69685
0
LINE
8
BLACK
6
CONTINUOUS
10
6.36693
20
-5.69685
11
6.36693
21
-5.61811
0
LINE
8
BLACK
6
CONTINUOUS
10
6.36693
20
-5.61811
11
6.40236
21
-5.61811
0
LINE
8
BLACK
6
CONTINUOUS
10
6.40236
20
-5.61811
11
6.40236
21
-5.69685
0
LINE
8
BLACK
6
CONTINUOUS
10
6.45236
20
-5.69685
11
6.41693
21
-5.69685
0
LINE
8
BLACK
6
CONTINUOUS
10
6.41693
20
-5.69685
11
6.41693
21
-5.61811
0
LINE
8
BLACK
6
CONTINUOUS
10
6.41693
20
-5.61811
11
6.45236
21
-5.61811
0
LINE
8
BLACK
6
CONTINUOUS
10
6.45236
20
-5.61811
11
6.45236
21
-5.69685
0
LINE
8
BLACK
6
CONTINUOUS
10
6.50236
20
-5.69685
11
6.46693
21
-5.69685
0
LINE
8
BLACK
6
CONTINUOUS
10
6.46693
20
-5.69685
11
6.46693
21
-5.61811
0
LINE
8
BLACK
6
CONTINUOUS
10
6.46693
20
-5.61811
11
6.50236
21
-5.61811
0
LINE
8
BLACK
6
CONTINUOUS
10
6.50236
20
-5.61811
11
6.50236
21
-5.69685
0
LINE
8
BLACK
6
CONTINUOUS
10
6.55236
20
-5.69685
11
6.51693
21
-5.69685
0
LINE
8
BLACK
6
CONTINUOUS
10
6.51693
20
-5.69685
11
6.51693
21
-5.61811
0
LINE
8
BLACK
6
CONTINUOUS
10
6.51693
20
-5.61811
11
6.55236
21
-5.61811
0
LINE
8
BLACK
6
CONTINUOUS
10
6.55236
20
-5.61811
11
6.55236
21
-5.69685
0
LINE
8
BLACK
6
CONTINUOUS
10
6.60236
20
-5.69685
11
6.56693
21
-5.69685
0
LINE
8
BLACK
6
CONTINUOUS
10
6.56693
20
-5.69685
11
6.56693
21
-5.61811
0
LINE
8
BLACK
6
CONTINUOUS
10
6.56693
20
-5.61811
11
6.60236
21
-5.61811
0
LINE
8
BLACK
6
CONTINUOUS
10
6.60236
20
-5.61811
11
6.60236
21
-5.69685
0
LINE
8
BLACK
6
CONTINUOUS
10
6.65236
20
-5.69685
11
6.61693
21
-5.69685
0
LINE
8
BLACK
6
CONTINUOUS
10
6.61693
20
-5.69685
11
6.61693
21
-5.61811
0
LINE
8
BLACK
6
CONTINUOUS
10
6.61693
20
-5.61811
11
6.65236
21
-5.61811
0
LINE
8
BLACK
6
CONTINUOUS
10
6.65236
20
-5.61811
11
6.65236
21
-5.69685
0
LINE
8
BLACK
6
CONTINUOUS
10
6.70236
20
-5.69685
11
6.66693
21
-5.69685
0
LINE
8
BLACK
6
CONTINUOUS
10
6.66693
20
-5.69685
11
6.66693
21
-5.61811
0
LINE
8
BLACK
6
CONTINUOUS
10
6.66693
20
-5.61811
11
6.70236
21
-5.61811
0
LINE
8
BLACK
6
CONTINUOUS
10
6.70236
20
-5.61811
11
6.70236
21
-5.69685
0
LINE
8
BLACK
6
CONTINUOUS
10
6.78307
20
-5.60571
11
6.70433
21
-5.60571
0
LINE
8
BLACK
6
CONTINUOUS
10
6.70433
20
-5.60571
11
6.70433
21
-5.57028
0
LINE
8
BLACK
6
CONTINUOUS
10
6.70433
20
-5.57028
11
6.78307
21
-5.57028
0
LINE
8
BLACK
6
CONTINUOUS
10
6.78307
20
-5.57028
11
6.78307
21
-5.60571
0
LINE
8
BLACK
6
CONTINUOUS
10
6.78307
20
-5.55571
11
6.70433
21
-5.55571
0
LINE
8
BLACK
6
CONTINUOUS
10
6.70433
20
-5.55571
11
6.70433
21
-5.52028
0
LINE
8
BLACK
6
CONTINUOUS
10
6.70433
20
-5.52028
11
6.78307
21
-5.52028
0
LINE
8
BLACK
6
CONTINUOUS
10
6.78307
20
-5.52028
11
6.78307
21
-5.55571
0
LINE
8
BLACK
6
CONTINUOUS
10
6.94685
20
-5.51575
11
6.88386
21
-5.51575
0
LINE
8
BLACK
6
CONTINUOUS
10
6.88386
20
-5.51575
11
6.88386
21
-5.48228
0
LINE
8
BLACK
6
CONTINUOUS
10
6.88386
20
-5.48228
11
6.94685
21
-5.48228
0
LINE
8
BLACK
6
CONTINUOUS
10
6.94685
20
-5.48228
11
6.94685
21
-5.51575
0
LINE
8
BLACK
6
CONTINUOUS
10
7.08465
20
-5.51575
11
7.02165
21
-5.51575
0
LINE
8
BLACK
6
CONTINUOUS
10
7.02165
20
-5.51575
11
7.02165
21
-5.48228
0
LINE
8
BLACK
6
CONTINUOUS
10
7.02165
20
-5.48228
11
7.08465
21
-5.48228
0
LINE
8
BLACK
6
CONTINUOUS
10
7.08465
20
-5.48228
11
7.08465
21
-5.51575
0
LINE
8
BLACK
6
CONTINUOUS
10
6.78307
20
-5.50571
11
6.70433
21
-5.50571
0
LINE
8
BLACK
6
CONTINUOUS
10
6.70433
20
-5.50571
11
6.70433
21
-5.47028
0
LINE
8
BLACK
6
CONTINUOUS
10
6.70433
20
-5.47028
11
6.78307
21
-5.47028
0
LINE
8
BLACK
6
CONTINUOUS
10
6.78307
20
-5.47028
11
6.78307
21
-5.50571
0
LINE
8
BLACK
6
CONTINUOUS
10
6.42835
20
-5.46063
11
6.2315
21
-5.46063
0
LINE
8
BLACK
6
CONTINUOUS
10
6.2315
20
-5.46063
11
6.2315
21
-5.26378
0
LINE
8
BLACK
6
CONTINUOUS
10
6.2315
20
-5.26378
11
6.42835
21
-5.26378
0
LINE
8
BLACK
6
CONTINUOUS
10
6.42835
20
-5.26378
11
6.42835
21
-5.46063
0
LINE
8
BLACK
6
CONTINUOUS
10
6.78307
20
-5.45571
11
6.70433
21
-5.45571
0
LINE
8
BLACK
6
CONTINUOUS
10
6.70433
20
-5.45571
11
6.70433
21
-5.42028
0
LINE
8
BLACK
6
CONTINUOUS
10
6.70433
20
-5.42028
11
6.78307
21
-5.42028
0
LINE
8
BLACK
6
CONTINUOUS
10
6.78307
20
-5.42028
11
6.78307
21
-5.45571
0
LINE
8
BLACK
6
CONTINUOUS
10
6.94685
20
-5.44685
11
6.88386
21
-5.44685
0
LINE
8
BLACK
6
CONTINUOUS
10
6.88386
20
-5.44685
11
6.88386
21
-5.41339
0
LINE
8
BLACK
6
CONTINUOUS
10
6.88386
20
-5.41339
11
6.94685
21
-5.41339
0
LINE
8
BLACK
6
CONTINUOUS
10
6.94685
20
-5.41339
11
6.94685
21
-5.44685
0
LINE
8
BLACK
6
CONTINUOUS
10
7.08465
20
-5.44685
11
7.02165
21
-5.44685
0
LINE
8
BLACK
6
CONTINUOUS
10
7.02165
20
-5.44685
11
7.02165
21
-5.41339
0
LINE
8
BLACK
6
CONTINUOUS
10
7.02165
20
-5.41339
11
7.08465
21
-5.41339
0
LINE
8
BLACK
6
CONTINUOUS
10
7.08465
20
-5.41339
11
7.08465
21
-5.44685
0
LINE
8
BLACK
6
CONTINUOUS
10
6.78307
20
-5.40571
11
6.70433
21
-5.40571
0
LINE
8
BLACK
6
CONTINUOUS
10
6.70433
20
-5.40571
11
6.70433
21
-5.37028
0
LINE
8
BLACK
6
CONTINUOUS
10
6.70433
20
-5.37028
11
6.78307
21
-5.37028
0
LINE
8
BLACK
6
CONTINUOUS
10
6.78307
20
-5.37028
11
6.78307
21
-5.40571
0
LINE
8
BLACK
6
CONTINUOUS
10
6.78307
20
-5.35571
11
6.70433
21
-5.35571
0
LINE
8
BLACK
6
CONTINUOUS
10
6.70433
20
-5.35571
11
6.70433
21
-5.32028
0
LINE
8
BLACK
6
CONTINUOUS
10
6.70433
20
-5.32028
11
6.78307
21
-5.32028
0
LINE
8
BLACK
6
CONTINUOUS
10
6.78307
20
-5.32028
11
6.78307
21
-5.35571
0
LINE
8
BLACK
6
CONTINUOUS
10
6.78307
20
-5.30571
11
6.70433
21
-5.30571
0
LINE
8
BLACK
6
CONTINUOUS
10
6.70433
20
-5.30571
11
6.70433
21
-5.27028
0
LINE
8
BLACK
6
CONTINUOUS
10
6.70433
20
-5.27028
11
6.78307
21
-5.27028
0
LINE
8
BLACK
6
CONTINUOUS
10
6.78307
20
-5.27028
11
6.78307
21
-5.30571
0
LINE
8
BLACK
6
CONTINUOUS
10
6.78307
20
-5.25571
11
6.70433
21
-5.25571
0
LINE
8
BLACK
6
CONTINUOUS
10
6.70433
20
-5.25571
11
6.70433
21
-5.22028
0
LINE
8
BLACK
6
CONTINUOUS
10
6.70433
20
-5.22028
11
6.78307
21
-5.22028
0
LINE
8
BLACK
6
CONTINUOUS
10
6.78307
20
-5.22028
11
6.78307
21
-5.25571
0
LINE
8
BLACK
6
CONTINUOUS
10
6.78307
20
-5.20571
11
6.70433
21
-5.20571
0
LINE
8
BLACK
6
CONTINUOUS
10
6.70433
20
-5.20571
11
6.70433
21
-5.17028
0
LINE
8
BLACK
6
CONTINUOUS
10
6.70433
20
-5.17028
11
6.78307
21
-5.17028
0
LINE
8
BLACK
6
CONTINUOUS
10
6.78307
20
-5.17028
11
6.78307
21
-5.20571
0
LINE
8
BLACK
6
CONTINUOUS
10
6.78307
20
-5.15571
11
6.70433
21
-5.15571
0
LINE
8
BLACK
6
CONTINUOUS
10
6.70433
20
-5.15571
11
6.70433
21
-5.12028
0
LINE
8
BLACK
6
CONTINUOUS
10
6.70433
20
-5.12028
11
6.78307
21
-5.12028
0
LINE
8
BLACK
6
CONTINUOUS
10
6.78307
20
-5.12028
11
6.78307
21
-5.15571
0
LINE
8
BLACK
6
CONTINUOUS
10
6.78287
20
-5.10433
11
6.70413
21
-5.10433
0
LINE
8
BLACK
6
CONTINUOUS
10
6.70413
20
-5.10433
11
6.70413
21
-5.0689
0
LINE
8
BLACK
6
CONTINUOUS
10
6.70413
20
-5.0689
11
6.78287
21
-5.0689
0
LINE
8
BLACK
6
CONTINUOUS
10
6.78287
20
-5.0689
11
6.78287
21
-5.10433
0
LINE
8
BLACK
6
CONTINUOUS
10
6.78287
20
-5.05512
11
6.70413
21
-5.05512
0
LINE
8
BLACK
6
CONTINUOUS
10
6.70413
20
-5.05512
11
6.70413
21
-5.01969
0
LINE
8
BLACK
6
CONTINUOUS
10
6.70413
20
-5.01969
11
6.78287
21
-5.01969
0
LINE
8
BLACK
6
CONTINUOUS
10
6.78287
20
-5.01969
11
6.78287
21
-5.05512
0
LINE
8
BLACK
6
CONTINUOUS
10
6.15236
20
-5.00787
11
6.11693
21
-5.00787
0
LINE
8
BLACK
6
CONTINUOUS
10
6.11693
20
-5.00787
11
6.11693
21
-4.92913
0
LINE
8
BLACK
6
CONTINUOUS
10
6.11693
20
-4.92913
11
6.15236
21
-4.92913
0
LINE
8
BLACK
6
CONTINUOUS
10
6.15236
20
-4.92913
11
6.15236
21
-5.00787
0
LINE
8
BLACK
6
CONTINUOUS
10
6.10177
20
-5.00787
11
6.06634
21
-5.00787
0
LINE
8
BLACK
6
CONTINUOUS
10
6.06634
20
-5.00787
11
6.06634
21
-4.92913
0
LINE
8
BLACK
6
CONTINUOUS
10
6.06634
20
-4.92913
11
6.10177
21
-4.92913
0
LINE
8
BLACK
6
CONTINUOUS
10
6.10177
20
-4.92913
11
6.10177
21
-5.00787
0
LINE
8
BLACK
6
CONTINUOUS
10
6.05256
20
-5.00787
11
6.01713
21
-5.00787
0
LINE
8
BLACK
6
CONTINUOUS
10
6.01713
20
-5.00787
11
6.01713
21
-4.92913
0
LINE
8
BLACK
6
CONTINUOUS
10
6.01713
20
-4.92913
11
6.05256
21
-4.92913
0
LINE
8
BLACK
6
CONTINUOUS
10
6.05256
20
-4.92913
11
6.05256
21
-5.00787
0
LINE
8
BLACK
6
CONTINUOUS
10
6.20236
20
-5.00787
11
6.16693
21
-5.00787
0
LINE
8
BLACK
6
CONTINUOUS
10
6.16693
20
-5.00787
11
6.16693
21
-4.92913
0
LINE
8
BLACK
6
CONTINUOUS
10
6.16693
20
-4.92913
11
6.20236
21
-4.92913
0
LINE
8
BLACK
6
CONTINUOUS
10
6.20236
20
-4.92913
11
6.20236
21
-5.00787
0
LINE
8
BLACK
6
CONTINUOUS
10
6.70236
20
-5.00787
11
6.66693
21
-5.00787
0
LINE
8
BLACK
6
CONTINUOUS
10
6.66693
20
-5.00787
11
6.66693
21
-4.92913
0
LINE
8
BLACK
6
CONTINUOUS
10
6.66693
20
-4.92913
11
6.70236
21
-4.92913
0
LINE
8
BLACK
6
CONTINUOUS
10
6.70236
20
-4.92913
11
6.70236
21
-5.00787
0
LINE
8
BLACK
6
CONTINUOUS
10
6.65236
20
-5.00787
11
6.61693
21
-5.00787
0
LINE
8
BLACK
6
CONTINUOUS
10
6.61693
20
-5.00787
11
6.61693
21
-4.92913
0
LINE
8
BLACK
6
CONTINUOUS
10
6.61693
20
-4.92913
11
6.65236
21
-4.92913
0
LINE
8
BLACK
6
CONTINUOUS
10
6.65236
20
-4.92913
11
6.65236
21
-5.00787
0
LINE
8
BLACK
6
CONTINUOUS
10
6.60236
20
-5.00787
11
6.56693
21
-5.00787
0
LINE
8
BLACK
6
CONTINUOUS
10
6.56693
20
-5.00787
11
6.56693
21
-4.92913
0
LINE
8
BLACK
6
CONTINUOUS
10
6.56693
20
-4.92913
11
6.60236
21
-4.92913
0
LINE
8
BLACK
6
CONTINUOUS
10
6.60236
20
-4.92913
11
6.60236
21
-5.00787
0
LINE
8
BLACK
6
CONTINUOUS
10
6.55236
20
-5.00787
11
6.51693
21
-5.00787
0
LINE
8
BLACK
6
CONTINUOUS
10
6.51693
20
-5.00787
11
6.51693
21
-4.92913
0
LINE
8
BLACK
6
CONTINUOUS
10
6.51693
20
-4.92913
11
6.55236
21
-4.92913
0
LINE
8
BLACK
6
CONTINUOUS
10
6.55236
20
-4.92913
11
6.55236
21
-5.00787
0
LINE
8
BLACK
6
CONTINUOUS
10
6.50236
20
-5.00787
11
6.46693
21
-5.00787
0
LINE
8
BLACK
6
CONTINUOUS
10
6.46693
20
-5.00787
11
6.46693
21
-4.92913
0
LINE
8
BLACK
6
CONTINUOUS
10
6.46693
20
-4.92913
11
6.50236
21
-4.92913
0
LINE
8
BLACK
6
CONTINUOUS
10
6.50236
20
-4.92913
11
6.50236
21
-5.00787
0
LINE
8
BLACK
6
CONTINUOUS
10
6.45236
20
-5.00787
11
6.41693
21
-5.00787
0
LINE
8
BLACK
6
CONTINUOUS
10
6.41693
20
-5.00787
11
6.41693
21
-4.92913
0
LINE
8
BLACK
6
CONTINUOUS
10
6.41693
20
-4.92913
11
6.45236
21
-4.92913
0
LINE
8
BLACK
6
CONTINUOUS
10
6.45236
20
-4.92913
11
6.45236
21
-5.00787
0
LINE
8
BLACK
6
CONTINUOUS
10
6.40236
20
-5.00787
11
6.36693
21
-5.00787
0
LINE
8
BLACK
6
CONTINUOUS
10
6.36693
20
-5.00787
11
6.36693
21
-4.92913
0
LINE
8
BLACK
6
CONTINUOUS
10
6.36693
20
-4.92913
11
6.40236
21
-4.92913
0
LINE
8
BLACK
6
CONTINUOUS
10
6.40236
20
-4.92913
11
6.40236
21
-5.00787
0
LINE
8
BLACK
6
CONTINUOUS
10
6.35236
20
-5.00787
11
6.31693
21
-5.00787
0
LINE
8
BLACK
6
CONTINUOUS
10
6.31693
20
-5.00787
11
6.31693
21
-4.92913
0
LINE
8
BLACK
6
CONTINUOUS
10
6.31693
20
-4.92913
11
6.35236
21
-4.92913
0
LINE
8
BLACK
6
CONTINUOUS
10
6.35236
20
-4.92913
11
6.35236
21
-5.00787
0
LINE
8
BLACK
6
CONTINUOUS
10
6.30236
20
-5.00787
11
6.26693
21
-5.00787
0
LINE
8
BLACK
6
CONTINUOUS
10
6.26693
20
-5.00787
11
6.26693
21
-4.92913
0
LINE
8
BLACK
6
CONTINUOUS
10
6.26693
20
-4.92913
11
6.30236
21
-4.92913
0
LINE
8
BLACK
6
CONTINUOUS
10
6.30236
20
-4.92913
11
6.30236
21
-5.00787
0
LINE
8
BLACK
6
CONTINUOUS
10
6.25236
20
-5.00787
11
6.21693
21
-5.00787
0
LINE
8
BLACK
6
CONTINUOUS
10
6.21693
20
-5.00787
11
6.21693
21
-4.92913
0
LINE
8
BLACK
6
CONTINUOUS
10
6.21693
20
-4.92913
11
6.25236
21
-4.92913
0
LINE
8
BLACK
6
CONTINUOUS
10
6.25236
20
-4.92913
11
6.25236
21
-5.00787
0
LINE
8
BLACK
6
CONTINUOUS
10
6.59136
20
-4.7291
11
6.59456
21
-4.73123
0
LINE
8
BLACK
6
CONTINUOUS
10
6.59456
20
-4.73123
11
6.59669
21
-4.73442
0
LINE
8
BLACK
6
CONTINUOUS
10
6.59669
20
-4.73442
11
6.59744
21
-4.73819
0
LINE
8
BLACK
6
CONTINUOUS
10
6.59744
20
-4.73819
11
6.59744
21
-4.77362
0
LINE
8
BLACK
6
CONTINUOUS
10
6.59744
20
-4.77362
11
6.59669
21
-4.77739
0
LINE
8
BLACK
6
CONTINUOUS
10
6.59669
20
-4.77739
11
6.59456
21
-4.78058
0
LINE
8
BLACK
6
CONTINUOUS
10
6.59456
20
-4.78058
11
6.59136
21
-4.78272
0
LINE
8
BLACK
6
CONTINUOUS
10
6.59136
20
-4.78272
11
6.5876
21
-4.78346
0
LINE
8
BLACK
6
CONTINUOUS
10
6.5876
20
-4.78346
11
6.56201
21
-4.78346
0
LINE
8
BLACK
6
CONTINUOUS
10
6.56201
20
-4.78346
11
6.55824
21
-4.78272
0
LINE
8
BLACK
6
CONTINUOUS
10
6.55824
20
-4.78272
11
6.55505
21
-4.78058
0
LINE
8
BLACK
6
CONTINUOUS
10
6.55505
20
-4.78058
11
6.55291
21
-4.77739
0
LINE
8
BLACK
6
CONTINUOUS
10
6.55291
20
-4.77739
11
6.55217
21
-4.77362
0
LINE
8
BLACK
6
CONTINUOUS
10
6.55217
20
-4.77362
11
6.55217
21
-4.73819
0
LINE
8
BLACK
6
CONTINUOUS
10
6.55217
20
-4.73819
11
6.55291
21
-4.73442
0
LINE
8
BLACK
6
CONTINUOUS
10
6.55291
20
-4.73442
11
6.55505
21
-4.73123
0
LINE
8
BLACK
6
CONTINUOUS
10
6.55505
20
-4.73123
11
6.55824
21
-4.7291
0
LINE
8
BLACK
6
CONTINUOUS
10
6.55824
20
-4.7291
11
6.56201
21
-4.72835
0
LINE
8
BLACK
6
CONTINUOUS
10
6.56201
20
-4.72835
11
6.5876
21
-4.72835
0
LINE
8
BLACK
6
CONTINUOUS
10
6.5876
20
-4.72835
11
6.59136
21
-4.7291
0
LINE
8
BLACK
6
CONTINUOUS
10
6.51066
20
-4.7291
11
6.51385
21
-4.73123
0
LINE
8
BLACK
6
CONTINUOUS
10
6.51385
20
-4.73123
11
6.51598
21
-4.73442
0
LINE
8
BLACK
6
CONTINUOUS
10
6.51598
20
-4.73442
11
6.51673
21
-4.73819
0
LINE
8
BLACK
6
CONTINUOUS
10
6.51673
20
-4.73819
11
6.51673
21
-4.77362
0
LINE
8
BLACK
6
CONTINUOUS
10
6.51673
20
-4.77362
11
6.51598
21
-4.77739
0
LINE
8
BLACK
6
CONTINUOUS
10
6.51598
20
-4.77739
11
6.51385
21
-4.78058
0
LINE
8
BLACK
6
CONTINUOUS
10
6.51385
20
-4.78058
11
6.51066
21
-4.78272
0
LINE
8
BLACK
6
CONTINUOUS
10
6.51066
20
-4.78272
11
6.50689
21
-4.78346
0
LINE
8
BLACK
6
CONTINUOUS
10
6.50689
20
-4.78346
11
6.4813
21
-4.78346
0
LINE
8
BLACK
6
CONTINUOUS
10
6.4813
20
-4.78346
11
6.47753
21
-4.78272
0
LINE
8
BLACK
6
CONTINUOUS
10
6.47753
20
-4.78272
11
6.47434
21
-4.78058
0
LINE
8
BLACK
6
CONTINUOUS
10
6.47434
20
-4.78058
11
6.47221
21
-4.77739
0
LINE
8
BLACK
6
CONTINUOUS
10
6.47221
20
-4.77739
11
6.47146
21
-4.77362
0
LINE
8
BLACK
6
CONTINUOUS
10
6.47146
20
-4.77362
11
6.47146
21
-4.73819
0
LINE
8
BLACK
6
CONTINUOUS
10
6.47146
20
-4.73819
11
6.47221
21
-4.73442
0
LINE
8
BLACK
6
CONTINUOUS
10
6.47221
20
-4.73442
11
6.47434
21
-4.73123
0
LINE
8
BLACK
6
CONTINUOUS
10
6.47434
20
-4.73123
11
6.47753
21
-4.7291
0
LINE
8
BLACK
6
CONTINUOUS
10
6.47753
20
-4.7291
11
6.4813
21
-4.72835
0
LINE
8
BLACK
6
CONTINUOUS
10
6.4813
20
-4.72835
11
6.50689
21
-4.72835
0
LINE
8
BLACK
6
CONTINUOUS
10
6.50689
20
-4.72835
11
6.51066
21
-4.7291
0
LINE
8
BLACK
6
CONTINUOUS
10
6.67224
20
-4.69311
11
6.61122
21
-4.69311
0
LINE
8
BLACK
6
CONTINUOUS
10
6.61122
20
-4.69311
11
6.61122
21
-4.66949
0
LINE
8
BLACK
6
CONTINUOUS
10
6.61122
20
-4.66949
11
6.67224
21
-4.66949
0
LINE
8
BLACK
6
CONTINUOUS
10
6.67224
20
-4.66949
11
6.67224
21
-4.69311
0
LINE
8
BLACK
6
CONTINUOUS
10
6.45965
20
-4.69311
11
6.39862
21
-4.69311
0
LINE
8
BLACK
6
CONTINUOUS
10
6.39862
20
-4.69311
11
6.39862
21
-4.66949
0
LINE
8
BLACK
6
CONTINUOUS
10
6.39862
20
-4.66949
11
6.45965
21
-4.66949
0
LINE
8
BLACK
6
CONTINUOUS
10
6.45965
20
-4.66949
11
6.45965
21
-4.69311
0
LINE
8
BLACK
6
CONTINUOUS
10
6.67224
20
-4.64311
11
6.61122
21
-4.64311
0
LINE
8
BLACK
6
CONTINUOUS
10
6.61122
20
-4.64311
11
6.61122
21
-4.61949
0
LINE
8
BLACK
6
CONTINUOUS
10
6.61122
20
-4.61949
11
6.67224
21
-4.61949
0
LINE
8
BLACK
6
CONTINUOUS
10
6.67224
20
-4.61949
11
6.67224
21
-4.64311
0
LINE
8
BLACK
6
CONTINUOUS
10
6.45965
20
-4.64311
11
6.39862
21
-4.64311
0
LINE
8
BLACK
6
CONTINUOUS
10
6.39862
20
-4.64311
11
6.39862
21
-4.61949
0
LINE
8
BLACK
6
CONTINUOUS
10
6.39862
20
-4.61949
11
6.45965
21
-4.61949
0
LINE
8
BLACK
6
CONTINUOUS
10
6.45965
20
-4.61949
11
6.45965
21
-4.64311
0
LINE
8
BLACK
6
CONTINUOUS
10
6.67224
20
-4.59311
11
6.61122
21
-4.59311
0
LINE
8
BLACK
6
CONTINUOUS
10
6.61122
20
-4.59311
11
6.61122
21
-4.56949
0
LINE
8
BLACK
6
CONTINUOUS
10
6.61122
20
-4.56949
11
6.67224
21
-4.56949
0
LINE
8
BLACK
6
CONTINUOUS
10
6.67224
20
-4.56949
11
6.67224
21
-4.59311
0
LINE
8
BLACK
6
CONTINUOUS
10
6.45965
20
-4.59311
11
6.39862
21
-4.59311
0
LINE
8
BLACK
6
CONTINUOUS
10
6.39862
20
-4.59311
11
6.39862
21
-4.56949
0
LINE
8
BLACK
6
CONTINUOUS
10
6.39862
20
-4.56949
11
6.45965
21
-4.56949
0
LINE
8
BLACK
6
CONTINUOUS
10
6.45965
20
-4.56949
11
6.45965
21
-4.59311
0
LINE
8
BLACK
6
CONTINUOUS
10
6.67224
20
-4.54311
11
6.61122
21
-4.54311
0
LINE
8
BLACK
6
CONTINUOUS
10
6.61122
20
-4.54311
11
6.61122
21
-4.51949
0
LINE
8
BLACK
6
CONTINUOUS
10
6.61122
20
-4.51949
11
6.67224
21
-4.51949
0
LINE
8
BLACK
6
CONTINUOUS
10
6.67224
20
-4.51949
11
6.67224
21
-4.54311
0
LINE
8
BLACK
6
CONTINUOUS
10
6.45965
20
-4.54311
11
6.39862
21
-4.54311
0
LINE
8
BLACK
6
CONTINUOUS
10
6.39862
20
-4.54311
11
6.39862
21
-4.51949
0
LINE
8
BLACK
6
CONTINUOUS
10
6.39862
20
-4.51949
11
6.45965
21
-4.51949
0
LINE
8
BLACK
6
CONTINUOUS
10
6.45965
20
-4.51949
11
6.45965
21
-4.54311
0
LINE
8
BLACK
6
CONTINUOUS
10
6.6204
20
-4.41512
11
6.62359
21
-4.41725
0
LINE
8
BLACK
6
CONTINUOUS
10
6.62359
20
-4.41725
11
6.62573
21
-4.42045
0
LINE
8
BLACK
6
CONTINUOUS
10
6.62573
20
-4.42045
11
6.62648
21
-4.42421
0
LINE
8
BLACK
6
CONTINUOUS
10
6.62648
20
-4.42421
11
6.62648
21
-4.47343
0
LINE
8
BLACK
6
CONTINUOUS
10
6.62648
20
-4.47343
11
6.62573
21
-4.47719
0
LINE
8
BLACK
6
CONTINUOUS
10
6.62573
20
-4.47719
11
6.62359
21
-4.48038
0
LINE
8
BLACK
6
CONTINUOUS
10
6.62359
20
-4.48038
11
6.6204
21
-4.48252
0
LINE
8
BLACK
6
CONTINUOUS
10
6.6204
20
-4.48252
11
6.61663
21
-4.48327
0
LINE
8
BLACK
6
CONTINUOUS
10
6.61663
20
-4.48327
11
6.58022
21
-4.48327
0
LINE
8
BLACK
6
CONTINUOUS
10
6.58022
20
-4.48327
11
6.57645
21
-4.48252
0
LINE
8
BLACK
6
CONTINUOUS
10
6.57645
20
-4.48252
11
6.57326
21
-4.48038
0
LINE
8
BLACK
6
CONTINUOUS
10
6.57326
20
-4.48038
11
6.57112
21
-4.47719
0
LINE
8
BLACK
6
CONTINUOUS
10
6.57112
20
-4.47719
11
6.57037
21
-4.47343
0
LINE
8
BLACK
6
CONTINUOUS
10
6.57037
20
-4.47343
11
6.57037
21
-4.42421
0
LINE
8
BLACK
6
CONTINUOUS
10
6.57037
20
-4.42421
11
6.57112
21
-4.42045
0
LINE
8
BLACK
6
CONTINUOUS
10
6.57112
20
-4.42045
11
6.57326
21
-4.41725
0
LINE
8
BLACK
6
CONTINUOUS
10
6.57326
20
-4.41725
11
6.57645
21
-4.41512
0
LINE
8
BLACK
6
CONTINUOUS
10
6.57645
20
-4.41512
11
6.58022
21
-4.41437
0
LINE
8
BLACK
6
CONTINUOUS
10
6.58022
20
-4.41437
11
6.61663
21
-4.41437
0
LINE
8
BLACK
6
CONTINUOUS
10
6.61663
20
-4.41437
11
6.6204
21
-4.41512
0
LINE
8
BLACK
6
CONTINUOUS
10
6.50327
20
-4.41512
11
6.50647
21
-4.41725
0
LINE
8
BLACK
6
CONTINUOUS
10
6.50647
20
-4.41725
11
6.5086
21
-4.42045
0
LINE
8
BLACK
6
CONTINUOUS
10
6.5086
20
-4.42045
11
6.50935
21
-4.42421
0
LINE
8
BLACK
6
CONTINUOUS
10
6.50935
20
-4.42421
11
6.50935
21
-4.47343
0
LINE
8
BLACK
6
CONTINUOUS
10
6.50935
20
-4.47343
11
6.5086
21
-4.47719
0
LINE
8
BLACK
6
CONTINUOUS
10
6.5086
20
-4.47719
11
6.50647
21
-4.48038
0
LINE
8
BLACK
6
CONTINUOUS
10
6.50647
20
-4.48038
11
6.50327
21
-4.48252
0
LINE
8
BLACK
6
CONTINUOUS
10
6.50327
20
-4.48252
11
6.49951
21
-4.48327
0
LINE
8
BLACK
6
CONTINUOUS
10
6.49951
20
-4.48327
11
6.46309
21
-4.48327
0
LINE
8
BLACK
6
CONTINUOUS
10
6.46309
20
-4.48327
11
6.45932
21
-4.48252
0
LINE
8
BLACK
6
CONTINUOUS
10
6.45932
20
-4.48252
11
6.45613
21
-4.48038
0
LINE
8
BLACK
6
CONTINUOUS
10
6.45613
20
-4.48038
11
6.454
21
-4.47719
0
LINE
8
BLACK
6
CONTINUOUS
10
6.454
20
-4.47719
11
6.45325
21
-4.47343
0
LINE
8
BLACK
6
CONTINUOUS
10
6.45325
20
-4.47343
11
6.45325
21
-4.42421
0
LINE
8
BLACK
6
CONTINUOUS
10
6.45325
20
-4.42421
11
6.454
21
-4.42045
0
LINE
8
BLACK
6
CONTINUOUS
10
6.454
20
-4.42045
11
6.45613
21
-4.41725
0
LINE
8
BLACK
6
CONTINUOUS
10
6.45613
20
-4.41725
11
6.45932
21
-4.41512
0
LINE
8
BLACK
6
CONTINUOUS
10
6.45932
20
-4.41512
11
6.46309
21
-4.41437
0
LINE
8
BLACK
6
CONTINUOUS
10
6.46309
20
-4.41437
11
6.49951
21
-4.41437
0
LINE
8
BLACK
6
CONTINUOUS
10
6.49951
20
-4.41437
11
6.50327
21
-4.41512
0
LINE
8
BLACK
6
CONTINUOUS
10
6.86597
20
-4.33539
11
6.86916
21
-4.33753
0
LINE
8
BLACK
6
CONTINUOUS
10
6.86916
20
-4.33753
11
6.8713
21
-4.34072
0
LINE
8
BLACK
6
CONTINUOUS
10
6.8713
20
-4.34072
11
6.87205
21
-4.34449
0
LINE
8
BLACK
6
CONTINUOUS
10
6.87205
20
-4.34449
11
6.87205
21
-4.37992
0
LINE
8
BLACK
6
CONTINUOUS
10
6.87205
20
-4.37992
11
6.8713
21
-4.38369
0
LINE
8
BLACK
6
CONTINUOUS
10
6.8713
20
-4.38369
11
6.86916
21
-4.38688
0
LINE
8
BLACK
6
CONTINUOUS
10
6.86916
20
-4.38688
11
6.86597
21
-4.38901
0
LINE
8
BLACK
6
CONTINUOUS
10
6.86597
20
-4.38901
11
6.8622
21
-4.38976
0
LINE
8
BLACK
6
CONTINUOUS
10
6.8622
20
-4.38976
11
6.83661
21
-4.38976
0
LINE
8
BLACK
6
CONTINUOUS
10
6.83661
20
-4.38976
11
6.83285
21
-4.38901
0
LINE
8
BLACK
6
CONTINUOUS
10
6.83285
20
-4.38901
11
6.82965
21
-4.38688
0
LINE
8
BLACK
6
CONTINUOUS
10
6.82965
20
-4.38688
11
6.82752
21
-4.38369
0
LINE
8
BLACK
6
CONTINUOUS
10
6.82752
20
-4.38369
11
6.82677
21
-4.37992
0
LINE
8
BLACK
6
CONTINUOUS
10
6.82677
20
-4.37992
11
6.82677
21
-4.34449
0
LINE
8
BLACK
6
CONTINUOUS
10
6.82677
20
-4.34449
11
6.82752
21
-4.34072
0
LINE
8
BLACK
6
CONTINUOUS
10
6.82752
20
-4.34072
11
6.82965
21
-4.33753
0
LINE
8
BLACK
6
CONTINUOUS
10
6.82965
20
-4.33753
11
6.83285
21
-4.33539
0
LINE
8
BLACK
6
CONTINUOUS
10
6.83285
20
-4.33539
11
6.83661
21
-4.33465
0
LINE
8
BLACK
6
CONTINUOUS
10
6.83661
20
-4.33465
11
6.8622
21
-4.33465
0
LINE
8
BLACK
6
CONTINUOUS
10
6.8622
20
-4.33465
11
6.86597
21
-4.33539
0
LINE
8
BLACK
6
CONTINUOUS
10
6.94668
20
-4.33539
11
6.94987
21
-4.33753
0
LINE
8
BLACK
6
CONTINUOUS
10
6.94987
20
-4.33753
11
6.95201
21
-4.34072
0
LINE
8
BLACK
6
CONTINUOUS
10
6.95201
20
-4.34072
11
6.95276
21
-4.34449
0
LINE
8
BLACK
6
CONTINUOUS
10
6.95276
20
-4.34449
11
6.95276
21
-4.37992
0
LINE
8
BLACK
6
CONTINUOUS
10
6.95276
20
-4.37992
11
6.95201
21
-4.38369
0
LINE
8
BLACK
6
CONTINUOUS
10
6.95201
20
-4.38369
11
6.94987
21
-4.38688
0
LINE
8
BLACK
6
CONTINUOUS
10
6.94987
20
-4.38688
11
6.94668
21
-4.38901
0
LINE
8
BLACK
6
CONTINUOUS
10
6.94668
20
-4.38901
11
6.94291
21
-4.38976
0
LINE
8
BLACK
6
CONTINUOUS
10
6.94291
20
-4.38976
11
6.91732
21
-4.38976
0
LINE
8
BLACK
6
CONTINUOUS
10
6.91732
20
-4.38976
11
6.91356
21
-4.38901
0
LINE
8
BLACK
6
CONTINUOUS
10
6.91356
20
-4.38901
11
6.91036
21
-4.38688
0
LINE
8
BLACK
6
CONTINUOUS
10
6.91036
20
-4.38688
11
6.90823
21
-4.38369
0
LINE
8
BLACK
6
CONTINUOUS
10
6.90823
20
-4.38369
11
6.90748
21
-4.37992
0
LINE
8
BLACK
6
CONTINUOUS
10
6.90748
20
-4.37992
11
6.90748
21
-4.34449
0
LINE
8
BLACK
6
CONTINUOUS
10
6.90748
20
-4.34449
11
6.90823
21
-4.34072
0
LINE
8
BLACK
6
CONTINUOUS
10
6.90823
20
-4.34072
11
6.91036
21
-4.33753
0
LINE
8
BLACK
6
CONTINUOUS
10
6.91036
20
-4.33753
11
6.91356
21
-4.33539
0
LINE
8
BLACK
6
CONTINUOUS
10
6.91356
20
-4.33539
11
6.91732
21
-4.33465
0
LINE
8
BLACK
6
CONTINUOUS
10
6.91732
20
-4.33465
11
6.94291
21
-4.33465
0
LINE
8
BLACK
6
CONTINUOUS
10
6.94291
20
-4.33465
11
6.94668
21
-4.33539
0
LINE
8
BLACK
6
CONTINUOUS
10
6.51772
20
-4.36122
11
6.46969
21
-4.36122
0
LINE
8
BLACK
6
CONTINUOUS
10
6.46969
20
-4.36122
11
6.46969
21
-4.33563
0
LINE
8
BLACK
6
CONTINUOUS
10
6.46969
20
-4.33563
11
6.51772
21
-4.33563
0
LINE
8
BLACK
6
CONTINUOUS
10
6.51772
20
-4.33563
11
6.51772
21
-4.36122
0
LINE
8
BLACK
6
CONTINUOUS
10
6.18881
20
-4.28028
11
6.192
21
-4.28241
0
LINE
8
BLACK
6
CONTINUOUS
10
6.192
20
-4.28241
11
6.19413
21
-4.2856
0
LINE
8
BLACK
6
CONTINUOUS
10
6.19413
20
-4.2856
11
6.19488
21
-4.28937
0
LINE
8
BLACK
6
CONTINUOUS
10
6.19488
20
-4.28937
11
6.19488
21
-4.3248
0
LINE
8
BLACK
6
CONTINUOUS
10
6.19488
20
-4.3248
11
6.19413
21
-4.32857
0
LINE
8
BLACK
6
CONTINUOUS
10
6.19413
20
-4.32857
11
6.192
21
-4.33176
0
LINE
8
BLACK
6
CONTINUOUS
10
6.192
20
-4.33176
11
6.18881
21
-4.3339
0
LINE
8
BLACK
6
CONTINUOUS
10
6.18881
20
-4.3339
11
6.18504
21
-4.33465
0
LINE
8
BLACK
6
CONTINUOUS
10
6.18504
20
-4.33465
11
6.15945
21
-4.33465
0
LINE
8
BLACK
6
CONTINUOUS
10
6.15945
20
-4.33465
11
6.15568
21
-4.3339
0
LINE
8
BLACK
6
CONTINUOUS
10
6.15568
20
-4.3339
11
6.15249
21
-4.33176
0
LINE
8
BLACK
6
CONTINUOUS
10
6.15249
20
-4.33176
11
6.15036
21
-4.32857
0
LINE
8
BLACK
6
CONTINUOUS
10
6.15036
20
-4.32857
11
6.14961
21
-4.3248
0
LINE
8
BLACK
6
CONTINUOUS
10
6.14961
20
-4.3248
11
6.14961
21
-4.28937
0
LINE
8
BLACK
6
CONTINUOUS
10
6.14961
20
-4.28937
11
6.15036
21
-4.2856
0
LINE
8
BLACK
6
CONTINUOUS
10
6.15036
20
-4.2856
11
6.15249
21
-4.28241
0
LINE
8
BLACK
6
CONTINUOUS
10
6.15249
20
-4.28241
11
6.15568
21
-4.28028
0
LINE
8
BLACK
6
CONTINUOUS
10
6.15568
20
-4.28028
11
6.15945
21
-4.27953
0
LINE
8
BLACK
6
CONTINUOUS
10
6.15945
20
-4.27953
11
6.18504
21
-4.27953
0
LINE
8
BLACK
6
CONTINUOUS
10
6.18504
20
-4.27953
11
6.18881
21
-4.28028
0
LINE
8
BLACK
6
CONTINUOUS
10
6.26951
20
-4.28028
11
6.27271
21
-4.28241
0
LINE
8
BLACK
6
CONTINUOUS
10
6.27271
20
-4.28241
11
6.27484
21
-4.2856
0
LINE
8
BLACK
6
CONTINUOUS
10
6.27484
20
-4.2856
11
6.27559
21
-4.28937
0
LINE
8
BLACK
6
CONTINUOUS
10
6.27559
20
-4.28937
11
6.27559
21
-4.3248
0
LINE
8
BLACK
6
CONTINUOUS
10
6.27559
20
-4.3248
11
6.27484
21
-4.32857
0
LINE
8
BLACK
6
CONTINUOUS
10
6.27484
20
-4.32857
11
6.27271
21
-4.33176
0
LINE
8
BLACK
6
CONTINUOUS
10
6.27271
20
-4.33176
11
6.26951
21
-4.3339
0
LINE
8
BLACK
6
CONTINUOUS
10
6.26951
20
-4.3339
11
6.26575
21
-4.33465
0
LINE
8
BLACK
6
CONTINUOUS
10
6.26575
20
-4.33465
11
6.24016
21
-4.33465
0
LINE
8
BLACK
6
CONTINUOUS
10
6.24016
20
-4.33465
11
6.23639
21
-4.3339
0
LINE
8
BLACK
6
CONTINUOUS
10
6.23639
20
-4.3339
11
6.2332
21
-4.33176
0
LINE
8
BLACK
6
CONTINUOUS
10
6.2332
20
-4.33176
11
6.23106
21
-4.32857
0
LINE
8
BLACK
6
CONTINUOUS
10
6.23106
20
-4.32857
11
6.23031
21
-4.3248
0
LINE
8
BLACK
6
CONTINUOUS
10
6.23031
20
-4.3248
11
6.23031
21
-4.28937
0
LINE
8
BLACK
6
CONTINUOUS
10
6.23031
20
-4.28937
11
6.23106
21
-4.2856
0
LINE
8
BLACK
6
CONTINUOUS
10
6.23106
20
-4.2856
11
6.2332
21
-4.28241
0
LINE
8
BLACK
6
CONTINUOUS
10
6.2332
20
-4.28241
11
6.23639
21
-4.28028
0
LINE
8
BLACK
6
CONTINUOUS
10
6.23639
20
-4.28028
11
6.24016
21
-4.27953
0
LINE
8
BLACK
6
CONTINUOUS
10
6.24016
20
-4.27953
11
6.26575
21
-4.27953
0
LINE
8
BLACK
6
CONTINUOUS
10
6.26575
20
-4.27953
11
6.26951
21
-4.28028
0
LINE
8
BLACK
6
CONTINUOUS
10
6.03034
20
-4.28028
11
6.03353
21
-4.28241
0
LINE
8
BLACK
6
CONTINUOUS
10
6.03353
20
-4.28241
11
6.03567
21
-4.2856
0
LINE
8
BLACK
6
CONTINUOUS
10
6.03567
20
-4.2856
11
6.03642
21
-4.28937
0
LINE
8
BLACK
6
CONTINUOUS
10
6.03642
20
-4.28937
11
6.03642
21
-4.3248
0
LINE
8
BLACK
6
CONTINUOUS
10
6.03642
20
-4.3248
11
6.03567
21
-4.32857
0
LINE
8
BLACK
6
CONTINUOUS
10
6.03567
20
-4.32857
11
6.03353
21
-4.33176
0
LINE
8
BLACK
6
CONTINUOUS
10
6.03353
20
-4.33176
11
6.03034
21
-4.3339
0
LINE
8
BLACK
6
CONTINUOUS
10
6.03034
20
-4.3339
11
6.02657
21
-4.33465
0
LINE
8
BLACK
6
CONTINUOUS
10
6.02657
20
-4.33465
11
6.00098
21
-4.33465
0
LINE
8
BLACK
6
CONTINUOUS
10
6.00098
20
-4.33465
11
5.99722
21
-4.3339
0
LINE
8
BLACK
6
CONTINUOUS
10
5.99722
20
-4.3339
11
5.99402
21
-4.33176
0
LINE
8
BLACK
6
CONTINUOUS
10
5.99402
20
-4.33176
11
5.99189
21
-4.32857
0
LINE
8
BLACK
6
CONTINUOUS
10
5.99189
20
-4.32857
11
5.99114
21
-4.3248
0
LINE
8
BLACK
6
CONTINUOUS
10
5.99114
20
-4.3248
11
5.99114
21
-4.28937
0
LINE
8
BLACK
6
CONTINUOUS
10
5.99114
20
-4.28937
11
5.99189
21
-4.2856
0
LINE
8
BLACK
6
CONTINUOUS
10
5.99189
20
-4.2856
11
5.99402
21
-4.28241
0
LINE
8
BLACK
6
CONTINUOUS
10
5.99402
20
-4.28241
11
5.99722
21
-4.28028
0
LINE
8
BLACK
6
CONTINUOUS
10
5.99722
20
-4.28028
11
6.00098
21
-4.27953
0
LINE
8
BLACK
6
CONTINUOUS
10
6.00098
20
-4.27953
11
6.02657
21
-4.27953
0
LINE
8
BLACK
6
CONTINUOUS
10
6.02657
20
-4.27953
11
6.03034
21
-4.28028
0
LINE
8
BLACK
6
CONTINUOUS
10
6.11105
20
-4.28028
11
6.11424
21
-4.28241
0
LINE
8
BLACK
6
CONTINUOUS
10
6.11424
20
-4.28241
11
6.11638
21
-4.2856
0
LINE
8
BLACK
6
CONTINUOUS
10
6.11638
20
-4.2856
11
6.11713
21
-4.28937
0
LINE
8
BLACK
6
CONTINUOUS
10
6.11713
20
-4.28937
11
6.11713
21
-4.3248
0
LINE
8
BLACK
6
CONTINUOUS
10
6.11713
20
-4.3248
11
6.11638
21
-4.32857
0
LINE
8
BLACK
6
CONTINUOUS
10
6.11638
20
-4.32857
11
6.11424
21
-4.33176
0
LINE
8
BLACK
6
CONTINUOUS
10
6.11424
20
-4.33176
11
6.11105
21
-4.3339
0
LINE
8
BLACK
6
CONTINUOUS
10
6.11105
20
-4.3339
11
6.10728
21
-4.33465
0
LINE
8
BLACK
6
CONTINUOUS
10
6.10728
20
-4.33465
11
6.08169
21
-4.33465
0
LINE
8
BLACK
6
CONTINUOUS
10
6.08169
20
-4.33465
11
6.07793
21
-4.3339
0
LINE
8
BLACK
6
CONTINUOUS
10
6.07793
20
-4.3339
11
6.07473
21
-4.33176
0
LINE
8
BLACK
6
CONTINUOUS
10
6.07473
20
-4.33176
11
6.0726
21
-4.32857
0
LINE
8
BLACK
6
CONTINUOUS
10
6.0726
20
-4.32857
11
6.07185
21
-4.3248
0
LINE
8
BLACK
6
CONTINUOUS
10
6.07185
20
-4.3248
11
6.07185
21
-4.28937
0
LINE
8
BLACK
6
CONTINUOUS
10
6.07185
20
-4.28937
11
6.0726
21
-4.2856
0
LINE
8
BLACK
6
CONTINUOUS
10
6.0726
20
-4.2856
11
6.07473
21
-4.28241
0
LINE
8
BLACK
6
CONTINUOUS
10
6.07473
20
-4.28241
11
6.07793
21
-4.28028
0
LINE
8
BLACK
6
CONTINUOUS
10
6.07793
20
-4.28028
11
6.08169
21
-4.27953
0
LINE
8
BLACK
6
CONTINUOUS
10
6.08169
20
-4.27953
11
6.10728
21
-4.27953
0
LINE
8
BLACK
6
CONTINUOUS
10
6.10728
20
-4.27953
11
6.11105
21
-4.28028
0
LINE
8
BLACK
6
CONTINUOUS
10
6.62087
20
-4.32382
11
6.57283
21
-4.32382
0
LINE
8
BLACK
6
CONTINUOUS
10
6.57283
20
-4.32382
11
6.57283
21
-4.29823
0
LINE
8
BLACK
6
CONTINUOUS
10
6.57283
20
-4.29823
11
6.62087
21
-4.29823
0
LINE
8
BLACK
6
CONTINUOUS
10
6.62087
20
-4.29823
11
6.62087
21
-4.32382
0
LINE
8
BLACK
6
CONTINUOUS
10
6.86597
20
-4.25272
11
6.86916
21
-4.25485
0
LINE
8
BLACK
6
CONTINUOUS
10
6.86916
20
-4.25485
11
6.8713
21
-4.25804
0
LINE
8
BLACK
6
CONTINUOUS
10
6.8713
20
-4.25804
11
6.87205
21
-4.26181
0
LINE
8
BLACK
6
CONTINUOUS
10
6.87205
20
-4.26181
11
6.87205
21
-4.29724
0
LINE
8
BLACK
6
CONTINUOUS
10
6.87205
20
-4.29724
11
6.8713
21
-4.30101
0
LINE
8
BLACK
6
CONTINUOUS
10
6.8713
20
-4.30101
11
6.86916
21
-4.3042
0
LINE
8
BLACK
6
CONTINUOUS
10
6.86916
20
-4.3042
11
6.86597
21
-4.30634
0
LINE
8
BLACK
6
CONTINUOUS
10
6.86597
20
-4.30634
11
6.8622
21
-4.30709
0
LINE
8
BLACK
6
CONTINUOUS
10
6.8622
20
-4.30709
11
6.83661
21
-4.30709
0
LINE
8
BLACK
6
CONTINUOUS
10
6.83661
20
-4.30709
11
6.83285
21
-4.30634
0
LINE
8
BLACK
6
CONTINUOUS
10
6.83285
20
-4.30634
11
6.82965
21
-4.3042
0
LINE
8
BLACK
6
CONTINUOUS
10
6.82965
20
-4.3042
11
6.82752
21
-4.30101
0
LINE
8
BLACK
6
CONTINUOUS
10
6.82752
20
-4.30101
11
6.82677
21
-4.29724
0
LINE
8
BLACK
6
CONTINUOUS
10
6.82677
20
-4.29724
11
6.82677
21
-4.26181
0
LINE
8
BLACK
6
CONTINUOUS
10
6.82677
20
-4.26181
11
6.82752
21
-4.25804
0
LINE
8
BLACK
6
CONTINUOUS
10
6.82752
20
-4.25804
11
6.82965
21
-4.25485
0
LINE
8
BLACK
6
CONTINUOUS
10
6.82965
20
-4.25485
11
6.83285
21
-4.25272
0
LINE
8
BLACK
6
CONTINUOUS
10
6.83285
20
-4.25272
11
6.83661
21
-4.25197
0
LINE
8
BLACK
6
CONTINUOUS
10
6.83661
20
-4.25197
11
6.8622
21
-4.25197
0
LINE
8
BLACK
6
CONTINUOUS
10
6.8622
20
-4.25197
11
6.86597
21
-4.25272
0
LINE
8
BLACK
6
CONTINUOUS
10
6.94668
20
-4.25272
11
6.94987
21
-4.25485
0
LINE
8
BLACK
6
CONTINUOUS
10
6.94987
20
-4.25485
11
6.95201
21
-4.25804
0
LINE
8
BLACK
6
CONTINUOUS
10
6.95201
20
-4.25804
11
6.95276
21
-4.26181
0
LINE
8
BLACK
6
CONTINUOUS
10
6.95276
20
-4.26181
11
6.95276
21
-4.29724
0
LINE
8
BLACK
6
CONTINUOUS
10
6.95276
20
-4.29724
11
6.95201
21
-4.30101
0
LINE
8
BLACK
6
CONTINUOUS
10
6.95201
20
-4.30101
11
6.94987
21
-4.3042
0
LINE
8
BLACK
6
CONTINUOUS
10
6.94987
20
-4.3042
11
6.94668
21
-4.30634
0
LINE
8
BLACK
6
CONTINUOUS
10
6.94668
20
-4.30634
11
6.94291
21
-4.30709
0
LINE
8
BLACK
6
CONTINUOUS
10
6.94291
20
-4.30709
11
6.91732
21
-4.30709
0
LINE
8
BLACK
6
CONTINUOUS
10
6.91732
20
-4.30709
11
6.91356
21
-4.30634
0
LINE
8
BLACK
6
CONTINUOUS
10
6.91356
20
-4.30634
11
6.91036
21
-4.3042
0
LINE
8
BLACK
6
CONTINUOUS
10
6.91036
20
-4.3042
11
6.90823
21
-4.30101
0
LINE
8
BLACK
6
CONTINUOUS
10
6.90823
20
-4.30101
11
6.90748
21
-4.29724
0
LINE
8
BLACK
6
CONTINUOUS
10
6.90748
20
-4.29724
11
6.90748
21
-4.26181
0
LINE
8
BLACK
6
CONTINUOUS
10
6.90748
20
-4.26181
11
6.90823
21
-4.25804
0
LINE
8
BLACK
6
CONTINUOUS
10
6.90823
20
-4.25804
11
6.91036
21
-4.25485
0
LINE
8
BLACK
6
CONTINUOUS
10
6.91036
20
-4.25485
11
6.91356
21
-4.25272
0
LINE
8
BLACK
6
CONTINUOUS
10
6.91356
20
-4.25272
11
6.91732
21
-4.25197
0
LINE
8
BLACK
6
CONTINUOUS
10
6.91732
20
-4.25197
11
6.94291
21
-4.25197
0
LINE
8
BLACK
6
CONTINUOUS
10
6.94291
20
-4.25197
11
6.94668
21
-4.25272
0
LINE
8
BLACK
6
CONTINUOUS
10
6.51772
20
-4.28642
11
6.46969
21
-4.28642
0
LINE
8
BLACK
6
CONTINUOUS
10
6.46969
20
-4.28642
11
6.46969
21
-4.26083
0
LINE
8
BLACK
6
CONTINUOUS
10
6.46969
20
-4.26083
11
6.51772
21
-4.26083
0
LINE
8
BLACK
6
CONTINUOUS
10
6.51772
20
-4.26083
11
6.51772
21
-4.28642
0
LINE
8
BLACK
6
CONTINUOUS
10
6.78034
20
-4.1228
11
6.78353
21
-4.12493
0
LINE
8
BLACK
6
CONTINUOUS
10
6.78353
20
-4.12493
11
6.78567
21
-4.12812
0
LINE
8
BLACK
6
CONTINUOUS
10
6.78567
20
-4.12812
11
6.78642
21
-4.13189
0
LINE
8
BLACK
6
CONTINUOUS
10
6.78642
20
-4.13189
11
6.78642
21
-4.16732
0
LINE
8
BLACK
6
CONTINUOUS
10
6.78642
20
-4.16732
11
6.78567
21
-4.17109
0
LINE
8
BLACK
6
CONTINUOUS
10
6.78567
20
-4.17109
11
6.78353
21
-4.17428
0
LINE
8
BLACK
6
CONTINUOUS
10
6.78353
20
-4.17428
11
6.78034
21
-4.17642
0
LINE
8
BLACK
6
CONTINUOUS
10
6.78034
20
-4.17642
11
6.77657
21
-4.17717
0
LINE
8
BLACK
6
CONTINUOUS
10
6.77657
20
-4.17717
11
6.75098
21
-4.17717
0
LINE
8
BLACK
6
CONTINUOUS
10
6.75098
20
-4.17717
11
6.74722
21
-4.17642
0
LINE
8
BLACK
6
CONTINUOUS
10
6.74722
20
-4.17642
11
6.74402
21
-4.17428
0
LINE
8
BLACK
6
CONTINUOUS
10
6.74402
20
-4.17428
11
6.74189
21
-4.17109
0
LINE
8
BLACK
6
CONTINUOUS
10
6.74189
20
-4.17109
11
6.74114
21
-4.16732
0
LINE
8
BLACK
6
CONTINUOUS
10
6.74114
20
-4.16732
11
6.74114
21
-4.13189
0
LINE
8
BLACK
6
CONTINUOUS
10
6.74114
20
-4.13189
11
6.74189
21
-4.12812
0
LINE
8
BLACK
6
CONTINUOUS
10
6.74189
20
-4.12812
11
6.74402
21
-4.12493
0
LINE
8
BLACK
6
CONTINUOUS
10
6.74402
20
-4.12493
11
6.74722
21
-4.1228
0
LINE
8
BLACK
6
CONTINUOUS
10
6.74722
20
-4.1228
11
6.75098
21
-4.12205
0
LINE
8
BLACK
6
CONTINUOUS
10
6.75098
20
-4.12205
11
6.77657
21
-4.12205
0
LINE
8
BLACK
6
CONTINUOUS
10
6.77657
20
-4.12205
11
6.78034
21
-4.1228
0
LINE
8
BLACK
6
CONTINUOUS
10
6.69963
20
-4.1228
11
6.70283
21
-4.12493
0
LINE
8
BLACK
6
CONTINUOUS
10
6.70283
20
-4.12493
11
6.70496
21
-4.12812
0
LINE
8
BLACK
6
CONTINUOUS
10
6.70496
20
-4.12812
11
6.70571
21
-4.13189
0
LINE
8
BLACK
6
CONTINUOUS
10
6.70571
20
-4.13189
11
6.70571
21
-4.16732
0
LINE
8
BLACK
6
CONTINUOUS
10
6.70571
20
-4.16732
11
6.70496
21
-4.17109
0
LINE
8
BLACK
6
CONTINUOUS
10
6.70496
20
-4.17109
11
6.70283
21
-4.17428
0
LINE
8
BLACK
6
CONTINUOUS
10
6.70283
20
-4.17428
11
6.69963
21
-4.17642
0
LINE
8
BLACK
6
CONTINUOUS
10
6.69963
20
-4.17642
11
6.69587
21
-4.17717
0
LINE
8
BLACK
6
CONTINUOUS
10
6.69587
20
-4.17717
11
6.67028
21
-4.17717
0
LINE
8
BLACK
6
CONTINUOUS
10
6.67028
20
-4.17717
11
6.66651
21
-4.17642
0
LINE
8
BLACK
6
CONTINUOUS
10
6.66651
20
-4.17642
11
6.66332
21
-4.17428
0
LINE
8
BLACK
6
CONTINUOUS
10
6.66332
20
-4.17428
11
6.66118
21
-4.17109
0
LINE
8
BLACK
6
CONTINUOUS
10
6.66118
20
-4.17109
11
6.66043
21
-4.16732
0
LINE
8
BLACK
6
CONTINUOUS
10
6.66043
20
-4.16732
11
6.66043
21
-4.13189
0
LINE
8
BLACK
6
CONTINUOUS
10
6.66043
20
-4.13189
11
6.66118
21
-4.12812
0
LINE
8
BLACK
6
CONTINUOUS
10
6.66118
20
-4.12812
11
6.66332
21
-4.12493
0
LINE
8
BLACK
6
CONTINUOUS
10
6.66332
20
-4.12493
11
6.66651
21
-4.1228
0
LINE
8
BLACK
6
CONTINUOUS
10
6.66651
20
-4.1228
11
6.67028
21
-4.12205
0
LINE
8
BLACK
6
CONTINUOUS
10
6.67028
20
-4.12205
11
6.69587
21
-4.12205
0
LINE
8
BLACK
6
CONTINUOUS
10
6.69587
20
-4.12205
11
6.69963
21
-4.1228
0
LINE
8
BLACK
6
CONTINUOUS
10
6.51604
20
-4.10823
11
6.51796
21
-4.10951
0
LINE
8
BLACK
6
CONTINUOUS
10
6.51796
20
-4.10951
11
6.51924
21
-4.11142
0
LINE
8
BLACK
6
CONTINUOUS
10
6.51924
20
-4.11142
11
6.51969
21
-4.11368
0
LINE
8
BLACK
6
CONTINUOUS
10
6.51969
20
-4.11368
11
6.51969
21
-4.15404
0
LINE
8
BLACK
6
CONTINUOUS
10
6.51969
20
-4.15404
11
6.51924
21
-4.1563
0
LINE
8
BLACK
6
CONTINUOUS
10
6.51924
20
-4.1563
11
6.51796
21
-4.15821
0
LINE
8
BLACK
6
CONTINUOUS
10
6.51796
20
-4.15821
11
6.51604
21
-4.15949
0
LINE
8
BLACK
6
CONTINUOUS
10
6.51604
20
-4.15949
11
6.51378
21
-4.15994
0
LINE
8
BLACK
6
CONTINUOUS
10
6.51378
20
-4.15994
11
6.50197
21
-4.15994
0
LINE
8
BLACK
6
CONTINUOUS
10
6.50197
20
-4.15994
11
6.49971
21
-4.15949
0
LINE
8
BLACK
6
CONTINUOUS
10
6.49971
20
-4.15949
11
6.49779
21
-4.15821
0
LINE
8
BLACK
6
CONTINUOUS
10
6.49779
20
-4.15821
11
6.49651
21
-4.1563
0
LINE
8
BLACK
6
CONTINUOUS
10
6.49651
20
-4.1563
11
6.49606
21
-4.15404
0
LINE
8
BLACK
6
CONTINUOUS
10
6.49606
20
-4.15404
11
6.49606
21
-4.11368
0
LINE
8
BLACK
6
CONTINUOUS
10
6.49606
20
-4.11368
11
6.49651
21
-4.11142
0
LINE
8
BLACK
6
CONTINUOUS
10
6.49651
20
-4.11142
11
6.49779
21
-4.10951
0
LINE
8
BLACK
6
CONTINUOUS
10
6.49779
20
-4.10951
11
6.49971
21
-4.10823
0
LINE
8
BLACK
6
CONTINUOUS
10
6.49971
20
-4.10823
11
6.50197
21
-4.10778
0
LINE
8
BLACK
6
CONTINUOUS
10
6.50197
20
-4.10778
11
6.51378
21
-4.10778
0
LINE
8
BLACK
6
CONTINUOUS
10
6.51378
20
-4.10778
11
6.51604
21
-4.10823
0
LINE
8
BLACK
6
CONTINUOUS
10
6.59084
20
-4.10823
11
6.59276
21
-4.10951
0
LINE
8
BLACK
6
CONTINUOUS
10
6.59276
20
-4.10951
11
6.59404
21
-4.11142
0
LINE
8
BLACK
6
CONTINUOUS
10
6.59404
20
-4.11142
11
6.59449
21
-4.11368
0
LINE
8
BLACK
6
CONTINUOUS
10
6.59449
20
-4.11368
11
6.59449
21
-4.15404
0
LINE
8
BLACK
6
CONTINUOUS
10
6.59449
20
-4.15404
11
6.59404
21
-4.1563
0
LINE
8
BLACK
6
CONTINUOUS
10
6.59404
20
-4.1563
11
6.59276
21
-4.15821
0
LINE
8
BLACK
6
CONTINUOUS
10
6.59276
20
-4.15821
11
6.59084
21
-4.15949
0
LINE
8
BLACK
6
CONTINUOUS
10
6.59084
20
-4.15949
11
6.58858
21
-4.15994
0
LINE
8
BLACK
6
CONTINUOUS
10
6.58858
20
-4.15994
11
6.57677
21
-4.15994
0
LINE
8
BLACK
6
CONTINUOUS
10
6.57677
20
-4.15994
11
6.57451
21
-4.15949
0
LINE
8
BLACK
6
CONTINUOUS
10
6.57451
20
-4.15949
11
6.5726
21
-4.15821
0
LINE
8
BLACK
6
CONTINUOUS
10
6.5726
20
-4.15821
11
6.57132
21
-4.1563
0
LINE
8
BLACK
6
CONTINUOUS
10
6.57132
20
-4.1563
11
6.57087
21
-4.15404
0
LINE
8
BLACK
6
CONTINUOUS
10
6.57087
20
-4.15404
11
6.57087
21
-4.11368
0
LINE
8
BLACK
6
CONTINUOUS
10
6.57087
20
-4.11368
11
6.57132
21
-4.11142
0
LINE
8
BLACK
6
CONTINUOUS
10
6.57132
20
-4.11142
11
6.5726
21
-4.10951
0
LINE
8
BLACK
6
CONTINUOUS
10
6.5726
20
-4.10951
11
6.57451
21
-4.10823
0
LINE
8
BLACK
6
CONTINUOUS
10
6.57451
20
-4.10823
11
6.57677
21
-4.10778
0
LINE
8
BLACK
6
CONTINUOUS
10
6.57677
20
-4.10778
11
6.58858
21
-4.10778
0
LINE
8
BLACK
6
CONTINUOUS
10
6.58858
20
-4.10778
11
6.59084
21
-4.10823
0
LINE
8
BLACK
6
CONTINUOUS
10
6.51604
20
-4.01866
11
6.51796
21
-4.01994
0
LINE
8
BLACK
6
CONTINUOUS
10
6.51796
20
-4.01994
11
6.51924
21
-4.02185
0
LINE
8
BLACK
6
CONTINUOUS
10
6.51924
20
-4.02185
11
6.51969
21
-4.02411
0
LINE
8
BLACK
6
CONTINUOUS
10
6.51969
20
-4.02411
11
6.51969
21
-4.06447
0
LINE
8
BLACK
6
CONTINUOUS
10
6.51969
20
-4.06447
11
6.51924
21
-4.06673
0
LINE
8
BLACK
6
CONTINUOUS
10
6.51924
20
-4.06673
11
6.51796
21
-4.06864
0
LINE
8
BLACK
6
CONTINUOUS
10
6.51796
20
-4.06864
11
6.51604
21
-4.06992
0
LINE
8
BLACK
6
CONTINUOUS
10
6.51604
20
-4.06992
11
6.51378
21
-4.07037
0
LINE
8
BLACK
6
CONTINUOUS
10
6.51378
20
-4.07037
11
6.50197
21
-4.07037
0
LINE
8
BLACK
6
CONTINUOUS
10
6.50197
20
-4.07037
11
6.49971
21
-4.06992
0
LINE
8
BLACK
6
CONTINUOUS
10
6.49971
20
-4.06992
11
6.49779
21
-4.06864
0
LINE
8
BLACK
6
CONTINUOUS
10
6.49779
20
-4.06864
11
6.49651
21
-4.06673
0
LINE
8
BLACK
6
CONTINUOUS
10
6.49651
20
-4.06673
11
6.49606
21
-4.06447
0
LINE
8
BLACK
6
CONTINUOUS
10
6.49606
20
-4.06447
11
6.49606
21
-4.02411
0
LINE
8
BLACK
6
CONTINUOUS
10
6.49606
20
-4.02411
11
6.49651
21
-4.02185
0
LINE
8
BLACK
6
CONTINUOUS
10
6.49651
20
-4.02185
11
6.49779
21
-4.01994
0
LINE
8
BLACK
6
CONTINUOUS
10
6.49779
20
-4.01994
11
6.49971
21
-4.01866
0
LINE
8
BLACK
6
CONTINUOUS
10
6.49971
20
-4.01866
11
6.50197
21
-4.01821
0
LINE
8
BLACK
6
CONTINUOUS
10
6.50197
20
-4.01821
11
6.51378
21
-4.01821
0
LINE
8
BLACK
6
CONTINUOUS
10
6.51378
20
-4.01821
11
6.51604
21
-4.01866
0
LINE
8
BLACK
6
CONTINUOUS
10
6.55344
20
-4.01866
11
6.55536
21
-4.01994
0
LINE
8
BLACK
6
CONTINUOUS
10
6.55536
20
-4.01994
11
6.55664
21
-4.02185
0
LINE
8
BLACK
6
CONTINUOUS
10
6.55664
20
-4.02185
11
6.55709
21
-4.02411
0
LINE
8
BLACK
6
CONTINUOUS
10
6.55709
20
-4.02411
11
6.55709
21
-4.06447
0
LINE
8
BLACK
6
CONTINUOUS
10
6.55709
20
-4.06447
11
6.55664
21
-4.06673
0
LINE
8
BLACK
6
CONTINUOUS
10
6.55664
20
-4.06673
11
6.55536
21
-4.06864
0
LINE
8
BLACK
6
CONTINUOUS
10
6.55536
20
-4.06864
11
6.55344
21
-4.06992
0
LINE
8
BLACK
6
CONTINUOUS
10
6.55344
20
-4.06992
11
6.55118
21
-4.07037
0
LINE
8
BLACK
6
CONTINUOUS
10
6.55118
20
-4.07037
11
6.53937
21
-4.07037
0
LINE
8
BLACK
6
CONTINUOUS
10
6.53937
20
-4.07037
11
6.53711
21
-4.06992
0
LINE
8
BLACK
6
CONTINUOUS
10
6.53711
20
-4.06992
11
6.53519
21
-4.06864
0
LINE
8
BLACK
6
CONTINUOUS
10
6.53519
20
-4.06864
11
6.53391
21
-4.06673
0
LINE
8
BLACK
6
CONTINUOUS
10
6.53391
20
-4.06673
11
6.53346
21
-4.06447
0
LINE
8
BLACK
6
CONTINUOUS
10
6.53346
20
-4.06447
11
6.53346
21
-4.02411
0
LINE
8
BLACK
6
CONTINUOUS
10
6.53346
20
-4.02411
11
6.53391
21
-4.02185
0
LINE
8
BLACK
6
CONTINUOUS
10
6.53391
20
-4.02185
11
6.53519
21
-4.01994
0
LINE
8
BLACK
6
CONTINUOUS
10
6.53519
20
-4.01994
11
6.53711
21
-4.01866
0
LINE
8
BLACK
6
CONTINUOUS
10
6.53711
20
-4.01866
11
6.53937
21
-4.01821
0
LINE
8
BLACK
6
CONTINUOUS
10
6.53937
20
-4.01821
11
6.55118
21
-4.01821
0
LINE
8
BLACK
6
CONTINUOUS
10
6.55118
20
-4.01821
11
6.55344
21
-4.01866
0
LINE
8
BLACK
6
CONTINUOUS
10
6.59084
20
-4.01866
11
6.59276
21
-4.01994
0
LINE
8
BLACK
6
CONTINUOUS
10
6.59276
20
-4.01994
11
6.59404
21
-4.02185
0
LINE
8
BLACK
6
CONTINUOUS
10
6.59404
20
-4.02185
11
6.59449
21
-4.02411
0
LINE
8
BLACK
6
CONTINUOUS
10
6.59449
20
-4.02411
11
6.59449
21
-4.06447
0
LINE
8
BLACK
6
CONTINUOUS
10
6.59449
20
-4.06447
11
6.59404
21
-4.06673
0
LINE
8
BLACK
6
CONTINUOUS
10
6.59404
20
-4.06673
11
6.59276
21
-4.06864
0
LINE
8
BLACK
6
CONTINUOUS
10
6.59276
20
-4.06864
11
6.59084
21
-4.06992
0
LINE
8
BLACK
6
CONTINUOUS
10
6.59084
20
-4.06992
11
6.58858
21
-4.07037
0
LINE
8
BLACK
6
CONTINUOUS
10
6.58858
20
-4.07037
11
6.57677
21
-4.07037
0
LINE
8
BLACK
6
CONTINUOUS
10
6.57677
20
-4.07037
11
6.57451
21
-4.06992
0
LINE
8
BLACK
6
CONTINUOUS
10
6.57451
20
-4.06992
11
6.5726
21
-4.06864
0
LINE
8
BLACK
6
CONTINUOUS
10
6.5726
20
-4.06864
11
6.57132
21
-4.06673
0
LINE
8
BLACK
6
CONTINUOUS
10
6.57132
20
-4.06673
11
6.57087
21
-4.06447
0
LINE
8
BLACK
6
CONTINUOUS
10
6.57087
20
-4.06447
11
6.57087
21
-4.02411
0
LINE
8
BLACK
6
CONTINUOUS
10
6.57087
20
-4.02411
11
6.57132
21
-4.02185
0
LINE
8
BLACK
6
CONTINUOUS
10
6.57132
20
-4.02185
11
6.5726
21
-4.01994
0
LINE
8
BLACK
6
CONTINUOUS
10
6.5726
20
-4.01994
11
6.57451
21
-4.01866
0
LINE
8
BLACK
6
CONTINUOUS
10
6.57451
20
-4.01866
11
6.57677
21
-4.01821
0
LINE
8
BLACK
6
CONTINUOUS
10
6.57677
20
-4.01821
11
6.58858
21
-4.01821
0
LINE
8
BLACK
6
CONTINUOUS
10
6.58858
20
-4.01821
11
6.59084
21
-4.01866
0
LINE
8
BLACK
6
CONTINUOUS
10
6.50918
20
-3.90774
11
6.51237
21
-3.90987
0
LINE
8
BLACK
6
CONTINUOUS
10
6.51237
20
-3.90987
11
6.51451
21
-3.91306
0
LINE
8
BLACK
6
CONTINUOUS
10
6.51451
20
-3.91306
11
6.51526
21
-3.91683
0
LINE
8
BLACK
6
CONTINUOUS
10
6.51526
20
-3.91683
11
6.51526
21
-3.96604
0
LINE
8
BLACK
6
CONTINUOUS
10
6.51526
20
-3.96604
11
6.51451
21
-3.96981
0
LINE
8
BLACK
6
CONTINUOUS
10
6.51451
20
-3.96981
11
6.51237
21
-3.973
0
LINE
8
BLACK
6
CONTINUOUS
10
6.51237
20
-3.973
11
6.50918
21
-3.97514
0
LINE
8
BLACK
6
CONTINUOUS
10
6.50918
20
-3.97514
11
6.50541
21
-3.97589
0
LINE
8
BLACK
6
CONTINUOUS
10
6.50541
20
-3.97589
11
6.469
21
-3.97589
0
LINE
8
BLACK
6
CONTINUOUS
10
6.469
20
-3.97589
11
6.46523
21
-3.97514
0
LINE
8
BLACK
6
CONTINUOUS
10
6.46523
20
-3.97514
11
6.46204
21
-3.973
0
LINE
8
BLACK
6
CONTINUOUS
10
6.46204
20
-3.973
11
6.4599
21
-3.96981
0
LINE
8
BLACK
6
CONTINUOUS
10
6.4599
20
-3.96981
11
6.45915
21
-3.96604
0
LINE
8
BLACK
6
CONTINUOUS
10
6.45915
20
-3.96604
11
6.45915
21
-3.91683
0
LINE
8
BLACK
6
CONTINUOUS
10
6.45915
20
-3.91683
11
6.4599
21
-3.91306
0
LINE
8
BLACK
6
CONTINUOUS
10
6.4599
20
-3.91306
11
6.46204
21
-3.90987
0
LINE
8
BLACK
6
CONTINUOUS
10
6.46204
20
-3.90987
11
6.46523
21
-3.90774
0
LINE
8
BLACK
6
CONTINUOUS
10
6.46523
20
-3.90774
11
6.469
21
-3.90699
0
LINE
8
BLACK
6
CONTINUOUS
10
6.469
20
-3.90699
11
6.50541
21
-3.90699
0
LINE
8
BLACK
6
CONTINUOUS
10
6.50541
20
-3.90699
11
6.50918
21
-3.90774
0
LINE
8
BLACK
6
CONTINUOUS
10
6.62631
20
-3.90774
11
6.6295
21
-3.90987
0
LINE
8
BLACK
6
CONTINUOUS
10
6.6295
20
-3.90987
11
6.63163
21
-3.91306
0
LINE
8
BLACK
6
CONTINUOUS
10
6.63163
20
-3.91306
11
6.63238
21
-3.91683
0
LINE
8
BLACK
6
CONTINUOUS
10
6.63238
20
-3.91683
11
6.63238
21
-3.96604
0
LINE
8
BLACK
6
CONTINUOUS
10
6.63238
20
-3.96604
11
6.63163
21
-3.96981
0
LINE
8
BLACK
6
CONTINUOUS
10
6.63163
20
-3.96981
11
6.6295
21
-3.973
0
LINE
8
BLACK
6
CONTINUOUS
10
6.6295
20
-3.973
11
6.62631
21
-3.97514
0
LINE
8
BLACK
6
CONTINUOUS
10
6.62631
20
-3.97514
11
6.62254
21
-3.97589
0
LINE
8
BLACK
6
CONTINUOUS
10
6.62254
20
-3.97589
11
6.58612
21
-3.97589
0
LINE
8
BLACK
6
CONTINUOUS
10
6.58612
20
-3.97589
11
6.58236
21
-3.97514
0
LINE
8
BLACK
6
CONTINUOUS
10
6.58236
20
-3.97514
11
6.57916
21
-3.973
0
LINE
8
BLACK
6
CONTINUOUS
10
6.57916
20
-3.973
11
6.57703
21
-3.96981
0
LINE
8
BLACK
6
CONTINUOUS
10
6.57703
20
-3.96981
11
6.57628
21
-3.96604
0
LINE
8
BLACK
6
CONTINUOUS
10
6.57628
20
-3.96604
11
6.57628
21
-3.91683
0
LINE
8
BLACK
6
CONTINUOUS
10
6.57628
20
-3.91683
11
6.57703
21
-3.91306
0
LINE
8
BLACK
6
CONTINUOUS
10
6.57703
20
-3.91306
11
6.57916
21
-3.90987
0
LINE
8
BLACK
6
CONTINUOUS
10
6.57916
20
-3.90987
11
6.58236
21
-3.90774
0
LINE
8
BLACK
6
CONTINUOUS
10
6.58236
20
-3.90774
11
6.58612
21
-3.90699
0
LINE
8
BLACK
6
CONTINUOUS
10
6.58612
20
-3.90699
11
6.62254
21
-3.90699
0
LINE
8
BLACK
6
CONTINUOUS
10
6.62254
20
-3.90699
11
6.62631
21
-3.90774
0
LINE
8
BLACK
6
CONTINUOUS
10
6.05605
20
-3.54046
11
6.06044
21
-3.54269
0
LINE
8
BLACK
6
CONTINUOUS
10
6.06044
20
-3.54269
11
6.06392
21
-3.54618
0
LINE
8
BLACK
6
CONTINUOUS
10
6.06392
20
-3.54618
11
6.06616
21
-3.55057
0
LINE
8
BLACK
6
CONTINUOUS
10
6.06616
20
-3.55057
11
6.06693
21
-3.55543
0
LINE
8
BLACK
6
CONTINUOUS
10
6.06693
20
-3.55543
11
6.06693
21
-3.58693
0
LINE
8
BLACK
6
CONTINUOUS
10
6.06693
20
-3.58693
11
6.06616
21
-3.5918
0
LINE
8
BLACK
6
CONTINUOUS
10
6.06616
20
-3.5918
11
6.06392
21
-3.59619
0
LINE
8
BLACK
6
CONTINUOUS
10
6.06392
20
-3.59619
11
6.06044
21
-3.59967
0
LINE
8
BLACK
6
CONTINUOUS
10
6.06044
20
-3.59967
11
6.05605
21
-3.60191
0
LINE
8
BLACK
6
CONTINUOUS
10
6.05605
20
-3.60191
11
6.05118
21
-3.60268
0
LINE
8
BLACK
6
CONTINUOUS
10
6.05118
20
-3.60268
11
5.96457
21
-3.60268
0
LINE
8
BLACK
6
CONTINUOUS
10
5.96457
20
-3.60268
11
5.9597
21
-3.60191
0
LINE
8
BLACK
6
CONTINUOUS
10
5.9597
20
-3.60191
11
5.95531
21
-3.59967
0
LINE
8
BLACK
6
CONTINUOUS
10
5.95531
20
-3.59967
11
5.95183
21
-3.59619
0
LINE
8
BLACK
6
CONTINUOUS
10
5.95183
20
-3.59619
11
5.94959
21
-3.5918
0
LINE
8
BLACK
6
CONTINUOUS
10
5.94959
20
-3.5918
11
5.94882
21
-3.58693
0
LINE
8
BLACK
6
CONTINUOUS
10
5.94882
20
-3.58693
11
5.94882
21
-3.55543
0
LINE
8
BLACK
6
CONTINUOUS
10
5.94882
20
-3.55543
11
5.94959
21
-3.55057
0
LINE
8
BLACK
6
CONTINUOUS
10
5.94959
20
-3.55057
11
5.95183
21
-3.54618
0
LINE
8
BLACK
6
CONTINUOUS
10
5.95183
20
-3.54618
11
5.95531
21
-3.54269
0
LINE
8
BLACK
6
CONTINUOUS
10
5.95531
20
-3.54269
11
5.9597
21
-3.54046
0
LINE
8
BLACK
6
CONTINUOUS
10
5.9597
20
-3.54046
11
5.96457
21
-3.53969
0
LINE
8
BLACK
6
CONTINUOUS
10
5.96457
20
-3.53969
11
6.05118
21
-3.53969
0
LINE
8
BLACK
6
CONTINUOUS
10
6.05118
20
-3.53969
11
6.05605
21
-3.54046
0
LINE
8
BLACK
6
CONTINUOUS
10
7.13479
20
-3.53396
11
7.13918
21
-3.5362
0
LINE
8
BLACK
6
CONTINUOUS
10
7.13918
20
-3.5362
11
7.14266
21
-3.53968
0
LINE
8
BLACK
6
CONTINUOUS
10
7.14266
20
-3.53968
11
7.1449
21
-3.54407
0
LINE
8
BLACK
6
CONTINUOUS
10
7.1449
20
-3.54407
11
7.14567
21
-3.54894
0
LINE
8
BLACK
6
CONTINUOUS
10
7.14567
20
-3.54894
11
7.14567
21
-3.58043
0
LINE
8
BLACK
6
CONTINUOUS
10
7.14567
20
-3.58043
11
7.1449
21
-3.5853
0
LINE
8
BLACK
6
CONTINUOUS
10
7.1449
20
-3.5853
11
7.14266
21
-3.58969
0
LINE
8
BLACK
6
CONTINUOUS
10
7.14266
20
-3.58969
11
7.13918
21
-3.59317
0
LINE
8
BLACK
6
CONTINUOUS
10
7.13918
20
-3.59317
11
7.13479
21
-3.59541
0
LINE
8
BLACK
6
CONTINUOUS
10
7.13479
20
-3.59541
11
7.12992
21
-3.59618
0
LINE
8
BLACK
6
CONTINUOUS
10
7.12992
20
-3.59618
11
7.04331
21
-3.59618
0
LINE
8
BLACK
6
CONTINUOUS
10
7.04331
20
-3.59618
11
7.03844
21
-3.59541
0
LINE
8
BLACK
6
CONTINUOUS
10
7.03844
20
-3.59541
11
7.03405
21
-3.59317
0
LINE
8
BLACK
6
CONTINUOUS
10
7.03405
20
-3.59317
11
7.03057
21
-3.58969
0
LINE
8
BLACK
6
CONTINUOUS
10
7.03057
20
-3.58969
11
7.02833
21
-3.5853
0
LINE
8
BLACK
6
CONTINUOUS
10
7.02833
20
-3.5853
11
7.02756
21
-3.58043
0
LINE
8
BLACK
6
CONTINUOUS
10
7.02756
20
-3.58043
11
7.02756
21
-3.54894
0
LINE
8
BLACK
6
CONTINUOUS
10
7.02756
20
-3.54894
11
7.02833
21
-3.54407
0
LINE
8
BLACK
6
CONTINUOUS
10
7.02833
20
-3.54407
11
7.03057
21
-3.53968
0
LINE
8
BLACK
6
CONTINUOUS
10
7.03057
20
-3.53968
11
7.03405
21
-3.5362
0
LINE
8
BLACK
6
CONTINUOUS
10
7.03405
20
-3.5362
11
7.03844
21
-3.53396
0
LINE
8
BLACK
6
CONTINUOUS
10
7.03844
20
-3.53396
11
7.04331
21
-3.53319
0
LINE
8
BLACK
6
CONTINUOUS
10
7.04331
20
-3.53319
11
7.12992
21
-3.53319
0
LINE
8
BLACK
6
CONTINUOUS
10
7.12992
20
-3.53319
11
7.13479
21
-3.53396
0
LINE
8
BLACK
6
CONTINUOUS
10
6.05605
20
-3.45046
11
6.06044
21
-3.45269
0
LINE
8
BLACK
6
CONTINUOUS
10
6.06044
20
-3.45269
11
6.06392
21
-3.45618
0
LINE
8
BLACK
6
CONTINUOUS
10
6.06392
20
-3.45618
11
6.06616
21
-3.46057
0
LINE
8
BLACK
6
CONTINUOUS
10
6.06616
20
-3.46057
11
6.06693
21
-3.46543
0
LINE
8
BLACK
6
CONTINUOUS
10
6.06693
20
-3.46543
11
6.06693
21
-3.49693
0
LINE
8
BLACK
6
CONTINUOUS
10
6.06693
20
-3.49693
11
6.06616
21
-3.5018
0
LINE
8
BLACK
6
CONTINUOUS
10
6.06616
20
-3.5018
11
6.06392
21
-3.50619
0
LINE
8
BLACK
6
CONTINUOUS
10
6.06392
20
-3.50619
11
6.06044
21
-3.50967
0
LINE
8
BLACK
6
CONTINUOUS
10
6.06044
20
-3.50967
11
6.05605
21
-3.51191
0
LINE
8
BLACK
6
CONTINUOUS
10
6.05605
20
-3.51191
11
6.05118
21
-3.51268
0
LINE
8
BLACK
6
CONTINUOUS
10
6.05118
20
-3.51268
11
5.96457
21
-3.51268
0
LINE
8
BLACK
6
CONTINUOUS
10
5.96457
20
-3.51268
11
5.9597
21
-3.51191
0
LINE
8
BLACK
6
CONTINUOUS
10
5.9597
20
-3.51191
11
5.95531
21
-3.50967
0
LINE
8
BLACK
6
CONTINUOUS
10
5.95531
20
-3.50967
11
5.95183
21
-3.50619
0
LINE
8
BLACK
6
CONTINUOUS
10
5.95183
20
-3.50619
11
5.94959
21
-3.5018
0
LINE
8
BLACK
6
CONTINUOUS
10
5.94959
20
-3.5018
11
5.94882
21
-3.49693
0
LINE
8
BLACK
6
CONTINUOUS
10
5.94882
20
-3.49693
11
5.94882
21
-3.46543
0
LINE
8
BLACK
6
CONTINUOUS
10
5.94882
20
-3.46543
11
5.94959
21
-3.46057
0
LINE
8
BLACK
6
CONTINUOUS
10
5.94959
20
-3.46057
11
5.95183
21
-3.45618
0
LINE
8
BLACK
6
CONTINUOUS
10
5.95183
20
-3.45618
11
5.95531
21
-3.45269
0
LINE
8
BLACK
6
CONTINUOUS
10
5.95531
20
-3.45269
11
5.9597
21
-3.45046
0
LINE
8
BLACK
6
CONTINUOUS
10
5.9597
20
-3.45046
11
5.96457
21
-3.44969
0
LINE
8
BLACK
6
CONTINUOUS
10
5.96457
20
-3.44969
11
6.05118
21
-3.44969
0
LINE
8
BLACK
6
CONTINUOUS
10
6.05118
20
-3.44969
11
6.05605
21
-3.45046
0
LINE
8
BLACK
6
CONTINUOUS
10
7.13479
20
-3.44396
11
7.13918
21
-3.4462
0
LINE
8
BLACK
6
CONTINUOUS
10
7.13918
20
-3.4462
11
7.14266
21
-3.44968
0
LINE
8
BLACK
6
CONTINUOUS
10
7.14266
20
-3.44968
11
7.1449
21
-3.45407
0
LINE
8
BLACK
6
CONTINUOUS
10
7.1449
20
-3.45407
11
7.14567
21
-3.45894
0
LINE
8
BLACK
6
CONTINUOUS
10
7.14567
20
-3.45894
11
7.14567
21
-3.49043
0
LINE
8
BLACK
6
CONTINUOUS
10
7.14567
20
-3.49043
11
7.1449
21
-3.4953
0
LINE
8
BLACK
6
CONTINUOUS
10
7.1449
20
-3.4953
11
7.14266
21
-3.49969
0
LINE
8
BLACK
6
CONTINUOUS
10
7.14266
20
-3.49969
11
7.13918
21
-3.50317
0
LINE
8
BLACK
6
CONTINUOUS
10
7.13918
20
-3.50317
11
7.13479
21
-3.50541
0
LINE
8
BLACK
6
CONTINUOUS
10
7.13479
20
-3.50541
11
7.12992
21
-3.50618
0
LINE
8
BLACK
6
CONTINUOUS
10
7.12992
20
-3.50618
11
7.04331
21
-3.50618
0
LINE
8
BLACK
6
CONTINUOUS
10
7.04331
20
-3.50618
11
7.03844
21
-3.50541
0
LINE
8
BLACK
6
CONTINUOUS
10
7.03844
20
-3.50541
11
7.03405
21
-3.50317
0
LINE
8
BLACK
6
CONTINUOUS
10
7.03405
20
-3.50317
11
7.03057
21
-3.49969
0
LINE
8
BLACK
6
CONTINUOUS
10
7.03057
20
-3.49969
11
7.02833
21
-3.4953
0
LINE
8
BLACK
6
CONTINUOUS
10
7.02833
20
-3.4953
11
7.02756
21
-3.49043
0
LINE
8
BLACK
6
CONTINUOUS
10
7.02756
20
-3.49043
11
7.02756
21
-3.45894
0
LINE
8
BLACK
6
CONTINUOUS
10
7.02756
20
-3.45894
11
7.02833
21
-3.45407
0
LINE
8
BLACK
6
CONTINUOUS
10
7.02833
20
-3.45407
11
7.03057
21
-3.44968
0
LINE
8
BLACK
6
CONTINUOUS
10
7.03057
20
-3.44968
11
7.03405
21
-3.4462
0
LINE
8
BLACK
6
CONTINUOUS
10
7.03405
20
-3.4462
11
7.03844
21
-3.44396
0
LINE
8
BLACK
6
CONTINUOUS
10
7.03844
20
-3.44396
11
7.04331
21
-3.44319
0
LINE
8
BLACK
6
CONTINUOUS
10
7.04331
20
-3.44319
11
7.12992
21
-3.44319
0
LINE
8
BLACK
6
CONTINUOUS
10
7.12992
20
-3.44319
11
7.13479
21
-3.44396
  0
ENDSEC
  0
EOF
