  0
SECTION
  2
HEADER
  9
$ANGBASE
  50
0.0
  9
$ANGDIR
  70
1
  9
$MEASUREMENT
  70
0
  0
ENDSEC
  0
SECTION
  2
TABLES
  0
TABLE
  2
LTYPE
  70
4
  0
LTYPE
  5
40F
  2
CONTINUOUS
  70
0
  3
Solid line
  72
65
  73
0
  40
0.0
  0
LTYPE
  5
410
  2
DASHDOT
 70
0
  3
Dash Dot ____ _ ____ _
 72
65
 73
4
 40
2.0
 49
1.25
 49
-0.25
 49
0.25
 49
-0.25
  0
LTYPE
  5
411
  2
DASHED
 70
0
  3
Dashed __ __ __ __ __
 72
65
 73
2
 40
0.75
 49
0.5
 49
-0.25
  0
LTYPE
  5
43B
  2
DOTTED
 70
0
  3
Dotted .  .  .  .
 72
65
 73
2
 40
0.2
 49
0.0
 49
-0.2
  0
ENDTAB
  0
TABLE
  2
STYLE
  70
4
  0
STYLE
  2
KICAD
  70
0
  40
0
  41
1
  42
1
  50
0
  71
0
  3
isocp.shx
  0
STYLE
  2
KICADB
  70
0
  40
0
  41
1
  42
1
  50
0
  71
0
  3
isocp.shx
  0
STYLE
  2
KICADI
  70
0
  40
0
  41
1
  42
1
  50
15
  71
0
  3
isocp.shx
  0
STYLE
  2
KICADBI
  70
0
  40
0
  41
1
  42
1
  50
15
  71
0
  3
isocp.shx
  0
ENDTAB
  0
TABLE
  2
LAYER
  70
1
  0
LAYER
  2
BLACK
  70
0
  62
7
  6
CONTINUOUS
  0
ENDTAB
  0
ENDSEC
  0
SECTION
  2
ENTITIES
0
LINE
8
BLACK
6
CONTINUOUS
10
6.39582
20
-5.86173
11
6.40117
21
-5.86333
0
LINE
8
BLACK
6
CONTINUOUS
10
6.40117
20
-5.86333
11
6.40585
21
-5.86637
0
LINE
8
BLACK
6
CONTINUOUS
10
6.40585
20
-5.86637
11
6.4095
21
-5.8706
0
LINE
8
BLACK
6
CONTINUOUS
10
6.4095
20
-5.8706
11
6.41181
21
-5.87568
0
LINE
8
BLACK
6
CONTINUOUS
10
6.41181
20
-5.87568
11
6.4126
21
-5.8812
0
LINE
8
BLACK
6
CONTINUOUS
10
6.4126
20
-5.8812
11
6.4126
21
-5.94026
0
LINE
8
BLACK
6
CONTINUOUS
10
6.4126
20
-5.94026
11
6.4126
21
-5.9405
0
LINE
8
BLACK
6
CONTINUOUS
10
6.4126
20
-5.9405
11
6.41174
21
-5.94601
0
LINE
8
BLACK
6
CONTINUOUS
10
6.41174
20
-5.94601
11
6.40937
21
-5.95106
0
LINE
8
BLACK
6
CONTINUOUS
10
6.40937
20
-5.95106
11
6.40567
21
-5.95525
0
LINE
8
BLACK
6
CONTINUOUS
10
6.40567
20
-5.95525
11
6.40095
21
-5.95823
0
LINE
8
BLACK
6
CONTINUOUS
10
6.40095
20
-5.95823
11
6.39558
21
-5.95976
0
LINE
8
BLACK
6
CONTINUOUS
10
6.39558
20
-5.95976
11
6.39
21
-5.95972
0
LINE
8
BLACK
6
CONTINUOUS
10
6.39
20
-5.95972
11
6.38466
21
-5.95813
0
LINE
8
BLACK
6
CONTINUOUS
10
6.38466
20
-5.95813
11
6.37997
21
-5.95509
0
LINE
8
BLACK
6
CONTINUOUS
10
6.37997
20
-5.95509
11
6.37633
21
-5.95086
0
LINE
8
BLACK
6
CONTINUOUS
10
6.37633
20
-5.95086
11
6.37402
21
-5.94578
0
LINE
8
BLACK
6
CONTINUOUS
10
6.37402
20
-5.94578
11
6.37323
21
-5.94026
0
LINE
8
BLACK
6
CONTINUOUS
10
6.37323
20
-5.94026
11
6.37323
21
-5.8812
0
LINE
8
BLACK
6
CONTINUOUS
10
6.37323
20
-5.8812
11
6.37323
21
-5.88096
0
LINE
8
BLACK
6
CONTINUOUS
10
6.37323
20
-5.88096
11
6.37409
21
-5.87545
0
LINE
8
BLACK
6
CONTINUOUS
10
6.37409
20
-5.87545
11
6.37646
21
-5.87039
0
LINE
8
BLACK
6
CONTINUOUS
10
6.37646
20
-5.87039
11
6.38016
21
-5.86621
0
LINE
8
BLACK
6
CONTINUOUS
10
6.38016
20
-5.86621
11
6.38488
21
-5.86323
0
LINE
8
BLACK
6
CONTINUOUS
10
6.38488
20
-5.86323
11
6.39024
21
-5.8617
0
LINE
8
BLACK
6
CONTINUOUS
10
6.39024
20
-5.8617
11
6.39582
21
-5.86173
0
LINE
8
BLACK
6
CONTINUOUS
10
6.73598
20
-5.86173
11
6.74133
21
-5.86333
0
LINE
8
BLACK
6
CONTINUOUS
10
6.74133
20
-5.86333
11
6.74601
21
-5.86637
0
LINE
8
BLACK
6
CONTINUOUS
10
6.74601
20
-5.86637
11
6.74965
21
-5.8706
0
LINE
8
BLACK
6
CONTINUOUS
10
6.74965
20
-5.8706
11
6.75196
21
-5.87568
0
LINE
8
BLACK
6
CONTINUOUS
10
6.75196
20
-5.87568
11
6.75276
21
-5.8812
0
LINE
8
BLACK
6
CONTINUOUS
10
6.75276
20
-5.8812
11
6.75276
21
-5.94026
0
LINE
8
BLACK
6
CONTINUOUS
10
6.75276
20
-5.94026
11
6.75275
21
-5.9405
0
LINE
8
BLACK
6
CONTINUOUS
10
6.75275
20
-5.9405
11
6.7519
21
-5.94601
0
LINE
8
BLACK
6
CONTINUOUS
10
6.7519
20
-5.94601
11
6.74952
21
-5.95106
0
LINE
8
BLACK
6
CONTINUOUS
10
6.74952
20
-5.95106
11
6.74583
21
-5.95525
0
LINE
8
BLACK
6
CONTINUOUS
10
6.74583
20
-5.95525
11
6.74111
21
-5.95823
0
LINE
8
BLACK
6
CONTINUOUS
10
6.74111
20
-5.95823
11
6.73574
21
-5.95976
0
LINE
8
BLACK
6
CONTINUOUS
10
6.73574
20
-5.95976
11
6.73016
21
-5.95972
0
LINE
8
BLACK
6
CONTINUOUS
10
6.73016
20
-5.95972
11
6.72481
21
-5.95813
0
LINE
8
BLACK
6
CONTINUOUS
10
6.72481
20
-5.95813
11
6.72013
21
-5.95509
0
LINE
8
BLACK
6
CONTINUOUS
10
6.72013
20
-5.95509
11
6.71649
21
-5.95086
0
LINE
8
BLACK
6
CONTINUOUS
10
6.71649
20
-5.95086
11
6.71418
21
-5.94578
0
LINE
8
BLACK
6
CONTINUOUS
10
6.71418
20
-5.94578
11
6.71339
21
-5.94026
0
LINE
8
BLACK
6
CONTINUOUS
10
6.71339
20
-5.94026
11
6.71339
21
-5.8812
0
LINE
8
BLACK
6
CONTINUOUS
10
6.71339
20
-5.8812
11
6.71339
21
-5.88096
0
LINE
8
BLACK
6
CONTINUOUS
10
6.71339
20
-5.88096
11
6.71425
21
-5.87545
0
LINE
8
BLACK
6
CONTINUOUS
10
6.71425
20
-5.87545
11
6.71662
21
-5.87039
0
LINE
8
BLACK
6
CONTINUOUS
10
6.71662
20
-5.87039
11
6.72031
21
-5.86621
0
LINE
8
BLACK
6
CONTINUOUS
10
6.72031
20
-5.86621
11
6.72503
21
-5.86323
0
LINE
8
BLACK
6
CONTINUOUS
10
6.72503
20
-5.86323
11
6.7304
21
-5.8617
0
LINE
8
BLACK
6
CONTINUOUS
10
6.7304
20
-5.8617
11
6.73598
21
-5.86173
0
LINE
8
BLACK
6
CONTINUOUS
10
6.46243
20
-5.84917
11
6.46562
21
-5.85131
0
LINE
8
BLACK
6
CONTINUOUS
10
6.46562
20
-5.85131
11
6.46775
21
-5.8545
0
LINE
8
BLACK
6
CONTINUOUS
10
6.46775
20
-5.8545
11
6.4685
21
-5.85827
0
LINE
8
BLACK
6
CONTINUOUS
10
6.4685
20
-5.85827
11
6.4685
21
-5.8937
0
LINE
8
BLACK
6
CONTINUOUS
10
6.4685
20
-5.8937
11
6.46775
21
-5.89747
0
LINE
8
BLACK
6
CONTINUOUS
10
6.46775
20
-5.89747
11
6.46562
21
-5.90066
0
LINE
8
BLACK
6
CONTINUOUS
10
6.46562
20
-5.90066
11
6.46243
21
-5.90279
0
LINE
8
BLACK
6
CONTINUOUS
10
6.46243
20
-5.90279
11
6.45866
21
-5.90354
0
LINE
8
BLACK
6
CONTINUOUS
10
6.45866
20
-5.90354
11
6.43307
21
-5.90354
0
LINE
8
BLACK
6
CONTINUOUS
10
6.43307
20
-5.90354
11
6.4293
21
-5.90279
0
LINE
8
BLACK
6
CONTINUOUS
10
6.4293
20
-5.90279
11
6.42611
21
-5.90066
0
LINE
8
BLACK
6
CONTINUOUS
10
6.42611
20
-5.90066
11
6.42398
21
-5.89747
0
LINE
8
BLACK
6
CONTINUOUS
10
6.42398
20
-5.89747
11
6.42323
21
-5.8937
0
LINE
8
BLACK
6
CONTINUOUS
10
6.42323
20
-5.8937
11
6.42323
21
-5.85827
0
LINE
8
BLACK
6
CONTINUOUS
10
6.42323
20
-5.85827
11
6.42398
21
-5.8545
0
LINE
8
BLACK
6
CONTINUOUS
10
6.42398
20
-5.8545
11
6.42611
21
-5.85131
0
LINE
8
BLACK
6
CONTINUOUS
10
6.42611
20
-5.85131
11
6.4293
21
-5.84917
0
LINE
8
BLACK
6
CONTINUOUS
10
6.4293
20
-5.84917
11
6.43307
21
-5.84843
0
LINE
8
BLACK
6
CONTINUOUS
10
6.43307
20
-5.84843
11
6.45866
21
-5.84843
0
LINE
8
BLACK
6
CONTINUOUS
10
6.45866
20
-5.84843
11
6.46243
21
-5.84917
0
LINE
8
BLACK
6
CONTINUOUS
10
6.54314
20
-5.84917
11
6.54633
21
-5.85131
0
LINE
8
BLACK
6
CONTINUOUS
10
6.54633
20
-5.85131
11
6.54846
21
-5.8545
0
LINE
8
BLACK
6
CONTINUOUS
10
6.54846
20
-5.8545
11
6.54921
21
-5.85827
0
LINE
8
BLACK
6
CONTINUOUS
10
6.54921
20
-5.85827
11
6.54921
21
-5.8937
0
LINE
8
BLACK
6
CONTINUOUS
10
6.54921
20
-5.8937
11
6.54846
21
-5.89747
0
LINE
8
BLACK
6
CONTINUOUS
10
6.54846
20
-5.89747
11
6.54633
21
-5.90066
0
LINE
8
BLACK
6
CONTINUOUS
10
6.54633
20
-5.90066
11
6.54314
21
-5.90279
0
LINE
8
BLACK
6
CONTINUOUS
10
6.54314
20
-5.90279
11
6.53937
21
-5.90354
0
LINE
8
BLACK
6
CONTINUOUS
10
6.53937
20
-5.90354
11
6.51378
21
-5.90354
0
LINE
8
BLACK
6
CONTINUOUS
10
6.51378
20
-5.90354
11
6.51001
21
-5.90279
0
LINE
8
BLACK
6
CONTINUOUS
10
6.51001
20
-5.90279
11
6.50682
21
-5.90066
0
LINE
8
BLACK
6
CONTINUOUS
10
6.50682
20
-5.90066
11
6.50469
21
-5.89747
0
LINE
8
BLACK
6
CONTINUOUS
10
6.50469
20
-5.89747
11
6.50394
21
-5.8937
0
LINE
8
BLACK
6
CONTINUOUS
10
6.50394
20
-5.8937
11
6.50394
21
-5.85827
0
LINE
8
BLACK
6
CONTINUOUS
10
6.50394
20
-5.85827
11
6.50469
21
-5.8545
0
LINE
8
BLACK
6
CONTINUOUS
10
6.50469
20
-5.8545
11
6.50682
21
-5.85131
0
LINE
8
BLACK
6
CONTINUOUS
10
6.50682
20
-5.85131
11
6.51001
21
-5.84917
0
LINE
8
BLACK
6
CONTINUOUS
10
6.51001
20
-5.84917
11
6.51378
21
-5.84843
0
LINE
8
BLACK
6
CONTINUOUS
10
6.51378
20
-5.84843
11
6.53937
21
-5.84843
0
LINE
8
BLACK
6
CONTINUOUS
10
6.53937
20
-5.84843
11
6.54314
21
-5.84917
0
LINE
8
BLACK
6
CONTINUOUS
10
6.61007
20
-5.84917
11
6.61326
21
-5.85131
0
LINE
8
BLACK
6
CONTINUOUS
10
6.61326
20
-5.85131
11
6.61539
21
-5.8545
0
LINE
8
BLACK
6
CONTINUOUS
10
6.61539
20
-5.8545
11
6.61614
21
-5.85827
0
LINE
8
BLACK
6
CONTINUOUS
10
6.61614
20
-5.85827
11
6.61614
21
-5.8937
0
LINE
8
BLACK
6
CONTINUOUS
10
6.61614
20
-5.8937
11
6.61539
21
-5.89747
0
LINE
8
BLACK
6
CONTINUOUS
10
6.61539
20
-5.89747
11
6.61326
21
-5.90066
0
LINE
8
BLACK
6
CONTINUOUS
10
6.61326
20
-5.90066
11
6.61007
21
-5.90279
0
LINE
8
BLACK
6
CONTINUOUS
10
6.61007
20
-5.90279
11
6.6063
21
-5.90354
0
LINE
8
BLACK
6
CONTINUOUS
10
6.6063
20
-5.90354
11
6.58071
21
-5.90354
0
LINE
8
BLACK
6
CONTINUOUS
10
6.58071
20
-5.90354
11
6.57694
21
-5.90279
0
LINE
8
BLACK
6
CONTINUOUS
10
6.57694
20
-5.90279
11
6.57375
21
-5.90066
0
LINE
8
BLACK
6
CONTINUOUS
10
6.57375
20
-5.90066
11
6.57162
21
-5.89747
0
LINE
8
BLACK
6
CONTINUOUS
10
6.57162
20
-5.89747
11
6.57087
21
-5.8937
0
LINE
8
BLACK
6
CONTINUOUS
10
6.57087
20
-5.8937
11
6.57087
21
-5.85827
0
LINE
8
BLACK
6
CONTINUOUS
10
6.57087
20
-5.85827
11
6.57162
21
-5.8545
0
LINE
8
BLACK
6
CONTINUOUS
10
6.57162
20
-5.8545
11
6.57375
21
-5.85131
0
LINE
8
BLACK
6
CONTINUOUS
10
6.57375
20
-5.85131
11
6.57694
21
-5.84917
0
LINE
8
BLACK
6
CONTINUOUS
10
6.57694
20
-5.84917
11
6.58071
21
-5.84843
0
LINE
8
BLACK
6
CONTINUOUS
10
6.58071
20
-5.84843
11
6.6063
21
-5.84843
0
LINE
8
BLACK
6
CONTINUOUS
10
6.6063
20
-5.84843
11
6.61007
21
-5.84917
0
LINE
8
BLACK
6
CONTINUOUS
10
6.69077
20
-5.84917
11
6.69397
21
-5.85131
0
LINE
8
BLACK
6
CONTINUOUS
10
6.69397
20
-5.85131
11
6.6961
21
-5.8545
0
LINE
8
BLACK
6
CONTINUOUS
10
6.6961
20
-5.8545
11
6.69685
21
-5.85827
0
LINE
8
BLACK
6
CONTINUOUS
10
6.69685
20
-5.85827
11
6.69685
21
-5.8937
0
LINE
8
BLACK
6
CONTINUOUS
10
6.69685
20
-5.8937
11
6.6961
21
-5.89747
0
LINE
8
BLACK
6
CONTINUOUS
10
6.6961
20
-5.89747
11
6.69397
21
-5.90066
0
LINE
8
BLACK
6
CONTINUOUS
10
6.69397
20
-5.90066
11
6.69077
21
-5.90279
0
LINE
8
BLACK
6
CONTINUOUS
10
6.69077
20
-5.90279
11
6.68701
21
-5.90354
0
LINE
8
BLACK
6
CONTINUOUS
10
6.68701
20
-5.90354
11
6.66142
21
-5.90354
0
LINE
8
BLACK
6
CONTINUOUS
10
6.66142
20
-5.90354
11
6.65765
21
-5.90279
0
LINE
8
BLACK
6
CONTINUOUS
10
6.65765
20
-5.90279
11
6.65446
21
-5.90066
0
LINE
8
BLACK
6
CONTINUOUS
10
6.65446
20
-5.90066
11
6.65232
21
-5.89747
0
LINE
8
BLACK
6
CONTINUOUS
10
6.65232
20
-5.89747
11
6.65157
21
-5.8937
0
LINE
8
BLACK
6
CONTINUOUS
10
6.65157
20
-5.8937
11
6.65157
21
-5.85827
0
LINE
8
BLACK
6
CONTINUOUS
10
6.65157
20
-5.85827
11
6.65232
21
-5.8545
0
LINE
8
BLACK
6
CONTINUOUS
10
6.65232
20
-5.8545
11
6.65446
21
-5.85131
0
LINE
8
BLACK
6
CONTINUOUS
10
6.65446
20
-5.85131
11
6.65765
21
-5.84917
0
LINE
8
BLACK
6
CONTINUOUS
10
6.65765
20
-5.84917
11
6.66142
21
-5.84843
0
LINE
8
BLACK
6
CONTINUOUS
10
6.66142
20
-5.84843
11
6.68701
21
-5.84843
0
LINE
8
BLACK
6
CONTINUOUS
10
6.68701
20
-5.84843
11
6.69077
21
-5.84917
0
LINE
8
BLACK
6
CONTINUOUS
10
6.82562
20
-5.83933
11
6.82881
21
-5.84147
0
LINE
8
BLACK
6
CONTINUOUS
10
6.82881
20
-5.84147
11
6.83094
21
-5.84466
0
LINE
8
BLACK
6
CONTINUOUS
10
6.83094
20
-5.84466
11
6.83169
21
-5.84843
0
LINE
8
BLACK
6
CONTINUOUS
10
6.83169
20
-5.84843
11
6.83169
21
-5.88386
0
LINE
8
BLACK
6
CONTINUOUS
10
6.83169
20
-5.88386
11
6.83094
21
-5.88762
0
LINE
8
BLACK
6
CONTINUOUS
10
6.83094
20
-5.88762
11
6.82881
21
-5.89082
0
LINE
8
BLACK
6
CONTINUOUS
10
6.82881
20
-5.89082
11
6.82562
21
-5.89295
0
LINE
8
BLACK
6
CONTINUOUS
10
6.82562
20
-5.89295
11
6.82185
21
-5.8937
0
LINE
8
BLACK
6
CONTINUOUS
10
6.82185
20
-5.8937
11
6.79626
21
-5.8937
0
LINE
8
BLACK
6
CONTINUOUS
10
6.79626
20
-5.8937
11
6.79249
21
-5.89295
0
LINE
8
BLACK
6
CONTINUOUS
10
6.79249
20
-5.89295
11
6.7893
21
-5.89082
0
LINE
8
BLACK
6
CONTINUOUS
10
6.7893
20
-5.89082
11
6.78717
21
-5.88762
0
LINE
8
BLACK
6
CONTINUOUS
10
6.78717
20
-5.88762
11
6.78642
21
-5.88386
0
LINE
8
BLACK
6
CONTINUOUS
10
6.78642
20
-5.88386
11
6.78642
21
-5.84843
0
LINE
8
BLACK
6
CONTINUOUS
10
6.78642
20
-5.84843
11
6.78717
21
-5.84466
0
LINE
8
BLACK
6
CONTINUOUS
10
6.78717
20
-5.84466
11
6.7893
21
-5.84147
0
LINE
8
BLACK
6
CONTINUOUS
10
6.7893
20
-5.84147
11
6.79249
21
-5.83933
0
LINE
8
BLACK
6
CONTINUOUS
10
6.79249
20
-5.83933
11
6.79626
21
-5.83858
0
LINE
8
BLACK
6
CONTINUOUS
10
6.79626
20
-5.83858
11
6.82185
21
-5.83858
0
LINE
8
BLACK
6
CONTINUOUS
10
6.82185
20
-5.83858
11
6.82562
21
-5.83933
0
LINE
8
BLACK
6
CONTINUOUS
10
6.90633
20
-5.83933
11
6.90952
21
-5.84147
0
LINE
8
BLACK
6
CONTINUOUS
10
6.90952
20
-5.84147
11
6.91165
21
-5.84466
0
LINE
8
BLACK
6
CONTINUOUS
10
6.91165
20
-5.84466
11
6.9124
21
-5.84843
0
LINE
8
BLACK
6
CONTINUOUS
10
6.9124
20
-5.84843
11
6.9124
21
-5.88386
0
LINE
8
BLACK
6
CONTINUOUS
10
6.9124
20
-5.88386
11
6.91165
21
-5.88762
0
LINE
8
BLACK
6
CONTINUOUS
10
6.91165
20
-5.88762
11
6.90952
21
-5.89082
0
LINE
8
BLACK
6
CONTINUOUS
10
6.90952
20
-5.89082
11
6.90633
21
-5.89295
0
LINE
8
BLACK
6
CONTINUOUS
10
6.90633
20
-5.89295
11
6.90256
21
-5.8937
0
LINE
8
BLACK
6
CONTINUOUS
10
6.90256
20
-5.8937
11
6.87697
21
-5.8937
0
LINE
8
BLACK
6
CONTINUOUS
10
6.87697
20
-5.8937
11
6.8732
21
-5.89295
0
LINE
8
BLACK
6
CONTINUOUS
10
6.8732
20
-5.89295
11
6.87001
21
-5.89082
0
LINE
8
BLACK
6
CONTINUOUS
10
6.87001
20
-5.89082
11
6.86788
21
-5.88762
0
LINE
8
BLACK
6
CONTINUOUS
10
6.86788
20
-5.88762
11
6.86713
21
-5.88386
0
LINE
8
BLACK
6
CONTINUOUS
10
6.86713
20
-5.88386
11
6.86713
21
-5.84843
0
LINE
8
BLACK
6
CONTINUOUS
10
6.86713
20
-5.84843
11
6.86788
21
-5.84466
0
LINE
8
BLACK
6
CONTINUOUS
10
6.86788
20
-5.84466
11
6.87001
21
-5.84147
0
LINE
8
BLACK
6
CONTINUOUS
10
6.87001
20
-5.84147
11
6.8732
21
-5.83933
0
LINE
8
BLACK
6
CONTINUOUS
10
6.8732
20
-5.83933
11
6.87697
21
-5.83858
0
LINE
8
BLACK
6
CONTINUOUS
10
6.87697
20
-5.83858
11
6.90256
21
-5.83858
0
LINE
8
BLACK
6
CONTINUOUS
10
6.90256
20
-5.83858
11
6.90633
21
-5.83933
0
LINE
8
BLACK
6
CONTINUOUS
10
6.22522
20
-5.83933
11
6.22842
21
-5.84147
0
LINE
8
BLACK
6
CONTINUOUS
10
6.22842
20
-5.84147
11
6.23055
21
-5.84466
0
LINE
8
BLACK
6
CONTINUOUS
10
6.23055
20
-5.84466
11
6.2313
21
-5.84843
0
LINE
8
BLACK
6
CONTINUOUS
10
6.2313
20
-5.84843
11
6.2313
21
-5.88386
0
LINE
8
BLACK
6
CONTINUOUS
10
6.2313
20
-5.88386
11
6.23055
21
-5.88762
0
LINE
8
BLACK
6
CONTINUOUS
10
6.23055
20
-5.88762
11
6.22842
21
-5.89082
0
LINE
8
BLACK
6
CONTINUOUS
10
6.22842
20
-5.89082
11
6.22522
21
-5.89295
0
LINE
8
BLACK
6
CONTINUOUS
10
6.22522
20
-5.89295
11
6.22146
21
-5.8937
0
LINE
8
BLACK
6
CONTINUOUS
10
6.22146
20
-5.8937
11
6.19587
21
-5.8937
0
LINE
8
BLACK
6
CONTINUOUS
10
6.19587
20
-5.8937
11
6.1921
21
-5.89295
0
LINE
8
BLACK
6
CONTINUOUS
10
6.1921
20
-5.89295
11
6.18891
21
-5.89082
0
LINE
8
BLACK
6
CONTINUOUS
10
6.18891
20
-5.89082
11
6.18677
21
-5.88762
0
LINE
8
BLACK
6
CONTINUOUS
10
6.18677
20
-5.88762
11
6.18602
21
-5.88386
0
LINE
8
BLACK
6
CONTINUOUS
10
6.18602
20
-5.88386
11
6.18602
21
-5.84843
0
LINE
8
BLACK
6
CONTINUOUS
10
6.18602
20
-5.84843
11
6.18677
21
-5.84466
0
LINE
8
BLACK
6
CONTINUOUS
10
6.18677
20
-5.84466
11
6.18891
21
-5.84147
0
LINE
8
BLACK
6
CONTINUOUS
10
6.18891
20
-5.84147
11
6.1921
21
-5.83933
0
LINE
8
BLACK
6
CONTINUOUS
10
6.1921
20
-5.83933
11
6.19587
21
-5.83858
0
LINE
8
BLACK
6
CONTINUOUS
10
6.19587
20
-5.83858
11
6.22146
21
-5.83858
0
LINE
8
BLACK
6
CONTINUOUS
10
6.22146
20
-5.83858
11
6.22522
21
-5.83933
0
LINE
8
BLACK
6
CONTINUOUS
10
6.30593
20
-5.83933
11
6.30913
21
-5.84147
0
LINE
8
BLACK
6
CONTINUOUS
10
6.30913
20
-5.84147
11
6.31126
21
-5.84466
0
LINE
8
BLACK
6
CONTINUOUS
10
6.31126
20
-5.84466
11
6.31201
21
-5.84843
0
LINE
8
BLACK
6
CONTINUOUS
10
6.31201
20
-5.84843
11
6.31201
21
-5.88386
0
LINE
8
BLACK
6
CONTINUOUS
10
6.31201
20
-5.88386
11
6.31126
21
-5.88762
0
LINE
8
BLACK
6
CONTINUOUS
10
6.31126
20
-5.88762
11
6.30913
21
-5.89082
0
LINE
8
BLACK
6
CONTINUOUS
10
6.30913
20
-5.89082
11
6.30593
21
-5.89295
0
LINE
8
BLACK
6
CONTINUOUS
10
6.30593
20
-5.89295
11
6.30217
21
-5.8937
0
LINE
8
BLACK
6
CONTINUOUS
10
6.30217
20
-5.8937
11
6.27657
21
-5.8937
0
LINE
8
BLACK
6
CONTINUOUS
10
6.27657
20
-5.8937
11
6.27281
21
-5.89295
0
LINE
8
BLACK
6
CONTINUOUS
10
6.27281
20
-5.89295
11
6.26962
21
-5.89082
0
LINE
8
BLACK
6
CONTINUOUS
10
6.26962
20
-5.89082
11
6.26748
21
-5.88762
0
LINE
8
BLACK
6
CONTINUOUS
10
6.26748
20
-5.88762
11
6.26673
21
-5.88386
0
LINE
8
BLACK
6
CONTINUOUS
10
6.26673
20
-5.88386
11
6.26673
21
-5.84843
0
LINE
8
BLACK
6
CONTINUOUS
10
6.26673
20
-5.84843
11
6.26748
21
-5.84466
0
LINE
8
BLACK
6
CONTINUOUS
10
6.26748
20
-5.84466
11
6.26962
21
-5.84147
0
LINE
8
BLACK
6
CONTINUOUS
10
6.26962
20
-5.84147
11
6.27281
21
-5.83933
0
LINE
8
BLACK
6
CONTINUOUS
10
6.27281
20
-5.83933
11
6.27657
21
-5.83858
0
LINE
8
BLACK
6
CONTINUOUS
10
6.27657
20
-5.83858
11
6.30217
21
-5.83858
0
LINE
8
BLACK
6
CONTINUOUS
10
6.30217
20
-5.83858
11
6.30593
21
-5.83933
0
LINE
8
BLACK
6
CONTINUOUS
10
6.07759
20
-5.83933
11
6.08078
21
-5.84147
0
LINE
8
BLACK
6
CONTINUOUS
10
6.08078
20
-5.84147
11
6.08291
21
-5.84466
0
LINE
8
BLACK
6
CONTINUOUS
10
6.08291
20
-5.84466
11
6.08366
21
-5.84843
0
LINE
8
BLACK
6
CONTINUOUS
10
6.08366
20
-5.84843
11
6.08366
21
-5.88386
0
LINE
8
BLACK
6
CONTINUOUS
10
6.08366
20
-5.88386
11
6.08291
21
-5.88762
0
LINE
8
BLACK
6
CONTINUOUS
10
6.08291
20
-5.88762
11
6.08078
21
-5.89082
0
LINE
8
BLACK
6
CONTINUOUS
10
6.08078
20
-5.89082
11
6.07759
21
-5.89295
0
LINE
8
BLACK
6
CONTINUOUS
10
6.07759
20
-5.89295
11
6.07382
21
-5.8937
0
LINE
8
BLACK
6
CONTINUOUS
10
6.07382
20
-5.8937
11
6.04823
21
-5.8937
0
LINE
8
BLACK
6
CONTINUOUS
10
6.04823
20
-5.8937
11
6.04446
21
-5.89295
0
LINE
8
BLACK
6
CONTINUOUS
10
6.04446
20
-5.89295
11
6.04127
21
-5.89082
0
LINE
8
BLACK
6
CONTINUOUS
10
6.04127
20
-5.89082
11
6.03914
21
-5.88762
0
LINE
8
BLACK
6
CONTINUOUS
10
6.03914
20
-5.88762
11
6.03839
21
-5.88386
0
LINE
8
BLACK
6
CONTINUOUS
10
6.03839
20
-5.88386
11
6.03839
21
-5.84843
0
LINE
8
BLACK
6
CONTINUOUS
10
6.03839
20
-5.84843
11
6.03914
21
-5.84466
0
LINE
8
BLACK
6
CONTINUOUS
10
6.03914
20
-5.84466
11
6.04127
21
-5.84147
0
LINE
8
BLACK
6
CONTINUOUS
10
6.04127
20
-5.84147
11
6.04446
21
-5.83933
0
LINE
8
BLACK
6
CONTINUOUS
10
6.04446
20
-5.83933
11
6.04823
21
-5.83858
0
LINE
8
BLACK
6
CONTINUOUS
10
6.04823
20
-5.83858
11
6.07382
21
-5.83858
0
LINE
8
BLACK
6
CONTINUOUS
10
6.07382
20
-5.83858
11
6.07759
21
-5.83933
0
LINE
8
BLACK
6
CONTINUOUS
10
6.15829
20
-5.83933
11
6.16149
21
-5.84147
0
LINE
8
BLACK
6
CONTINUOUS
10
6.16149
20
-5.84147
11
6.16362
21
-5.84466
0
LINE
8
BLACK
6
CONTINUOUS
10
6.16362
20
-5.84466
11
6.16437
21
-5.84843
0
LINE
8
BLACK
6
CONTINUOUS
10
6.16437
20
-5.84843
11
6.16437
21
-5.88386
0
LINE
8
BLACK
6
CONTINUOUS
10
6.16437
20
-5.88386
11
6.16362
21
-5.88762
0
LINE
8
BLACK
6
CONTINUOUS
10
6.16362
20
-5.88762
11
6.16149
21
-5.89082
0
LINE
8
BLACK
6
CONTINUOUS
10
6.16149
20
-5.89082
11
6.15829
21
-5.89295
0
LINE
8
BLACK
6
CONTINUOUS
10
6.15829
20
-5.89295
11
6.15453
21
-5.8937
0
LINE
8
BLACK
6
CONTINUOUS
10
6.15453
20
-5.8937
11
6.12894
21
-5.8937
0
LINE
8
BLACK
6
CONTINUOUS
10
6.12894
20
-5.8937
11
6.12517
21
-5.89295
0
LINE
8
BLACK
6
CONTINUOUS
10
6.12517
20
-5.89295
11
6.12198
21
-5.89082
0
LINE
8
BLACK
6
CONTINUOUS
10
6.12198
20
-5.89082
11
6.11984
21
-5.88762
0
LINE
8
BLACK
6
CONTINUOUS
10
6.11984
20
-5.88762
11
6.11909
21
-5.88386
0
LINE
8
BLACK
6
CONTINUOUS
10
6.11909
20
-5.88386
11
6.11909
21
-5.84843
0
LINE
8
BLACK
6
CONTINUOUS
10
6.11909
20
-5.84843
11
6.11984
21
-5.84466
0
LINE
8
BLACK
6
CONTINUOUS
10
6.11984
20
-5.84466
11
6.12198
21
-5.84147
0
LINE
8
BLACK
6
CONTINUOUS
10
6.12198
20
-5.84147
11
6.12517
21
-5.83933
0
LINE
8
BLACK
6
CONTINUOUS
10
6.12517
20
-5.83933
11
6.12894
21
-5.83858
0
LINE
8
BLACK
6
CONTINUOUS
10
6.12894
20
-5.83858
11
6.15453
21
-5.83858
0
LINE
8
BLACK
6
CONTINUOUS
10
6.15453
20
-5.83858
11
6.15829
21
-5.83933
0
LINE
8
BLACK
6
CONTINUOUS
10
7.0746
20
-5.78564
11
7.08165
21
-5.78722
0
LINE
8
BLACK
6
CONTINUOUS
10
7.08165
20
-5.78722
11
7.0882
21
-5.79027
0
LINE
8
BLACK
6
CONTINUOUS
10
7.0882
20
-5.79027
11
7.09394
21
-5.79466
0
LINE
8
BLACK
6
CONTINUOUS
10
7.09394
20
-5.79466
11
7.09861
21
-5.80018
0
LINE
8
BLACK
6
CONTINUOUS
10
7.09861
20
-5.80018
11
7.10198
21
-5.80658
0
LINE
8
BLACK
6
CONTINUOUS
10
7.10198
20
-5.80658
11
7.1039
21
-5.81355
0
LINE
8
BLACK
6
CONTINUOUS
10
7.1039
20
-5.81355
11
7.10428
21
-5.82077
0
LINE
8
BLACK
6
CONTINUOUS
10
7.10428
20
-5.82077
11
7.1031
21
-5.8279
0
LINE
8
BLACK
6
CONTINUOUS
10
7.1031
20
-5.8279
11
7.10041
21
-5.83461
0
LINE
8
BLACK
6
CONTINUOUS
10
7.10041
20
-5.83461
11
7.09635
21
-5.84059
0
LINE
8
BLACK
6
CONTINUOUS
10
7.09635
20
-5.84059
11
7.0911
21
-5.84555
0
LINE
8
BLACK
6
CONTINUOUS
10
7.0911
20
-5.84555
11
7.0849
21
-5.84928
0
LINE
8
BLACK
6
CONTINUOUS
10
7.0849
20
-5.84928
11
7.07805
21
-5.85158
0
LINE
8
BLACK
6
CONTINUOUS
10
7.07805
20
-5.85158
11
7.07087
21
-5.85236
0
LINE
8
BLACK
6
CONTINUOUS
10
7.07087
20
-5.85236
11
6.97047
21
-5.85236
0
LINE
8
BLACK
6
CONTINUOUS
10
6.97047
20
-5.85236
11
6.96674
21
-5.85215
0
LINE
8
BLACK
6
CONTINUOUS
10
6.96674
20
-5.85215
11
6.95969
21
-5.85058
0
LINE
8
BLACK
6
CONTINUOUS
10
6.95969
20
-5.85058
11
6.95314
21
-5.84752
0
LINE
8
BLACK
6
CONTINUOUS
10
6.95314
20
-5.84752
11
6.94739
21
-5.84313
0
LINE
8
BLACK
6
CONTINUOUS
10
6.94739
20
-5.84313
11
6.94273
21
-5.83761
0
LINE
8
BLACK
6
CONTINUOUS
10
6.94273
20
-5.83761
11
6.93936
21
-5.83122
0
LINE
8
BLACK
6
CONTINUOUS
10
6.93936
20
-5.83122
11
6.93744
21
-5.82425
0
LINE
8
BLACK
6
CONTINUOUS
10
6.93744
20
-5.82425
11
6.93706
21
-5.81703
0
LINE
8
BLACK
6
CONTINUOUS
10
6.93706
20
-5.81703
11
6.93824
21
-5.8099
0
LINE
8
BLACK
6
CONTINUOUS
10
6.93824
20
-5.8099
11
6.94093
21
-5.80319
0
LINE
8
BLACK
6
CONTINUOUS
10
6.94093
20
-5.80319
11
6.94499
21
-5.79721
0
LINE
8
BLACK
6
CONTINUOUS
10
6.94499
20
-5.79721
11
6.95024
21
-5.79224
0
LINE
8
BLACK
6
CONTINUOUS
10
6.95024
20
-5.79224
11
6.95644
21
-5.78852
0
LINE
8
BLACK
6
CONTINUOUS
10
6.95644
20
-5.78852
11
6.96329
21
-5.78621
0
LINE
8
BLACK
6
CONTINUOUS
10
6.96329
20
-5.78621
11
6.97047
21
-5.78543
0
LINE
8
BLACK
6
CONTINUOUS
10
6.97047
20
-5.78543
11
7.07087
21
-5.78543
0
LINE
8
BLACK
6
CONTINUOUS
10
7.07087
20
-5.78543
11
7.0746
21
-5.78564
0
LINE
8
BLACK
6
CONTINUOUS
10
6.4521
20
-5.7771
11
6.45611
21
-5.7787
0
LINE
8
BLACK
6
CONTINUOUS
10
6.45611
20
-5.7787
11
6.45929
21
-5.78164
0
LINE
8
BLACK
6
CONTINUOUS
10
6.45929
20
-5.78164
11
6.46118
21
-5.78552
0
LINE
8
BLACK
6
CONTINUOUS
10
6.46118
20
-5.78552
11
6.46156
21
-5.78983
0
LINE
8
BLACK
6
CONTINUOUS
10
6.46156
20
-5.78983
11
6.46035
21
-5.79399
0
LINE
8
BLACK
6
CONTINUOUS
10
6.46035
20
-5.79399
11
6.45774
21
-5.79743
0
LINE
8
BLACK
6
CONTINUOUS
10
6.45774
20
-5.79743
11
6.45406
21
-5.7997
0
LINE
8
BLACK
6
CONTINUOUS
10
6.45406
20
-5.7997
11
6.4498
21
-5.80049
0
LINE
8
BLACK
6
CONTINUOUS
10
6.4498
20
-5.80049
11
6.43996
21
-5.80049
0
LINE
8
BLACK
6
CONTINUOUS
10
6.43996
20
-5.80049
11
6.43767
21
-5.80027
0
LINE
8
BLACK
6
CONTINUOUS
10
6.43767
20
-5.80027
11
6.43365
21
-5.79866
0
LINE
8
BLACK
6
CONTINUOUS
10
6.43365
20
-5.79866
11
6.43048
21
-5.79572
0
LINE
8
BLACK
6
CONTINUOUS
10
6.43048
20
-5.79572
11
6.42858
21
-5.79184
0
LINE
8
BLACK
6
CONTINUOUS
10
6.42858
20
-5.79184
11
6.42821
21
-5.78753
0
LINE
8
BLACK
6
CONTINUOUS
10
6.42821
20
-5.78753
11
6.42941
21
-5.78337
0
LINE
8
BLACK
6
CONTINUOUS
10
6.42941
20
-5.78337
11
6.43203
21
-5.77993
0
LINE
8
BLACK
6
CONTINUOUS
10
6.43203
20
-5.77993
11
6.43571
21
-5.77766
0
LINE
8
BLACK
6
CONTINUOUS
10
6.43571
20
-5.77766
11
6.43996
21
-5.77687
0
LINE
8
BLACK
6
CONTINUOUS
10
6.43996
20
-5.77687
11
6.4498
21
-5.77687
0
LINE
8
BLACK
6
CONTINUOUS
10
6.4498
20
-5.77687
11
6.4521
21
-5.7771
0
LINE
8
BLACK
6
CONTINUOUS
10
6.68701
20
-5.77845
11
6.69015
21
-5.78109
0
LINE
8
BLACK
6
CONTINUOUS
10
6.69015
20
-5.78109
11
6.6922
21
-5.78464
0
LINE
8
BLACK
6
CONTINUOUS
10
6.6922
20
-5.78464
11
6.69291
21
-5.78868
0
LINE
8
BLACK
6
CONTINUOUS
10
6.69291
20
-5.78868
11
6.6922
21
-5.79272
0
LINE
8
BLACK
6
CONTINUOUS
10
6.6922
20
-5.79272
11
6.69015
21
-5.79627
0
LINE
8
BLACK
6
CONTINUOUS
10
6.69015
20
-5.79627
11
6.68701
21
-5.79891
0
LINE
8
BLACK
6
CONTINUOUS
10
6.68701
20
-5.79891
11
6.68315
21
-5.80031
0
LINE
8
BLACK
6
CONTINUOUS
10
6.68315
20
-5.80031
11
6.67905
21
-5.80031
0
LINE
8
BLACK
6
CONTINUOUS
10
6.67905
20
-5.80031
11
6.6752
21
-5.79891
0
LINE
8
BLACK
6
CONTINUOUS
10
6.6752
20
-5.79891
11
6.67205
21
-5.79627
0
LINE
8
BLACK
6
CONTINUOUS
10
6.67205
20
-5.79627
11
6.67
21
-5.79272
0
LINE
8
BLACK
6
CONTINUOUS
10
6.67
20
-5.79272
11
6.66929
21
-5.78868
0
LINE
8
BLACK
6
CONTINUOUS
10
6.66929
20
-5.78868
11
6.67
21
-5.78464
0
LINE
8
BLACK
6
CONTINUOUS
10
6.67
20
-5.78464
11
6.67205
21
-5.78109
0
LINE
8
BLACK
6
CONTINUOUS
10
6.67205
20
-5.78109
11
6.6752
21
-5.77845
0
LINE
8
BLACK
6
CONTINUOUS
10
6.6752
20
-5.77845
11
6.67905
21
-5.77705
0
LINE
8
BLACK
6
CONTINUOUS
10
6.67905
20
-5.77705
11
6.68315
21
-5.77705
0
LINE
8
BLACK
6
CONTINUOUS
10
6.68315
20
-5.77705
11
6.68701
21
-5.77845
0
LINE
8
BLACK
6
CONTINUOUS
10
6.39582
20
-5.72197
11
6.40117
21
-5.72357
0
LINE
8
BLACK
6
CONTINUOUS
10
6.40117
20
-5.72357
11
6.40585
21
-5.7266
0
LINE
8
BLACK
6
CONTINUOUS
10
6.40585
20
-5.7266
11
6.4095
21
-5.73083
0
LINE
8
BLACK
6
CONTINUOUS
10
6.4095
20
-5.73083
11
6.41181
21
-5.73591
0
LINE
8
BLACK
6
CONTINUOUS
10
6.41181
20
-5.73591
11
6.4126
21
-5.74144
0
LINE
8
BLACK
6
CONTINUOUS
10
6.4126
20
-5.74144
11
6.4126
21
-5.78081
0
LINE
8
BLACK
6
CONTINUOUS
10
6.4126
20
-5.78081
11
6.4126
21
-5.78105
0
LINE
8
BLACK
6
CONTINUOUS
10
6.4126
20
-5.78105
11
6.41174
21
-5.78656
0
LINE
8
BLACK
6
CONTINUOUS
10
6.41174
20
-5.78656
11
6.40937
21
-5.79161
0
LINE
8
BLACK
6
CONTINUOUS
10
6.40937
20
-5.79161
11
6.40567
21
-5.7958
0
LINE
8
BLACK
6
CONTINUOUS
10
6.40567
20
-5.7958
11
6.40095
21
-5.79878
0
LINE
8
BLACK
6
CONTINUOUS
10
6.40095
20
-5.79878
11
6.39558
21
-5.80031
0
LINE
8
BLACK
6
CONTINUOUS
10
6.39558
20
-5.80031
11
6.39
21
-5.80028
0
LINE
8
BLACK
6
CONTINUOUS
10
6.39
20
-5.80028
11
6.38466
21
-5.79868
0
LINE
8
BLACK
6
CONTINUOUS
10
6.38466
20
-5.79868
11
6.37997
21
-5.79564
0
LINE
8
BLACK
6
CONTINUOUS
10
6.37997
20
-5.79564
11
6.37633
21
-5.79141
0
LINE
8
BLACK
6
CONTINUOUS
10
6.37633
20
-5.79141
11
6.37402
21
-5.78633
0
LINE
8
BLACK
6
CONTINUOUS
10
6.37402
20
-5.78633
11
6.37323
21
-5.78081
0
LINE
8
BLACK
6
CONTINUOUS
10
6.37323
20
-5.78081
11
6.37323
21
-5.74144
0
LINE
8
BLACK
6
CONTINUOUS
10
6.37323
20
-5.74144
11
6.37323
21
-5.7412
0
LINE
8
BLACK
6
CONTINUOUS
10
6.37323
20
-5.7412
11
6.37409
21
-5.73568
0
LINE
8
BLACK
6
CONTINUOUS
10
6.37409
20
-5.73568
11
6.37646
21
-5.73063
0
LINE
8
BLACK
6
CONTINUOUS
10
6.37646
20
-5.73063
11
6.38016
21
-5.72645
0
LINE
8
BLACK
6
CONTINUOUS
10
6.38016
20
-5.72645
11
6.38488
21
-5.72347
0
LINE
8
BLACK
6
CONTINUOUS
10
6.38488
20
-5.72347
11
6.39024
21
-5.72193
0
LINE
8
BLACK
6
CONTINUOUS
10
6.39024
20
-5.72193
11
6.39582
21
-5.72197
0
LINE
8
BLACK
6
CONTINUOUS
10
6.73598
20
-5.72098
11
6.74133
21
-5.72258
0
LINE
8
BLACK
6
CONTINUOUS
10
6.74133
20
-5.72258
11
6.74601
21
-5.72562
0
LINE
8
BLACK
6
CONTINUOUS
10
6.74601
20
-5.72562
11
6.74965
21
-5.72985
0
LINE
8
BLACK
6
CONTINUOUS
10
6.74965
20
-5.72985
11
6.75196
21
-5.73493
0
LINE
8
BLACK
6
CONTINUOUS
10
6.75196
20
-5.73493
11
6.75276
21
-5.74045
0
LINE
8
BLACK
6
CONTINUOUS
10
6.75276
20
-5.74045
11
6.75276
21
-5.77982
0
LINE
8
BLACK
6
CONTINUOUS
10
6.75276
20
-5.77982
11
6.75275
21
-5.78006
0
LINE
8
BLACK
6
CONTINUOUS
10
6.75275
20
-5.78006
11
6.7519
21
-5.78558
0
LINE
8
BLACK
6
CONTINUOUS
10
6.7519
20
-5.78558
11
6.74952
21
-5.79063
0
LINE
8
BLACK
6
CONTINUOUS
10
6.74952
20
-5.79063
11
6.74583
21
-5.79481
0
LINE
8
BLACK
6
CONTINUOUS
10
6.74583
20
-5.79481
11
6.74111
21
-5.79779
0
LINE
8
BLACK
6
CONTINUOUS
10
6.74111
20
-5.79779
11
6.73574
21
-5.79933
0
LINE
8
BLACK
6
CONTINUOUS
10
6.73574
20
-5.79933
11
6.73016
21
-5.79929
0
LINE
8
BLACK
6
CONTINUOUS
10
6.73016
20
-5.79929
11
6.72481
21
-5.79769
0
LINE
8
BLACK
6
CONTINUOUS
10
6.72481
20
-5.79769
11
6.72013
21
-5.79466
0
LINE
8
BLACK
6
CONTINUOUS
10
6.72013
20
-5.79466
11
6.71649
21
-5.79043
0
LINE
8
BLACK
6
CONTINUOUS
10
6.71649
20
-5.79043
11
6.71418
21
-5.78535
0
LINE
8
BLACK
6
CONTINUOUS
10
6.71418
20
-5.78535
11
6.71339
21
-5.77982
0
LINE
8
BLACK
6
CONTINUOUS
10
6.71339
20
-5.77982
11
6.71339
21
-5.74045
0
LINE
8
BLACK
6
CONTINUOUS
10
6.71339
20
-5.74045
11
6.71339
21
-5.74021
0
LINE
8
BLACK
6
CONTINUOUS
10
6.71339
20
-5.74021
11
6.71425
21
-5.7347
0
LINE
8
BLACK
6
CONTINUOUS
10
6.71425
20
-5.7347
11
6.71662
21
-5.72965
0
LINE
8
BLACK
6
CONTINUOUS
10
6.71662
20
-5.72965
11
6.72031
21
-5.72546
0
LINE
8
BLACK
6
CONTINUOUS
10
6.72031
20
-5.72546
11
6.72503
21
-5.72248
0
LINE
8
BLACK
6
CONTINUOUS
10
6.72503
20
-5.72248
11
6.7304
21
-5.72095
0
LINE
8
BLACK
6
CONTINUOUS
10
6.7304
20
-5.72095
11
6.73598
21
-5.72098
0
LINE
8
BLACK
6
CONTINUOUS
10
6.07986
20
-5.76154
11
6.08289
21
-5.76357
0
LINE
8
BLACK
6
CONTINUOUS
10
6.08289
20
-5.76357
11
6.08492
21
-5.7666
0
LINE
8
BLACK
6
CONTINUOUS
10
6.08492
20
-5.7666
11
6.08563
21
-5.77018
0
LINE
8
BLACK
6
CONTINUOUS
10
6.08563
20
-5.77018
11
6.08563
21
-5.78888
0
LINE
8
BLACK
6
CONTINUOUS
10
6.08563
20
-5.78888
11
6.08492
21
-5.79246
0
LINE
8
BLACK
6
CONTINUOUS
10
6.08492
20
-5.79246
11
6.08289
21
-5.79549
0
LINE
8
BLACK
6
CONTINUOUS
10
6.08289
20
-5.79549
11
6.07986
21
-5.79752
0
LINE
8
BLACK
6
CONTINUOUS
10
6.07986
20
-5.79752
11
6.07628
21
-5.79823
0
LINE
8
BLACK
6
CONTINUOUS
10
6.07628
20
-5.79823
11
6.05364
21
-5.79823
0
LINE
8
BLACK
6
CONTINUOUS
10
6.05364
20
-5.79823
11
6.05006
21
-5.79752
0
LINE
8
BLACK
6
CONTINUOUS
10
6.05006
20
-5.79752
11
6.04703
21
-5.79549
0
LINE
8
BLACK
6
CONTINUOUS
10
6.04703
20
-5.79549
11
6.045
21
-5.79246
0
LINE
8
BLACK
6
CONTINUOUS
10
6.045
20
-5.79246
11
6.04429
21
-5.78888
0
LINE
8
BLACK
6
CONTINUOUS
10
6.04429
20
-5.78888
11
6.04429
21
-5.77018
0
LINE
8
BLACK
6
CONTINUOUS
10
6.04429
20
-5.77018
11
6.045
21
-5.7666
0
LINE
8
BLACK
6
CONTINUOUS
10
6.045
20
-5.7666
11
6.04703
21
-5.76357
0
LINE
8
BLACK
6
CONTINUOUS
10
6.04703
20
-5.76357
11
6.05006
21
-5.76154
0
LINE
8
BLACK
6
CONTINUOUS
10
6.05006
20
-5.76154
11
6.05364
21
-5.76083
0
LINE
8
BLACK
6
CONTINUOUS
10
6.05364
20
-5.76083
11
6.07628
21
-5.76083
0
LINE
8
BLACK
6
CONTINUOUS
10
6.07628
20
-5.76083
11
6.07986
21
-5.76154
0
LINE
8
BLACK
6
CONTINUOUS
10
6.21273
20
-5.76154
11
6.21577
21
-5.76357
0
LINE
8
BLACK
6
CONTINUOUS
10
6.21577
20
-5.76357
11
6.21779
21
-5.7666
0
LINE
8
BLACK
6
CONTINUOUS
10
6.21779
20
-5.7666
11
6.2185
21
-5.77018
0
LINE
8
BLACK
6
CONTINUOUS
10
6.2185
20
-5.77018
11
6.2185
21
-5.78888
0
LINE
8
BLACK
6
CONTINUOUS
10
6.2185
20
-5.78888
11
6.21779
21
-5.79246
0
LINE
8
BLACK
6
CONTINUOUS
10
6.21779
20
-5.79246
11
6.21577
21
-5.79549
0
LINE
8
BLACK
6
CONTINUOUS
10
6.21577
20
-5.79549
11
6.21273
21
-5.79752
0
LINE
8
BLACK
6
CONTINUOUS
10
6.21273
20
-5.79752
11
6.20915
21
-5.79823
0
LINE
8
BLACK
6
CONTINUOUS
10
6.20915
20
-5.79823
11
6.18652
21
-5.79823
0
LINE
8
BLACK
6
CONTINUOUS
10
6.18652
20
-5.79823
11
6.18294
21
-5.79752
0
LINE
8
BLACK
6
CONTINUOUS
10
6.18294
20
-5.79752
11
6.1799
21
-5.79549
0
LINE
8
BLACK
6
CONTINUOUS
10
6.1799
20
-5.79549
11
6.17788
21
-5.79246
0
LINE
8
BLACK
6
CONTINUOUS
10
6.17788
20
-5.79246
11
6.17717
21
-5.78888
0
LINE
8
BLACK
6
CONTINUOUS
10
6.17717
20
-5.78888
11
6.17717
21
-5.77018
0
LINE
8
BLACK
6
CONTINUOUS
10
6.17717
20
-5.77018
11
6.17788
21
-5.7666
0
LINE
8
BLACK
6
CONTINUOUS
10
6.17788
20
-5.7666
11
6.1799
21
-5.76357
0
LINE
8
BLACK
6
CONTINUOUS
10
6.1799
20
-5.76357
11
6.18294
21
-5.76154
0
LINE
8
BLACK
6
CONTINUOUS
10
6.18294
20
-5.76154
11
6.18652
21
-5.76083
0
LINE
8
BLACK
6
CONTINUOUS
10
6.18652
20
-5.76083
11
6.20915
21
-5.76083
0
LINE
8
BLACK
6
CONTINUOUS
10
6.20915
20
-5.76083
11
6.21273
21
-5.76154
0
LINE
8
BLACK
6
CONTINUOUS
10
6.28163
20
-5.76154
11
6.28466
21
-5.76357
0
LINE
8
BLACK
6
CONTINUOUS
10
6.28466
20
-5.76357
11
6.28669
21
-5.7666
0
LINE
8
BLACK
6
CONTINUOUS
10
6.28669
20
-5.7666
11
6.2874
21
-5.77018
0
LINE
8
BLACK
6
CONTINUOUS
10
6.2874
20
-5.77018
11
6.2874
21
-5.78888
0
LINE
8
BLACK
6
CONTINUOUS
10
6.2874
20
-5.78888
11
6.28669
21
-5.79246
0
LINE
8
BLACK
6
CONTINUOUS
10
6.28669
20
-5.79246
11
6.28466
21
-5.79549
0
LINE
8
BLACK
6
CONTINUOUS
10
6.28466
20
-5.79549
11
6.28163
21
-5.79752
0
LINE
8
BLACK
6
CONTINUOUS
10
6.28163
20
-5.79752
11
6.27805
21
-5.79823
0
LINE
8
BLACK
6
CONTINUOUS
10
6.27805
20
-5.79823
11
6.25541
21
-5.79823
0
LINE
8
BLACK
6
CONTINUOUS
10
6.25541
20
-5.79823
11
6.25184
21
-5.79752
0
LINE
8
BLACK
6
CONTINUOUS
10
6.25184
20
-5.79752
11
6.2488
21
-5.79549
0
LINE
8
BLACK
6
CONTINUOUS
10
6.2488
20
-5.79549
11
6.24677
21
-5.79246
0
LINE
8
BLACK
6
CONTINUOUS
10
6.24677
20
-5.79246
11
6.24606
21
-5.78888
0
LINE
8
BLACK
6
CONTINUOUS
10
6.24606
20
-5.78888
11
6.24606
21
-5.77018
0
LINE
8
BLACK
6
CONTINUOUS
10
6.24606
20
-5.77018
11
6.24677
21
-5.7666
0
LINE
8
BLACK
6
CONTINUOUS
10
6.24677
20
-5.7666
11
6.2488
21
-5.76357
0
LINE
8
BLACK
6
CONTINUOUS
10
6.2488
20
-5.76357
11
6.25184
21
-5.76154
0
LINE
8
BLACK
6
CONTINUOUS
10
6.25184
20
-5.76154
11
6.25541
21
-5.76083
0
LINE
8
BLACK
6
CONTINUOUS
10
6.25541
20
-5.76083
11
6.27805
21
-5.76083
0
LINE
8
BLACK
6
CONTINUOUS
10
6.27805
20
-5.76083
11
6.28163
21
-5.76154
0
LINE
8
BLACK
6
CONTINUOUS
10
6.14876
20
-5.76154
11
6.15179
21
-5.76357
0
LINE
8
BLACK
6
CONTINUOUS
10
6.15179
20
-5.76357
11
6.15382
21
-5.7666
0
LINE
8
BLACK
6
CONTINUOUS
10
6.15382
20
-5.7666
11
6.15453
21
-5.77018
0
LINE
8
BLACK
6
CONTINUOUS
10
6.15453
20
-5.77018
11
6.15453
21
-5.78888
0
LINE
8
BLACK
6
CONTINUOUS
10
6.15453
20
-5.78888
11
6.15382
21
-5.79246
0
LINE
8
BLACK
6
CONTINUOUS
10
6.15382
20
-5.79246
11
6.15179
21
-5.79549
0
LINE
8
BLACK
6
CONTINUOUS
10
6.15179
20
-5.79549
11
6.14876
21
-5.79752
0
LINE
8
BLACK
6
CONTINUOUS
10
6.14876
20
-5.79752
11
6.14518
21
-5.79823
0
LINE
8
BLACK
6
CONTINUOUS
10
6.14518
20
-5.79823
11
6.12254
21
-5.79823
0
LINE
8
BLACK
6
CONTINUOUS
10
6.12254
20
-5.79823
11
6.11896
21
-5.79752
0
LINE
8
BLACK
6
CONTINUOUS
10
6.11896
20
-5.79752
11
6.11593
21
-5.79549
0
LINE
8
BLACK
6
CONTINUOUS
10
6.11593
20
-5.79549
11
6.1139
21
-5.79246
0
LINE
8
BLACK
6
CONTINUOUS
10
6.1139
20
-5.79246
11
6.11319
21
-5.78888
0
LINE
8
BLACK
6
CONTINUOUS
10
6.11319
20
-5.78888
11
6.11319
21
-5.77018
0
LINE
8
BLACK
6
CONTINUOUS
10
6.11319
20
-5.77018
11
6.1139
21
-5.7666
0
LINE
8
BLACK
6
CONTINUOUS
10
6.1139
20
-5.7666
11
6.11593
21
-5.76357
0
LINE
8
BLACK
6
CONTINUOUS
10
6.11593
20
-5.76357
11
6.11896
21
-5.76154
0
LINE
8
BLACK
6
CONTINUOUS
10
6.11896
20
-5.76154
11
6.12254
21
-5.76083
0
LINE
8
BLACK
6
CONTINUOUS
10
6.12254
20
-5.76083
11
6.14518
21
-5.76083
0
LINE
8
BLACK
6
CONTINUOUS
10
6.14518
20
-5.76083
11
6.14876
21
-5.76154
0
LINE
8
BLACK
6
CONTINUOUS
10
7.0753
20
-5.68564
11
7.08218
21
-5.68718
0
LINE
8
BLACK
6
CONTINUOUS
10
7.08218
20
-5.68718
11
7.08858
21
-5.69016
0
LINE
8
BLACK
6
CONTINUOUS
10
7.08858
20
-5.69016
11
7.09419
21
-5.69445
0
LINE
8
BLACK
6
CONTINUOUS
10
7.09419
20
-5.69445
11
7.09874
21
-5.69984
0
LINE
8
BLACK
6
CONTINUOUS
10
7.09874
20
-5.69984
11
7.10204
21
-5.70608
0
LINE
8
BLACK
6
CONTINUOUS
10
7.10204
20
-5.70608
11
7.10391
21
-5.71289
0
LINE
8
BLACK
6
CONTINUOUS
10
7.10391
20
-5.71289
11
7.10428
21
-5.71993
0
LINE
8
BLACK
6
CONTINUOUS
10
7.10428
20
-5.71993
11
7.10313
21
-5.7269
0
LINE
8
BLACK
6
CONTINUOUS
10
7.10313
20
-5.7269
11
7.10051
21
-5.73345
0
LINE
8
BLACK
6
CONTINUOUS
10
7.10051
20
-5.73345
11
7.09654
21
-5.73929
0
LINE
8
BLACK
6
CONTINUOUS
10
7.09654
20
-5.73929
11
7.09141
21
-5.74414
0
LINE
8
BLACK
6
CONTINUOUS
10
7.09141
20
-5.74414
11
7.08536
21
-5.74777
0
LINE
8
BLACK
6
CONTINUOUS
10
7.08536
20
-5.74777
11
7.07867
21
-5.75003
0
LINE
8
BLACK
6
CONTINUOUS
10
7.07867
20
-5.75003
11
7.07165
21
-5.75079
0
LINE
8
BLACK
6
CONTINUOUS
10
7.07165
20
-5.75079
11
6.96772
21
-5.75079
0
LINE
8
BLACK
6
CONTINUOUS
10
6.96772
20
-5.75079
11
6.96407
21
-5.75058
0
LINE
8
BLACK
6
CONTINUOUS
10
6.96407
20
-5.75058
11
6.95719
21
-5.74904
0
LINE
8
BLACK
6
CONTINUOUS
10
6.95719
20
-5.74904
11
6.95079
21
-5.74606
0
LINE
8
BLACK
6
CONTINUOUS
10
6.95079
20
-5.74606
11
6.94518
21
-5.74177
0
LINE
8
BLACK
6
CONTINUOUS
10
6.94518
20
-5.74177
11
6.94063
21
-5.73638
0
LINE
8
BLACK
6
CONTINUOUS
10
6.94063
20
-5.73638
11
6.93733
21
-5.73014
0
LINE
8
BLACK
6
CONTINUOUS
10
6.93733
20
-5.73014
11
6.93546
21
-5.72333
0
LINE
8
BLACK
6
CONTINUOUS
10
6.93546
20
-5.72333
11
6.93509
21
-5.71629
0
LINE
8
BLACK
6
CONTINUOUS
10
6.93509
20
-5.71629
11
6.93624
21
-5.70932
0
LINE
8
BLACK
6
CONTINUOUS
10
6.93624
20
-5.70932
11
6.93886
21
-5.70277
0
LINE
8
BLACK
6
CONTINUOUS
10
6.93886
20
-5.70277
11
6.94283
21
-5.69693
0
LINE
8
BLACK
6
CONTINUOUS
10
6.94283
20
-5.69693
11
6.94796
21
-5.69208
0
LINE
8
BLACK
6
CONTINUOUS
10
6.94796
20
-5.69208
11
6.95401
21
-5.68845
0
LINE
8
BLACK
6
CONTINUOUS
10
6.95401
20
-5.68845
11
6.9607
21
-5.6862
0
LINE
8
BLACK
6
CONTINUOUS
10
6.9607
20
-5.6862
11
6.96772
21
-5.68543
0
LINE
8
BLACK
6
CONTINUOUS
10
6.96772
20
-5.68543
11
7.07165
21
-5.68543
0
LINE
8
BLACK
6
CONTINUOUS
10
7.07165
20
-5.68543
11
7.0753
21
-5.68564
0
LINE
8
BLACK
6
CONTINUOUS
10
6.05236
20
-5.69685
11
6.01693
21
-5.69685
0
LINE
8
BLACK
6
CONTINUOUS
10
6.01693
20
-5.69685
11
6.01693
21
-5.61811
0
LINE
8
BLACK
6
CONTINUOUS
10
6.01693
20
-5.61811
11
6.05236
21
-5.61811
0
LINE
8
BLACK
6
CONTINUOUS
10
6.05236
20
-5.61811
11
6.05236
21
-5.69685
0
LINE
8
BLACK
6
CONTINUOUS
10
6.10236
20
-5.69685
11
6.06693
21
-5.69685
0
LINE
8
BLACK
6
CONTINUOUS
10
6.06693
20
-5.69685
11
6.06693
21
-5.61811
0
LINE
8
BLACK
6
CONTINUOUS
10
6.06693
20
-5.61811
11
6.10236
21
-5.61811
0
LINE
8
BLACK
6
CONTINUOUS
10
6.10236
20
-5.61811
11
6.10236
21
-5.69685
0
LINE
8
BLACK
6
CONTINUOUS
10
6.15236
20
-5.69685
11
6.11693
21
-5.69685
0
LINE
8
BLACK
6
CONTINUOUS
10
6.11693
20
-5.69685
11
6.11693
21
-5.61811
0
LINE
8
BLACK
6
CONTINUOUS
10
6.11693
20
-5.61811
11
6.15236
21
-5.61811
0
LINE
8
BLACK
6
CONTINUOUS
10
6.15236
20
-5.61811
11
6.15236
21
-5.69685
0
LINE
8
BLACK
6
CONTINUOUS
10
6.25236
20
-5.69685
11
6.21693
21
-5.69685
0
LINE
8
BLACK
6
CONTINUOUS
10
6.21693
20
-5.69685
11
6.21693
21
-5.61811
0
LINE
8
BLACK
6
CONTINUOUS
10
6.21693
20
-5.61811
11
6.25236
21
-5.61811
0
LINE
8
BLACK
6
CONTINUOUS
10
6.25236
20
-5.61811
11
6.25236
21
-5.69685
0
LINE
8
BLACK
6
CONTINUOUS
10
6.30236
20
-5.69685
11
6.26693
21
-5.69685
0
LINE
8
BLACK
6
CONTINUOUS
10
6.26693
20
-5.69685
11
6.26693
21
-5.61811
0
LINE
8
BLACK
6
CONTINUOUS
10
6.26693
20
-5.61811
11
6.30236
21
-5.61811
0
LINE
8
BLACK
6
CONTINUOUS
10
6.30236
20
-5.61811
11
6.30236
21
-5.69685
0
LINE
8
BLACK
6
CONTINUOUS
10
6.35236
20
-5.69685
11
6.31693
21
-5.69685
0
LINE
8
BLACK
6
CONTINUOUS
10
6.31693
20
-5.69685
11
6.31693
21
-5.61811
0
LINE
8
BLACK
6
CONTINUOUS
10
6.31693
20
-5.61811
11
6.35236
21
-5.61811
0
LINE
8
BLACK
6
CONTINUOUS
10
6.35236
20
-5.61811
11
6.35236
21
-5.69685
0
LINE
8
BLACK
6
CONTINUOUS
10
6.40236
20
-5.69685
11
6.36693
21
-5.69685
0
LINE
8
BLACK
6
CONTINUOUS
10
6.36693
20
-5.69685
11
6.36693
21
-5.61811
0
LINE
8
BLACK
6
CONTINUOUS
10
6.36693
20
-5.61811
11
6.40236
21
-5.61811
0
LINE
8
BLACK
6
CONTINUOUS
10
6.40236
20
-5.61811
11
6.40236
21
-5.69685
0
LINE
8
BLACK
6
CONTINUOUS
10
6.45236
20
-5.69685
11
6.41693
21
-5.69685
0
LINE
8
BLACK
6
CONTINUOUS
10
6.41693
20
-5.69685
11
6.41693
21
-5.61811
0
LINE
8
BLACK
6
CONTINUOUS
10
6.41693
20
-5.61811
11
6.45236
21
-5.61811
0
LINE
8
BLACK
6
CONTINUOUS
10
6.45236
20
-5.61811
11
6.45236
21
-5.69685
0
LINE
8
BLACK
6
CONTINUOUS
10
6.50236
20
-5.69685
11
6.46693
21
-5.69685
0
LINE
8
BLACK
6
CONTINUOUS
10
6.46693
20
-5.69685
11
6.46693
21
-5.61811
0
LINE
8
BLACK
6
CONTINUOUS
10
6.46693
20
-5.61811
11
6.50236
21
-5.61811
0
LINE
8
BLACK
6
CONTINUOUS
10
6.50236
20
-5.61811
11
6.50236
21
-5.69685
0
LINE
8
BLACK
6
CONTINUOUS
10
6.55236
20
-5.69685
11
6.51693
21
-5.69685
0
LINE
8
BLACK
6
CONTINUOUS
10
6.51693
20
-5.69685
11
6.51693
21
-5.61811
0
LINE
8
BLACK
6
CONTINUOUS
10
6.51693
20
-5.61811
11
6.55236
21
-5.61811
0
LINE
8
BLACK
6
CONTINUOUS
10
6.55236
20
-5.61811
11
6.55236
21
-5.69685
0
LINE
8
BLACK
6
CONTINUOUS
10
6.60236
20
-5.69685
11
6.56693
21
-5.69685
0
LINE
8
BLACK
6
CONTINUOUS
10
6.56693
20
-5.69685
11
6.56693
21
-5.61811
0
LINE
8
BLACK
6
CONTINUOUS
10
6.56693
20
-5.61811
11
6.60236
21
-5.61811
0
LINE
8
BLACK
6
CONTINUOUS
10
6.60236
20
-5.61811
11
6.60236
21
-5.69685
0
LINE
8
BLACK
6
CONTINUOUS
10
6.65236
20
-5.69685
11
6.61693
21
-5.69685
0
LINE
8
BLACK
6
CONTINUOUS
10
6.61693
20
-5.69685
11
6.61693
21
-5.61811
0
LINE
8
BLACK
6
CONTINUOUS
10
6.61693
20
-5.61811
11
6.65236
21
-5.61811
0
LINE
8
BLACK
6
CONTINUOUS
10
6.65236
20
-5.61811
11
6.65236
21
-5.69685
0
LINE
8
BLACK
6
CONTINUOUS
10
6.70236
20
-5.69685
11
6.66693
21
-5.69685
0
LINE
8
BLACK
6
CONTINUOUS
10
6.66693
20
-5.69685
11
6.66693
21
-5.61811
0
LINE
8
BLACK
6
CONTINUOUS
10
6.66693
20
-5.61811
11
6.70236
21
-5.61811
0
LINE
8
BLACK
6
CONTINUOUS
10
6.70236
20
-5.61811
11
6.70236
21
-5.69685
0
LINE
8
BLACK
6
CONTINUOUS
10
6.20236
20
-5.69685
11
6.16693
21
-5.69685
0
LINE
8
BLACK
6
CONTINUOUS
10
6.16693
20
-5.69685
11
6.16693
21
-5.61811
0
LINE
8
BLACK
6
CONTINUOUS
10
6.16693
20
-5.61811
11
6.20236
21
-5.61811
0
LINE
8
BLACK
6
CONTINUOUS
10
6.20236
20
-5.61811
11
6.20236
21
-5.69685
0
LINE
8
BLACK
6
CONTINUOUS
10
7.10433
20
-5.65433
11
6.93898
21
-5.65433
0
LINE
8
BLACK
6
CONTINUOUS
10
6.93898
20
-5.65433
11
6.93898
21
-5.58543
0
LINE
8
BLACK
6
CONTINUOUS
10
6.93898
20
-5.58543
11
7.10433
21
-5.58543
0
LINE
8
BLACK
6
CONTINUOUS
10
7.10433
20
-5.58543
11
7.10433
21
-5.65433
0
LINE
8
BLACK
6
CONTINUOUS
10
6.78307
20
-5.60571
11
6.70433
21
-5.60571
0
LINE
8
BLACK
6
CONTINUOUS
10
6.70433
20
-5.60571
11
6.70433
21
-5.57028
0
LINE
8
BLACK
6
CONTINUOUS
10
6.70433
20
-5.57028
11
6.78307
21
-5.57028
0
LINE
8
BLACK
6
CONTINUOUS
10
6.78307
20
-5.57028
11
6.78307
21
-5.60571
0
LINE
8
BLACK
6
CONTINUOUS
10
6.78307
20
-5.55571
11
6.70433
21
-5.55571
0
LINE
8
BLACK
6
CONTINUOUS
10
6.70433
20
-5.55571
11
6.70433
21
-5.52028
0
LINE
8
BLACK
6
CONTINUOUS
10
6.70433
20
-5.52028
11
6.78307
21
-5.52028
0
LINE
8
BLACK
6
CONTINUOUS
10
6.78307
20
-5.52028
11
6.78307
21
-5.55571
0
LINE
8
BLACK
6
CONTINUOUS
10
6.94685
20
-5.51575
11
6.88386
21
-5.51575
0
LINE
8
BLACK
6
CONTINUOUS
10
6.88386
20
-5.51575
11
6.88386
21
-5.48228
0
LINE
8
BLACK
6
CONTINUOUS
10
6.88386
20
-5.48228
11
6.94685
21
-5.48228
0
LINE
8
BLACK
6
CONTINUOUS
10
6.94685
20
-5.48228
11
6.94685
21
-5.51575
0
LINE
8
BLACK
6
CONTINUOUS
10
7.08465
20
-5.51575
11
7.02165
21
-5.51575
0
LINE
8
BLACK
6
CONTINUOUS
10
7.02165
20
-5.51575
11
7.02165
21
-5.48228
0
LINE
8
BLACK
6
CONTINUOUS
10
7.02165
20
-5.48228
11
7.08465
21
-5.48228
0
LINE
8
BLACK
6
CONTINUOUS
10
7.08465
20
-5.48228
11
7.08465
21
-5.51575
0
LINE
8
BLACK
6
CONTINUOUS
10
6.78307
20
-5.50571
11
6.70433
21
-5.50571
0
LINE
8
BLACK
6
CONTINUOUS
10
6.70433
20
-5.50571
11
6.70433
21
-5.47028
0
LINE
8
BLACK
6
CONTINUOUS
10
6.70433
20
-5.47028
11
6.78307
21
-5.47028
0
LINE
8
BLACK
6
CONTINUOUS
10
6.78307
20
-5.47028
11
6.78307
21
-5.50571
0
LINE
8
BLACK
6
CONTINUOUS
10
6.42835
20
-5.46063
11
6.2315
21
-5.46063
0
LINE
8
BLACK
6
CONTINUOUS
10
6.2315
20
-5.46063
11
6.2315
21
-5.26378
0
LINE
8
BLACK
6
CONTINUOUS
10
6.2315
20
-5.26378
11
6.42835
21
-5.26378
0
LINE
8
BLACK
6
CONTINUOUS
10
6.42835
20
-5.26378
11
6.42835
21
-5.46063
0
LINE
8
BLACK
6
CONTINUOUS
10
6.78307
20
-5.45571
11
6.70433
21
-5.45571
0
LINE
8
BLACK
6
CONTINUOUS
10
6.70433
20
-5.45571
11
6.70433
21
-5.42028
0
LINE
8
BLACK
6
CONTINUOUS
10
6.70433
20
-5.42028
11
6.78307
21
-5.42028
0
LINE
8
BLACK
6
CONTINUOUS
10
6.78307
20
-5.42028
11
6.78307
21
-5.45571
0
LINE
8
BLACK
6
CONTINUOUS
10
7.08465
20
-5.44685
11
7.02165
21
-5.44685
0
LINE
8
BLACK
6
CONTINUOUS
10
7.02165
20
-5.44685
11
7.02165
21
-5.41339
0
LINE
8
BLACK
6
CONTINUOUS
10
7.02165
20
-5.41339
11
7.08465
21
-5.41339
0
LINE
8
BLACK
6
CONTINUOUS
10
7.08465
20
-5.41339
11
7.08465
21
-5.44685
0
LINE
8
BLACK
6
CONTINUOUS
10
6.94685
20
-5.44685
11
6.88386
21
-5.44685
0
LINE
8
BLACK
6
CONTINUOUS
10
6.88386
20
-5.44685
11
6.88386
21
-5.41339
0
LINE
8
BLACK
6
CONTINUOUS
10
6.88386
20
-5.41339
11
6.94685
21
-5.41339
0
LINE
8
BLACK
6
CONTINUOUS
10
6.94685
20
-5.41339
11
6.94685
21
-5.44685
0
LINE
8
BLACK
6
CONTINUOUS
10
6.78307
20
-5.40571
11
6.70433
21
-5.40571
0
LINE
8
BLACK
6
CONTINUOUS
10
6.70433
20
-5.40571
11
6.70433
21
-5.37028
0
LINE
8
BLACK
6
CONTINUOUS
10
6.70433
20
-5.37028
11
6.78307
21
-5.37028
0
LINE
8
BLACK
6
CONTINUOUS
10
6.78307
20
-5.37028
11
6.78307
21
-5.40571
0
LINE
8
BLACK
6
CONTINUOUS
10
7.01635
20
-5.29652
11
7.02274
21
-5.29937
0
LINE
8
BLACK
6
CONTINUOUS
10
7.02274
20
-5.29937
11
7.0284
21
-5.30348
0
LINE
8
BLACK
6
CONTINUOUS
10
7.0284
20
-5.30348
11
7.03308
21
-5.30868
0
LINE
8
BLACK
6
CONTINUOUS
10
7.03308
20
-5.30868
11
7.03658
21
-5.31474
0
LINE
8
BLACK
6
CONTINUOUS
10
7.03658
20
-5.31474
11
7.03874
21
-5.32139
0
LINE
8
BLACK
6
CONTINUOUS
10
7.03874
20
-5.32139
11
7.03947
21
-5.32835
0
LINE
8
BLACK
6
CONTINUOUS
10
7.03947
20
-5.32835
11
7.03874
21
-5.3353
0
LINE
8
BLACK
6
CONTINUOUS
10
7.03874
20
-5.3353
11
7.03658
21
-5.34196
0
LINE
8
BLACK
6
CONTINUOUS
10
7.03658
20
-5.34196
11
7.03308
21
-5.34802
0
LINE
8
BLACK
6
CONTINUOUS
10
7.03308
20
-5.34802
11
7.0284
21
-5.35322
0
LINE
8
BLACK
6
CONTINUOUS
10
7.0284
20
-5.35322
11
7.02274
21
-5.35733
0
LINE
8
BLACK
6
CONTINUOUS
10
7.02274
20
-5.35733
11
7.01635
21
-5.36017
0
LINE
8
BLACK
6
CONTINUOUS
10
7.01635
20
-5.36017
11
7.0095
21
-5.36163
0
LINE
8
BLACK
6
CONTINUOUS
10
7.0095
20
-5.36163
11
7.00251
21
-5.36163
0
LINE
8
BLACK
6
CONTINUOUS
10
7.00251
20
-5.36163
11
6.99566
21
-5.36017
0
LINE
8
BLACK
6
CONTINUOUS
10
6.99566
20
-5.36017
11
6.98927
21
-5.35733
0
LINE
8
BLACK
6
CONTINUOUS
10
6.98927
20
-5.35733
11
6.98361
21
-5.35322
0
LINE
8
BLACK
6
CONTINUOUS
10
6.98361
20
-5.35322
11
6.97893
21
-5.34802
0
LINE
8
BLACK
6
CONTINUOUS
10
6.97893
20
-5.34802
11
6.97543
21
-5.34196
0
LINE
8
BLACK
6
CONTINUOUS
10
6.97543
20
-5.34196
11
6.97327
21
-5.3353
0
LINE
8
BLACK
6
CONTINUOUS
10
6.97327
20
-5.3353
11
6.97254
21
-5.32835
0
LINE
8
BLACK
6
CONTINUOUS
10
6.97254
20
-5.32835
11
6.97327
21
-5.32139
0
LINE
8
BLACK
6
CONTINUOUS
10
6.97327
20
-5.32139
11
6.97543
21
-5.31474
0
LINE
8
BLACK
6
CONTINUOUS
10
6.97543
20
-5.31474
11
6.97893
21
-5.30868
0
LINE
8
BLACK
6
CONTINUOUS
10
6.97893
20
-5.30868
11
6.98361
21
-5.30348
0
LINE
8
BLACK
6
CONTINUOUS
10
6.98361
20
-5.30348
11
6.98927
21
-5.29937
0
LINE
8
BLACK
6
CONTINUOUS
10
6.98927
20
-5.29937
11
6.99566
21
-5.29652
0
LINE
8
BLACK
6
CONTINUOUS
10
6.99566
20
-5.29652
11
7.00251
21
-5.29507
0
LINE
8
BLACK
6
CONTINUOUS
10
7.00251
20
-5.29507
11
7.0095
21
-5.29507
0
LINE
8
BLACK
6
CONTINUOUS
10
7.0095
20
-5.29507
11
7.01635
21
-5.29652
0
LINE
8
BLACK
6
CONTINUOUS
10
6.91635
20
-5.29652
11
6.92274
21
-5.29937
0
LINE
8
BLACK
6
CONTINUOUS
10
6.92274
20
-5.29937
11
6.9284
21
-5.30348
0
LINE
8
BLACK
6
CONTINUOUS
10
6.9284
20
-5.30348
11
6.93308
21
-5.30868
0
LINE
8
BLACK
6
CONTINUOUS
10
6.93308
20
-5.30868
11
6.93658
21
-5.31474
0
LINE
8
BLACK
6
CONTINUOUS
10
6.93658
20
-5.31474
11
6.93874
21
-5.32139
0
LINE
8
BLACK
6
CONTINUOUS
10
6.93874
20
-5.32139
11
6.93947
21
-5.32835
0
LINE
8
BLACK
6
CONTINUOUS
10
6.93947
20
-5.32835
11
6.93874
21
-5.3353
0
LINE
8
BLACK
6
CONTINUOUS
10
6.93874
20
-5.3353
11
6.93658
21
-5.34196
0
LINE
8
BLACK
6
CONTINUOUS
10
6.93658
20
-5.34196
11
6.93308
21
-5.34802
0
LINE
8
BLACK
6
CONTINUOUS
10
6.93308
20
-5.34802
11
6.9284
21
-5.35322
0
LINE
8
BLACK
6
CONTINUOUS
10
6.9284
20
-5.35322
11
6.92274
21
-5.35733
0
LINE
8
BLACK
6
CONTINUOUS
10
6.92274
20
-5.35733
11
6.91635
21
-5.36017
0
LINE
8
BLACK
6
CONTINUOUS
10
6.91635
20
-5.36017
11
6.9095
21
-5.36163
0
LINE
8
BLACK
6
CONTINUOUS
10
6.9095
20
-5.36163
11
6.90251
21
-5.36163
0
LINE
8
BLACK
6
CONTINUOUS
10
6.90251
20
-5.36163
11
6.89566
21
-5.36017
0
LINE
8
BLACK
6
CONTINUOUS
10
6.89566
20
-5.36017
11
6.88927
21
-5.35733
0
LINE
8
BLACK
6
CONTINUOUS
10
6.88927
20
-5.35733
11
6.88361
21
-5.35322
0
LINE
8
BLACK
6
CONTINUOUS
10
6.88361
20
-5.35322
11
6.87893
21
-5.34802
0
LINE
8
BLACK
6
CONTINUOUS
10
6.87893
20
-5.34802
11
6.87543
21
-5.34196
0
LINE
8
BLACK
6
CONTINUOUS
10
6.87543
20
-5.34196
11
6.87327
21
-5.3353
0
LINE
8
BLACK
6
CONTINUOUS
10
6.87327
20
-5.3353
11
6.87254
21
-5.32835
0
LINE
8
BLACK
6
CONTINUOUS
10
6.87254
20
-5.32835
11
6.87327
21
-5.32139
0
LINE
8
BLACK
6
CONTINUOUS
10
6.87327
20
-5.32139
11
6.87543
21
-5.31474
0
LINE
8
BLACK
6
CONTINUOUS
10
6.87543
20
-5.31474
11
6.87893
21
-5.30868
0
LINE
8
BLACK
6
CONTINUOUS
10
6.87893
20
-5.30868
11
6.88361
21
-5.30348
0
LINE
8
BLACK
6
CONTINUOUS
10
6.88361
20
-5.30348
11
6.88927
21
-5.29937
0
LINE
8
BLACK
6
CONTINUOUS
10
6.88927
20
-5.29937
11
6.89566
21
-5.29652
0
LINE
8
BLACK
6
CONTINUOUS
10
6.89566
20
-5.29652
11
6.90251
21
-5.29507
0
LINE
8
BLACK
6
CONTINUOUS
10
6.90251
20
-5.29507
11
6.9095
21
-5.29507
0
LINE
8
BLACK
6
CONTINUOUS
10
6.9095
20
-5.29507
11
6.91635
21
-5.29652
0
LINE
8
BLACK
6
CONTINUOUS
10
6.78307
20
-5.35571
11
6.70433
21
-5.35571
0
LINE
8
BLACK
6
CONTINUOUS
10
6.70433
20
-5.35571
11
6.70433
21
-5.32028
0
LINE
8
BLACK
6
CONTINUOUS
10
6.70433
20
-5.32028
11
6.78307
21
-5.32028
0
LINE
8
BLACK
6
CONTINUOUS
10
6.78307
20
-5.32028
11
6.78307
21
-5.35571
0
LINE
8
BLACK
6
CONTINUOUS
10
6.78307
20
-5.30571
11
6.70433
21
-5.30571
0
LINE
8
BLACK
6
CONTINUOUS
10
6.70433
20
-5.30571
11
6.70433
21
-5.27028
0
LINE
8
BLACK
6
CONTINUOUS
10
6.70433
20
-5.27028
11
6.78307
21
-5.27028
0
LINE
8
BLACK
6
CONTINUOUS
10
6.78307
20
-5.27028
11
6.78307
21
-5.30571
0
LINE
8
BLACK
6
CONTINUOUS
10
7.01635
20
-5.19652
11
7.02274
21
-5.19937
0
LINE
8
BLACK
6
CONTINUOUS
10
7.02274
20
-5.19937
11
7.0284
21
-5.20348
0
LINE
8
BLACK
6
CONTINUOUS
10
7.0284
20
-5.20348
11
7.03308
21
-5.20868
0
LINE
8
BLACK
6
CONTINUOUS
10
7.03308
20
-5.20868
11
7.03658
21
-5.21474
0
LINE
8
BLACK
6
CONTINUOUS
10
7.03658
20
-5.21474
11
7.03874
21
-5.22139
0
LINE
8
BLACK
6
CONTINUOUS
10
7.03874
20
-5.22139
11
7.03947
21
-5.22835
0
LINE
8
BLACK
6
CONTINUOUS
10
7.03947
20
-5.22835
11
7.03874
21
-5.2353
0
LINE
8
BLACK
6
CONTINUOUS
10
7.03874
20
-5.2353
11
7.03658
21
-5.24196
0
LINE
8
BLACK
6
CONTINUOUS
10
7.03658
20
-5.24196
11
7.03308
21
-5.24802
0
LINE
8
BLACK
6
CONTINUOUS
10
7.03308
20
-5.24802
11
7.0284
21
-5.25322
0
LINE
8
BLACK
6
CONTINUOUS
10
7.0284
20
-5.25322
11
7.02274
21
-5.25733
0
LINE
8
BLACK
6
CONTINUOUS
10
7.02274
20
-5.25733
11
7.01635
21
-5.26017
0
LINE
8
BLACK
6
CONTINUOUS
10
7.01635
20
-5.26017
11
7.0095
21
-5.26163
0
LINE
8
BLACK
6
CONTINUOUS
10
7.0095
20
-5.26163
11
7.00251
21
-5.26163
0
LINE
8
BLACK
6
CONTINUOUS
10
7.00251
20
-5.26163
11
6.99566
21
-5.26017
0
LINE
8
BLACK
6
CONTINUOUS
10
6.99566
20
-5.26017
11
6.98927
21
-5.25733
0
LINE
8
BLACK
6
CONTINUOUS
10
6.98927
20
-5.25733
11
6.98361
21
-5.25322
0
LINE
8
BLACK
6
CONTINUOUS
10
6.98361
20
-5.25322
11
6.97893
21
-5.24802
0
LINE
8
BLACK
6
CONTINUOUS
10
6.97893
20
-5.24802
11
6.97543
21
-5.24196
0
LINE
8
BLACK
6
CONTINUOUS
10
6.97543
20
-5.24196
11
6.97327
21
-5.2353
0
LINE
8
BLACK
6
CONTINUOUS
10
6.97327
20
-5.2353
11
6.97254
21
-5.22835
0
LINE
8
BLACK
6
CONTINUOUS
10
6.97254
20
-5.22835
11
6.97327
21
-5.22139
0
LINE
8
BLACK
6
CONTINUOUS
10
6.97327
20
-5.22139
11
6.97543
21
-5.21474
0
LINE
8
BLACK
6
CONTINUOUS
10
6.97543
20
-5.21474
11
6.97893
21
-5.20868
0
LINE
8
BLACK
6
CONTINUOUS
10
6.97893
20
-5.20868
11
6.98361
21
-5.20348
0
LINE
8
BLACK
6
CONTINUOUS
10
6.98361
20
-5.20348
11
6.98927
21
-5.19937
0
LINE
8
BLACK
6
CONTINUOUS
10
6.98927
20
-5.19937
11
6.99566
21
-5.19652
0
LINE
8
BLACK
6
CONTINUOUS
10
6.99566
20
-5.19652
11
7.00251
21
-5.19507
0
LINE
8
BLACK
6
CONTINUOUS
10
7.00251
20
-5.19507
11
7.0095
21
-5.19507
0
LINE
8
BLACK
6
CONTINUOUS
10
7.0095
20
-5.19507
11
7.01635
21
-5.19652
0
LINE
8
BLACK
6
CONTINUOUS
10
6.91635
20
-5.19652
11
6.92274
21
-5.19937
0
LINE
8
BLACK
6
CONTINUOUS
10
6.92274
20
-5.19937
11
6.9284
21
-5.20348
0
LINE
8
BLACK
6
CONTINUOUS
10
6.9284
20
-5.20348
11
6.93308
21
-5.20868
0
LINE
8
BLACK
6
CONTINUOUS
10
6.93308
20
-5.20868
11
6.93658
21
-5.21474
0
LINE
8
BLACK
6
CONTINUOUS
10
6.93658
20
-5.21474
11
6.93874
21
-5.22139
0
LINE
8
BLACK
6
CONTINUOUS
10
6.93874
20
-5.22139
11
6.93947
21
-5.22835
0
LINE
8
BLACK
6
CONTINUOUS
10
6.93947
20
-5.22835
11
6.93874
21
-5.2353
0
LINE
8
BLACK
6
CONTINUOUS
10
6.93874
20
-5.2353
11
6.93658
21
-5.24196
0
LINE
8
BLACK
6
CONTINUOUS
10
6.93658
20
-5.24196
11
6.93308
21
-5.24802
0
LINE
8
BLACK
6
CONTINUOUS
10
6.93308
20
-5.24802
11
6.9284
21
-5.25322
0
LINE
8
BLACK
6
CONTINUOUS
10
6.9284
20
-5.25322
11
6.92274
21
-5.25733
0
LINE
8
BLACK
6
CONTINUOUS
10
6.92274
20
-5.25733
11
6.91635
21
-5.26017
0
LINE
8
BLACK
6
CONTINUOUS
10
6.91635
20
-5.26017
11
6.9095
21
-5.26163
0
LINE
8
BLACK
6
CONTINUOUS
10
6.9095
20
-5.26163
11
6.90251
21
-5.26163
0
LINE
8
BLACK
6
CONTINUOUS
10
6.90251
20
-5.26163
11
6.89566
21
-5.26017
0
LINE
8
BLACK
6
CONTINUOUS
10
6.89566
20
-5.26017
11
6.88927
21
-5.25733
0
LINE
8
BLACK
6
CONTINUOUS
10
6.88927
20
-5.25733
11
6.88361
21
-5.25322
0
LINE
8
BLACK
6
CONTINUOUS
10
6.88361
20
-5.25322
11
6.87893
21
-5.24802
0
LINE
8
BLACK
6
CONTINUOUS
10
6.87893
20
-5.24802
11
6.87543
21
-5.24196
0
LINE
8
BLACK
6
CONTINUOUS
10
6.87543
20
-5.24196
11
6.87327
21
-5.2353
0
LINE
8
BLACK
6
CONTINUOUS
10
6.87327
20
-5.2353
11
6.87254
21
-5.22835
0
LINE
8
BLACK
6
CONTINUOUS
10
6.87254
20
-5.22835
11
6.87327
21
-5.22139
0
LINE
8
BLACK
6
CONTINUOUS
10
6.87327
20
-5.22139
11
6.87543
21
-5.21474
0
LINE
8
BLACK
6
CONTINUOUS
10
6.87543
20
-5.21474
11
6.87893
21
-5.20868
0
LINE
8
BLACK
6
CONTINUOUS
10
6.87893
20
-5.20868
11
6.88361
21
-5.20348
0
LINE
8
BLACK
6
CONTINUOUS
10
6.88361
20
-5.20348
11
6.88927
21
-5.19937
0
LINE
8
BLACK
6
CONTINUOUS
10
6.88927
20
-5.19937
11
6.89566
21
-5.19652
0
LINE
8
BLACK
6
CONTINUOUS
10
6.89566
20
-5.19652
11
6.90251
21
-5.19507
0
LINE
8
BLACK
6
CONTINUOUS
10
6.90251
20
-5.19507
11
6.9095
21
-5.19507
0
LINE
8
BLACK
6
CONTINUOUS
10
6.9095
20
-5.19507
11
6.91635
21
-5.19652
0
LINE
8
BLACK
6
CONTINUOUS
10
6.78307
20
-5.25571
11
6.70433
21
-5.25571
0
LINE
8
BLACK
6
CONTINUOUS
10
6.70433
20
-5.25571
11
6.70433
21
-5.22028
0
LINE
8
BLACK
6
CONTINUOUS
10
6.70433
20
-5.22028
11
6.78307
21
-5.22028
0
LINE
8
BLACK
6
CONTINUOUS
10
6.78307
20
-5.22028
11
6.78307
21
-5.25571
0
LINE
8
BLACK
6
CONTINUOUS
10
6.78307
20
-5.20571
11
6.70433
21
-5.20571
0
LINE
8
BLACK
6
CONTINUOUS
10
6.70433
20
-5.20571
11
6.70433
21
-5.17028
0
LINE
8
BLACK
6
CONTINUOUS
10
6.70433
20
-5.17028
11
6.78307
21
-5.17028
0
LINE
8
BLACK
6
CONTINUOUS
10
6.78307
20
-5.17028
11
6.78307
21
-5.20571
0
LINE
8
BLACK
6
CONTINUOUS
10
7.03339
20
-5.09563
11
7.03659
21
-5.09776
0
LINE
8
BLACK
6
CONTINUOUS
10
7.03659
20
-5.09776
11
7.03872
21
-5.10096
0
LINE
8
BLACK
6
CONTINUOUS
10
7.03872
20
-5.10096
11
7.03947
21
-5.10472
0
LINE
8
BLACK
6
CONTINUOUS
10
7.03947
20
-5.10472
11
7.03947
21
-5.15197
0
LINE
8
BLACK
6
CONTINUOUS
10
7.03947
20
-5.15197
11
7.03872
21
-5.15574
0
LINE
8
BLACK
6
CONTINUOUS
10
7.03872
20
-5.15574
11
7.03659
21
-5.15893
0
LINE
8
BLACK
6
CONTINUOUS
10
7.03659
20
-5.15893
11
7.03339
21
-5.16106
0
LINE
8
BLACK
6
CONTINUOUS
10
7.03339
20
-5.16106
11
7.02963
21
-5.16181
0
LINE
8
BLACK
6
CONTINUOUS
10
7.02963
20
-5.16181
11
6.98238
21
-5.16181
0
LINE
8
BLACK
6
CONTINUOUS
10
6.98238
20
-5.16181
11
6.97862
21
-5.16106
0
LINE
8
BLACK
6
CONTINUOUS
10
6.97862
20
-5.16106
11
6.97542
21
-5.15893
0
LINE
8
BLACK
6
CONTINUOUS
10
6.97542
20
-5.15893
11
6.97329
21
-5.15574
0
LINE
8
BLACK
6
CONTINUOUS
10
6.97329
20
-5.15574
11
6.97254
21
-5.15197
0
LINE
8
BLACK
6
CONTINUOUS
10
6.97254
20
-5.15197
11
6.97254
21
-5.10472
0
LINE
8
BLACK
6
CONTINUOUS
10
6.97254
20
-5.10472
11
6.97329
21
-5.10096
0
LINE
8
BLACK
6
CONTINUOUS
10
6.97329
20
-5.10096
11
6.97542
21
-5.09776
0
LINE
8
BLACK
6
CONTINUOUS
10
6.97542
20
-5.09776
11
6.97862
21
-5.09563
0
LINE
8
BLACK
6
CONTINUOUS
10
6.97862
20
-5.09563
11
6.98238
21
-5.09488
0
LINE
8
BLACK
6
CONTINUOUS
10
6.98238
20
-5.09488
11
7.02963
21
-5.09488
0
LINE
8
BLACK
6
CONTINUOUS
10
7.02963
20
-5.09488
11
7.03339
21
-5.09563
0
LINE
8
BLACK
6
CONTINUOUS
10
6.91635
20
-5.09652
11
6.92274
21
-5.09937
0
LINE
8
BLACK
6
CONTINUOUS
10
6.92274
20
-5.09937
11
6.9284
21
-5.10348
0
LINE
8
BLACK
6
CONTINUOUS
10
6.9284
20
-5.10348
11
6.93308
21
-5.10868
0
LINE
8
BLACK
6
CONTINUOUS
10
6.93308
20
-5.10868
11
6.93658
21
-5.11474
0
LINE
8
BLACK
6
CONTINUOUS
10
6.93658
20
-5.11474
11
6.93874
21
-5.12139
0
LINE
8
BLACK
6
CONTINUOUS
10
6.93874
20
-5.12139
11
6.93947
21
-5.12835
0
LINE
8
BLACK
6
CONTINUOUS
10
6.93947
20
-5.12835
11
6.93874
21
-5.1353
0
LINE
8
BLACK
6
CONTINUOUS
10
6.93874
20
-5.1353
11
6.93658
21
-5.14196
0
LINE
8
BLACK
6
CONTINUOUS
10
6.93658
20
-5.14196
11
6.93308
21
-5.14802
0
LINE
8
BLACK
6
CONTINUOUS
10
6.93308
20
-5.14802
11
6.9284
21
-5.15322
0
LINE
8
BLACK
6
CONTINUOUS
10
6.9284
20
-5.15322
11
6.92274
21
-5.15733
0
LINE
8
BLACK
6
CONTINUOUS
10
6.92274
20
-5.15733
11
6.91635
21
-5.16017
0
LINE
8
BLACK
6
CONTINUOUS
10
6.91635
20
-5.16017
11
6.9095
21
-5.16163
0
LINE
8
BLACK
6
CONTINUOUS
10
6.9095
20
-5.16163
11
6.90251
21
-5.16163
0
LINE
8
BLACK
6
CONTINUOUS
10
6.90251
20
-5.16163
11
6.89566
21
-5.16017
0
LINE
8
BLACK
6
CONTINUOUS
10
6.89566
20
-5.16017
11
6.88927
21
-5.15733
0
LINE
8
BLACK
6
CONTINUOUS
10
6.88927
20
-5.15733
11
6.88361
21
-5.15322
0
LINE
8
BLACK
6
CONTINUOUS
10
6.88361
20
-5.15322
11
6.87893
21
-5.14802
0
LINE
8
BLACK
6
CONTINUOUS
10
6.87893
20
-5.14802
11
6.87543
21
-5.14196
0
LINE
8
BLACK
6
CONTINUOUS
10
6.87543
20
-5.14196
11
6.87327
21
-5.1353
0
LINE
8
BLACK
6
CONTINUOUS
10
6.87327
20
-5.1353
11
6.87254
21
-5.12835
0
LINE
8
BLACK
6
CONTINUOUS
10
6.87254
20
-5.12835
11
6.87327
21
-5.12139
0
LINE
8
BLACK
6
CONTINUOUS
10
6.87327
20
-5.12139
11
6.87543
21
-5.11474
0
LINE
8
BLACK
6
CONTINUOUS
10
6.87543
20
-5.11474
11
6.87893
21
-5.10868
0
LINE
8
BLACK
6
CONTINUOUS
10
6.87893
20
-5.10868
11
6.88361
21
-5.10348
0
LINE
8
BLACK
6
CONTINUOUS
10
6.88361
20
-5.10348
11
6.88927
21
-5.09937
0
LINE
8
BLACK
6
CONTINUOUS
10
6.88927
20
-5.09937
11
6.89566
21
-5.09652
0
LINE
8
BLACK
6
CONTINUOUS
10
6.89566
20
-5.09652
11
6.90251
21
-5.09507
0
LINE
8
BLACK
6
CONTINUOUS
10
6.90251
20
-5.09507
11
6.9095
21
-5.09507
0
LINE
8
BLACK
6
CONTINUOUS
10
6.9095
20
-5.09507
11
6.91635
21
-5.09652
0
LINE
8
BLACK
6
CONTINUOUS
10
6.78307
20
-5.15571
11
6.70433
21
-5.15571
0
LINE
8
BLACK
6
CONTINUOUS
10
6.70433
20
-5.15571
11
6.70433
21
-5.12028
0
LINE
8
BLACK
6
CONTINUOUS
10
6.70433
20
-5.12028
11
6.78307
21
-5.12028
0
LINE
8
BLACK
6
CONTINUOUS
10
6.78307
20
-5.12028
11
6.78307
21
-5.15571
0
LINE
8
BLACK
6
CONTINUOUS
10
6.78287
20
-5.10433
11
6.70413
21
-5.10433
0
LINE
8
BLACK
6
CONTINUOUS
10
6.70413
20
-5.10433
11
6.70413
21
-5.0689
0
LINE
8
BLACK
6
CONTINUOUS
10
6.70413
20
-5.0689
11
6.78287
21
-5.0689
0
LINE
8
BLACK
6
CONTINUOUS
10
6.78287
20
-5.0689
11
6.78287
21
-5.10433
0
LINE
8
BLACK
6
CONTINUOUS
10
6.78287
20
-5.05512
11
6.70413
21
-5.05512
0
LINE
8
BLACK
6
CONTINUOUS
10
6.70413
20
-5.05512
11
6.70413
21
-5.01969
0
LINE
8
BLACK
6
CONTINUOUS
10
6.70413
20
-5.01969
11
6.78287
21
-5.01969
0
LINE
8
BLACK
6
CONTINUOUS
10
6.78287
20
-5.01969
11
6.78287
21
-5.05512
0
LINE
8
BLACK
6
CONTINUOUS
10
6.10177
20
-5.00787
11
6.06634
21
-5.00787
0
LINE
8
BLACK
6
CONTINUOUS
10
6.06634
20
-5.00787
11
6.06634
21
-4.92913
0
LINE
8
BLACK
6
CONTINUOUS
10
6.06634
20
-4.92913
11
6.10177
21
-4.92913
0
LINE
8
BLACK
6
CONTINUOUS
10
6.10177
20
-4.92913
11
6.10177
21
-5.00787
0
LINE
8
BLACK
6
CONTINUOUS
10
6.70236
20
-5.00787
11
6.66693
21
-5.00787
0
LINE
8
BLACK
6
CONTINUOUS
10
6.66693
20
-5.00787
11
6.66693
21
-4.92913
0
LINE
8
BLACK
6
CONTINUOUS
10
6.66693
20
-4.92913
11
6.70236
21
-4.92913
0
LINE
8
BLACK
6
CONTINUOUS
10
6.70236
20
-4.92913
11
6.70236
21
-5.00787
0
LINE
8
BLACK
6
CONTINUOUS
10
6.65236
20
-5.00787
11
6.61693
21
-5.00787
0
LINE
8
BLACK
6
CONTINUOUS
10
6.61693
20
-5.00787
11
6.61693
21
-4.92913
0
LINE
8
BLACK
6
CONTINUOUS
10
6.61693
20
-4.92913
11
6.65236
21
-4.92913
0
LINE
8
BLACK
6
CONTINUOUS
10
6.65236
20
-4.92913
11
6.65236
21
-5.00787
0
LINE
8
BLACK
6
CONTINUOUS
10
6.05256
20
-5.00787
11
6.01713
21
-5.00787
0
LINE
8
BLACK
6
CONTINUOUS
10
6.01713
20
-5.00787
11
6.01713
21
-4.92913
0
LINE
8
BLACK
6
CONTINUOUS
10
6.01713
20
-4.92913
11
6.05256
21
-4.92913
0
LINE
8
BLACK
6
CONTINUOUS
10
6.05256
20
-4.92913
11
6.05256
21
-5.00787
0
LINE
8
BLACK
6
CONTINUOUS
10
6.20236
20
-5.00787
11
6.16693
21
-5.00787
0
LINE
8
BLACK
6
CONTINUOUS
10
6.16693
20
-5.00787
11
6.16693
21
-4.92913
0
LINE
8
BLACK
6
CONTINUOUS
10
6.16693
20
-4.92913
11
6.20236
21
-4.92913
0
LINE
8
BLACK
6
CONTINUOUS
10
6.20236
20
-4.92913
11
6.20236
21
-5.00787
0
LINE
8
BLACK
6
CONTINUOUS
10
6.25236
20
-5.00787
11
6.21693
21
-5.00787
0
LINE
8
BLACK
6
CONTINUOUS
10
6.21693
20
-5.00787
11
6.21693
21
-4.92913
0
LINE
8
BLACK
6
CONTINUOUS
10
6.21693
20
-4.92913
11
6.25236
21
-4.92913
0
LINE
8
BLACK
6
CONTINUOUS
10
6.25236
20
-4.92913
11
6.25236
21
-5.00787
0
LINE
8
BLACK
6
CONTINUOUS
10
6.30236
20
-5.00787
11
6.26693
21
-5.00787
0
LINE
8
BLACK
6
CONTINUOUS
10
6.26693
20
-5.00787
11
6.26693
21
-4.92913
0
LINE
8
BLACK
6
CONTINUOUS
10
6.26693
20
-4.92913
11
6.30236
21
-4.92913
0
LINE
8
BLACK
6
CONTINUOUS
10
6.30236
20
-4.92913
11
6.30236
21
-5.00787
0
LINE
8
BLACK
6
CONTINUOUS
10
6.15236
20
-5.00787
11
6.11693
21
-5.00787
0
LINE
8
BLACK
6
CONTINUOUS
10
6.11693
20
-5.00787
11
6.11693
21
-4.92913
0
LINE
8
BLACK
6
CONTINUOUS
10
6.11693
20
-4.92913
11
6.15236
21
-4.92913
0
LINE
8
BLACK
6
CONTINUOUS
10
6.15236
20
-4.92913
11
6.15236
21
-5.00787
0
LINE
8
BLACK
6
CONTINUOUS
10
6.35236
20
-5.00787
11
6.31693
21
-5.00787
0
LINE
8
BLACK
6
CONTINUOUS
10
6.31693
20
-5.00787
11
6.31693
21
-4.92913
0
LINE
8
BLACK
6
CONTINUOUS
10
6.31693
20
-4.92913
11
6.35236
21
-4.92913
0
LINE
8
BLACK
6
CONTINUOUS
10
6.35236
20
-4.92913
11
6.35236
21
-5.00787
0
LINE
8
BLACK
6
CONTINUOUS
10
6.40236
20
-5.00787
11
6.36693
21
-5.00787
0
LINE
8
BLACK
6
CONTINUOUS
10
6.36693
20
-5.00787
11
6.36693
21
-4.92913
0
LINE
8
BLACK
6
CONTINUOUS
10
6.36693
20
-4.92913
11
6.40236
21
-4.92913
0
LINE
8
BLACK
6
CONTINUOUS
10
6.40236
20
-4.92913
11
6.40236
21
-5.00787
0
LINE
8
BLACK
6
CONTINUOUS
10
6.60236
20
-5.00787
11
6.56693
21
-5.00787
0
LINE
8
BLACK
6
CONTINUOUS
10
6.56693
20
-5.00787
11
6.56693
21
-4.92913
0
LINE
8
BLACK
6
CONTINUOUS
10
6.56693
20
-4.92913
11
6.60236
21
-4.92913
0
LINE
8
BLACK
6
CONTINUOUS
10
6.60236
20
-4.92913
11
6.60236
21
-5.00787
0
LINE
8
BLACK
6
CONTINUOUS
10
6.55236
20
-5.00787
11
6.51693
21
-5.00787
0
LINE
8
BLACK
6
CONTINUOUS
10
6.51693
20
-5.00787
11
6.51693
21
-4.92913
0
LINE
8
BLACK
6
CONTINUOUS
10
6.51693
20
-4.92913
11
6.55236
21
-4.92913
0
LINE
8
BLACK
6
CONTINUOUS
10
6.55236
20
-4.92913
11
6.55236
21
-5.00787
0
LINE
8
BLACK
6
CONTINUOUS
10
6.50236
20
-5.00787
11
6.46693
21
-5.00787
0
LINE
8
BLACK
6
CONTINUOUS
10
6.46693
20
-5.00787
11
6.46693
21
-4.92913
0
LINE
8
BLACK
6
CONTINUOUS
10
6.46693
20
-4.92913
11
6.50236
21
-4.92913
0
LINE
8
BLACK
6
CONTINUOUS
10
6.50236
20
-4.92913
11
6.50236
21
-5.00787
0
LINE
8
BLACK
6
CONTINUOUS
10
6.45236
20
-5.00787
11
6.41693
21
-5.00787
0
LINE
8
BLACK
6
CONTINUOUS
10
6.41693
20
-5.00787
11
6.41693
21
-4.92913
0
LINE
8
BLACK
6
CONTINUOUS
10
6.41693
20
-4.92913
11
6.45236
21
-4.92913
0
LINE
8
BLACK
6
CONTINUOUS
10
6.45236
20
-4.92913
11
6.45236
21
-5.00787
0
LINE
8
BLACK
6
CONTINUOUS
10
6.1593
20
-4.55926
11
6.17416
21
-4.56079
0
LINE
8
BLACK
6
CONTINUOUS
10
6.17416
20
-4.56079
11
6.18879
21
-4.56382
0
LINE
8
BLACK
6
CONTINUOUS
10
6.18879
20
-4.56382
11
6.20304
21
-4.56831
0
LINE
8
BLACK
6
CONTINUOUS
10
6.20304
20
-4.56831
11
6.21676
21
-4.57422
0
LINE
8
BLACK
6
CONTINUOUS
10
6.21676
20
-4.57422
11
6.22981
21
-4.58149
0
LINE
8
BLACK
6
CONTINUOUS
10
6.22981
20
-4.58149
11
6.24206
21
-4.59004
0
LINE
8
BLACK
6
CONTINUOUS
10
6.24206
20
-4.59004
11
6.25339
21
-4.59978
0
LINE
8
BLACK
6
CONTINUOUS
10
6.25339
20
-4.59978
11
6.26367
21
-4.61061
0
LINE
8
BLACK
6
CONTINUOUS
10
6.26367
20
-4.61061
11
6.27281
21
-4.62243
0
LINE
8
BLACK
6
CONTINUOUS
10
6.27281
20
-4.62243
11
6.2807
21
-4.63512
0
LINE
8
BLACK
6
CONTINUOUS
10
6.2807
20
-4.63512
11
6.28727
21
-4.64853
0
LINE
8
BLACK
6
CONTINUOUS
10
6.28727
20
-4.64853
11
6.29246
21
-4.66254
0
LINE
8
BLACK
6
CONTINUOUS
10
6.29246
20
-4.66254
11
6.2962
21
-4.67701
0
LINE
8
BLACK
6
CONTINUOUS
10
6.2962
20
-4.67701
11
6.29846
21
-4.69177
0
LINE
8
BLACK
6
CONTINUOUS
10
6.29846
20
-4.69177
11
6.29921
21
-4.70669
0
LINE
8
BLACK
6
CONTINUOUS
10
6.29921
20
-4.70669
11
6.29921
21
-4.70772
0
LINE
8
BLACK
6
CONTINUOUS
10
6.29921
20
-4.70772
11
6.29835
21
-4.72264
0
LINE
8
BLACK
6
CONTINUOUS
10
6.29835
20
-4.72264
11
6.29599
21
-4.73739
0
LINE
8
BLACK
6
CONTINUOUS
10
6.29599
20
-4.73739
11
6.29215
21
-4.75183
0
LINE
8
BLACK
6
CONTINUOUS
10
6.29215
20
-4.75183
11
6.28686
21
-4.7658
0
LINE
8
BLACK
6
CONTINUOUS
10
6.28686
20
-4.7658
11
6.2802
21
-4.77917
0
LINE
8
BLACK
6
CONTINUOUS
10
6.2802
20
-4.77917
11
6.27222
21
-4.7918
0
LINE
8
BLACK
6
CONTINUOUS
10
6.27222
20
-4.7918
11
6.263
21
-4.80355
0
LINE
8
BLACK
6
CONTINUOUS
10
6.263
20
-4.80355
11
6.25264
21
-4.81432
0
LINE
8
BLACK
6
CONTINUOUS
10
6.25264
20
-4.81432
11
6.24125
21
-4.82398
0
LINE
8
BLACK
6
CONTINUOUS
10
6.24125
20
-4.82398
11
6.22893
21
-4.83244
0
LINE
8
BLACK
6
CONTINUOUS
10
6.22893
20
-4.83244
11
6.21583
21
-4.83961
0
LINE
8
BLACK
6
CONTINUOUS
10
6.21583
20
-4.83961
11
6.20207
21
-4.84543
0
LINE
8
BLACK
6
CONTINUOUS
10
6.20207
20
-4.84543
11
6.18779
21
-4.84982
0
LINE
8
BLACK
6
CONTINUOUS
10
6.18779
20
-4.84982
11
6.17314
21
-4.85275
0
LINE
8
BLACK
6
CONTINUOUS
10
6.17314
20
-4.85275
11
6.15827
21
-4.85418
0
LINE
8
BLACK
6
CONTINUOUS
10
6.15827
20
-4.85418
11
6.14333
21
-4.8541
0
LINE
8
BLACK
6
CONTINUOUS
10
6.14333
20
-4.8541
11
6.12848
21
-4.85251
0
LINE
8
BLACK
6
CONTINUOUS
10
6.12848
20
-4.85251
11
6.11386
21
-4.84943
0
LINE
8
BLACK
6
CONTINUOUS
10
6.11386
20
-4.84943
11
6.09963
21
-4.84489
0
LINE
8
BLACK
6
CONTINUOUS
10
6.09963
20
-4.84489
11
6.08593
21
-4.83893
0
LINE
8
BLACK
6
CONTINUOUS
10
6.08593
20
-4.83893
11
6.0729
21
-4.83162
0
LINE
8
BLACK
6
CONTINUOUS
10
6.0729
20
-4.83162
11
6.06068
21
-4.82303
0
LINE
8
BLACK
6
CONTINUOUS
10
6.06068
20
-4.82303
11
6.04939
21
-4.81325
0
LINE
8
BLACK
6
CONTINUOUS
10
6.04939
20
-4.81325
11
6.03914
21
-4.80238
0
LINE
8
BLACK
6
CONTINUOUS
10
6.03914
20
-4.80238
11
6.03005
21
-4.79053
0
LINE
8
BLACK
6
CONTINUOUS
10
6.03005
20
-4.79053
11
6.0222
21
-4.77782
0
LINE
8
BLACK
6
CONTINUOUS
10
6.0222
20
-4.77782
11
6.01567
21
-4.76438
0
LINE
8
BLACK
6
CONTINUOUS
10
6.01567
20
-4.76438
11
6.01054
21
-4.75035
0
LINE
8
BLACK
6
CONTINUOUS
10
6.01054
20
-4.75035
11
6.00685
21
-4.73587
0
LINE
8
BLACK
6
CONTINUOUS
10
6.00685
20
-4.73587
11
6.00464
21
-4.7211
0
LINE
8
BLACK
6
CONTINUOUS
10
6.00464
20
-4.7211
11
6.00394
21
-4.70618
0
LINE
8
BLACK
6
CONTINUOUS
10
6.00394
20
-4.70618
11
6.00475
21
-4.69126
0
LINE
8
BLACK
6
CONTINUOUS
10
6.00475
20
-4.69126
11
6.00706
21
-4.6765
0
LINE
8
BLACK
6
CONTINUOUS
10
6.00706
20
-4.6765
11
6.01085
21
-4.66205
0
LINE
8
BLACK
6
CONTINUOUS
10
6.01085
20
-4.66205
11
6.01608
21
-4.64806
0
LINE
8
BLACK
6
CONTINUOUS
10
6.01608
20
-4.64806
11
6.0227
21
-4.63467
0
LINE
8
BLACK
6
CONTINUOUS
10
6.0227
20
-4.63467
11
6.03064
21
-4.62201
0
LINE
8
BLACK
6
CONTINUOUS
10
6.03064
20
-4.62201
11
6.03981
21
-4.61022
0
LINE
8
BLACK
6
CONTINUOUS
10
6.03981
20
-4.61022
11
6.05013
21
-4.59942
0
LINE
8
BLACK
6
CONTINUOUS
10
6.05013
20
-4.59942
11
6.06149
21
-4.58972
0
LINE
8
BLACK
6
CONTINUOUS
10
6.06149
20
-4.58972
11
6.07378
21
-4.58122
0
LINE
8
BLACK
6
CONTINUOUS
10
6.07378
20
-4.58122
11
6.08685
21
-4.574
0
LINE
8
BLACK
6
CONTINUOUS
10
6.08685
20
-4.574
11
6.1006
21
-4.56814
0
LINE
8
BLACK
6
CONTINUOUS
10
6.1006
20
-4.56814
11
6.11486
21
-4.56369
0
LINE
8
BLACK
6
CONTINUOUS
10
6.11486
20
-4.56369
11
6.1295
21
-4.56072
0
LINE
8
BLACK
6
CONTINUOUS
10
6.1295
20
-4.56072
11
6.14436
21
-4.55923
0
LINE
8
BLACK
6
CONTINUOUS
10
6.14436
20
-4.55923
11
6.1593
21
-4.55926
0
LINE
8
BLACK
6
CONTINUOUS
10
6.93883
20
-4.55926
11
6.95369
21
-4.56079
0
LINE
8
BLACK
6
CONTINUOUS
10
6.95369
20
-4.56079
11
6.96832
21
-4.56382
0
LINE
8
BLACK
6
CONTINUOUS
10
6.96832
20
-4.56382
11
6.98256
21
-4.56831
0
LINE
8
BLACK
6
CONTINUOUS
10
6.98256
20
-4.56831
11
6.99629
21
-4.57422
0
LINE
8
BLACK
6
CONTINUOUS
10
6.99629
20
-4.57422
11
7.00934
21
-4.58149
0
LINE
8
BLACK
6
CONTINUOUS
10
7.00934
20
-4.58149
11
7.02159
21
-4.59004
0
LINE
8
BLACK
6
CONTINUOUS
10
7.02159
20
-4.59004
11
7.03292
21
-4.59978
0
LINE
8
BLACK
6
CONTINUOUS
10
7.03292
20
-4.59978
11
7.0432
21
-4.61061
0
LINE
8
BLACK
6
CONTINUOUS
10
7.0432
20
-4.61061
11
7.05234
21
-4.62243
0
LINE
8
BLACK
6
CONTINUOUS
10
7.05234
20
-4.62243
11
7.06023
21
-4.63512
0
LINE
8
BLACK
6
CONTINUOUS
10
7.06023
20
-4.63512
11
7.0668
21
-4.64853
0
LINE
8
BLACK
6
CONTINUOUS
10
7.0668
20
-4.64853
11
7.07198
21
-4.66254
0
LINE
8
BLACK
6
CONTINUOUS
10
7.07198
20
-4.66254
11
7.07572
21
-4.67701
0
LINE
8
BLACK
6
CONTINUOUS
10
7.07572
20
-4.67701
11
7.07798
21
-4.69177
0
LINE
8
BLACK
6
CONTINUOUS
10
7.07798
20
-4.69177
11
7.07874
21
-4.70669
0
LINE
8
BLACK
6
CONTINUOUS
10
7.07874
20
-4.70669
11
7.07874
21
-4.70772
0
LINE
8
BLACK
6
CONTINUOUS
10
7.07874
20
-4.70772
11
7.07788
21
-4.72264
0
LINE
8
BLACK
6
CONTINUOUS
10
7.07788
20
-4.72264
11
7.07551
21
-4.73739
0
LINE
8
BLACK
6
CONTINUOUS
10
7.07551
20
-4.73739
11
7.07167
21
-4.75183
0
LINE
8
BLACK
6
CONTINUOUS
10
7.07167
20
-4.75183
11
7.06639
21
-4.7658
0
LINE
8
BLACK
6
CONTINUOUS
10
7.06639
20
-4.7658
11
7.05973
21
-4.77917
0
LINE
8
BLACK
6
CONTINUOUS
10
7.05973
20
-4.77917
11
7.05174
21
-4.7918
0
LINE
8
BLACK
6
CONTINUOUS
10
7.05174
20
-4.7918
11
7.04253
21
-4.80355
0
LINE
8
BLACK
6
CONTINUOUS
10
7.04253
20
-4.80355
11
7.03217
21
-4.81432
0
LINE
8
BLACK
6
CONTINUOUS
10
7.03217
20
-4.81432
11
7.02077
21
-4.82398
0
LINE
8
BLACK
6
CONTINUOUS
10
7.02077
20
-4.82398
11
7.00846
21
-4.83244
0
LINE
8
BLACK
6
CONTINUOUS
10
7.00846
20
-4.83244
11
6.99536
21
-4.83961
0
LINE
8
BLACK
6
CONTINUOUS
10
6.99536
20
-4.83961
11
6.9816
21
-4.84543
0
LINE
8
BLACK
6
CONTINUOUS
10
6.9816
20
-4.84543
11
6.96732
21
-4.84982
0
LINE
8
BLACK
6
CONTINUOUS
10
6.96732
20
-4.84982
11
6.95267
21
-4.85275
0
LINE
8
BLACK
6
CONTINUOUS
10
6.95267
20
-4.85275
11
6.9378
21
-4.85418
0
LINE
8
BLACK
6
CONTINUOUS
10
6.9378
20
-4.85418
11
6.92286
21
-4.8541
0
LINE
8
BLACK
6
CONTINUOUS
10
6.92286
20
-4.8541
11
6.90801
21
-4.85251
0
LINE
8
BLACK
6
CONTINUOUS
10
6.90801
20
-4.85251
11
6.89339
21
-4.84943
0
LINE
8
BLACK
6
CONTINUOUS
10
6.89339
20
-4.84943
11
6.87916
21
-4.84489
0
LINE
8
BLACK
6
CONTINUOUS
10
6.87916
20
-4.84489
11
6.86546
21
-4.83893
0
LINE
8
BLACK
6
CONTINUOUS
10
6.86546
20
-4.83893
11
6.85243
21
-4.83162
0
LINE
8
BLACK
6
CONTINUOUS
10
6.85243
20
-4.83162
11
6.84021
21
-4.82303
0
LINE
8
BLACK
6
CONTINUOUS
10
6.84021
20
-4.82303
11
6.82892
21
-4.81325
0
LINE
8
BLACK
6
CONTINUOUS
10
6.82892
20
-4.81325
11
6.81867
21
-4.80238
0
LINE
8
BLACK
6
CONTINUOUS
10
6.81867
20
-4.80238
11
6.80958
21
-4.79053
0
LINE
8
BLACK
6
CONTINUOUS
10
6.80958
20
-4.79053
11
6.80173
21
-4.77782
0
LINE
8
BLACK
6
CONTINUOUS
10
6.80173
20
-4.77782
11
6.7952
21
-4.76438
0
LINE
8
BLACK
6
CONTINUOUS
10
6.7952
20
-4.76438
11
6.79007
21
-4.75035
0
LINE
8
BLACK
6
CONTINUOUS
10
6.79007
20
-4.75035
11
6.78638
21
-4.73587
0
LINE
8
BLACK
6
CONTINUOUS
10
6.78638
20
-4.73587
11
6.78417
21
-4.7211
0
LINE
8
BLACK
6
CONTINUOUS
10
6.78417
20
-4.7211
11
6.78347
21
-4.70618
0
LINE
8
BLACK
6
CONTINUOUS
10
6.78347
20
-4.70618
11
6.78427
21
-4.69126
0
LINE
8
BLACK
6
CONTINUOUS
10
6.78427
20
-4.69126
11
6.78658
21
-4.6765
0
LINE
8
BLACK
6
CONTINUOUS
10
6.78658
20
-4.6765
11
6.79038
21
-4.66205
0
LINE
8
BLACK
6
CONTINUOUS
10
6.79038
20
-4.66205
11
6.79561
21
-4.64806
0
LINE
8
BLACK
6
CONTINUOUS
10
6.79561
20
-4.64806
11
6.80223
21
-4.63467
0
LINE
8
BLACK
6
CONTINUOUS
10
6.80223
20
-4.63467
11
6.81016
21
-4.62201
0
LINE
8
BLACK
6
CONTINUOUS
10
6.81016
20
-4.62201
11
6.81934
21
-4.61022
0
LINE
8
BLACK
6
CONTINUOUS
10
6.81934
20
-4.61022
11
6.82966
21
-4.59942
0
LINE
8
BLACK
6
CONTINUOUS
10
6.82966
20
-4.59942
11
6.84102
21
-4.58972
0
LINE
8
BLACK
6
CONTINUOUS
10
6.84102
20
-4.58972
11
6.8533
21
-4.58122
0
LINE
8
BLACK
6
CONTINUOUS
10
6.8533
20
-4.58122
11
6.86638
21
-4.574
0
LINE
8
BLACK
6
CONTINUOUS
10
6.86638
20
-4.574
11
6.88012
21
-4.56814
0
LINE
8
BLACK
6
CONTINUOUS
10
6.88012
20
-4.56814
11
6.89439
21
-4.56369
0
LINE
8
BLACK
6
CONTINUOUS
10
6.89439
20
-4.56369
11
6.90903
21
-4.56072
0
LINE
8
BLACK
6
CONTINUOUS
10
6.90903
20
-4.56072
11
6.92389
21
-4.55923
0
LINE
8
BLACK
6
CONTINUOUS
10
6.92389
20
-4.55923
11
6.93883
21
-4.55926
0
LINE
8
BLACK
6
CONTINUOUS
10
6.59136
20
-4.7291
11
6.59456
21
-4.73123
0
LINE
8
BLACK
6
CONTINUOUS
10
6.59456
20
-4.73123
11
6.59669
21
-4.73442
0
LINE
8
BLACK
6
CONTINUOUS
10
6.59669
20
-4.73442
11
6.59744
21
-4.73819
0
LINE
8
BLACK
6
CONTINUOUS
10
6.59744
20
-4.73819
11
6.59744
21
-4.77362
0
LINE
8
BLACK
6
CONTINUOUS
10
6.59744
20
-4.77362
11
6.59669
21
-4.77739
0
LINE
8
BLACK
6
CONTINUOUS
10
6.59669
20
-4.77739
11
6.59456
21
-4.78058
0
LINE
8
BLACK
6
CONTINUOUS
10
6.59456
20
-4.78058
11
6.59136
21
-4.78272
0
LINE
8
BLACK
6
CONTINUOUS
10
6.59136
20
-4.78272
11
6.5876
21
-4.78346
0
LINE
8
BLACK
6
CONTINUOUS
10
6.5876
20
-4.78346
11
6.56201
21
-4.78346
0
LINE
8
BLACK
6
CONTINUOUS
10
6.56201
20
-4.78346
11
6.55824
21
-4.78272
0
LINE
8
BLACK
6
CONTINUOUS
10
6.55824
20
-4.78272
11
6.55505
21
-4.78058
0
LINE
8
BLACK
6
CONTINUOUS
10
6.55505
20
-4.78058
11
6.55291
21
-4.77739
0
LINE
8
BLACK
6
CONTINUOUS
10
6.55291
20
-4.77739
11
6.55217
21
-4.77362
0
LINE
8
BLACK
6
CONTINUOUS
10
6.55217
20
-4.77362
11
6.55217
21
-4.73819
0
LINE
8
BLACK
6
CONTINUOUS
10
6.55217
20
-4.73819
11
6.55291
21
-4.73442
0
LINE
8
BLACK
6
CONTINUOUS
10
6.55291
20
-4.73442
11
6.55505
21
-4.73123
0
LINE
8
BLACK
6
CONTINUOUS
10
6.55505
20
-4.73123
11
6.55824
21
-4.7291
0
LINE
8
BLACK
6
CONTINUOUS
10
6.55824
20
-4.7291
11
6.56201
21
-4.72835
0
LINE
8
BLACK
6
CONTINUOUS
10
6.56201
20
-4.72835
11
6.5876
21
-4.72835
0
LINE
8
BLACK
6
CONTINUOUS
10
6.5876
20
-4.72835
11
6.59136
21
-4.7291
0
LINE
8
BLACK
6
CONTINUOUS
10
6.51066
20
-4.7291
11
6.51385
21
-4.73123
0
LINE
8
BLACK
6
CONTINUOUS
10
6.51385
20
-4.73123
11
6.51598
21
-4.73442
0
LINE
8
BLACK
6
CONTINUOUS
10
6.51598
20
-4.73442
11
6.51673
21
-4.73819
0
LINE
8
BLACK
6
CONTINUOUS
10
6.51673
20
-4.73819
11
6.51673
21
-4.77362
0
LINE
8
BLACK
6
CONTINUOUS
10
6.51673
20
-4.77362
11
6.51598
21
-4.77739
0
LINE
8
BLACK
6
CONTINUOUS
10
6.51598
20
-4.77739
11
6.51385
21
-4.78058
0
LINE
8
BLACK
6
CONTINUOUS
10
6.51385
20
-4.78058
11
6.51066
21
-4.78272
0
LINE
8
BLACK
6
CONTINUOUS
10
6.51066
20
-4.78272
11
6.50689
21
-4.78346
0
LINE
8
BLACK
6
CONTINUOUS
10
6.50689
20
-4.78346
11
6.4813
21
-4.78346
0
LINE
8
BLACK
6
CONTINUOUS
10
6.4813
20
-4.78346
11
6.47753
21
-4.78272
0
LINE
8
BLACK
6
CONTINUOUS
10
6.47753
20
-4.78272
11
6.47434
21
-4.78058
0
LINE
8
BLACK
6
CONTINUOUS
10
6.47434
20
-4.78058
11
6.47221
21
-4.77739
0
LINE
8
BLACK
6
CONTINUOUS
10
6.47221
20
-4.77739
11
6.47146
21
-4.77362
0
LINE
8
BLACK
6
CONTINUOUS
10
6.47146
20
-4.77362
11
6.47146
21
-4.73819
0
LINE
8
BLACK
6
CONTINUOUS
10
6.47146
20
-4.73819
11
6.47221
21
-4.73442
0
LINE
8
BLACK
6
CONTINUOUS
10
6.47221
20
-4.73442
11
6.47434
21
-4.73123
0
LINE
8
BLACK
6
CONTINUOUS
10
6.47434
20
-4.73123
11
6.47753
21
-4.7291
0
LINE
8
BLACK
6
CONTINUOUS
10
6.47753
20
-4.7291
11
6.4813
21
-4.72835
0
LINE
8
BLACK
6
CONTINUOUS
10
6.4813
20
-4.72835
11
6.50689
21
-4.72835
0
LINE
8
BLACK
6
CONTINUOUS
10
6.50689
20
-4.72835
11
6.51066
21
-4.7291
0
LINE
8
BLACK
6
CONTINUOUS
10
6.45965
20
-4.69311
11
6.39862
21
-4.69311
0
LINE
8
BLACK
6
CONTINUOUS
10
6.39862
20
-4.69311
11
6.39862
21
-4.66949
0
LINE
8
BLACK
6
CONTINUOUS
10
6.39862
20
-4.66949
11
6.45965
21
-4.66949
0
LINE
8
BLACK
6
CONTINUOUS
10
6.45965
20
-4.66949
11
6.45965
21
-4.69311
0
LINE
8
BLACK
6
CONTINUOUS
10
6.67224
20
-4.69311
11
6.61122
21
-4.69311
0
LINE
8
BLACK
6
CONTINUOUS
10
6.61122
20
-4.69311
11
6.61122
21
-4.66949
0
LINE
8
BLACK
6
CONTINUOUS
10
6.61122
20
-4.66949
11
6.67224
21
-4.66949
0
LINE
8
BLACK
6
CONTINUOUS
10
6.67224
20
-4.66949
11
6.67224
21
-4.69311
0
LINE
8
BLACK
6
CONTINUOUS
10
6.45965
20
-4.64311
11
6.39862
21
-4.64311
0
LINE
8
BLACK
6
CONTINUOUS
10
6.39862
20
-4.64311
11
6.39862
21
-4.61949
0
LINE
8
BLACK
6
CONTINUOUS
10
6.39862
20
-4.61949
11
6.45965
21
-4.61949
0
LINE
8
BLACK
6
CONTINUOUS
10
6.45965
20
-4.61949
11
6.45965
21
-4.64311
0
LINE
8
BLACK
6
CONTINUOUS
10
6.67224
20
-4.64311
11
6.61122
21
-4.64311
0
LINE
8
BLACK
6
CONTINUOUS
10
6.61122
20
-4.64311
11
6.61122
21
-4.61949
0
LINE
8
BLACK
6
CONTINUOUS
10
6.61122
20
-4.61949
11
6.67224
21
-4.61949
0
LINE
8
BLACK
6
CONTINUOUS
10
6.67224
20
-4.61949
11
6.67224
21
-4.64311
0
LINE
8
BLACK
6
CONTINUOUS
10
6.67224
20
-4.59311
11
6.61122
21
-4.59311
0
LINE
8
BLACK
6
CONTINUOUS
10
6.61122
20
-4.59311
11
6.61122
21
-4.56949
0
LINE
8
BLACK
6
CONTINUOUS
10
6.61122
20
-4.56949
11
6.67224
21
-4.56949
0
LINE
8
BLACK
6
CONTINUOUS
10
6.67224
20
-4.56949
11
6.67224
21
-4.59311
0
LINE
8
BLACK
6
CONTINUOUS
10
6.45965
20
-4.59311
11
6.39862
21
-4.59311
0
LINE
8
BLACK
6
CONTINUOUS
10
6.39862
20
-4.59311
11
6.39862
21
-4.56949
0
LINE
8
BLACK
6
CONTINUOUS
10
6.39862
20
-4.56949
11
6.45965
21
-4.56949
0
LINE
8
BLACK
6
CONTINUOUS
10
6.45965
20
-4.56949
11
6.45965
21
-4.59311
0
LINE
8
BLACK
6
CONTINUOUS
10
6.67224
20
-4.54311
11
6.61122
21
-4.54311
0
LINE
8
BLACK
6
CONTINUOUS
10
6.61122
20
-4.54311
11
6.61122
21
-4.51949
0
LINE
8
BLACK
6
CONTINUOUS
10
6.61122
20
-4.51949
11
6.67224
21
-4.51949
0
LINE
8
BLACK
6
CONTINUOUS
10
6.67224
20
-4.51949
11
6.67224
21
-4.54311
0
LINE
8
BLACK
6
CONTINUOUS
10
6.45965
20
-4.54311
11
6.39862
21
-4.54311
0
LINE
8
BLACK
6
CONTINUOUS
10
6.39862
20
-4.54311
11
6.39862
21
-4.51949
0
LINE
8
BLACK
6
CONTINUOUS
10
6.39862
20
-4.51949
11
6.45965
21
-4.51949
0
LINE
8
BLACK
6
CONTINUOUS
10
6.45965
20
-4.51949
11
6.45965
21
-4.54311
0
LINE
8
BLACK
6
CONTINUOUS
10
6.6204
20
-4.41512
11
6.62359
21
-4.41725
0
LINE
8
BLACK
6
CONTINUOUS
10
6.62359
20
-4.41725
11
6.62573
21
-4.42045
0
LINE
8
BLACK
6
CONTINUOUS
10
6.62573
20
-4.42045
11
6.62648
21
-4.42421
0
LINE
8
BLACK
6
CONTINUOUS
10
6.62648
20
-4.42421
11
6.62648
21
-4.47343
0
LINE
8
BLACK
6
CONTINUOUS
10
6.62648
20
-4.47343
11
6.62573
21
-4.47719
0
LINE
8
BLACK
6
CONTINUOUS
10
6.62573
20
-4.47719
11
6.62359
21
-4.48038
0
LINE
8
BLACK
6
CONTINUOUS
10
6.62359
20
-4.48038
11
6.6204
21
-4.48252
0
LINE
8
BLACK
6
CONTINUOUS
10
6.6204
20
-4.48252
11
6.61663
21
-4.48327
0
LINE
8
BLACK
6
CONTINUOUS
10
6.61663
20
-4.48327
11
6.58022
21
-4.48327
0
LINE
8
BLACK
6
CONTINUOUS
10
6.58022
20
-4.48327
11
6.57645
21
-4.48252
0
LINE
8
BLACK
6
CONTINUOUS
10
6.57645
20
-4.48252
11
6.57326
21
-4.48038
0
LINE
8
BLACK
6
CONTINUOUS
10
6.57326
20
-4.48038
11
6.57112
21
-4.47719
0
LINE
8
BLACK
6
CONTINUOUS
10
6.57112
20
-4.47719
11
6.57037
21
-4.47343
0
LINE
8
BLACK
6
CONTINUOUS
10
6.57037
20
-4.47343
11
6.57037
21
-4.42421
0
LINE
8
BLACK
6
CONTINUOUS
10
6.57037
20
-4.42421
11
6.57112
21
-4.42045
0
LINE
8
BLACK
6
CONTINUOUS
10
6.57112
20
-4.42045
11
6.57326
21
-4.41725
0
LINE
8
BLACK
6
CONTINUOUS
10
6.57326
20
-4.41725
11
6.57645
21
-4.41512
0
LINE
8
BLACK
6
CONTINUOUS
10
6.57645
20
-4.41512
11
6.58022
21
-4.41437
0
LINE
8
BLACK
6
CONTINUOUS
10
6.58022
20
-4.41437
11
6.61663
21
-4.41437
0
LINE
8
BLACK
6
CONTINUOUS
10
6.61663
20
-4.41437
11
6.6204
21
-4.41512
0
LINE
8
BLACK
6
CONTINUOUS
10
6.50327
20
-4.41512
11
6.50647
21
-4.41725
0
LINE
8
BLACK
6
CONTINUOUS
10
6.50647
20
-4.41725
11
6.5086
21
-4.42045
0
LINE
8
BLACK
6
CONTINUOUS
10
6.5086
20
-4.42045
11
6.50935
21
-4.42421
0
LINE
8
BLACK
6
CONTINUOUS
10
6.50935
20
-4.42421
11
6.50935
21
-4.47343
0
LINE
8
BLACK
6
CONTINUOUS
10
6.50935
20
-4.47343
11
6.5086
21
-4.47719
0
LINE
8
BLACK
6
CONTINUOUS
10
6.5086
20
-4.47719
11
6.50647
21
-4.48038
0
LINE
8
BLACK
6
CONTINUOUS
10
6.50647
20
-4.48038
11
6.50327
21
-4.48252
0
LINE
8
BLACK
6
CONTINUOUS
10
6.50327
20
-4.48252
11
6.49951
21
-4.48327
0
LINE
8
BLACK
6
CONTINUOUS
10
6.49951
20
-4.48327
11
6.46309
21
-4.48327
0
LINE
8
BLACK
6
CONTINUOUS
10
6.46309
20
-4.48327
11
6.45932
21
-4.48252
0
LINE
8
BLACK
6
CONTINUOUS
10
6.45932
20
-4.48252
11
6.45613
21
-4.48038
0
LINE
8
BLACK
6
CONTINUOUS
10
6.45613
20
-4.48038
11
6.454
21
-4.47719
0
LINE
8
BLACK
6
CONTINUOUS
10
6.454
20
-4.47719
11
6.45325
21
-4.47343
0
LINE
8
BLACK
6
CONTINUOUS
10
6.45325
20
-4.47343
11
6.45325
21
-4.42421
0
LINE
8
BLACK
6
CONTINUOUS
10
6.45325
20
-4.42421
11
6.454
21
-4.42045
0
LINE
8
BLACK
6
CONTINUOUS
10
6.454
20
-4.42045
11
6.45613
21
-4.41725
0
LINE
8
BLACK
6
CONTINUOUS
10
6.45613
20
-4.41725
11
6.45932
21
-4.41512
0
LINE
8
BLACK
6
CONTINUOUS
10
6.45932
20
-4.41512
11
6.46309
21
-4.41437
0
LINE
8
BLACK
6
CONTINUOUS
10
6.46309
20
-4.41437
11
6.49951
21
-4.41437
0
LINE
8
BLACK
6
CONTINUOUS
10
6.49951
20
-4.41437
11
6.50327
21
-4.41512
0
LINE
8
BLACK
6
CONTINUOUS
10
6.94668
20
-4.33539
11
6.94987
21
-4.33753
0
LINE
8
BLACK
6
CONTINUOUS
10
6.94987
20
-4.33753
11
6.95201
21
-4.34072
0
LINE
8
BLACK
6
CONTINUOUS
10
6.95201
20
-4.34072
11
6.95276
21
-4.34449
0
LINE
8
BLACK
6
CONTINUOUS
10
6.95276
20
-4.34449
11
6.95276
21
-4.37992
0
LINE
8
BLACK
6
CONTINUOUS
10
6.95276
20
-4.37992
11
6.95201
21
-4.38369
0
LINE
8
BLACK
6
CONTINUOUS
10
6.95201
20
-4.38369
11
6.94987
21
-4.38688
0
LINE
8
BLACK
6
CONTINUOUS
10
6.94987
20
-4.38688
11
6.94668
21
-4.38901
0
LINE
8
BLACK
6
CONTINUOUS
10
6.94668
20
-4.38901
11
6.94291
21
-4.38976
0
LINE
8
BLACK
6
CONTINUOUS
10
6.94291
20
-4.38976
11
6.91732
21
-4.38976
0
LINE
8
BLACK
6
CONTINUOUS
10
6.91732
20
-4.38976
11
6.91356
21
-4.38901
0
LINE
8
BLACK
6
CONTINUOUS
10
6.91356
20
-4.38901
11
6.91036
21
-4.38688
0
LINE
8
BLACK
6
CONTINUOUS
10
6.91036
20
-4.38688
11
6.90823
21
-4.38369
0
LINE
8
BLACK
6
CONTINUOUS
10
6.90823
20
-4.38369
11
6.90748
21
-4.37992
0
LINE
8
BLACK
6
CONTINUOUS
10
6.90748
20
-4.37992
11
6.90748
21
-4.34449
0
LINE
8
BLACK
6
CONTINUOUS
10
6.90748
20
-4.34449
11
6.90823
21
-4.34072
0
LINE
8
BLACK
6
CONTINUOUS
10
6.90823
20
-4.34072
11
6.91036
21
-4.33753
0
LINE
8
BLACK
6
CONTINUOUS
10
6.91036
20
-4.33753
11
6.91356
21
-4.33539
0
LINE
8
BLACK
6
CONTINUOUS
10
6.91356
20
-4.33539
11
6.91732
21
-4.33465
0
LINE
8
BLACK
6
CONTINUOUS
10
6.91732
20
-4.33465
11
6.94291
21
-4.33465
0
LINE
8
BLACK
6
CONTINUOUS
10
6.94291
20
-4.33465
11
6.94668
21
-4.33539
0
LINE
8
BLACK
6
CONTINUOUS
10
6.86597
20
-4.33539
11
6.86916
21
-4.33753
0
LINE
8
BLACK
6
CONTINUOUS
10
6.86916
20
-4.33753
11
6.8713
21
-4.34072
0
LINE
8
BLACK
6
CONTINUOUS
10
6.8713
20
-4.34072
11
6.87205
21
-4.34449
0
LINE
8
BLACK
6
CONTINUOUS
10
6.87205
20
-4.34449
11
6.87205
21
-4.37992
0
LINE
8
BLACK
6
CONTINUOUS
10
6.87205
20
-4.37992
11
6.8713
21
-4.38369
0
LINE
8
BLACK
6
CONTINUOUS
10
6.8713
20
-4.38369
11
6.86916
21
-4.38688
0
LINE
8
BLACK
6
CONTINUOUS
10
6.86916
20
-4.38688
11
6.86597
21
-4.38901
0
LINE
8
BLACK
6
CONTINUOUS
10
6.86597
20
-4.38901
11
6.8622
21
-4.38976
0
LINE
8
BLACK
6
CONTINUOUS
10
6.8622
20
-4.38976
11
6.83661
21
-4.38976
0
LINE
8
BLACK
6
CONTINUOUS
10
6.83661
20
-4.38976
11
6.83285
21
-4.38901
0
LINE
8
BLACK
6
CONTINUOUS
10
6.83285
20
-4.38901
11
6.82965
21
-4.38688
0
LINE
8
BLACK
6
CONTINUOUS
10
6.82965
20
-4.38688
11
6.82752
21
-4.38369
0
LINE
8
BLACK
6
CONTINUOUS
10
6.82752
20
-4.38369
11
6.82677
21
-4.37992
0
LINE
8
BLACK
6
CONTINUOUS
10
6.82677
20
-4.37992
11
6.82677
21
-4.34449
0
LINE
8
BLACK
6
CONTINUOUS
10
6.82677
20
-4.34449
11
6.82752
21
-4.34072
0
LINE
8
BLACK
6
CONTINUOUS
10
6.82752
20
-4.34072
11
6.82965
21
-4.33753
0
LINE
8
BLACK
6
CONTINUOUS
10
6.82965
20
-4.33753
11
6.83285
21
-4.33539
0
LINE
8
BLACK
6
CONTINUOUS
10
6.83285
20
-4.33539
11
6.83661
21
-4.33465
0
LINE
8
BLACK
6
CONTINUOUS
10
6.83661
20
-4.33465
11
6.8622
21
-4.33465
0
LINE
8
BLACK
6
CONTINUOUS
10
6.8622
20
-4.33465
11
6.86597
21
-4.33539
0
LINE
8
BLACK
6
CONTINUOUS
10
6.51772
20
-4.36122
11
6.46969
21
-4.36122
0
LINE
8
BLACK
6
CONTINUOUS
10
6.46969
20
-4.36122
11
6.46969
21
-4.33563
0
LINE
8
BLACK
6
CONTINUOUS
10
6.46969
20
-4.33563
11
6.51772
21
-4.33563
0
LINE
8
BLACK
6
CONTINUOUS
10
6.51772
20
-4.33563
11
6.51772
21
-4.36122
0
LINE
8
BLACK
6
CONTINUOUS
10
6.11105
20
-4.28028
11
6.11424
21
-4.28241
0
LINE
8
BLACK
6
CONTINUOUS
10
6.11424
20
-4.28241
11
6.11638
21
-4.2856
0
LINE
8
BLACK
6
CONTINUOUS
10
6.11638
20
-4.2856
11
6.11713
21
-4.28937
0
LINE
8
BLACK
6
CONTINUOUS
10
6.11713
20
-4.28937
11
6.11713
21
-4.3248
0
LINE
8
BLACK
6
CONTINUOUS
10
6.11713
20
-4.3248
11
6.11638
21
-4.32857
0
LINE
8
BLACK
6
CONTINUOUS
10
6.11638
20
-4.32857
11
6.11424
21
-4.33176
0
LINE
8
BLACK
6
CONTINUOUS
10
6.11424
20
-4.33176
11
6.11105
21
-4.3339
0
LINE
8
BLACK
6
CONTINUOUS
10
6.11105
20
-4.3339
11
6.10728
21
-4.33465
0
LINE
8
BLACK
6
CONTINUOUS
10
6.10728
20
-4.33465
11
6.08169
21
-4.33465
0
LINE
8
BLACK
6
CONTINUOUS
10
6.08169
20
-4.33465
11
6.07793
21
-4.3339
0
LINE
8
BLACK
6
CONTINUOUS
10
6.07793
20
-4.3339
11
6.07473
21
-4.33176
0
LINE
8
BLACK
6
CONTINUOUS
10
6.07473
20
-4.33176
11
6.0726
21
-4.32857
0
LINE
8
BLACK
6
CONTINUOUS
10
6.0726
20
-4.32857
11
6.07185
21
-4.3248
0
LINE
8
BLACK
6
CONTINUOUS
10
6.07185
20
-4.3248
11
6.07185
21
-4.28937
0
LINE
8
BLACK
6
CONTINUOUS
10
6.07185
20
-4.28937
11
6.0726
21
-4.2856
0
LINE
8
BLACK
6
CONTINUOUS
10
6.0726
20
-4.2856
11
6.07473
21
-4.28241
0
LINE
8
BLACK
6
CONTINUOUS
10
6.07473
20
-4.28241
11
6.07793
21
-4.28028
0
LINE
8
BLACK
6
CONTINUOUS
10
6.07793
20
-4.28028
11
6.08169
21
-4.27953
0
LINE
8
BLACK
6
CONTINUOUS
10
6.08169
20
-4.27953
11
6.10728
21
-4.27953
0
LINE
8
BLACK
6
CONTINUOUS
10
6.10728
20
-4.27953
11
6.11105
21
-4.28028
0
LINE
8
BLACK
6
CONTINUOUS
10
6.03034
20
-4.28028
11
6.03353
21
-4.28241
0
LINE
8
BLACK
6
CONTINUOUS
10
6.03353
20
-4.28241
11
6.03567
21
-4.2856
0
LINE
8
BLACK
6
CONTINUOUS
10
6.03567
20
-4.2856
11
6.03642
21
-4.28937
0
LINE
8
BLACK
6
CONTINUOUS
10
6.03642
20
-4.28937
11
6.03642
21
-4.3248
0
LINE
8
BLACK
6
CONTINUOUS
10
6.03642
20
-4.3248
11
6.03567
21
-4.32857
0
LINE
8
BLACK
6
CONTINUOUS
10
6.03567
20
-4.32857
11
6.03353
21
-4.33176
0
LINE
8
BLACK
6
CONTINUOUS
10
6.03353
20
-4.33176
11
6.03034
21
-4.3339
0
LINE
8
BLACK
6
CONTINUOUS
10
6.03034
20
-4.3339
11
6.02657
21
-4.33465
0
LINE
8
BLACK
6
CONTINUOUS
10
6.02657
20
-4.33465
11
6.00098
21
-4.33465
0
LINE
8
BLACK
6
CONTINUOUS
10
6.00098
20
-4.33465
11
5.99722
21
-4.3339
0
LINE
8
BLACK
6
CONTINUOUS
10
5.99722
20
-4.3339
11
5.99402
21
-4.33176
0
LINE
8
BLACK
6
CONTINUOUS
10
5.99402
20
-4.33176
11
5.99189
21
-4.32857
0
LINE
8
BLACK
6
CONTINUOUS
10
5.99189
20
-4.32857
11
5.99114
21
-4.3248
0
LINE
8
BLACK
6
CONTINUOUS
10
5.99114
20
-4.3248
11
5.99114
21
-4.28937
0
LINE
8
BLACK
6
CONTINUOUS
10
5.99114
20
-4.28937
11
5.99189
21
-4.2856
0
LINE
8
BLACK
6
CONTINUOUS
10
5.99189
20
-4.2856
11
5.99402
21
-4.28241
0
LINE
8
BLACK
6
CONTINUOUS
10
5.99402
20
-4.28241
11
5.99722
21
-4.28028
0
LINE
8
BLACK
6
CONTINUOUS
10
5.99722
20
-4.28028
11
6.00098
21
-4.27953
0
LINE
8
BLACK
6
CONTINUOUS
10
6.00098
20
-4.27953
11
6.02657
21
-4.27953
0
LINE
8
BLACK
6
CONTINUOUS
10
6.02657
20
-4.27953
11
6.03034
21
-4.28028
0
LINE
8
BLACK
6
CONTINUOUS
10
6.26951
20
-4.28028
11
6.27271
21
-4.28241
0
LINE
8
BLACK
6
CONTINUOUS
10
6.27271
20
-4.28241
11
6.27484
21
-4.2856
0
LINE
8
BLACK
6
CONTINUOUS
10
6.27484
20
-4.2856
11
6.27559
21
-4.28937
0
LINE
8
BLACK
6
CONTINUOUS
10
6.27559
20
-4.28937
11
6.27559
21
-4.3248
0
LINE
8
BLACK
6
CONTINUOUS
10
6.27559
20
-4.3248
11
6.27484
21
-4.32857
0
LINE
8
BLACK
6
CONTINUOUS
10
6.27484
20
-4.32857
11
6.27271
21
-4.33176
0
LINE
8
BLACK
6
CONTINUOUS
10
6.27271
20
-4.33176
11
6.26951
21
-4.3339
0
LINE
8
BLACK
6
CONTINUOUS
10
6.26951
20
-4.3339
11
6.26575
21
-4.33465
0
LINE
8
BLACK
6
CONTINUOUS
10
6.26575
20
-4.33465
11
6.24016
21
-4.33465
0
LINE
8
BLACK
6
CONTINUOUS
10
6.24016
20
-4.33465
11
6.23639
21
-4.3339
0
LINE
8
BLACK
6
CONTINUOUS
10
6.23639
20
-4.3339
11
6.2332
21
-4.33176
0
LINE
8
BLACK
6
CONTINUOUS
10
6.2332
20
-4.33176
11
6.23106
21
-4.32857
0
LINE
8
BLACK
6
CONTINUOUS
10
6.23106
20
-4.32857
11
6.23031
21
-4.3248
0
LINE
8
BLACK
6
CONTINUOUS
10
6.23031
20
-4.3248
11
6.23031
21
-4.28937
0
LINE
8
BLACK
6
CONTINUOUS
10
6.23031
20
-4.28937
11
6.23106
21
-4.2856
0
LINE
8
BLACK
6
CONTINUOUS
10
6.23106
20
-4.2856
11
6.2332
21
-4.28241
0
LINE
8
BLACK
6
CONTINUOUS
10
6.2332
20
-4.28241
11
6.23639
21
-4.28028
0
LINE
8
BLACK
6
CONTINUOUS
10
6.23639
20
-4.28028
11
6.24016
21
-4.27953
0
LINE
8
BLACK
6
CONTINUOUS
10
6.24016
20
-4.27953
11
6.26575
21
-4.27953
0
LINE
8
BLACK
6
CONTINUOUS
10
6.26575
20
-4.27953
11
6.26951
21
-4.28028
0
LINE
8
BLACK
6
CONTINUOUS
10
6.18881
20
-4.28028
11
6.192
21
-4.28241
0
LINE
8
BLACK
6
CONTINUOUS
10
6.192
20
-4.28241
11
6.19413
21
-4.2856
0
LINE
8
BLACK
6
CONTINUOUS
10
6.19413
20
-4.2856
11
6.19488
21
-4.28937
0
LINE
8
BLACK
6
CONTINUOUS
10
6.19488
20
-4.28937
11
6.19488
21
-4.3248
0
LINE
8
BLACK
6
CONTINUOUS
10
6.19488
20
-4.3248
11
6.19413
21
-4.32857
0
LINE
8
BLACK
6
CONTINUOUS
10
6.19413
20
-4.32857
11
6.192
21
-4.33176
0
LINE
8
BLACK
6
CONTINUOUS
10
6.192
20
-4.33176
11
6.18881
21
-4.3339
0
LINE
8
BLACK
6
CONTINUOUS
10
6.18881
20
-4.3339
11
6.18504
21
-4.33465
0
LINE
8
BLACK
6
CONTINUOUS
10
6.18504
20
-4.33465
11
6.15945
21
-4.33465
0
LINE
8
BLACK
6
CONTINUOUS
10
6.15945
20
-4.33465
11
6.15568
21
-4.3339
0
LINE
8
BLACK
6
CONTINUOUS
10
6.15568
20
-4.3339
11
6.15249
21
-4.33176
0
LINE
8
BLACK
6
CONTINUOUS
10
6.15249
20
-4.33176
11
6.15036
21
-4.32857
0
LINE
8
BLACK
6
CONTINUOUS
10
6.15036
20
-4.32857
11
6.14961
21
-4.3248
0
LINE
8
BLACK
6
CONTINUOUS
10
6.14961
20
-4.3248
11
6.14961
21
-4.28937
0
LINE
8
BLACK
6
CONTINUOUS
10
6.14961
20
-4.28937
11
6.15036
21
-4.2856
0
LINE
8
BLACK
6
CONTINUOUS
10
6.15036
20
-4.2856
11
6.15249
21
-4.28241
0
LINE
8
BLACK
6
CONTINUOUS
10
6.15249
20
-4.28241
11
6.15568
21
-4.28028
0
LINE
8
BLACK
6
CONTINUOUS
10
6.15568
20
-4.28028
11
6.15945
21
-4.27953
0
LINE
8
BLACK
6
CONTINUOUS
10
6.15945
20
-4.27953
11
6.18504
21
-4.27953
0
LINE
8
BLACK
6
CONTINUOUS
10
6.18504
20
-4.27953
11
6.18881
21
-4.28028
0
LINE
8
BLACK
6
CONTINUOUS
10
6.62087
20
-4.32382
11
6.57283
21
-4.32382
0
LINE
8
BLACK
6
CONTINUOUS
10
6.57283
20
-4.32382
11
6.57283
21
-4.29823
0
LINE
8
BLACK
6
CONTINUOUS
10
6.57283
20
-4.29823
11
6.62087
21
-4.29823
0
LINE
8
BLACK
6
CONTINUOUS
10
6.62087
20
-4.29823
11
6.62087
21
-4.32382
0
LINE
8
BLACK
6
CONTINUOUS
10
6.94668
20
-4.25272
11
6.94987
21
-4.25485
0
LINE
8
BLACK
6
CONTINUOUS
10
6.94987
20
-4.25485
11
6.95201
21
-4.25804
0
LINE
8
BLACK
6
CONTINUOUS
10
6.95201
20
-4.25804
11
6.95276
21
-4.26181
0
LINE
8
BLACK
6
CONTINUOUS
10
6.95276
20
-4.26181
11
6.95276
21
-4.29724
0
LINE
8
BLACK
6
CONTINUOUS
10
6.95276
20
-4.29724
11
6.95201
21
-4.30101
0
LINE
8
BLACK
6
CONTINUOUS
10
6.95201
20
-4.30101
11
6.94987
21
-4.3042
0
LINE
8
BLACK
6
CONTINUOUS
10
6.94987
20
-4.3042
11
6.94668
21
-4.30634
0
LINE
8
BLACK
6
CONTINUOUS
10
6.94668
20
-4.30634
11
6.94291
21
-4.30709
0
LINE
8
BLACK
6
CONTINUOUS
10
6.94291
20
-4.30709
11
6.91732
21
-4.30709
0
LINE
8
BLACK
6
CONTINUOUS
10
6.91732
20
-4.30709
11
6.91356
21
-4.30634
0
LINE
8
BLACK
6
CONTINUOUS
10
6.91356
20
-4.30634
11
6.91036
21
-4.3042
0
LINE
8
BLACK
6
CONTINUOUS
10
6.91036
20
-4.3042
11
6.90823
21
-4.30101
0
LINE
8
BLACK
6
CONTINUOUS
10
6.90823
20
-4.30101
11
6.90748
21
-4.29724
0
LINE
8
BLACK
6
CONTINUOUS
10
6.90748
20
-4.29724
11
6.90748
21
-4.26181
0
LINE
8
BLACK
6
CONTINUOUS
10
6.90748
20
-4.26181
11
6.90823
21
-4.25804
0
LINE
8
BLACK
6
CONTINUOUS
10
6.90823
20
-4.25804
11
6.91036
21
-4.25485
0
LINE
8
BLACK
6
CONTINUOUS
10
6.91036
20
-4.25485
11
6.91356
21
-4.25272
0
LINE
8
BLACK
6
CONTINUOUS
10
6.91356
20
-4.25272
11
6.91732
21
-4.25197
0
LINE
8
BLACK
6
CONTINUOUS
10
6.91732
20
-4.25197
11
6.94291
21
-4.25197
0
LINE
8
BLACK
6
CONTINUOUS
10
6.94291
20
-4.25197
11
6.94668
21
-4.25272
0
LINE
8
BLACK
6
CONTINUOUS
10
6.86597
20
-4.25272
11
6.86916
21
-4.25485
0
LINE
8
BLACK
6
CONTINUOUS
10
6.86916
20
-4.25485
11
6.8713
21
-4.25804
0
LINE
8
BLACK
6
CONTINUOUS
10
6.8713
20
-4.25804
11
6.87205
21
-4.26181
0
LINE
8
BLACK
6
CONTINUOUS
10
6.87205
20
-4.26181
11
6.87205
21
-4.29724
0
LINE
8
BLACK
6
CONTINUOUS
10
6.87205
20
-4.29724
11
6.8713
21
-4.30101
0
LINE
8
BLACK
6
CONTINUOUS
10
6.8713
20
-4.30101
11
6.86916
21
-4.3042
0
LINE
8
BLACK
6
CONTINUOUS
10
6.86916
20
-4.3042
11
6.86597
21
-4.30634
0
LINE
8
BLACK
6
CONTINUOUS
10
6.86597
20
-4.30634
11
6.8622
21
-4.30709
0
LINE
8
BLACK
6
CONTINUOUS
10
6.8622
20
-4.30709
11
6.83661
21
-4.30709
0
LINE
8
BLACK
6
CONTINUOUS
10
6.83661
20
-4.30709
11
6.83285
21
-4.30634
0
LINE
8
BLACK
6
CONTINUOUS
10
6.83285
20
-4.30634
11
6.82965
21
-4.3042
0
LINE
8
BLACK
6
CONTINUOUS
10
6.82965
20
-4.3042
11
6.82752
21
-4.30101
0
LINE
8
BLACK
6
CONTINUOUS
10
6.82752
20
-4.30101
11
6.82677
21
-4.29724
0
LINE
8
BLACK
6
CONTINUOUS
10
6.82677
20
-4.29724
11
6.82677
21
-4.26181
0
LINE
8
BLACK
6
CONTINUOUS
10
6.82677
20
-4.26181
11
6.82752
21
-4.25804
0
LINE
8
BLACK
6
CONTINUOUS
10
6.82752
20
-4.25804
11
6.82965
21
-4.25485
0
LINE
8
BLACK
6
CONTINUOUS
10
6.82965
20
-4.25485
11
6.83285
21
-4.25272
0
LINE
8
BLACK
6
CONTINUOUS
10
6.83285
20
-4.25272
11
6.83661
21
-4.25197
0
LINE
8
BLACK
6
CONTINUOUS
10
6.83661
20
-4.25197
11
6.8622
21
-4.25197
0
LINE
8
BLACK
6
CONTINUOUS
10
6.8622
20
-4.25197
11
6.86597
21
-4.25272
0
LINE
8
BLACK
6
CONTINUOUS
10
6.51772
20
-4.28642
11
6.46969
21
-4.28642
0
LINE
8
BLACK
6
CONTINUOUS
10
6.46969
20
-4.28642
11
6.46969
21
-4.26083
0
LINE
8
BLACK
6
CONTINUOUS
10
6.46969
20
-4.26083
11
6.51772
21
-4.26083
0
LINE
8
BLACK
6
CONTINUOUS
10
6.51772
20
-4.26083
11
6.51772
21
-4.28642
0
LINE
8
BLACK
6
CONTINUOUS
10
6.78034
20
-4.1228
11
6.78353
21
-4.12493
0
LINE
8
BLACK
6
CONTINUOUS
10
6.78353
20
-4.12493
11
6.78567
21
-4.12812
0
LINE
8
BLACK
6
CONTINUOUS
10
6.78567
20
-4.12812
11
6.78642
21
-4.13189
0
LINE
8
BLACK
6
CONTINUOUS
10
6.78642
20
-4.13189
11
6.78642
21
-4.16732
0
LINE
8
BLACK
6
CONTINUOUS
10
6.78642
20
-4.16732
11
6.78567
21
-4.17109
0
LINE
8
BLACK
6
CONTINUOUS
10
6.78567
20
-4.17109
11
6.78353
21
-4.17428
0
LINE
8
BLACK
6
CONTINUOUS
10
6.78353
20
-4.17428
11
6.78034
21
-4.17642
0
LINE
8
BLACK
6
CONTINUOUS
10
6.78034
20
-4.17642
11
6.77657
21
-4.17717
0
LINE
8
BLACK
6
CONTINUOUS
10
6.77657
20
-4.17717
11
6.75098
21
-4.17717
0
LINE
8
BLACK
6
CONTINUOUS
10
6.75098
20
-4.17717
11
6.74722
21
-4.17642
0
LINE
8
BLACK
6
CONTINUOUS
10
6.74722
20
-4.17642
11
6.74402
21
-4.17428
0
LINE
8
BLACK
6
CONTINUOUS
10
6.74402
20
-4.17428
11
6.74189
21
-4.17109
0
LINE
8
BLACK
6
CONTINUOUS
10
6.74189
20
-4.17109
11
6.74114
21
-4.16732
0
LINE
8
BLACK
6
CONTINUOUS
10
6.74114
20
-4.16732
11
6.74114
21
-4.13189
0
LINE
8
BLACK
6
CONTINUOUS
10
6.74114
20
-4.13189
11
6.74189
21
-4.12812
0
LINE
8
BLACK
6
CONTINUOUS
10
6.74189
20
-4.12812
11
6.74402
21
-4.12493
0
LINE
8
BLACK
6
CONTINUOUS
10
6.74402
20
-4.12493
11
6.74722
21
-4.1228
0
LINE
8
BLACK
6
CONTINUOUS
10
6.74722
20
-4.1228
11
6.75098
21
-4.12205
0
LINE
8
BLACK
6
CONTINUOUS
10
6.75098
20
-4.12205
11
6.77657
21
-4.12205
0
LINE
8
BLACK
6
CONTINUOUS
10
6.77657
20
-4.12205
11
6.78034
21
-4.1228
0
LINE
8
BLACK
6
CONTINUOUS
10
6.69963
20
-4.1228
11
6.70283
21
-4.12493
0
LINE
8
BLACK
6
CONTINUOUS
10
6.70283
20
-4.12493
11
6.70496
21
-4.12812
0
LINE
8
BLACK
6
CONTINUOUS
10
6.70496
20
-4.12812
11
6.70571
21
-4.13189
0
LINE
8
BLACK
6
CONTINUOUS
10
6.70571
20
-4.13189
11
6.70571
21
-4.16732
0
LINE
8
BLACK
6
CONTINUOUS
10
6.70571
20
-4.16732
11
6.70496
21
-4.17109
0
LINE
8
BLACK
6
CONTINUOUS
10
6.70496
20
-4.17109
11
6.70283
21
-4.17428
0
LINE
8
BLACK
6
CONTINUOUS
10
6.70283
20
-4.17428
11
6.69963
21
-4.17642
0
LINE
8
BLACK
6
CONTINUOUS
10
6.69963
20
-4.17642
11
6.69587
21
-4.17717
0
LINE
8
BLACK
6
CONTINUOUS
10
6.69587
20
-4.17717
11
6.67028
21
-4.17717
0
LINE
8
BLACK
6
CONTINUOUS
10
6.67028
20
-4.17717
11
6.66651
21
-4.17642
0
LINE
8
BLACK
6
CONTINUOUS
10
6.66651
20
-4.17642
11
6.66332
21
-4.17428
0
LINE
8
BLACK
6
CONTINUOUS
10
6.66332
20
-4.17428
11
6.66118
21
-4.17109
0
LINE
8
BLACK
6
CONTINUOUS
10
6.66118
20
-4.17109
11
6.66043
21
-4.16732
0
LINE
8
BLACK
6
CONTINUOUS
10
6.66043
20
-4.16732
11
6.66043
21
-4.13189
0
LINE
8
BLACK
6
CONTINUOUS
10
6.66043
20
-4.13189
11
6.66118
21
-4.12812
0
LINE
8
BLACK
6
CONTINUOUS
10
6.66118
20
-4.12812
11
6.66332
21
-4.12493
0
LINE
8
BLACK
6
CONTINUOUS
10
6.66332
20
-4.12493
11
6.66651
21
-4.1228
0
LINE
8
BLACK
6
CONTINUOUS
10
6.66651
20
-4.1228
11
6.67028
21
-4.12205
0
LINE
8
BLACK
6
CONTINUOUS
10
6.67028
20
-4.12205
11
6.69587
21
-4.12205
0
LINE
8
BLACK
6
CONTINUOUS
10
6.69587
20
-4.12205
11
6.69963
21
-4.1228
0
LINE
8
BLACK
6
CONTINUOUS
10
6.51604
20
-4.10823
11
6.51796
21
-4.10951
0
LINE
8
BLACK
6
CONTINUOUS
10
6.51796
20
-4.10951
11
6.51924
21
-4.11142
0
LINE
8
BLACK
6
CONTINUOUS
10
6.51924
20
-4.11142
11
6.51969
21
-4.11368
0
LINE
8
BLACK
6
CONTINUOUS
10
6.51969
20
-4.11368
11
6.51969
21
-4.15404
0
LINE
8
BLACK
6
CONTINUOUS
10
6.51969
20
-4.15404
11
6.51924
21
-4.1563
0
LINE
8
BLACK
6
CONTINUOUS
10
6.51924
20
-4.1563
11
6.51796
21
-4.15821
0
LINE
8
BLACK
6
CONTINUOUS
10
6.51796
20
-4.15821
11
6.51604
21
-4.15949
0
LINE
8
BLACK
6
CONTINUOUS
10
6.51604
20
-4.15949
11
6.51378
21
-4.15994
0
LINE
8
BLACK
6
CONTINUOUS
10
6.51378
20
-4.15994
11
6.50197
21
-4.15994
0
LINE
8
BLACK
6
CONTINUOUS
10
6.50197
20
-4.15994
11
6.49971
21
-4.15949
0
LINE
8
BLACK
6
CONTINUOUS
10
6.49971
20
-4.15949
11
6.49779
21
-4.15821
0
LINE
8
BLACK
6
CONTINUOUS
10
6.49779
20
-4.15821
11
6.49651
21
-4.1563
0
LINE
8
BLACK
6
CONTINUOUS
10
6.49651
20
-4.1563
11
6.49606
21
-4.15404
0
LINE
8
BLACK
6
CONTINUOUS
10
6.49606
20
-4.15404
11
6.49606
21
-4.11368
0
LINE
8
BLACK
6
CONTINUOUS
10
6.49606
20
-4.11368
11
6.49651
21
-4.11142
0
LINE
8
BLACK
6
CONTINUOUS
10
6.49651
20
-4.11142
11
6.49779
21
-4.10951
0
LINE
8
BLACK
6
CONTINUOUS
10
6.49779
20
-4.10951
11
6.49971
21
-4.10823
0
LINE
8
BLACK
6
CONTINUOUS
10
6.49971
20
-4.10823
11
6.50197
21
-4.10778
0
LINE
8
BLACK
6
CONTINUOUS
10
6.50197
20
-4.10778
11
6.51378
21
-4.10778
0
LINE
8
BLACK
6
CONTINUOUS
10
6.51378
20
-4.10778
11
6.51604
21
-4.10823
0
LINE
8
BLACK
6
CONTINUOUS
10
6.59084
20
-4.10823
11
6.59276
21
-4.10951
0
LINE
8
BLACK
6
CONTINUOUS
10
6.59276
20
-4.10951
11
6.59404
21
-4.11142
0
LINE
8
BLACK
6
CONTINUOUS
10
6.59404
20
-4.11142
11
6.59449
21
-4.11368
0
LINE
8
BLACK
6
CONTINUOUS
10
6.59449
20
-4.11368
11
6.59449
21
-4.15404
0
LINE
8
BLACK
6
CONTINUOUS
10
6.59449
20
-4.15404
11
6.59404
21
-4.1563
0
LINE
8
BLACK
6
CONTINUOUS
10
6.59404
20
-4.1563
11
6.59276
21
-4.15821
0
LINE
8
BLACK
6
CONTINUOUS
10
6.59276
20
-4.15821
11
6.59084
21
-4.15949
0
LINE
8
BLACK
6
CONTINUOUS
10
6.59084
20
-4.15949
11
6.58858
21
-4.15994
0
LINE
8
BLACK
6
CONTINUOUS
10
6.58858
20
-4.15994
11
6.57677
21
-4.15994
0
LINE
8
BLACK
6
CONTINUOUS
10
6.57677
20
-4.15994
11
6.57451
21
-4.15949
0
LINE
8
BLACK
6
CONTINUOUS
10
6.57451
20
-4.15949
11
6.5726
21
-4.15821
0
LINE
8
BLACK
6
CONTINUOUS
10
6.5726
20
-4.15821
11
6.57132
21
-4.1563
0
LINE
8
BLACK
6
CONTINUOUS
10
6.57132
20
-4.1563
11
6.57087
21
-4.15404
0
LINE
8
BLACK
6
CONTINUOUS
10
6.57087
20
-4.15404
11
6.57087
21
-4.11368
0
LINE
8
BLACK
6
CONTINUOUS
10
6.57087
20
-4.11368
11
6.57132
21
-4.11142
0
LINE
8
BLACK
6
CONTINUOUS
10
6.57132
20
-4.11142
11
6.5726
21
-4.10951
0
LINE
8
BLACK
6
CONTINUOUS
10
6.5726
20
-4.10951
11
6.57451
21
-4.10823
0
LINE
8
BLACK
6
CONTINUOUS
10
6.57451
20
-4.10823
11
6.57677
21
-4.10778
0
LINE
8
BLACK
6
CONTINUOUS
10
6.57677
20
-4.10778
11
6.58858
21
-4.10778
0
LINE
8
BLACK
6
CONTINUOUS
10
6.58858
20
-4.10778
11
6.59084
21
-4.10823
0
LINE
8
BLACK
6
CONTINUOUS
10
6.93883
20
-3.77973
11
6.95369
21
-3.78127
0
LINE
8
BLACK
6
CONTINUOUS
10
6.95369
20
-3.78127
11
6.96832
21
-3.78429
0
LINE
8
BLACK
6
CONTINUOUS
10
6.96832
20
-3.78429
11
6.98256
21
-3.78879
0
LINE
8
BLACK
6
CONTINUOUS
10
6.98256
20
-3.78879
11
6.99629
21
-3.7947
0
LINE
8
BLACK
6
CONTINUOUS
10
6.99629
20
-3.7947
11
7.00934
21
-3.80196
0
LINE
8
BLACK
6
CONTINUOUS
10
7.00934
20
-3.80196
11
7.02159
21
-3.81051
0
LINE
8
BLACK
6
CONTINUOUS
10
7.02159
20
-3.81051
11
7.03292
21
-3.82025
0
LINE
8
BLACK
6
CONTINUOUS
10
7.03292
20
-3.82025
11
7.0432
21
-3.83109
0
LINE
8
BLACK
6
CONTINUOUS
10
7.0432
20
-3.83109
11
7.05234
21
-3.84291
0
LINE
8
BLACK
6
CONTINUOUS
10
7.05234
20
-3.84291
11
7.06023
21
-3.85559
0
LINE
8
BLACK
6
CONTINUOUS
10
7.06023
20
-3.85559
11
7.0668
21
-3.869
0
LINE
8
BLACK
6
CONTINUOUS
10
7.0668
20
-3.869
11
7.07198
21
-3.88302
0
LINE
8
BLACK
6
CONTINUOUS
10
7.07198
20
-3.88302
11
7.07572
21
-3.89748
0
LINE
8
BLACK
6
CONTINUOUS
10
7.07572
20
-3.89748
11
7.07798
21
-3.91225
0
LINE
8
BLACK
6
CONTINUOUS
10
7.07798
20
-3.91225
11
7.07874
21
-3.92717
0
LINE
8
BLACK
6
CONTINUOUS
10
7.07874
20
-3.92717
11
7.07874
21
-3.9282
0
LINE
8
BLACK
6
CONTINUOUS
10
7.07874
20
-3.9282
11
7.07788
21
-3.94311
0
LINE
8
BLACK
6
CONTINUOUS
10
7.07788
20
-3.94311
11
7.07551
21
-3.95786
0
LINE
8
BLACK
6
CONTINUOUS
10
7.07551
20
-3.95786
11
7.07167
21
-3.9723
0
LINE
8
BLACK
6
CONTINUOUS
10
7.07167
20
-3.9723
11
7.06639
21
-3.98627
0
LINE
8
BLACK
6
CONTINUOUS
10
7.06639
20
-3.98627
11
7.05973
21
-3.99964
0
LINE
8
BLACK
6
CONTINUOUS
10
7.05973
20
-3.99964
11
7.05174
21
-4.01227
0
LINE
8
BLACK
6
CONTINUOUS
10
7.05174
20
-4.01227
11
7.04253
21
-4.02402
0
LINE
8
BLACK
6
CONTINUOUS
10
7.04253
20
-4.02402
11
7.03217
21
-4.03479
0
LINE
8
BLACK
6
CONTINUOUS
10
7.03217
20
-4.03479
11
7.02077
21
-4.04445
0
LINE
8
BLACK
6
CONTINUOUS
10
7.02077
20
-4.04445
11
7.00846
21
-4.05291
0
LINE
8
BLACK
6
CONTINUOUS
10
7.00846
20
-4.05291
11
6.99536
21
-4.06009
0
LINE
8
BLACK
6
CONTINUOUS
10
6.99536
20
-4.06009
11
6.9816
21
-4.0659
0
LINE
8
BLACK
6
CONTINUOUS
10
6.9816
20
-4.0659
11
6.96732
21
-4.07029
0
LINE
8
BLACK
6
CONTINUOUS
10
6.96732
20
-4.07029
11
6.95267
21
-4.07322
0
LINE
8
BLACK
6
CONTINUOUS
10
6.95267
20
-4.07322
11
6.9378
21
-4.07465
0
LINE
8
BLACK
6
CONTINUOUS
10
6.9378
20
-4.07465
11
6.92286
21
-4.07457
0
LINE
8
BLACK
6
CONTINUOUS
10
6.92286
20
-4.07457
11
6.90801
21
-4.07299
0
LINE
8
BLACK
6
CONTINUOUS
10
6.90801
20
-4.07299
11
6.89339
21
-4.06991
0
LINE
8
BLACK
6
CONTINUOUS
10
6.89339
20
-4.06991
11
6.87916
21
-4.06536
0
LINE
8
BLACK
6
CONTINUOUS
10
6.87916
20
-4.06536
11
6.86546
21
-4.05941
0
LINE
8
BLACK
6
CONTINUOUS
10
6.86546
20
-4.05941
11
6.85243
21
-4.0521
0
LINE
8
BLACK
6
CONTINUOUS
10
6.85243
20
-4.0521
11
6.84021
21
-4.04351
0
LINE
8
BLACK
6
CONTINUOUS
10
6.84021
20
-4.04351
11
6.82892
21
-4.03372
0
LINE
8
BLACK
6
CONTINUOUS
10
6.82892
20
-4.03372
11
6.81867
21
-4.02285
0
LINE
8
BLACK
6
CONTINUOUS
10
6.81867
20
-4.02285
11
6.80958
21
-4.011
0
LINE
8
BLACK
6
CONTINUOUS
10
6.80958
20
-4.011
11
6.80173
21
-3.99829
0
LINE
8
BLACK
6
CONTINUOUS
10
6.80173
20
-3.99829
11
6.7952
21
-3.98485
0
LINE
8
BLACK
6
CONTINUOUS
10
6.7952
20
-3.98485
11
6.79007
21
-3.97082
0
LINE
8
BLACK
6
CONTINUOUS
10
6.79007
20
-3.97082
11
6.78638
21
-3.95635
0
LINE
8
BLACK
6
CONTINUOUS
10
6.78638
20
-3.95635
11
6.78417
21
-3.94157
0
LINE
8
BLACK
6
CONTINUOUS
10
6.78417
20
-3.94157
11
6.78347
21
-3.92665
0
LINE
8
BLACK
6
CONTINUOUS
10
6.78347
20
-3.92665
11
6.78427
21
-3.91173
0
LINE
8
BLACK
6
CONTINUOUS
10
6.78427
20
-3.91173
11
6.78658
21
-3.89697
0
LINE
8
BLACK
6
CONTINUOUS
10
6.78658
20
-3.89697
11
6.79038
21
-3.88252
0
LINE
8
BLACK
6
CONTINUOUS
10
6.79038
20
-3.88252
11
6.79561
21
-3.86853
0
LINE
8
BLACK
6
CONTINUOUS
10
6.79561
20
-3.86853
11
6.80223
21
-3.85514
0
LINE
8
BLACK
6
CONTINUOUS
10
6.80223
20
-3.85514
11
6.81016
21
-3.84248
0
LINE
8
BLACK
6
CONTINUOUS
10
6.81016
20
-3.84248
11
6.81934
21
-3.8307
0
LINE
8
BLACK
6
CONTINUOUS
10
6.81934
20
-3.8307
11
6.82966
21
-3.8199
0
LINE
8
BLACK
6
CONTINUOUS
10
6.82966
20
-3.8199
11
6.84102
21
-3.81019
0
LINE
8
BLACK
6
CONTINUOUS
10
6.84102
20
-3.81019
11
6.8533
21
-3.80169
0
LINE
8
BLACK
6
CONTINUOUS
10
6.8533
20
-3.80169
11
6.86638
21
-3.79447
0
LINE
8
BLACK
6
CONTINUOUS
10
6.86638
20
-3.79447
11
6.88012
21
-3.78861
0
LINE
8
BLACK
6
CONTINUOUS
10
6.88012
20
-3.78861
11
6.89439
21
-3.78417
0
LINE
8
BLACK
6
CONTINUOUS
10
6.89439
20
-3.78417
11
6.90903
21
-3.78119
0
LINE
8
BLACK
6
CONTINUOUS
10
6.90903
20
-3.78119
11
6.92389
21
-3.7797
0
LINE
8
BLACK
6
CONTINUOUS
10
6.92389
20
-3.7797
11
6.93883
21
-3.77973
0
LINE
8
BLACK
6
CONTINUOUS
10
6.1593
20
-3.77973
11
6.17416
21
-3.78127
0
LINE
8
BLACK
6
CONTINUOUS
10
6.17416
20
-3.78127
11
6.18879
21
-3.78429
0
LINE
8
BLACK
6
CONTINUOUS
10
6.18879
20
-3.78429
11
6.20304
21
-3.78879
0
LINE
8
BLACK
6
CONTINUOUS
10
6.20304
20
-3.78879
11
6.21676
21
-3.7947
0
LINE
8
BLACK
6
CONTINUOUS
10
6.21676
20
-3.7947
11
6.22981
21
-3.80196
0
LINE
8
BLACK
6
CONTINUOUS
10
6.22981
20
-3.80196
11
6.24206
21
-3.81051
0
LINE
8
BLACK
6
CONTINUOUS
10
6.24206
20
-3.81051
11
6.25339
21
-3.82025
0
LINE
8
BLACK
6
CONTINUOUS
10
6.25339
20
-3.82025
11
6.26367
21
-3.83109
0
LINE
8
BLACK
6
CONTINUOUS
10
6.26367
20
-3.83109
11
6.27281
21
-3.84291
0
LINE
8
BLACK
6
CONTINUOUS
10
6.27281
20
-3.84291
11
6.2807
21
-3.85559
0
LINE
8
BLACK
6
CONTINUOUS
10
6.2807
20
-3.85559
11
6.28727
21
-3.869
0
LINE
8
BLACK
6
CONTINUOUS
10
6.28727
20
-3.869
11
6.29246
21
-3.88302
0
LINE
8
BLACK
6
CONTINUOUS
10
6.29246
20
-3.88302
11
6.2962
21
-3.89748
0
LINE
8
BLACK
6
CONTINUOUS
10
6.2962
20
-3.89748
11
6.29846
21
-3.91225
0
LINE
8
BLACK
6
CONTINUOUS
10
6.29846
20
-3.91225
11
6.29921
21
-3.92717
0
LINE
8
BLACK
6
CONTINUOUS
10
6.29921
20
-3.92717
11
6.29921
21
-3.9282
0
LINE
8
BLACK
6
CONTINUOUS
10
6.29921
20
-3.9282
11
6.29835
21
-3.94311
0
LINE
8
BLACK
6
CONTINUOUS
10
6.29835
20
-3.94311
11
6.29599
21
-3.95786
0
LINE
8
BLACK
6
CONTINUOUS
10
6.29599
20
-3.95786
11
6.29215
21
-3.9723
0
LINE
8
BLACK
6
CONTINUOUS
10
6.29215
20
-3.9723
11
6.28686
21
-3.98627
0
LINE
8
BLACK
6
CONTINUOUS
10
6.28686
20
-3.98627
11
6.2802
21
-3.99964
0
LINE
8
BLACK
6
CONTINUOUS
10
6.2802
20
-3.99964
11
6.27222
21
-4.01227
0
LINE
8
BLACK
6
CONTINUOUS
10
6.27222
20
-4.01227
11
6.263
21
-4.02402
0
LINE
8
BLACK
6
CONTINUOUS
10
6.263
20
-4.02402
11
6.25264
21
-4.03479
0
LINE
8
BLACK
6
CONTINUOUS
10
6.25264
20
-4.03479
11
6.24125
21
-4.04445
0
LINE
8
BLACK
6
CONTINUOUS
10
6.24125
20
-4.04445
11
6.22893
21
-4.05291
0
LINE
8
BLACK
6
CONTINUOUS
10
6.22893
20
-4.05291
11
6.21583
21
-4.06009
0
LINE
8
BLACK
6
CONTINUOUS
10
6.21583
20
-4.06009
11
6.20207
21
-4.0659
0
LINE
8
BLACK
6
CONTINUOUS
10
6.20207
20
-4.0659
11
6.18779
21
-4.07029
0
LINE
8
BLACK
6
CONTINUOUS
10
6.18779
20
-4.07029
11
6.17314
21
-4.07322
0
LINE
8
BLACK
6
CONTINUOUS
10
6.17314
20
-4.07322
11
6.15827
21
-4.07465
0
LINE
8
BLACK
6
CONTINUOUS
10
6.15827
20
-4.07465
11
6.14333
21
-4.07457
0
LINE
8
BLACK
6
CONTINUOUS
10
6.14333
20
-4.07457
11
6.12848
21
-4.07299
0
LINE
8
BLACK
6
CONTINUOUS
10
6.12848
20
-4.07299
11
6.11386
21
-4.06991
0
LINE
8
BLACK
6
CONTINUOUS
10
6.11386
20
-4.06991
11
6.09963
21
-4.06536
0
LINE
8
BLACK
6
CONTINUOUS
10
6.09963
20
-4.06536
11
6.08593
21
-4.05941
0
LINE
8
BLACK
6
CONTINUOUS
10
6.08593
20
-4.05941
11
6.0729
21
-4.0521
0
LINE
8
BLACK
6
CONTINUOUS
10
6.0729
20
-4.0521
11
6.06068
21
-4.04351
0
LINE
8
BLACK
6
CONTINUOUS
10
6.06068
20
-4.04351
11
6.04939
21
-4.03372
0
LINE
8
BLACK
6
CONTINUOUS
10
6.04939
20
-4.03372
11
6.03914
21
-4.02285
0
LINE
8
BLACK
6
CONTINUOUS
10
6.03914
20
-4.02285
11
6.03005
21
-4.011
0
LINE
8
BLACK
6
CONTINUOUS
10
6.03005
20
-4.011
11
6.0222
21
-3.99829
0
LINE
8
BLACK
6
CONTINUOUS
10
6.0222
20
-3.99829
11
6.01567
21
-3.98485
0
LINE
8
BLACK
6
CONTINUOUS
10
6.01567
20
-3.98485
11
6.01054
21
-3.97082
0
LINE
8
BLACK
6
CONTINUOUS
10
6.01054
20
-3.97082
11
6.00685
21
-3.95635
0
LINE
8
BLACK
6
CONTINUOUS
10
6.00685
20
-3.95635
11
6.00464
21
-3.94157
0
LINE
8
BLACK
6
CONTINUOUS
10
6.00464
20
-3.94157
11
6.00394
21
-3.92665
0
LINE
8
BLACK
6
CONTINUOUS
10
6.00394
20
-3.92665
11
6.00475
21
-3.91173
0
LINE
8
BLACK
6
CONTINUOUS
10
6.00475
20
-3.91173
11
6.00706
21
-3.89697
0
LINE
8
BLACK
6
CONTINUOUS
10
6.00706
20
-3.89697
11
6.01085
21
-3.88252
0
LINE
8
BLACK
6
CONTINUOUS
10
6.01085
20
-3.88252
11
6.01608
21
-3.86853
0
LINE
8
BLACK
6
CONTINUOUS
10
6.01608
20
-3.86853
11
6.0227
21
-3.85514
0
LINE
8
BLACK
6
CONTINUOUS
10
6.0227
20
-3.85514
11
6.03064
21
-3.84248
0
LINE
8
BLACK
6
CONTINUOUS
10
6.03064
20
-3.84248
11
6.03981
21
-3.8307
0
LINE
8
BLACK
6
CONTINUOUS
10
6.03981
20
-3.8307
11
6.05013
21
-3.8199
0
LINE
8
BLACK
6
CONTINUOUS
10
6.05013
20
-3.8199
11
6.06149
21
-3.81019
0
LINE
8
BLACK
6
CONTINUOUS
10
6.06149
20
-3.81019
11
6.07378
21
-3.80169
0
LINE
8
BLACK
6
CONTINUOUS
10
6.07378
20
-3.80169
11
6.08685
21
-3.79447
0
LINE
8
BLACK
6
CONTINUOUS
10
6.08685
20
-3.79447
11
6.1006
21
-3.78861
0
LINE
8
BLACK
6
CONTINUOUS
10
6.1006
20
-3.78861
11
6.11486
21
-3.78417
0
LINE
8
BLACK
6
CONTINUOUS
10
6.11486
20
-3.78417
11
6.1295
21
-3.78119
0
LINE
8
BLACK
6
CONTINUOUS
10
6.1295
20
-3.78119
11
6.14436
21
-3.7797
0
LINE
8
BLACK
6
CONTINUOUS
10
6.14436
20
-3.7797
11
6.1593
21
-3.77973
0
LINE
8
BLACK
6
CONTINUOUS
10
6.55344
20
-4.01866
11
6.55536
21
-4.01994
0
LINE
8
BLACK
6
CONTINUOUS
10
6.55536
20
-4.01994
11
6.55664
21
-4.02185
0
LINE
8
BLACK
6
CONTINUOUS
10
6.55664
20
-4.02185
11
6.55709
21
-4.02411
0
LINE
8
BLACK
6
CONTINUOUS
10
6.55709
20
-4.02411
11
6.55709
21
-4.06447
0
LINE
8
BLACK
6
CONTINUOUS
10
6.55709
20
-4.06447
11
6.55664
21
-4.06673
0
LINE
8
BLACK
6
CONTINUOUS
10
6.55664
20
-4.06673
11
6.55536
21
-4.06864
0
LINE
8
BLACK
6
CONTINUOUS
10
6.55536
20
-4.06864
11
6.55344
21
-4.06992
0
LINE
8
BLACK
6
CONTINUOUS
10
6.55344
20
-4.06992
11
6.55118
21
-4.07037
0
LINE
8
BLACK
6
CONTINUOUS
10
6.55118
20
-4.07037
11
6.53937
21
-4.07037
0
LINE
8
BLACK
6
CONTINUOUS
10
6.53937
20
-4.07037
11
6.53711
21
-4.06992
0
LINE
8
BLACK
6
CONTINUOUS
10
6.53711
20
-4.06992
11
6.53519
21
-4.06864
0
LINE
8
BLACK
6
CONTINUOUS
10
6.53519
20
-4.06864
11
6.53391
21
-4.06673
0
LINE
8
BLACK
6
CONTINUOUS
10
6.53391
20
-4.06673
11
6.53346
21
-4.06447
0
LINE
8
BLACK
6
CONTINUOUS
10
6.53346
20
-4.06447
11
6.53346
21
-4.02411
0
LINE
8
BLACK
6
CONTINUOUS
10
6.53346
20
-4.02411
11
6.53391
21
-4.02185
0
LINE
8
BLACK
6
CONTINUOUS
10
6.53391
20
-4.02185
11
6.53519
21
-4.01994
0
LINE
8
BLACK
6
CONTINUOUS
10
6.53519
20
-4.01994
11
6.53711
21
-4.01866
0
LINE
8
BLACK
6
CONTINUOUS
10
6.53711
20
-4.01866
11
6.53937
21
-4.01821
0
LINE
8
BLACK
6
CONTINUOUS
10
6.53937
20
-4.01821
11
6.55118
21
-4.01821
0
LINE
8
BLACK
6
CONTINUOUS
10
6.55118
20
-4.01821
11
6.55344
21
-4.01866
0
LINE
8
BLACK
6
CONTINUOUS
10
6.59084
20
-4.01866
11
6.59276
21
-4.01994
0
LINE
8
BLACK
6
CONTINUOUS
10
6.59276
20
-4.01994
11
6.59404
21
-4.02185
0
LINE
8
BLACK
6
CONTINUOUS
10
6.59404
20
-4.02185
11
6.59449
21
-4.02411
0
LINE
8
BLACK
6
CONTINUOUS
10
6.59449
20
-4.02411
11
6.59449
21
-4.06447
0
LINE
8
BLACK
6
CONTINUOUS
10
6.59449
20
-4.06447
11
6.59404
21
-4.06673
0
LINE
8
BLACK
6
CONTINUOUS
10
6.59404
20
-4.06673
11
6.59276
21
-4.06864
0
LINE
8
BLACK
6
CONTINUOUS
10
6.59276
20
-4.06864
11
6.59084
21
-4.06992
0
LINE
8
BLACK
6
CONTINUOUS
10
6.59084
20
-4.06992
11
6.58858
21
-4.07037
0
LINE
8
BLACK
6
CONTINUOUS
10
6.58858
20
-4.07037
11
6.57677
21
-4.07037
0
LINE
8
BLACK
6
CONTINUOUS
10
6.57677
20
-4.07037
11
6.57451
21
-4.06992
0
LINE
8
BLACK
6
CONTINUOUS
10
6.57451
20
-4.06992
11
6.5726
21
-4.06864
0
LINE
8
BLACK
6
CONTINUOUS
10
6.5726
20
-4.06864
11
6.57132
21
-4.06673
0
LINE
8
BLACK
6
CONTINUOUS
10
6.57132
20
-4.06673
11
6.57087
21
-4.06447
0
LINE
8
BLACK
6
CONTINUOUS
10
6.57087
20
-4.06447
11
6.57087
21
-4.02411
0
LINE
8
BLACK
6
CONTINUOUS
10
6.57087
20
-4.02411
11
6.57132
21
-4.02185
0
LINE
8
BLACK
6
CONTINUOUS
10
6.57132
20
-4.02185
11
6.5726
21
-4.01994
0
LINE
8
BLACK
6
CONTINUOUS
10
6.5726
20
-4.01994
11
6.57451
21
-4.01866
0
LINE
8
BLACK
6
CONTINUOUS
10
6.57451
20
-4.01866
11
6.57677
21
-4.01821
0
LINE
8
BLACK
6
CONTINUOUS
10
6.57677
20
-4.01821
11
6.58858
21
-4.01821
0
LINE
8
BLACK
6
CONTINUOUS
10
6.58858
20
-4.01821
11
6.59084
21
-4.01866
0
LINE
8
BLACK
6
CONTINUOUS
10
6.51604
20
-4.01866
11
6.51796
21
-4.01994
0
LINE
8
BLACK
6
CONTINUOUS
10
6.51796
20
-4.01994
11
6.51924
21
-4.02185
0
LINE
8
BLACK
6
CONTINUOUS
10
6.51924
20
-4.02185
11
6.51969
21
-4.02411
0
LINE
8
BLACK
6
CONTINUOUS
10
6.51969
20
-4.02411
11
6.51969
21
-4.06447
0
LINE
8
BLACK
6
CONTINUOUS
10
6.51969
20
-4.06447
11
6.51924
21
-4.06673
0
LINE
8
BLACK
6
CONTINUOUS
10
6.51924
20
-4.06673
11
6.51796
21
-4.06864
0
LINE
8
BLACK
6
CONTINUOUS
10
6.51796
20
-4.06864
11
6.51604
21
-4.06992
0
LINE
8
BLACK
6
CONTINUOUS
10
6.51604
20
-4.06992
11
6.51378
21
-4.07037
0
LINE
8
BLACK
6
CONTINUOUS
10
6.51378
20
-4.07037
11
6.50197
21
-4.07037
0
LINE
8
BLACK
6
CONTINUOUS
10
6.50197
20
-4.07037
11
6.49971
21
-4.06992
0
LINE
8
BLACK
6
CONTINUOUS
10
6.49971
20
-4.06992
11
6.49779
21
-4.06864
0
LINE
8
BLACK
6
CONTINUOUS
10
6.49779
20
-4.06864
11
6.49651
21
-4.06673
0
LINE
8
BLACK
6
CONTINUOUS
10
6.49651
20
-4.06673
11
6.49606
21
-4.06447
0
LINE
8
BLACK
6
CONTINUOUS
10
6.49606
20
-4.06447
11
6.49606
21
-4.02411
0
LINE
8
BLACK
6
CONTINUOUS
10
6.49606
20
-4.02411
11
6.49651
21
-4.02185
0
LINE
8
BLACK
6
CONTINUOUS
10
6.49651
20
-4.02185
11
6.49779
21
-4.01994
0
LINE
8
BLACK
6
CONTINUOUS
10
6.49779
20
-4.01994
11
6.49971
21
-4.01866
0
LINE
8
BLACK
6
CONTINUOUS
10
6.49971
20
-4.01866
11
6.50197
21
-4.01821
0
LINE
8
BLACK
6
CONTINUOUS
10
6.50197
20
-4.01821
11
6.51378
21
-4.01821
0
LINE
8
BLACK
6
CONTINUOUS
10
6.51378
20
-4.01821
11
6.51604
21
-4.01866
0
LINE
8
BLACK
6
CONTINUOUS
10
6.50918
20
-3.90774
11
6.51237
21
-3.90987
0
LINE
8
BLACK
6
CONTINUOUS
10
6.51237
20
-3.90987
11
6.51451
21
-3.91306
0
LINE
8
BLACK
6
CONTINUOUS
10
6.51451
20
-3.91306
11
6.51526
21
-3.91683
0
LINE
8
BLACK
6
CONTINUOUS
10
6.51526
20
-3.91683
11
6.51526
21
-3.96604
0
LINE
8
BLACK
6
CONTINUOUS
10
6.51526
20
-3.96604
11
6.51451
21
-3.96981
0
LINE
8
BLACK
6
CONTINUOUS
10
6.51451
20
-3.96981
11
6.51237
21
-3.973
0
LINE
8
BLACK
6
CONTINUOUS
10
6.51237
20
-3.973
11
6.50918
21
-3.97514
0
LINE
8
BLACK
6
CONTINUOUS
10
6.50918
20
-3.97514
11
6.50541
21
-3.97589
0
LINE
8
BLACK
6
CONTINUOUS
10
6.50541
20
-3.97589
11
6.469
21
-3.97589
0
LINE
8
BLACK
6
CONTINUOUS
10
6.469
20
-3.97589
11
6.46523
21
-3.97514
0
LINE
8
BLACK
6
CONTINUOUS
10
6.46523
20
-3.97514
11
6.46204
21
-3.973
0
LINE
8
BLACK
6
CONTINUOUS
10
6.46204
20
-3.973
11
6.4599
21
-3.96981
0
LINE
8
BLACK
6
CONTINUOUS
10
6.4599
20
-3.96981
11
6.45915
21
-3.96604
0
LINE
8
BLACK
6
CONTINUOUS
10
6.45915
20
-3.96604
11
6.45915
21
-3.91683
0
LINE
8
BLACK
6
CONTINUOUS
10
6.45915
20
-3.91683
11
6.4599
21
-3.91306
0
LINE
8
BLACK
6
CONTINUOUS
10
6.4599
20
-3.91306
11
6.46204
21
-3.90987
0
LINE
8
BLACK
6
CONTINUOUS
10
6.46204
20
-3.90987
11
6.46523
21
-3.90774
0
LINE
8
BLACK
6
CONTINUOUS
10
6.46523
20
-3.90774
11
6.469
21
-3.90699
0
LINE
8
BLACK
6
CONTINUOUS
10
6.469
20
-3.90699
11
6.50541
21
-3.90699
0
LINE
8
BLACK
6
CONTINUOUS
10
6.50541
20
-3.90699
11
6.50918
21
-3.90774
0
LINE
8
BLACK
6
CONTINUOUS
10
6.62631
20
-3.90774
11
6.6295
21
-3.90987
0
LINE
8
BLACK
6
CONTINUOUS
10
6.6295
20
-3.90987
11
6.63163
21
-3.91306
0
LINE
8
BLACK
6
CONTINUOUS
10
6.63163
20
-3.91306
11
6.63238
21
-3.91683
0
LINE
8
BLACK
6
CONTINUOUS
10
6.63238
20
-3.91683
11
6.63238
21
-3.96604
0
LINE
8
BLACK
6
CONTINUOUS
10
6.63238
20
-3.96604
11
6.63163
21
-3.96981
0
LINE
8
BLACK
6
CONTINUOUS
10
6.63163
20
-3.96981
11
6.6295
21
-3.973
0
LINE
8
BLACK
6
CONTINUOUS
10
6.6295
20
-3.973
11
6.62631
21
-3.97514
0
LINE
8
BLACK
6
CONTINUOUS
10
6.62631
20
-3.97514
11
6.62254
21
-3.97589
0
LINE
8
BLACK
6
CONTINUOUS
10
6.62254
20
-3.97589
11
6.58612
21
-3.97589
0
LINE
8
BLACK
6
CONTINUOUS
10
6.58612
20
-3.97589
11
6.58236
21
-3.97514
0
LINE
8
BLACK
6
CONTINUOUS
10
6.58236
20
-3.97514
11
6.57916
21
-3.973
0
LINE
8
BLACK
6
CONTINUOUS
10
6.57916
20
-3.973
11
6.57703
21
-3.96981
0
LINE
8
BLACK
6
CONTINUOUS
10
6.57703
20
-3.96981
11
6.57628
21
-3.96604
0
LINE
8
BLACK
6
CONTINUOUS
10
6.57628
20
-3.96604
11
6.57628
21
-3.91683
0
LINE
8
BLACK
6
CONTINUOUS
10
6.57628
20
-3.91683
11
6.57703
21
-3.91306
0
LINE
8
BLACK
6
CONTINUOUS
10
6.57703
20
-3.91306
11
6.57916
21
-3.90987
0
LINE
8
BLACK
6
CONTINUOUS
10
6.57916
20
-3.90987
11
6.58236
21
-3.90774
0
LINE
8
BLACK
6
CONTINUOUS
10
6.58236
20
-3.90774
11
6.58612
21
-3.90699
0
LINE
8
BLACK
6
CONTINUOUS
10
6.58612
20
-3.90699
11
6.62254
21
-3.90699
0
LINE
8
BLACK
6
CONTINUOUS
10
6.62254
20
-3.90699
11
6.62631
21
-3.90774
0
LINE
8
BLACK
6
CONTINUOUS
10
6.55365
20
-3.67211
11
6.56004
21
-3.67496
0
LINE
8
BLACK
6
CONTINUOUS
10
6.56004
20
-3.67496
11
6.5657
21
-3.67907
0
LINE
8
BLACK
6
CONTINUOUS
10
6.5657
20
-3.67907
11
6.57038
21
-3.68427
0
LINE
8
BLACK
6
CONTINUOUS
10
6.57038
20
-3.68427
11
6.57388
21
-3.69033
0
LINE
8
BLACK
6
CONTINUOUS
10
6.57388
20
-3.69033
11
6.57604
21
-3.69698
0
LINE
8
BLACK
6
CONTINUOUS
10
6.57604
20
-3.69698
11
6.57677
21
-3.70394
0
LINE
8
BLACK
6
CONTINUOUS
10
6.57677
20
-3.70394
11
6.57604
21
-3.71089
0
LINE
8
BLACK
6
CONTINUOUS
10
6.57604
20
-3.71089
11
6.57388
21
-3.71755
0
LINE
8
BLACK
6
CONTINUOUS
10
6.57388
20
-3.71755
11
6.57038
21
-3.72361
0
LINE
8
BLACK
6
CONTINUOUS
10
6.57038
20
-3.72361
11
6.5657
21
-3.72881
0
LINE
8
BLACK
6
CONTINUOUS
10
6.5657
20
-3.72881
11
6.56004
21
-3.73292
0
LINE
8
BLACK
6
CONTINUOUS
10
6.56004
20
-3.73292
11
6.55365
21
-3.73576
0
LINE
8
BLACK
6
CONTINUOUS
10
6.55365
20
-3.73576
11
6.54681
21
-3.73722
0
LINE
8
BLACK
6
CONTINUOUS
10
6.54681
20
-3.73722
11
6.53981
21
-3.73722
0
LINE
8
BLACK
6
CONTINUOUS
10
6.53981
20
-3.73722
11
6.53297
21
-3.73576
0
LINE
8
BLACK
6
CONTINUOUS
10
6.53297
20
-3.73576
11
6.52657
21
-3.73292
0
LINE
8
BLACK
6
CONTINUOUS
10
6.52657
20
-3.73292
11
6.52091
21
-3.72881
0
LINE
8
BLACK
6
CONTINUOUS
10
6.52091
20
-3.72881
11
6.51623
21
-3.72361
0
LINE
8
BLACK
6
CONTINUOUS
10
6.51623
20
-3.72361
11
6.51274
21
-3.71755
0
LINE
8
BLACK
6
CONTINUOUS
10
6.51274
20
-3.71755
11
6.51057
21
-3.71089
0
LINE
8
BLACK
6
CONTINUOUS
10
6.51057
20
-3.71089
11
6.50984
21
-3.70394
0
LINE
8
BLACK
6
CONTINUOUS
10
6.50984
20
-3.70394
11
6.51057
21
-3.69698
0
LINE
8
BLACK
6
CONTINUOUS
10
6.51057
20
-3.69698
11
6.51274
21
-3.69033
0
LINE
8
BLACK
6
CONTINUOUS
10
6.51274
20
-3.69033
11
6.51623
21
-3.68427
0
LINE
8
BLACK
6
CONTINUOUS
10
6.51623
20
-3.68427
11
6.52091
21
-3.67907
0
LINE
8
BLACK
6
CONTINUOUS
10
6.52091
20
-3.67907
11
6.52657
21
-3.67496
0
LINE
8
BLACK
6
CONTINUOUS
10
6.52657
20
-3.67496
11
6.53297
21
-3.67211
0
LINE
8
BLACK
6
CONTINUOUS
10
6.53297
20
-3.67211
11
6.53981
21
-3.67066
0
LINE
8
BLACK
6
CONTINUOUS
10
6.53981
20
-3.67066
11
6.54681
21
-3.67066
0
LINE
8
BLACK
6
CONTINUOUS
10
6.54681
20
-3.67066
11
6.55365
21
-3.67211
0
LINE
8
BLACK
6
CONTINUOUS
10
6.55365
20
-3.57211
11
6.56004
21
-3.57496
0
LINE
8
BLACK
6
CONTINUOUS
10
6.56004
20
-3.57496
11
6.5657
21
-3.57907
0
LINE
8
BLACK
6
CONTINUOUS
10
6.5657
20
-3.57907
11
6.57038
21
-3.58427
0
LINE
8
BLACK
6
CONTINUOUS
10
6.57038
20
-3.58427
11
6.57388
21
-3.59033
0
LINE
8
BLACK
6
CONTINUOUS
10
6.57388
20
-3.59033
11
6.57604
21
-3.59698
0
LINE
8
BLACK
6
CONTINUOUS
10
6.57604
20
-3.59698
11
6.57677
21
-3.60394
0
LINE
8
BLACK
6
CONTINUOUS
10
6.57677
20
-3.60394
11
6.57604
21
-3.61089
0
LINE
8
BLACK
6
CONTINUOUS
10
6.57604
20
-3.61089
11
6.57388
21
-3.61755
0
LINE
8
BLACK
6
CONTINUOUS
10
6.57388
20
-3.61755
11
6.57038
21
-3.62361
0
LINE
8
BLACK
6
CONTINUOUS
10
6.57038
20
-3.62361
11
6.5657
21
-3.62881
0
LINE
8
BLACK
6
CONTINUOUS
10
6.5657
20
-3.62881
11
6.56004
21
-3.63292
0
LINE
8
BLACK
6
CONTINUOUS
10
6.56004
20
-3.63292
11
6.55365
21
-3.63576
0
LINE
8
BLACK
6
CONTINUOUS
10
6.55365
20
-3.63576
11
6.54681
21
-3.63722
0
LINE
8
BLACK
6
CONTINUOUS
10
6.54681
20
-3.63722
11
6.53981
21
-3.63722
0
LINE
8
BLACK
6
CONTINUOUS
10
6.53981
20
-3.63722
11
6.53297
21
-3.63576
0
LINE
8
BLACK
6
CONTINUOUS
10
6.53297
20
-3.63576
11
6.52657
21
-3.63292
0
LINE
8
BLACK
6
CONTINUOUS
10
6.52657
20
-3.63292
11
6.52091
21
-3.62881
0
LINE
8
BLACK
6
CONTINUOUS
10
6.52091
20
-3.62881
11
6.51623
21
-3.62361
0
LINE
8
BLACK
6
CONTINUOUS
10
6.51623
20
-3.62361
11
6.51274
21
-3.61755
0
LINE
8
BLACK
6
CONTINUOUS
10
6.51274
20
-3.61755
11
6.51057
21
-3.61089
0
LINE
8
BLACK
6
CONTINUOUS
10
6.51057
20
-3.61089
11
6.50984
21
-3.60394
0
LINE
8
BLACK
6
CONTINUOUS
10
6.50984
20
-3.60394
11
6.51057
21
-3.59698
0
LINE
8
BLACK
6
CONTINUOUS
10
6.51057
20
-3.59698
11
6.51274
21
-3.59033
0
LINE
8
BLACK
6
CONTINUOUS
10
6.51274
20
-3.59033
11
6.51623
21
-3.58427
0
LINE
8
BLACK
6
CONTINUOUS
10
6.51623
20
-3.58427
11
6.52091
21
-3.57907
0
LINE
8
BLACK
6
CONTINUOUS
10
6.52091
20
-3.57907
11
6.52657
21
-3.57496
0
LINE
8
BLACK
6
CONTINUOUS
10
6.52657
20
-3.57496
11
6.53297
21
-3.57211
0
LINE
8
BLACK
6
CONTINUOUS
10
6.53297
20
-3.57211
11
6.53981
21
-3.57066
0
LINE
8
BLACK
6
CONTINUOUS
10
6.53981
20
-3.57066
11
6.54681
21
-3.57066
0
LINE
8
BLACK
6
CONTINUOUS
10
6.54681
20
-3.57066
11
6.55365
21
-3.57211
0
LINE
8
BLACK
6
CONTINUOUS
10
6.05605
20
-3.54046
11
6.06044
21
-3.54269
0
LINE
8
BLACK
6
CONTINUOUS
10
6.06044
20
-3.54269
11
6.06392
21
-3.54618
0
LINE
8
BLACK
6
CONTINUOUS
10
6.06392
20
-3.54618
11
6.06616
21
-3.55057
0
LINE
8
BLACK
6
CONTINUOUS
10
6.06616
20
-3.55057
11
6.06693
21
-3.55543
0
LINE
8
BLACK
6
CONTINUOUS
10
6.06693
20
-3.55543
11
6.06693
21
-3.58693
0
LINE
8
BLACK
6
CONTINUOUS
10
6.06693
20
-3.58693
11
6.06616
21
-3.5918
0
LINE
8
BLACK
6
CONTINUOUS
10
6.06616
20
-3.5918
11
6.06392
21
-3.59619
0
LINE
8
BLACK
6
CONTINUOUS
10
6.06392
20
-3.59619
11
6.06044
21
-3.59967
0
LINE
8
BLACK
6
CONTINUOUS
10
6.06044
20
-3.59967
11
6.05605
21
-3.60191
0
LINE
8
BLACK
6
CONTINUOUS
10
6.05605
20
-3.60191
11
6.05118
21
-3.60268
0
LINE
8
BLACK
6
CONTINUOUS
10
6.05118
20
-3.60268
11
5.96457
21
-3.60268
0
LINE
8
BLACK
6
CONTINUOUS
10
5.96457
20
-3.60268
11
5.9597
21
-3.60191
0
LINE
8
BLACK
6
CONTINUOUS
10
5.9597
20
-3.60191
11
5.95531
21
-3.59967
0
LINE
8
BLACK
6
CONTINUOUS
10
5.95531
20
-3.59967
11
5.95183
21
-3.59619
0
LINE
8
BLACK
6
CONTINUOUS
10
5.95183
20
-3.59619
11
5.94959
21
-3.5918
0
LINE
8
BLACK
6
CONTINUOUS
10
5.94959
20
-3.5918
11
5.94882
21
-3.58693
0
LINE
8
BLACK
6
CONTINUOUS
10
5.94882
20
-3.58693
11
5.94882
21
-3.55543
0
LINE
8
BLACK
6
CONTINUOUS
10
5.94882
20
-3.55543
11
5.94959
21
-3.55057
0
LINE
8
BLACK
6
CONTINUOUS
10
5.94959
20
-3.55057
11
5.95183
21
-3.54618
0
LINE
8
BLACK
6
CONTINUOUS
10
5.95183
20
-3.54618
11
5.95531
21
-3.54269
0
LINE
8
BLACK
6
CONTINUOUS
10
5.95531
20
-3.54269
11
5.9597
21
-3.54046
0
LINE
8
BLACK
6
CONTINUOUS
10
5.9597
20
-3.54046
11
5.96457
21
-3.53969
0
LINE
8
BLACK
6
CONTINUOUS
10
5.96457
20
-3.53969
11
6.05118
21
-3.53969
0
LINE
8
BLACK
6
CONTINUOUS
10
6.05118
20
-3.53969
11
6.05605
21
-3.54046
0
LINE
8
BLACK
6
CONTINUOUS
10
7.13479
20
-3.53396
11
7.13918
21
-3.5362
0
LINE
8
BLACK
6
CONTINUOUS
10
7.13918
20
-3.5362
11
7.14266
21
-3.53968
0
LINE
8
BLACK
6
CONTINUOUS
10
7.14266
20
-3.53968
11
7.1449
21
-3.54407
0
LINE
8
BLACK
6
CONTINUOUS
10
7.1449
20
-3.54407
11
7.14567
21
-3.54894
0
LINE
8
BLACK
6
CONTINUOUS
10
7.14567
20
-3.54894
11
7.14567
21
-3.58043
0
LINE
8
BLACK
6
CONTINUOUS
10
7.14567
20
-3.58043
11
7.1449
21
-3.5853
0
LINE
8
BLACK
6
CONTINUOUS
10
7.1449
20
-3.5853
11
7.14266
21
-3.58969
0
LINE
8
BLACK
6
CONTINUOUS
10
7.14266
20
-3.58969
11
7.13918
21
-3.59317
0
LINE
8
BLACK
6
CONTINUOUS
10
7.13918
20
-3.59317
11
7.13479
21
-3.59541
0
LINE
8
BLACK
6
CONTINUOUS
10
7.13479
20
-3.59541
11
7.12992
21
-3.59618
0
LINE
8
BLACK
6
CONTINUOUS
10
7.12992
20
-3.59618
11
7.04331
21
-3.59618
0
LINE
8
BLACK
6
CONTINUOUS
10
7.04331
20
-3.59618
11
7.03844
21
-3.59541
0
LINE
8
BLACK
6
CONTINUOUS
10
7.03844
20
-3.59541
11
7.03405
21
-3.59317
0
LINE
8
BLACK
6
CONTINUOUS
10
7.03405
20
-3.59317
11
7.03057
21
-3.58969
0
LINE
8
BLACK
6
CONTINUOUS
10
7.03057
20
-3.58969
11
7.02833
21
-3.5853
0
LINE
8
BLACK
6
CONTINUOUS
10
7.02833
20
-3.5853
11
7.02756
21
-3.58043
0
LINE
8
BLACK
6
CONTINUOUS
10
7.02756
20
-3.58043
11
7.02756
21
-3.54894
0
LINE
8
BLACK
6
CONTINUOUS
10
7.02756
20
-3.54894
11
7.02833
21
-3.54407
0
LINE
8
BLACK
6
CONTINUOUS
10
7.02833
20
-3.54407
11
7.03057
21
-3.53968
0
LINE
8
BLACK
6
CONTINUOUS
10
7.03057
20
-3.53968
11
7.03405
21
-3.5362
0
LINE
8
BLACK
6
CONTINUOUS
10
7.03405
20
-3.5362
11
7.03844
21
-3.53396
0
LINE
8
BLACK
6
CONTINUOUS
10
7.03844
20
-3.53396
11
7.04331
21
-3.53319
0
LINE
8
BLACK
6
CONTINUOUS
10
7.04331
20
-3.53319
11
7.12992
21
-3.53319
0
LINE
8
BLACK
6
CONTINUOUS
10
7.12992
20
-3.53319
11
7.13479
21
-3.53396
0
LINE
8
BLACK
6
CONTINUOUS
10
6.57677
20
-3.5374
11
6.50984
21
-3.5374
0
LINE
8
BLACK
6
CONTINUOUS
10
6.50984
20
-3.5374
11
6.50984
21
-3.47047
0
LINE
8
BLACK
6
CONTINUOUS
10
6.50984
20
-3.47047
11
6.57677
21
-3.47047
0
LINE
8
BLACK
6
CONTINUOUS
10
6.57677
20
-3.47047
11
6.57677
21
-3.5374
0
LINE
8
BLACK
6
CONTINUOUS
10
6.05605
20
-3.45046
11
6.06044
21
-3.45269
0
LINE
8
BLACK
6
CONTINUOUS
10
6.06044
20
-3.45269
11
6.06392
21
-3.45618
0
LINE
8
BLACK
6
CONTINUOUS
10
6.06392
20
-3.45618
11
6.06616
21
-3.46057
0
LINE
8
BLACK
6
CONTINUOUS
10
6.06616
20
-3.46057
11
6.06693
21
-3.46543
0
LINE
8
BLACK
6
CONTINUOUS
10
6.06693
20
-3.46543
11
6.06693
21
-3.49693
0
LINE
8
BLACK
6
CONTINUOUS
10
6.06693
20
-3.49693
11
6.06616
21
-3.5018
0
LINE
8
BLACK
6
CONTINUOUS
10
6.06616
20
-3.5018
11
6.06392
21
-3.50619
0
LINE
8
BLACK
6
CONTINUOUS
10
6.06392
20
-3.50619
11
6.06044
21
-3.50967
0
LINE
8
BLACK
6
CONTINUOUS
10
6.06044
20
-3.50967
11
6.05605
21
-3.51191
0
LINE
8
BLACK
6
CONTINUOUS
10
6.05605
20
-3.51191
11
6.05118
21
-3.51268
0
LINE
8
BLACK
6
CONTINUOUS
10
6.05118
20
-3.51268
11
5.96457
21
-3.51268
0
LINE
8
BLACK
6
CONTINUOUS
10
5.96457
20
-3.51268
11
5.9597
21
-3.51191
0
LINE
8
BLACK
6
CONTINUOUS
10
5.9597
20
-3.51191
11
5.95531
21
-3.50967
0
LINE
8
BLACK
6
CONTINUOUS
10
5.95531
20
-3.50967
11
5.95183
21
-3.50619
0
LINE
8
BLACK
6
CONTINUOUS
10
5.95183
20
-3.50619
11
5.94959
21
-3.5018
0
LINE
8
BLACK
6
CONTINUOUS
10
5.94959
20
-3.5018
11
5.94882
21
-3.49693
0
LINE
8
BLACK
6
CONTINUOUS
10
5.94882
20
-3.49693
11
5.94882
21
-3.46543
0
LINE
8
BLACK
6
CONTINUOUS
10
5.94882
20
-3.46543
11
5.94959
21
-3.46057
0
LINE
8
BLACK
6
CONTINUOUS
10
5.94959
20
-3.46057
11
5.95183
21
-3.45618
0
LINE
8
BLACK
6
CONTINUOUS
10
5.95183
20
-3.45618
11
5.95531
21
-3.45269
0
LINE
8
BLACK
6
CONTINUOUS
10
5.95531
20
-3.45269
11
5.9597
21
-3.45046
0
LINE
8
BLACK
6
CONTINUOUS
10
5.9597
20
-3.45046
11
5.96457
21
-3.44969
0
LINE
8
BLACK
6
CONTINUOUS
10
5.96457
20
-3.44969
11
6.05118
21
-3.44969
0
LINE
8
BLACK
6
CONTINUOUS
10
6.05118
20
-3.44969
11
6.05605
21
-3.45046
0
LINE
8
BLACK
6
CONTINUOUS
10
7.13479
20
-3.44396
11
7.13918
21
-3.4462
0
LINE
8
BLACK
6
CONTINUOUS
10
7.13918
20
-3.4462
11
7.14266
21
-3.44968
0
LINE
8
BLACK
6
CONTINUOUS
10
7.14266
20
-3.44968
11
7.1449
21
-3.45407
0
LINE
8
BLACK
6
CONTINUOUS
10
7.1449
20
-3.45407
11
7.14567
21
-3.45894
0
LINE
8
BLACK
6
CONTINUOUS
10
7.14567
20
-3.45894
11
7.14567
21
-3.49043
0
LINE
8
BLACK
6
CONTINUOUS
10
7.14567
20
-3.49043
11
7.1449
21
-3.4953
0
LINE
8
BLACK
6
CONTINUOUS
10
7.1449
20
-3.4953
11
7.14266
21
-3.49969
0
LINE
8
BLACK
6
CONTINUOUS
10
7.14266
20
-3.49969
11
7.13918
21
-3.50317
0
LINE
8
BLACK
6
CONTINUOUS
10
7.13918
20
-3.50317
11
7.13479
21
-3.50541
0
LINE
8
BLACK
6
CONTINUOUS
10
7.13479
20
-3.50541
11
7.12992
21
-3.50618
0
LINE
8
BLACK
6
CONTINUOUS
10
7.12992
20
-3.50618
11
7.04331
21
-3.50618
0
LINE
8
BLACK
6
CONTINUOUS
10
7.04331
20
-3.50618
11
7.03844
21
-3.50541
0
LINE
8
BLACK
6
CONTINUOUS
10
7.03844
20
-3.50541
11
7.03405
21
-3.50317
0
LINE
8
BLACK
6
CONTINUOUS
10
7.03405
20
-3.50317
11
7.03057
21
-3.49969
0
LINE
8
BLACK
6
CONTINUOUS
10
7.03057
20
-3.49969
11
7.02833
21
-3.4953
0
LINE
8
BLACK
6
CONTINUOUS
10
7.02833
20
-3.4953
11
7.02756
21
-3.49043
0
LINE
8
BLACK
6
CONTINUOUS
10
7.02756
20
-3.49043
11
7.02756
21
-3.45894
0
LINE
8
BLACK
6
CONTINUOUS
10
7.02756
20
-3.45894
11
7.02833
21
-3.45407
0
LINE
8
BLACK
6
CONTINUOUS
10
7.02833
20
-3.45407
11
7.03057
21
-3.44968
0
LINE
8
BLACK
6
CONTINUOUS
10
7.03057
20
-3.44968
11
7.03405
21
-3.4462
0
LINE
8
BLACK
6
CONTINUOUS
10
7.03405
20
-3.4462
11
7.03844
21
-3.44396
0
LINE
8
BLACK
6
CONTINUOUS
10
7.03844
20
-3.44396
11
7.04331
21
-3.44319
0
LINE
8
BLACK
6
CONTINUOUS
10
7.04331
20
-3.44319
11
7.12992
21
-3.44319
0
LINE
8
BLACK
6
CONTINUOUS
10
7.12992
20
-3.44319
11
7.13479
21
-3.44396
  0
ENDSEC
  0
EOF
