  0
SECTION
  2
HEADER
  9
$ANGBASE
  50
0.0
  9
$ANGDIR
  70
1
  9
$MEASUREMENT
  70
0
  0
ENDSEC
  0
SECTION
  2
TABLES
  0
TABLE
  2
LTYPE
  70
4
  0
LTYPE
  5
40F
  2
CONTINUOUS
  70
0
  3
Solid line
  72
65
  73
0
  40
0.0
  0
LTYPE
  5
410
  2
DASHDOT
 70
0
  3
Dash Dot ____ _ ____ _
 72
65
 73
4
 40
2.0
 49
1.25
 49
-0.25
 49
0.25
 49
-0.25
  0
LTYPE
  5
411
  2
DASHED
 70
0
  3
Dashed __ __ __ __ __
 72
65
 73
2
 40
0.75
 49
0.5
 49
-0.25
  0
LTYPE
  5
43B
  2
DOTTED
 70
0
  3
Dotted .  .  .  .
 72
65
 73
2
 40
0.2
 49
0.0
 49
-0.2
  0
ENDTAB
  0
TABLE
  2
STYLE
  70
4
  0
STYLE
  2
KICAD
  70
0
  40
0
  41
1
  42
1
  50
0
  71
0
  3
isocp.shx
  0
STYLE
  2
KICADB
  70
0
  40
0
  41
1
  42
1
  50
0
  71
0
  3
isocp.shx
  0
STYLE
  2
KICADI
  70
0
  40
0
  41
1
  42
1
  50
15
  71
0
  3
isocp.shx
  0
STYLE
  2
KICADBI
  70
0
  40
0
  41
1
  42
1
  50
15
  71
0
  3
isocp.shx
  0
ENDTAB
  0
TABLE
  2
LAYER
  70
1
  0
LAYER
  2
BLACK
  70
0
  62
7
  6
CONTINUOUS
  0
ENDTAB
  0
ENDSEC
  0
SECTION
  2
ENTITIES
0
LINE
8
BLACK
6
CONTINUOUS
10
7.15887
20
-3.4238
11
7.15945
21
-3.4252
0
LINE
8
BLACK
6
CONTINUOUS
10
7.15945
20
-3.4252
11
7.15945
21
-5.85827
0
LINE
8
BLACK
6
CONTINUOUS
10
7.15945
20
-5.85827
11
7.15929
21
-5.85864
0
LINE
8
BLACK
6
CONTINUOUS
10
7.15929
20
-5.85864
11
7.15929
21
-5.85905
0
LINE
8
BLACK
6
CONTINUOUS
10
7.15929
20
-5.85905
11
7.15902
21
-5.85931
0
LINE
8
BLACK
6
CONTINUOUS
10
7.15902
20
-5.85931
11
7.15887
21
-5.85966
0
LINE
8
BLACK
6
CONTINUOUS
10
7.15887
20
-5.85966
11
7.1585
21
-5.85981
0
LINE
8
BLACK
6
CONTINUOUS
10
7.1585
20
-5.85981
11
7.15821
21
-5.8601
0
LINE
8
BLACK
6
CONTINUOUS
10
7.15821
20
-5.8601
11
7.15821
21
-5.8601
0
LINE
8
BLACK
6
CONTINUOUS
10
7.15821
20
-5.8601
11
7.1115
21
-5.87788
0
LINE
8
BLACK
6
CONTINUOUS
10
7.1115
20
-5.87788
11
7.06428
21
-5.89424
0
LINE
8
BLACK
6
CONTINUOUS
10
7.06428
20
-5.89424
11
7.01659
21
-5.90919
0
LINE
8
BLACK
6
CONTINUOUS
10
7.01659
20
-5.90919
11
6.96847
21
-5.92269
0
LINE
8
BLACK
6
CONTINUOUS
10
6.96847
20
-5.92269
11
6.91996
21
-5.93474
0
LINE
8
BLACK
6
CONTINUOUS
10
6.91996
20
-5.93474
11
6.87112
21
-5.94532
0
LINE
8
BLACK
6
CONTINUOUS
10
6.87112
20
-5.94532
11
6.82198
21
-5.95444
0
LINE
8
BLACK
6
CONTINUOUS
10
6.82198
20
-5.95444
11
6.77259
21
-5.96207
0
LINE
8
BLACK
6
CONTINUOUS
10
6.77259
20
-5.96207
11
6.72299
21
-5.96822
0
LINE
8
BLACK
6
CONTINUOUS
10
6.72299
20
-5.96822
11
6.67323
21
-5.97287
0
LINE
8
BLACK
6
CONTINUOUS
10
6.67323
20
-5.97287
11
6.62335
21
-5.97603
0
LINE
8
BLACK
6
CONTINUOUS
10
6.62335
20
-5.97603
11
6.5734
21
-5.97768
0
LINE
8
BLACK
6
CONTINUOUS
10
6.5734
20
-5.97768
11
6.52342
21
-5.97784
0
LINE
8
BLACK
6
CONTINUOUS
10
6.52342
20
-5.97784
11
6.47346
21
-5.97649
0
LINE
8
BLACK
6
CONTINUOUS
10
6.47346
20
-5.97649
11
6.42357
21
-5.97364
0
LINE
8
BLACK
6
CONTINUOUS
10
6.42357
20
-5.97364
11
6.37378
21
-5.96929
0
LINE
8
BLACK
6
CONTINUOUS
10
6.37378
20
-5.96929
11
6.32414
21
-5.96345
0
LINE
8
BLACK
6
CONTINUOUS
10
6.32414
20
-5.96345
11
6.27471
21
-5.95612
0
LINE
8
BLACK
6
CONTINUOUS
10
6.27471
20
-5.95612
11
6.22551
21
-5.94731
0
LINE
8
BLACK
6
CONTINUOUS
10
6.22551
20
-5.94731
11
6.1766
21
-5.93702
0
LINE
8
BLACK
6
CONTINUOUS
10
6.1766
20
-5.93702
11
6.12803
21
-5.92527
0
LINE
8
BLACK
6
CONTINUOUS
10
6.12803
20
-5.92527
11
6.07983
21
-5.91206
0
LINE
8
BLACK
6
CONTINUOUS
10
6.07983
20
-5.91206
11
6.03204
21
-5.89741
0
LINE
8
BLACK
6
CONTINUOUS
10
6.03204
20
-5.89741
11
5.98472
21
-5.88134
0
LINE
8
BLACK
6
CONTINUOUS
10
5.98472
20
-5.88134
11
5.93791
21
-5.86384
0
LINE
8
BLACK
6
CONTINUOUS
10
5.93791
20
-5.86384
11
5.93791
21
-5.86384
0
LINE
8
BLACK
6
CONTINUOUS
10
5.93791
20
-5.86384
11
5.93761
21
-5.86356
0
LINE
8
BLACK
6
CONTINUOUS
10
5.93761
20
-5.86356
11
5.93723
21
-5.8634
0
LINE
8
BLACK
6
CONTINUOUS
10
5.93723
20
-5.8634
11
5.93709
21
-5.86306
0
LINE
8
BLACK
6
CONTINUOUS
10
5.93709
20
-5.86306
11
5.93682
21
-5.8628
0
LINE
8
BLACK
6
CONTINUOUS
10
5.93682
20
-5.8628
11
5.93681
21
-5.86239
0
LINE
8
BLACK
6
CONTINUOUS
10
5.93681
20
-5.86239
11
5.93665
21
-5.86201
0
LINE
8
BLACK
6
CONTINUOUS
10
5.93665
20
-5.86201
11
5.93504
21
-3.4252
0
LINE
8
BLACK
6
CONTINUOUS
10
5.93504
20
-3.4252
11
5.93504
21
-3.4252
0
LINE
8
BLACK
6
CONTINUOUS
10
5.93504
20
-3.4252
11
5.93504
21
-3.4252
0
LINE
8
BLACK
6
CONTINUOUS
10
5.93504
20
-3.4252
11
5.93533
21
-3.4245
0
LINE
8
BLACK
6
CONTINUOUS
10
5.93533
20
-3.4245
11
5.93562
21
-3.42381
0
LINE
8
BLACK
6
CONTINUOUS
10
5.93562
20
-3.42381
11
5.93562
21
-3.42381
0
LINE
8
BLACK
6
CONTINUOUS
10
5.93562
20
-3.42381
11
5.93562
21
-3.4238
0
LINE
8
BLACK
6
CONTINUOUS
10
5.93562
20
-3.4238
11
5.93631
21
-3.42352
0
LINE
8
BLACK
6
CONTINUOUS
10
5.93631
20
-3.42352
11
5.93701
21
-3.42323
0
LINE
8
BLACK
6
CONTINUOUS
10
5.93701
20
-3.42323
11
5.93701
21
-3.42323
0
LINE
8
BLACK
6
CONTINUOUS
10
5.93701
20
-3.42323
11
5.93701
21
-3.42323
0
LINE
8
BLACK
6
CONTINUOUS
10
5.93701
20
-3.42323
11
7.15748
21
-3.42323
0
LINE
8
BLACK
6
CONTINUOUS
10
7.15748
20
-3.42323
11
7.15887
21
-3.4238
0
LINE
8
BLACK
6
CONTINUOUS
10
5.93898
20
-3.42717
11
5.94059
21
-5.86084
0
LINE
8
BLACK
6
CONTINUOUS
10
5.94059
20
-5.86084
11
5.98598
21
-5.8778
0
LINE
8
BLACK
6
CONTINUOUS
10
5.98598
20
-5.8778
11
6.0332
21
-5.89385
0
LINE
8
BLACK
6
CONTINUOUS
10
6.0332
20
-5.89385
11
6.08087
21
-5.90846
0
LINE
8
BLACK
6
CONTINUOUS
10
6.08087
20
-5.90846
11
6.12896
21
-5.92164
0
LINE
8
BLACK
6
CONTINUOUS
10
6.12896
20
-5.92164
11
6.17743
21
-5.93336
0
LINE
8
BLACK
6
CONTINUOUS
10
6.17743
20
-5.93336
11
6.22623
21
-5.94363
0
LINE
8
BLACK
6
CONTINUOUS
10
6.22623
20
-5.94363
11
6.27531
21
-5.95242
0
LINE
8
BLACK
6
CONTINUOUS
10
6.27531
20
-5.95242
11
6.32464
21
-5.95973
0
LINE
8
BLACK
6
CONTINUOUS
10
6.32464
20
-5.95973
11
6.37416
21
-5.96556
0
LINE
8
BLACK
6
CONTINUOUS
10
6.37416
20
-5.96556
11
6.42384
21
-5.9699
0
LINE
8
BLACK
6
CONTINUOUS
10
6.42384
20
-5.9699
11
6.47362
21
-5.97274
0
LINE
8
BLACK
6
CONTINUOUS
10
6.47362
20
-5.97274
11
6.52347
21
-5.97409
0
LINE
8
BLACK
6
CONTINUOUS
10
6.52347
20
-5.97409
11
6.57333
21
-5.97393
0
LINE
8
BLACK
6
CONTINUOUS
10
6.57333
20
-5.97393
11
6.62317
21
-5.97228
0
LINE
8
BLACK
6
CONTINUOUS
10
6.62317
20
-5.97228
11
6.67294
21
-5.96913
0
LINE
8
BLACK
6
CONTINUOUS
10
6.67294
20
-5.96913
11
6.72259
21
-5.96449
0
LINE
8
BLACK
6
CONTINUOUS
10
6.72259
20
-5.96449
11
6.77207
21
-5.95836
0
LINE
8
BLACK
6
CONTINUOUS
10
6.77207
20
-5.95836
11
6.82135
21
-5.95074
0
LINE
8
BLACK
6
CONTINUOUS
10
6.82135
20
-5.95074
11
6.87038
21
-5.94165
0
LINE
8
BLACK
6
CONTINUOUS
10
6.87038
20
-5.94165
11
6.91911
21
-5.93109
0
LINE
8
BLACK
6
CONTINUOUS
10
6.91911
20
-5.93109
11
6.96751
21
-5.91906
0
LINE
8
BLACK
6
CONTINUOUS
10
6.96751
20
-5.91906
11
7.01552
21
-5.90559
0
LINE
8
BLACK
6
CONTINUOUS
10
7.01552
20
-5.90559
11
7.0631
21
-5.89068
0
LINE
8
BLACK
6
CONTINUOUS
10
7.0631
20
-5.89068
11
7.11022
21
-5.87435
0
LINE
8
BLACK
6
CONTINUOUS
10
7.11022
20
-5.87435
11
7.15551
21
-5.85711
0
LINE
8
BLACK
6
CONTINUOUS
10
7.15551
20
-5.85711
11
7.15551
21
-3.42717
0
LINE
8
BLACK
6
CONTINUOUS
10
7.15551
20
-3.42717
11
5.93898
21
-3.42717
  0
ENDSEC
  0
EOF
