  0
SECTION
  2
HEADER
  9
$ANGBASE
  50
0.0
  9
$ANGDIR
  70
1
  9
$MEASUREMENT
  70
0
  0
ENDSEC
  0
SECTION
  2
TABLES
  0
TABLE
  2
LTYPE
  70
4
  0
LTYPE
  5
40F
  2
CONTINUOUS
  70
0
  3
Solid line
  72
65
  73
0
  40
0.0
  0
LTYPE
  5
410
  2
DASHDOT
 70
0
  3
Dash Dot ____ _ ____ _
 72
65
 73
4
 40
2.0
 49
1.25
 49
-0.25
 49
0.25
 49
-0.25
  0
LTYPE
  5
411
  2
DASHED
 70
0
  3
Dashed __ __ __ __ __
 72
65
 73
2
 40
0.75
 49
0.5
 49
-0.25
  0
LTYPE
  5
43B
  2
DOTTED
 70
0
  3
Dotted .  .  .  .
 72
65
 73
2
 40
0.2
 49
0.0
 49
-0.2
  0
ENDTAB
  0
TABLE
  2
STYLE
  70
4
  0
STYLE
  2
KICAD
  70
0
  40
0
  41
1
  42
1
  50
0
  71
0
  3
isocp.shx
  0
STYLE
  2
KICADB
  70
0
  40
0
  41
1
  42
1
  50
0
  71
0
  3
isocp.shx
  0
STYLE
  2
KICADI
  70
0
  40
0
  41
1
  42
1
  50
15
  71
0
  3
isocp.shx
  0
STYLE
  2
KICADBI
  70
0
  40
0
  41
1
  42
1
  50
15
  71
0
  3
isocp.shx
  0
ENDTAB
  0
TABLE
  2
LAYER
  70
1
  0
LAYER
  2
BLACK
  70
0
  62
7
  6
CONTINUOUS
  0
ENDTAB
  0
ENDSEC
  0
SECTION
  2
ENTITIES
0
LINE
8
BLACK
6
CONTINUOUS
10
6.80689
20
-5.90561
11
6.8062
21
-5.90394
0
LINE
8
BLACK
6
CONTINUOUS
10
6.8062
20
-5.90394
11
6.80689
21
-5.90227
0
LINE
8
BLACK
6
CONTINUOUS
10
6.80689
20
-5.90227
11
6.80856
21
-5.90157
0
LINE
8
BLACK
6
CONTINUOUS
10
6.80856
20
-5.90157
11
6.91191
21
-5.90157
0
LINE
8
BLACK
6
CONTINUOUS
10
6.91191
20
-5.90157
11
6.91191
21
-5.83071
0
LINE
8
BLACK
6
CONTINUOUS
10
6.91191
20
-5.83071
11
6.80856
21
-5.83071
0
LINE
8
BLACK
6
CONTINUOUS
10
6.80856
20
-5.83071
11
6.80689
21
-5.83002
0
LINE
8
BLACK
6
CONTINUOUS
10
6.80689
20
-5.83002
11
6.8062
21
-5.82835
0
LINE
8
BLACK
6
CONTINUOUS
10
6.8062
20
-5.82835
11
6.80689
21
-5.82668
0
LINE
8
BLACK
6
CONTINUOUS
10
6.80689
20
-5.82668
11
6.80856
21
-5.82598
0
LINE
8
BLACK
6
CONTINUOUS
10
6.80856
20
-5.82598
11
6.91427
21
-5.82598
0
LINE
8
BLACK
6
CONTINUOUS
10
6.91427
20
-5.82598
11
6.91594
21
-5.82668
0
LINE
8
BLACK
6
CONTINUOUS
10
6.91594
20
-5.82668
11
6.91663
21
-5.82835
0
LINE
8
BLACK
6
CONTINUOUS
10
6.91663
20
-5.82835
11
6.91663
21
-5.90394
0
LINE
8
BLACK
6
CONTINUOUS
10
6.91663
20
-5.90394
11
6.91594
21
-5.90561
0
LINE
8
BLACK
6
CONTINUOUS
10
6.91594
20
-5.90561
11
6.91427
21
-5.9063
0
LINE
8
BLACK
6
CONTINUOUS
10
6.91427
20
-5.9063
11
6.80856
21
-5.9063
0
LINE
8
BLACK
6
CONTINUOUS
10
6.80856
20
-5.9063
11
6.80689
21
-5.90561
0
LINE
8
BLACK
6
CONTINUOUS
10
6.2065
20
-5.90561
11
6.20581
21
-5.90394
0
LINE
8
BLACK
6
CONTINUOUS
10
6.20581
20
-5.90394
11
6.2065
21
-5.90227
0
LINE
8
BLACK
6
CONTINUOUS
10
6.2065
20
-5.90227
11
6.20817
21
-5.90157
0
LINE
8
BLACK
6
CONTINUOUS
10
6.20817
20
-5.90157
11
6.31152
21
-5.90157
0
LINE
8
BLACK
6
CONTINUOUS
10
6.31152
20
-5.90157
11
6.31152
21
-5.83071
0
LINE
8
BLACK
6
CONTINUOUS
10
6.31152
20
-5.83071
11
6.20817
21
-5.83071
0
LINE
8
BLACK
6
CONTINUOUS
10
6.20817
20
-5.83071
11
6.2065
21
-5.83002
0
LINE
8
BLACK
6
CONTINUOUS
10
6.2065
20
-5.83002
11
6.20581
21
-5.82835
0
LINE
8
BLACK
6
CONTINUOUS
10
6.20581
20
-5.82835
11
6.2065
21
-5.82668
0
LINE
8
BLACK
6
CONTINUOUS
10
6.2065
20
-5.82668
11
6.20817
21
-5.82598
0
LINE
8
BLACK
6
CONTINUOUS
10
6.20817
20
-5.82598
11
6.31388
21
-5.82598
0
LINE
8
BLACK
6
CONTINUOUS
10
6.31388
20
-5.82598
11
6.31555
21
-5.82668
0
LINE
8
BLACK
6
CONTINUOUS
10
6.31555
20
-5.82668
11
6.31624
21
-5.82835
0
LINE
8
BLACK
6
CONTINUOUS
10
6.31624
20
-5.82835
11
6.31624
21
-5.90394
0
LINE
8
BLACK
6
CONTINUOUS
10
6.31624
20
-5.90394
11
6.31555
21
-5.90561
0
LINE
8
BLACK
6
CONTINUOUS
10
6.31555
20
-5.90561
11
6.31388
21
-5.9063
0
LINE
8
BLACK
6
CONTINUOUS
10
6.31388
20
-5.9063
11
6.20817
21
-5.9063
0
LINE
8
BLACK
6
CONTINUOUS
10
6.20817
20
-5.9063
11
6.2065
21
-5.90561
0
LINE
8
BLACK
6
CONTINUOUS
10
6.23449
20
-5.77685
11
6.23462
21
-5.77696
0
LINE
8
BLACK
6
CONTINUOUS
10
6.23462
20
-5.77696
11
6.2348
21
-5.77698
0
LINE
8
BLACK
6
CONTINUOUS
10
6.2348
20
-5.77698
11
6.23855
21
-5.77886
0
LINE
8
BLACK
6
CONTINUOUS
10
6.23855
20
-5.77886
11
6.23926
21
-5.77938
0
LINE
8
BLACK
6
CONTINUOUS
10
6.23926
20
-5.77938
11
6.23932
21
-5.77941
0
LINE
8
BLACK
6
CONTINUOUS
10
6.23932
20
-5.77941
11
6.24119
21
-5.78128
0
LINE
8
BLACK
6
CONTINUOUS
10
6.24119
20
-5.78128
11
6.24178
21
-5.78212
0
LINE
8
BLACK
6
CONTINUOUS
10
6.24178
20
-5.78212
11
6.24196
21
-5.78414
0
LINE
8
BLACK
6
CONTINUOUS
10
6.24196
20
-5.78414
11
6.2408
21
-5.78579
0
LINE
8
BLACK
6
CONTINUOUS
10
6.2408
20
-5.78579
11
6.23885
21
-5.78631
0
LINE
8
BLACK
6
CONTINUOUS
10
6.23885
20
-5.78631
11
6.23701
21
-5.78546
0
LINE
8
BLACK
6
CONTINUOUS
10
6.23701
20
-5.78546
11
6.23548
21
-5.78392
0
LINE
8
BLACK
6
CONTINUOUS
10
6.23548
20
-5.78392
11
6.23278
21
-5.78257
0
LINE
8
BLACK
6
CONTINUOUS
10
6.23278
20
-5.78257
11
6.2248
21
-5.78257
0
LINE
8
BLACK
6
CONTINUOUS
10
6.2248
20
-5.78257
11
6.2221
21
-5.78392
0
LINE
8
BLACK
6
CONTINUOUS
10
6.2221
20
-5.78392
11
6.22091
21
-5.78512
0
LINE
8
BLACK
6
CONTINUOUS
10
6.22091
20
-5.78512
11
6.21956
21
-5.78782
0
LINE
8
BLACK
6
CONTINUOUS
10
6.21956
20
-5.78782
11
6.21956
21
-5.79039
0
LINE
8
BLACK
6
CONTINUOUS
10
6.21956
20
-5.79039
11
6.22106
21
-5.7949
0
LINE
8
BLACK
6
CONTINUOUS
10
6.22106
20
-5.7949
11
6.24307
21
-5.8169
0
LINE
8
BLACK
6
CONTINUOUS
10
6.24307
20
-5.8169
11
6.24344
21
-5.81743
0
LINE
8
BLACK
6
CONTINUOUS
10
6.24344
20
-5.81743
11
6.24353
21
-5.81751
0
LINE
8
BLACK
6
CONTINUOUS
10
6.24353
20
-5.81751
11
6.24355
21
-5.81759
0
LINE
8
BLACK
6
CONTINUOUS
10
6.24355
20
-5.81759
11
6.24365
21
-5.81774
0
LINE
8
BLACK
6
CONTINUOUS
10
6.24365
20
-5.81774
11
6.24373
21
-5.81863
0
LINE
8
BLACK
6
CONTINUOUS
10
6.24373
20
-5.81863
11
6.24389
21
-5.8195
0
LINE
8
BLACK
6
CONTINUOUS
10
6.24389
20
-5.8195
11
6.24382
21
-5.81962
0
LINE
8
BLACK
6
CONTINUOUS
10
6.24382
20
-5.81962
11
6.24383
21
-5.81976
0
LINE
8
BLACK
6
CONTINUOUS
10
6.24383
20
-5.81976
11
6.24332
21
-5.82048
0
LINE
8
BLACK
6
CONTINUOUS
10
6.24332
20
-5.82048
11
6.24288
21
-5.82125
0
LINE
8
BLACK
6
CONTINUOUS
10
6.24288
20
-5.82125
11
6.24275
21
-5.8213
0
LINE
8
BLACK
6
CONTINUOUS
10
6.24275
20
-5.8213
11
6.24267
21
-5.82141
0
LINE
8
BLACK
6
CONTINUOUS
10
6.24267
20
-5.82141
11
6.24181
21
-5.82164
0
LINE
8
BLACK
6
CONTINUOUS
10
6.24181
20
-5.82164
11
6.24098
21
-5.82194
0
LINE
8
BLACK
6
CONTINUOUS
10
6.24098
20
-5.82194
11
6.21661
21
-5.82194
0
LINE
8
BLACK
6
CONTINUOUS
10
6.21661
20
-5.82194
11
6.2156
21
-5.82177
0
LINE
8
BLACK
6
CONTINUOUS
10
6.2156
20
-5.82177
11
6.21405
21
-5.82047
0
LINE
8
BLACK
6
CONTINUOUS
10
6.21405
20
-5.82047
11
6.2137
21
-5.81848
0
LINE
8
BLACK
6
CONTINUOUS
10
6.2137
20
-5.81848
11
6.21471
21
-5.81673
0
LINE
8
BLACK
6
CONTINUOUS
10
6.21471
20
-5.81673
11
6.21661
21
-5.81604
0
LINE
8
BLACK
6
CONTINUOUS
10
6.21661
20
-5.81604
11
6.23385
21
-5.81604
0
LINE
8
BLACK
6
CONTINUOUS
10
6.23385
20
-5.81604
11
6.21639
21
-5.79858
0
LINE
8
BLACK
6
CONTINUOUS
10
6.21639
20
-5.79858
11
6.2158
21
-5.79774
0
LINE
8
BLACK
6
CONTINUOUS
10
6.2158
20
-5.79774
11
6.21579
21
-5.79757
0
LINE
8
BLACK
6
CONTINUOUS
10
6.21579
20
-5.79757
11
6.21568
21
-5.79743
0
LINE
8
BLACK
6
CONTINUOUS
10
6.21568
20
-5.79743
11
6.2138
21
-5.7918
0
LINE
8
BLACK
6
CONTINUOUS
10
6.2138
20
-5.7918
11
6.21368
21
-5.79093
0
LINE
8
BLACK
6
CONTINUOUS
10
6.21368
20
-5.79093
11
6.21365
21
-5.79087
0
LINE
8
BLACK
6
CONTINUOUS
10
6.21365
20
-5.79087
11
6.21365
21
-5.78712
0
LINE
8
BLACK
6
CONTINUOUS
10
6.21365
20
-5.78712
11
6.21383
21
-5.78611
0
LINE
8
BLACK
6
CONTINUOUS
10
6.21383
20
-5.78611
11
6.21394
21
-5.78598
0
LINE
8
BLACK
6
CONTINUOUS
10
6.21394
20
-5.78598
11
6.21396
21
-5.7858
0
LINE
8
BLACK
6
CONTINUOUS
10
6.21396
20
-5.7858
11
6.21584
21
-5.78205
0
LINE
8
BLACK
6
CONTINUOUS
10
6.21584
20
-5.78205
11
6.21637
21
-5.78134
0
LINE
8
BLACK
6
CONTINUOUS
10
6.21637
20
-5.78134
11
6.21639
21
-5.78128
0
LINE
8
BLACK
6
CONTINUOUS
10
6.21639
20
-5.78128
11
6.21827
21
-5.77941
0
LINE
8
BLACK
6
CONTINUOUS
10
6.21827
20
-5.77941
11
6.21899
21
-5.7789
0
LINE
8
BLACK
6
CONTINUOUS
10
6.21899
20
-5.7789
11
6.21903
21
-5.77886
0
LINE
8
BLACK
6
CONTINUOUS
10
6.21903
20
-5.77886
11
6.22278
21
-5.77698
0
LINE
8
BLACK
6
CONTINUOUS
10
6.22278
20
-5.77698
11
6.22377
21
-5.77669
0
LINE
8
BLACK
6
CONTINUOUS
10
6.22377
20
-5.77669
11
6.22394
21
-5.77673
0
LINE
8
BLACK
6
CONTINUOUS
10
6.22394
20
-5.77673
11
6.2241
21
-5.77667
0
LINE
8
BLACK
6
CONTINUOUS
10
6.2241
20
-5.77667
11
6.23348
21
-5.77667
0
LINE
8
BLACK
6
CONTINUOUS
10
6.23348
20
-5.77667
11
6.23449
21
-5.77685
0
LINE
8
BLACK
6
CONTINUOUS
10
6.87738
20
-5.77674
11
6.8775
21
-5.77671
0
LINE
8
BLACK
6
CONTINUOUS
10
6.8775
20
-5.77671
11
6.87762
21
-5.77678
0
LINE
8
BLACK
6
CONTINUOUS
10
6.87762
20
-5.77678
11
6.878
21
-5.77685
0
LINE
8
BLACK
6
CONTINUOUS
10
6.878
20
-5.77685
11
6.87859
21
-5.77734
0
LINE
8
BLACK
6
CONTINUOUS
10
6.87859
20
-5.77734
11
6.87925
21
-5.77772
0
LINE
8
BLACK
6
CONTINUOUS
10
6.87925
20
-5.77772
11
6.87934
21
-5.77797
0
LINE
8
BLACK
6
CONTINUOUS
10
6.87934
20
-5.77797
11
6.87955
21
-5.77814
0
LINE
8
BLACK
6
CONTINUOUS
10
6.87955
20
-5.77814
11
6.87968
21
-5.7789
0
LINE
8
BLACK
6
CONTINUOUS
10
6.87968
20
-5.7789
11
6.87994
21
-5.77962
0
LINE
8
BLACK
6
CONTINUOUS
10
6.87994
20
-5.77962
11
6.87994
21
-5.81899
0
LINE
8
BLACK
6
CONTINUOUS
10
6.87994
20
-5.81899
11
6.87988
21
-5.81937
0
LINE
8
BLACK
6
CONTINUOUS
10
6.87988
20
-5.81937
11
6.8799
21
-5.8195
0
LINE
8
BLACK
6
CONTINUOUS
10
6.8799
20
-5.8195
11
6.87983
21
-5.81962
0
LINE
8
BLACK
6
CONTINUOUS
10
6.87983
20
-5.81962
11
6.87977
21
-5.82
0
LINE
8
BLACK
6
CONTINUOUS
10
6.87977
20
-5.82
11
6.87927
21
-5.82059
0
LINE
8
BLACK
6
CONTINUOUS
10
6.87927
20
-5.82059
11
6.87889
21
-5.82125
0
LINE
8
BLACK
6
CONTINUOUS
10
6.87889
20
-5.82125
11
6.87864
21
-5.82134
0
LINE
8
BLACK
6
CONTINUOUS
10
6.87864
20
-5.82134
11
6.87847
21
-5.82155
0
LINE
8
BLACK
6
CONTINUOUS
10
6.87847
20
-5.82155
11
6.87771
21
-5.82168
0
LINE
8
BLACK
6
CONTINUOUS
10
6.87771
20
-5.82168
11
6.87699
21
-5.82194
0
LINE
8
BLACK
6
CONTINUOUS
10
6.87699
20
-5.82194
11
6.86762
21
-5.82194
0
LINE
8
BLACK
6
CONTINUOUS
10
6.86762
20
-5.82194
11
6.86675
21
-5.82179
0
LINE
8
BLACK
6
CONTINUOUS
10
6.86675
20
-5.82179
11
6.86668
21
-5.82179
0
LINE
8
BLACK
6
CONTINUOUS
10
6.86668
20
-5.82179
11
6.86106
21
-5.81992
0
LINE
8
BLACK
6
CONTINUOUS
10
6.86106
20
-5.81992
11
6.86016
21
-5.81943
0
LINE
8
BLACK
6
CONTINUOUS
10
6.86016
20
-5.81943
11
6.86007
21
-5.81928
0
LINE
8
BLACK
6
CONTINUOUS
10
6.86007
20
-5.81928
11
6.85991
21
-5.8192
0
LINE
8
BLACK
6
CONTINUOUS
10
6.85991
20
-5.8192
11
6.85616
21
-5.81545
0
LINE
8
BLACK
6
CONTINUOUS
10
6.85616
20
-5.81545
11
6.85565
21
-5.81473
0
LINE
8
BLACK
6
CONTINUOUS
10
6.85565
20
-5.81473
11
6.8556
21
-5.81469
0
LINE
8
BLACK
6
CONTINUOUS
10
6.8556
20
-5.81469
11
6.85373
21
-5.81094
0
LINE
8
BLACK
6
CONTINUOUS
10
6.85373
20
-5.81094
11
6.85358
21
-5.81045
0
LINE
8
BLACK
6
CONTINUOUS
10
6.85358
20
-5.81045
11
6.8535
21
-5.81033
0
LINE
8
BLACK
6
CONTINUOUS
10
6.8535
20
-5.81033
11
6.85163
21
-5.80283
0
LINE
8
BLACK
6
CONTINUOUS
10
6.85163
20
-5.80283
11
6.85159
21
-5.80225
0
LINE
8
BLACK
6
CONTINUOUS
10
6.85159
20
-5.80225
11
6.85154
21
-5.80212
0
LINE
8
BLACK
6
CONTINUOUS
10
6.85154
20
-5.80212
11
6.85154
21
-5.79649
0
LINE
8
BLACK
6
CONTINUOUS
10
6.85154
20
-5.79649
11
6.85164
21
-5.79591
0
LINE
8
BLACK
6
CONTINUOUS
10
6.85164
20
-5.79591
11
6.85163
21
-5.79578
0
LINE
8
BLACK
6
CONTINUOUS
10
6.85163
20
-5.79578
11
6.8535
21
-5.78828
0
LINE
8
BLACK
6
CONTINUOUS
10
6.8535
20
-5.78828
11
6.85371
21
-5.78781
0
LINE
8
BLACK
6
CONTINUOUS
10
6.85371
20
-5.78781
11
6.85373
21
-5.78767
0
LINE
8
BLACK
6
CONTINUOUS
10
6.85373
20
-5.78767
11
6.8556
21
-5.78393
0
LINE
8
BLACK
6
CONTINUOUS
10
6.8556
20
-5.78393
11
6.85613
21
-5.78322
0
LINE
8
BLACK
6
CONTINUOUS
10
6.85613
20
-5.78322
11
6.85616
21
-5.78316
0
LINE
8
BLACK
6
CONTINUOUS
10
6.85616
20
-5.78316
11
6.85991
21
-5.77941
0
LINE
8
BLACK
6
CONTINUOUS
10
6.85991
20
-5.77941
11
6.86075
21
-5.77882
0
LINE
8
BLACK
6
CONTINUOUS
10
6.86075
20
-5.77882
11
6.86092
21
-5.7788
0
LINE
8
BLACK
6
CONTINUOUS
10
6.86092
20
-5.7788
11
6.86106
21
-5.77869
0
LINE
8
BLACK
6
CONTINUOUS
10
6.86106
20
-5.77869
11
6.86668
21
-5.77682
0
LINE
8
BLACK
6
CONTINUOUS
10
6.86668
20
-5.77682
11
6.86756
21
-5.77669
0
LINE
8
BLACK
6
CONTINUOUS
10
6.86756
20
-5.77669
11
6.86762
21
-5.77667
0
LINE
8
BLACK
6
CONTINUOUS
10
6.86762
20
-5.77667
11
6.87699
21
-5.77667
0
LINE
8
BLACK
6
CONTINUOUS
10
6.87699
20
-5.77667
11
6.87738
21
-5.77674
0
LINE
8
BLACK
6
CONTINUOUS
10
6.8681
20
-5.78257
11
6.86359
21
-5.78408
0
LINE
8
BLACK
6
CONTINUOUS
10
6.86359
20
-5.78408
11
6.86067
21
-5.78699
0
LINE
8
BLACK
6
CONTINUOUS
10
6.86067
20
-5.78699
11
6.85916
21
-5.79003
0
LINE
8
BLACK
6
CONTINUOUS
10
6.85916
20
-5.79003
11
6.85745
21
-5.79686
0
LINE
8
BLACK
6
CONTINUOUS
10
6.85745
20
-5.79686
11
6.85745
21
-5.80175
0
LINE
8
BLACK
6
CONTINUOUS
10
6.85745
20
-5.80175
11
6.85916
21
-5.80859
0
LINE
8
BLACK
6
CONTINUOUS
10
6.85916
20
-5.80859
11
6.86067
21
-5.81162
0
LINE
8
BLACK
6
CONTINUOUS
10
6.86067
20
-5.81162
11
6.86359
21
-5.81454
0
LINE
8
BLACK
6
CONTINUOUS
10
6.86359
20
-5.81454
11
6.8681
21
-5.81604
0
LINE
8
BLACK
6
CONTINUOUS
10
6.8681
20
-5.81604
11
6.87404
21
-5.81604
0
LINE
8
BLACK
6
CONTINUOUS
10
6.87404
20
-5.81604
11
6.87404
21
-5.78257
0
LINE
8
BLACK
6
CONTINUOUS
10
6.87404
20
-5.78257
11
6.8681
21
-5.78257
0
LINE
8
BLACK
6
CONTINUOUS
10
6.84238
20
-5.77685
11
6.84393
21
-5.77814
0
LINE
8
BLACK
6
CONTINUOUS
10
6.84393
20
-5.77814
11
6.84428
21
-5.78013
0
LINE
8
BLACK
6
CONTINUOUS
10
6.84428
20
-5.78013
11
6.84327
21
-5.78188
0
LINE
8
BLACK
6
CONTINUOUS
10
6.84327
20
-5.78188
11
6.84137
21
-5.78257
0
LINE
8
BLACK
6
CONTINUOUS
10
6.84137
20
-5.78257
11
6.82351
21
-5.78257
0
LINE
8
BLACK
6
CONTINUOUS
10
6.82351
20
-5.78257
11
6.83234
21
-5.79268
0
LINE
8
BLACK
6
CONTINUOUS
10
6.83234
20
-5.79268
11
6.83257
21
-5.79305
0
LINE
8
BLACK
6
CONTINUOUS
10
6.83257
20
-5.79305
11
6.83268
21
-5.79314
0
LINE
8
BLACK
6
CONTINUOUS
10
6.83268
20
-5.79314
11
6.8327
21
-5.79326
0
LINE
8
BLACK
6
CONTINUOUS
10
6.8327
20
-5.79326
11
6.83288
21
-5.79355
0
LINE
8
BLACK
6
CONTINUOUS
10
6.83288
20
-5.79355
11
6.83289
21
-5.79435
0
LINE
8
BLACK
6
CONTINUOUS
10
6.83289
20
-5.79435
11
6.83303
21
-5.79513
0
LINE
8
BLACK
6
CONTINUOUS
10
6.83303
20
-5.79513
11
6.83291
21
-5.79534
0
LINE
8
BLACK
6
CONTINUOUS
10
6.83291
20
-5.79534
11
6.83292
21
-5.79557
0
LINE
8
BLACK
6
CONTINUOUS
10
6.83292
20
-5.79557
11
6.83242
21
-5.79619
0
LINE
8
BLACK
6
CONTINUOUS
10
6.83242
20
-5.79619
11
6.83202
21
-5.79688
0
LINE
8
BLACK
6
CONTINUOUS
10
6.83202
20
-5.79688
11
6.8318
21
-5.79696
0
LINE
8
BLACK
6
CONTINUOUS
10
6.8318
20
-5.79696
11
6.83165
21
-5.79715
0
LINE
8
BLACK
6
CONTINUOUS
10
6.83165
20
-5.79715
11
6.83087
21
-5.7973
0
LINE
8
BLACK
6
CONTINUOUS
10
6.83087
20
-5.7973
11
6.83012
21
-5.79757
0
LINE
8
BLACK
6
CONTINUOUS
10
6.83012
20
-5.79757
11
6.8252
21
-5.79757
0
LINE
8
BLACK
6
CONTINUOUS
10
6.8252
20
-5.79757
11
6.8225
21
-5.79892
0
LINE
8
BLACK
6
CONTINUOUS
10
6.8225
20
-5.79892
11
6.8213
21
-5.80012
0
LINE
8
BLACK
6
CONTINUOUS
10
6.8213
20
-5.80012
11
6.81995
21
-5.80282
0
LINE
8
BLACK
6
CONTINUOUS
10
6.81995
20
-5.80282
11
6.81995
21
-5.8108
0
LINE
8
BLACK
6
CONTINUOUS
10
6.81995
20
-5.8108
11
6.8213
21
-5.81349
0
LINE
8
BLACK
6
CONTINUOUS
10
6.8213
20
-5.81349
11
6.8225
21
-5.81469
0
LINE
8
BLACK
6
CONTINUOUS
10
6.8225
20
-5.81469
11
6.8252
21
-5.81604
0
LINE
8
BLACK
6
CONTINUOUS
10
6.8252
20
-5.81604
11
6.83505
21
-5.81604
0
LINE
8
BLACK
6
CONTINUOUS
10
6.83505
20
-5.81604
11
6.83775
21
-5.81469
0
LINE
8
BLACK
6
CONTINUOUS
10
6.83775
20
-5.81469
11
6.83928
21
-5.81315
0
LINE
8
BLACK
6
CONTINUOUS
10
6.83928
20
-5.81315
11
6.84012
21
-5.81257
0
LINE
8
BLACK
6
CONTINUOUS
10
6.84012
20
-5.81257
11
6.84214
21
-5.81239
0
LINE
8
BLACK
6
CONTINUOUS
10
6.84214
20
-5.81239
11
6.84379
21
-5.81355
0
LINE
8
BLACK
6
CONTINUOUS
10
6.84379
20
-5.81355
11
6.84431
21
-5.8155
0
LINE
8
BLACK
6
CONTINUOUS
10
6.84431
20
-5.8155
11
6.84346
21
-5.81733
0
LINE
8
BLACK
6
CONTINUOUS
10
6.84346
20
-5.81733
11
6.84158
21
-5.8192
0
LINE
8
BLACK
6
CONTINUOUS
10
6.84158
20
-5.8192
11
6.84086
21
-5.81971
0
LINE
8
BLACK
6
CONTINUOUS
10
6.84086
20
-5.81971
11
6.84082
21
-5.81976
0
LINE
8
BLACK
6
CONTINUOUS
10
6.84082
20
-5.81976
11
6.83707
21
-5.82163
0
LINE
8
BLACK
6
CONTINUOUS
10
6.83707
20
-5.82163
11
6.83608
21
-5.82192
0
LINE
8
BLACK
6
CONTINUOUS
10
6.83608
20
-5.82192
11
6.83591
21
-5.82188
0
LINE
8
BLACK
6
CONTINUOUS
10
6.83591
20
-5.82188
11
6.83575
21
-5.82194
0
LINE
8
BLACK
6
CONTINUOUS
10
6.83575
20
-5.82194
11
6.8245
21
-5.82194
0
LINE
8
BLACK
6
CONTINUOUS
10
6.8245
20
-5.82194
11
6.82349
21
-5.82177
0
LINE
8
BLACK
6
CONTINUOUS
10
6.82349
20
-5.82177
11
6.82335
21
-5.82165
0
LINE
8
BLACK
6
CONTINUOUS
10
6.82335
20
-5.82165
11
6.82318
21
-5.82163
0
LINE
8
BLACK
6
CONTINUOUS
10
6.82318
20
-5.82163
11
6.81943
21
-5.81976
0
LINE
8
BLACK
6
CONTINUOUS
10
6.81943
20
-5.81976
11
6.81872
21
-5.81923
0
LINE
8
BLACK
6
CONTINUOUS
10
6.81872
20
-5.81923
11
6.81866
21
-5.8192
0
LINE
8
BLACK
6
CONTINUOUS
10
6.81866
20
-5.8192
11
6.81679
21
-5.81733
0
LINE
8
BLACK
6
CONTINUOUS
10
6.81679
20
-5.81733
11
6.81628
21
-5.81661
0
LINE
8
BLACK
6
CONTINUOUS
10
6.81628
20
-5.81661
11
6.81623
21
-5.81656
0
LINE
8
BLACK
6
CONTINUOUS
10
6.81623
20
-5.81656
11
6.81436
21
-5.81281
0
LINE
8
BLACK
6
CONTINUOUS
10
6.81436
20
-5.81281
11
6.81407
21
-5.81183
0
LINE
8
BLACK
6
CONTINUOUS
10
6.81407
20
-5.81183
11
6.81411
21
-5.81166
0
LINE
8
BLACK
6
CONTINUOUS
10
6.81411
20
-5.81166
11
6.81405
21
-5.81149
0
LINE
8
BLACK
6
CONTINUOUS
10
6.81405
20
-5.81149
11
6.81405
21
-5.80212
0
LINE
8
BLACK
6
CONTINUOUS
10
6.81405
20
-5.80212
11
6.81422
21
-5.80111
0
LINE
8
BLACK
6
CONTINUOUS
10
6.81422
20
-5.80111
11
6.81434
21
-5.80097
0
LINE
8
BLACK
6
CONTINUOUS
10
6.81434
20
-5.80097
11
6.81436
21
-5.8008
0
LINE
8
BLACK
6
CONTINUOUS
10
6.81436
20
-5.8008
11
6.81623
21
-5.79705
0
LINE
8
BLACK
6
CONTINUOUS
10
6.81623
20
-5.79705
11
6.81676
21
-5.79634
0
LINE
8
BLACK
6
CONTINUOUS
10
6.81676
20
-5.79634
11
6.81679
21
-5.79628
0
LINE
8
BLACK
6
CONTINUOUS
10
6.81679
20
-5.79628
11
6.81866
21
-5.79441
0
LINE
8
BLACK
6
CONTINUOUS
10
6.81866
20
-5.79441
11
6.81938
21
-5.7939
0
LINE
8
BLACK
6
CONTINUOUS
10
6.81938
20
-5.7939
11
6.81943
21
-5.79385
0
LINE
8
BLACK
6
CONTINUOUS
10
6.81943
20
-5.79385
11
6.82318
21
-5.79198
0
LINE
8
BLACK
6
CONTINUOUS
10
6.82318
20
-5.79198
11
6.82374
21
-5.79181
0
LINE
8
BLACK
6
CONTINUOUS
10
6.82374
20
-5.79181
11
6.81478
21
-5.78157
0
LINE
8
BLACK
6
CONTINUOUS
10
6.81478
20
-5.78157
11
6.81455
21
-5.78119
0
LINE
8
BLACK
6
CONTINUOUS
10
6.81455
20
-5.78119
11
6.81444
21
-5.7811
0
LINE
8
BLACK
6
CONTINUOUS
10
6.81444
20
-5.7811
11
6.81442
21
-5.78098
0
LINE
8
BLACK
6
CONTINUOUS
10
6.81442
20
-5.78098
11
6.81425
21
-5.78069
0
LINE
8
BLACK
6
CONTINUOUS
10
6.81425
20
-5.78069
11
6.81423
21
-5.77989
0
LINE
8
BLACK
6
CONTINUOUS
10
6.81423
20
-5.77989
11
6.81409
21
-5.77911
0
LINE
8
BLACK
6
CONTINUOUS
10
6.81409
20
-5.77911
11
6.81421
21
-5.7789
0
LINE
8
BLACK
6
CONTINUOUS
10
6.81421
20
-5.7789
11
6.8142
21
-5.77867
0
LINE
8
BLACK
6
CONTINUOUS
10
6.8142
20
-5.77867
11
6.8147
21
-5.77805
0
LINE
8
BLACK
6
CONTINUOUS
10
6.8147
20
-5.77805
11
6.8151
21
-5.77736
0
LINE
8
BLACK
6
CONTINUOUS
10
6.8151
20
-5.77736
11
6.81532
21
-5.77728
0
LINE
8
BLACK
6
CONTINUOUS
10
6.81532
20
-5.77728
11
6.81547
21
-5.7771
0
LINE
8
BLACK
6
CONTINUOUS
10
6.81547
20
-5.7771
11
6.81625
21
-5.77694
0
LINE
8
BLACK
6
CONTINUOUS
10
6.81625
20
-5.77694
11
6.817
21
-5.77667
0
LINE
8
BLACK
6
CONTINUOUS
10
6.817
20
-5.77667
11
6.84137
21
-5.77667
0
LINE
8
BLACK
6
CONTINUOUS
10
6.84137
20
-5.77667
11
6.84238
21
-5.77685
0
LINE
8
BLACK
6
CONTINUOUS
10
6.27698
20
-5.77674
11
6.27711
21
-5.77671
0
LINE
8
BLACK
6
CONTINUOUS
10
6.27711
20
-5.77671
11
6.27722
21
-5.77678
0
LINE
8
BLACK
6
CONTINUOUS
10
6.27722
20
-5.77678
11
6.27761
21
-5.77685
0
LINE
8
BLACK
6
CONTINUOUS
10
6.27761
20
-5.77685
11
6.2782
21
-5.77734
0
LINE
8
BLACK
6
CONTINUOUS
10
6.2782
20
-5.77734
11
6.27886
21
-5.77772
0
LINE
8
BLACK
6
CONTINUOUS
10
6.27886
20
-5.77772
11
6.27895
21
-5.77797
0
LINE
8
BLACK
6
CONTINUOUS
10
6.27895
20
-5.77797
11
6.27916
21
-5.77814
0
LINE
8
BLACK
6
CONTINUOUS
10
6.27916
20
-5.77814
11
6.27929
21
-5.7789
0
LINE
8
BLACK
6
CONTINUOUS
10
6.27929
20
-5.7789
11
6.27955
21
-5.77962
0
LINE
8
BLACK
6
CONTINUOUS
10
6.27955
20
-5.77962
11
6.27955
21
-5.81899
0
LINE
8
BLACK
6
CONTINUOUS
10
6.27955
20
-5.81899
11
6.27948
21
-5.81937
0
LINE
8
BLACK
6
CONTINUOUS
10
6.27948
20
-5.81937
11
6.27951
21
-5.8195
0
LINE
8
BLACK
6
CONTINUOUS
10
6.27951
20
-5.8195
11
6.27944
21
-5.81962
0
LINE
8
BLACK
6
CONTINUOUS
10
6.27944
20
-5.81962
11
6.27937
21
-5.82
0
LINE
8
BLACK
6
CONTINUOUS
10
6.27937
20
-5.82
11
6.27888
21
-5.82059
0
LINE
8
BLACK
6
CONTINUOUS
10
6.27888
20
-5.82059
11
6.2785
21
-5.82125
0
LINE
8
BLACK
6
CONTINUOUS
10
6.2785
20
-5.82125
11
6.27825
21
-5.82134
0
LINE
8
BLACK
6
CONTINUOUS
10
6.27825
20
-5.82134
11
6.27807
21
-5.82155
0
LINE
8
BLACK
6
CONTINUOUS
10
6.27807
20
-5.82155
11
6.27732
21
-5.82168
0
LINE
8
BLACK
6
CONTINUOUS
10
6.27732
20
-5.82168
11
6.2766
21
-5.82194
0
LINE
8
BLACK
6
CONTINUOUS
10
6.2766
20
-5.82194
11
6.26722
21
-5.82194
0
LINE
8
BLACK
6
CONTINUOUS
10
6.26722
20
-5.82194
11
6.26635
21
-5.82179
0
LINE
8
BLACK
6
CONTINUOUS
10
6.26635
20
-5.82179
11
6.26629
21
-5.82179
0
LINE
8
BLACK
6
CONTINUOUS
10
6.26629
20
-5.82179
11
6.26067
21
-5.81992
0
LINE
8
BLACK
6
CONTINUOUS
10
6.26067
20
-5.81992
11
6.25976
21
-5.81943
0
LINE
8
BLACK
6
CONTINUOUS
10
6.25976
20
-5.81943
11
6.25967
21
-5.81928
0
LINE
8
BLACK
6
CONTINUOUS
10
6.25967
20
-5.81928
11
6.25951
21
-5.8192
0
LINE
8
BLACK
6
CONTINUOUS
10
6.25951
20
-5.8192
11
6.25576
21
-5.81545
0
LINE
8
BLACK
6
CONTINUOUS
10
6.25576
20
-5.81545
11
6.25526
21
-5.81473
0
LINE
8
BLACK
6
CONTINUOUS
10
6.25526
20
-5.81473
11
6.25521
21
-5.81469
0
LINE
8
BLACK
6
CONTINUOUS
10
6.25521
20
-5.81469
11
6.25333
21
-5.81094
0
LINE
8
BLACK
6
CONTINUOUS
10
6.25333
20
-5.81094
11
6.25319
21
-5.81045
0
LINE
8
BLACK
6
CONTINUOUS
10
6.25319
20
-5.81045
11
6.25311
21
-5.81033
0
LINE
8
BLACK
6
CONTINUOUS
10
6.25311
20
-5.81033
11
6.25124
21
-5.80283
0
LINE
8
BLACK
6
CONTINUOUS
10
6.25124
20
-5.80283
11
6.25119
21
-5.80225
0
LINE
8
BLACK
6
CONTINUOUS
10
6.25119
20
-5.80225
11
6.25115
21
-5.80212
0
LINE
8
BLACK
6
CONTINUOUS
10
6.25115
20
-5.80212
11
6.25115
21
-5.79649
0
LINE
8
BLACK
6
CONTINUOUS
10
6.25115
20
-5.79649
11
6.25125
21
-5.79591
0
LINE
8
BLACK
6
CONTINUOUS
10
6.25125
20
-5.79591
11
6.25124
21
-5.79578
0
LINE
8
BLACK
6
CONTINUOUS
10
6.25124
20
-5.79578
11
6.25311
21
-5.78828
0
LINE
8
BLACK
6
CONTINUOUS
10
6.25311
20
-5.78828
11
6.25332
21
-5.78781
0
LINE
8
BLACK
6
CONTINUOUS
10
6.25332
20
-5.78781
11
6.25333
21
-5.78767
0
LINE
8
BLACK
6
CONTINUOUS
10
6.25333
20
-5.78767
11
6.25521
21
-5.78393
0
LINE
8
BLACK
6
CONTINUOUS
10
6.25521
20
-5.78393
11
6.25574
21
-5.78322
0
LINE
8
BLACK
6
CONTINUOUS
10
6.25574
20
-5.78322
11
6.25576
21
-5.78316
0
LINE
8
BLACK
6
CONTINUOUS
10
6.25576
20
-5.78316
11
6.25951
21
-5.77941
0
LINE
8
BLACK
6
CONTINUOUS
10
6.25951
20
-5.77941
11
6.26035
21
-5.77882
0
LINE
8
BLACK
6
CONTINUOUS
10
6.26035
20
-5.77882
11
6.26053
21
-5.7788
0
LINE
8
BLACK
6
CONTINUOUS
10
6.26053
20
-5.7788
11
6.26067
21
-5.77869
0
LINE
8
BLACK
6
CONTINUOUS
10
6.26067
20
-5.77869
11
6.26629
21
-5.77682
0
LINE
8
BLACK
6
CONTINUOUS
10
6.26629
20
-5.77682
11
6.26716
21
-5.77669
0
LINE
8
BLACK
6
CONTINUOUS
10
6.26716
20
-5.77669
11
6.26722
21
-5.77667
0
LINE
8
BLACK
6
CONTINUOUS
10
6.26722
20
-5.77667
11
6.2766
21
-5.77667
0
LINE
8
BLACK
6
CONTINUOUS
10
6.2766
20
-5.77667
11
6.27698
21
-5.77674
0
LINE
8
BLACK
6
CONTINUOUS
10
6.2677
20
-5.78257
11
6.2632
21
-5.78408
0
LINE
8
BLACK
6
CONTINUOUS
10
6.2632
20
-5.78408
11
6.26028
21
-5.78699
0
LINE
8
BLACK
6
CONTINUOUS
10
6.26028
20
-5.78699
11
6.25876
21
-5.79003
0
LINE
8
BLACK
6
CONTINUOUS
10
6.25876
20
-5.79003
11
6.25705
21
-5.79686
0
LINE
8
BLACK
6
CONTINUOUS
10
6.25705
20
-5.79686
11
6.25705
21
-5.80175
0
LINE
8
BLACK
6
CONTINUOUS
10
6.25705
20
-5.80175
11
6.25876
21
-5.80859
0
LINE
8
BLACK
6
CONTINUOUS
10
6.25876
20
-5.80859
11
6.26028
21
-5.81162
0
LINE
8
BLACK
6
CONTINUOUS
10
6.26028
20
-5.81162
11
6.2632
21
-5.81454
0
LINE
8
BLACK
6
CONTINUOUS
10
6.2632
20
-5.81454
11
6.2677
21
-5.81604
0
LINE
8
BLACK
6
CONTINUOUS
10
6.2677
20
-5.81604
11
6.27365
21
-5.81604
0
LINE
8
BLACK
6
CONTINUOUS
10
6.27365
20
-5.81604
11
6.27365
21
-5.78257
0
LINE
8
BLACK
6
CONTINUOUS
10
6.27365
20
-5.78257
11
6.2677
21
-5.78257
0
LINE
8
BLACK
6
CONTINUOUS
10
6.53684
20
-5.66981
11
6.53701
21
-5.6698
0
LINE
8
BLACK
6
CONTINUOUS
10
6.53701
20
-5.6698
11
6.5377
21
-5.67031
0
LINE
8
BLACK
6
CONTINUOUS
10
6.5377
20
-5.67031
11
6.53844
21
-5.67074
0
LINE
8
BLACK
6
CONTINUOUS
10
6.53844
20
-5.67074
11
6.5385
21
-5.67089
0
LINE
8
BLACK
6
CONTINUOUS
10
6.5385
20
-5.67089
11
6.53864
21
-5.671
0
LINE
8
BLACK
6
CONTINUOUS
10
6.53864
20
-5.671
11
6.54223
21
-5.67638
0
LINE
8
BLACK
6
CONTINUOUS
10
6.54223
20
-5.67638
11
6.54543
21
-5.67958
0
LINE
8
BLACK
6
CONTINUOUS
10
6.54543
20
-5.67958
11
6.54875
21
-5.68124
0
LINE
8
BLACK
6
CONTINUOUS
10
6.54875
20
-5.68124
11
6.54958
21
-5.68185
0
LINE
8
BLACK
6
CONTINUOUS
10
6.54958
20
-5.68185
11
6.55038
21
-5.6837
0
LINE
8
BLACK
6
CONTINUOUS
10
6.55038
20
-5.6837
11
6.5498
21
-5.68564
0
LINE
8
BLACK
6
CONTINUOUS
10
6.5498
20
-5.68564
11
6.54812
21
-5.68675
0
LINE
8
BLACK
6
CONTINUOUS
10
6.54812
20
-5.68675
11
6.54611
21
-5.68652
0
LINE
8
BLACK
6
CONTINUOUS
10
6.54611
20
-5.68652
11
6.54236
21
-5.68465
0
LINE
8
BLACK
6
CONTINUOUS
10
6.54236
20
-5.68465
11
6.54165
21
-5.68412
0
LINE
8
BLACK
6
CONTINUOUS
10
6.54165
20
-5.68412
11
6.54159
21
-5.68409
0
LINE
8
BLACK
6
CONTINUOUS
10
6.54159
20
-5.68409
11
6.53914
21
-5.68164
0
LINE
8
BLACK
6
CONTINUOUS
10
6.53914
20
-5.68164
11
6.53914
21
-5.70905
0
LINE
8
BLACK
6
CONTINUOUS
10
6.53914
20
-5.70905
11
6.54743
21
-5.70905
0
LINE
8
BLACK
6
CONTINUOUS
10
6.54743
20
-5.70905
11
6.54844
21
-5.70923
0
LINE
8
BLACK
6
CONTINUOUS
10
6.54844
20
-5.70923
11
6.54999
21
-5.71053
0
LINE
8
BLACK
6
CONTINUOUS
10
6.54999
20
-5.71053
11
6.55034
21
-5.71252
0
LINE
8
BLACK
6
CONTINUOUS
10
6.55034
20
-5.71252
11
6.54933
21
-5.71427
0
LINE
8
BLACK
6
CONTINUOUS
10
6.54933
20
-5.71427
11
6.54743
21
-5.71496
0
LINE
8
BLACK
6
CONTINUOUS
10
6.54743
20
-5.71496
11
6.52493
21
-5.71496
0
LINE
8
BLACK
6
CONTINUOUS
10
6.52493
20
-5.71496
11
6.52392
21
-5.71478
0
LINE
8
BLACK
6
CONTINUOUS
10
6.52392
20
-5.71478
11
6.52238
21
-5.71348
0
LINE
8
BLACK
6
CONTINUOUS
10
6.52238
20
-5.71348
11
6.52203
21
-5.71149
0
LINE
8
BLACK
6
CONTINUOUS
10
6.52203
20
-5.71149
11
6.52304
21
-5.70974
0
LINE
8
BLACK
6
CONTINUOUS
10
6.52304
20
-5.70974
11
6.52493
21
-5.70905
0
LINE
8
BLACK
6
CONTINUOUS
10
6.52493
20
-5.70905
11
6.53323
21
-5.70905
0
LINE
8
BLACK
6
CONTINUOUS
10
6.53323
20
-5.70905
11
6.53323
21
-5.67263
0
LINE
8
BLACK
6
CONTINUOUS
10
6.53323
20
-5.67263
11
6.53341
21
-5.67162
0
LINE
8
BLACK
6
CONTINUOUS
10
6.53341
20
-5.67162
11
6.53352
21
-5.67149
0
LINE
8
BLACK
6
CONTINUOUS
10
6.53352
20
-5.67149
11
6.53354
21
-5.67132
0
LINE
8
BLACK
6
CONTINUOUS
10
6.53354
20
-5.67132
11
6.53416
21
-5.67073
0
LINE
8
BLACK
6
CONTINUOUS
10
6.53416
20
-5.67073
11
6.53471
21
-5.67008
0
LINE
8
BLACK
6
CONTINUOUS
10
6.53471
20
-5.67008
11
6.53487
21
-5.67005
0
LINE
8
BLACK
6
CONTINUOUS
10
6.53487
20
-5.67005
11
6.535
21
-5.66993
0
LINE
8
BLACK
6
CONTINUOUS
10
6.535
20
-5.66993
11
6.53585
21
-5.66987
0
LINE
8
BLACK
6
CONTINUOUS
10
6.53585
20
-5.66987
11
6.5367
21
-5.66973
0
LINE
8
BLACK
6
CONTINUOUS
10
6.5367
20
-5.66973
11
6.53684
21
-5.66981
0
LINE
8
BLACK
6
CONTINUOUS
10
6.56657
20
-5.67074
11
6.56726
21
-5.67263
0
LINE
8
BLACK
6
CONTINUOUS
10
6.56726
20
-5.67263
11
6.56726
21
-5.70028
0
LINE
8
BLACK
6
CONTINUOUS
10
6.56726
20
-5.70028
11
6.56876
21
-5.70478
0
LINE
8
BLACK
6
CONTINUOUS
10
6.56876
20
-5.70478
11
6.57152
21
-5.70755
0
LINE
8
BLACK
6
CONTINUOUS
10
6.57152
20
-5.70755
11
6.57603
21
-5.70905
0
LINE
8
BLACK
6
CONTINUOUS
10
6.57603
20
-5.70905
11
6.5793
21
-5.70905
0
LINE
8
BLACK
6
CONTINUOUS
10
6.5793
20
-5.70905
11
6.58031
21
-5.70923
0
LINE
8
BLACK
6
CONTINUOUS
10
6.58031
20
-5.70923
11
6.58186
21
-5.71053
0
LINE
8
BLACK
6
CONTINUOUS
10
6.58186
20
-5.71053
11
6.58221
21
-5.71252
0
LINE
8
BLACK
6
CONTINUOUS
10
6.58221
20
-5.71252
11
6.5812
21
-5.71427
0
LINE
8
BLACK
6
CONTINUOUS
10
6.5812
20
-5.71427
11
6.5793
21
-5.71496
0
LINE
8
BLACK
6
CONTINUOUS
10
6.5793
20
-5.71496
11
6.57555
21
-5.71496
0
LINE
8
BLACK
6
CONTINUOUS
10
6.57555
20
-5.71496
11
6.57468
21
-5.7148
0
LINE
8
BLACK
6
CONTINUOUS
10
6.57468
20
-5.7148
11
6.57462
21
-5.7148
0
LINE
8
BLACK
6
CONTINUOUS
10
6.57462
20
-5.7148
11
6.569
21
-5.71293
0
LINE
8
BLACK
6
CONTINUOUS
10
6.569
20
-5.71293
11
6.56809
21
-5.71244
0
LINE
8
BLACK
6
CONTINUOUS
10
6.56809
20
-5.71244
11
6.568
21
-5.71229
0
LINE
8
BLACK
6
CONTINUOUS
10
6.568
20
-5.71229
11
6.56784
21
-5.71222
0
LINE
8
BLACK
6
CONTINUOUS
10
6.56784
20
-5.71222
11
6.56409
21
-5.70847
0
LINE
8
BLACK
6
CONTINUOUS
10
6.56409
20
-5.70847
11
6.5635
21
-5.70763
0
LINE
8
BLACK
6
CONTINUOUS
10
6.5635
20
-5.70763
11
6.56349
21
-5.70745
0
LINE
8
BLACK
6
CONTINUOUS
10
6.56349
20
-5.70745
11
6.56338
21
-5.70731
0
LINE
8
BLACK
6
CONTINUOUS
10
6.56338
20
-5.70731
11
6.5615
21
-5.70169
0
LINE
8
BLACK
6
CONTINUOUS
10
6.5615
20
-5.70169
11
6.56137
21
-5.70082
0
LINE
8
BLACK
6
CONTINUOUS
10
6.56137
20
-5.70082
11
6.56135
21
-5.70075
0
LINE
8
BLACK
6
CONTINUOUS
10
6.56135
20
-5.70075
11
6.56135
21
-5.67263
0
LINE
8
BLACK
6
CONTINUOUS
10
6.56135
20
-5.67263
11
6.56153
21
-5.67162
0
LINE
8
BLACK
6
CONTINUOUS
10
6.56153
20
-5.67162
11
6.56283
21
-5.67008
0
LINE
8
BLACK
6
CONTINUOUS
10
6.56283
20
-5.67008
11
6.56482
21
-5.66973
0
LINE
8
BLACK
6
CONTINUOUS
10
6.56482
20
-5.66973
11
6.56657
21
-5.67074
0
LINE
8
BLACK
6
CONTINUOUS
10
6.77481
20
-5.53513
11
6.77411
21
-5.53346
0
LINE
8
BLACK
6
CONTINUOUS
10
6.77411
20
-5.53346
11
6.77411
21
-4.92323
0
LINE
8
BLACK
6
CONTINUOUS
10
6.77411
20
-4.92323
11
6.77481
21
-4.92156
0
LINE
8
BLACK
6
CONTINUOUS
10
6.77481
20
-4.92156
11
6.77648
21
-4.92087
0
LINE
8
BLACK
6
CONTINUOUS
10
6.77648
20
-4.92087
11
7.13553
21
-4.92087
0
LINE
8
BLACK
6
CONTINUOUS
10
7.13553
20
-4.92087
11
7.1372
21
-4.92156
0
LINE
8
BLACK
6
CONTINUOUS
10
7.1372
20
-4.92156
11
7.13789
21
-4.92323
0
LINE
8
BLACK
6
CONTINUOUS
10
7.13789
20
-4.92323
11
7.13789
21
-5.53346
0
LINE
8
BLACK
6
CONTINUOUS
10
7.13789
20
-5.53346
11
7.1372
21
-5.53513
0
LINE
8
BLACK
6
CONTINUOUS
10
7.1372
20
-5.53513
11
7.13553
21
-5.53583
0
LINE
8
BLACK
6
CONTINUOUS
10
7.13553
20
-5.53583
11
6.77648
21
-5.53583
0
LINE
8
BLACK
6
CONTINUOUS
10
6.77648
20
-5.53583
11
6.77481
21
-5.53513
0
LINE
8
BLACK
6
CONTINUOUS
10
6.82638
20
-5.48395
11
6.82569
21
-5.48228
0
LINE
8
BLACK
6
CONTINUOUS
10
6.82569
20
-5.48228
11
6.82569
21
-4.97441
0
LINE
8
BLACK
6
CONTINUOUS
10
6.82569
20
-4.97441
11
6.82638
21
-4.97274
0
LINE
8
BLACK
6
CONTINUOUS
10
6.82638
20
-4.97274
11
6.82805
21
-4.97205
0
LINE
8
BLACK
6
CONTINUOUS
10
6.82805
20
-4.97205
11
7.08396
21
-4.97205
0
LINE
8
BLACK
6
CONTINUOUS
10
7.08396
20
-4.97205
11
7.08563
21
-4.97274
0
LINE
8
BLACK
6
CONTINUOUS
10
7.08563
20
-4.97274
11
7.08632
21
-4.97441
0
LINE
8
BLACK
6
CONTINUOUS
10
7.08632
20
-4.97441
11
7.08632
21
-5.14528
0
LINE
8
BLACK
6
CONTINUOUS
10
7.08632
20
-5.14528
11
7.13317
21
-5.14528
0
LINE
8
BLACK
6
CONTINUOUS
10
7.13317
20
-5.14528
11
7.13317
21
-4.92559
0
LINE
8
BLACK
6
CONTINUOUS
10
7.13317
20
-4.92559
11
6.77884
21
-4.92559
0
LINE
8
BLACK
6
CONTINUOUS
10
6.77884
20
-4.92559
11
6.77884
21
-5.5311
0
LINE
8
BLACK
6
CONTINUOUS
10
6.77884
20
-5.5311
11
7.13317
21
-5.5311
0
LINE
8
BLACK
6
CONTINUOUS
10
7.13317
20
-5.5311
11
7.13317
21
-5.31142
0
LINE
8
BLACK
6
CONTINUOUS
10
7.13317
20
-5.31142
11
7.08632
21
-5.31142
0
LINE
8
BLACK
6
CONTINUOUS
10
7.08632
20
-5.31142
11
7.08632
21
-5.48228
0
LINE
8
BLACK
6
CONTINUOUS
10
7.08632
20
-5.48228
11
7.08563
21
-5.48395
0
LINE
8
BLACK
6
CONTINUOUS
10
7.08563
20
-5.48395
11
7.08396
21
-5.48465
0
LINE
8
BLACK
6
CONTINUOUS
10
7.08396
20
-5.48465
11
6.82805
21
-5.48465
0
LINE
8
BLACK
6
CONTINUOUS
10
6.82805
20
-5.48465
11
6.82638
21
-5.48395
0
LINE
8
BLACK
6
CONTINUOUS
10
6.83041
20
-4.97677
11
6.83041
21
-5.47992
0
LINE
8
BLACK
6
CONTINUOUS
10
6.83041
20
-5.47992
11
7.08159
21
-5.47992
0
LINE
8
BLACK
6
CONTINUOUS
10
7.08159
20
-5.47992
11
7.08159
21
-5.30906
0
LINE
8
BLACK
6
CONTINUOUS
10
7.08159
20
-5.30906
11
7.08229
21
-5.30738
0
LINE
8
BLACK
6
CONTINUOUS
10
7.08229
20
-5.30738
11
7.08396
21
-5.30669
0
LINE
8
BLACK
6
CONTINUOUS
10
7.08396
20
-5.30669
11
7.13317
21
-5.30669
0
LINE
8
BLACK
6
CONTINUOUS
10
7.13317
20
-5.30669
11
7.13317
21
-5.15
0
LINE
8
BLACK
6
CONTINUOUS
10
7.13317
20
-5.15
11
7.08396
21
-5.15
0
LINE
8
BLACK
6
CONTINUOUS
10
7.08396
20
-5.15
11
7.08229
21
-5.14931
0
LINE
8
BLACK
6
CONTINUOUS
10
7.08229
20
-5.14931
11
7.08159
21
-5.14764
0
LINE
8
BLACK
6
CONTINUOUS
10
7.08159
20
-5.14764
11
7.08159
21
-4.97677
0
LINE
8
BLACK
6
CONTINUOUS
10
7.08159
20
-4.97677
11
6.83041
21
-4.97677
0
LINE
8
BLACK
6
CONTINUOUS
10
7.19062
20
-5.10645
11
7.191
21
-5.10642
0
LINE
8
BLACK
6
CONTINUOUS
10
7.191
20
-5.10642
11
7.19142
21
-5.10678
0
LINE
8
BLACK
6
CONTINUOUS
10
7.19142
20
-5.10678
11
7.19193
21
-5.10699
0
LINE
8
BLACK
6
CONTINUOUS
10
7.19193
20
-5.10699
11
7.19207
21
-5.10735
0
LINE
8
BLACK
6
CONTINUOUS
10
7.19207
20
-5.10735
11
7.19237
21
-5.1076
0
LINE
8
BLACK
6
CONTINUOUS
10
7.19237
20
-5.1076
11
7.19241
21
-5.10815
0
LINE
8
BLACK
6
CONTINUOUS
10
7.19241
20
-5.10815
11
7.19262
21
-5.10866
0
LINE
8
BLACK
6
CONTINUOUS
10
7.19262
20
-5.10866
11
7.19262
21
-5.14803
0
LINE
8
BLACK
6
CONTINUOUS
10
7.19262
20
-5.14803
11
7.19241
21
-5.14854
0
LINE
8
BLACK
6
CONTINUOUS
10
7.19241
20
-5.14854
11
7.19237
21
-5.14909
0
LINE
8
BLACK
6
CONTINUOUS
10
7.19237
20
-5.14909
11
7.19207
21
-5.14934
0
LINE
8
BLACK
6
CONTINUOUS
10
7.19207
20
-5.14934
11
7.19193
21
-5.1497
0
LINE
8
BLACK
6
CONTINUOUS
10
7.19193
20
-5.1497
11
7.19142
21
-5.14991
0
LINE
8
BLACK
6
CONTINUOUS
10
7.19142
20
-5.14991
11
7.191
21
-5.15027
0
LINE
8
BLACK
6
CONTINUOUS
10
7.191
20
-5.15027
11
7.19062
21
-5.15024
0
LINE
8
BLACK
6
CONTINUOUS
10
7.19062
20
-5.15024
11
7.19026
21
-5.15039
0
LINE
8
BLACK
6
CONTINUOUS
10
7.19026
20
-5.15039
11
7.18975
21
-5.15018
0
LINE
8
BLACK
6
CONTINUOUS
10
7.18975
20
-5.15018
11
7.1892
21
-5.15014
0
LINE
8
BLACK
6
CONTINUOUS
10
7.1892
20
-5.15014
11
7.14983
21
-5.13046
0
LINE
8
BLACK
6
CONTINUOUS
10
7.14983
20
-5.13046
11
7.14934
21
-5.12989
0
LINE
8
BLACK
6
CONTINUOUS
10
7.14934
20
-5.12989
11
7.14877
21
-5.1294
0
LINE
8
BLACK
6
CONTINUOUS
10
7.14877
20
-5.1294
11
7.14876
21
-5.12923
0
LINE
8
BLACK
6
CONTINUOUS
10
7.14876
20
-5.12923
11
7.14864
21
-5.12909
0
LINE
8
BLACK
6
CONTINUOUS
10
7.14864
20
-5.12909
11
7.1487
21
-5.12835
0
LINE
8
BLACK
6
CONTINUOUS
10
7.1487
20
-5.12835
11
7.14864
21
-5.1276
0
LINE
8
BLACK
6
CONTINUOUS
10
7.14864
20
-5.1276
11
7.14876
21
-5.12747
0
LINE
8
BLACK
6
CONTINUOUS
10
7.14876
20
-5.12747
11
7.14877
21
-5.12729
0
LINE
8
BLACK
6
CONTINUOUS
10
7.14877
20
-5.12729
11
7.14934
21
-5.1268
0
LINE
8
BLACK
6
CONTINUOUS
10
7.14934
20
-5.1268
11
7.14983
21
-5.12623
0
LINE
8
BLACK
6
CONTINUOUS
10
7.14983
20
-5.12623
11
7.1892
21
-5.10655
0
LINE
8
BLACK
6
CONTINUOUS
10
7.1892
20
-5.10655
11
7.18975
21
-5.10651
0
LINE
8
BLACK
6
CONTINUOUS
10
7.18975
20
-5.10651
11
7.19026
21
-5.1063
0
LINE
8
BLACK
6
CONTINUOUS
10
7.19026
20
-5.1063
11
7.19062
21
-5.10645
0
LINE
8
BLACK
6
CONTINUOUS
10
7.15617
20
-5.12835
11
7.18789
21
-5.14421
0
LINE
8
BLACK
6
CONTINUOUS
10
7.18789
20
-5.14421
11
7.18789
21
-5.11248
0
LINE
8
BLACK
6
CONTINUOUS
10
7.18789
20
-5.11248
11
7.15617
21
-5.12835
0
LINE
8
BLACK
6
CONTINUOUS
10
6.97139
20
-4.86473
11
6.97208
21
-4.86663
0
LINE
8
BLACK
6
CONTINUOUS
10
6.97208
20
-4.86663
11
6.97208
21
-4.89427
0
LINE
8
BLACK
6
CONTINUOUS
10
6.97208
20
-4.89427
11
6.97358
21
-4.89878
0
LINE
8
BLACK
6
CONTINUOUS
10
6.97358
20
-4.89878
11
6.97635
21
-4.90154
0
LINE
8
BLACK
6
CONTINUOUS
10
6.97635
20
-4.90154
11
6.98086
21
-4.90305
0
LINE
8
BLACK
6
CONTINUOUS
10
6.98086
20
-4.90305
11
6.98413
21
-4.90305
0
LINE
8
BLACK
6
CONTINUOUS
10
6.98413
20
-4.90305
11
6.98514
21
-4.90322
0
LINE
8
BLACK
6
CONTINUOUS
10
6.98514
20
-4.90322
11
6.98668
21
-4.90452
0
LINE
8
BLACK
6
CONTINUOUS
10
6.98668
20
-4.90452
11
6.98703
21
-4.90651
0
LINE
8
BLACK
6
CONTINUOUS
10
6.98703
20
-4.90651
11
6.98602
21
-4.90826
0
LINE
8
BLACK
6
CONTINUOUS
10
6.98602
20
-4.90826
11
6.98413
21
-4.90895
0
LINE
8
BLACK
6
CONTINUOUS
10
6.98413
20
-4.90895
11
6.98038
21
-4.90895
0
LINE
8
BLACK
6
CONTINUOUS
10
6.98038
20
-4.90895
11
6.97951
21
-4.9088
0
LINE
8
BLACK
6
CONTINUOUS
10
6.97951
20
-4.9088
11
6.97944
21
-4.9088
0
LINE
8
BLACK
6
CONTINUOUS
10
6.97944
20
-4.9088
11
6.97382
21
-4.90693
0
LINE
8
BLACK
6
CONTINUOUS
10
6.97382
20
-4.90693
11
6.97292
21
-4.90644
0
LINE
8
BLACK
6
CONTINUOUS
10
6.97292
20
-4.90644
11
6.97282
21
-4.90629
0
LINE
8
BLACK
6
CONTINUOUS
10
6.97282
20
-4.90629
11
6.97266
21
-4.90621
0
LINE
8
BLACK
6
CONTINUOUS
10
6.97266
20
-4.90621
11
6.96891
21
-4.90246
0
LINE
8
BLACK
6
CONTINUOUS
10
6.96891
20
-4.90246
11
6.96833
21
-4.90162
0
LINE
8
BLACK
6
CONTINUOUS
10
6.96833
20
-4.90162
11
6.96831
21
-4.90145
0
LINE
8
BLACK
6
CONTINUOUS
10
6.96831
20
-4.90145
11
6.9682
21
-4.90131
0
LINE
8
BLACK
6
CONTINUOUS
10
6.9682
20
-4.90131
11
6.96633
21
-4.89568
0
LINE
8
BLACK
6
CONTINUOUS
10
6.96633
20
-4.89568
11
6.9662
21
-4.89481
0
LINE
8
BLACK
6
CONTINUOUS
10
6.9662
20
-4.89481
11
6.96617
21
-4.89475
0
LINE
8
BLACK
6
CONTINUOUS
10
6.96617
20
-4.89475
11
6.96617
21
-4.86663
0
LINE
8
BLACK
6
CONTINUOUS
10
6.96617
20
-4.86663
11
6.96635
21
-4.86562
0
LINE
8
BLACK
6
CONTINUOUS
10
6.96635
20
-4.86562
11
6.96765
21
-4.86407
0
LINE
8
BLACK
6
CONTINUOUS
10
6.96765
20
-4.86407
11
6.96964
21
-4.86372
0
LINE
8
BLACK
6
CONTINUOUS
10
6.96964
20
-4.86372
11
6.97139
21
-4.86473
0
LINE
8
BLACK
6
CONTINUOUS
10
6.94443
20
-4.86224
11
6.94568
21
-4.86382
0
LINE
8
BLACK
6
CONTINUOUS
10
6.94568
20
-4.86382
11
6.95506
21
-4.89194
0
LINE
8
BLACK
6
CONTINUOUS
10
6.95506
20
-4.89194
11
6.95521
21
-4.89296
0
LINE
8
BLACK
6
CONTINUOUS
10
6.95521
20
-4.89296
11
6.95512
21
-4.89317
0
LINE
8
BLACK
6
CONTINUOUS
10
6.95512
20
-4.89317
11
6.95516
21
-4.89339
0
LINE
8
BLACK
6
CONTINUOUS
10
6.95516
20
-4.89339
11
6.95476
21
-4.89409
0
LINE
8
BLACK
6
CONTINUOUS
10
6.95476
20
-4.89409
11
6.95446
21
-4.89483
0
LINE
8
BLACK
6
CONTINUOUS
10
6.95446
20
-4.89483
11
6.95427
21
-4.89494
0
LINE
8
BLACK
6
CONTINUOUS
10
6.95427
20
-4.89494
11
6.95415
21
-4.89514
0
LINE
8
BLACK
6
CONTINUOUS
10
6.95415
20
-4.89514
11
6.9534
21
-4.89541
0
LINE
8
BLACK
6
CONTINUOUS
10
6.9534
20
-4.89541
11
6.95269
21
-4.8958
0
LINE
8
BLACK
6
CONTINUOUS
10
6.95269
20
-4.8958
11
6.95247
21
-4.89575
0
LINE
8
BLACK
6
CONTINUOUS
10
6.95247
20
-4.89575
11
6.95225
21
-4.89583
0
LINE
8
BLACK
6
CONTINUOUS
10
6.95225
20
-4.89583
11
6.93646
21
-4.89583
0
LINE
8
BLACK
6
CONTINUOUS
10
6.93646
20
-4.89583
11
6.93646
21
-4.906
0
LINE
8
BLACK
6
CONTINUOUS
10
6.93646
20
-4.906
11
6.93628
21
-4.90701
0
LINE
8
BLACK
6
CONTINUOUS
10
6.93628
20
-4.90701
11
6.93498
21
-4.90856
0
LINE
8
BLACK
6
CONTINUOUS
10
6.93498
20
-4.90856
11
6.93299
21
-4.90891
0
LINE
8
BLACK
6
CONTINUOUS
10
6.93299
20
-4.90891
11
6.93124
21
-4.9079
0
LINE
8
BLACK
6
CONTINUOUS
10
6.93124
20
-4.9079
11
6.93055
21
-4.906
0
LINE
8
BLACK
6
CONTINUOUS
10
6.93055
20
-4.906
11
6.93055
21
-4.89583
0
LINE
8
BLACK
6
CONTINUOUS
10
6.93055
20
-4.89583
11
6.92788
21
-4.89583
0
LINE
8
BLACK
6
CONTINUOUS
10
6.92788
20
-4.89583
11
6.92687
21
-4.89565
0
LINE
8
BLACK
6
CONTINUOUS
10
6.92687
20
-4.89565
11
6.92533
21
-4.89435
0
LINE
8
BLACK
6
CONTINUOUS
10
6.92533
20
-4.89435
11
6.92497
21
-4.89236
0
LINE
8
BLACK
6
CONTINUOUS
10
6.92497
20
-4.89236
11
6.92598
21
-4.89061
0
LINE
8
BLACK
6
CONTINUOUS
10
6.92598
20
-4.89061
11
6.92788
21
-4.88992
0
LINE
8
BLACK
6
CONTINUOUS
10
6.92788
20
-4.88992
11
6.93055
21
-4.88992
0
LINE
8
BLACK
6
CONTINUOUS
10
6.93055
20
-4.88992
11
6.93055
21
-4.87975
0
LINE
8
BLACK
6
CONTINUOUS
10
6.93055
20
-4.87975
11
6.93073
21
-4.87874
0
LINE
8
BLACK
6
CONTINUOUS
10
6.93073
20
-4.87874
11
6.93203
21
-4.8772
0
LINE
8
BLACK
6
CONTINUOUS
10
6.93203
20
-4.8772
11
6.93402
21
-4.87684
0
LINE
8
BLACK
6
CONTINUOUS
10
6.93402
20
-4.87684
11
6.93577
21
-4.87785
0
LINE
8
BLACK
6
CONTINUOUS
10
6.93577
20
-4.87785
11
6.93646
21
-4.87975
0
LINE
8
BLACK
6
CONTINUOUS
10
6.93646
20
-4.87975
11
6.93646
21
-4.88992
0
LINE
8
BLACK
6
CONTINUOUS
10
6.93646
20
-4.88992
11
6.94816
21
-4.88992
0
LINE
8
BLACK
6
CONTINUOUS
10
6.94816
20
-4.88992
11
6.94008
21
-4.86569
0
LINE
8
BLACK
6
CONTINUOUS
10
6.94008
20
-4.86569
11
6.93993
21
-4.86467
0
LINE
8
BLACK
6
CONTINUOUS
10
6.93993
20
-4.86467
11
6.94067
21
-4.8628
0
LINE
8
BLACK
6
CONTINUOUS
10
6.94067
20
-4.8628
11
6.94245
21
-4.86183
0
LINE
8
BLACK
6
CONTINUOUS
10
6.94245
20
-4.86183
11
6.94443
21
-4.86224
0
LINE
8
BLACK
6
CONTINUOUS
10
6.48927
20
-3.75797
11
6.48858
21
-3.7563
0
LINE
8
BLACK
6
CONTINUOUS
10
6.48858
20
-3.7563
11
6.48858
21
-3.55394
0
LINE
8
BLACK
6
CONTINUOUS
10
6.48858
20
-3.55394
11
6.48927
21
-3.55227
0
LINE
8
BLACK
6
CONTINUOUS
10
6.48927
20
-3.55227
11
6.49094
21
-3.55157
0
LINE
8
BLACK
6
CONTINUOUS
10
6.49094
20
-3.55157
11
6.59567
21
-3.55157
0
LINE
8
BLACK
6
CONTINUOUS
10
6.59567
20
-3.55157
11
6.59734
21
-3.55227
0
LINE
8
BLACK
6
CONTINUOUS
10
6.59734
20
-3.55227
11
6.59803
21
-3.55394
0
LINE
8
BLACK
6
CONTINUOUS
10
6.59803
20
-3.55394
11
6.59803
21
-3.7563
0
LINE
8
BLACK
6
CONTINUOUS
10
6.59803
20
-3.7563
11
6.59734
21
-3.75797
0
LINE
8
BLACK
6
CONTINUOUS
10
6.59734
20
-3.75797
11
6.59567
21
-3.75866
0
LINE
8
BLACK
6
CONTINUOUS
10
6.59567
20
-3.75866
11
6.49094
21
-3.75866
0
LINE
8
BLACK
6
CONTINUOUS
10
6.49094
20
-3.75866
11
6.48927
21
-3.75797
0
LINE
8
BLACK
6
CONTINUOUS
10
6.49331
20
-3.5563
11
6.49331
21
-3.75394
0
LINE
8
BLACK
6
CONTINUOUS
10
6.49331
20
-3.75394
11
6.59331
21
-3.75394
0
LINE
8
BLACK
6
CONTINUOUS
10
6.59331
20
-3.75394
11
6.59331
21
-3.5563
0
LINE
8
BLACK
6
CONTINUOUS
10
6.59331
20
-3.5563
11
6.49331
21
-3.5563
0
LINE
8
BLACK
6
CONTINUOUS
10
6.59734
20
-3.4499
11
6.59803
21
-3.45157
0
LINE
8
BLACK
6
CONTINUOUS
10
6.59803
20
-3.45157
11
6.59803
21
-3.50394
0
LINE
8
BLACK
6
CONTINUOUS
10
6.59803
20
-3.50394
11
6.59734
21
-3.50561
0
LINE
8
BLACK
6
CONTINUOUS
10
6.59734
20
-3.50561
11
6.59567
21
-3.5063
0
LINE
8
BLACK
6
CONTINUOUS
10
6.59567
20
-3.5063
11
6.594
21
-3.50561
0
LINE
8
BLACK
6
CONTINUOUS
10
6.594
20
-3.50561
11
6.59331
21
-3.50394
0
LINE
8
BLACK
6
CONTINUOUS
10
6.59331
20
-3.50394
11
6.59331
21
-3.45394
0
LINE
8
BLACK
6
CONTINUOUS
10
6.59331
20
-3.45394
11
6.54331
21
-3.45394
0
LINE
8
BLACK
6
CONTINUOUS
10
6.54331
20
-3.45394
11
6.54164
21
-3.45325
0
LINE
8
BLACK
6
CONTINUOUS
10
6.54164
20
-3.45325
11
6.54094
21
-3.45157
0
LINE
8
BLACK
6
CONTINUOUS
10
6.54094
20
-3.45157
11
6.54164
21
-3.4499
0
LINE
8
BLACK
6
CONTINUOUS
10
6.54164
20
-3.4499
11
6.54331
21
-3.44921
0
LINE
8
BLACK
6
CONTINUOUS
10
6.54331
20
-3.44921
11
6.59567
21
-3.44921
0
LINE
8
BLACK
6
CONTINUOUS
10
6.59567
20
-3.44921
11
6.59734
21
-3.4499
0
LINE
8
BLACK
6
CONTINUOUS
10
6.50272
20
-3.38782
11
6.50289
21
-3.38781
0
LINE
8
BLACK
6
CONTINUOUS
10
6.50289
20
-3.38781
11
6.50358
21
-3.38832
0
LINE
8
BLACK
6
CONTINUOUS
10
6.50358
20
-3.38832
11
6.50432
21
-3.38875
0
LINE
8
BLACK
6
CONTINUOUS
10
6.50432
20
-3.38875
11
6.50438
21
-3.38891
0
LINE
8
BLACK
6
CONTINUOUS
10
6.50438
20
-3.38891
11
6.50452
21
-3.38901
0
LINE
8
BLACK
6
CONTINUOUS
10
6.50452
20
-3.38901
11
6.50811
21
-3.39439
0
LINE
8
BLACK
6
CONTINUOUS
10
6.50811
20
-3.39439
11
6.51131
21
-3.39759
0
LINE
8
BLACK
6
CONTINUOUS
10
6.51131
20
-3.39759
11
6.51463
21
-3.39925
0
LINE
8
BLACK
6
CONTINUOUS
10
6.51463
20
-3.39925
11
6.51546
21
-3.39986
0
LINE
8
BLACK
6
CONTINUOUS
10
6.51546
20
-3.39986
11
6.51626
21
-3.40172
0
LINE
8
BLACK
6
CONTINUOUS
10
6.51626
20
-3.40172
11
6.51568
21
-3.40365
0
LINE
8
BLACK
6
CONTINUOUS
10
6.51568
20
-3.40365
11
6.514
21
-3.40477
0
LINE
8
BLACK
6
CONTINUOUS
10
6.514
20
-3.40477
11
6.51199
21
-3.40453
0
LINE
8
BLACK
6
CONTINUOUS
10
6.51199
20
-3.40453
11
6.50824
21
-3.40266
0
LINE
8
BLACK
6
CONTINUOUS
10
6.50824
20
-3.40266
11
6.50753
21
-3.40213
0
LINE
8
BLACK
6
CONTINUOUS
10
6.50753
20
-3.40213
11
6.50747
21
-3.40211
0
LINE
8
BLACK
6
CONTINUOUS
10
6.50747
20
-3.40211
11
6.50501
21
-3.39965
0
LINE
8
BLACK
6
CONTINUOUS
10
6.50501
20
-3.39965
11
6.50501
21
-3.42706
0
LINE
8
BLACK
6
CONTINUOUS
10
6.50501
20
-3.42706
11
6.51331
21
-3.42706
0
LINE
8
BLACK
6
CONTINUOUS
10
6.51331
20
-3.42706
11
6.51432
21
-3.42724
0
LINE
8
BLACK
6
CONTINUOUS
10
6.51432
20
-3.42724
11
6.51587
21
-3.42854
0
LINE
8
BLACK
6
CONTINUOUS
10
6.51587
20
-3.42854
11
6.51622
21
-3.43053
0
LINE
8
BLACK
6
CONTINUOUS
10
6.51622
20
-3.43053
11
6.51521
21
-3.43228
0
LINE
8
BLACK
6
CONTINUOUS
10
6.51521
20
-3.43228
11
6.51331
21
-3.43297
0
LINE
8
BLACK
6
CONTINUOUS
10
6.51331
20
-3.43297
11
6.49081
21
-3.43297
0
LINE
8
BLACK
6
CONTINUOUS
10
6.49081
20
-3.43297
11
6.4898
21
-3.43279
0
LINE
8
BLACK
6
CONTINUOUS
10
6.4898
20
-3.43279
11
6.48826
21
-3.43149
0
LINE
8
BLACK
6
CONTINUOUS
10
6.48826
20
-3.43149
11
6.48791
21
-3.4295
0
LINE
8
BLACK
6
CONTINUOUS
10
6.48791
20
-3.4295
11
6.48892
21
-3.42775
0
LINE
8
BLACK
6
CONTINUOUS
10
6.48892
20
-3.42775
11
6.49081
21
-3.42706
0
LINE
8
BLACK
6
CONTINUOUS
10
6.49081
20
-3.42706
11
6.49911
21
-3.42706
0
LINE
8
BLACK
6
CONTINUOUS
10
6.49911
20
-3.42706
11
6.49911
21
-3.39064
0
LINE
8
BLACK
6
CONTINUOUS
10
6.49911
20
-3.39064
11
6.49929
21
-3.38963
0
LINE
8
BLACK
6
CONTINUOUS
10
6.49929
20
-3.38963
11
6.4994
21
-3.3895
0
LINE
8
BLACK
6
CONTINUOUS
10
6.4994
20
-3.3895
11
6.49942
21
-3.38934
0
LINE
8
BLACK
6
CONTINUOUS
10
6.49942
20
-3.38934
11
6.50003
21
-3.38874
0
LINE
8
BLACK
6
CONTINUOUS
10
6.50003
20
-3.38874
11
6.50059
21
-3.38809
0
LINE
8
BLACK
6
CONTINUOUS
10
6.50059
20
-3.38809
11
6.50075
21
-3.38806
0
LINE
8
BLACK
6
CONTINUOUS
10
6.50075
20
-3.38806
11
6.50088
21
-3.38794
0
LINE
8
BLACK
6
CONTINUOUS
10
6.50088
20
-3.38794
11
6.50173
21
-3.38789
0
LINE
8
BLACK
6
CONTINUOUS
10
6.50173
20
-3.38789
11
6.50257
21
-3.38774
0
LINE
8
BLACK
6
CONTINUOUS
10
6.50257
20
-3.38774
11
6.50272
21
-3.38782
0
LINE
8
BLACK
6
CONTINUOUS
10
6.58931
20
-3.38787
11
6.58945
21
-3.38798
0
LINE
8
BLACK
6
CONTINUOUS
10
6.58945
20
-3.38798
11
6.58962
21
-3.388
0
LINE
8
BLACK
6
CONTINUOUS
10
6.58962
20
-3.388
11
6.59337
21
-3.38988
0
LINE
8
BLACK
6
CONTINUOUS
10
6.59337
20
-3.38988
11
6.59408
21
-3.3904
0
LINE
8
BLACK
6
CONTINUOUS
10
6.59408
20
-3.3904
11
6.59414
21
-3.39043
0
LINE
8
BLACK
6
CONTINUOUS
10
6.59414
20
-3.39043
11
6.59601
21
-3.39231
0
LINE
8
BLACK
6
CONTINUOUS
10
6.59601
20
-3.39231
11
6.59652
21
-3.39303
0
LINE
8
BLACK
6
CONTINUOUS
10
6.59652
20
-3.39303
11
6.59657
21
-3.39307
0
LINE
8
BLACK
6
CONTINUOUS
10
6.59657
20
-3.39307
11
6.59844
21
-3.39682
0
LINE
8
BLACK
6
CONTINUOUS
10
6.59844
20
-3.39682
11
6.59873
21
-3.39781
0
LINE
8
BLACK
6
CONTINUOUS
10
6.59873
20
-3.39781
11
6.59869
21
-3.39798
0
LINE
8
BLACK
6
CONTINUOUS
10
6.59869
20
-3.39798
11
6.59875
21
-3.39814
0
LINE
8
BLACK
6
CONTINUOUS
10
6.59875
20
-3.39814
11
6.59875
21
-3.40189
0
LINE
8
BLACK
6
CONTINUOUS
10
6.59875
20
-3.40189
11
6.59858
21
-3.4029
0
LINE
8
BLACK
6
CONTINUOUS
10
6.59858
20
-3.4029
11
6.59846
21
-3.40304
0
LINE
8
BLACK
6
CONTINUOUS
10
6.59846
20
-3.40304
11
6.59844
21
-3.40321
0
LINE
8
BLACK
6
CONTINUOUS
10
6.59844
20
-3.40321
11
6.59657
21
-3.40696
0
LINE
8
BLACK
6
CONTINUOUS
10
6.59657
20
-3.40696
11
6.59604
21
-3.40767
0
LINE
8
BLACK
6
CONTINUOUS
10
6.59604
20
-3.40767
11
6.59601
21
-3.40773
0
LINE
8
BLACK
6
CONTINUOUS
10
6.59601
20
-3.40773
11
6.59414
21
-3.40961
0
LINE
8
BLACK
6
CONTINUOUS
10
6.59414
20
-3.40961
11
6.59342
21
-3.41011
0
LINE
8
BLACK
6
CONTINUOUS
10
6.59342
20
-3.41011
11
6.59337
21
-3.41016
0
LINE
8
BLACK
6
CONTINUOUS
10
6.59337
20
-3.41016
11
6.58962
21
-3.41203
0
LINE
8
BLACK
6
CONTINUOUS
10
6.58962
20
-3.41203
11
6.58913
21
-3.41218
0
LINE
8
BLACK
6
CONTINUOUS
10
6.58913
20
-3.41218
11
6.58902
21
-3.41226
0
LINE
8
BLACK
6
CONTINUOUS
10
6.58902
20
-3.41226
11
6.58183
21
-3.41405
0
LINE
8
BLACK
6
CONTINUOUS
10
6.58183
20
-3.41405
11
6.5788
21
-3.41557
0
LINE
8
BLACK
6
CONTINUOUS
10
6.5788
20
-3.41557
11
6.5776
21
-3.41677
0
LINE
8
BLACK
6
CONTINUOUS
10
6.5776
20
-3.41677
11
6.57626
21
-3.41946
0
LINE
8
BLACK
6
CONTINUOUS
10
6.57626
20
-3.41946
11
6.57626
21
-3.42182
0
LINE
8
BLACK
6
CONTINUOUS
10
6.57626
20
-3.42182
11
6.5776
21
-3.42452
0
LINE
8
BLACK
6
CONTINUOUS
10
6.5776
20
-3.42452
11
6.5788
21
-3.42571
0
LINE
8
BLACK
6
CONTINUOUS
10
6.5788
20
-3.42571
11
6.5815
21
-3.42706
0
LINE
8
BLACK
6
CONTINUOUS
10
6.5815
20
-3.42706
11
6.5897
21
-3.42706
0
LINE
8
BLACK
6
CONTINUOUS
10
6.5897
20
-3.42706
11
6.59487
21
-3.42534
0
LINE
8
BLACK
6
CONTINUOUS
10
6.59487
20
-3.42534
11
6.59588
21
-3.42519
0
LINE
8
BLACK
6
CONTINUOUS
10
6.59588
20
-3.42519
11
6.59776
21
-3.42593
0
LINE
8
BLACK
6
CONTINUOUS
10
6.59776
20
-3.42593
11
6.59872
21
-3.42771
0
LINE
8
BLACK
6
CONTINUOUS
10
6.59872
20
-3.42771
11
6.59832
21
-3.42969
0
LINE
8
BLACK
6
CONTINUOUS
10
6.59832
20
-3.42969
11
6.59673
21
-3.43094
0
LINE
8
BLACK
6
CONTINUOUS
10
6.59673
20
-3.43094
11
6.59111
21
-3.43282
0
LINE
8
BLACK
6
CONTINUOUS
10
6.59111
20
-3.43282
11
6.59024
21
-3.43295
0
LINE
8
BLACK
6
CONTINUOUS
10
6.59024
20
-3.43295
11
6.59018
21
-3.43297
0
LINE
8
BLACK
6
CONTINUOUS
10
6.59018
20
-3.43297
11
6.5808
21
-3.43297
0
LINE
8
BLACK
6
CONTINUOUS
10
6.5808
20
-3.43297
11
6.57979
21
-3.43279
0
LINE
8
BLACK
6
CONTINUOUS
10
6.57979
20
-3.43279
11
6.57966
21
-3.43268
0
LINE
8
BLACK
6
CONTINUOUS
10
6.57966
20
-3.43268
11
6.57948
21
-3.43266
0
LINE
8
BLACK
6
CONTINUOUS
10
6.57948
20
-3.43266
11
6.57573
21
-3.43078
0
LINE
8
BLACK
6
CONTINUOUS
10
6.57573
20
-3.43078
11
6.57502
21
-3.43026
0
LINE
8
BLACK
6
CONTINUOUS
10
6.57502
20
-3.43026
11
6.57496
21
-3.43023
0
LINE
8
BLACK
6
CONTINUOUS
10
6.57496
20
-3.43023
11
6.57309
21
-3.42835
0
LINE
8
BLACK
6
CONTINUOUS
10
6.57309
20
-3.42835
11
6.57258
21
-3.42763
0
LINE
8
BLACK
6
CONTINUOUS
10
6.57258
20
-3.42763
11
6.57254
21
-3.42759
0
LINE
8
BLACK
6
CONTINUOUS
10
6.57254
20
-3.42759
11
6.57066
21
-3.42384
0
LINE
8
BLACK
6
CONTINUOUS
10
6.57066
20
-3.42384
11
6.57037
21
-3.42285
0
LINE
8
BLACK
6
CONTINUOUS
10
6.57037
20
-3.42285
11
6.57041
21
-3.42268
0
LINE
8
BLACK
6
CONTINUOUS
10
6.57041
20
-3.42268
11
6.57035
21
-3.42252
0
LINE
8
BLACK
6
CONTINUOUS
10
6.57035
20
-3.42252
11
6.57035
21
-3.41877
0
LINE
8
BLACK
6
CONTINUOUS
10
6.57035
20
-3.41877
11
6.57053
21
-3.41776
0
LINE
8
BLACK
6
CONTINUOUS
10
6.57053
20
-3.41776
11
6.57064
21
-3.41762
0
LINE
8
BLACK
6
CONTINUOUS
10
6.57064
20
-3.41762
11
6.57066
21
-3.41745
0
LINE
8
BLACK
6
CONTINUOUS
10
6.57066
20
-3.41745
11
6.57254
21
-3.4137
0
LINE
8
BLACK
6
CONTINUOUS
10
6.57254
20
-3.4137
11
6.57306
21
-3.41299
0
LINE
8
BLACK
6
CONTINUOUS
10
6.57306
20
-3.41299
11
6.57309
21
-3.41293
0
LINE
8
BLACK
6
CONTINUOUS
10
6.57309
20
-3.41293
11
6.57496
21
-3.41105
0
LINE
8
BLACK
6
CONTINUOUS
10
6.57496
20
-3.41105
11
6.57569
21
-3.41055
0
LINE
8
BLACK
6
CONTINUOUS
10
6.57569
20
-3.41055
11
6.57573
21
-3.4105
0
LINE
8
BLACK
6
CONTINUOUS
10
6.57573
20
-3.4105
11
6.57948
21
-3.40863
0
LINE
8
BLACK
6
CONTINUOUS
10
6.57948
20
-3.40863
11
6.57997
21
-3.40848
0
LINE
8
BLACK
6
CONTINUOUS
10
6.57997
20
-3.40848
11
6.58009
21
-3.4084
0
LINE
8
BLACK
6
CONTINUOUS
10
6.58009
20
-3.4084
11
6.58727
21
-3.40661
0
LINE
8
BLACK
6
CONTINUOUS
10
6.58727
20
-3.40661
11
6.5903
21
-3.40509
0
LINE
8
BLACK
6
CONTINUOUS
10
6.5903
20
-3.40509
11
6.5915
21
-3.40389
0
LINE
8
BLACK
6
CONTINUOUS
10
6.5915
20
-3.40389
11
6.59285
21
-3.4012
0
LINE
8
BLACK
6
CONTINUOUS
10
6.59285
20
-3.4012
11
6.59285
21
-3.39884
0
LINE
8
BLACK
6
CONTINUOUS
10
6.59285
20
-3.39884
11
6.5915
21
-3.39614
0
LINE
8
BLACK
6
CONTINUOUS
10
6.5915
20
-3.39614
11
6.5903
21
-3.39495
0
LINE
8
BLACK
6
CONTINUOUS
10
6.5903
20
-3.39495
11
6.5876
21
-3.3936
0
LINE
8
BLACK
6
CONTINUOUS
10
6.5876
20
-3.3936
11
6.57941
21
-3.3936
0
LINE
8
BLACK
6
CONTINUOUS
10
6.57941
20
-3.3936
11
6.57424
21
-3.39532
0
LINE
8
BLACK
6
CONTINUOUS
10
6.57424
20
-3.39532
11
6.57322
21
-3.39547
0
LINE
8
BLACK
6
CONTINUOUS
10
6.57322
20
-3.39547
11
6.57134
21
-3.39473
0
LINE
8
BLACK
6
CONTINUOUS
10
6.57134
20
-3.39473
11
6.57038
21
-3.39295
0
LINE
8
BLACK
6
CONTINUOUS
10
6.57038
20
-3.39295
11
6.57079
21
-3.39097
0
LINE
8
BLACK
6
CONTINUOUS
10
6.57079
20
-3.39097
11
6.57237
21
-3.38972
0
LINE
8
BLACK
6
CONTINUOUS
10
6.57237
20
-3.38972
11
6.57799
21
-3.38784
0
LINE
8
BLACK
6
CONTINUOUS
10
6.57799
20
-3.38784
11
6.57887
21
-3.38771
0
LINE
8
BLACK
6
CONTINUOUS
10
6.57887
20
-3.38771
11
6.57893
21
-3.38769
0
LINE
8
BLACK
6
CONTINUOUS
10
6.57893
20
-3.38769
11
6.5883
21
-3.38769
0
LINE
8
BLACK
6
CONTINUOUS
10
6.5883
20
-3.38769
11
6.58931
21
-3.38787
0
LINE
8
BLACK
6
CONTINUOUS
10
6.52819
20
-3.38827
11
6.52931
21
-3.38996
0
LINE
8
BLACK
6
CONTINUOUS
10
6.52931
20
-3.38996
11
6.53597
21
-3.41795
0
LINE
8
BLACK
6
CONTINUOUS
10
6.53597
20
-3.41795
11
6.54045
21
-3.40113
0
LINE
8
BLACK
6
CONTINUOUS
10
6.54045
20
-3.40113
11
6.54089
21
-3.4002
0
LINE
8
BLACK
6
CONTINUOUS
10
6.54089
20
-3.4002
11
6.54111
21
-3.40005
0
LINE
8
BLACK
6
CONTINUOUS
10
6.54111
20
-3.40005
11
6.54122
21
-3.3998
0
LINE
8
BLACK
6
CONTINUOUS
10
6.54122
20
-3.3998
11
6.54191
21
-3.39948
0
LINE
8
BLACK
6
CONTINUOUS
10
6.54191
20
-3.39948
11
6.54254
21
-3.39904
0
LINE
8
BLACK
6
CONTINUOUS
10
6.54254
20
-3.39904
11
6.54281
21
-3.39907
0
LINE
8
BLACK
6
CONTINUOUS
10
6.54281
20
-3.39907
11
6.54305
21
-3.39895
0
LINE
8
BLACK
6
CONTINUOUS
10
6.54305
20
-3.39895
11
6.54379
21
-3.39915
0
LINE
8
BLACK
6
CONTINUOUS
10
6.54379
20
-3.39915
11
6.54455
21
-3.39922
0
LINE
8
BLACK
6
CONTINUOUS
10
6.54455
20
-3.39922
11
6.54474
21
-3.39941
0
LINE
8
BLACK
6
CONTINUOUS
10
6.54474
20
-3.39941
11
6.545
21
-3.39948
0
LINE
8
BLACK
6
CONTINUOUS
10
6.545
20
-3.39948
11
6.54544
21
-3.4001
0
LINE
8
BLACK
6
CONTINUOUS
10
6.54544
20
-3.4001
11
6.54598
21
-3.40064
0
LINE
8
BLACK
6
CONTINUOUS
10
6.54598
20
-3.40064
11
6.54601
21
-3.40091
0
LINE
8
BLACK
6
CONTINUOUS
10
6.54601
20
-3.40091
11
6.54616
21
-3.40113
0
LINE
8
BLACK
6
CONTINUOUS
10
6.54616
20
-3.40113
11
6.55064
21
-3.41795
0
LINE
8
BLACK
6
CONTINUOUS
10
6.55064
20
-3.41795
11
6.55731
21
-3.38996
0
LINE
8
BLACK
6
CONTINUOUS
10
6.55731
20
-3.38996
11
6.55771
21
-3.38902
0
LINE
8
BLACK
6
CONTINUOUS
10
6.55771
20
-3.38902
11
6.55934
21
-3.38782
0
LINE
8
BLACK
6
CONTINUOUS
10
6.55934
20
-3.38782
11
6.56135
21
-3.38793
0
LINE
8
BLACK
6
CONTINUOUS
10
6.56135
20
-3.38793
11
6.56282
21
-3.38932
0
LINE
8
BLACK
6
CONTINUOUS
10
6.56282
20
-3.38932
11
6.56305
21
-3.39133
0
LINE
8
BLACK
6
CONTINUOUS
10
6.56305
20
-3.39133
11
6.55368
21
-3.4307
0
LINE
8
BLACK
6
CONTINUOUS
10
6.55368
20
-3.4307
11
6.55327
21
-3.43164
0
LINE
8
BLACK
6
CONTINUOUS
10
6.55327
20
-3.43164
11
6.55302
21
-3.43182
0
LINE
8
BLACK
6
CONTINUOUS
10
6.55302
20
-3.43182
11
6.55289
21
-3.43211
0
LINE
8
BLACK
6
CONTINUOUS
10
6.55289
20
-3.43211
11
6.55223
21
-3.43241
0
LINE
8
BLACK
6
CONTINUOUS
10
6.55223
20
-3.43241
11
6.55165
21
-3.43284
0
LINE
8
BLACK
6
CONTINUOUS
10
6.55165
20
-3.43284
11
6.55134
21
-3.43283
0
LINE
8
BLACK
6
CONTINUOUS
10
6.55134
20
-3.43283
11
6.55106
21
-3.43296
0
LINE
8
BLACK
6
CONTINUOUS
10
6.55106
20
-3.43296
11
6.55036
21
-3.43277
0
LINE
8
BLACK
6
CONTINUOUS
10
6.55036
20
-3.43277
11
6.54963
21
-3.43273
0
LINE
8
BLACK
6
CONTINUOUS
10
6.54963
20
-3.43273
11
6.54941
21
-3.43251
0
LINE
8
BLACK
6
CONTINUOUS
10
6.54941
20
-3.43251
11
6.54911
21
-3.43243
0
LINE
8
BLACK
6
CONTINUOUS
10
6.54911
20
-3.43243
11
6.54869
21
-3.43184
0
LINE
8
BLACK
6
CONTINUOUS
10
6.54869
20
-3.43184
11
6.54817
21
-3.43134
0
LINE
8
BLACK
6
CONTINUOUS
10
6.54817
20
-3.43134
11
6.54813
21
-3.43103
0
LINE
8
BLACK
6
CONTINUOUS
10
6.54813
20
-3.43103
11
6.54795
21
-3.43078
0
LINE
8
BLACK
6
CONTINUOUS
10
6.54795
20
-3.43078
11
6.54331
21
-3.41335
0
LINE
8
BLACK
6
CONTINUOUS
10
6.54331
20
-3.41335
11
6.53866
21
-3.43078
0
LINE
8
BLACK
6
CONTINUOUS
10
6.53866
20
-3.43078
11
6.53823
21
-3.43171
0
LINE
8
BLACK
6
CONTINUOUS
10
6.53823
20
-3.43171
11
6.53798
21
-3.43188
0
LINE
8
BLACK
6
CONTINUOUS
10
6.53798
20
-3.43188
11
6.53784
21
-3.43216
0
LINE
8
BLACK
6
CONTINUOUS
10
6.53784
20
-3.43216
11
6.53717
21
-3.43245
0
LINE
8
BLACK
6
CONTINUOUS
10
6.53717
20
-3.43245
11
6.53658
21
-3.43287
0
LINE
8
BLACK
6
CONTINUOUS
10
6.53658
20
-3.43287
11
6.53627
21
-3.43284
0
LINE
8
BLACK
6
CONTINUOUS
10
6.53627
20
-3.43284
11
6.53598
21
-3.43296
0
LINE
8
BLACK
6
CONTINUOUS
10
6.53598
20
-3.43296
11
6.53529
21
-3.43275
0
LINE
8
BLACK
6
CONTINUOUS
10
6.53529
20
-3.43275
11
6.53456
21
-3.43269
0
LINE
8
BLACK
6
CONTINUOUS
10
6.53456
20
-3.43269
11
6.53434
21
-3.43247
0
LINE
8
BLACK
6
CONTINUOUS
10
6.53434
20
-3.43247
11
6.53405
21
-3.43239
0
LINE
8
BLACK
6
CONTINUOUS
10
6.53405
20
-3.43239
11
6.53365
21
-3.43178
0
LINE
8
BLACK
6
CONTINUOUS
10
6.53365
20
-3.43178
11
6.53313
21
-3.43127
0
LINE
8
BLACK
6
CONTINUOUS
10
6.53313
20
-3.43127
11
6.53311
21
-3.43096
0
LINE
8
BLACK
6
CONTINUOUS
10
6.53311
20
-3.43096
11
6.53294
21
-3.4307
0
LINE
8
BLACK
6
CONTINUOUS
10
6.53294
20
-3.4307
11
6.52356
21
-3.39133
0
LINE
8
BLACK
6
CONTINUOUS
10
6.52356
20
-3.39133
11
6.5235
21
-3.39031
0
LINE
8
BLACK
6
CONTINUOUS
10
6.5235
20
-3.39031
11
6.52441
21
-3.3885
0
LINE
8
BLACK
6
CONTINUOUS
10
6.52441
20
-3.3885
11
6.52626
21
-3.3877
0
LINE
8
BLACK
6
CONTINUOUS
10
6.52626
20
-3.3877
11
6.52819
21
-3.38827
  0
ENDSEC
  0
EOF
