  0
SECTION
  2
HEADER
  9
$ANGBASE
  50
0.0
  9
$ANGDIR
  70
1
  9
$MEASUREMENT
  70
0
  0
ENDSEC
  0
SECTION
  2
TABLES
  0
TABLE
  2
LTYPE
  70
4
  0
LTYPE
  5
40F
  2
CONTINUOUS
  70
0
  3
Solid line
  72
65
  73
0
  40
0.0
  0
LTYPE
  5
410
  2
DASHDOT
 70
0
  3
Dash Dot ____ _ ____ _
 72
65
 73
4
 40
2.0
 49
1.25
 49
-0.25
 49
0.25
 49
-0.25
  0
LTYPE
  5
411
  2
DASHED
 70
0
  3
Dashed __ __ __ __ __
 72
65
 73
2
 40
0.75
 49
0.5
 49
-0.25
  0
LTYPE
  5
43B
  2
DOTTED
 70
0
  3
Dotted .  .  .  .
 72
65
 73
2
 40
0.2
 49
0.0
 49
-0.2
  0
ENDTAB
  0
TABLE
  2
STYLE
  70
4
  0
STYLE
  2
KICAD
  70
0
  40
0
  41
1
  42
1
  50
0
  71
0
  3
isocp.shx
  0
STYLE
  2
KICADB
  70
0
  40
0
  41
1
  42
1
  50
0
  71
0
  3
isocp.shx
  0
STYLE
  2
KICADI
  70
0
  40
0
  41
1
  42
1
  50
15
  71
0
  3
isocp.shx
  0
STYLE
  2
KICADBI
  70
0
  40
0
  41
1
  42
1
  50
15
  71
0
  3
isocp.shx
  0
ENDTAB
  0
TABLE
  2
LAYER
  70
1
  0
LAYER
  2
BLACK
  70
0
  62
7
  6
CONTINUOUS
  0
ENDTAB
  0
ENDSEC
  0
SECTION
  2
ENTITIES
0
LINE
8
BLACK
6
CONTINUOUS
10
6.39582
20
-5.86173
11
6.40117
21
-5.86333
0
LINE
8
BLACK
6
CONTINUOUS
10
6.40117
20
-5.86333
11
6.40585
21
-5.86637
0
LINE
8
BLACK
6
CONTINUOUS
10
6.40585
20
-5.86637
11
6.4095
21
-5.8706
0
LINE
8
BLACK
6
CONTINUOUS
10
6.4095
20
-5.8706
11
6.41181
21
-5.87568
0
LINE
8
BLACK
6
CONTINUOUS
10
6.41181
20
-5.87568
11
6.4126
21
-5.8812
0
LINE
8
BLACK
6
CONTINUOUS
10
6.4126
20
-5.8812
11
6.4126
21
-5.94026
0
LINE
8
BLACK
6
CONTINUOUS
10
6.4126
20
-5.94026
11
6.4126
21
-5.9405
0
LINE
8
BLACK
6
CONTINUOUS
10
6.4126
20
-5.9405
11
6.41174
21
-5.94601
0
LINE
8
BLACK
6
CONTINUOUS
10
6.41174
20
-5.94601
11
6.40937
21
-5.95106
0
LINE
8
BLACK
6
CONTINUOUS
10
6.40937
20
-5.95106
11
6.40567
21
-5.95525
0
LINE
8
BLACK
6
CONTINUOUS
10
6.40567
20
-5.95525
11
6.40095
21
-5.95823
0
LINE
8
BLACK
6
CONTINUOUS
10
6.40095
20
-5.95823
11
6.39558
21
-5.95976
0
LINE
8
BLACK
6
CONTINUOUS
10
6.39558
20
-5.95976
11
6.39
21
-5.95972
0
LINE
8
BLACK
6
CONTINUOUS
10
6.39
20
-5.95972
11
6.38466
21
-5.95813
0
LINE
8
BLACK
6
CONTINUOUS
10
6.38466
20
-5.95813
11
6.37997
21
-5.95509
0
LINE
8
BLACK
6
CONTINUOUS
10
6.37997
20
-5.95509
11
6.37633
21
-5.95086
0
LINE
8
BLACK
6
CONTINUOUS
10
6.37633
20
-5.95086
11
6.37402
21
-5.94578
0
LINE
8
BLACK
6
CONTINUOUS
10
6.37402
20
-5.94578
11
6.37323
21
-5.94026
0
LINE
8
BLACK
6
CONTINUOUS
10
6.37323
20
-5.94026
11
6.37323
21
-5.8812
0
LINE
8
BLACK
6
CONTINUOUS
10
6.37323
20
-5.8812
11
6.37323
21
-5.88096
0
LINE
8
BLACK
6
CONTINUOUS
10
6.37323
20
-5.88096
11
6.37409
21
-5.87545
0
LINE
8
BLACK
6
CONTINUOUS
10
6.37409
20
-5.87545
11
6.37646
21
-5.87039
0
LINE
8
BLACK
6
CONTINUOUS
10
6.37646
20
-5.87039
11
6.38016
21
-5.86621
0
LINE
8
BLACK
6
CONTINUOUS
10
6.38016
20
-5.86621
11
6.38488
21
-5.86323
0
LINE
8
BLACK
6
CONTINUOUS
10
6.38488
20
-5.86323
11
6.39024
21
-5.8617
0
LINE
8
BLACK
6
CONTINUOUS
10
6.39024
20
-5.8617
11
6.39582
21
-5.86173
0
LINE
8
BLACK
6
CONTINUOUS
10
6.73598
20
-5.86173
11
6.74133
21
-5.86333
0
LINE
8
BLACK
6
CONTINUOUS
10
6.74133
20
-5.86333
11
6.74601
21
-5.86637
0
LINE
8
BLACK
6
CONTINUOUS
10
6.74601
20
-5.86637
11
6.74965
21
-5.8706
0
LINE
8
BLACK
6
CONTINUOUS
10
6.74965
20
-5.8706
11
6.75196
21
-5.87568
0
LINE
8
BLACK
6
CONTINUOUS
10
6.75196
20
-5.87568
11
6.75276
21
-5.8812
0
LINE
8
BLACK
6
CONTINUOUS
10
6.75276
20
-5.8812
11
6.75276
21
-5.94026
0
LINE
8
BLACK
6
CONTINUOUS
10
6.75276
20
-5.94026
11
6.75275
21
-5.9405
0
LINE
8
BLACK
6
CONTINUOUS
10
6.75275
20
-5.9405
11
6.7519
21
-5.94601
0
LINE
8
BLACK
6
CONTINUOUS
10
6.7519
20
-5.94601
11
6.74952
21
-5.95106
0
LINE
8
BLACK
6
CONTINUOUS
10
6.74952
20
-5.95106
11
6.74583
21
-5.95525
0
LINE
8
BLACK
6
CONTINUOUS
10
6.74583
20
-5.95525
11
6.74111
21
-5.95823
0
LINE
8
BLACK
6
CONTINUOUS
10
6.74111
20
-5.95823
11
6.73574
21
-5.95976
0
LINE
8
BLACK
6
CONTINUOUS
10
6.73574
20
-5.95976
11
6.73016
21
-5.95972
0
LINE
8
BLACK
6
CONTINUOUS
10
6.73016
20
-5.95972
11
6.72481
21
-5.95813
0
LINE
8
BLACK
6
CONTINUOUS
10
6.72481
20
-5.95813
11
6.72013
21
-5.95509
0
LINE
8
BLACK
6
CONTINUOUS
10
6.72013
20
-5.95509
11
6.71649
21
-5.95086
0
LINE
8
BLACK
6
CONTINUOUS
10
6.71649
20
-5.95086
11
6.71418
21
-5.94578
0
LINE
8
BLACK
6
CONTINUOUS
10
6.71418
20
-5.94578
11
6.71339
21
-5.94026
0
LINE
8
BLACK
6
CONTINUOUS
10
6.71339
20
-5.94026
11
6.71339
21
-5.8812
0
LINE
8
BLACK
6
CONTINUOUS
10
6.71339
20
-5.8812
11
6.71339
21
-5.88096
0
LINE
8
BLACK
6
CONTINUOUS
10
6.71339
20
-5.88096
11
6.71425
21
-5.87545
0
LINE
8
BLACK
6
CONTINUOUS
10
6.71425
20
-5.87545
11
6.71662
21
-5.87039
0
LINE
8
BLACK
6
CONTINUOUS
10
6.71662
20
-5.87039
11
6.72031
21
-5.86621
0
LINE
8
BLACK
6
CONTINUOUS
10
6.72031
20
-5.86621
11
6.72503
21
-5.86323
0
LINE
8
BLACK
6
CONTINUOUS
10
6.72503
20
-5.86323
11
6.7304
21
-5.8617
0
LINE
8
BLACK
6
CONTINUOUS
10
6.7304
20
-5.8617
11
6.73598
21
-5.86173
0
LINE
8
BLACK
6
CONTINUOUS
10
6.52756
20
-5.95404
11
6.48819
21
-5.95404
0
LINE
8
BLACK
6
CONTINUOUS
10
6.48819
20
-5.95404
11
6.48819
21
-5.8753
0
LINE
8
BLACK
6
CONTINUOUS
10
6.48819
20
-5.8753
11
6.52756
21
-5.8753
0
LINE
8
BLACK
6
CONTINUOUS
10
6.52756
20
-5.8753
11
6.52756
21
-5.95404
0
LINE
8
BLACK
6
CONTINUOUS
10
6.6378
20
-5.95404
11
6.59843
21
-5.95404
0
LINE
8
BLACK
6
CONTINUOUS
10
6.59843
20
-5.95404
11
6.59843
21
-5.8753
0
LINE
8
BLACK
6
CONTINUOUS
10
6.59843
20
-5.8753
11
6.6378
21
-5.8753
0
LINE
8
BLACK
6
CONTINUOUS
10
6.6378
20
-5.8753
11
6.6378
21
-5.95404
0
LINE
8
BLACK
6
CONTINUOUS
10
6.2239
20
-5.83931
11
6.22701
21
-5.84139
0
LINE
8
BLACK
6
CONTINUOUS
10
6.22701
20
-5.84139
11
6.22909
21
-5.84451
0
LINE
8
BLACK
6
CONTINUOUS
10
6.22909
20
-5.84451
11
6.22982
21
-5.84818
0
LINE
8
BLACK
6
CONTINUOUS
10
6.22982
20
-5.84818
11
6.22982
21
-5.8841
0
LINE
8
BLACK
6
CONTINUOUS
10
6.22982
20
-5.8841
11
6.22909
21
-5.88778
0
LINE
8
BLACK
6
CONTINUOUS
10
6.22909
20
-5.88778
11
6.22701
21
-5.89089
0
LINE
8
BLACK
6
CONTINUOUS
10
6.22701
20
-5.89089
11
6.2239
21
-5.89297
0
LINE
8
BLACK
6
CONTINUOUS
10
6.2239
20
-5.89297
11
6.22023
21
-5.8937
0
LINE
8
BLACK
6
CONTINUOUS
10
6.22023
20
-5.8937
11
6.20103
21
-5.8937
0
LINE
8
BLACK
6
CONTINUOUS
10
6.20103
20
-5.8937
11
6.19736
21
-5.89297
0
LINE
8
BLACK
6
CONTINUOUS
10
6.19736
20
-5.89297
11
6.19425
21
-5.89089
0
LINE
8
BLACK
6
CONTINUOUS
10
6.19425
20
-5.89089
11
6.19217
21
-5.88778
0
LINE
8
BLACK
6
CONTINUOUS
10
6.19217
20
-5.88778
11
6.19144
21
-5.8841
0
LINE
8
BLACK
6
CONTINUOUS
10
6.19144
20
-5.8841
11
6.19144
21
-5.84818
0
LINE
8
BLACK
6
CONTINUOUS
10
6.19144
20
-5.84818
11
6.19217
21
-5.84451
0
LINE
8
BLACK
6
CONTINUOUS
10
6.19217
20
-5.84451
11
6.19425
21
-5.84139
0
LINE
8
BLACK
6
CONTINUOUS
10
6.19425
20
-5.84139
11
6.19736
21
-5.83931
0
LINE
8
BLACK
6
CONTINUOUS
10
6.19736
20
-5.83931
11
6.20103
21
-5.83858
0
LINE
8
BLACK
6
CONTINUOUS
10
6.20103
20
-5.83858
11
6.22023
21
-5.83858
0
LINE
8
BLACK
6
CONTINUOUS
10
6.22023
20
-5.83858
11
6.2239
21
-5.83931
0
LINE
8
BLACK
6
CONTINUOUS
10
6.29772
20
-5.83931
11
6.30083
21
-5.84139
0
LINE
8
BLACK
6
CONTINUOUS
10
6.30083
20
-5.84139
11
6.30291
21
-5.84451
0
LINE
8
BLACK
6
CONTINUOUS
10
6.30291
20
-5.84451
11
6.30364
21
-5.84818
0
LINE
8
BLACK
6
CONTINUOUS
10
6.30364
20
-5.84818
11
6.30364
21
-5.8841
0
LINE
8
BLACK
6
CONTINUOUS
10
6.30364
20
-5.8841
11
6.30291
21
-5.88778
0
LINE
8
BLACK
6
CONTINUOUS
10
6.30291
20
-5.88778
11
6.30083
21
-5.89089
0
LINE
8
BLACK
6
CONTINUOUS
10
6.30083
20
-5.89089
11
6.29772
21
-5.89297
0
LINE
8
BLACK
6
CONTINUOUS
10
6.29772
20
-5.89297
11
6.29405
21
-5.8937
0
LINE
8
BLACK
6
CONTINUOUS
10
6.29405
20
-5.8937
11
6.27485
21
-5.8937
0
LINE
8
BLACK
6
CONTINUOUS
10
6.27485
20
-5.8937
11
6.27118
21
-5.89297
0
LINE
8
BLACK
6
CONTINUOUS
10
6.27118
20
-5.89297
11
6.26807
21
-5.89089
0
LINE
8
BLACK
6
CONTINUOUS
10
6.26807
20
-5.89089
11
6.26599
21
-5.88778
0
LINE
8
BLACK
6
CONTINUOUS
10
6.26599
20
-5.88778
11
6.26526
21
-5.8841
0
LINE
8
BLACK
6
CONTINUOUS
10
6.26526
20
-5.8841
11
6.26526
21
-5.84818
0
LINE
8
BLACK
6
CONTINUOUS
10
6.26526
20
-5.84818
11
6.26599
21
-5.84451
0
LINE
8
BLACK
6
CONTINUOUS
10
6.26599
20
-5.84451
11
6.26807
21
-5.84139
0
LINE
8
BLACK
6
CONTINUOUS
10
6.26807
20
-5.84139
11
6.27118
21
-5.83931
0
LINE
8
BLACK
6
CONTINUOUS
10
6.27118
20
-5.83931
11
6.27485
21
-5.83858
0
LINE
8
BLACK
6
CONTINUOUS
10
6.27485
20
-5.83858
11
6.29405
21
-5.83858
0
LINE
8
BLACK
6
CONTINUOUS
10
6.29405
20
-5.83858
11
6.29772
21
-5.83931
0
LINE
8
BLACK
6
CONTINUOUS
10
6.82429
20
-5.83931
11
6.82741
21
-5.84139
0
LINE
8
BLACK
6
CONTINUOUS
10
6.82741
20
-5.84139
11
6.82949
21
-5.84451
0
LINE
8
BLACK
6
CONTINUOUS
10
6.82949
20
-5.84451
11
6.83022
21
-5.84818
0
LINE
8
BLACK
6
CONTINUOUS
10
6.83022
20
-5.84818
11
6.83022
21
-5.8841
0
LINE
8
BLACK
6
CONTINUOUS
10
6.83022
20
-5.8841
11
6.82949
21
-5.88778
0
LINE
8
BLACK
6
CONTINUOUS
10
6.82949
20
-5.88778
11
6.82741
21
-5.89089
0
LINE
8
BLACK
6
CONTINUOUS
10
6.82741
20
-5.89089
11
6.82429
21
-5.89297
0
LINE
8
BLACK
6
CONTINUOUS
10
6.82429
20
-5.89297
11
6.82062
21
-5.8937
0
LINE
8
BLACK
6
CONTINUOUS
10
6.82062
20
-5.8937
11
6.80143
21
-5.8937
0
LINE
8
BLACK
6
CONTINUOUS
10
6.80143
20
-5.8937
11
6.79775
21
-5.89297
0
LINE
8
BLACK
6
CONTINUOUS
10
6.79775
20
-5.89297
11
6.79464
21
-5.89089
0
LINE
8
BLACK
6
CONTINUOUS
10
6.79464
20
-5.89089
11
6.79256
21
-5.88778
0
LINE
8
BLACK
6
CONTINUOUS
10
6.79256
20
-5.88778
11
6.79183
21
-5.8841
0
LINE
8
BLACK
6
CONTINUOUS
10
6.79183
20
-5.8841
11
6.79183
21
-5.84818
0
LINE
8
BLACK
6
CONTINUOUS
10
6.79183
20
-5.84818
11
6.79256
21
-5.84451
0
LINE
8
BLACK
6
CONTINUOUS
10
6.79256
20
-5.84451
11
6.79464
21
-5.84139
0
LINE
8
BLACK
6
CONTINUOUS
10
6.79464
20
-5.84139
11
6.79775
21
-5.83931
0
LINE
8
BLACK
6
CONTINUOUS
10
6.79775
20
-5.83931
11
6.80143
21
-5.83858
0
LINE
8
BLACK
6
CONTINUOUS
10
6.80143
20
-5.83858
11
6.82062
21
-5.83858
0
LINE
8
BLACK
6
CONTINUOUS
10
6.82062
20
-5.83858
11
6.82429
21
-5.83931
0
LINE
8
BLACK
6
CONTINUOUS
10
6.89811
20
-5.83931
11
6.90122
21
-5.84139
0
LINE
8
BLACK
6
CONTINUOUS
10
6.90122
20
-5.84139
11
6.9033
21
-5.84451
0
LINE
8
BLACK
6
CONTINUOUS
10
6.9033
20
-5.84451
11
6.90404
21
-5.84818
0
LINE
8
BLACK
6
CONTINUOUS
10
6.90404
20
-5.84818
11
6.90404
21
-5.8841
0
LINE
8
BLACK
6
CONTINUOUS
10
6.90404
20
-5.8841
11
6.9033
21
-5.88778
0
LINE
8
BLACK
6
CONTINUOUS
10
6.9033
20
-5.88778
11
6.90122
21
-5.89089
0
LINE
8
BLACK
6
CONTINUOUS
10
6.90122
20
-5.89089
11
6.89811
21
-5.89297
0
LINE
8
BLACK
6
CONTINUOUS
10
6.89811
20
-5.89297
11
6.89444
21
-5.8937
0
LINE
8
BLACK
6
CONTINUOUS
10
6.89444
20
-5.8937
11
6.87525
21
-5.8937
0
LINE
8
BLACK
6
CONTINUOUS
10
6.87525
20
-5.8937
11
6.87157
21
-5.89297
0
LINE
8
BLACK
6
CONTINUOUS
10
6.87157
20
-5.89297
11
6.86846
21
-5.89089
0
LINE
8
BLACK
6
CONTINUOUS
10
6.86846
20
-5.89089
11
6.86638
21
-5.88778
0
LINE
8
BLACK
6
CONTINUOUS
10
6.86638
20
-5.88778
11
6.86565
21
-5.8841
0
LINE
8
BLACK
6
CONTINUOUS
10
6.86565
20
-5.8841
11
6.86565
21
-5.84818
0
LINE
8
BLACK
6
CONTINUOUS
10
6.86565
20
-5.84818
11
6.86638
21
-5.84451
0
LINE
8
BLACK
6
CONTINUOUS
10
6.86638
20
-5.84451
11
6.86846
21
-5.84139
0
LINE
8
BLACK
6
CONTINUOUS
10
6.86846
20
-5.84139
11
6.87157
21
-5.83931
0
LINE
8
BLACK
6
CONTINUOUS
10
6.87157
20
-5.83931
11
6.87525
21
-5.83858
0
LINE
8
BLACK
6
CONTINUOUS
10
6.87525
20
-5.83858
11
6.89444
21
-5.83858
0
LINE
8
BLACK
6
CONTINUOUS
10
6.89444
20
-5.83858
11
6.89811
21
-5.83931
0
LINE
8
BLACK
6
CONTINUOUS
10
7.0746
20
-5.78564
11
7.08165
21
-5.78722
0
LINE
8
BLACK
6
CONTINUOUS
10
7.08165
20
-5.78722
11
7.0882
21
-5.79027
0
LINE
8
BLACK
6
CONTINUOUS
10
7.0882
20
-5.79027
11
7.09394
21
-5.79466
0
LINE
8
BLACK
6
CONTINUOUS
10
7.09394
20
-5.79466
11
7.09861
21
-5.80018
0
LINE
8
BLACK
6
CONTINUOUS
10
7.09861
20
-5.80018
11
7.10198
21
-5.80658
0
LINE
8
BLACK
6
CONTINUOUS
10
7.10198
20
-5.80658
11
7.1039
21
-5.81355
0
LINE
8
BLACK
6
CONTINUOUS
10
7.1039
20
-5.81355
11
7.10428
21
-5.82077
0
LINE
8
BLACK
6
CONTINUOUS
10
7.10428
20
-5.82077
11
7.1031
21
-5.8279
0
LINE
8
BLACK
6
CONTINUOUS
10
7.1031
20
-5.8279
11
7.10041
21
-5.83461
0
LINE
8
BLACK
6
CONTINUOUS
10
7.10041
20
-5.83461
11
7.09635
21
-5.84059
0
LINE
8
BLACK
6
CONTINUOUS
10
7.09635
20
-5.84059
11
7.0911
21
-5.84555
0
LINE
8
BLACK
6
CONTINUOUS
10
7.0911
20
-5.84555
11
7.0849
21
-5.84928
0
LINE
8
BLACK
6
CONTINUOUS
10
7.0849
20
-5.84928
11
7.07805
21
-5.85158
0
LINE
8
BLACK
6
CONTINUOUS
10
7.07805
20
-5.85158
11
7.07087
21
-5.85236
0
LINE
8
BLACK
6
CONTINUOUS
10
7.07087
20
-5.85236
11
6.97047
21
-5.85236
0
LINE
8
BLACK
6
CONTINUOUS
10
6.97047
20
-5.85236
11
6.96674
21
-5.85215
0
LINE
8
BLACK
6
CONTINUOUS
10
6.96674
20
-5.85215
11
6.95969
21
-5.85058
0
LINE
8
BLACK
6
CONTINUOUS
10
6.95969
20
-5.85058
11
6.95314
21
-5.84752
0
LINE
8
BLACK
6
CONTINUOUS
10
6.95314
20
-5.84752
11
6.94739
21
-5.84313
0
LINE
8
BLACK
6
CONTINUOUS
10
6.94739
20
-5.84313
11
6.94273
21
-5.83761
0
LINE
8
BLACK
6
CONTINUOUS
10
6.94273
20
-5.83761
11
6.93936
21
-5.83122
0
LINE
8
BLACK
6
CONTINUOUS
10
6.93936
20
-5.83122
11
6.93744
21
-5.82425
0
LINE
8
BLACK
6
CONTINUOUS
10
6.93744
20
-5.82425
11
6.93706
21
-5.81703
0
LINE
8
BLACK
6
CONTINUOUS
10
6.93706
20
-5.81703
11
6.93824
21
-5.8099
0
LINE
8
BLACK
6
CONTINUOUS
10
6.93824
20
-5.8099
11
6.94093
21
-5.80319
0
LINE
8
BLACK
6
CONTINUOUS
10
6.94093
20
-5.80319
11
6.94499
21
-5.79721
0
LINE
8
BLACK
6
CONTINUOUS
10
6.94499
20
-5.79721
11
6.95024
21
-5.79224
0
LINE
8
BLACK
6
CONTINUOUS
10
6.95024
20
-5.79224
11
6.95644
21
-5.78852
0
LINE
8
BLACK
6
CONTINUOUS
10
6.95644
20
-5.78852
11
6.96329
21
-5.78621
0
LINE
8
BLACK
6
CONTINUOUS
10
6.96329
20
-5.78621
11
6.97047
21
-5.78543
0
LINE
8
BLACK
6
CONTINUOUS
10
6.97047
20
-5.78543
11
7.07087
21
-5.78543
0
LINE
8
BLACK
6
CONTINUOUS
10
7.07087
20
-5.78543
11
7.0746
21
-5.78564
0
LINE
8
BLACK
6
CONTINUOUS
10
6.4521
20
-5.7771
11
6.45611
21
-5.7787
0
LINE
8
BLACK
6
CONTINUOUS
10
6.45611
20
-5.7787
11
6.45929
21
-5.78164
0
LINE
8
BLACK
6
CONTINUOUS
10
6.45929
20
-5.78164
11
6.46118
21
-5.78552
0
LINE
8
BLACK
6
CONTINUOUS
10
6.46118
20
-5.78552
11
6.46156
21
-5.78983
0
LINE
8
BLACK
6
CONTINUOUS
10
6.46156
20
-5.78983
11
6.46035
21
-5.79399
0
LINE
8
BLACK
6
CONTINUOUS
10
6.46035
20
-5.79399
11
6.45774
21
-5.79743
0
LINE
8
BLACK
6
CONTINUOUS
10
6.45774
20
-5.79743
11
6.45406
21
-5.7997
0
LINE
8
BLACK
6
CONTINUOUS
10
6.45406
20
-5.7997
11
6.4498
21
-5.80049
0
LINE
8
BLACK
6
CONTINUOUS
10
6.4498
20
-5.80049
11
6.43996
21
-5.80049
0
LINE
8
BLACK
6
CONTINUOUS
10
6.43996
20
-5.80049
11
6.43767
21
-5.80027
0
LINE
8
BLACK
6
CONTINUOUS
10
6.43767
20
-5.80027
11
6.43365
21
-5.79866
0
LINE
8
BLACK
6
CONTINUOUS
10
6.43365
20
-5.79866
11
6.43048
21
-5.79572
0
LINE
8
BLACK
6
CONTINUOUS
10
6.43048
20
-5.79572
11
6.42858
21
-5.79184
0
LINE
8
BLACK
6
CONTINUOUS
10
6.42858
20
-5.79184
11
6.42821
21
-5.78753
0
LINE
8
BLACK
6
CONTINUOUS
10
6.42821
20
-5.78753
11
6.42941
21
-5.78337
0
LINE
8
BLACK
6
CONTINUOUS
10
6.42941
20
-5.78337
11
6.43203
21
-5.77993
0
LINE
8
BLACK
6
CONTINUOUS
10
6.43203
20
-5.77993
11
6.43571
21
-5.77766
0
LINE
8
BLACK
6
CONTINUOUS
10
6.43571
20
-5.77766
11
6.43996
21
-5.77687
0
LINE
8
BLACK
6
CONTINUOUS
10
6.43996
20
-5.77687
11
6.4498
21
-5.77687
0
LINE
8
BLACK
6
CONTINUOUS
10
6.4498
20
-5.77687
11
6.4521
21
-5.7771
0
LINE
8
BLACK
6
CONTINUOUS
10
6.68701
20
-5.77845
11
6.69015
21
-5.78109
0
LINE
8
BLACK
6
CONTINUOUS
10
6.69015
20
-5.78109
11
6.6922
21
-5.78464
0
LINE
8
BLACK
6
CONTINUOUS
10
6.6922
20
-5.78464
11
6.69291
21
-5.78868
0
LINE
8
BLACK
6
CONTINUOUS
10
6.69291
20
-5.78868
11
6.6922
21
-5.79272
0
LINE
8
BLACK
6
CONTINUOUS
10
6.6922
20
-5.79272
11
6.69015
21
-5.79627
0
LINE
8
BLACK
6
CONTINUOUS
10
6.69015
20
-5.79627
11
6.68701
21
-5.79891
0
LINE
8
BLACK
6
CONTINUOUS
10
6.68701
20
-5.79891
11
6.68315
21
-5.80031
0
LINE
8
BLACK
6
CONTINUOUS
10
6.68315
20
-5.80031
11
6.67905
21
-5.80031
0
LINE
8
BLACK
6
CONTINUOUS
10
6.67905
20
-5.80031
11
6.6752
21
-5.79891
0
LINE
8
BLACK
6
CONTINUOUS
10
6.6752
20
-5.79891
11
6.67205
21
-5.79627
0
LINE
8
BLACK
6
CONTINUOUS
10
6.67205
20
-5.79627
11
6.67
21
-5.79272
0
LINE
8
BLACK
6
CONTINUOUS
10
6.67
20
-5.79272
11
6.66929
21
-5.78868
0
LINE
8
BLACK
6
CONTINUOUS
10
6.66929
20
-5.78868
11
6.67
21
-5.78464
0
LINE
8
BLACK
6
CONTINUOUS
10
6.67
20
-5.78464
11
6.67205
21
-5.78109
0
LINE
8
BLACK
6
CONTINUOUS
10
6.67205
20
-5.78109
11
6.6752
21
-5.77845
0
LINE
8
BLACK
6
CONTINUOUS
10
6.6752
20
-5.77845
11
6.67905
21
-5.77705
0
LINE
8
BLACK
6
CONTINUOUS
10
6.67905
20
-5.77705
11
6.68315
21
-5.77705
0
LINE
8
BLACK
6
CONTINUOUS
10
6.68315
20
-5.77705
11
6.68701
21
-5.77845
0
LINE
8
BLACK
6
CONTINUOUS
10
6.39582
20
-5.72197
11
6.40117
21
-5.72357
0
LINE
8
BLACK
6
CONTINUOUS
10
6.40117
20
-5.72357
11
6.40585
21
-5.7266
0
LINE
8
BLACK
6
CONTINUOUS
10
6.40585
20
-5.7266
11
6.4095
21
-5.73083
0
LINE
8
BLACK
6
CONTINUOUS
10
6.4095
20
-5.73083
11
6.41181
21
-5.73591
0
LINE
8
BLACK
6
CONTINUOUS
10
6.41181
20
-5.73591
11
6.4126
21
-5.74144
0
LINE
8
BLACK
6
CONTINUOUS
10
6.4126
20
-5.74144
11
6.4126
21
-5.78081
0
LINE
8
BLACK
6
CONTINUOUS
10
6.4126
20
-5.78081
11
6.4126
21
-5.78105
0
LINE
8
BLACK
6
CONTINUOUS
10
6.4126
20
-5.78105
11
6.41174
21
-5.78656
0
LINE
8
BLACK
6
CONTINUOUS
10
6.41174
20
-5.78656
11
6.40937
21
-5.79161
0
LINE
8
BLACK
6
CONTINUOUS
10
6.40937
20
-5.79161
11
6.40567
21
-5.7958
0
LINE
8
BLACK
6
CONTINUOUS
10
6.40567
20
-5.7958
11
6.40095
21
-5.79878
0
LINE
8
BLACK
6
CONTINUOUS
10
6.40095
20
-5.79878
11
6.39558
21
-5.80031
0
LINE
8
BLACK
6
CONTINUOUS
10
6.39558
20
-5.80031
11
6.39
21
-5.80028
0
LINE
8
BLACK
6
CONTINUOUS
10
6.39
20
-5.80028
11
6.38466
21
-5.79868
0
LINE
8
BLACK
6
CONTINUOUS
10
6.38466
20
-5.79868
11
6.37997
21
-5.79564
0
LINE
8
BLACK
6
CONTINUOUS
10
6.37997
20
-5.79564
11
6.37633
21
-5.79141
0
LINE
8
BLACK
6
CONTINUOUS
10
6.37633
20
-5.79141
11
6.37402
21
-5.78633
0
LINE
8
BLACK
6
CONTINUOUS
10
6.37402
20
-5.78633
11
6.37323
21
-5.78081
0
LINE
8
BLACK
6
CONTINUOUS
10
6.37323
20
-5.78081
11
6.37323
21
-5.74144
0
LINE
8
BLACK
6
CONTINUOUS
10
6.37323
20
-5.74144
11
6.37323
21
-5.7412
0
LINE
8
BLACK
6
CONTINUOUS
10
6.37323
20
-5.7412
11
6.37409
21
-5.73568
0
LINE
8
BLACK
6
CONTINUOUS
10
6.37409
20
-5.73568
11
6.37646
21
-5.73063
0
LINE
8
BLACK
6
CONTINUOUS
10
6.37646
20
-5.73063
11
6.38016
21
-5.72645
0
LINE
8
BLACK
6
CONTINUOUS
10
6.38016
20
-5.72645
11
6.38488
21
-5.72347
0
LINE
8
BLACK
6
CONTINUOUS
10
6.38488
20
-5.72347
11
6.39024
21
-5.72193
0
LINE
8
BLACK
6
CONTINUOUS
10
6.39024
20
-5.72193
11
6.39582
21
-5.72197
0
LINE
8
BLACK
6
CONTINUOUS
10
6.73598
20
-5.72098
11
6.74133
21
-5.72258
0
LINE
8
BLACK
6
CONTINUOUS
10
6.74133
20
-5.72258
11
6.74601
21
-5.72562
0
LINE
8
BLACK
6
CONTINUOUS
10
6.74601
20
-5.72562
11
6.74965
21
-5.72985
0
LINE
8
BLACK
6
CONTINUOUS
10
6.74965
20
-5.72985
11
6.75196
21
-5.73493
0
LINE
8
BLACK
6
CONTINUOUS
10
6.75196
20
-5.73493
11
6.75276
21
-5.74045
0
LINE
8
BLACK
6
CONTINUOUS
10
6.75276
20
-5.74045
11
6.75276
21
-5.77982
0
LINE
8
BLACK
6
CONTINUOUS
10
6.75276
20
-5.77982
11
6.75275
21
-5.78006
0
LINE
8
BLACK
6
CONTINUOUS
10
6.75275
20
-5.78006
11
6.7519
21
-5.78558
0
LINE
8
BLACK
6
CONTINUOUS
10
6.7519
20
-5.78558
11
6.74952
21
-5.79063
0
LINE
8
BLACK
6
CONTINUOUS
10
6.74952
20
-5.79063
11
6.74583
21
-5.79481
0
LINE
8
BLACK
6
CONTINUOUS
10
6.74583
20
-5.79481
11
6.74111
21
-5.79779
0
LINE
8
BLACK
6
CONTINUOUS
10
6.74111
20
-5.79779
11
6.73574
21
-5.79933
0
LINE
8
BLACK
6
CONTINUOUS
10
6.73574
20
-5.79933
11
6.73016
21
-5.79929
0
LINE
8
BLACK
6
CONTINUOUS
10
6.73016
20
-5.79929
11
6.72481
21
-5.79769
0
LINE
8
BLACK
6
CONTINUOUS
10
6.72481
20
-5.79769
11
6.72013
21
-5.79466
0
LINE
8
BLACK
6
CONTINUOUS
10
6.72013
20
-5.79466
11
6.71649
21
-5.79043
0
LINE
8
BLACK
6
CONTINUOUS
10
6.71649
20
-5.79043
11
6.71418
21
-5.78535
0
LINE
8
BLACK
6
CONTINUOUS
10
6.71418
20
-5.78535
11
6.71339
21
-5.77982
0
LINE
8
BLACK
6
CONTINUOUS
10
6.71339
20
-5.77982
11
6.71339
21
-5.74045
0
LINE
8
BLACK
6
CONTINUOUS
10
6.71339
20
-5.74045
11
6.71339
21
-5.74021
0
LINE
8
BLACK
6
CONTINUOUS
10
6.71339
20
-5.74021
11
6.71425
21
-5.7347
0
LINE
8
BLACK
6
CONTINUOUS
10
6.71425
20
-5.7347
11
6.71662
21
-5.72965
0
LINE
8
BLACK
6
CONTINUOUS
10
6.71662
20
-5.72965
11
6.72031
21
-5.72546
0
LINE
8
BLACK
6
CONTINUOUS
10
6.72031
20
-5.72546
11
6.72503
21
-5.72248
0
LINE
8
BLACK
6
CONTINUOUS
10
6.72503
20
-5.72248
11
6.7304
21
-5.72095
0
LINE
8
BLACK
6
CONTINUOUS
10
6.7304
20
-5.72095
11
6.73598
21
-5.72098
0
LINE
8
BLACK
6
CONTINUOUS
10
6.55846
20
-5.76506
11
6.54783
21
-5.76506
0
LINE
8
BLACK
6
CONTINUOUS
10
6.54783
20
-5.76506
11
6.54783
21
-5.72569
0
LINE
8
BLACK
6
CONTINUOUS
10
6.54783
20
-5.72569
11
6.55846
21
-5.72569
0
LINE
8
BLACK
6
CONTINUOUS
10
6.55846
20
-5.72569
11
6.55846
21
-5.76506
0
LINE
8
BLACK
6
CONTINUOUS
10
6.6372
20
-5.76506
11
6.62657
21
-5.76506
0
LINE
8
BLACK
6
CONTINUOUS
10
6.62657
20
-5.76506
11
6.62657
21
-5.72569
0
LINE
8
BLACK
6
CONTINUOUS
10
6.62657
20
-5.72569
11
6.6372
21
-5.72569
0
LINE
8
BLACK
6
CONTINUOUS
10
6.6372
20
-5.72569
11
6.6372
21
-5.76506
0
LINE
8
BLACK
6
CONTINUOUS
10
6.61752
20
-5.76506
11
6.60689
21
-5.76506
0
LINE
8
BLACK
6
CONTINUOUS
10
6.60689
20
-5.76506
11
6.60689
21
-5.72569
0
LINE
8
BLACK
6
CONTINUOUS
10
6.60689
20
-5.72569
11
6.61752
21
-5.72569
0
LINE
8
BLACK
6
CONTINUOUS
10
6.61752
20
-5.72569
11
6.61752
21
-5.76506
0
LINE
8
BLACK
6
CONTINUOUS
10
6.59783
20
-5.76506
11
6.5872
21
-5.76506
0
LINE
8
BLACK
6
CONTINUOUS
10
6.5872
20
-5.76506
11
6.5872
21
-5.72569
0
LINE
8
BLACK
6
CONTINUOUS
10
6.5872
20
-5.72569
11
6.59783
21
-5.72569
0
LINE
8
BLACK
6
CONTINUOUS
10
6.59783
20
-5.72569
11
6.59783
21
-5.76506
0
LINE
8
BLACK
6
CONTINUOUS
10
6.57815
20
-5.76506
11
6.56752
21
-5.76506
0
LINE
8
BLACK
6
CONTINUOUS
10
6.56752
20
-5.76506
11
6.56752
21
-5.72569
0
LINE
8
BLACK
6
CONTINUOUS
10
6.56752
20
-5.72569
11
6.57815
21
-5.72569
0
LINE
8
BLACK
6
CONTINUOUS
10
6.57815
20
-5.72569
11
6.57815
21
-5.76506
0
LINE
8
BLACK
6
CONTINUOUS
10
6.53878
20
-5.76506
11
6.52815
21
-5.76506
0
LINE
8
BLACK
6
CONTINUOUS
10
6.52815
20
-5.76506
11
6.52815
21
-5.72569
0
LINE
8
BLACK
6
CONTINUOUS
10
6.52815
20
-5.72569
11
6.53878
21
-5.72569
0
LINE
8
BLACK
6
CONTINUOUS
10
6.53878
20
-5.72569
11
6.53878
21
-5.76506
0
LINE
8
BLACK
6
CONTINUOUS
10
6.51909
20
-5.76506
11
6.50846
21
-5.76506
0
LINE
8
BLACK
6
CONTINUOUS
10
6.50846
20
-5.76506
11
6.50846
21
-5.72569
0
LINE
8
BLACK
6
CONTINUOUS
10
6.50846
20
-5.72569
11
6.51909
21
-5.72569
0
LINE
8
BLACK
6
CONTINUOUS
10
6.51909
20
-5.72569
11
6.51909
21
-5.76506
0
LINE
8
BLACK
6
CONTINUOUS
10
6.49941
20
-5.76506
11
6.48878
21
-5.76506
0
LINE
8
BLACK
6
CONTINUOUS
10
6.48878
20
-5.76506
11
6.48878
21
-5.72569
0
LINE
8
BLACK
6
CONTINUOUS
10
6.48878
20
-5.72569
11
6.49941
21
-5.72569
0
LINE
8
BLACK
6
CONTINUOUS
10
6.49941
20
-5.72569
11
6.49941
21
-5.76506
0
LINE
8
BLACK
6
CONTINUOUS
10
6.69528
20
-5.76506
11
6.6748
21
-5.76506
0
LINE
8
BLACK
6
CONTINUOUS
10
6.6748
20
-5.76506
11
6.6748
21
-5.72569
0
LINE
8
BLACK
6
CONTINUOUS
10
6.6748
20
-5.72569
11
6.69528
21
-5.72569
0
LINE
8
BLACK
6
CONTINUOUS
10
6.69528
20
-5.72569
11
6.69528
21
-5.76506
0
LINE
8
BLACK
6
CONTINUOUS
10
6.66575
20
-5.76506
11
6.64528
21
-5.76506
0
LINE
8
BLACK
6
CONTINUOUS
10
6.64528
20
-5.76506
11
6.64528
21
-5.72569
0
LINE
8
BLACK
6
CONTINUOUS
10
6.64528
20
-5.72569
11
6.66575
21
-5.72569
0
LINE
8
BLACK
6
CONTINUOUS
10
6.66575
20
-5.72569
11
6.66575
21
-5.76506
0
LINE
8
BLACK
6
CONTINUOUS
10
6.45118
20
-5.76506
11
6.43071
21
-5.76506
0
LINE
8
BLACK
6
CONTINUOUS
10
6.43071
20
-5.76506
11
6.43071
21
-5.72569
0
LINE
8
BLACK
6
CONTINUOUS
10
6.43071
20
-5.72569
11
6.45118
21
-5.72569
0
LINE
8
BLACK
6
CONTINUOUS
10
6.45118
20
-5.72569
11
6.45118
21
-5.76506
0
LINE
8
BLACK
6
CONTINUOUS
10
6.48071
20
-5.76506
11
6.46024
21
-5.76506
0
LINE
8
BLACK
6
CONTINUOUS
10
6.46024
20
-5.76506
11
6.46024
21
-5.72569
0
LINE
8
BLACK
6
CONTINUOUS
10
6.46024
20
-5.72569
11
6.48071
21
-5.72569
0
LINE
8
BLACK
6
CONTINUOUS
10
6.48071
20
-5.72569
11
6.48071
21
-5.76506
0
LINE
8
BLACK
6
CONTINUOUS
10
7.0753
20
-5.68564
11
7.08218
21
-5.68718
0
LINE
8
BLACK
6
CONTINUOUS
10
7.08218
20
-5.68718
11
7.08858
21
-5.69016
0
LINE
8
BLACK
6
CONTINUOUS
10
7.08858
20
-5.69016
11
7.09419
21
-5.69445
0
LINE
8
BLACK
6
CONTINUOUS
10
7.09419
20
-5.69445
11
7.09874
21
-5.69984
0
LINE
8
BLACK
6
CONTINUOUS
10
7.09874
20
-5.69984
11
7.10204
21
-5.70608
0
LINE
8
BLACK
6
CONTINUOUS
10
7.10204
20
-5.70608
11
7.10391
21
-5.71289
0
LINE
8
BLACK
6
CONTINUOUS
10
7.10391
20
-5.71289
11
7.10428
21
-5.71993
0
LINE
8
BLACK
6
CONTINUOUS
10
7.10428
20
-5.71993
11
7.10313
21
-5.7269
0
LINE
8
BLACK
6
CONTINUOUS
10
7.10313
20
-5.7269
11
7.10051
21
-5.73345
0
LINE
8
BLACK
6
CONTINUOUS
10
7.10051
20
-5.73345
11
7.09654
21
-5.73929
0
LINE
8
BLACK
6
CONTINUOUS
10
7.09654
20
-5.73929
11
7.09141
21
-5.74414
0
LINE
8
BLACK
6
CONTINUOUS
10
7.09141
20
-5.74414
11
7.08536
21
-5.74777
0
LINE
8
BLACK
6
CONTINUOUS
10
7.08536
20
-5.74777
11
7.07867
21
-5.75003
0
LINE
8
BLACK
6
CONTINUOUS
10
7.07867
20
-5.75003
11
7.07165
21
-5.75079
0
LINE
8
BLACK
6
CONTINUOUS
10
7.07165
20
-5.75079
11
6.96772
21
-5.75079
0
LINE
8
BLACK
6
CONTINUOUS
10
6.96772
20
-5.75079
11
6.96407
21
-5.75058
0
LINE
8
BLACK
6
CONTINUOUS
10
6.96407
20
-5.75058
11
6.95719
21
-5.74904
0
LINE
8
BLACK
6
CONTINUOUS
10
6.95719
20
-5.74904
11
6.95079
21
-5.74606
0
LINE
8
BLACK
6
CONTINUOUS
10
6.95079
20
-5.74606
11
6.94518
21
-5.74177
0
LINE
8
BLACK
6
CONTINUOUS
10
6.94518
20
-5.74177
11
6.94063
21
-5.73638
0
LINE
8
BLACK
6
CONTINUOUS
10
6.94063
20
-5.73638
11
6.93733
21
-5.73014
0
LINE
8
BLACK
6
CONTINUOUS
10
6.93733
20
-5.73014
11
6.93546
21
-5.72333
0
LINE
8
BLACK
6
CONTINUOUS
10
6.93546
20
-5.72333
11
6.93509
21
-5.71629
0
LINE
8
BLACK
6
CONTINUOUS
10
6.93509
20
-5.71629
11
6.93624
21
-5.70932
0
LINE
8
BLACK
6
CONTINUOUS
10
6.93624
20
-5.70932
11
6.93886
21
-5.70277
0
LINE
8
BLACK
6
CONTINUOUS
10
6.93886
20
-5.70277
11
6.94283
21
-5.69693
0
LINE
8
BLACK
6
CONTINUOUS
10
6.94283
20
-5.69693
11
6.94796
21
-5.69208
0
LINE
8
BLACK
6
CONTINUOUS
10
6.94796
20
-5.69208
11
6.95401
21
-5.68845
0
LINE
8
BLACK
6
CONTINUOUS
10
6.95401
20
-5.68845
11
6.9607
21
-5.6862
0
LINE
8
BLACK
6
CONTINUOUS
10
6.9607
20
-5.6862
11
6.96772
21
-5.68543
0
LINE
8
BLACK
6
CONTINUOUS
10
6.96772
20
-5.68543
11
7.07165
21
-5.68543
0
LINE
8
BLACK
6
CONTINUOUS
10
7.07165
20
-5.68543
11
7.0753
21
-5.68564
0
LINE
8
BLACK
6
CONTINUOUS
10
7.10433
20
-5.65433
11
6.93898
21
-5.65433
0
LINE
8
BLACK
6
CONTINUOUS
10
6.93898
20
-5.65433
11
6.93898
21
-5.58543
0
LINE
8
BLACK
6
CONTINUOUS
10
6.93898
20
-5.58543
11
7.10433
21
-5.58543
0
LINE
8
BLACK
6
CONTINUOUS
10
7.10433
20
-5.58543
11
7.10433
21
-5.65433
0
LINE
8
BLACK
6
CONTINUOUS
10
6.91635
20
-5.29652
11
6.92274
21
-5.29937
0
LINE
8
BLACK
6
CONTINUOUS
10
6.92274
20
-5.29937
11
6.9284
21
-5.30348
0
LINE
8
BLACK
6
CONTINUOUS
10
6.9284
20
-5.30348
11
6.93308
21
-5.30868
0
LINE
8
BLACK
6
CONTINUOUS
10
6.93308
20
-5.30868
11
6.93658
21
-5.31474
0
LINE
8
BLACK
6
CONTINUOUS
10
6.93658
20
-5.31474
11
6.93874
21
-5.32139
0
LINE
8
BLACK
6
CONTINUOUS
10
6.93874
20
-5.32139
11
6.93947
21
-5.32835
0
LINE
8
BLACK
6
CONTINUOUS
10
6.93947
20
-5.32835
11
6.93874
21
-5.3353
0
LINE
8
BLACK
6
CONTINUOUS
10
6.93874
20
-5.3353
11
6.93658
21
-5.34196
0
LINE
8
BLACK
6
CONTINUOUS
10
6.93658
20
-5.34196
11
6.93308
21
-5.34802
0
LINE
8
BLACK
6
CONTINUOUS
10
6.93308
20
-5.34802
11
6.9284
21
-5.35322
0
LINE
8
BLACK
6
CONTINUOUS
10
6.9284
20
-5.35322
11
6.92274
21
-5.35733
0
LINE
8
BLACK
6
CONTINUOUS
10
6.92274
20
-5.35733
11
6.91635
21
-5.36017
0
LINE
8
BLACK
6
CONTINUOUS
10
6.91635
20
-5.36017
11
6.9095
21
-5.36163
0
LINE
8
BLACK
6
CONTINUOUS
10
6.9095
20
-5.36163
11
6.90251
21
-5.36163
0
LINE
8
BLACK
6
CONTINUOUS
10
6.90251
20
-5.36163
11
6.89566
21
-5.36017
0
LINE
8
BLACK
6
CONTINUOUS
10
6.89566
20
-5.36017
11
6.88927
21
-5.35733
0
LINE
8
BLACK
6
CONTINUOUS
10
6.88927
20
-5.35733
11
6.88361
21
-5.35322
0
LINE
8
BLACK
6
CONTINUOUS
10
6.88361
20
-5.35322
11
6.87893
21
-5.34802
0
LINE
8
BLACK
6
CONTINUOUS
10
6.87893
20
-5.34802
11
6.87543
21
-5.34196
0
LINE
8
BLACK
6
CONTINUOUS
10
6.87543
20
-5.34196
11
6.87327
21
-5.3353
0
LINE
8
BLACK
6
CONTINUOUS
10
6.87327
20
-5.3353
11
6.87254
21
-5.32835
0
LINE
8
BLACK
6
CONTINUOUS
10
6.87254
20
-5.32835
11
6.87327
21
-5.32139
0
LINE
8
BLACK
6
CONTINUOUS
10
6.87327
20
-5.32139
11
6.87543
21
-5.31474
0
LINE
8
BLACK
6
CONTINUOUS
10
6.87543
20
-5.31474
11
6.87893
21
-5.30868
0
LINE
8
BLACK
6
CONTINUOUS
10
6.87893
20
-5.30868
11
6.88361
21
-5.30348
0
LINE
8
BLACK
6
CONTINUOUS
10
6.88361
20
-5.30348
11
6.88927
21
-5.29937
0
LINE
8
BLACK
6
CONTINUOUS
10
6.88927
20
-5.29937
11
6.89566
21
-5.29652
0
LINE
8
BLACK
6
CONTINUOUS
10
6.89566
20
-5.29652
11
6.90251
21
-5.29507
0
LINE
8
BLACK
6
CONTINUOUS
10
6.90251
20
-5.29507
11
6.9095
21
-5.29507
0
LINE
8
BLACK
6
CONTINUOUS
10
6.9095
20
-5.29507
11
6.91635
21
-5.29652
0
LINE
8
BLACK
6
CONTINUOUS
10
7.01635
20
-5.29652
11
7.02274
21
-5.29937
0
LINE
8
BLACK
6
CONTINUOUS
10
7.02274
20
-5.29937
11
7.0284
21
-5.30348
0
LINE
8
BLACK
6
CONTINUOUS
10
7.0284
20
-5.30348
11
7.03308
21
-5.30868
0
LINE
8
BLACK
6
CONTINUOUS
10
7.03308
20
-5.30868
11
7.03658
21
-5.31474
0
LINE
8
BLACK
6
CONTINUOUS
10
7.03658
20
-5.31474
11
7.03874
21
-5.32139
0
LINE
8
BLACK
6
CONTINUOUS
10
7.03874
20
-5.32139
11
7.03947
21
-5.32835
0
LINE
8
BLACK
6
CONTINUOUS
10
7.03947
20
-5.32835
11
7.03874
21
-5.3353
0
LINE
8
BLACK
6
CONTINUOUS
10
7.03874
20
-5.3353
11
7.03658
21
-5.34196
0
LINE
8
BLACK
6
CONTINUOUS
10
7.03658
20
-5.34196
11
7.03308
21
-5.34802
0
LINE
8
BLACK
6
CONTINUOUS
10
7.03308
20
-5.34802
11
7.0284
21
-5.35322
0
LINE
8
BLACK
6
CONTINUOUS
10
7.0284
20
-5.35322
11
7.02274
21
-5.35733
0
LINE
8
BLACK
6
CONTINUOUS
10
7.02274
20
-5.35733
11
7.01635
21
-5.36017
0
LINE
8
BLACK
6
CONTINUOUS
10
7.01635
20
-5.36017
11
7.0095
21
-5.36163
0
LINE
8
BLACK
6
CONTINUOUS
10
7.0095
20
-5.36163
11
7.00251
21
-5.36163
0
LINE
8
BLACK
6
CONTINUOUS
10
7.00251
20
-5.36163
11
6.99566
21
-5.36017
0
LINE
8
BLACK
6
CONTINUOUS
10
6.99566
20
-5.36017
11
6.98927
21
-5.35733
0
LINE
8
BLACK
6
CONTINUOUS
10
6.98927
20
-5.35733
11
6.98361
21
-5.35322
0
LINE
8
BLACK
6
CONTINUOUS
10
6.98361
20
-5.35322
11
6.97893
21
-5.34802
0
LINE
8
BLACK
6
CONTINUOUS
10
6.97893
20
-5.34802
11
6.97543
21
-5.34196
0
LINE
8
BLACK
6
CONTINUOUS
10
6.97543
20
-5.34196
11
6.97327
21
-5.3353
0
LINE
8
BLACK
6
CONTINUOUS
10
6.97327
20
-5.3353
11
6.97254
21
-5.32835
0
LINE
8
BLACK
6
CONTINUOUS
10
6.97254
20
-5.32835
11
6.97327
21
-5.32139
0
LINE
8
BLACK
6
CONTINUOUS
10
6.97327
20
-5.32139
11
6.97543
21
-5.31474
0
LINE
8
BLACK
6
CONTINUOUS
10
6.97543
20
-5.31474
11
6.97893
21
-5.30868
0
LINE
8
BLACK
6
CONTINUOUS
10
6.97893
20
-5.30868
11
6.98361
21
-5.30348
0
LINE
8
BLACK
6
CONTINUOUS
10
6.98361
20
-5.30348
11
6.98927
21
-5.29937
0
LINE
8
BLACK
6
CONTINUOUS
10
6.98927
20
-5.29937
11
6.99566
21
-5.29652
0
LINE
8
BLACK
6
CONTINUOUS
10
6.99566
20
-5.29652
11
7.00251
21
-5.29507
0
LINE
8
BLACK
6
CONTINUOUS
10
7.00251
20
-5.29507
11
7.0095
21
-5.29507
0
LINE
8
BLACK
6
CONTINUOUS
10
7.0095
20
-5.29507
11
7.01635
21
-5.29652
0
LINE
8
BLACK
6
CONTINUOUS
10
6.91635
20
-5.19652
11
6.92274
21
-5.19937
0
LINE
8
BLACK
6
CONTINUOUS
10
6.92274
20
-5.19937
11
6.9284
21
-5.20348
0
LINE
8
BLACK
6
CONTINUOUS
10
6.9284
20
-5.20348
11
6.93308
21
-5.20868
0
LINE
8
BLACK
6
CONTINUOUS
10
6.93308
20
-5.20868
11
6.93658
21
-5.21474
0
LINE
8
BLACK
6
CONTINUOUS
10
6.93658
20
-5.21474
11
6.93874
21
-5.22139
0
LINE
8
BLACK
6
CONTINUOUS
10
6.93874
20
-5.22139
11
6.93947
21
-5.22835
0
LINE
8
BLACK
6
CONTINUOUS
10
6.93947
20
-5.22835
11
6.93874
21
-5.2353
0
LINE
8
BLACK
6
CONTINUOUS
10
6.93874
20
-5.2353
11
6.93658
21
-5.24196
0
LINE
8
BLACK
6
CONTINUOUS
10
6.93658
20
-5.24196
11
6.93308
21
-5.24802
0
LINE
8
BLACK
6
CONTINUOUS
10
6.93308
20
-5.24802
11
6.9284
21
-5.25322
0
LINE
8
BLACK
6
CONTINUOUS
10
6.9284
20
-5.25322
11
6.92274
21
-5.25733
0
LINE
8
BLACK
6
CONTINUOUS
10
6.92274
20
-5.25733
11
6.91635
21
-5.26017
0
LINE
8
BLACK
6
CONTINUOUS
10
6.91635
20
-5.26017
11
6.9095
21
-5.26163
0
LINE
8
BLACK
6
CONTINUOUS
10
6.9095
20
-5.26163
11
6.90251
21
-5.26163
0
LINE
8
BLACK
6
CONTINUOUS
10
6.90251
20
-5.26163
11
6.89566
21
-5.26017
0
LINE
8
BLACK
6
CONTINUOUS
10
6.89566
20
-5.26017
11
6.88927
21
-5.25733
0
LINE
8
BLACK
6
CONTINUOUS
10
6.88927
20
-5.25733
11
6.88361
21
-5.25322
0
LINE
8
BLACK
6
CONTINUOUS
10
6.88361
20
-5.25322
11
6.87893
21
-5.24802
0
LINE
8
BLACK
6
CONTINUOUS
10
6.87893
20
-5.24802
11
6.87543
21
-5.24196
0
LINE
8
BLACK
6
CONTINUOUS
10
6.87543
20
-5.24196
11
6.87327
21
-5.2353
0
LINE
8
BLACK
6
CONTINUOUS
10
6.87327
20
-5.2353
11
6.87254
21
-5.22835
0
LINE
8
BLACK
6
CONTINUOUS
10
6.87254
20
-5.22835
11
6.87327
21
-5.22139
0
LINE
8
BLACK
6
CONTINUOUS
10
6.87327
20
-5.22139
11
6.87543
21
-5.21474
0
LINE
8
BLACK
6
CONTINUOUS
10
6.87543
20
-5.21474
11
6.87893
21
-5.20868
0
LINE
8
BLACK
6
CONTINUOUS
10
6.87893
20
-5.20868
11
6.88361
21
-5.20348
0
LINE
8
BLACK
6
CONTINUOUS
10
6.88361
20
-5.20348
11
6.88927
21
-5.19937
0
LINE
8
BLACK
6
CONTINUOUS
10
6.88927
20
-5.19937
11
6.89566
21
-5.19652
0
LINE
8
BLACK
6
CONTINUOUS
10
6.89566
20
-5.19652
11
6.90251
21
-5.19507
0
LINE
8
BLACK
6
CONTINUOUS
10
6.90251
20
-5.19507
11
6.9095
21
-5.19507
0
LINE
8
BLACK
6
CONTINUOUS
10
6.9095
20
-5.19507
11
6.91635
21
-5.19652
0
LINE
8
BLACK
6
CONTINUOUS
10
7.01635
20
-5.19652
11
7.02274
21
-5.19937
0
LINE
8
BLACK
6
CONTINUOUS
10
7.02274
20
-5.19937
11
7.0284
21
-5.20348
0
LINE
8
BLACK
6
CONTINUOUS
10
7.0284
20
-5.20348
11
7.03308
21
-5.20868
0
LINE
8
BLACK
6
CONTINUOUS
10
7.03308
20
-5.20868
11
7.03658
21
-5.21474
0
LINE
8
BLACK
6
CONTINUOUS
10
7.03658
20
-5.21474
11
7.03874
21
-5.22139
0
LINE
8
BLACK
6
CONTINUOUS
10
7.03874
20
-5.22139
11
7.03947
21
-5.22835
0
LINE
8
BLACK
6
CONTINUOUS
10
7.03947
20
-5.22835
11
7.03874
21
-5.2353
0
LINE
8
BLACK
6
CONTINUOUS
10
7.03874
20
-5.2353
11
7.03658
21
-5.24196
0
LINE
8
BLACK
6
CONTINUOUS
10
7.03658
20
-5.24196
11
7.03308
21
-5.24802
0
LINE
8
BLACK
6
CONTINUOUS
10
7.03308
20
-5.24802
11
7.0284
21
-5.25322
0
LINE
8
BLACK
6
CONTINUOUS
10
7.0284
20
-5.25322
11
7.02274
21
-5.25733
0
LINE
8
BLACK
6
CONTINUOUS
10
7.02274
20
-5.25733
11
7.01635
21
-5.26017
0
LINE
8
BLACK
6
CONTINUOUS
10
7.01635
20
-5.26017
11
7.0095
21
-5.26163
0
LINE
8
BLACK
6
CONTINUOUS
10
7.0095
20
-5.26163
11
7.00251
21
-5.26163
0
LINE
8
BLACK
6
CONTINUOUS
10
7.00251
20
-5.26163
11
6.99566
21
-5.26017
0
LINE
8
BLACK
6
CONTINUOUS
10
6.99566
20
-5.26017
11
6.98927
21
-5.25733
0
LINE
8
BLACK
6
CONTINUOUS
10
6.98927
20
-5.25733
11
6.98361
21
-5.25322
0
LINE
8
BLACK
6
CONTINUOUS
10
6.98361
20
-5.25322
11
6.97893
21
-5.24802
0
LINE
8
BLACK
6
CONTINUOUS
10
6.97893
20
-5.24802
11
6.97543
21
-5.24196
0
LINE
8
BLACK
6
CONTINUOUS
10
6.97543
20
-5.24196
11
6.97327
21
-5.2353
0
LINE
8
BLACK
6
CONTINUOUS
10
6.97327
20
-5.2353
11
6.97254
21
-5.22835
0
LINE
8
BLACK
6
CONTINUOUS
10
6.97254
20
-5.22835
11
6.97327
21
-5.22139
0
LINE
8
BLACK
6
CONTINUOUS
10
6.97327
20
-5.22139
11
6.97543
21
-5.21474
0
LINE
8
BLACK
6
CONTINUOUS
10
6.97543
20
-5.21474
11
6.97893
21
-5.20868
0
LINE
8
BLACK
6
CONTINUOUS
10
6.97893
20
-5.20868
11
6.98361
21
-5.20348
0
LINE
8
BLACK
6
CONTINUOUS
10
6.98361
20
-5.20348
11
6.98927
21
-5.19937
0
LINE
8
BLACK
6
CONTINUOUS
10
6.98927
20
-5.19937
11
6.99566
21
-5.19652
0
LINE
8
BLACK
6
CONTINUOUS
10
6.99566
20
-5.19652
11
7.00251
21
-5.19507
0
LINE
8
BLACK
6
CONTINUOUS
10
7.00251
20
-5.19507
11
7.0095
21
-5.19507
0
LINE
8
BLACK
6
CONTINUOUS
10
7.0095
20
-5.19507
11
7.01635
21
-5.19652
0
LINE
8
BLACK
6
CONTINUOUS
10
7.03339
20
-5.09563
11
7.03659
21
-5.09776
0
LINE
8
BLACK
6
CONTINUOUS
10
7.03659
20
-5.09776
11
7.03872
21
-5.10096
0
LINE
8
BLACK
6
CONTINUOUS
10
7.03872
20
-5.10096
11
7.03947
21
-5.10472
0
LINE
8
BLACK
6
CONTINUOUS
10
7.03947
20
-5.10472
11
7.03947
21
-5.15197
0
LINE
8
BLACK
6
CONTINUOUS
10
7.03947
20
-5.15197
11
7.03872
21
-5.15574
0
LINE
8
BLACK
6
CONTINUOUS
10
7.03872
20
-5.15574
11
7.03659
21
-5.15893
0
LINE
8
BLACK
6
CONTINUOUS
10
7.03659
20
-5.15893
11
7.03339
21
-5.16106
0
LINE
8
BLACK
6
CONTINUOUS
10
7.03339
20
-5.16106
11
7.02963
21
-5.16181
0
LINE
8
BLACK
6
CONTINUOUS
10
7.02963
20
-5.16181
11
6.98238
21
-5.16181
0
LINE
8
BLACK
6
CONTINUOUS
10
6.98238
20
-5.16181
11
6.97862
21
-5.16106
0
LINE
8
BLACK
6
CONTINUOUS
10
6.97862
20
-5.16106
11
6.97542
21
-5.15893
0
LINE
8
BLACK
6
CONTINUOUS
10
6.97542
20
-5.15893
11
6.97329
21
-5.15574
0
LINE
8
BLACK
6
CONTINUOUS
10
6.97329
20
-5.15574
11
6.97254
21
-5.15197
0
LINE
8
BLACK
6
CONTINUOUS
10
6.97254
20
-5.15197
11
6.97254
21
-5.10472
0
LINE
8
BLACK
6
CONTINUOUS
10
6.97254
20
-5.10472
11
6.97329
21
-5.10096
0
LINE
8
BLACK
6
CONTINUOUS
10
6.97329
20
-5.10096
11
6.97542
21
-5.09776
0
LINE
8
BLACK
6
CONTINUOUS
10
6.97542
20
-5.09776
11
6.97862
21
-5.09563
0
LINE
8
BLACK
6
CONTINUOUS
10
6.97862
20
-5.09563
11
6.98238
21
-5.09488
0
LINE
8
BLACK
6
CONTINUOUS
10
6.98238
20
-5.09488
11
7.02963
21
-5.09488
0
LINE
8
BLACK
6
CONTINUOUS
10
7.02963
20
-5.09488
11
7.03339
21
-5.09563
0
LINE
8
BLACK
6
CONTINUOUS
10
6.91635
20
-5.09652
11
6.92274
21
-5.09937
0
LINE
8
BLACK
6
CONTINUOUS
10
6.92274
20
-5.09937
11
6.9284
21
-5.10348
0
LINE
8
BLACK
6
CONTINUOUS
10
6.9284
20
-5.10348
11
6.93308
21
-5.10868
0
LINE
8
BLACK
6
CONTINUOUS
10
6.93308
20
-5.10868
11
6.93658
21
-5.11474
0
LINE
8
BLACK
6
CONTINUOUS
10
6.93658
20
-5.11474
11
6.93874
21
-5.12139
0
LINE
8
BLACK
6
CONTINUOUS
10
6.93874
20
-5.12139
11
6.93947
21
-5.12835
0
LINE
8
BLACK
6
CONTINUOUS
10
6.93947
20
-5.12835
11
6.93874
21
-5.1353
0
LINE
8
BLACK
6
CONTINUOUS
10
6.93874
20
-5.1353
11
6.93658
21
-5.14196
0
LINE
8
BLACK
6
CONTINUOUS
10
6.93658
20
-5.14196
11
6.93308
21
-5.14802
0
LINE
8
BLACK
6
CONTINUOUS
10
6.93308
20
-5.14802
11
6.9284
21
-5.15322
0
LINE
8
BLACK
6
CONTINUOUS
10
6.9284
20
-5.15322
11
6.92274
21
-5.15733
0
LINE
8
BLACK
6
CONTINUOUS
10
6.92274
20
-5.15733
11
6.91635
21
-5.16017
0
LINE
8
BLACK
6
CONTINUOUS
10
6.91635
20
-5.16017
11
6.9095
21
-5.16163
0
LINE
8
BLACK
6
CONTINUOUS
10
6.9095
20
-5.16163
11
6.90251
21
-5.16163
0
LINE
8
BLACK
6
CONTINUOUS
10
6.90251
20
-5.16163
11
6.89566
21
-5.16017
0
LINE
8
BLACK
6
CONTINUOUS
10
6.89566
20
-5.16017
11
6.88927
21
-5.15733
0
LINE
8
BLACK
6
CONTINUOUS
10
6.88927
20
-5.15733
11
6.88361
21
-5.15322
0
LINE
8
BLACK
6
CONTINUOUS
10
6.88361
20
-5.15322
11
6.87893
21
-5.14802
0
LINE
8
BLACK
6
CONTINUOUS
10
6.87893
20
-5.14802
11
6.87543
21
-5.14196
0
LINE
8
BLACK
6
CONTINUOUS
10
6.87543
20
-5.14196
11
6.87327
21
-5.1353
0
LINE
8
BLACK
6
CONTINUOUS
10
6.87327
20
-5.1353
11
6.87254
21
-5.12835
0
LINE
8
BLACK
6
CONTINUOUS
10
6.87254
20
-5.12835
11
6.87327
21
-5.12139
0
LINE
8
BLACK
6
CONTINUOUS
10
6.87327
20
-5.12139
11
6.87543
21
-5.11474
0
LINE
8
BLACK
6
CONTINUOUS
10
6.87543
20
-5.11474
11
6.87893
21
-5.10868
0
LINE
8
BLACK
6
CONTINUOUS
10
6.87893
20
-5.10868
11
6.88361
21
-5.10348
0
LINE
8
BLACK
6
CONTINUOUS
10
6.88361
20
-5.10348
11
6.88927
21
-5.09937
0
LINE
8
BLACK
6
CONTINUOUS
10
6.88927
20
-5.09937
11
6.89566
21
-5.09652
0
LINE
8
BLACK
6
CONTINUOUS
10
6.89566
20
-5.09652
11
6.90251
21
-5.09507
0
LINE
8
BLACK
6
CONTINUOUS
10
6.90251
20
-5.09507
11
6.9095
21
-5.09507
0
LINE
8
BLACK
6
CONTINUOUS
10
6.9095
20
-5.09507
11
6.91635
21
-5.09652
0
LINE
8
BLACK
6
CONTINUOUS
10
6.93883
20
-4.55926
11
6.95369
21
-4.56079
0
LINE
8
BLACK
6
CONTINUOUS
10
6.95369
20
-4.56079
11
6.96832
21
-4.56382
0
LINE
8
BLACK
6
CONTINUOUS
10
6.96832
20
-4.56382
11
6.98256
21
-4.56831
0
LINE
8
BLACK
6
CONTINUOUS
10
6.98256
20
-4.56831
11
6.99629
21
-4.57422
0
LINE
8
BLACK
6
CONTINUOUS
10
6.99629
20
-4.57422
11
7.00934
21
-4.58149
0
LINE
8
BLACK
6
CONTINUOUS
10
7.00934
20
-4.58149
11
7.02159
21
-4.59004
0
LINE
8
BLACK
6
CONTINUOUS
10
7.02159
20
-4.59004
11
7.03292
21
-4.59978
0
LINE
8
BLACK
6
CONTINUOUS
10
7.03292
20
-4.59978
11
7.0432
21
-4.61061
0
LINE
8
BLACK
6
CONTINUOUS
10
7.0432
20
-4.61061
11
7.05234
21
-4.62243
0
LINE
8
BLACK
6
CONTINUOUS
10
7.05234
20
-4.62243
11
7.06023
21
-4.63512
0
LINE
8
BLACK
6
CONTINUOUS
10
7.06023
20
-4.63512
11
7.0668
21
-4.64853
0
LINE
8
BLACK
6
CONTINUOUS
10
7.0668
20
-4.64853
11
7.07198
21
-4.66254
0
LINE
8
BLACK
6
CONTINUOUS
10
7.07198
20
-4.66254
11
7.07572
21
-4.67701
0
LINE
8
BLACK
6
CONTINUOUS
10
7.07572
20
-4.67701
11
7.07798
21
-4.69177
0
LINE
8
BLACK
6
CONTINUOUS
10
7.07798
20
-4.69177
11
7.07874
21
-4.70669
0
LINE
8
BLACK
6
CONTINUOUS
10
7.07874
20
-4.70669
11
7.07874
21
-4.70772
0
LINE
8
BLACK
6
CONTINUOUS
10
7.07874
20
-4.70772
11
7.07788
21
-4.72264
0
LINE
8
BLACK
6
CONTINUOUS
10
7.07788
20
-4.72264
11
7.07551
21
-4.73739
0
LINE
8
BLACK
6
CONTINUOUS
10
7.07551
20
-4.73739
11
7.07167
21
-4.75183
0
LINE
8
BLACK
6
CONTINUOUS
10
7.07167
20
-4.75183
11
7.06639
21
-4.7658
0
LINE
8
BLACK
6
CONTINUOUS
10
7.06639
20
-4.7658
11
7.05973
21
-4.77917
0
LINE
8
BLACK
6
CONTINUOUS
10
7.05973
20
-4.77917
11
7.05174
21
-4.7918
0
LINE
8
BLACK
6
CONTINUOUS
10
7.05174
20
-4.7918
11
7.04253
21
-4.80355
0
LINE
8
BLACK
6
CONTINUOUS
10
7.04253
20
-4.80355
11
7.03217
21
-4.81432
0
LINE
8
BLACK
6
CONTINUOUS
10
7.03217
20
-4.81432
11
7.02077
21
-4.82398
0
LINE
8
BLACK
6
CONTINUOUS
10
7.02077
20
-4.82398
11
7.00846
21
-4.83244
0
LINE
8
BLACK
6
CONTINUOUS
10
7.00846
20
-4.83244
11
6.99536
21
-4.83961
0
LINE
8
BLACK
6
CONTINUOUS
10
6.99536
20
-4.83961
11
6.9816
21
-4.84543
0
LINE
8
BLACK
6
CONTINUOUS
10
6.9816
20
-4.84543
11
6.96732
21
-4.84982
0
LINE
8
BLACK
6
CONTINUOUS
10
6.96732
20
-4.84982
11
6.95267
21
-4.85275
0
LINE
8
BLACK
6
CONTINUOUS
10
6.95267
20
-4.85275
11
6.9378
21
-4.85418
0
LINE
8
BLACK
6
CONTINUOUS
10
6.9378
20
-4.85418
11
6.92286
21
-4.8541
0
LINE
8
BLACK
6
CONTINUOUS
10
6.92286
20
-4.8541
11
6.90801
21
-4.85251
0
LINE
8
BLACK
6
CONTINUOUS
10
6.90801
20
-4.85251
11
6.89339
21
-4.84943
0
LINE
8
BLACK
6
CONTINUOUS
10
6.89339
20
-4.84943
11
6.87916
21
-4.84489
0
LINE
8
BLACK
6
CONTINUOUS
10
6.87916
20
-4.84489
11
6.86546
21
-4.83893
0
LINE
8
BLACK
6
CONTINUOUS
10
6.86546
20
-4.83893
11
6.85243
21
-4.83162
0
LINE
8
BLACK
6
CONTINUOUS
10
6.85243
20
-4.83162
11
6.84021
21
-4.82303
0
LINE
8
BLACK
6
CONTINUOUS
10
6.84021
20
-4.82303
11
6.82892
21
-4.81325
0
LINE
8
BLACK
6
CONTINUOUS
10
6.82892
20
-4.81325
11
6.81867
21
-4.80238
0
LINE
8
BLACK
6
CONTINUOUS
10
6.81867
20
-4.80238
11
6.80958
21
-4.79053
0
LINE
8
BLACK
6
CONTINUOUS
10
6.80958
20
-4.79053
11
6.80173
21
-4.77782
0
LINE
8
BLACK
6
CONTINUOUS
10
6.80173
20
-4.77782
11
6.7952
21
-4.76438
0
LINE
8
BLACK
6
CONTINUOUS
10
6.7952
20
-4.76438
11
6.79007
21
-4.75035
0
LINE
8
BLACK
6
CONTINUOUS
10
6.79007
20
-4.75035
11
6.78638
21
-4.73587
0
LINE
8
BLACK
6
CONTINUOUS
10
6.78638
20
-4.73587
11
6.78417
21
-4.7211
0
LINE
8
BLACK
6
CONTINUOUS
10
6.78417
20
-4.7211
11
6.78347
21
-4.70618
0
LINE
8
BLACK
6
CONTINUOUS
10
6.78347
20
-4.70618
11
6.78427
21
-4.69126
0
LINE
8
BLACK
6
CONTINUOUS
10
6.78427
20
-4.69126
11
6.78658
21
-4.6765
0
LINE
8
BLACK
6
CONTINUOUS
10
6.78658
20
-4.6765
11
6.79038
21
-4.66205
0
LINE
8
BLACK
6
CONTINUOUS
10
6.79038
20
-4.66205
11
6.79561
21
-4.64806
0
LINE
8
BLACK
6
CONTINUOUS
10
6.79561
20
-4.64806
11
6.80223
21
-4.63467
0
LINE
8
BLACK
6
CONTINUOUS
10
6.80223
20
-4.63467
11
6.81016
21
-4.62201
0
LINE
8
BLACK
6
CONTINUOUS
10
6.81016
20
-4.62201
11
6.81934
21
-4.61022
0
LINE
8
BLACK
6
CONTINUOUS
10
6.81934
20
-4.61022
11
6.82966
21
-4.59942
0
LINE
8
BLACK
6
CONTINUOUS
10
6.82966
20
-4.59942
11
6.84102
21
-4.58972
0
LINE
8
BLACK
6
CONTINUOUS
10
6.84102
20
-4.58972
11
6.8533
21
-4.58122
0
LINE
8
BLACK
6
CONTINUOUS
10
6.8533
20
-4.58122
11
6.86638
21
-4.574
0
LINE
8
BLACK
6
CONTINUOUS
10
6.86638
20
-4.574
11
6.88012
21
-4.56814
0
LINE
8
BLACK
6
CONTINUOUS
10
6.88012
20
-4.56814
11
6.89439
21
-4.56369
0
LINE
8
BLACK
6
CONTINUOUS
10
6.89439
20
-4.56369
11
6.90903
21
-4.56072
0
LINE
8
BLACK
6
CONTINUOUS
10
6.90903
20
-4.56072
11
6.92389
21
-4.55923
0
LINE
8
BLACK
6
CONTINUOUS
10
6.92389
20
-4.55923
11
6.93883
21
-4.55926
0
LINE
8
BLACK
6
CONTINUOUS
10
6.1593
20
-4.55926
11
6.17416
21
-4.56079
0
LINE
8
BLACK
6
CONTINUOUS
10
6.17416
20
-4.56079
11
6.18879
21
-4.56382
0
LINE
8
BLACK
6
CONTINUOUS
10
6.18879
20
-4.56382
11
6.20304
21
-4.56831
0
LINE
8
BLACK
6
CONTINUOUS
10
6.20304
20
-4.56831
11
6.21676
21
-4.57422
0
LINE
8
BLACK
6
CONTINUOUS
10
6.21676
20
-4.57422
11
6.22981
21
-4.58149
0
LINE
8
BLACK
6
CONTINUOUS
10
6.22981
20
-4.58149
11
6.24206
21
-4.59004
0
LINE
8
BLACK
6
CONTINUOUS
10
6.24206
20
-4.59004
11
6.25339
21
-4.59978
0
LINE
8
BLACK
6
CONTINUOUS
10
6.25339
20
-4.59978
11
6.26367
21
-4.61061
0
LINE
8
BLACK
6
CONTINUOUS
10
6.26367
20
-4.61061
11
6.27281
21
-4.62243
0
LINE
8
BLACK
6
CONTINUOUS
10
6.27281
20
-4.62243
11
6.2807
21
-4.63512
0
LINE
8
BLACK
6
CONTINUOUS
10
6.2807
20
-4.63512
11
6.28727
21
-4.64853
0
LINE
8
BLACK
6
CONTINUOUS
10
6.28727
20
-4.64853
11
6.29246
21
-4.66254
0
LINE
8
BLACK
6
CONTINUOUS
10
6.29246
20
-4.66254
11
6.2962
21
-4.67701
0
LINE
8
BLACK
6
CONTINUOUS
10
6.2962
20
-4.67701
11
6.29846
21
-4.69177
0
LINE
8
BLACK
6
CONTINUOUS
10
6.29846
20
-4.69177
11
6.29921
21
-4.70669
0
LINE
8
BLACK
6
CONTINUOUS
10
6.29921
20
-4.70669
11
6.29921
21
-4.70772
0
LINE
8
BLACK
6
CONTINUOUS
10
6.29921
20
-4.70772
11
6.29835
21
-4.72264
0
LINE
8
BLACK
6
CONTINUOUS
10
6.29835
20
-4.72264
11
6.29599
21
-4.73739
0
LINE
8
BLACK
6
CONTINUOUS
10
6.29599
20
-4.73739
11
6.29215
21
-4.75183
0
LINE
8
BLACK
6
CONTINUOUS
10
6.29215
20
-4.75183
11
6.28686
21
-4.7658
0
LINE
8
BLACK
6
CONTINUOUS
10
6.28686
20
-4.7658
11
6.2802
21
-4.77917
0
LINE
8
BLACK
6
CONTINUOUS
10
6.2802
20
-4.77917
11
6.27222
21
-4.7918
0
LINE
8
BLACK
6
CONTINUOUS
10
6.27222
20
-4.7918
11
6.263
21
-4.80355
0
LINE
8
BLACK
6
CONTINUOUS
10
6.263
20
-4.80355
11
6.25264
21
-4.81432
0
LINE
8
BLACK
6
CONTINUOUS
10
6.25264
20
-4.81432
11
6.24125
21
-4.82398
0
LINE
8
BLACK
6
CONTINUOUS
10
6.24125
20
-4.82398
11
6.22893
21
-4.83244
0
LINE
8
BLACK
6
CONTINUOUS
10
6.22893
20
-4.83244
11
6.21583
21
-4.83961
0
LINE
8
BLACK
6
CONTINUOUS
10
6.21583
20
-4.83961
11
6.20207
21
-4.84543
0
LINE
8
BLACK
6
CONTINUOUS
10
6.20207
20
-4.84543
11
6.18779
21
-4.84982
0
LINE
8
BLACK
6
CONTINUOUS
10
6.18779
20
-4.84982
11
6.17314
21
-4.85275
0
LINE
8
BLACK
6
CONTINUOUS
10
6.17314
20
-4.85275
11
6.15827
21
-4.85418
0
LINE
8
BLACK
6
CONTINUOUS
10
6.15827
20
-4.85418
11
6.14333
21
-4.8541
0
LINE
8
BLACK
6
CONTINUOUS
10
6.14333
20
-4.8541
11
6.12848
21
-4.85251
0
LINE
8
BLACK
6
CONTINUOUS
10
6.12848
20
-4.85251
11
6.11386
21
-4.84943
0
LINE
8
BLACK
6
CONTINUOUS
10
6.11386
20
-4.84943
11
6.09963
21
-4.84489
0
LINE
8
BLACK
6
CONTINUOUS
10
6.09963
20
-4.84489
11
6.08593
21
-4.83893
0
LINE
8
BLACK
6
CONTINUOUS
10
6.08593
20
-4.83893
11
6.0729
21
-4.83162
0
LINE
8
BLACK
6
CONTINUOUS
10
6.0729
20
-4.83162
11
6.06068
21
-4.82303
0
LINE
8
BLACK
6
CONTINUOUS
10
6.06068
20
-4.82303
11
6.04939
21
-4.81325
0
LINE
8
BLACK
6
CONTINUOUS
10
6.04939
20
-4.81325
11
6.03914
21
-4.80238
0
LINE
8
BLACK
6
CONTINUOUS
10
6.03914
20
-4.80238
11
6.03005
21
-4.79053
0
LINE
8
BLACK
6
CONTINUOUS
10
6.03005
20
-4.79053
11
6.0222
21
-4.77782
0
LINE
8
BLACK
6
CONTINUOUS
10
6.0222
20
-4.77782
11
6.01567
21
-4.76438
0
LINE
8
BLACK
6
CONTINUOUS
10
6.01567
20
-4.76438
11
6.01054
21
-4.75035
0
LINE
8
BLACK
6
CONTINUOUS
10
6.01054
20
-4.75035
11
6.00685
21
-4.73587
0
LINE
8
BLACK
6
CONTINUOUS
10
6.00685
20
-4.73587
11
6.00464
21
-4.7211
0
LINE
8
BLACK
6
CONTINUOUS
10
6.00464
20
-4.7211
11
6.00394
21
-4.70618
0
LINE
8
BLACK
6
CONTINUOUS
10
6.00394
20
-4.70618
11
6.00475
21
-4.69126
0
LINE
8
BLACK
6
CONTINUOUS
10
6.00475
20
-4.69126
11
6.00706
21
-4.6765
0
LINE
8
BLACK
6
CONTINUOUS
10
6.00706
20
-4.6765
11
6.01085
21
-4.66205
0
LINE
8
BLACK
6
CONTINUOUS
10
6.01085
20
-4.66205
11
6.01608
21
-4.64806
0
LINE
8
BLACK
6
CONTINUOUS
10
6.01608
20
-4.64806
11
6.0227
21
-4.63467
0
LINE
8
BLACK
6
CONTINUOUS
10
6.0227
20
-4.63467
11
6.03064
21
-4.62201
0
LINE
8
BLACK
6
CONTINUOUS
10
6.03064
20
-4.62201
11
6.03981
21
-4.61022
0
LINE
8
BLACK
6
CONTINUOUS
10
6.03981
20
-4.61022
11
6.05013
21
-4.59942
0
LINE
8
BLACK
6
CONTINUOUS
10
6.05013
20
-4.59942
11
6.06149
21
-4.58972
0
LINE
8
BLACK
6
CONTINUOUS
10
6.06149
20
-4.58972
11
6.07378
21
-4.58122
0
LINE
8
BLACK
6
CONTINUOUS
10
6.07378
20
-4.58122
11
6.08685
21
-4.574
0
LINE
8
BLACK
6
CONTINUOUS
10
6.08685
20
-4.574
11
6.1006
21
-4.56814
0
LINE
8
BLACK
6
CONTINUOUS
10
6.1006
20
-4.56814
11
6.11486
21
-4.56369
0
LINE
8
BLACK
6
CONTINUOUS
10
6.11486
20
-4.56369
11
6.1295
21
-4.56072
0
LINE
8
BLACK
6
CONTINUOUS
10
6.1295
20
-4.56072
11
6.14436
21
-4.55923
0
LINE
8
BLACK
6
CONTINUOUS
10
6.14436
20
-4.55923
11
6.1593
21
-4.55926
0
LINE
8
BLACK
6
CONTINUOUS
10
6.93883
20
-3.77973
11
6.95369
21
-3.78127
0
LINE
8
BLACK
6
CONTINUOUS
10
6.95369
20
-3.78127
11
6.96832
21
-3.78429
0
LINE
8
BLACK
6
CONTINUOUS
10
6.96832
20
-3.78429
11
6.98256
21
-3.78879
0
LINE
8
BLACK
6
CONTINUOUS
10
6.98256
20
-3.78879
11
6.99629
21
-3.7947
0
LINE
8
BLACK
6
CONTINUOUS
10
6.99629
20
-3.7947
11
7.00934
21
-3.80196
0
LINE
8
BLACK
6
CONTINUOUS
10
7.00934
20
-3.80196
11
7.02159
21
-3.81051
0
LINE
8
BLACK
6
CONTINUOUS
10
7.02159
20
-3.81051
11
7.03292
21
-3.82025
0
LINE
8
BLACK
6
CONTINUOUS
10
7.03292
20
-3.82025
11
7.0432
21
-3.83109
0
LINE
8
BLACK
6
CONTINUOUS
10
7.0432
20
-3.83109
11
7.05234
21
-3.84291
0
LINE
8
BLACK
6
CONTINUOUS
10
7.05234
20
-3.84291
11
7.06023
21
-3.85559
0
LINE
8
BLACK
6
CONTINUOUS
10
7.06023
20
-3.85559
11
7.0668
21
-3.869
0
LINE
8
BLACK
6
CONTINUOUS
10
7.0668
20
-3.869
11
7.07198
21
-3.88302
0
LINE
8
BLACK
6
CONTINUOUS
10
7.07198
20
-3.88302
11
7.07572
21
-3.89748
0
LINE
8
BLACK
6
CONTINUOUS
10
7.07572
20
-3.89748
11
7.07798
21
-3.91225
0
LINE
8
BLACK
6
CONTINUOUS
10
7.07798
20
-3.91225
11
7.07874
21
-3.92717
0
LINE
8
BLACK
6
CONTINUOUS
10
7.07874
20
-3.92717
11
7.07874
21
-3.9282
0
LINE
8
BLACK
6
CONTINUOUS
10
7.07874
20
-3.9282
11
7.07788
21
-3.94311
0
LINE
8
BLACK
6
CONTINUOUS
10
7.07788
20
-3.94311
11
7.07551
21
-3.95786
0
LINE
8
BLACK
6
CONTINUOUS
10
7.07551
20
-3.95786
11
7.07167
21
-3.9723
0
LINE
8
BLACK
6
CONTINUOUS
10
7.07167
20
-3.9723
11
7.06639
21
-3.98627
0
LINE
8
BLACK
6
CONTINUOUS
10
7.06639
20
-3.98627
11
7.05973
21
-3.99964
0
LINE
8
BLACK
6
CONTINUOUS
10
7.05973
20
-3.99964
11
7.05174
21
-4.01227
0
LINE
8
BLACK
6
CONTINUOUS
10
7.05174
20
-4.01227
11
7.04253
21
-4.02402
0
LINE
8
BLACK
6
CONTINUOUS
10
7.04253
20
-4.02402
11
7.03217
21
-4.03479
0
LINE
8
BLACK
6
CONTINUOUS
10
7.03217
20
-4.03479
11
7.02077
21
-4.04445
0
LINE
8
BLACK
6
CONTINUOUS
10
7.02077
20
-4.04445
11
7.00846
21
-4.05291
0
LINE
8
BLACK
6
CONTINUOUS
10
7.00846
20
-4.05291
11
6.99536
21
-4.06009
0
LINE
8
BLACK
6
CONTINUOUS
10
6.99536
20
-4.06009
11
6.9816
21
-4.0659
0
LINE
8
BLACK
6
CONTINUOUS
10
6.9816
20
-4.0659
11
6.96732
21
-4.07029
0
LINE
8
BLACK
6
CONTINUOUS
10
6.96732
20
-4.07029
11
6.95267
21
-4.07322
0
LINE
8
BLACK
6
CONTINUOUS
10
6.95267
20
-4.07322
11
6.9378
21
-4.07465
0
LINE
8
BLACK
6
CONTINUOUS
10
6.9378
20
-4.07465
11
6.92286
21
-4.07457
0
LINE
8
BLACK
6
CONTINUOUS
10
6.92286
20
-4.07457
11
6.90801
21
-4.07299
0
LINE
8
BLACK
6
CONTINUOUS
10
6.90801
20
-4.07299
11
6.89339
21
-4.06991
0
LINE
8
BLACK
6
CONTINUOUS
10
6.89339
20
-4.06991
11
6.87916
21
-4.06536
0
LINE
8
BLACK
6
CONTINUOUS
10
6.87916
20
-4.06536
11
6.86546
21
-4.05941
0
LINE
8
BLACK
6
CONTINUOUS
10
6.86546
20
-4.05941
11
6.85243
21
-4.0521
0
LINE
8
BLACK
6
CONTINUOUS
10
6.85243
20
-4.0521
11
6.84021
21
-4.04351
0
LINE
8
BLACK
6
CONTINUOUS
10
6.84021
20
-4.04351
11
6.82892
21
-4.03372
0
LINE
8
BLACK
6
CONTINUOUS
10
6.82892
20
-4.03372
11
6.81867
21
-4.02285
0
LINE
8
BLACK
6
CONTINUOUS
10
6.81867
20
-4.02285
11
6.80958
21
-4.011
0
LINE
8
BLACK
6
CONTINUOUS
10
6.80958
20
-4.011
11
6.80173
21
-3.99829
0
LINE
8
BLACK
6
CONTINUOUS
10
6.80173
20
-3.99829
11
6.7952
21
-3.98485
0
LINE
8
BLACK
6
CONTINUOUS
10
6.7952
20
-3.98485
11
6.79007
21
-3.97082
0
LINE
8
BLACK
6
CONTINUOUS
10
6.79007
20
-3.97082
11
6.78638
21
-3.95635
0
LINE
8
BLACK
6
CONTINUOUS
10
6.78638
20
-3.95635
11
6.78417
21
-3.94157
0
LINE
8
BLACK
6
CONTINUOUS
10
6.78417
20
-3.94157
11
6.78347
21
-3.92665
0
LINE
8
BLACK
6
CONTINUOUS
10
6.78347
20
-3.92665
11
6.78427
21
-3.91173
0
LINE
8
BLACK
6
CONTINUOUS
10
6.78427
20
-3.91173
11
6.78658
21
-3.89697
0
LINE
8
BLACK
6
CONTINUOUS
10
6.78658
20
-3.89697
11
6.79038
21
-3.88252
0
LINE
8
BLACK
6
CONTINUOUS
10
6.79038
20
-3.88252
11
6.79561
21
-3.86853
0
LINE
8
BLACK
6
CONTINUOUS
10
6.79561
20
-3.86853
11
6.80223
21
-3.85514
0
LINE
8
BLACK
6
CONTINUOUS
10
6.80223
20
-3.85514
11
6.81016
21
-3.84248
0
LINE
8
BLACK
6
CONTINUOUS
10
6.81016
20
-3.84248
11
6.81934
21
-3.8307
0
LINE
8
BLACK
6
CONTINUOUS
10
6.81934
20
-3.8307
11
6.82966
21
-3.8199
0
LINE
8
BLACK
6
CONTINUOUS
10
6.82966
20
-3.8199
11
6.84102
21
-3.81019
0
LINE
8
BLACK
6
CONTINUOUS
10
6.84102
20
-3.81019
11
6.8533
21
-3.80169
0
LINE
8
BLACK
6
CONTINUOUS
10
6.8533
20
-3.80169
11
6.86638
21
-3.79447
0
LINE
8
BLACK
6
CONTINUOUS
10
6.86638
20
-3.79447
11
6.88012
21
-3.78861
0
LINE
8
BLACK
6
CONTINUOUS
10
6.88012
20
-3.78861
11
6.89439
21
-3.78417
0
LINE
8
BLACK
6
CONTINUOUS
10
6.89439
20
-3.78417
11
6.90903
21
-3.78119
0
LINE
8
BLACK
6
CONTINUOUS
10
6.90903
20
-3.78119
11
6.92389
21
-3.7797
0
LINE
8
BLACK
6
CONTINUOUS
10
6.92389
20
-3.7797
11
6.93883
21
-3.77973
0
LINE
8
BLACK
6
CONTINUOUS
10
6.1593
20
-3.77973
11
6.17416
21
-3.78127
0
LINE
8
BLACK
6
CONTINUOUS
10
6.17416
20
-3.78127
11
6.18879
21
-3.78429
0
LINE
8
BLACK
6
CONTINUOUS
10
6.18879
20
-3.78429
11
6.20304
21
-3.78879
0
LINE
8
BLACK
6
CONTINUOUS
10
6.20304
20
-3.78879
11
6.21676
21
-3.7947
0
LINE
8
BLACK
6
CONTINUOUS
10
6.21676
20
-3.7947
11
6.22981
21
-3.80196
0
LINE
8
BLACK
6
CONTINUOUS
10
6.22981
20
-3.80196
11
6.24206
21
-3.81051
0
LINE
8
BLACK
6
CONTINUOUS
10
6.24206
20
-3.81051
11
6.25339
21
-3.82025
0
LINE
8
BLACK
6
CONTINUOUS
10
6.25339
20
-3.82025
11
6.26367
21
-3.83109
0
LINE
8
BLACK
6
CONTINUOUS
10
6.26367
20
-3.83109
11
6.27281
21
-3.84291
0
LINE
8
BLACK
6
CONTINUOUS
10
6.27281
20
-3.84291
11
6.2807
21
-3.85559
0
LINE
8
BLACK
6
CONTINUOUS
10
6.2807
20
-3.85559
11
6.28727
21
-3.869
0
LINE
8
BLACK
6
CONTINUOUS
10
6.28727
20
-3.869
11
6.29246
21
-3.88302
0
LINE
8
BLACK
6
CONTINUOUS
10
6.29246
20
-3.88302
11
6.2962
21
-3.89748
0
LINE
8
BLACK
6
CONTINUOUS
10
6.2962
20
-3.89748
11
6.29846
21
-3.91225
0
LINE
8
BLACK
6
CONTINUOUS
10
6.29846
20
-3.91225
11
6.29921
21
-3.92717
0
LINE
8
BLACK
6
CONTINUOUS
10
6.29921
20
-3.92717
11
6.29921
21
-3.9282
0
LINE
8
BLACK
6
CONTINUOUS
10
6.29921
20
-3.9282
11
6.29835
21
-3.94311
0
LINE
8
BLACK
6
CONTINUOUS
10
6.29835
20
-3.94311
11
6.29599
21
-3.95786
0
LINE
8
BLACK
6
CONTINUOUS
10
6.29599
20
-3.95786
11
6.29215
21
-3.9723
0
LINE
8
BLACK
6
CONTINUOUS
10
6.29215
20
-3.9723
11
6.28686
21
-3.98627
0
LINE
8
BLACK
6
CONTINUOUS
10
6.28686
20
-3.98627
11
6.2802
21
-3.99964
0
LINE
8
BLACK
6
CONTINUOUS
10
6.2802
20
-3.99964
11
6.27222
21
-4.01227
0
LINE
8
BLACK
6
CONTINUOUS
10
6.27222
20
-4.01227
11
6.263
21
-4.02402
0
LINE
8
BLACK
6
CONTINUOUS
10
6.263
20
-4.02402
11
6.25264
21
-4.03479
0
LINE
8
BLACK
6
CONTINUOUS
10
6.25264
20
-4.03479
11
6.24125
21
-4.04445
0
LINE
8
BLACK
6
CONTINUOUS
10
6.24125
20
-4.04445
11
6.22893
21
-4.05291
0
LINE
8
BLACK
6
CONTINUOUS
10
6.22893
20
-4.05291
11
6.21583
21
-4.06009
0
LINE
8
BLACK
6
CONTINUOUS
10
6.21583
20
-4.06009
11
6.20207
21
-4.0659
0
LINE
8
BLACK
6
CONTINUOUS
10
6.20207
20
-4.0659
11
6.18779
21
-4.07029
0
LINE
8
BLACK
6
CONTINUOUS
10
6.18779
20
-4.07029
11
6.17314
21
-4.07322
0
LINE
8
BLACK
6
CONTINUOUS
10
6.17314
20
-4.07322
11
6.15827
21
-4.07465
0
LINE
8
BLACK
6
CONTINUOUS
10
6.15827
20
-4.07465
11
6.14333
21
-4.07457
0
LINE
8
BLACK
6
CONTINUOUS
10
6.14333
20
-4.07457
11
6.12848
21
-4.07299
0
LINE
8
BLACK
6
CONTINUOUS
10
6.12848
20
-4.07299
11
6.11386
21
-4.06991
0
LINE
8
BLACK
6
CONTINUOUS
10
6.11386
20
-4.06991
11
6.09963
21
-4.06536
0
LINE
8
BLACK
6
CONTINUOUS
10
6.09963
20
-4.06536
11
6.08593
21
-4.05941
0
LINE
8
BLACK
6
CONTINUOUS
10
6.08593
20
-4.05941
11
6.0729
21
-4.0521
0
LINE
8
BLACK
6
CONTINUOUS
10
6.0729
20
-4.0521
11
6.06068
21
-4.04351
0
LINE
8
BLACK
6
CONTINUOUS
10
6.06068
20
-4.04351
11
6.04939
21
-4.03372
0
LINE
8
BLACK
6
CONTINUOUS
10
6.04939
20
-4.03372
11
6.03914
21
-4.02285
0
LINE
8
BLACK
6
CONTINUOUS
10
6.03914
20
-4.02285
11
6.03005
21
-4.011
0
LINE
8
BLACK
6
CONTINUOUS
10
6.03005
20
-4.011
11
6.0222
21
-3.99829
0
LINE
8
BLACK
6
CONTINUOUS
10
6.0222
20
-3.99829
11
6.01567
21
-3.98485
0
LINE
8
BLACK
6
CONTINUOUS
10
6.01567
20
-3.98485
11
6.01054
21
-3.97082
0
LINE
8
BLACK
6
CONTINUOUS
10
6.01054
20
-3.97082
11
6.00685
21
-3.95635
0
LINE
8
BLACK
6
CONTINUOUS
10
6.00685
20
-3.95635
11
6.00464
21
-3.94157
0
LINE
8
BLACK
6
CONTINUOUS
10
6.00464
20
-3.94157
11
6.00394
21
-3.92665
0
LINE
8
BLACK
6
CONTINUOUS
10
6.00394
20
-3.92665
11
6.00475
21
-3.91173
0
LINE
8
BLACK
6
CONTINUOUS
10
6.00475
20
-3.91173
11
6.00706
21
-3.89697
0
LINE
8
BLACK
6
CONTINUOUS
10
6.00706
20
-3.89697
11
6.01085
21
-3.88252
0
LINE
8
BLACK
6
CONTINUOUS
10
6.01085
20
-3.88252
11
6.01608
21
-3.86853
0
LINE
8
BLACK
6
CONTINUOUS
10
6.01608
20
-3.86853
11
6.0227
21
-3.85514
0
LINE
8
BLACK
6
CONTINUOUS
10
6.0227
20
-3.85514
11
6.03064
21
-3.84248
0
LINE
8
BLACK
6
CONTINUOUS
10
6.03064
20
-3.84248
11
6.03981
21
-3.8307
0
LINE
8
BLACK
6
CONTINUOUS
10
6.03981
20
-3.8307
11
6.05013
21
-3.8199
0
LINE
8
BLACK
6
CONTINUOUS
10
6.05013
20
-3.8199
11
6.06149
21
-3.81019
0
LINE
8
BLACK
6
CONTINUOUS
10
6.06149
20
-3.81019
11
6.07378
21
-3.80169
0
LINE
8
BLACK
6
CONTINUOUS
10
6.07378
20
-3.80169
11
6.08685
21
-3.79447
0
LINE
8
BLACK
6
CONTINUOUS
10
6.08685
20
-3.79447
11
6.1006
21
-3.78861
0
LINE
8
BLACK
6
CONTINUOUS
10
6.1006
20
-3.78861
11
6.11486
21
-3.78417
0
LINE
8
BLACK
6
CONTINUOUS
10
6.11486
20
-3.78417
11
6.1295
21
-3.78119
0
LINE
8
BLACK
6
CONTINUOUS
10
6.1295
20
-3.78119
11
6.14436
21
-3.7797
0
LINE
8
BLACK
6
CONTINUOUS
10
6.14436
20
-3.7797
11
6.1593
21
-3.77973
0
LINE
8
BLACK
6
CONTINUOUS
10
6.55365
20
-3.67211
11
6.56004
21
-3.67496
0
LINE
8
BLACK
6
CONTINUOUS
10
6.56004
20
-3.67496
11
6.5657
21
-3.67907
0
LINE
8
BLACK
6
CONTINUOUS
10
6.5657
20
-3.67907
11
6.57038
21
-3.68427
0
LINE
8
BLACK
6
CONTINUOUS
10
6.57038
20
-3.68427
11
6.57388
21
-3.69033
0
LINE
8
BLACK
6
CONTINUOUS
10
6.57388
20
-3.69033
11
6.57604
21
-3.69698
0
LINE
8
BLACK
6
CONTINUOUS
10
6.57604
20
-3.69698
11
6.57677
21
-3.70394
0
LINE
8
BLACK
6
CONTINUOUS
10
6.57677
20
-3.70394
11
6.57604
21
-3.71089
0
LINE
8
BLACK
6
CONTINUOUS
10
6.57604
20
-3.71089
11
6.57388
21
-3.71755
0
LINE
8
BLACK
6
CONTINUOUS
10
6.57388
20
-3.71755
11
6.57038
21
-3.72361
0
LINE
8
BLACK
6
CONTINUOUS
10
6.57038
20
-3.72361
11
6.5657
21
-3.72881
0
LINE
8
BLACK
6
CONTINUOUS
10
6.5657
20
-3.72881
11
6.56004
21
-3.73292
0
LINE
8
BLACK
6
CONTINUOUS
10
6.56004
20
-3.73292
11
6.55365
21
-3.73576
0
LINE
8
BLACK
6
CONTINUOUS
10
6.55365
20
-3.73576
11
6.54681
21
-3.73722
0
LINE
8
BLACK
6
CONTINUOUS
10
6.54681
20
-3.73722
11
6.53981
21
-3.73722
0
LINE
8
BLACK
6
CONTINUOUS
10
6.53981
20
-3.73722
11
6.53297
21
-3.73576
0
LINE
8
BLACK
6
CONTINUOUS
10
6.53297
20
-3.73576
11
6.52657
21
-3.73292
0
LINE
8
BLACK
6
CONTINUOUS
10
6.52657
20
-3.73292
11
6.52091
21
-3.72881
0
LINE
8
BLACK
6
CONTINUOUS
10
6.52091
20
-3.72881
11
6.51623
21
-3.72361
0
LINE
8
BLACK
6
CONTINUOUS
10
6.51623
20
-3.72361
11
6.51274
21
-3.71755
0
LINE
8
BLACK
6
CONTINUOUS
10
6.51274
20
-3.71755
11
6.51057
21
-3.71089
0
LINE
8
BLACK
6
CONTINUOUS
10
6.51057
20
-3.71089
11
6.50984
21
-3.70394
0
LINE
8
BLACK
6
CONTINUOUS
10
6.50984
20
-3.70394
11
6.51057
21
-3.69698
0
LINE
8
BLACK
6
CONTINUOUS
10
6.51057
20
-3.69698
11
6.51274
21
-3.69033
0
LINE
8
BLACK
6
CONTINUOUS
10
6.51274
20
-3.69033
11
6.51623
21
-3.68427
0
LINE
8
BLACK
6
CONTINUOUS
10
6.51623
20
-3.68427
11
6.52091
21
-3.67907
0
LINE
8
BLACK
6
CONTINUOUS
10
6.52091
20
-3.67907
11
6.52657
21
-3.67496
0
LINE
8
BLACK
6
CONTINUOUS
10
6.52657
20
-3.67496
11
6.53297
21
-3.67211
0
LINE
8
BLACK
6
CONTINUOUS
10
6.53297
20
-3.67211
11
6.53981
21
-3.67066
0
LINE
8
BLACK
6
CONTINUOUS
10
6.53981
20
-3.67066
11
6.54681
21
-3.67066
0
LINE
8
BLACK
6
CONTINUOUS
10
6.54681
20
-3.67066
11
6.55365
21
-3.67211
0
LINE
8
BLACK
6
CONTINUOUS
10
6.55365
20
-3.57211
11
6.56004
21
-3.57496
0
LINE
8
BLACK
6
CONTINUOUS
10
6.56004
20
-3.57496
11
6.5657
21
-3.57907
0
LINE
8
BLACK
6
CONTINUOUS
10
6.5657
20
-3.57907
11
6.57038
21
-3.58427
0
LINE
8
BLACK
6
CONTINUOUS
10
6.57038
20
-3.58427
11
6.57388
21
-3.59033
0
LINE
8
BLACK
6
CONTINUOUS
10
6.57388
20
-3.59033
11
6.57604
21
-3.59698
0
LINE
8
BLACK
6
CONTINUOUS
10
6.57604
20
-3.59698
11
6.57677
21
-3.60394
0
LINE
8
BLACK
6
CONTINUOUS
10
6.57677
20
-3.60394
11
6.57604
21
-3.61089
0
LINE
8
BLACK
6
CONTINUOUS
10
6.57604
20
-3.61089
11
6.57388
21
-3.61755
0
LINE
8
BLACK
6
CONTINUOUS
10
6.57388
20
-3.61755
11
6.57038
21
-3.62361
0
LINE
8
BLACK
6
CONTINUOUS
10
6.57038
20
-3.62361
11
6.5657
21
-3.62881
0
LINE
8
BLACK
6
CONTINUOUS
10
6.5657
20
-3.62881
11
6.56004
21
-3.63292
0
LINE
8
BLACK
6
CONTINUOUS
10
6.56004
20
-3.63292
11
6.55365
21
-3.63576
0
LINE
8
BLACK
6
CONTINUOUS
10
6.55365
20
-3.63576
11
6.54681
21
-3.63722
0
LINE
8
BLACK
6
CONTINUOUS
10
6.54681
20
-3.63722
11
6.53981
21
-3.63722
0
LINE
8
BLACK
6
CONTINUOUS
10
6.53981
20
-3.63722
11
6.53297
21
-3.63576
0
LINE
8
BLACK
6
CONTINUOUS
10
6.53297
20
-3.63576
11
6.52657
21
-3.63292
0
LINE
8
BLACK
6
CONTINUOUS
10
6.52657
20
-3.63292
11
6.52091
21
-3.62881
0
LINE
8
BLACK
6
CONTINUOUS
10
6.52091
20
-3.62881
11
6.51623
21
-3.62361
0
LINE
8
BLACK
6
CONTINUOUS
10
6.51623
20
-3.62361
11
6.51274
21
-3.61755
0
LINE
8
BLACK
6
CONTINUOUS
10
6.51274
20
-3.61755
11
6.51057
21
-3.61089
0
LINE
8
BLACK
6
CONTINUOUS
10
6.51057
20
-3.61089
11
6.50984
21
-3.60394
0
LINE
8
BLACK
6
CONTINUOUS
10
6.50984
20
-3.60394
11
6.51057
21
-3.59698
0
LINE
8
BLACK
6
CONTINUOUS
10
6.51057
20
-3.59698
11
6.51274
21
-3.59033
0
LINE
8
BLACK
6
CONTINUOUS
10
6.51274
20
-3.59033
11
6.51623
21
-3.58427
0
LINE
8
BLACK
6
CONTINUOUS
10
6.51623
20
-3.58427
11
6.52091
21
-3.57907
0
LINE
8
BLACK
6
CONTINUOUS
10
6.52091
20
-3.57907
11
6.52657
21
-3.57496
0
LINE
8
BLACK
6
CONTINUOUS
10
6.52657
20
-3.57496
11
6.53297
21
-3.57211
0
LINE
8
BLACK
6
CONTINUOUS
10
6.53297
20
-3.57211
11
6.53981
21
-3.57066
0
LINE
8
BLACK
6
CONTINUOUS
10
6.53981
20
-3.57066
11
6.54681
21
-3.57066
0
LINE
8
BLACK
6
CONTINUOUS
10
6.54681
20
-3.57066
11
6.55365
21
-3.57211
0
LINE
8
BLACK
6
CONTINUOUS
10
6.57677
20
-3.5374
11
6.50984
21
-3.5374
0
LINE
8
BLACK
6
CONTINUOUS
10
6.50984
20
-3.5374
11
6.50984
21
-3.47047
0
LINE
8
BLACK
6
CONTINUOUS
10
6.50984
20
-3.47047
11
6.57677
21
-3.47047
0
LINE
8
BLACK
6
CONTINUOUS
10
6.57677
20
-3.47047
11
6.57677
21
-3.5374
  0
ENDSEC
  0
EOF
