  0
SECTION
  2
HEADER
  9
$ANGBASE
  50
0.0
  9
$ANGDIR
  70
1
  9
$MEASUREMENT
  70
0
  0
ENDSEC
  0
SECTION
  2
TABLES
  0
TABLE
  2
LTYPE
  70
4
  0
LTYPE
  5
40F
  2
CONTINUOUS
  70
0
  3
Solid line
  72
65
  73
0
  40
0.0
  0
LTYPE
  5
410
  2
DASHDOT
 70
0
  3
Dash Dot ____ _ ____ _
 72
65
 73
4
 40
2.0
 49
1.25
 49
-0.25
 49
0.25
 49
-0.25
  0
LTYPE
  5
411
  2
DASHED
 70
0
  3
Dashed __ __ __ __ __
 72
65
 73
2
 40
0.75
 49
0.5
 49
-0.25
  0
LTYPE
  5
43B
  2
DOTTED
 70
0
  3
Dotted .  .  .  .
 72
65
 73
2
 40
0.2
 49
0.0
 49
-0.2
  0
ENDTAB
  0
TABLE
  2
STYLE
  70
4
  0
STYLE
  2
KICAD
  70
0
  40
0
  41
1
  42
1
  50
0
  71
0
  3
isocp.shx
  0
STYLE
  2
KICADB
  70
0
  40
0
  41
1
  42
1
  50
0
  71
0
  3
isocp.shx
  0
STYLE
  2
KICADI
  70
0
  40
0
  41
1
  42
1
  50
15
  71
0
  3
isocp.shx
  0
STYLE
  2
KICADBI
  70
0
  40
0
  41
1
  42
1
  50
15
  71
0
  3
isocp.shx
  0
ENDTAB
  0
TABLE
  2
LAYER
  70
1
  0
LAYER
  2
BLACK
  70
0
  62
7
  6
CONTINUOUS
  0
ENDTAB
  0
ENDSEC
  0
SECTION
  2
ENTITIES
0
LINE
8
BLACK
6
CONTINUOUS
10
6.89173
20
-5.75984
11
6.82874
21
-5.75984
0
LINE
8
BLACK
6
CONTINUOUS
10
6.82874
20
-5.75984
11
6.82874
21
-5.72638
0
LINE
8
BLACK
6
CONTINUOUS
10
6.82874
20
-5.72638
11
6.89173
21
-5.72638
0
LINE
8
BLACK
6
CONTINUOUS
10
6.89173
20
-5.72638
11
6.89173
21
-5.75984
0
LINE
8
BLACK
6
CONTINUOUS
10
3.23031
20
-5.75984
11
3.16732
21
-5.75984
0
LINE
8
BLACK
6
CONTINUOUS
10
3.16732
20
-5.75984
11
3.16732
21
-5.72638
0
LINE
8
BLACK
6
CONTINUOUS
10
3.16732
20
-5.72638
11
3.23031
21
-5.72638
0
LINE
8
BLACK
6
CONTINUOUS
10
3.23031
20
-5.72638
11
3.23031
21
-5.75984
0
LINE
8
BLACK
6
CONTINUOUS
10
7.02953
20
-5.75984
11
6.96654
21
-5.75984
0
LINE
8
BLACK
6
CONTINUOUS
10
6.96654
20
-5.75984
11
6.96654
21
-5.72638
0
LINE
8
BLACK
6
CONTINUOUS
10
6.96654
20
-5.72638
11
7.02953
21
-5.72638
0
LINE
8
BLACK
6
CONTINUOUS
10
7.02953
20
-5.72638
11
7.02953
21
-5.75984
0
LINE
8
BLACK
6
CONTINUOUS
10
5.39567
20
-5.75984
11
5.33268
21
-5.75984
0
LINE
8
BLACK
6
CONTINUOUS
10
5.33268
20
-5.75984
11
5.33268
21
-5.72638
0
LINE
8
BLACK
6
CONTINUOUS
10
5.33268
20
-5.72638
11
5.39567
21
-5.72638
0
LINE
8
BLACK
6
CONTINUOUS
10
5.39567
20
-5.72638
11
5.39567
21
-5.75984
0
LINE
8
BLACK
6
CONTINUOUS
10
5.53346
20
-5.75984
11
5.47047
21
-5.75984
0
LINE
8
BLACK
6
CONTINUOUS
10
5.47047
20
-5.75984
11
5.47047
21
-5.72638
0
LINE
8
BLACK
6
CONTINUOUS
10
5.47047
20
-5.72638
11
5.53346
21
-5.72638
0
LINE
8
BLACK
6
CONTINUOUS
10
5.53346
20
-5.72638
11
5.53346
21
-5.75984
0
LINE
8
BLACK
6
CONTINUOUS
10
4.84449
20
-5.75984
11
4.7815
21
-5.75984
0
LINE
8
BLACK
6
CONTINUOUS
10
4.7815
20
-5.75984
11
4.7815
21
-5.72638
0
LINE
8
BLACK
6
CONTINUOUS
10
4.7815
20
-5.72638
11
4.84449
21
-5.72638
0
LINE
8
BLACK
6
CONTINUOUS
10
4.84449
20
-5.72638
11
4.84449
21
-5.75984
0
LINE
8
BLACK
6
CONTINUOUS
10
4.98228
20
-5.75984
11
4.91929
21
-5.75984
0
LINE
8
BLACK
6
CONTINUOUS
10
4.91929
20
-5.75984
11
4.91929
21
-5.72638
0
LINE
8
BLACK
6
CONTINUOUS
10
4.91929
20
-5.72638
11
4.98228
21
-5.72638
0
LINE
8
BLACK
6
CONTINUOUS
10
4.98228
20
-5.72638
11
4.98228
21
-5.75984
0
LINE
8
BLACK
6
CONTINUOUS
10
3.82087
20
-5.75984
11
3.75787
21
-5.75984
0
LINE
8
BLACK
6
CONTINUOUS
10
3.75787
20
-5.75984
11
3.75787
21
-5.72638
0
LINE
8
BLACK
6
CONTINUOUS
10
3.75787
20
-5.72638
11
3.82087
21
-5.72638
0
LINE
8
BLACK
6
CONTINUOUS
10
3.82087
20
-5.72638
11
3.82087
21
-5.75984
0
LINE
8
BLACK
6
CONTINUOUS
10
3.95866
20
-5.75984
11
3.89567
21
-5.75984
0
LINE
8
BLACK
6
CONTINUOUS
10
3.89567
20
-5.75984
11
3.89567
21
-5.72638
0
LINE
8
BLACK
6
CONTINUOUS
10
3.89567
20
-5.72638
11
3.95866
21
-5.72638
0
LINE
8
BLACK
6
CONTINUOUS
10
3.95866
20
-5.72638
11
3.95866
21
-5.75984
0
LINE
8
BLACK
6
CONTINUOUS
10
3.36811
20
-5.75984
11
3.30512
21
-5.75984
0
LINE
8
BLACK
6
CONTINUOUS
10
3.30512
20
-5.75984
11
3.30512
21
-5.72638
0
LINE
8
BLACK
6
CONTINUOUS
10
3.30512
20
-5.72638
11
3.36811
21
-5.72638
0
LINE
8
BLACK
6
CONTINUOUS
10
3.36811
20
-5.72638
11
3.36811
21
-5.75984
0
LINE
8
BLACK
6
CONTINUOUS
10
1.91142
20
-5.75984
11
1.84843
21
-5.75984
0
LINE
8
BLACK
6
CONTINUOUS
10
1.84843
20
-5.75984
11
1.84843
21
-5.72638
0
LINE
8
BLACK
6
CONTINUOUS
10
1.84843
20
-5.72638
11
1.91142
21
-5.72638
0
LINE
8
BLACK
6
CONTINUOUS
10
1.91142
20
-5.72638
11
1.91142
21
-5.75984
0
LINE
8
BLACK
6
CONTINUOUS
10
1.77362
20
-5.75984
11
1.71063
21
-5.75984
0
LINE
8
BLACK
6
CONTINUOUS
10
1.71063
20
-5.75984
11
1.71063
21
-5.72638
0
LINE
8
BLACK
6
CONTINUOUS
10
1.71063
20
-5.72638
11
1.77362
21
-5.72638
0
LINE
8
BLACK
6
CONTINUOUS
10
1.77362
20
-5.72638
11
1.77362
21
-5.75984
0
LINE
8
BLACK
6
CONTINUOUS
10
3.82087
20
-5.69094
11
3.75787
21
-5.69094
0
LINE
8
BLACK
6
CONTINUOUS
10
3.75787
20
-5.69094
11
3.75787
21
-5.65748
0
LINE
8
BLACK
6
CONTINUOUS
10
3.75787
20
-5.65748
11
3.82087
21
-5.65748
0
LINE
8
BLACK
6
CONTINUOUS
10
3.82087
20
-5.65748
11
3.82087
21
-5.69094
0
LINE
8
BLACK
6
CONTINUOUS
10
3.95866
20
-5.69094
11
3.89567
21
-5.69094
0
LINE
8
BLACK
6
CONTINUOUS
10
3.89567
20
-5.69094
11
3.89567
21
-5.65748
0
LINE
8
BLACK
6
CONTINUOUS
10
3.89567
20
-5.65748
11
3.95866
21
-5.65748
0
LINE
8
BLACK
6
CONTINUOUS
10
3.95866
20
-5.65748
11
3.95866
21
-5.69094
0
LINE
8
BLACK
6
CONTINUOUS
10
6.89173
20
-5.69094
11
6.82874
21
-5.69094
0
LINE
8
BLACK
6
CONTINUOUS
10
6.82874
20
-5.69094
11
6.82874
21
-5.65748
0
LINE
8
BLACK
6
CONTINUOUS
10
6.82874
20
-5.65748
11
6.89173
21
-5.65748
0
LINE
8
BLACK
6
CONTINUOUS
10
6.89173
20
-5.65748
11
6.89173
21
-5.69094
0
LINE
8
BLACK
6
CONTINUOUS
10
7.02953
20
-5.69094
11
6.96654
21
-5.69094
0
LINE
8
BLACK
6
CONTINUOUS
10
6.96654
20
-5.69094
11
6.96654
21
-5.65748
0
LINE
8
BLACK
6
CONTINUOUS
10
6.96654
20
-5.65748
11
7.02953
21
-5.65748
0
LINE
8
BLACK
6
CONTINUOUS
10
7.02953
20
-5.65748
11
7.02953
21
-5.69094
0
LINE
8
BLACK
6
CONTINUOUS
10
5.39567
20
-5.69094
11
5.33268
21
-5.69094
0
LINE
8
BLACK
6
CONTINUOUS
10
5.33268
20
-5.69094
11
5.33268
21
-5.65748
0
LINE
8
BLACK
6
CONTINUOUS
10
5.33268
20
-5.65748
11
5.39567
21
-5.65748
0
LINE
8
BLACK
6
CONTINUOUS
10
5.39567
20
-5.65748
11
5.39567
21
-5.69094
0
LINE
8
BLACK
6
CONTINUOUS
10
5.53346
20
-5.69094
11
5.47047
21
-5.69094
0
LINE
8
BLACK
6
CONTINUOUS
10
5.47047
20
-5.69094
11
5.47047
21
-5.65748
0
LINE
8
BLACK
6
CONTINUOUS
10
5.47047
20
-5.65748
11
5.53346
21
-5.65748
0
LINE
8
BLACK
6
CONTINUOUS
10
5.53346
20
-5.65748
11
5.53346
21
-5.69094
0
LINE
8
BLACK
6
CONTINUOUS
10
4.84449
20
-5.69094
11
4.7815
21
-5.69094
0
LINE
8
BLACK
6
CONTINUOUS
10
4.7815
20
-5.69094
11
4.7815
21
-5.65748
0
LINE
8
BLACK
6
CONTINUOUS
10
4.7815
20
-5.65748
11
4.84449
21
-5.65748
0
LINE
8
BLACK
6
CONTINUOUS
10
4.84449
20
-5.65748
11
4.84449
21
-5.69094
0
LINE
8
BLACK
6
CONTINUOUS
10
4.98228
20
-5.69094
11
4.91929
21
-5.69094
0
LINE
8
BLACK
6
CONTINUOUS
10
4.91929
20
-5.69094
11
4.91929
21
-5.65748
0
LINE
8
BLACK
6
CONTINUOUS
10
4.91929
20
-5.65748
11
4.98228
21
-5.65748
0
LINE
8
BLACK
6
CONTINUOUS
10
4.98228
20
-5.65748
11
4.98228
21
-5.69094
0
LINE
8
BLACK
6
CONTINUOUS
10
3.23031
20
-5.69094
11
3.16732
21
-5.69094
0
LINE
8
BLACK
6
CONTINUOUS
10
3.16732
20
-5.69094
11
3.16732
21
-5.65748
0
LINE
8
BLACK
6
CONTINUOUS
10
3.16732
20
-5.65748
11
3.23031
21
-5.65748
0
LINE
8
BLACK
6
CONTINUOUS
10
3.23031
20
-5.65748
11
3.23031
21
-5.69094
0
LINE
8
BLACK
6
CONTINUOUS
10
3.36811
20
-5.69094
11
3.30512
21
-5.69094
0
LINE
8
BLACK
6
CONTINUOUS
10
3.30512
20
-5.69094
11
3.30512
21
-5.65748
0
LINE
8
BLACK
6
CONTINUOUS
10
3.30512
20
-5.65748
11
3.36811
21
-5.65748
0
LINE
8
BLACK
6
CONTINUOUS
10
3.36811
20
-5.65748
11
3.36811
21
-5.69094
0
LINE
8
BLACK
6
CONTINUOUS
10
1.91142
20
-5.69094
11
1.84843
21
-5.69094
0
LINE
8
BLACK
6
CONTINUOUS
10
1.84843
20
-5.69094
11
1.84843
21
-5.65748
0
LINE
8
BLACK
6
CONTINUOUS
10
1.84843
20
-5.65748
11
1.91142
21
-5.65748
0
LINE
8
BLACK
6
CONTINUOUS
10
1.91142
20
-5.65748
11
1.91142
21
-5.69094
0
LINE
8
BLACK
6
CONTINUOUS
10
1.77362
20
-5.69094
11
1.71063
21
-5.69094
0
LINE
8
BLACK
6
CONTINUOUS
10
1.71063
20
-5.69094
11
1.71063
21
-5.65748
0
LINE
8
BLACK
6
CONTINUOUS
10
1.71063
20
-5.65748
11
1.77362
21
-5.65748
0
LINE
8
BLACK
6
CONTINUOUS
10
1.77362
20
-5.65748
11
1.77362
21
-5.69094
0
LINE
8
BLACK
6
CONTINUOUS
10
1.72776
20
-5.60827
11
1.64902
21
-5.60827
0
LINE
8
BLACK
6
CONTINUOUS
10
1.64902
20
-5.60827
11
1.64902
21
-5.56496
0
LINE
8
BLACK
6
CONTINUOUS
10
1.64902
20
-5.56496
11
1.72776
21
-5.56496
0
LINE
8
BLACK
6
CONTINUOUS
10
1.72776
20
-5.56496
11
1.72776
21
-5.60827
0
LINE
8
BLACK
6
CONTINUOUS
10
1.97579
20
-5.60827
11
1.89705
21
-5.60827
0
LINE
8
BLACK
6
CONTINUOUS
10
1.89705
20
-5.60827
11
1.89705
21
-5.56496
0
LINE
8
BLACK
6
CONTINUOUS
10
1.89705
20
-5.56496
11
1.97579
21
-5.56496
0
LINE
8
BLACK
6
CONTINUOUS
10
1.97579
20
-5.56496
11
1.97579
21
-5.60827
0
LINE
8
BLACK
6
CONTINUOUS
10
7.0939
20
-5.60827
11
7.01516
21
-5.60827
0
LINE
8
BLACK
6
CONTINUOUS
10
7.01516
20
-5.60827
11
7.01516
21
-5.56496
0
LINE
8
BLACK
6
CONTINUOUS
10
7.01516
20
-5.56496
11
7.0939
21
-5.56496
0
LINE
8
BLACK
6
CONTINUOUS
10
7.0939
20
-5.56496
11
7.0939
21
-5.60827
0
LINE
8
BLACK
6
CONTINUOUS
10
5.07421
20
-5.60827
11
4.99547
21
-5.60827
0
LINE
8
BLACK
6
CONTINUOUS
10
4.99547
20
-5.60827
11
4.99547
21
-5.56496
0
LINE
8
BLACK
6
CONTINUOUS
10
4.99547
20
-5.56496
11
5.07421
21
-5.56496
0
LINE
8
BLACK
6
CONTINUOUS
10
5.07421
20
-5.56496
11
5.07421
21
-5.60827
0
LINE
8
BLACK
6
CONTINUOUS
10
6.84587
20
-5.60827
11
6.76713
21
-5.60827
0
LINE
8
BLACK
6
CONTINUOUS
10
6.76713
20
-5.60827
11
6.76713
21
-5.56496
0
LINE
8
BLACK
6
CONTINUOUS
10
6.76713
20
-5.56496
11
6.84587
21
-5.56496
0
LINE
8
BLACK
6
CONTINUOUS
10
6.84587
20
-5.56496
11
6.84587
21
-5.60827
0
LINE
8
BLACK
6
CONTINUOUS
10
3.49941
20
-5.60827
11
3.42067
21
-5.60827
0
LINE
8
BLACK
6
CONTINUOUS
10
3.42067
20
-5.60827
11
3.42067
21
-5.56496
0
LINE
8
BLACK
6
CONTINUOUS
10
3.42067
20
-5.56496
11
3.49941
21
-5.56496
0
LINE
8
BLACK
6
CONTINUOUS
10
3.49941
20
-5.56496
11
3.49941
21
-5.60827
0
LINE
8
BLACK
6
CONTINUOUS
10
3.74744
20
-5.60827
11
3.6687
21
-5.60827
0
LINE
8
BLACK
6
CONTINUOUS
10
3.6687
20
-5.60827
11
3.6687
21
-5.56496
0
LINE
8
BLACK
6
CONTINUOUS
10
3.6687
20
-5.56496
11
3.74744
21
-5.56496
0
LINE
8
BLACK
6
CONTINUOUS
10
3.74744
20
-5.56496
11
3.74744
21
-5.60827
0
LINE
8
BLACK
6
CONTINUOUS
10
5.32224
20
-5.60827
11
5.2435
21
-5.60827
0
LINE
8
BLACK
6
CONTINUOUS
10
5.2435
20
-5.60827
11
5.2435
21
-5.56496
0
LINE
8
BLACK
6
CONTINUOUS
10
5.2435
20
-5.56496
11
5.32224
21
-5.56496
0
LINE
8
BLACK
6
CONTINUOUS
10
5.32224
20
-5.56496
11
5.32224
21
-5.60827
0
LINE
8
BLACK
6
CONTINUOUS
10
5.32224
20
-5.4622
11
5.2435
21
-5.4622
0
LINE
8
BLACK
6
CONTINUOUS
10
5.2435
20
-5.4622
11
5.2435
21
-5.4189
0
LINE
8
BLACK
6
CONTINUOUS
10
5.2435
20
-5.4189
11
5.32224
21
-5.4189
0
LINE
8
BLACK
6
CONTINUOUS
10
5.32224
20
-5.4189
11
5.32224
21
-5.4622
0
LINE
8
BLACK
6
CONTINUOUS
10
3.74744
20
-5.4622
11
3.6687
21
-5.4622
0
LINE
8
BLACK
6
CONTINUOUS
10
3.6687
20
-5.4622
11
3.6687
21
-5.4189
0
LINE
8
BLACK
6
CONTINUOUS
10
3.6687
20
-5.4189
11
3.74744
21
-5.4189
0
LINE
8
BLACK
6
CONTINUOUS
10
3.74744
20
-5.4189
11
3.74744
21
-5.4622
0
LINE
8
BLACK
6
CONTINUOUS
10
1.72776
20
-5.4622
11
1.64902
21
-5.4622
0
LINE
8
BLACK
6
CONTINUOUS
10
1.64902
20
-5.4622
11
1.64902
21
-5.4189
0
LINE
8
BLACK
6
CONTINUOUS
10
1.64902
20
-5.4189
11
1.72776
21
-5.4189
0
LINE
8
BLACK
6
CONTINUOUS
10
1.72776
20
-5.4189
11
1.72776
21
-5.4622
0
LINE
8
BLACK
6
CONTINUOUS
10
7.0939
20
-5.4622
11
7.01516
21
-5.4622
0
LINE
8
BLACK
6
CONTINUOUS
10
7.01516
20
-5.4622
11
7.01516
21
-5.4189
0
LINE
8
BLACK
6
CONTINUOUS
10
7.01516
20
-5.4189
11
7.0939
21
-5.4189
0
LINE
8
BLACK
6
CONTINUOUS
10
7.0939
20
-5.4189
11
7.0939
21
-5.4622
0
LINE
8
BLACK
6
CONTINUOUS
10
1.97579
20
-5.4622
11
1.89705
21
-5.4622
0
LINE
8
BLACK
6
CONTINUOUS
10
1.89705
20
-5.4622
11
1.89705
21
-5.4189
0
LINE
8
BLACK
6
CONTINUOUS
10
1.89705
20
-5.4189
11
1.97579
21
-5.4189
0
LINE
8
BLACK
6
CONTINUOUS
10
1.97579
20
-5.4189
11
1.97579
21
-5.4622
0
LINE
8
BLACK
6
CONTINUOUS
10
6.84587
20
-5.4622
11
6.76713
21
-5.4622
0
LINE
8
BLACK
6
CONTINUOUS
10
6.76713
20
-5.4622
11
6.76713
21
-5.4189
0
LINE
8
BLACK
6
CONTINUOUS
10
6.76713
20
-5.4189
11
6.84587
21
-5.4189
0
LINE
8
BLACK
6
CONTINUOUS
10
6.84587
20
-5.4189
11
6.84587
21
-5.4622
0
LINE
8
BLACK
6
CONTINUOUS
10
3.49941
20
-5.4622
11
3.42067
21
-5.4622
0
LINE
8
BLACK
6
CONTINUOUS
10
3.42067
20
-5.4622
11
3.42067
21
-5.4189
0
LINE
8
BLACK
6
CONTINUOUS
10
3.42067
20
-5.4189
11
3.49941
21
-5.4189
0
LINE
8
BLACK
6
CONTINUOUS
10
3.49941
20
-5.4189
11
3.49941
21
-5.4622
0
LINE
8
BLACK
6
CONTINUOUS
10
5.07421
20
-5.4622
11
4.99547
21
-5.4622
0
LINE
8
BLACK
6
CONTINUOUS
10
4.99547
20
-5.4622
11
4.99547
21
-5.4189
0
LINE
8
BLACK
6
CONTINUOUS
10
4.99547
20
-5.4189
11
5.07421
21
-5.4189
0
LINE
8
BLACK
6
CONTINUOUS
10
5.07421
20
-5.4189
11
5.07421
21
-5.4622
0
LINE
8
BLACK
6
CONTINUOUS
10
6.41322
20
-5.28815
11
6.41641
21
-5.29028
0
LINE
8
BLACK
6
CONTINUOUS
10
6.41641
20
-5.29028
11
6.41854
21
-5.29348
0
LINE
8
BLACK
6
CONTINUOUS
10
6.41854
20
-5.29348
11
6.41929
21
-5.29724
0
LINE
8
BLACK
6
CONTINUOUS
10
6.41929
20
-5.29724
11
6.41929
21
-5.33268
0
LINE
8
BLACK
6
CONTINUOUS
10
6.41929
20
-5.33268
11
6.41854
21
-5.33644
0
LINE
8
BLACK
6
CONTINUOUS
10
6.41854
20
-5.33644
11
6.41641
21
-5.33964
0
LINE
8
BLACK
6
CONTINUOUS
10
6.41641
20
-5.33964
11
6.41322
21
-5.34177
0
LINE
8
BLACK
6
CONTINUOUS
10
6.41322
20
-5.34177
11
6.40945
21
-5.34252
0
LINE
8
BLACK
6
CONTINUOUS
10
6.40945
20
-5.34252
11
6.38386
21
-5.34252
0
LINE
8
BLACK
6
CONTINUOUS
10
6.38386
20
-5.34252
11
6.38009
21
-5.34177
0
LINE
8
BLACK
6
CONTINUOUS
10
6.38009
20
-5.34177
11
6.3769
21
-5.33964
0
LINE
8
BLACK
6
CONTINUOUS
10
6.3769
20
-5.33964
11
6.37476
21
-5.33644
0
LINE
8
BLACK
6
CONTINUOUS
10
6.37476
20
-5.33644
11
6.37402
21
-5.33268
0
LINE
8
BLACK
6
CONTINUOUS
10
6.37402
20
-5.33268
11
6.37402
21
-5.29724
0
LINE
8
BLACK
6
CONTINUOUS
10
6.37402
20
-5.29724
11
6.37476
21
-5.29348
0
LINE
8
BLACK
6
CONTINUOUS
10
6.37476
20
-5.29348
11
6.3769
21
-5.29028
0
LINE
8
BLACK
6
CONTINUOUS
10
6.3769
20
-5.29028
11
6.38009
21
-5.28815
0
LINE
8
BLACK
6
CONTINUOUS
10
6.38009
20
-5.28815
11
6.38386
21
-5.2874
0
LINE
8
BLACK
6
CONTINUOUS
10
6.38386
20
-5.2874
11
6.40945
21
-5.2874
0
LINE
8
BLACK
6
CONTINUOUS
10
6.40945
20
-5.2874
11
6.41322
21
-5.28815
0
LINE
8
BLACK
6
CONTINUOUS
10
6.49392
20
-5.28815
11
6.49712
21
-5.29028
0
LINE
8
BLACK
6
CONTINUOUS
10
6.49712
20
-5.29028
11
6.49925
21
-5.29348
0
LINE
8
BLACK
6
CONTINUOUS
10
6.49925
20
-5.29348
11
6.5
21
-5.29724
0
LINE
8
BLACK
6
CONTINUOUS
10
6.5
20
-5.29724
11
6.5
21
-5.33268
0
LINE
8
BLACK
6
CONTINUOUS
10
6.5
20
-5.33268
11
6.49925
21
-5.33644
0
LINE
8
BLACK
6
CONTINUOUS
10
6.49925
20
-5.33644
11
6.49712
21
-5.33964
0
LINE
8
BLACK
6
CONTINUOUS
10
6.49712
20
-5.33964
11
6.49392
21
-5.34177
0
LINE
8
BLACK
6
CONTINUOUS
10
6.49392
20
-5.34177
11
6.49016
21
-5.34252
0
LINE
8
BLACK
6
CONTINUOUS
10
6.49016
20
-5.34252
11
6.46457
21
-5.34252
0
LINE
8
BLACK
6
CONTINUOUS
10
6.46457
20
-5.34252
11
6.4608
21
-5.34177
0
LINE
8
BLACK
6
CONTINUOUS
10
6.4608
20
-5.34177
11
6.45761
21
-5.33964
0
LINE
8
BLACK
6
CONTINUOUS
10
6.45761
20
-5.33964
11
6.45547
21
-5.33644
0
LINE
8
BLACK
6
CONTINUOUS
10
6.45547
20
-5.33644
11
6.45472
21
-5.33268
0
LINE
8
BLACK
6
CONTINUOUS
10
6.45472
20
-5.33268
11
6.45472
21
-5.29724
0
LINE
8
BLACK
6
CONTINUOUS
10
6.45472
20
-5.29724
11
6.45547
21
-5.29348
0
LINE
8
BLACK
6
CONTINUOUS
10
6.45547
20
-5.29348
11
6.45761
21
-5.29028
0
LINE
8
BLACK
6
CONTINUOUS
10
6.45761
20
-5.29028
11
6.4608
21
-5.28815
0
LINE
8
BLACK
6
CONTINUOUS
10
6.4608
20
-5.28815
11
6.46457
21
-5.2874
0
LINE
8
BLACK
6
CONTINUOUS
10
6.46457
20
-5.2874
11
6.49016
21
-5.2874
0
LINE
8
BLACK
6
CONTINUOUS
10
6.49016
20
-5.2874
11
6.49392
21
-5.28815
0
LINE
8
BLACK
6
CONTINUOUS
10
6.77126
20
-5.25315
11
6.60197
21
-5.25315
0
LINE
8
BLACK
6
CONTINUOUS
10
6.60197
20
-5.25315
11
6.60197
21
-5.18622
0
LINE
8
BLACK
6
CONTINUOUS
10
6.60197
20
-5.18622
11
6.77126
21
-5.18622
0
LINE
8
BLACK
6
CONTINUOUS
10
6.77126
20
-5.18622
11
6.77126
21
-5.25315
0
LINE
8
BLACK
6
CONTINUOUS
10
6.24587
20
-5.25157
11
6.21043
21
-5.25157
0
LINE
8
BLACK
6
CONTINUOUS
10
6.21043
20
-5.25157
11
6.21043
21
-5.17283
0
LINE
8
BLACK
6
CONTINUOUS
10
6.21043
20
-5.17283
11
6.24587
21
-5.17283
0
LINE
8
BLACK
6
CONTINUOUS
10
6.24587
20
-5.17283
11
6.24587
21
-5.25157
0
LINE
8
BLACK
6
CONTINUOUS
10
6.19587
20
-5.25157
11
6.16043
21
-5.25157
0
LINE
8
BLACK
6
CONTINUOUS
10
6.16043
20
-5.25157
11
6.16043
21
-5.17283
0
LINE
8
BLACK
6
CONTINUOUS
10
6.16043
20
-5.17283
11
6.19587
21
-5.17283
0
LINE
8
BLACK
6
CONTINUOUS
10
6.19587
20
-5.17283
11
6.19587
21
-5.25157
0
LINE
8
BLACK
6
CONTINUOUS
10
6.14587
20
-5.25157
11
6.11043
21
-5.25157
0
LINE
8
BLACK
6
CONTINUOUS
10
6.11043
20
-5.25157
11
6.11043
21
-5.17283
0
LINE
8
BLACK
6
CONTINUOUS
10
6.11043
20
-5.17283
11
6.14587
21
-5.17283
0
LINE
8
BLACK
6
CONTINUOUS
10
6.14587
20
-5.17283
11
6.14587
21
-5.25157
0
LINE
8
BLACK
6
CONTINUOUS
10
6.09587
20
-5.25157
11
6.06043
21
-5.25157
0
LINE
8
BLACK
6
CONTINUOUS
10
6.06043
20
-5.25157
11
6.06043
21
-5.17283
0
LINE
8
BLACK
6
CONTINUOUS
10
6.06043
20
-5.17283
11
6.09587
21
-5.17283
0
LINE
8
BLACK
6
CONTINUOUS
10
6.09587
20
-5.17283
11
6.09587
21
-5.25157
0
LINE
8
BLACK
6
CONTINUOUS
10
6.04587
20
-5.25157
11
6.01043
21
-5.25157
0
LINE
8
BLACK
6
CONTINUOUS
10
6.01043
20
-5.25157
11
6.01043
21
-5.17283
0
LINE
8
BLACK
6
CONTINUOUS
10
6.01043
20
-5.17283
11
6.04587
21
-5.17283
0
LINE
8
BLACK
6
CONTINUOUS
10
6.04587
20
-5.17283
11
6.04587
21
-5.25157
0
LINE
8
BLACK
6
CONTINUOUS
10
5.79587
20
-5.25157
11
5.76043
21
-5.25157
0
LINE
8
BLACK
6
CONTINUOUS
10
5.76043
20
-5.25157
11
5.76043
21
-5.17283
0
LINE
8
BLACK
6
CONTINUOUS
10
5.76043
20
-5.17283
11
5.79587
21
-5.17283
0
LINE
8
BLACK
6
CONTINUOUS
10
5.79587
20
-5.17283
11
5.79587
21
-5.25157
0
LINE
8
BLACK
6
CONTINUOUS
10
5.84587
20
-5.25157
11
5.81043
21
-5.25157
0
LINE
8
BLACK
6
CONTINUOUS
10
5.81043
20
-5.25157
11
5.81043
21
-5.17283
0
LINE
8
BLACK
6
CONTINUOUS
10
5.81043
20
-5.17283
11
5.84587
21
-5.17283
0
LINE
8
BLACK
6
CONTINUOUS
10
5.84587
20
-5.17283
11
5.84587
21
-5.25157
0
LINE
8
BLACK
6
CONTINUOUS
10
5.89587
20
-5.25157
11
5.86043
21
-5.25157
0
LINE
8
BLACK
6
CONTINUOUS
10
5.86043
20
-5.25157
11
5.86043
21
-5.17283
0
LINE
8
BLACK
6
CONTINUOUS
10
5.86043
20
-5.17283
11
5.89587
21
-5.17283
0
LINE
8
BLACK
6
CONTINUOUS
10
5.89587
20
-5.17283
11
5.89587
21
-5.25157
0
LINE
8
BLACK
6
CONTINUOUS
10
5.94587
20
-5.25157
11
5.91043
21
-5.25157
0
LINE
8
BLACK
6
CONTINUOUS
10
5.91043
20
-5.25157
11
5.91043
21
-5.17283
0
LINE
8
BLACK
6
CONTINUOUS
10
5.91043
20
-5.17283
11
5.94587
21
-5.17283
0
LINE
8
BLACK
6
CONTINUOUS
10
5.94587
20
-5.17283
11
5.94587
21
-5.25157
0
LINE
8
BLACK
6
CONTINUOUS
10
5.99587
20
-5.25157
11
5.96043
21
-5.25157
0
LINE
8
BLACK
6
CONTINUOUS
10
5.96043
20
-5.25157
11
5.96043
21
-5.17283
0
LINE
8
BLACK
6
CONTINUOUS
10
5.96043
20
-5.17283
11
5.99587
21
-5.17283
0
LINE
8
BLACK
6
CONTINUOUS
10
5.99587
20
-5.17283
11
5.99587
21
-5.25157
0
LINE
8
BLACK
6
CONTINUOUS
10
6.34646
20
-5.25138
11
6.31102
21
-5.25138
0
LINE
8
BLACK
6
CONTINUOUS
10
6.31102
20
-5.25138
11
6.31102
21
-5.17264
0
LINE
8
BLACK
6
CONTINUOUS
10
6.31102
20
-5.17264
11
6.34646
21
-5.17264
0
LINE
8
BLACK
6
CONTINUOUS
10
6.34646
20
-5.17264
11
6.34646
21
-5.25138
0
LINE
8
BLACK
6
CONTINUOUS
10
6.29724
20
-5.25138
11
6.26181
21
-5.25138
0
LINE
8
BLACK
6
CONTINUOUS
10
6.26181
20
-5.25138
11
6.26181
21
-5.17264
0
LINE
8
BLACK
6
CONTINUOUS
10
6.26181
20
-5.17264
11
6.29724
21
-5.17264
0
LINE
8
BLACK
6
CONTINUOUS
10
6.29724
20
-5.17264
11
6.29724
21
-5.25138
0
LINE
8
BLACK
6
CONTINUOUS
10
6.90534
20
-5.18973
11
6.90853
21
-5.19186
0
LINE
8
BLACK
6
CONTINUOUS
10
6.90853
20
-5.19186
11
6.91067
21
-5.19505
0
LINE
8
BLACK
6
CONTINUOUS
10
6.91067
20
-5.19505
11
6.91142
21
-5.19882
0
LINE
8
BLACK
6
CONTINUOUS
10
6.91142
20
-5.19882
11
6.91142
21
-5.23425
0
LINE
8
BLACK
6
CONTINUOUS
10
6.91142
20
-5.23425
11
6.91067
21
-5.23802
0
LINE
8
BLACK
6
CONTINUOUS
10
6.91067
20
-5.23802
11
6.90853
21
-5.24121
0
LINE
8
BLACK
6
CONTINUOUS
10
6.90853
20
-5.24121
11
6.90534
21
-5.24335
0
LINE
8
BLACK
6
CONTINUOUS
10
6.90534
20
-5.24335
11
6.90157
21
-5.24409
0
LINE
8
BLACK
6
CONTINUOUS
10
6.90157
20
-5.24409
11
6.87598
21
-5.24409
0
LINE
8
BLACK
6
CONTINUOUS
10
6.87598
20
-5.24409
11
6.87222
21
-5.24335
0
LINE
8
BLACK
6
CONTINUOUS
10
6.87222
20
-5.24335
11
6.86902
21
-5.24121
0
LINE
8
BLACK
6
CONTINUOUS
10
6.86902
20
-5.24121
11
6.86689
21
-5.23802
0
LINE
8
BLACK
6
CONTINUOUS
10
6.86689
20
-5.23802
11
6.86614
21
-5.23425
0
LINE
8
BLACK
6
CONTINUOUS
10
6.86614
20
-5.23425
11
6.86614
21
-5.19882
0
LINE
8
BLACK
6
CONTINUOUS
10
6.86614
20
-5.19882
11
6.86689
21
-5.19505
0
LINE
8
BLACK
6
CONTINUOUS
10
6.86689
20
-5.19505
11
6.86902
21
-5.19186
0
LINE
8
BLACK
6
CONTINUOUS
10
6.86902
20
-5.19186
11
6.87222
21
-5.18973
0
LINE
8
BLACK
6
CONTINUOUS
10
6.87222
20
-5.18973
11
6.87598
21
-5.18898
0
LINE
8
BLACK
6
CONTINUOUS
10
6.87598
20
-5.18898
11
6.90157
21
-5.18898
0
LINE
8
BLACK
6
CONTINUOUS
10
6.90157
20
-5.18898
11
6.90534
21
-5.18973
0
LINE
8
BLACK
6
CONTINUOUS
10
6.98605
20
-5.18973
11
6.98924
21
-5.19186
0
LINE
8
BLACK
6
CONTINUOUS
10
6.98924
20
-5.19186
11
6.99138
21
-5.19505
0
LINE
8
BLACK
6
CONTINUOUS
10
6.99138
20
-5.19505
11
6.99213
21
-5.19882
0
LINE
8
BLACK
6
CONTINUOUS
10
6.99213
20
-5.19882
11
6.99213
21
-5.23425
0
LINE
8
BLACK
6
CONTINUOUS
10
6.99213
20
-5.23425
11
6.99138
21
-5.23802
0
LINE
8
BLACK
6
CONTINUOUS
10
6.99138
20
-5.23802
11
6.98924
21
-5.24121
0
LINE
8
BLACK
6
CONTINUOUS
10
6.98924
20
-5.24121
11
6.98605
21
-5.24335
0
LINE
8
BLACK
6
CONTINUOUS
10
6.98605
20
-5.24335
11
6.98228
21
-5.24409
0
LINE
8
BLACK
6
CONTINUOUS
10
6.98228
20
-5.24409
11
6.95669
21
-5.24409
0
LINE
8
BLACK
6
CONTINUOUS
10
6.95669
20
-5.24409
11
6.95293
21
-5.24335
0
LINE
8
BLACK
6
CONTINUOUS
10
6.95293
20
-5.24335
11
6.94973
21
-5.24121
0
LINE
8
BLACK
6
CONTINUOUS
10
6.94973
20
-5.24121
11
6.9476
21
-5.23802
0
LINE
8
BLACK
6
CONTINUOUS
10
6.9476
20
-5.23802
11
6.94685
21
-5.23425
0
LINE
8
BLACK
6
CONTINUOUS
10
6.94685
20
-5.23425
11
6.94685
21
-5.19882
0
LINE
8
BLACK
6
CONTINUOUS
10
6.94685
20
-5.19882
11
6.9476
21
-5.19505
0
LINE
8
BLACK
6
CONTINUOUS
10
6.9476
20
-5.19505
11
6.94973
21
-5.19186
0
LINE
8
BLACK
6
CONTINUOUS
10
6.94973
20
-5.19186
11
6.95293
21
-5.18973
0
LINE
8
BLACK
6
CONTINUOUS
10
6.95293
20
-5.18973
11
6.95669
21
-5.18898
0
LINE
8
BLACK
6
CONTINUOUS
10
6.95669
20
-5.18898
11
6.98228
21
-5.18898
0
LINE
8
BLACK
6
CONTINUOUS
10
6.98228
20
-5.18898
11
6.98605
21
-5.18973
0
LINE
8
BLACK
6
CONTINUOUS
10
5.74803
20
-5.17087
11
5.66929
21
-5.17087
0
LINE
8
BLACK
6
CONTINUOUS
10
5.66929
20
-5.17087
11
5.66929
21
-5.13543
0
LINE
8
BLACK
6
CONTINUOUS
10
5.66929
20
-5.13543
11
5.74803
21
-5.13543
0
LINE
8
BLACK
6
CONTINUOUS
10
5.74803
20
-5.13543
11
5.74803
21
-5.17087
0
LINE
8
BLACK
6
CONTINUOUS
10
6.43701
20
-5.17087
11
6.35827
21
-5.17087
0
LINE
8
BLACK
6
CONTINUOUS
10
6.35827
20
-5.17087
11
6.35827
21
-5.13543
0
LINE
8
BLACK
6
CONTINUOUS
10
6.35827
20
-5.13543
11
6.43701
21
-5.13543
0
LINE
8
BLACK
6
CONTINUOUS
10
6.43701
20
-5.13543
11
6.43701
21
-5.17087
0
LINE
8
BLACK
6
CONTINUOUS
10
6.74223
20
-5.088
11
6.74911
21
-5.08954
0
LINE
8
BLACK
6
CONTINUOUS
10
6.74911
20
-5.08954
11
6.75551
21
-5.09252
0
LINE
8
BLACK
6
CONTINUOUS
10
6.75551
20
-5.09252
11
6.76112
21
-5.09681
0
LINE
8
BLACK
6
CONTINUOUS
10
6.76112
20
-5.09681
11
6.76567
21
-5.1022
0
LINE
8
BLACK
6
CONTINUOUS
10
6.76567
20
-5.1022
11
6.76897
21
-5.10844
0
LINE
8
BLACK
6
CONTINUOUS
10
6.76897
20
-5.10844
11
6.77084
21
-5.11525
0
LINE
8
BLACK
6
CONTINUOUS
10
6.77084
20
-5.11525
11
6.77121
21
-5.1223
0
LINE
8
BLACK
6
CONTINUOUS
10
6.77121
20
-5.1223
11
6.77006
21
-5.12926
0
LINE
8
BLACK
6
CONTINUOUS
10
6.77006
20
-5.12926
11
6.76743
21
-5.13581
0
LINE
8
BLACK
6
CONTINUOUS
10
6.76743
20
-5.13581
11
6.76347
21
-5.14165
0
LINE
8
BLACK
6
CONTINUOUS
10
6.76347
20
-5.14165
11
6.75834
21
-5.1465
0
LINE
8
BLACK
6
CONTINUOUS
10
6.75834
20
-5.1465
11
6.75229
21
-5.15014
0
LINE
8
BLACK
6
CONTINUOUS
10
6.75229
20
-5.15014
11
6.7456
21
-5.15239
0
LINE
8
BLACK
6
CONTINUOUS
10
6.7456
20
-5.15239
11
6.73858
21
-5.15315
0
LINE
8
BLACK
6
CONTINUOUS
10
6.73858
20
-5.15315
11
6.63465
21
-5.15315
0
LINE
8
BLACK
6
CONTINUOUS
10
6.63465
20
-5.15315
11
6.631
21
-5.15295
0
LINE
8
BLACK
6
CONTINUOUS
10
6.631
20
-5.15295
11
6.62411
21
-5.15141
0
LINE
8
BLACK
6
CONTINUOUS
10
6.62411
20
-5.15141
11
6.61772
21
-5.14842
0
LINE
8
BLACK
6
CONTINUOUS
10
6.61772
20
-5.14842
11
6.61211
21
-5.14414
0
LINE
8
BLACK
6
CONTINUOUS
10
6.61211
20
-5.14414
11
6.60756
21
-5.13875
0
LINE
8
BLACK
6
CONTINUOUS
10
6.60756
20
-5.13875
11
6.60426
21
-5.1325
0
LINE
8
BLACK
6
CONTINUOUS
10
6.60426
20
-5.1325
11
6.60239
21
-5.1257
0
LINE
8
BLACK
6
CONTINUOUS
10
6.60239
20
-5.1257
11
6.60202
21
-5.11865
0
LINE
8
BLACK
6
CONTINUOUS
10
6.60202
20
-5.11865
11
6.60317
21
-5.11168
0
LINE
8
BLACK
6
CONTINUOUS
10
6.60317
20
-5.11168
11
6.60579
21
-5.10513
0
LINE
8
BLACK
6
CONTINUOUS
10
6.60579
20
-5.10513
11
6.60976
21
-5.09929
0
LINE
8
BLACK
6
CONTINUOUS
10
6.60976
20
-5.09929
11
6.61489
21
-5.09444
0
LINE
8
BLACK
6
CONTINUOUS
10
6.61489
20
-5.09444
11
6.62094
21
-5.09081
0
LINE
8
BLACK
6
CONTINUOUS
10
6.62094
20
-5.09081
11
6.62763
21
-5.08856
0
LINE
8
BLACK
6
CONTINUOUS
10
6.62763
20
-5.08856
11
6.63465
21
-5.0878
0
LINE
8
BLACK
6
CONTINUOUS
10
6.63465
20
-5.0878
11
6.73858
21
-5.0878
0
LINE
8
BLACK
6
CONTINUOUS
10
6.73858
20
-5.0878
11
6.74223
21
-5.088
0
LINE
8
BLACK
6
CONTINUOUS
10
6.97848
20
-5.10012
11
6.98151
21
-5.10215
0
LINE
8
BLACK
6
CONTINUOUS
10
6.98151
20
-5.10215
11
6.98354
21
-5.10518
0
LINE
8
BLACK
6
CONTINUOUS
10
6.98354
20
-5.10518
11
6.98425
21
-5.10876
0
LINE
8
BLACK
6
CONTINUOUS
10
6.98425
20
-5.10876
11
6.98425
21
-5.12746
0
LINE
8
BLACK
6
CONTINUOUS
10
6.98425
20
-5.12746
11
6.98354
21
-5.13104
0
LINE
8
BLACK
6
CONTINUOUS
10
6.98354
20
-5.13104
11
6.98151
21
-5.13407
0
LINE
8
BLACK
6
CONTINUOUS
10
6.98151
20
-5.13407
11
6.97848
21
-5.1361
0
LINE
8
BLACK
6
CONTINUOUS
10
6.97848
20
-5.1361
11
6.9749
21
-5.13681
0
LINE
8
BLACK
6
CONTINUOUS
10
6.9749
20
-5.13681
11
6.95226
21
-5.13681
0
LINE
8
BLACK
6
CONTINUOUS
10
6.95226
20
-5.13681
11
6.94869
21
-5.1361
0
LINE
8
BLACK
6
CONTINUOUS
10
6.94869
20
-5.1361
11
6.94565
21
-5.13407
0
LINE
8
BLACK
6
CONTINUOUS
10
6.94565
20
-5.13407
11
6.94363
21
-5.13104
0
LINE
8
BLACK
6
CONTINUOUS
10
6.94363
20
-5.13104
11
6.94291
21
-5.12746
0
LINE
8
BLACK
6
CONTINUOUS
10
6.94291
20
-5.12746
11
6.94291
21
-5.10876
0
LINE
8
BLACK
6
CONTINUOUS
10
6.94291
20
-5.10876
11
6.94363
21
-5.10518
0
LINE
8
BLACK
6
CONTINUOUS
10
6.94363
20
-5.10518
11
6.94565
21
-5.10215
0
LINE
8
BLACK
6
CONTINUOUS
10
6.94565
20
-5.10215
11
6.94869
21
-5.10012
0
LINE
8
BLACK
6
CONTINUOUS
10
6.94869
20
-5.10012
11
6.95226
21
-5.09941
0
LINE
8
BLACK
6
CONTINUOUS
10
6.95226
20
-5.09941
11
6.9749
21
-5.09941
0
LINE
8
BLACK
6
CONTINUOUS
10
6.9749
20
-5.09941
11
6.97848
21
-5.10012
0
LINE
8
BLACK
6
CONTINUOUS
10
6.90958
20
-5.10012
11
6.91262
21
-5.10215
0
LINE
8
BLACK
6
CONTINUOUS
10
6.91262
20
-5.10215
11
6.91464
21
-5.10518
0
LINE
8
BLACK
6
CONTINUOUS
10
6.91464
20
-5.10518
11
6.91535
21
-5.10876
0
LINE
8
BLACK
6
CONTINUOUS
10
6.91535
20
-5.10876
11
6.91535
21
-5.12746
0
LINE
8
BLACK
6
CONTINUOUS
10
6.91535
20
-5.12746
11
6.91464
21
-5.13104
0
LINE
8
BLACK
6
CONTINUOUS
10
6.91464
20
-5.13104
11
6.91262
21
-5.13407
0
LINE
8
BLACK
6
CONTINUOUS
10
6.91262
20
-5.13407
11
6.90958
21
-5.1361
0
LINE
8
BLACK
6
CONTINUOUS
10
6.90958
20
-5.1361
11
6.906
21
-5.13681
0
LINE
8
BLACK
6
CONTINUOUS
10
6.906
20
-5.13681
11
6.88337
21
-5.13681
0
LINE
8
BLACK
6
CONTINUOUS
10
6.88337
20
-5.13681
11
6.87979
21
-5.1361
0
LINE
8
BLACK
6
CONTINUOUS
10
6.87979
20
-5.1361
11
6.87675
21
-5.13407
0
LINE
8
BLACK
6
CONTINUOUS
10
6.87675
20
-5.13407
11
6.87473
21
-5.13104
0
LINE
8
BLACK
6
CONTINUOUS
10
6.87473
20
-5.13104
11
6.87402
21
-5.12746
0
LINE
8
BLACK
6
CONTINUOUS
10
6.87402
20
-5.12746
11
6.87402
21
-5.10876
0
LINE
8
BLACK
6
CONTINUOUS
10
6.87402
20
-5.10876
11
6.87473
21
-5.10518
0
LINE
8
BLACK
6
CONTINUOUS
10
6.87473
20
-5.10518
11
6.87675
21
-5.10215
0
LINE
8
BLACK
6
CONTINUOUS
10
6.87675
20
-5.10215
11
6.87979
21
-5.10012
0
LINE
8
BLACK
6
CONTINUOUS
10
6.87979
20
-5.10012
11
6.88337
21
-5.09941
0
LINE
8
BLACK
6
CONTINUOUS
10
6.88337
20
-5.09941
11
6.906
21
-5.09941
0
LINE
8
BLACK
6
CONTINUOUS
10
6.906
20
-5.09941
11
6.90958
21
-5.10012
0
LINE
8
BLACK
6
CONTINUOUS
10
5.74803
20
-5.12087
11
5.66929
21
-5.12087
0
LINE
8
BLACK
6
CONTINUOUS
10
5.66929
20
-5.12087
11
5.66929
21
-5.08543
0
LINE
8
BLACK
6
CONTINUOUS
10
5.66929
20
-5.08543
11
5.74803
21
-5.08543
0
LINE
8
BLACK
6
CONTINUOUS
10
5.74803
20
-5.08543
11
5.74803
21
-5.12087
0
LINE
8
BLACK
6
CONTINUOUS
10
6.43701
20
-5.12087
11
6.35827
21
-5.12087
0
LINE
8
BLACK
6
CONTINUOUS
10
6.35827
20
-5.12087
11
6.35827
21
-5.08543
0
LINE
8
BLACK
6
CONTINUOUS
10
6.35827
20
-5.08543
11
6.43701
21
-5.08543
0
LINE
8
BLACK
6
CONTINUOUS
10
6.43701
20
-5.08543
11
6.43701
21
-5.12087
0
LINE
8
BLACK
6
CONTINUOUS
10
5.74803
20
-5.07087
11
5.66929
21
-5.07087
0
LINE
8
BLACK
6
CONTINUOUS
10
5.66929
20
-5.07087
11
5.66929
21
-5.03543
0
LINE
8
BLACK
6
CONTINUOUS
10
5.66929
20
-5.03543
11
5.74803
21
-5.03543
0
LINE
8
BLACK
6
CONTINUOUS
10
5.74803
20
-5.03543
11
5.74803
21
-5.07087
0
LINE
8
BLACK
6
CONTINUOUS
10
6.43701
20
-5.07087
11
6.35827
21
-5.07087
0
LINE
8
BLACK
6
CONTINUOUS
10
6.35827
20
-5.07087
11
6.35827
21
-5.03543
0
LINE
8
BLACK
6
CONTINUOUS
10
6.35827
20
-5.03543
11
6.43701
21
-5.03543
0
LINE
8
BLACK
6
CONTINUOUS
10
6.43701
20
-5.03543
11
6.43701
21
-5.07087
0
LINE
8
BLACK
6
CONTINUOUS
10
6.73982
20
-4.98937
11
6.74687
21
-4.99026
0
LINE
8
BLACK
6
CONTINUOUS
10
6.74687
20
-4.99026
11
6.75355
21
-4.9927
0
LINE
8
BLACK
6
CONTINUOUS
10
6.75355
20
-4.9927
11
6.75953
21
-4.99655
0
LINE
8
BLACK
6
CONTINUOUS
10
6.75953
20
-4.99655
11
6.7645
21
-5.00163
0
LINE
8
BLACK
6
CONTINUOUS
10
6.7645
20
-5.00163
11
6.76822
21
-5.00768
0
LINE
8
BLACK
6
CONTINUOUS
10
6.76822
20
-5.00768
11
6.77052
21
-5.01441
0
LINE
8
BLACK
6
CONTINUOUS
10
6.77052
20
-5.01441
11
6.77126
21
-5.02148
0
LINE
8
BLACK
6
CONTINUOUS
10
6.77126
20
-5.02148
11
6.77042
21
-5.02854
0
LINE
8
BLACK
6
CONTINUOUS
10
6.77042
20
-5.02854
11
6.76803
21
-5.03524
0
LINE
8
BLACK
6
CONTINUOUS
10
6.76803
20
-5.03524
11
6.76422
21
-5.04124
0
LINE
8
BLACK
6
CONTINUOUS
10
6.76422
20
-5.04124
11
6.75918
21
-5.04625
0
LINE
8
BLACK
6
CONTINUOUS
10
6.75918
20
-5.04625
11
6.75315
21
-5.05002
0
LINE
8
BLACK
6
CONTINUOUS
10
6.75315
20
-5.05002
11
6.74644
21
-5.05236
0
LINE
8
BLACK
6
CONTINUOUS
10
6.74644
20
-5.05236
11
6.73937
21
-5.05315
0
LINE
8
BLACK
6
CONTINUOUS
10
6.73937
20
-5.05315
11
6.63386
21
-5.05315
0
LINE
8
BLACK
6
CONTINUOUS
10
6.63386
20
-5.05315
11
6.63341
21
-5.05315
0
LINE
8
BLACK
6
CONTINUOUS
10
6.63341
20
-5.05315
11
6.62636
21
-5.05226
0
LINE
8
BLACK
6
CONTINUOUS
10
6.62636
20
-5.05226
11
6.61968
21
-5.04982
0
LINE
8
BLACK
6
CONTINUOUS
10
6.61968
20
-5.04982
11
6.6137
21
-5.04597
0
LINE
8
BLACK
6
CONTINUOUS
10
6.6137
20
-5.04597
11
6.60873
21
-5.04089
0
LINE
8
BLACK
6
CONTINUOUS
10
6.60873
20
-5.04089
11
6.605
21
-5.03484
0
LINE
8
BLACK
6
CONTINUOUS
10
6.605
20
-5.03484
11
6.60271
21
-5.02811
0
LINE
8
BLACK
6
CONTINUOUS
10
6.60271
20
-5.02811
11
6.60197
21
-5.02104
0
LINE
8
BLACK
6
CONTINUOUS
10
6.60197
20
-5.02104
11
6.60281
21
-5.01398
0
LINE
8
BLACK
6
CONTINUOUS
10
6.60281
20
-5.01398
11
6.6052
21
-5.00728
0
LINE
8
BLACK
6
CONTINUOUS
10
6.6052
20
-5.00728
11
6.60901
21
-5.00128
0
LINE
8
BLACK
6
CONTINUOUS
10
6.60901
20
-5.00128
11
6.61405
21
-4.99627
0
LINE
8
BLACK
6
CONTINUOUS
10
6.61405
20
-4.99627
11
6.62008
21
-4.9925
0
LINE
8
BLACK
6
CONTINUOUS
10
6.62008
20
-4.9925
11
6.62679
21
-4.99016
0
LINE
8
BLACK
6
CONTINUOUS
10
6.62679
20
-4.99016
11
6.63386
21
-4.98937
0
LINE
8
BLACK
6
CONTINUOUS
10
6.63386
20
-4.98937
11
6.73937
21
-4.98937
0
LINE
8
BLACK
6
CONTINUOUS
10
6.73937
20
-4.98937
11
6.73982
21
-4.98937
0
LINE
8
BLACK
6
CONTINUOUS
10
5.74803
20
-5.02087
11
5.66929
21
-5.02087
0
LINE
8
BLACK
6
CONTINUOUS
10
5.66929
20
-5.02087
11
5.66929
21
-4.98543
0
LINE
8
BLACK
6
CONTINUOUS
10
5.66929
20
-4.98543
11
5.74803
21
-4.98543
0
LINE
8
BLACK
6
CONTINUOUS
10
5.74803
20
-4.98543
11
5.74803
21
-5.02087
0
LINE
8
BLACK
6
CONTINUOUS
10
6.43701
20
-5.02087
11
6.35827
21
-5.02087
0
LINE
8
BLACK
6
CONTINUOUS
10
6.35827
20
-5.02087
11
6.35827
21
-4.98543
0
LINE
8
BLACK
6
CONTINUOUS
10
6.35827
20
-4.98543
11
6.43701
21
-4.98543
0
LINE
8
BLACK
6
CONTINUOUS
10
6.43701
20
-4.98543
11
6.43701
21
-5.02087
0
LINE
8
BLACK
6
CONTINUOUS
10
1.63262
20
-4.82458
11
1.64459
21
-4.82765
0
LINE
8
BLACK
6
CONTINUOUS
10
1.64459
20
-4.82765
11
1.65608
21
-4.8322
0
LINE
8
BLACK
6
CONTINUOUS
10
1.65608
20
-4.8322
11
1.66691
21
-4.83816
0
LINE
8
BLACK
6
CONTINUOUS
10
1.66691
20
-4.83816
11
1.67691
21
-4.84542
0
LINE
8
BLACK
6
CONTINUOUS
10
1.67691
20
-4.84542
11
1.68592
21
-4.85388
0
LINE
8
BLACK
6
CONTINUOUS
10
1.68592
20
-4.85388
11
1.6938
21
-4.86341
0
LINE
8
BLACK
6
CONTINUOUS
10
1.6938
20
-4.86341
11
1.70042
21
-4.87384
0
LINE
8
BLACK
6
CONTINUOUS
10
1.70042
20
-4.87384
11
1.70569
21
-4.88503
0
LINE
8
BLACK
6
CONTINUOUS
10
1.70569
20
-4.88503
11
1.70951
21
-4.89678
0
LINE
8
BLACK
6
CONTINUOUS
10
1.70951
20
-4.89678
11
1.71182
21
-4.90892
0
LINE
8
BLACK
6
CONTINUOUS
10
1.71182
20
-4.90892
11
1.7126
21
-4.92126
0
LINE
8
BLACK
6
CONTINUOUS
10
1.7126
20
-4.92126
11
1.71182
21
-4.9336
0
LINE
8
BLACK
6
CONTINUOUS
10
1.71182
20
-4.9336
11
1.70951
21
-4.94574
0
LINE
8
BLACK
6
CONTINUOUS
10
1.70951
20
-4.94574
11
1.70569
21
-4.95749
0
LINE
8
BLACK
6
CONTINUOUS
10
1.70569
20
-4.95749
11
1.70042
21
-4.96868
0
LINE
8
BLACK
6
CONTINUOUS
10
1.70042
20
-4.96868
11
1.6938
21
-4.97911
0
LINE
8
BLACK
6
CONTINUOUS
10
1.6938
20
-4.97911
11
1.68592
21
-4.98864
0
LINE
8
BLACK
6
CONTINUOUS
10
1.68592
20
-4.98864
11
1.67691
21
-4.9971
0
LINE
8
BLACK
6
CONTINUOUS
10
1.67691
20
-4.9971
11
1.66691
21
-5.00436
0
LINE
8
BLACK
6
CONTINUOUS
10
1.66691
20
-5.00436
11
1.65608
21
-5.01032
0
LINE
8
BLACK
6
CONTINUOUS
10
1.65608
20
-5.01032
11
1.64459
21
-5.01487
0
LINE
8
BLACK
6
CONTINUOUS
10
1.64459
20
-5.01487
11
1.63262
21
-5.01794
0
LINE
8
BLACK
6
CONTINUOUS
10
1.63262
20
-5.01794
11
1.62035
21
-5.01949
0
LINE
8
BLACK
6
CONTINUOUS
10
1.62035
20
-5.01949
11
1.60799
21
-5.01949
0
LINE
8
BLACK
6
CONTINUOUS
10
1.60799
20
-5.01949
11
1.59573
21
-5.01794
0
LINE
8
BLACK
6
CONTINUOUS
10
1.59573
20
-5.01794
11
1.58376
21
-5.01487
0
LINE
8
BLACK
6
CONTINUOUS
10
1.58376
20
-5.01487
11
1.57227
21
-5.01032
0
LINE
8
BLACK
6
CONTINUOUS
10
1.57227
20
-5.01032
11
1.56143
21
-5.00436
0
LINE
8
BLACK
6
CONTINUOUS
10
1.56143
20
-5.00436
11
1.55143
21
-4.9971
0
LINE
8
BLACK
6
CONTINUOUS
10
1.55143
20
-4.9971
11
1.54242
21
-4.98864
0
LINE
8
BLACK
6
CONTINUOUS
10
1.54242
20
-4.98864
11
1.53455
21
-4.97911
0
LINE
8
BLACK
6
CONTINUOUS
10
1.53455
20
-4.97911
11
1.52792
21
-4.96868
0
LINE
8
BLACK
6
CONTINUOUS
10
1.52792
20
-4.96868
11
1.52266
21
-4.95749
0
LINE
8
BLACK
6
CONTINUOUS
10
1.52266
20
-4.95749
11
1.51884
21
-4.94574
0
LINE
8
BLACK
6
CONTINUOUS
10
1.51884
20
-4.94574
11
1.51652
21
-4.9336
0
LINE
8
BLACK
6
CONTINUOUS
10
1.51652
20
-4.9336
11
1.51575
21
-4.92126
0
LINE
8
BLACK
6
CONTINUOUS
10
1.51575
20
-4.92126
11
1.51652
21
-4.90892
0
LINE
8
BLACK
6
CONTINUOUS
10
1.51652
20
-4.90892
11
1.51884
21
-4.89678
0
LINE
8
BLACK
6
CONTINUOUS
10
1.51884
20
-4.89678
11
1.52266
21
-4.88503
0
LINE
8
BLACK
6
CONTINUOUS
10
1.52266
20
-4.88503
11
1.52792
21
-4.87384
0
LINE
8
BLACK
6
CONTINUOUS
10
1.52792
20
-4.87384
11
1.53455
21
-4.86341
0
LINE
8
BLACK
6
CONTINUOUS
10
1.53455
20
-4.86341
11
1.54242
21
-4.85388
0
LINE
8
BLACK
6
CONTINUOUS
10
1.54242
20
-4.85388
11
1.55143
21
-4.84542
0
LINE
8
BLACK
6
CONTINUOUS
10
1.55143
20
-4.84542
11
1.56143
21
-4.83816
0
LINE
8
BLACK
6
CONTINUOUS
10
1.56143
20
-4.83816
11
1.57227
21
-4.8322
0
LINE
8
BLACK
6
CONTINUOUS
10
1.57227
20
-4.8322
11
1.58376
21
-4.82765
0
LINE
8
BLACK
6
CONTINUOUS
10
1.58376
20
-4.82765
11
1.59573
21
-4.82458
0
LINE
8
BLACK
6
CONTINUOUS
10
1.59573
20
-4.82458
11
1.60799
21
-4.82303
0
LINE
8
BLACK
6
CONTINUOUS
10
1.60799
20
-4.82303
11
1.62035
21
-4.82303
0
LINE
8
BLACK
6
CONTINUOUS
10
1.62035
20
-4.82303
11
1.63262
21
-4.82458
0
LINE
8
BLACK
6
CONTINUOUS
10
7.14443
20
-4.82458
11
7.1564
21
-4.82765
0
LINE
8
BLACK
6
CONTINUOUS
10
7.1564
20
-4.82765
11
7.16789
21
-4.8322
0
LINE
8
BLACK
6
CONTINUOUS
10
7.16789
20
-4.8322
11
7.17872
21
-4.83816
0
LINE
8
BLACK
6
CONTINUOUS
10
7.17872
20
-4.83816
11
7.18872
21
-4.84542
0
LINE
8
BLACK
6
CONTINUOUS
10
7.18872
20
-4.84542
11
7.19773
21
-4.85388
0
LINE
8
BLACK
6
CONTINUOUS
10
7.19773
20
-4.85388
11
7.20561
21
-4.86341
0
LINE
8
BLACK
6
CONTINUOUS
10
7.20561
20
-4.86341
11
7.21223
21
-4.87384
0
LINE
8
BLACK
6
CONTINUOUS
10
7.21223
20
-4.87384
11
7.2175
21
-4.88503
0
LINE
8
BLACK
6
CONTINUOUS
10
7.2175
20
-4.88503
11
7.22132
21
-4.89678
0
LINE
8
BLACK
6
CONTINUOUS
10
7.22132
20
-4.89678
11
7.22363
21
-4.90892
0
LINE
8
BLACK
6
CONTINUOUS
10
7.22363
20
-4.90892
11
7.22441
21
-4.92126
0
LINE
8
BLACK
6
CONTINUOUS
10
7.22441
20
-4.92126
11
7.22363
21
-4.9336
0
LINE
8
BLACK
6
CONTINUOUS
10
7.22363
20
-4.9336
11
7.22132
21
-4.94574
0
LINE
8
BLACK
6
CONTINUOUS
10
7.22132
20
-4.94574
11
7.2175
21
-4.95749
0
LINE
8
BLACK
6
CONTINUOUS
10
7.2175
20
-4.95749
11
7.21223
21
-4.96868
0
LINE
8
BLACK
6
CONTINUOUS
10
7.21223
20
-4.96868
11
7.20561
21
-4.97911
0
LINE
8
BLACK
6
CONTINUOUS
10
7.20561
20
-4.97911
11
7.19773
21
-4.98864
0
LINE
8
BLACK
6
CONTINUOUS
10
7.19773
20
-4.98864
11
7.18872
21
-4.9971
0
LINE
8
BLACK
6
CONTINUOUS
10
7.18872
20
-4.9971
11
7.17872
21
-5.00436
0
LINE
8
BLACK
6
CONTINUOUS
10
7.17872
20
-5.00436
11
7.16789
21
-5.01032
0
LINE
8
BLACK
6
CONTINUOUS
10
7.16789
20
-5.01032
11
7.1564
21
-5.01487
0
LINE
8
BLACK
6
CONTINUOUS
10
7.1564
20
-5.01487
11
7.14443
21
-5.01794
0
LINE
8
BLACK
6
CONTINUOUS
10
7.14443
20
-5.01794
11
7.13216
21
-5.01949
0
LINE
8
BLACK
6
CONTINUOUS
10
7.13216
20
-5.01949
11
7.1198
21
-5.01949
0
LINE
8
BLACK
6
CONTINUOUS
10
7.1198
20
-5.01949
11
7.10754
21
-5.01794
0
LINE
8
BLACK
6
CONTINUOUS
10
7.10754
20
-5.01794
11
7.09557
21
-5.01487
0
LINE
8
BLACK
6
CONTINUOUS
10
7.09557
20
-5.01487
11
7.08408
21
-5.01032
0
LINE
8
BLACK
6
CONTINUOUS
10
7.08408
20
-5.01032
11
7.07325
21
-5.00436
0
LINE
8
BLACK
6
CONTINUOUS
10
7.07325
20
-5.00436
11
7.06325
21
-4.9971
0
LINE
8
BLACK
6
CONTINUOUS
10
7.06325
20
-4.9971
11
7.05424
21
-4.98864
0
LINE
8
BLACK
6
CONTINUOUS
10
7.05424
20
-4.98864
11
7.04636
21
-4.97911
0
LINE
8
BLACK
6
CONTINUOUS
10
7.04636
20
-4.97911
11
7.03973
21
-4.96868
0
LINE
8
BLACK
6
CONTINUOUS
10
7.03973
20
-4.96868
11
7.03447
21
-4.95749
0
LINE
8
BLACK
6
CONTINUOUS
10
7.03447
20
-4.95749
11
7.03065
21
-4.94574
0
LINE
8
BLACK
6
CONTINUOUS
10
7.03065
20
-4.94574
11
7.02834
21
-4.9336
0
LINE
8
BLACK
6
CONTINUOUS
10
7.02834
20
-4.9336
11
7.02756
21
-4.92126
0
LINE
8
BLACK
6
CONTINUOUS
10
7.02756
20
-4.92126
11
7.02834
21
-4.90892
0
LINE
8
BLACK
6
CONTINUOUS
10
7.02834
20
-4.90892
11
7.03065
21
-4.89678
0
LINE
8
BLACK
6
CONTINUOUS
10
7.03065
20
-4.89678
11
7.03447
21
-4.88503
0
LINE
8
BLACK
6
CONTINUOUS
10
7.03447
20
-4.88503
11
7.03973
21
-4.87384
0
LINE
8
BLACK
6
CONTINUOUS
10
7.03973
20
-4.87384
11
7.04636
21
-4.86341
0
LINE
8
BLACK
6
CONTINUOUS
10
7.04636
20
-4.86341
11
7.05424
21
-4.85388
0
LINE
8
BLACK
6
CONTINUOUS
10
7.05424
20
-4.85388
11
7.06325
21
-4.84542
0
LINE
8
BLACK
6
CONTINUOUS
10
7.06325
20
-4.84542
11
7.07325
21
-4.83816
0
LINE
8
BLACK
6
CONTINUOUS
10
7.07325
20
-4.83816
11
7.08408
21
-4.8322
0
LINE
8
BLACK
6
CONTINUOUS
10
7.08408
20
-4.8322
11
7.09557
21
-4.82765
0
LINE
8
BLACK
6
CONTINUOUS
10
7.09557
20
-4.82765
11
7.10754
21
-4.82458
0
LINE
8
BLACK
6
CONTINUOUS
10
7.10754
20
-4.82458
11
7.1198
21
-4.82303
0
LINE
8
BLACK
6
CONTINUOUS
10
7.1198
20
-4.82303
11
7.13216
21
-4.82303
0
LINE
8
BLACK
6
CONTINUOUS
10
7.13216
20
-4.82303
11
7.14443
21
-4.82458
0
LINE
8
BLACK
6
CONTINUOUS
10
6.43701
20
-4.97087
11
6.35827
21
-4.97087
0
LINE
8
BLACK
6
CONTINUOUS
10
6.35827
20
-4.97087
11
6.35827
21
-4.93543
0
LINE
8
BLACK
6
CONTINUOUS
10
6.35827
20
-4.93543
11
6.43701
21
-4.93543
0
LINE
8
BLACK
6
CONTINUOUS
10
6.43701
20
-4.93543
11
6.43701
21
-4.97087
0
LINE
8
BLACK
6
CONTINUOUS
10
5.74803
20
-4.97087
11
5.66929
21
-4.97087
0
LINE
8
BLACK
6
CONTINUOUS
10
5.66929
20
-4.97087
11
5.66929
21
-4.93543
0
LINE
8
BLACK
6
CONTINUOUS
10
5.66929
20
-4.93543
11
5.74803
21
-4.93543
0
LINE
8
BLACK
6
CONTINUOUS
10
5.74803
20
-4.93543
11
5.74803
21
-4.97087
0
LINE
8
BLACK
6
CONTINUOUS
10
6.73824
20
-4.88937
11
6.74529
21
-4.89026
0
LINE
8
BLACK
6
CONTINUOUS
10
6.74529
20
-4.89026
11
6.75197
21
-4.8927
0
LINE
8
BLACK
6
CONTINUOUS
10
6.75197
20
-4.8927
11
6.75795
21
-4.89655
0
LINE
8
BLACK
6
CONTINUOUS
10
6.75795
20
-4.89655
11
6.76292
21
-4.90163
0
LINE
8
BLACK
6
CONTINUOUS
10
6.76292
20
-4.90163
11
6.76665
21
-4.90768
0
LINE
8
BLACK
6
CONTINUOUS
10
6.76665
20
-4.90768
11
6.76894
21
-4.91441
0
LINE
8
BLACK
6
CONTINUOUS
10
6.76894
20
-4.91441
11
6.76968
21
-4.92148
0
LINE
8
BLACK
6
CONTINUOUS
10
6.76968
20
-4.92148
11
6.76884
21
-4.92854
0
LINE
8
BLACK
6
CONTINUOUS
10
6.76884
20
-4.92854
11
6.76646
21
-4.93524
0
LINE
8
BLACK
6
CONTINUOUS
10
6.76646
20
-4.93524
11
6.76265
21
-4.94124
0
LINE
8
BLACK
6
CONTINUOUS
10
6.76265
20
-4.94124
11
6.7576
21
-4.94625
0
LINE
8
BLACK
6
CONTINUOUS
10
6.7576
20
-4.94625
11
6.75157
21
-4.95002
0
LINE
8
BLACK
6
CONTINUOUS
10
6.75157
20
-4.95002
11
6.74486
21
-4.95236
0
LINE
8
BLACK
6
CONTINUOUS
10
6.74486
20
-4.95236
11
6.7378
21
-4.95315
0
LINE
8
BLACK
6
CONTINUOUS
10
6.7378
20
-4.95315
11
6.63228
21
-4.95315
0
LINE
8
BLACK
6
CONTINUOUS
10
6.63228
20
-4.95315
11
6.63184
21
-4.95315
0
LINE
8
BLACK
6
CONTINUOUS
10
6.63184
20
-4.95315
11
6.62478
21
-4.95226
0
LINE
8
BLACK
6
CONTINUOUS
10
6.62478
20
-4.95226
11
6.6181
21
-4.94982
0
LINE
8
BLACK
6
CONTINUOUS
10
6.6181
20
-4.94982
11
6.61213
21
-4.94597
0
LINE
8
BLACK
6
CONTINUOUS
10
6.61213
20
-4.94597
11
6.60715
21
-4.94089
0
LINE
8
BLACK
6
CONTINUOUS
10
6.60715
20
-4.94089
11
6.60343
21
-4.93484
0
LINE
8
BLACK
6
CONTINUOUS
10
6.60343
20
-4.93484
11
6.60114
21
-4.92811
0
LINE
8
BLACK
6
CONTINUOUS
10
6.60114
20
-4.92811
11
6.60039
21
-4.92104
0
LINE
8
BLACK
6
CONTINUOUS
10
6.60039
20
-4.92104
11
6.60124
21
-4.91398
0
LINE
8
BLACK
6
CONTINUOUS
10
6.60124
20
-4.91398
11
6.60362
21
-4.90728
0
LINE
8
BLACK
6
CONTINUOUS
10
6.60362
20
-4.90728
11
6.60743
21
-4.90128
0
LINE
8
BLACK
6
CONTINUOUS
10
6.60743
20
-4.90128
11
6.61248
21
-4.89627
0
LINE
8
BLACK
6
CONTINUOUS
10
6.61248
20
-4.89627
11
6.6185
21
-4.8925
0
LINE
8
BLACK
6
CONTINUOUS
10
6.6185
20
-4.8925
11
6.62522
21
-4.89016
0
LINE
8
BLACK
6
CONTINUOUS
10
6.62522
20
-4.89016
11
6.63228
21
-4.88937
0
LINE
8
BLACK
6
CONTINUOUS
10
6.63228
20
-4.88937
11
6.7378
21
-4.88937
0
LINE
8
BLACK
6
CONTINUOUS
10
6.7378
20
-4.88937
11
6.73824
21
-4.88937
0
LINE
8
BLACK
6
CONTINUOUS
10
5.74803
20
-4.92087
11
5.66929
21
-4.92087
0
LINE
8
BLACK
6
CONTINUOUS
10
5.66929
20
-4.92087
11
5.66929
21
-4.88543
0
LINE
8
BLACK
6
CONTINUOUS
10
5.66929
20
-4.88543
11
5.74803
21
-4.88543
0
LINE
8
BLACK
6
CONTINUOUS
10
5.74803
20
-4.88543
11
5.74803
21
-4.92087
0
LINE
8
BLACK
6
CONTINUOUS
10
6.43701
20
-4.92087
11
6.35827
21
-4.92087
0
LINE
8
BLACK
6
CONTINUOUS
10
6.35827
20
-4.92087
11
6.35827
21
-4.88543
0
LINE
8
BLACK
6
CONTINUOUS
10
6.35827
20
-4.88543
11
6.43701
21
-4.88543
0
LINE
8
BLACK
6
CONTINUOUS
10
6.43701
20
-4.88543
11
6.43701
21
-4.92087
0
LINE
8
BLACK
6
CONTINUOUS
10
6.10236
20
-4.89685
11
5.90551
21
-4.89685
0
LINE
8
BLACK
6
CONTINUOUS
10
5.90551
20
-4.89685
11
5.90551
21
-4.7
0
LINE
8
BLACK
6
CONTINUOUS
10
5.90551
20
-4.7
11
6.10236
21
-4.7
0
LINE
8
BLACK
6
CONTINUOUS
10
6.10236
20
-4.7
11
6.10236
21
-4.89685
0
LINE
8
BLACK
6
CONTINUOUS
10
5.74803
20
-4.87087
11
5.66929
21
-4.87087
0
LINE
8
BLACK
6
CONTINUOUS
10
5.66929
20
-4.87087
11
5.66929
21
-4.83543
0
LINE
8
BLACK
6
CONTINUOUS
10
5.66929
20
-4.83543
11
5.74803
21
-4.83543
0
LINE
8
BLACK
6
CONTINUOUS
10
5.74803
20
-4.83543
11
5.74803
21
-4.87087
0
LINE
8
BLACK
6
CONTINUOUS
10
6.43701
20
-4.87087
11
6.35827
21
-4.87087
0
LINE
8
BLACK
6
CONTINUOUS
10
6.35827
20
-4.87087
11
6.35827
21
-4.83543
0
LINE
8
BLACK
6
CONTINUOUS
10
6.35827
20
-4.83543
11
6.43701
21
-4.83543
0
LINE
8
BLACK
6
CONTINUOUS
10
6.43701
20
-4.83543
11
6.43701
21
-4.87087
0
LINE
8
BLACK
6
CONTINUOUS
10
6.73667
20
-4.78937
11
6.74372
21
-4.79026
0
LINE
8
BLACK
6
CONTINUOUS
10
6.74372
20
-4.79026
11
6.7504
21
-4.7927
0
LINE
8
BLACK
6
CONTINUOUS
10
6.7504
20
-4.7927
11
6.75638
21
-4.79655
0
LINE
8
BLACK
6
CONTINUOUS
10
6.75638
20
-4.79655
11
6.76135
21
-4.80163
0
LINE
8
BLACK
6
CONTINUOUS
10
6.76135
20
-4.80163
11
6.76508
21
-4.80768
0
LINE
8
BLACK
6
CONTINUOUS
10
6.76508
20
-4.80768
11
6.76737
21
-4.81441
0
LINE
8
BLACK
6
CONTINUOUS
10
6.76737
20
-4.81441
11
6.76811
21
-4.82148
0
LINE
8
BLACK
6
CONTINUOUS
10
6.76811
20
-4.82148
11
6.76727
21
-4.82854
0
LINE
8
BLACK
6
CONTINUOUS
10
6.76727
20
-4.82854
11
6.76488
21
-4.83524
0
LINE
8
BLACK
6
CONTINUOUS
10
6.76488
20
-4.83524
11
6.76107
21
-4.84124
0
LINE
8
BLACK
6
CONTINUOUS
10
6.76107
20
-4.84124
11
6.75603
21
-4.84625
0
LINE
8
BLACK
6
CONTINUOUS
10
6.75603
20
-4.84625
11
6.75
21
-4.85002
0
LINE
8
BLACK
6
CONTINUOUS
10
6.75
20
-4.85002
11
6.74329
21
-4.85236
0
LINE
8
BLACK
6
CONTINUOUS
10
6.74329
20
-4.85236
11
6.73622
21
-4.85315
0
LINE
8
BLACK
6
CONTINUOUS
10
6.73622
20
-4.85315
11
6.63071
21
-4.85315
0
LINE
8
BLACK
6
CONTINUOUS
10
6.63071
20
-4.85315
11
6.63026
21
-4.85315
0
LINE
8
BLACK
6
CONTINUOUS
10
6.63026
20
-4.85315
11
6.62321
21
-4.85226
0
LINE
8
BLACK
6
CONTINUOUS
10
6.62321
20
-4.85226
11
6.61653
21
-4.84982
0
LINE
8
BLACK
6
CONTINUOUS
10
6.61653
20
-4.84982
11
6.61055
21
-4.84597
0
LINE
8
BLACK
6
CONTINUOUS
10
6.61055
20
-4.84597
11
6.60558
21
-4.84089
0
LINE
8
BLACK
6
CONTINUOUS
10
6.60558
20
-4.84089
11
6.60185
21
-4.83484
0
LINE
8
BLACK
6
CONTINUOUS
10
6.60185
20
-4.83484
11
6.59956
21
-4.82811
0
LINE
8
BLACK
6
CONTINUOUS
10
6.59956
20
-4.82811
11
6.59882
21
-4.82104
0
LINE
8
BLACK
6
CONTINUOUS
10
6.59882
20
-4.82104
11
6.59966
21
-4.81398
0
LINE
8
BLACK
6
CONTINUOUS
10
6.59966
20
-4.81398
11
6.60205
21
-4.80728
0
LINE
8
BLACK
6
CONTINUOUS
10
6.60205
20
-4.80728
11
6.60586
21
-4.80128
0
LINE
8
BLACK
6
CONTINUOUS
10
6.60586
20
-4.80128
11
6.6109
21
-4.79627
0
LINE
8
BLACK
6
CONTINUOUS
10
6.6109
20
-4.79627
11
6.61693
21
-4.7925
0
LINE
8
BLACK
6
CONTINUOUS
10
6.61693
20
-4.7925
11
6.62364
21
-4.79016
0
LINE
8
BLACK
6
CONTINUOUS
10
6.62364
20
-4.79016
11
6.63071
21
-4.78937
0
LINE
8
BLACK
6
CONTINUOUS
10
6.63071
20
-4.78937
11
6.73622
21
-4.78937
0
LINE
8
BLACK
6
CONTINUOUS
10
6.73622
20
-4.78937
11
6.73667
21
-4.78937
0
LINE
8
BLACK
6
CONTINUOUS
10
6.43701
20
-4.82087
11
6.35827
21
-4.82087
0
LINE
8
BLACK
6
CONTINUOUS
10
6.35827
20
-4.82087
11
6.35827
21
-4.78543
0
LINE
8
BLACK
6
CONTINUOUS
10
6.35827
20
-4.78543
11
6.43701
21
-4.78543
0
LINE
8
BLACK
6
CONTINUOUS
10
6.43701
20
-4.78543
11
6.43701
21
-4.82087
0
LINE
8
BLACK
6
CONTINUOUS
10
5.74803
20
-4.82087
11
5.66929
21
-4.82087
0
LINE
8
BLACK
6
CONTINUOUS
10
5.66929
20
-4.82087
11
5.66929
21
-4.78543
0
LINE
8
BLACK
6
CONTINUOUS
10
5.66929
20
-4.78543
11
5.74803
21
-4.78543
0
LINE
8
BLACK
6
CONTINUOUS
10
5.74803
20
-4.78543
11
5.74803
21
-4.82087
0
LINE
8
BLACK
6
CONTINUOUS
10
3.68278
20
-4.7463
11
3.68598
21
-4.74843
0
LINE
8
BLACK
6
CONTINUOUS
10
3.68598
20
-4.74843
11
3.68811
21
-4.75163
0
LINE
8
BLACK
6
CONTINUOUS
10
3.68811
20
-4.75163
11
3.68886
21
-4.75539
0
LINE
8
BLACK
6
CONTINUOUS
10
3.68886
20
-4.75539
11
3.68886
21
-4.80461
0
LINE
8
BLACK
6
CONTINUOUS
10
3.68886
20
-4.80461
11
3.68811
21
-4.80837
0
LINE
8
BLACK
6
CONTINUOUS
10
3.68811
20
-4.80837
11
3.68598
21
-4.81157
0
LINE
8
BLACK
6
CONTINUOUS
10
3.68598
20
-4.81157
11
3.68278
21
-4.8137
0
LINE
8
BLACK
6
CONTINUOUS
10
3.68278
20
-4.8137
11
3.67902
21
-4.81445
0
LINE
8
BLACK
6
CONTINUOUS
10
3.67902
20
-4.81445
11
3.6426
21
-4.81445
0
LINE
8
BLACK
6
CONTINUOUS
10
3.6426
20
-4.81445
11
3.63883
21
-4.8137
0
LINE
8
BLACK
6
CONTINUOUS
10
3.63883
20
-4.8137
11
3.63564
21
-4.81157
0
LINE
8
BLACK
6
CONTINUOUS
10
3.63564
20
-4.81157
11
3.63351
21
-4.80837
0
LINE
8
BLACK
6
CONTINUOUS
10
3.63351
20
-4.80837
11
3.63276
21
-4.80461
0
LINE
8
BLACK
6
CONTINUOUS
10
3.63276
20
-4.80461
11
3.63276
21
-4.75539
0
LINE
8
BLACK
6
CONTINUOUS
10
3.63276
20
-4.75539
11
3.63351
21
-4.75163
0
LINE
8
BLACK
6
CONTINUOUS
10
3.63351
20
-4.75163
11
3.63564
21
-4.74843
0
LINE
8
BLACK
6
CONTINUOUS
10
3.63564
20
-4.74843
11
3.63883
21
-4.7463
0
LINE
8
BLACK
6
CONTINUOUS
10
3.63883
20
-4.7463
11
3.6426
21
-4.74555
0
LINE
8
BLACK
6
CONTINUOUS
10
3.6426
20
-4.74555
11
3.67902
21
-4.74555
0
LINE
8
BLACK
6
CONTINUOUS
10
3.67902
20
-4.74555
11
3.68278
21
-4.7463
0
LINE
8
BLACK
6
CONTINUOUS
10
3.79991
20
-4.7463
11
3.8031
21
-4.74843
0
LINE
8
BLACK
6
CONTINUOUS
10
3.8031
20
-4.74843
11
3.80524
21
-4.75163
0
LINE
8
BLACK
6
CONTINUOUS
10
3.80524
20
-4.75163
11
3.80598
21
-4.75539
0
LINE
8
BLACK
6
CONTINUOUS
10
3.80598
20
-4.75539
11
3.80598
21
-4.80461
0
LINE
8
BLACK
6
CONTINUOUS
10
3.80598
20
-4.80461
11
3.80524
21
-4.80837
0
LINE
8
BLACK
6
CONTINUOUS
10
3.80524
20
-4.80837
11
3.8031
21
-4.81157
0
LINE
8
BLACK
6
CONTINUOUS
10
3.8031
20
-4.81157
11
3.79991
21
-4.8137
0
LINE
8
BLACK
6
CONTINUOUS
10
3.79991
20
-4.8137
11
3.79614
21
-4.81445
0
LINE
8
BLACK
6
CONTINUOUS
10
3.79614
20
-4.81445
11
3.75972
21
-4.81445
0
LINE
8
BLACK
6
CONTINUOUS
10
3.75972
20
-4.81445
11
3.75596
21
-4.8137
0
LINE
8
BLACK
6
CONTINUOUS
10
3.75596
20
-4.8137
11
3.75276
21
-4.81157
0
LINE
8
BLACK
6
CONTINUOUS
10
3.75276
20
-4.81157
11
3.75063
21
-4.80837
0
LINE
8
BLACK
6
CONTINUOUS
10
3.75063
20
-4.80837
11
3.74988
21
-4.80461
0
LINE
8
BLACK
6
CONTINUOUS
10
3.74988
20
-4.80461
11
3.74988
21
-4.75539
0
LINE
8
BLACK
6
CONTINUOUS
10
3.74988
20
-4.75539
11
3.75063
21
-4.75163
0
LINE
8
BLACK
6
CONTINUOUS
10
3.75063
20
-4.75163
11
3.75276
21
-4.74843
0
LINE
8
BLACK
6
CONTINUOUS
10
3.75276
20
-4.74843
11
3.75596
21
-4.7463
0
LINE
8
BLACK
6
CONTINUOUS
10
3.75596
20
-4.7463
11
3.75972
21
-4.74555
0
LINE
8
BLACK
6
CONTINUOUS
10
3.75972
20
-4.74555
11
3.79614
21
-4.74555
0
LINE
8
BLACK
6
CONTINUOUS
10
3.79614
20
-4.74555
11
3.79991
21
-4.7463
0
LINE
8
BLACK
6
CONTINUOUS
10
6.43701
20
-4.77087
11
6.35827
21
-4.77087
0
LINE
8
BLACK
6
CONTINUOUS
10
6.35827
20
-4.77087
11
6.35827
21
-4.73543
0
LINE
8
BLACK
6
CONTINUOUS
10
6.35827
20
-4.73543
11
6.43701
21
-4.73543
0
LINE
8
BLACK
6
CONTINUOUS
10
6.43701
20
-4.73543
11
6.43701
21
-4.77087
0
LINE
8
BLACK
6
CONTINUOUS
10
5.74803
20
-4.77087
11
5.66929
21
-4.77087
0
LINE
8
BLACK
6
CONTINUOUS
10
5.66929
20
-4.77087
11
5.66929
21
-4.73543
0
LINE
8
BLACK
6
CONTINUOUS
10
5.66929
20
-4.73543
11
5.74803
21
-4.73543
0
LINE
8
BLACK
6
CONTINUOUS
10
5.74803
20
-4.73543
11
5.74803
21
-4.77087
0
LINE
8
BLACK
6
CONTINUOUS
10
6.74059
20
-4.69095
11
6.74747
21
-4.69182
0
LINE
8
BLACK
6
CONTINUOUS
10
6.74747
20
-4.69182
11
6.75399
21
-4.69419
0
LINE
8
BLACK
6
CONTINUOUS
10
6.75399
20
-4.69419
11
6.75982
21
-4.69794
0
LINE
8
BLACK
6
CONTINUOUS
10
6.75982
20
-4.69794
11
6.76467
21
-4.7029
0
LINE
8
BLACK
6
CONTINUOUS
10
6.76467
20
-4.7029
11
6.7683
21
-4.7088
0
LINE
8
BLACK
6
CONTINUOUS
10
6.7683
20
-4.7088
11
6.77053
21
-4.71537
0
LINE
8
BLACK
6
CONTINUOUS
10
6.77053
20
-4.71537
11
6.77126
21
-4.72226
0
LINE
8
BLACK
6
CONTINUOUS
10
6.77126
20
-4.72226
11
6.77044
21
-4.72915
0
LINE
8
BLACK
6
CONTINUOUS
10
6.77044
20
-4.72915
11
6.76811
21
-4.73568
0
LINE
8
BLACK
6
CONTINUOUS
10
6.76811
20
-4.73568
11
6.7644
21
-4.74154
0
LINE
8
BLACK
6
CONTINUOUS
10
6.7644
20
-4.74154
11
6.75948
21
-4.74642
0
LINE
8
BLACK
6
CONTINUOUS
10
6.75948
20
-4.74642
11
6.7536
21
-4.7501
0
LINE
8
BLACK
6
CONTINUOUS
10
6.7536
20
-4.7501
11
6.74705
21
-4.75238
0
LINE
8
BLACK
6
CONTINUOUS
10
6.74705
20
-4.75238
11
6.74016
21
-4.75315
0
LINE
8
BLACK
6
CONTINUOUS
10
6.74016
20
-4.75315
11
6.63307
21
-4.75315
0
LINE
8
BLACK
6
CONTINUOUS
10
6.63307
20
-4.75315
11
6.63264
21
-4.75315
0
LINE
8
BLACK
6
CONTINUOUS
10
6.63264
20
-4.75315
11
6.62576
21
-4.75228
0
LINE
8
BLACK
6
CONTINUOUS
10
6.62576
20
-4.75228
11
6.61924
21
-4.74991
0
LINE
8
BLACK
6
CONTINUOUS
10
6.61924
20
-4.74991
11
6.61341
21
-4.74615
0
LINE
8
BLACK
6
CONTINUOUS
10
6.61341
20
-4.74615
11
6.60856
21
-4.7412
0
LINE
8
BLACK
6
CONTINUOUS
10
6.60856
20
-4.7412
11
6.60493
21
-4.73529
0
LINE
8
BLACK
6
CONTINUOUS
10
6.60493
20
-4.73529
11
6.60269
21
-4.72873
0
LINE
8
BLACK
6
CONTINUOUS
10
6.60269
20
-4.72873
11
6.60197
21
-4.72183
0
LINE
8
BLACK
6
CONTINUOUS
10
6.60197
20
-4.72183
11
6.60279
21
-4.71495
0
LINE
8
BLACK
6
CONTINUOUS
10
6.60279
20
-4.71495
11
6.60512
21
-4.70841
0
LINE
8
BLACK
6
CONTINUOUS
10
6.60512
20
-4.70841
11
6.60883
21
-4.70256
0
LINE
8
BLACK
6
CONTINUOUS
10
6.60883
20
-4.70256
11
6.61375
21
-4.69767
0
LINE
8
BLACK
6
CONTINUOUS
10
6.61375
20
-4.69767
11
6.61963
21
-4.694
0
LINE
8
BLACK
6
CONTINUOUS
10
6.61963
20
-4.694
11
6.62618
21
-4.69172
0
LINE
8
BLACK
6
CONTINUOUS
10
6.62618
20
-4.69172
11
6.63307
21
-4.69094
0
LINE
8
BLACK
6
CONTINUOUS
10
6.63307
20
-4.69094
11
6.74016
21
-4.69094
0
LINE
8
BLACK
6
CONTINUOUS
10
6.74016
20
-4.69094
11
6.74059
21
-4.69095
0
LINE
8
BLACK
6
CONTINUOUS
10
6.43701
20
-4.72087
11
6.35827
21
-4.72087
0
LINE
8
BLACK
6
CONTINUOUS
10
6.35827
20
-4.72087
11
6.35827
21
-4.68543
0
LINE
8
BLACK
6
CONTINUOUS
10
6.35827
20
-4.68543
11
6.43701
21
-4.68543
0
LINE
8
BLACK
6
CONTINUOUS
10
6.43701
20
-4.68543
11
6.43701
21
-4.72087
0
LINE
8
BLACK
6
CONTINUOUS
10
5.74803
20
-4.72087
11
5.66929
21
-4.72087
0
LINE
8
BLACK
6
CONTINUOUS
10
5.66929
20
-4.72087
11
5.66929
21
-4.68543
0
LINE
8
BLACK
6
CONTINUOUS
10
5.66929
20
-4.68543
11
5.74803
21
-4.68543
0
LINE
8
BLACK
6
CONTINUOUS
10
5.74803
20
-4.68543
11
5.74803
21
-4.72087
0
LINE
8
BLACK
6
CONTINUOUS
10
6.43701
20
-4.67087
11
6.35827
21
-4.67087
0
LINE
8
BLACK
6
CONTINUOUS
10
6.35827
20
-4.67087
11
6.35827
21
-4.63543
0
LINE
8
BLACK
6
CONTINUOUS
10
6.35827
20
-4.63543
11
6.43701
21
-4.63543
0
LINE
8
BLACK
6
CONTINUOUS
10
6.43701
20
-4.63543
11
6.43701
21
-4.67087
0
LINE
8
BLACK
6
CONTINUOUS
10
5.74803
20
-4.67087
11
5.66929
21
-4.67087
0
LINE
8
BLACK
6
CONTINUOUS
10
5.66929
20
-4.67087
11
5.66929
21
-4.63543
0
LINE
8
BLACK
6
CONTINUOUS
10
5.66929
20
-4.63543
11
5.74803
21
-4.63543
0
LINE
8
BLACK
6
CONTINUOUS
10
5.74803
20
-4.63543
11
5.74803
21
-4.67087
0
LINE
8
BLACK
6
CONTINUOUS
10
6.43701
20
-4.62087
11
6.35827
21
-4.62087
0
LINE
8
BLACK
6
CONTINUOUS
10
6.35827
20
-4.62087
11
6.35827
21
-4.58543
0
LINE
8
BLACK
6
CONTINUOUS
10
6.35827
20
-4.58543
11
6.43701
21
-4.58543
0
LINE
8
BLACK
6
CONTINUOUS
10
6.43701
20
-4.58543
11
6.43701
21
-4.62087
0
LINE
8
BLACK
6
CONTINUOUS
10
5.74803
20
-4.62087
11
5.66929
21
-4.62087
0
LINE
8
BLACK
6
CONTINUOUS
10
5.66929
20
-4.62087
11
5.66929
21
-4.58543
0
LINE
8
BLACK
6
CONTINUOUS
10
5.66929
20
-4.58543
11
5.74803
21
-4.58543
0
LINE
8
BLACK
6
CONTINUOUS
10
5.74803
20
-4.58543
11
5.74803
21
-4.62087
0
LINE
8
BLACK
6
CONTINUOUS
10
3.58835
20
-4.61339
11
3.52929
21
-4.61339
0
LINE
8
BLACK
6
CONTINUOUS
10
3.52929
20
-4.61339
11
3.52929
21
-4.53465
0
LINE
8
BLACK
6
CONTINUOUS
10
3.52929
20
-4.53465
11
3.58835
21
-4.53465
0
LINE
8
BLACK
6
CONTINUOUS
10
3.58835
20
-4.53465
11
3.58835
21
-4.61339
0
LINE
8
BLACK
6
CONTINUOUS
10
3.6789
20
-4.61339
11
3.61984
21
-4.61339
0
LINE
8
BLACK
6
CONTINUOUS
10
3.61984
20
-4.61339
11
3.61984
21
-4.53465
0
LINE
8
BLACK
6
CONTINUOUS
10
3.61984
20
-4.53465
11
3.6789
21
-4.53465
0
LINE
8
BLACK
6
CONTINUOUS
10
3.6789
20
-4.53465
11
3.6789
21
-4.61339
0
LINE
8
BLACK
6
CONTINUOUS
10
3.76945
20
-4.61339
11
3.71039
21
-4.61339
0
LINE
8
BLACK
6
CONTINUOUS
10
3.71039
20
-4.61339
11
3.71039
21
-4.53465
0
LINE
8
BLACK
6
CONTINUOUS
10
3.71039
20
-4.53465
11
3.76945
21
-4.53465
0
LINE
8
BLACK
6
CONTINUOUS
10
3.76945
20
-4.53465
11
3.76945
21
-4.61339
0
LINE
8
BLACK
6
CONTINUOUS
10
6.89173
20
-4.57874
11
6.82874
21
-4.57874
0
LINE
8
BLACK
6
CONTINUOUS
10
6.82874
20
-4.57874
11
6.82874
21
-4.54528
0
LINE
8
BLACK
6
CONTINUOUS
10
6.82874
20
-4.54528
11
6.89173
21
-4.54528
0
LINE
8
BLACK
6
CONTINUOUS
10
6.89173
20
-4.54528
11
6.89173
21
-4.57874
0
LINE
8
BLACK
6
CONTINUOUS
10
7.02953
20
-4.57874
11
6.96654
21
-4.57874
0
LINE
8
BLACK
6
CONTINUOUS
10
6.96654
20
-4.57874
11
6.96654
21
-4.54528
0
LINE
8
BLACK
6
CONTINUOUS
10
6.96654
20
-4.54528
11
7.02953
21
-4.54528
0
LINE
8
BLACK
6
CONTINUOUS
10
7.02953
20
-4.54528
11
7.02953
21
-4.57874
0
LINE
8
BLACK
6
CONTINUOUS
10
1.77362
20
-4.57874
11
1.71063
21
-4.57874
0
LINE
8
BLACK
6
CONTINUOUS
10
1.71063
20
-4.57874
11
1.71063
21
-4.54528
0
LINE
8
BLACK
6
CONTINUOUS
10
1.71063
20
-4.54528
11
1.77362
21
-4.54528
0
LINE
8
BLACK
6
CONTINUOUS
10
1.77362
20
-4.54528
11
1.77362
21
-4.57874
0
LINE
8
BLACK
6
CONTINUOUS
10
1.91142
20
-4.57874
11
1.84843
21
-4.57874
0
LINE
8
BLACK
6
CONTINUOUS
10
1.84843
20
-4.57874
11
1.84843
21
-4.54528
0
LINE
8
BLACK
6
CONTINUOUS
10
1.84843
20
-4.54528
11
1.91142
21
-4.54528
0
LINE
8
BLACK
6
CONTINUOUS
10
1.91142
20
-4.54528
11
1.91142
21
-4.57874
0
LINE
8
BLACK
6
CONTINUOUS
10
5.74803
20
-4.57087
11
5.66929
21
-4.57087
0
LINE
8
BLACK
6
CONTINUOUS
10
5.66929
20
-4.57087
11
5.66929
21
-4.53543
0
LINE
8
BLACK
6
CONTINUOUS
10
5.66929
20
-4.53543
11
5.74803
21
-4.53543
0
LINE
8
BLACK
6
CONTINUOUS
10
5.74803
20
-4.53543
11
5.74803
21
-4.57087
0
LINE
8
BLACK
6
CONTINUOUS
10
6.43701
20
-4.57028
11
6.35827
21
-4.57028
0
LINE
8
BLACK
6
CONTINUOUS
10
6.35827
20
-4.57028
11
6.35827
21
-4.53484
0
LINE
8
BLACK
6
CONTINUOUS
10
6.35827
20
-4.53484
11
6.43701
21
-4.53484
0
LINE
8
BLACK
6
CONTINUOUS
10
6.43701
20
-4.53484
11
6.43701
21
-4.57028
0
LINE
8
BLACK
6
CONTINUOUS
10
4.29629
20
-4.49319
11
4.29948
21
-4.49532
0
LINE
8
BLACK
6
CONTINUOUS
10
4.29948
20
-4.49532
11
4.30161
21
-4.49852
0
LINE
8
BLACK
6
CONTINUOUS
10
4.30161
20
-4.49852
11
4.30236
21
-4.50228
0
LINE
8
BLACK
6
CONTINUOUS
10
4.30236
20
-4.50228
11
4.30236
21
-4.53772
0
LINE
8
BLACK
6
CONTINUOUS
10
4.30236
20
-4.53772
11
4.30161
21
-4.54148
0
LINE
8
BLACK
6
CONTINUOUS
10
4.30161
20
-4.54148
11
4.29948
21
-4.54468
0
LINE
8
BLACK
6
CONTINUOUS
10
4.29948
20
-4.54468
11
4.29629
21
-4.54681
0
LINE
8
BLACK
6
CONTINUOUS
10
4.29629
20
-4.54681
11
4.29252
21
-4.54756
0
LINE
8
BLACK
6
CONTINUOUS
10
4.29252
20
-4.54756
11
4.26693
21
-4.54756
0
LINE
8
BLACK
6
CONTINUOUS
10
4.26693
20
-4.54756
11
4.26316
21
-4.54681
0
LINE
8
BLACK
6
CONTINUOUS
10
4.26316
20
-4.54681
11
4.25997
21
-4.54468
0
LINE
8
BLACK
6
CONTINUOUS
10
4.25997
20
-4.54468
11
4.25784
21
-4.54148
0
LINE
8
BLACK
6
CONTINUOUS
10
4.25784
20
-4.54148
11
4.25709
21
-4.53772
0
LINE
8
BLACK
6
CONTINUOUS
10
4.25709
20
-4.53772
11
4.25709
21
-4.50228
0
LINE
8
BLACK
6
CONTINUOUS
10
4.25709
20
-4.50228
11
4.25784
21
-4.49852
0
LINE
8
BLACK
6
CONTINUOUS
10
4.25784
20
-4.49852
11
4.25997
21
-4.49532
0
LINE
8
BLACK
6
CONTINUOUS
10
4.25997
20
-4.49532
11
4.26316
21
-4.49319
0
LINE
8
BLACK
6
CONTINUOUS
10
4.26316
20
-4.49319
11
4.26693
21
-4.49244
0
LINE
8
BLACK
6
CONTINUOUS
10
4.26693
20
-4.49244
11
4.29252
21
-4.49244
0
LINE
8
BLACK
6
CONTINUOUS
10
4.29252
20
-4.49244
11
4.29629
21
-4.49319
0
LINE
8
BLACK
6
CONTINUOUS
10
4.60629
20
-4.49319
11
4.60948
21
-4.49532
0
LINE
8
BLACK
6
CONTINUOUS
10
4.60948
20
-4.49532
11
4.61161
21
-4.49852
0
LINE
8
BLACK
6
CONTINUOUS
10
4.61161
20
-4.49852
11
4.61236
21
-4.50228
0
LINE
8
BLACK
6
CONTINUOUS
10
4.61236
20
-4.50228
11
4.61236
21
-4.53772
0
LINE
8
BLACK
6
CONTINUOUS
10
4.61236
20
-4.53772
11
4.61161
21
-4.54148
0
LINE
8
BLACK
6
CONTINUOUS
10
4.61161
20
-4.54148
11
4.60948
21
-4.54468
0
LINE
8
BLACK
6
CONTINUOUS
10
4.60948
20
-4.54468
11
4.60629
21
-4.54681
0
LINE
8
BLACK
6
CONTINUOUS
10
4.60629
20
-4.54681
11
4.60252
21
-4.54756
0
LINE
8
BLACK
6
CONTINUOUS
10
4.60252
20
-4.54756
11
4.57693
21
-4.54756
0
LINE
8
BLACK
6
CONTINUOUS
10
4.57693
20
-4.54756
11
4.57316
21
-4.54681
0
LINE
8
BLACK
6
CONTINUOUS
10
4.57316
20
-4.54681
11
4.56997
21
-4.54468
0
LINE
8
BLACK
6
CONTINUOUS
10
4.56997
20
-4.54468
11
4.56784
21
-4.54148
0
LINE
8
BLACK
6
CONTINUOUS
10
4.56784
20
-4.54148
11
4.56709
21
-4.53772
0
LINE
8
BLACK
6
CONTINUOUS
10
4.56709
20
-4.53772
11
4.56709
21
-4.50228
0
LINE
8
BLACK
6
CONTINUOUS
10
4.56709
20
-4.50228
11
4.56784
21
-4.49852
0
LINE
8
BLACK
6
CONTINUOUS
10
4.56784
20
-4.49852
11
4.56997
21
-4.49532
0
LINE
8
BLACK
6
CONTINUOUS
10
4.56997
20
-4.49532
11
4.57316
21
-4.49319
0
LINE
8
BLACK
6
CONTINUOUS
10
4.57316
20
-4.49319
11
4.57693
21
-4.49244
0
LINE
8
BLACK
6
CONTINUOUS
10
4.57693
20
-4.49244
11
4.60252
21
-4.49244
0
LINE
8
BLACK
6
CONTINUOUS
10
4.60252
20
-4.49244
11
4.60629
21
-4.49319
0
LINE
8
BLACK
6
CONTINUOUS
10
4.52558
20
-4.49319
11
4.52877
21
-4.49532
0
LINE
8
BLACK
6
CONTINUOUS
10
4.52877
20
-4.49532
11
4.5309
21
-4.49852
0
LINE
8
BLACK
6
CONTINUOUS
10
4.5309
20
-4.49852
11
4.53165
21
-4.50228
0
LINE
8
BLACK
6
CONTINUOUS
10
4.53165
20
-4.50228
11
4.53165
21
-4.53772
0
LINE
8
BLACK
6
CONTINUOUS
10
4.53165
20
-4.53772
11
4.5309
21
-4.54148
0
LINE
8
BLACK
6
CONTINUOUS
10
4.5309
20
-4.54148
11
4.52877
21
-4.54468
0
LINE
8
BLACK
6
CONTINUOUS
10
4.52877
20
-4.54468
11
4.52558
21
-4.54681
0
LINE
8
BLACK
6
CONTINUOUS
10
4.52558
20
-4.54681
11
4.52181
21
-4.54756
0
LINE
8
BLACK
6
CONTINUOUS
10
4.52181
20
-4.54756
11
4.49622
21
-4.54756
0
LINE
8
BLACK
6
CONTINUOUS
10
4.49622
20
-4.54756
11
4.49245
21
-4.54681
0
LINE
8
BLACK
6
CONTINUOUS
10
4.49245
20
-4.54681
11
4.48926
21
-4.54468
0
LINE
8
BLACK
6
CONTINUOUS
10
4.48926
20
-4.54468
11
4.48713
21
-4.54148
0
LINE
8
BLACK
6
CONTINUOUS
10
4.48713
20
-4.54148
11
4.48638
21
-4.53772
0
LINE
8
BLACK
6
CONTINUOUS
10
4.48638
20
-4.53772
11
4.48638
21
-4.50228
0
LINE
8
BLACK
6
CONTINUOUS
10
4.48638
20
-4.50228
11
4.48713
21
-4.49852
0
LINE
8
BLACK
6
CONTINUOUS
10
4.48713
20
-4.49852
11
4.48926
21
-4.49532
0
LINE
8
BLACK
6
CONTINUOUS
10
4.48926
20
-4.49532
11
4.49245
21
-4.49319
0
LINE
8
BLACK
6
CONTINUOUS
10
4.49245
20
-4.49319
11
4.49622
21
-4.49244
0
LINE
8
BLACK
6
CONTINUOUS
10
4.49622
20
-4.49244
11
4.52181
21
-4.49244
0
LINE
8
BLACK
6
CONTINUOUS
10
4.52181
20
-4.49244
11
4.52558
21
-4.49319
0
LINE
8
BLACK
6
CONTINUOUS
10
4.21558
20
-4.49319
11
4.21877
21
-4.49532
0
LINE
8
BLACK
6
CONTINUOUS
10
4.21877
20
-4.49532
11
4.2209
21
-4.49852
0
LINE
8
BLACK
6
CONTINUOUS
10
4.2209
20
-4.49852
11
4.22165
21
-4.50228
0
LINE
8
BLACK
6
CONTINUOUS
10
4.22165
20
-4.50228
11
4.22165
21
-4.53772
0
LINE
8
BLACK
6
CONTINUOUS
10
4.22165
20
-4.53772
11
4.2209
21
-4.54148
0
LINE
8
BLACK
6
CONTINUOUS
10
4.2209
20
-4.54148
11
4.21877
21
-4.54468
0
LINE
8
BLACK
6
CONTINUOUS
10
4.21877
20
-4.54468
11
4.21558
21
-4.54681
0
LINE
8
BLACK
6
CONTINUOUS
10
4.21558
20
-4.54681
11
4.21181
21
-4.54756
0
LINE
8
BLACK
6
CONTINUOUS
10
4.21181
20
-4.54756
11
4.18622
21
-4.54756
0
LINE
8
BLACK
6
CONTINUOUS
10
4.18622
20
-4.54756
11
4.18245
21
-4.54681
0
LINE
8
BLACK
6
CONTINUOUS
10
4.18245
20
-4.54681
11
4.17926
21
-4.54468
0
LINE
8
BLACK
6
CONTINUOUS
10
4.17926
20
-4.54468
11
4.17713
21
-4.54148
0
LINE
8
BLACK
6
CONTINUOUS
10
4.17713
20
-4.54148
11
4.17638
21
-4.53772
0
LINE
8
BLACK
6
CONTINUOUS
10
4.17638
20
-4.53772
11
4.17638
21
-4.50228
0
LINE
8
BLACK
6
CONTINUOUS
10
4.17638
20
-4.50228
11
4.17713
21
-4.49852
0
LINE
8
BLACK
6
CONTINUOUS
10
4.17713
20
-4.49852
11
4.17926
21
-4.49532
0
LINE
8
BLACK
6
CONTINUOUS
10
4.17926
20
-4.49532
11
4.18245
21
-4.49319
0
LINE
8
BLACK
6
CONTINUOUS
10
4.18245
20
-4.49319
11
4.18622
21
-4.49244
0
LINE
8
BLACK
6
CONTINUOUS
10
4.18622
20
-4.49244
11
4.21181
21
-4.49244
0
LINE
8
BLACK
6
CONTINUOUS
10
4.21181
20
-4.49244
11
4.21558
21
-4.49319
0
LINE
8
BLACK
6
CONTINUOUS
10
6.43701
20
-4.52106
11
6.35827
21
-4.52106
0
LINE
8
BLACK
6
CONTINUOUS
10
6.35827
20
-4.52106
11
6.35827
21
-4.48563
0
LINE
8
BLACK
6
CONTINUOUS
10
6.35827
20
-4.48563
11
6.43701
21
-4.48563
0
LINE
8
BLACK
6
CONTINUOUS
10
6.43701
20
-4.48563
11
6.43701
21
-4.52106
0
LINE
8
BLACK
6
CONTINUOUS
10
5.74803
20
-4.52087
11
5.66929
21
-4.52087
0
LINE
8
BLACK
6
CONTINUOUS
10
5.66929
20
-4.52087
11
5.66929
21
-4.48543
0
LINE
8
BLACK
6
CONTINUOUS
10
5.66929
20
-4.48543
11
5.74803
21
-4.48543
0
LINE
8
BLACK
6
CONTINUOUS
10
5.74803
20
-4.48543
11
5.74803
21
-4.52087
0
LINE
8
BLACK
6
CONTINUOUS
10
1.91142
20
-4.50984
11
1.84843
21
-4.50984
0
LINE
8
BLACK
6
CONTINUOUS
10
1.84843
20
-4.50984
11
1.84843
21
-4.47638
0
LINE
8
BLACK
6
CONTINUOUS
10
1.84843
20
-4.47638
11
1.91142
21
-4.47638
0
LINE
8
BLACK
6
CONTINUOUS
10
1.91142
20
-4.47638
11
1.91142
21
-4.50984
0
LINE
8
BLACK
6
CONTINUOUS
10
1.77362
20
-4.50984
11
1.71063
21
-4.50984
0
LINE
8
BLACK
6
CONTINUOUS
10
1.71063
20
-4.50984
11
1.71063
21
-4.47638
0
LINE
8
BLACK
6
CONTINUOUS
10
1.71063
20
-4.47638
11
1.77362
21
-4.47638
0
LINE
8
BLACK
6
CONTINUOUS
10
1.77362
20
-4.47638
11
1.77362
21
-4.50984
0
LINE
8
BLACK
6
CONTINUOUS
10
7.02953
20
-4.50984
11
6.96654
21
-4.50984
0
LINE
8
BLACK
6
CONTINUOUS
10
6.96654
20
-4.50984
11
6.96654
21
-4.47638
0
LINE
8
BLACK
6
CONTINUOUS
10
6.96654
20
-4.47638
11
7.02953
21
-4.47638
0
LINE
8
BLACK
6
CONTINUOUS
10
7.02953
20
-4.47638
11
7.02953
21
-4.50984
0
LINE
8
BLACK
6
CONTINUOUS
10
6.89173
20
-4.50984
11
6.82874
21
-4.50984
0
LINE
8
BLACK
6
CONTINUOUS
10
6.82874
20
-4.50984
11
6.82874
21
-4.47638
0
LINE
8
BLACK
6
CONTINUOUS
10
6.82874
20
-4.47638
11
6.89173
21
-4.47638
0
LINE
8
BLACK
6
CONTINUOUS
10
6.89173
20
-4.47638
11
6.89173
21
-4.50984
0
LINE
8
BLACK
6
CONTINUOUS
10
6.84587
20
-4.42717
11
6.76713
21
-4.42717
0
LINE
8
BLACK
6
CONTINUOUS
10
6.76713
20
-4.42717
11
6.76713
21
-4.38386
0
LINE
8
BLACK
6
CONTINUOUS
10
6.76713
20
-4.38386
11
6.84587
21
-4.38386
0
LINE
8
BLACK
6
CONTINUOUS
10
6.84587
20
-4.38386
11
6.84587
21
-4.42717
0
LINE
8
BLACK
6
CONTINUOUS
10
7.0939
20
-4.42717
11
7.01516
21
-4.42717
0
LINE
8
BLACK
6
CONTINUOUS
10
7.01516
20
-4.42717
11
7.01516
21
-4.38386
0
LINE
8
BLACK
6
CONTINUOUS
10
7.01516
20
-4.38386
11
7.0939
21
-4.38386
0
LINE
8
BLACK
6
CONTINUOUS
10
7.0939
20
-4.38386
11
7.0939
21
-4.42717
0
LINE
8
BLACK
6
CONTINUOUS
10
1.72776
20
-4.42717
11
1.64902
21
-4.42717
0
LINE
8
BLACK
6
CONTINUOUS
10
1.64902
20
-4.42717
11
1.64902
21
-4.38386
0
LINE
8
BLACK
6
CONTINUOUS
10
1.64902
20
-4.38386
11
1.72776
21
-4.38386
0
LINE
8
BLACK
6
CONTINUOUS
10
1.72776
20
-4.38386
11
1.72776
21
-4.42717
0
LINE
8
BLACK
6
CONTINUOUS
10
1.97579
20
-4.42717
11
1.89705
21
-4.42717
0
LINE
8
BLACK
6
CONTINUOUS
10
1.89705
20
-4.42717
11
1.89705
21
-4.38386
0
LINE
8
BLACK
6
CONTINUOUS
10
1.89705
20
-4.38386
11
1.97579
21
-4.38386
0
LINE
8
BLACK
6
CONTINUOUS
10
1.97579
20
-4.38386
11
1.97579
21
-4.42717
0
LINE
8
BLACK
6
CONTINUOUS
10
4.54307
20
-4.3201
11
4.54841
21
-4.3217
0
LINE
8
BLACK
6
CONTINUOUS
10
4.54841
20
-4.3217
11
4.5531
21
-4.32473
0
LINE
8
BLACK
6
CONTINUOUS
10
4.5531
20
-4.32473
11
4.55674
21
-4.32896
0
LINE
8
BLACK
6
CONTINUOUS
10
4.55674
20
-4.32896
11
4.55905
21
-4.33404
0
LINE
8
BLACK
6
CONTINUOUS
10
4.55905
20
-4.33404
11
4.55984
21
-4.33957
0
LINE
8
BLACK
6
CONTINUOUS
10
4.55984
20
-4.33957
11
4.55984
21
-4.37894
0
LINE
8
BLACK
6
CONTINUOUS
10
4.55984
20
-4.37894
11
4.55984
21
-4.37918
0
LINE
8
BLACK
6
CONTINUOUS
10
4.55984
20
-4.37918
11
4.55898
21
-4.38469
0
LINE
8
BLACK
6
CONTINUOUS
10
4.55898
20
-4.38469
11
4.55661
21
-4.38974
0
LINE
8
BLACK
6
CONTINUOUS
10
4.55661
20
-4.38974
11
4.55292
21
-4.39393
0
LINE
8
BLACK
6
CONTINUOUS
10
4.55292
20
-4.39393
11
4.5482
21
-4.39691
0
LINE
8
BLACK
6
CONTINUOUS
10
4.5482
20
-4.39691
11
4.54283
21
-4.39844
0
LINE
8
BLACK
6
CONTINUOUS
10
4.54283
20
-4.39844
11
4.53725
21
-4.39841
0
LINE
8
BLACK
6
CONTINUOUS
10
4.53725
20
-4.39841
11
4.5319
21
-4.39681
0
LINE
8
BLACK
6
CONTINUOUS
10
4.5319
20
-4.39681
11
4.52722
21
-4.39377
0
LINE
8
BLACK
6
CONTINUOUS
10
4.52722
20
-4.39377
11
4.52357
21
-4.38954
0
LINE
8
BLACK
6
CONTINUOUS
10
4.52357
20
-4.38954
11
4.52126
21
-4.38446
0
LINE
8
BLACK
6
CONTINUOUS
10
4.52126
20
-4.38446
11
4.52047
21
-4.37894
0
LINE
8
BLACK
6
CONTINUOUS
10
4.52047
20
-4.37894
11
4.52047
21
-4.33957
0
LINE
8
BLACK
6
CONTINUOUS
10
4.52047
20
-4.33957
11
4.52047
21
-4.33933
0
LINE
8
BLACK
6
CONTINUOUS
10
4.52047
20
-4.33933
11
4.52133
21
-4.33381
0
LINE
8
BLACK
6
CONTINUOUS
10
4.52133
20
-4.33381
11
4.5237
21
-4.32876
0
LINE
8
BLACK
6
CONTINUOUS
10
4.5237
20
-4.32876
11
4.5274
21
-4.32458
0
LINE
8
BLACK
6
CONTINUOUS
10
4.5274
20
-4.32458
11
4.53212
21
-4.3216
0
LINE
8
BLACK
6
CONTINUOUS
10
4.53212
20
-4.3216
11
4.53749
21
-4.32006
0
LINE
8
BLACK
6
CONTINUOUS
10
4.53749
20
-4.32006
11
4.54307
21
-4.3201
0
LINE
8
BLACK
6
CONTINUOUS
10
4.20291
20
-4.31911
11
4.20826
21
-4.32071
0
LINE
8
BLACK
6
CONTINUOUS
10
4.20826
20
-4.32071
11
4.21294
21
-4.32375
0
LINE
8
BLACK
6
CONTINUOUS
10
4.21294
20
-4.32375
11
4.21658
21
-4.32798
0
LINE
8
BLACK
6
CONTINUOUS
10
4.21658
20
-4.32798
11
4.21889
21
-4.33306
0
LINE
8
BLACK
6
CONTINUOUS
10
4.21889
20
-4.33306
11
4.21969
21
-4.33858
0
LINE
8
BLACK
6
CONTINUOUS
10
4.21969
20
-4.33858
11
4.21969
21
-4.37795
0
LINE
8
BLACK
6
CONTINUOUS
10
4.21969
20
-4.37795
11
4.21968
21
-4.37819
0
LINE
8
BLACK
6
CONTINUOUS
10
4.21968
20
-4.37819
11
4.21882
21
-4.38371
0
LINE
8
BLACK
6
CONTINUOUS
10
4.21882
20
-4.38371
11
4.21645
21
-4.38876
0
LINE
8
BLACK
6
CONTINUOUS
10
4.21645
20
-4.38876
11
4.21276
21
-4.39294
0
LINE
8
BLACK
6
CONTINUOUS
10
4.21276
20
-4.39294
11
4.20804
21
-4.39592
0
LINE
8
BLACK
6
CONTINUOUS
10
4.20804
20
-4.39592
11
4.20267
21
-4.39746
0
LINE
8
BLACK
6
CONTINUOUS
10
4.20267
20
-4.39746
11
4.19709
21
-4.39742
0
LINE
8
BLACK
6
CONTINUOUS
10
4.19709
20
-4.39742
11
4.19174
21
-4.39582
0
LINE
8
BLACK
6
CONTINUOUS
10
4.19174
20
-4.39582
11
4.18706
21
-4.39279
0
LINE
8
BLACK
6
CONTINUOUS
10
4.18706
20
-4.39279
11
4.18342
21
-4.38856
0
LINE
8
BLACK
6
CONTINUOUS
10
4.18342
20
-4.38856
11
4.18111
21
-4.38348
0
LINE
8
BLACK
6
CONTINUOUS
10
4.18111
20
-4.38348
11
4.18031
21
-4.37795
0
LINE
8
BLACK
6
CONTINUOUS
10
4.18031
20
-4.37795
11
4.18031
21
-4.33858
0
LINE
8
BLACK
6
CONTINUOUS
10
4.18031
20
-4.33858
11
4.18032
21
-4.33834
0
LINE
8
BLACK
6
CONTINUOUS
10
4.18032
20
-4.33834
11
4.18118
21
-4.33283
0
LINE
8
BLACK
6
CONTINUOUS
10
4.18118
20
-4.33283
11
4.18355
21
-4.32778
0
LINE
8
BLACK
6
CONTINUOUS
10
4.18355
20
-4.32778
11
4.18724
21
-4.32359
0
LINE
8
BLACK
6
CONTINUOUS
10
4.18724
20
-4.32359
11
4.19196
21
-4.32061
0
LINE
8
BLACK
6
CONTINUOUS
10
4.19196
20
-4.32061
11
4.19733
21
-4.31908
0
LINE
8
BLACK
6
CONTINUOUS
10
4.19733
20
-4.31908
11
4.20291
21
-4.31911
0
LINE
8
BLACK
6
CONTINUOUS
10
4.50236
20
-4.3937
11
4.48189
21
-4.3937
0
LINE
8
BLACK
6
CONTINUOUS
10
4.48189
20
-4.3937
11
4.48189
21
-4.35433
0
LINE
8
BLACK
6
CONTINUOUS
10
4.48189
20
-4.35433
11
4.50236
21
-4.35433
0
LINE
8
BLACK
6
CONTINUOUS
10
4.50236
20
-4.35433
11
4.50236
21
-4.3937
0
LINE
8
BLACK
6
CONTINUOUS
10
4.47283
20
-4.3937
11
4.45236
21
-4.3937
0
LINE
8
BLACK
6
CONTINUOUS
10
4.45236
20
-4.3937
11
4.45236
21
-4.35433
0
LINE
8
BLACK
6
CONTINUOUS
10
4.45236
20
-4.35433
11
4.47283
21
-4.35433
0
LINE
8
BLACK
6
CONTINUOUS
10
4.47283
20
-4.35433
11
4.47283
21
-4.3937
0
LINE
8
BLACK
6
CONTINUOUS
10
4.44429
20
-4.3937
11
4.43366
21
-4.3937
0
LINE
8
BLACK
6
CONTINUOUS
10
4.43366
20
-4.3937
11
4.43366
21
-4.35433
0
LINE
8
BLACK
6
CONTINUOUS
10
4.43366
20
-4.35433
11
4.44429
21
-4.35433
0
LINE
8
BLACK
6
CONTINUOUS
10
4.44429
20
-4.35433
11
4.44429
21
-4.3937
0
LINE
8
BLACK
6
CONTINUOUS
10
4.38524
20
-4.3937
11
4.37461
21
-4.3937
0
LINE
8
BLACK
6
CONTINUOUS
10
4.37461
20
-4.3937
11
4.37461
21
-4.35433
0
LINE
8
BLACK
6
CONTINUOUS
10
4.37461
20
-4.35433
11
4.38524
21
-4.35433
0
LINE
8
BLACK
6
CONTINUOUS
10
4.38524
20
-4.35433
11
4.38524
21
-4.3937
0
LINE
8
BLACK
6
CONTINUOUS
10
4.34587
20
-4.3937
11
4.33524
21
-4.3937
0
LINE
8
BLACK
6
CONTINUOUS
10
4.33524
20
-4.3937
11
4.33524
21
-4.35433
0
LINE
8
BLACK
6
CONTINUOUS
10
4.33524
20
-4.35433
11
4.34587
21
-4.35433
0
LINE
8
BLACK
6
CONTINUOUS
10
4.34587
20
-4.35433
11
4.34587
21
-4.3937
0
LINE
8
BLACK
6
CONTINUOUS
10
4.3065
20
-4.3937
11
4.29587
21
-4.3937
0
LINE
8
BLACK
6
CONTINUOUS
10
4.29587
20
-4.3937
11
4.29587
21
-4.35433
0
LINE
8
BLACK
6
CONTINUOUS
10
4.29587
20
-4.35433
11
4.3065
21
-4.35433
0
LINE
8
BLACK
6
CONTINUOUS
10
4.3065
20
-4.35433
11
4.3065
21
-4.3937
0
LINE
8
BLACK
6
CONTINUOUS
10
4.2878
20
-4.3937
11
4.26732
21
-4.3937
0
LINE
8
BLACK
6
CONTINUOUS
10
4.26732
20
-4.3937
11
4.26732
21
-4.35433
0
LINE
8
BLACK
6
CONTINUOUS
10
4.26732
20
-4.35433
11
4.2878
21
-4.35433
0
LINE
8
BLACK
6
CONTINUOUS
10
4.2878
20
-4.35433
11
4.2878
21
-4.3937
0
LINE
8
BLACK
6
CONTINUOUS
10
4.25827
20
-4.3937
11
4.2378
21
-4.3937
0
LINE
8
BLACK
6
CONTINUOUS
10
4.2378
20
-4.3937
11
4.2378
21
-4.35433
0
LINE
8
BLACK
6
CONTINUOUS
10
4.2378
20
-4.35433
11
4.25827
21
-4.35433
0
LINE
8
BLACK
6
CONTINUOUS
10
4.25827
20
-4.35433
11
4.25827
21
-4.3937
0
LINE
8
BLACK
6
CONTINUOUS
10
4.32618
20
-4.3937
11
4.31555
21
-4.3937
0
LINE
8
BLACK
6
CONTINUOUS
10
4.31555
20
-4.3937
11
4.31555
21
-4.35433
0
LINE
8
BLACK
6
CONTINUOUS
10
4.31555
20
-4.35433
11
4.32618
21
-4.35433
0
LINE
8
BLACK
6
CONTINUOUS
10
4.32618
20
-4.35433
11
4.32618
21
-4.3937
0
LINE
8
BLACK
6
CONTINUOUS
10
4.36555
20
-4.3937
11
4.35492
21
-4.3937
0
LINE
8
BLACK
6
CONTINUOUS
10
4.35492
20
-4.3937
11
4.35492
21
-4.35433
0
LINE
8
BLACK
6
CONTINUOUS
10
4.35492
20
-4.35433
11
4.36555
21
-4.35433
0
LINE
8
BLACK
6
CONTINUOUS
10
4.36555
20
-4.35433
11
4.36555
21
-4.3937
0
LINE
8
BLACK
6
CONTINUOUS
10
4.40492
20
-4.3937
11
4.39429
21
-4.3937
0
LINE
8
BLACK
6
CONTINUOUS
10
4.39429
20
-4.3937
11
4.39429
21
-4.35433
0
LINE
8
BLACK
6
CONTINUOUS
10
4.39429
20
-4.35433
11
4.40492
21
-4.35433
0
LINE
8
BLACK
6
CONTINUOUS
10
4.40492
20
-4.35433
11
4.40492
21
-4.3937
0
LINE
8
BLACK
6
CONTINUOUS
10
4.42461
20
-4.3937
11
4.41398
21
-4.3937
0
LINE
8
BLACK
6
CONTINUOUS
10
4.41398
20
-4.3937
11
4.41398
21
-4.35433
0
LINE
8
BLACK
6
CONTINUOUS
10
4.41398
20
-4.35433
11
4.42461
21
-4.35433
0
LINE
8
BLACK
6
CONTINUOUS
10
4.42461
20
-4.35433
11
4.42461
21
-4.3937
0
LINE
8
BLACK
6
CONTINUOUS
10
3.72417
20
-4.36535
11
3.57457
21
-4.36535
0
LINE
8
BLACK
6
CONTINUOUS
10
3.57457
20
-4.36535
11
3.57457
21
-4.28661
0
LINE
8
BLACK
6
CONTINUOUS
10
3.57457
20
-4.28661
11
3.72417
21
-4.28661
0
LINE
8
BLACK
6
CONTINUOUS
10
3.72417
20
-4.28661
11
3.72417
21
-4.36535
0
LINE
8
BLACK
6
CONTINUOUS
10
4.25918
20
-4.31912
11
4.2632
21
-4.32073
0
LINE
8
BLACK
6
CONTINUOUS
10
4.2632
20
-4.32073
11
4.26637
21
-4.32367
0
LINE
8
BLACK
6
CONTINUOUS
10
4.26637
20
-4.32367
11
4.26827
21
-4.32755
0
LINE
8
BLACK
6
CONTINUOUS
10
4.26827
20
-4.32755
11
4.26864
21
-4.33186
0
LINE
8
BLACK
6
CONTINUOUS
10
4.26864
20
-4.33186
11
4.26744
21
-4.33602
0
LINE
8
BLACK
6
CONTINUOUS
10
4.26744
20
-4.33602
11
4.26482
21
-4.33946
0
LINE
8
BLACK
6
CONTINUOUS
10
4.26482
20
-4.33946
11
4.26114
21
-4.34173
0
LINE
8
BLACK
6
CONTINUOUS
10
4.26114
20
-4.34173
11
4.25689
21
-4.34252
0
LINE
8
BLACK
6
CONTINUOUS
10
4.25689
20
-4.34252
11
4.24705
21
-4.34252
0
LINE
8
BLACK
6
CONTINUOUS
10
4.24705
20
-4.34252
11
4.24475
21
-4.34229
0
LINE
8
BLACK
6
CONTINUOUS
10
4.24475
20
-4.34229
11
4.24074
21
-4.34069
0
LINE
8
BLACK
6
CONTINUOUS
10
4.24074
20
-4.34069
11
4.23757
21
-4.33775
0
LINE
8
BLACK
6
CONTINUOUS
10
4.23757
20
-4.33775
11
4.23567
21
-4.33387
0
LINE
8
BLACK
6
CONTINUOUS
10
4.23567
20
-4.33387
11
4.23529
21
-4.32956
0
LINE
8
BLACK
6
CONTINUOUS
10
4.23529
20
-4.32956
11
4.2365
21
-4.3254
0
LINE
8
BLACK
6
CONTINUOUS
10
4.2365
20
-4.3254
11
4.23911
21
-4.32196
0
LINE
8
BLACK
6
CONTINUOUS
10
4.23911
20
-4.32196
11
4.2428
21
-4.31969
0
LINE
8
BLACK
6
CONTINUOUS
10
4.2428
20
-4.31969
11
4.24705
21
-4.3189
0
LINE
8
BLACK
6
CONTINUOUS
10
4.24705
20
-4.3189
11
4.25689
21
-4.3189
0
LINE
8
BLACK
6
CONTINUOUS
10
4.25689
20
-4.3189
11
4.25918
21
-4.31912
0
LINE
8
BLACK
6
CONTINUOUS
10
4.49409
20
-4.32048
11
4.49724
21
-4.32312
0
LINE
8
BLACK
6
CONTINUOUS
10
4.49724
20
-4.32312
11
4.49929
21
-4.32667
0
LINE
8
BLACK
6
CONTINUOUS
10
4.49929
20
-4.32667
11
4.5
21
-4.33071
0
LINE
8
BLACK
6
CONTINUOUS
10
4.5
20
-4.33071
11
4.49929
21
-4.33475
0
LINE
8
BLACK
6
CONTINUOUS
10
4.49929
20
-4.33475
11
4.49724
21
-4.3383
0
LINE
8
BLACK
6
CONTINUOUS
10
4.49724
20
-4.3383
11
4.49409
21
-4.34094
0
LINE
8
BLACK
6
CONTINUOUS
10
4.49409
20
-4.34094
11
4.49024
21
-4.34234
0
LINE
8
BLACK
6
CONTINUOUS
10
4.49024
20
-4.34234
11
4.48614
21
-4.34234
0
LINE
8
BLACK
6
CONTINUOUS
10
4.48614
20
-4.34234
11
4.48228
21
-4.34094
0
LINE
8
BLACK
6
CONTINUOUS
10
4.48228
20
-4.34094
11
4.47914
21
-4.3383
0
LINE
8
BLACK
6
CONTINUOUS
10
4.47914
20
-4.3383
11
4.47709
21
-4.33475
0
LINE
8
BLACK
6
CONTINUOUS
10
4.47709
20
-4.33475
11
4.47638
21
-4.33071
0
LINE
8
BLACK
6
CONTINUOUS
10
4.47638
20
-4.33071
11
4.47709
21
-4.32667
0
LINE
8
BLACK
6
CONTINUOUS
10
4.47709
20
-4.32667
11
4.47914
21
-4.32312
0
LINE
8
BLACK
6
CONTINUOUS
10
4.47914
20
-4.32312
11
4.48228
21
-4.32048
0
LINE
8
BLACK
6
CONTINUOUS
10
4.48228
20
-4.32048
11
4.48614
21
-4.31908
0
LINE
8
BLACK
6
CONTINUOUS
10
4.48614
20
-4.31908
11
4.49024
21
-4.31908
0
LINE
8
BLACK
6
CONTINUOUS
10
4.49024
20
-4.31908
11
4.49409
21
-4.32048
0
LINE
8
BLACK
6
CONTINUOUS
10
6.84587
20
-4.2811
11
6.76713
21
-4.2811
0
LINE
8
BLACK
6
CONTINUOUS
10
6.76713
20
-4.2811
11
6.76713
21
-4.2378
0
LINE
8
BLACK
6
CONTINUOUS
10
6.76713
20
-4.2378
11
6.84587
21
-4.2378
0
LINE
8
BLACK
6
CONTINUOUS
10
6.84587
20
-4.2378
11
6.84587
21
-4.2811
0
LINE
8
BLACK
6
CONTINUOUS
10
1.97579
20
-4.2811
11
1.89705
21
-4.2811
0
LINE
8
BLACK
6
CONTINUOUS
10
1.89705
20
-4.2811
11
1.89705
21
-4.2378
0
LINE
8
BLACK
6
CONTINUOUS
10
1.89705
20
-4.2378
11
1.97579
21
-4.2378
0
LINE
8
BLACK
6
CONTINUOUS
10
1.97579
20
-4.2378
11
1.97579
21
-4.2811
0
LINE
8
BLACK
6
CONTINUOUS
10
1.72776
20
-4.2811
11
1.64902
21
-4.2811
0
LINE
8
BLACK
6
CONTINUOUS
10
1.64902
20
-4.2811
11
1.64902
21
-4.2378
0
LINE
8
BLACK
6
CONTINUOUS
10
1.64902
20
-4.2378
11
1.72776
21
-4.2378
0
LINE
8
BLACK
6
CONTINUOUS
10
1.72776
20
-4.2378
11
1.72776
21
-4.2811
0
LINE
8
BLACK
6
CONTINUOUS
10
7.0939
20
-4.2811
11
7.01516
21
-4.2811
0
LINE
8
BLACK
6
CONTINUOUS
10
7.01516
20
-4.2811
11
7.01516
21
-4.2378
0
LINE
8
BLACK
6
CONTINUOUS
10
7.01516
20
-4.2378
11
7.0939
21
-4.2378
0
LINE
8
BLACK
6
CONTINUOUS
10
7.0939
20
-4.2378
11
7.0939
21
-4.2811
0
LINE
8
BLACK
6
CONTINUOUS
10
4.20291
20
-4.15967
11
4.20826
21
-4.16126
0
LINE
8
BLACK
6
CONTINUOUS
10
4.20826
20
-4.16126
11
4.21294
21
-4.1643
0
LINE
8
BLACK
6
CONTINUOUS
10
4.21294
20
-4.1643
11
4.21658
21
-4.16853
0
LINE
8
BLACK
6
CONTINUOUS
10
4.21658
20
-4.16853
11
4.21889
21
-4.17361
0
LINE
8
BLACK
6
CONTINUOUS
10
4.21889
20
-4.17361
11
4.21969
21
-4.17913
0
LINE
8
BLACK
6
CONTINUOUS
10
4.21969
20
-4.17913
11
4.21969
21
-4.23819
0
LINE
8
BLACK
6
CONTINUOUS
10
4.21969
20
-4.23819
11
4.21968
21
-4.23843
0
LINE
8
BLACK
6
CONTINUOUS
10
4.21968
20
-4.23843
11
4.21882
21
-4.24394
0
LINE
8
BLACK
6
CONTINUOUS
10
4.21882
20
-4.24394
11
4.21645
21
-4.249
0
LINE
8
BLACK
6
CONTINUOUS
10
4.21645
20
-4.249
11
4.21276
21
-4.25318
0
LINE
8
BLACK
6
CONTINUOUS
10
4.21276
20
-4.25318
11
4.20804
21
-4.25616
0
LINE
8
BLACK
6
CONTINUOUS
10
4.20804
20
-4.25616
11
4.20267
21
-4.25769
0
LINE
8
BLACK
6
CONTINUOUS
10
4.20267
20
-4.25769
11
4.19709
21
-4.25766
0
LINE
8
BLACK
6
CONTINUOUS
10
4.19709
20
-4.25766
11
4.19174
21
-4.25606
0
LINE
8
BLACK
6
CONTINUOUS
10
4.19174
20
-4.25606
11
4.18706
21
-4.25302
0
LINE
8
BLACK
6
CONTINUOUS
10
4.18706
20
-4.25302
11
4.18342
21
-4.24879
0
LINE
8
BLACK
6
CONTINUOUS
10
4.18342
20
-4.24879
11
4.18111
21
-4.24371
0
LINE
8
BLACK
6
CONTINUOUS
10
4.18111
20
-4.24371
11
4.18031
21
-4.23819
0
LINE
8
BLACK
6
CONTINUOUS
10
4.18031
20
-4.23819
11
4.18031
21
-4.17913
0
LINE
8
BLACK
6
CONTINUOUS
10
4.18031
20
-4.17913
11
4.18032
21
-4.17889
0
LINE
8
BLACK
6
CONTINUOUS
10
4.18032
20
-4.17889
11
4.18118
21
-4.17338
0
LINE
8
BLACK
6
CONTINUOUS
10
4.18118
20
-4.17338
11
4.18355
21
-4.16833
0
LINE
8
BLACK
6
CONTINUOUS
10
4.18355
20
-4.16833
11
4.18724
21
-4.16414
0
LINE
8
BLACK
6
CONTINUOUS
10
4.18724
20
-4.16414
11
4.19196
21
-4.16116
0
LINE
8
BLACK
6
CONTINUOUS
10
4.19196
20
-4.16116
11
4.19733
21
-4.15963
0
LINE
8
BLACK
6
CONTINUOUS
10
4.19733
20
-4.15963
11
4.20291
21
-4.15967
0
LINE
8
BLACK
6
CONTINUOUS
10
4.54307
20
-4.15967
11
4.54841
21
-4.16126
0
LINE
8
BLACK
6
CONTINUOUS
10
4.54841
20
-4.16126
11
4.5531
21
-4.1643
0
LINE
8
BLACK
6
CONTINUOUS
10
4.5531
20
-4.1643
11
4.55674
21
-4.16853
0
LINE
8
BLACK
6
CONTINUOUS
10
4.55674
20
-4.16853
11
4.55905
21
-4.17361
0
LINE
8
BLACK
6
CONTINUOUS
10
4.55905
20
-4.17361
11
4.55984
21
-4.17913
0
LINE
8
BLACK
6
CONTINUOUS
10
4.55984
20
-4.17913
11
4.55984
21
-4.23819
0
LINE
8
BLACK
6
CONTINUOUS
10
4.55984
20
-4.23819
11
4.55984
21
-4.23843
0
LINE
8
BLACK
6
CONTINUOUS
10
4.55984
20
-4.23843
11
4.55898
21
-4.24394
0
LINE
8
BLACK
6
CONTINUOUS
10
4.55898
20
-4.24394
11
4.55661
21
-4.249
0
LINE
8
BLACK
6
CONTINUOUS
10
4.55661
20
-4.249
11
4.55292
21
-4.25318
0
LINE
8
BLACK
6
CONTINUOUS
10
4.55292
20
-4.25318
11
4.5482
21
-4.25616
0
LINE
8
BLACK
6
CONTINUOUS
10
4.5482
20
-4.25616
11
4.54283
21
-4.25769
0
LINE
8
BLACK
6
CONTINUOUS
10
4.54283
20
-4.25769
11
4.53725
21
-4.25766
0
LINE
8
BLACK
6
CONTINUOUS
10
4.53725
20
-4.25766
11
4.5319
21
-4.25606
0
LINE
8
BLACK
6
CONTINUOUS
10
4.5319
20
-4.25606
11
4.52722
21
-4.25302
0
LINE
8
BLACK
6
CONTINUOUS
10
4.52722
20
-4.25302
11
4.52357
21
-4.24879
0
LINE
8
BLACK
6
CONTINUOUS
10
4.52357
20
-4.24879
11
4.52126
21
-4.24371
0
LINE
8
BLACK
6
CONTINUOUS
10
4.52126
20
-4.24371
11
4.52047
21
-4.23819
0
LINE
8
BLACK
6
CONTINUOUS
10
4.52047
20
-4.23819
11
4.52047
21
-4.17913
0
LINE
8
BLACK
6
CONTINUOUS
10
4.52047
20
-4.17913
11
4.52047
21
-4.17889
0
LINE
8
BLACK
6
CONTINUOUS
10
4.52047
20
-4.17889
11
4.52133
21
-4.17338
0
LINE
8
BLACK
6
CONTINUOUS
10
4.52133
20
-4.17338
11
4.5237
21
-4.16833
0
LINE
8
BLACK
6
CONTINUOUS
10
4.5237
20
-4.16833
11
4.5274
21
-4.16414
0
LINE
8
BLACK
6
CONTINUOUS
10
4.5274
20
-4.16414
11
4.53212
21
-4.16116
0
LINE
8
BLACK
6
CONTINUOUS
10
4.53212
20
-4.16116
11
4.53749
21
-4.15963
0
LINE
8
BLACK
6
CONTINUOUS
10
4.53749
20
-4.15963
11
4.54307
21
-4.15967
0
LINE
8
BLACK
6
CONTINUOUS
10
4.44488
20
-4.24409
11
4.40551
21
-4.24409
0
LINE
8
BLACK
6
CONTINUOUS
10
4.40551
20
-4.24409
11
4.40551
21
-4.16535
0
LINE
8
BLACK
6
CONTINUOUS
10
4.40551
20
-4.16535
11
4.44488
21
-4.16535
0
LINE
8
BLACK
6
CONTINUOUS
10
4.44488
20
-4.16535
11
4.44488
21
-4.24409
0
LINE
8
BLACK
6
CONTINUOUS
10
4.33465
20
-4.24409
11
4.29528
21
-4.24409
0
LINE
8
BLACK
6
CONTINUOUS
10
4.29528
20
-4.24409
11
4.29528
21
-4.16535
0
LINE
8
BLACK
6
CONTINUOUS
10
4.29528
20
-4.16535
11
4.33465
21
-4.16535
0
LINE
8
BLACK
6
CONTINUOUS
10
4.33465
20
-4.16535
11
4.33465
21
-4.24409
  0
ENDSEC
  0
EOF
