  0
SECTION
  2
HEADER
  9
$ANGBASE
  50
0.0
  9
$ANGDIR
  70
1
  9
$MEASUREMENT
  70
0
  0
ENDSEC
  0
SECTION
  2
TABLES
  0
TABLE
  2
LTYPE
  70
4
  0
LTYPE
  5
40F
  2
CONTINUOUS
  70
0
  3
Solid line
  72
65
  73
0
  40
0.0
  0
LTYPE
  5
410
  2
DASHDOT
 70
0
  3
Dash Dot ____ _ ____ _
 72
65
 73
4
 40
2.0
 49
1.25
 49
-0.25
 49
0.25
 49
-0.25
  0
LTYPE
  5
411
  2
DASHED
 70
0
  3
Dashed __ __ __ __ __
 72
65
 73
2
 40
0.75
 49
0.5
 49
-0.25
  0
LTYPE
  5
43B
  2
DOTTED
 70
0
  3
Dotted .  .  .  .
 72
65
 73
2
 40
0.2
 49
0.0
 49
-0.2
  0
ENDTAB
  0
TABLE
  2
STYLE
  70
4
  0
STYLE
  2
KICAD
  70
0
  40
0
  41
1
  42
1
  50
0
  71
0
  3
isocp.shx
  0
STYLE
  2
KICADB
  70
0
  40
0
  41
1
  42
1
  50
0
  71
0
  3
isocp.shx
  0
STYLE
  2
KICADI
  70
0
  40
0
  41
1
  42
1
  50
15
  71
0
  3
isocp.shx
  0
STYLE
  2
KICADBI
  70
0
  40
0
  41
1
  42
1
  50
15
  71
0
  3
isocp.shx
  0
ENDTAB
  0
TABLE
  2
LAYER
  70
1
  0
LAYER
  2
BLACK
  70
0
  62
7
  6
CONTINUOUS
  0
ENDTAB
  0
ENDSEC
  0
SECTION
  2
ENTITIES
0
LINE
8
BLACK
6
CONTINUOUS
10
3.23031
20
-5.75984
11
3.16732
21
-5.75984
0
LINE
8
BLACK
6
CONTINUOUS
10
3.16732
20
-5.75984
11
3.16732
21
-5.72638
0
LINE
8
BLACK
6
CONTINUOUS
10
3.16732
20
-5.72638
11
3.23031
21
-5.72638
0
LINE
8
BLACK
6
CONTINUOUS
10
3.23031
20
-5.72638
11
3.23031
21
-5.75984
0
LINE
8
BLACK
6
CONTINUOUS
10
6.89173
20
-5.75984
11
6.82874
21
-5.75984
0
LINE
8
BLACK
6
CONTINUOUS
10
6.82874
20
-5.75984
11
6.82874
21
-5.72638
0
LINE
8
BLACK
6
CONTINUOUS
10
6.82874
20
-5.72638
11
6.89173
21
-5.72638
0
LINE
8
BLACK
6
CONTINUOUS
10
6.89173
20
-5.72638
11
6.89173
21
-5.75984
0
LINE
8
BLACK
6
CONTINUOUS
10
7.02953
20
-5.75984
11
6.96654
21
-5.75984
0
LINE
8
BLACK
6
CONTINUOUS
10
6.96654
20
-5.75984
11
6.96654
21
-5.72638
0
LINE
8
BLACK
6
CONTINUOUS
10
6.96654
20
-5.72638
11
7.02953
21
-5.72638
0
LINE
8
BLACK
6
CONTINUOUS
10
7.02953
20
-5.72638
11
7.02953
21
-5.75984
0
LINE
8
BLACK
6
CONTINUOUS
10
5.39567
20
-5.75984
11
5.33268
21
-5.75984
0
LINE
8
BLACK
6
CONTINUOUS
10
5.33268
20
-5.75984
11
5.33268
21
-5.72638
0
LINE
8
BLACK
6
CONTINUOUS
10
5.33268
20
-5.72638
11
5.39567
21
-5.72638
0
LINE
8
BLACK
6
CONTINUOUS
10
5.39567
20
-5.72638
11
5.39567
21
-5.75984
0
LINE
8
BLACK
6
CONTINUOUS
10
5.53346
20
-5.75984
11
5.47047
21
-5.75984
0
LINE
8
BLACK
6
CONTINUOUS
10
5.47047
20
-5.75984
11
5.47047
21
-5.72638
0
LINE
8
BLACK
6
CONTINUOUS
10
5.47047
20
-5.72638
11
5.53346
21
-5.72638
0
LINE
8
BLACK
6
CONTINUOUS
10
5.53346
20
-5.72638
11
5.53346
21
-5.75984
0
LINE
8
BLACK
6
CONTINUOUS
10
4.84449
20
-5.75984
11
4.7815
21
-5.75984
0
LINE
8
BLACK
6
CONTINUOUS
10
4.7815
20
-5.75984
11
4.7815
21
-5.72638
0
LINE
8
BLACK
6
CONTINUOUS
10
4.7815
20
-5.72638
11
4.84449
21
-5.72638
0
LINE
8
BLACK
6
CONTINUOUS
10
4.84449
20
-5.72638
11
4.84449
21
-5.75984
0
LINE
8
BLACK
6
CONTINUOUS
10
4.98228
20
-5.75984
11
4.91929
21
-5.75984
0
LINE
8
BLACK
6
CONTINUOUS
10
4.91929
20
-5.75984
11
4.91929
21
-5.72638
0
LINE
8
BLACK
6
CONTINUOUS
10
4.91929
20
-5.72638
11
4.98228
21
-5.72638
0
LINE
8
BLACK
6
CONTINUOUS
10
4.98228
20
-5.72638
11
4.98228
21
-5.75984
0
LINE
8
BLACK
6
CONTINUOUS
10
3.82087
20
-5.75984
11
3.75787
21
-5.75984
0
LINE
8
BLACK
6
CONTINUOUS
10
3.75787
20
-5.75984
11
3.75787
21
-5.72638
0
LINE
8
BLACK
6
CONTINUOUS
10
3.75787
20
-5.72638
11
3.82087
21
-5.72638
0
LINE
8
BLACK
6
CONTINUOUS
10
3.82087
20
-5.72638
11
3.82087
21
-5.75984
0
LINE
8
BLACK
6
CONTINUOUS
10
3.95866
20
-5.75984
11
3.89567
21
-5.75984
0
LINE
8
BLACK
6
CONTINUOUS
10
3.89567
20
-5.75984
11
3.89567
21
-5.72638
0
LINE
8
BLACK
6
CONTINUOUS
10
3.89567
20
-5.72638
11
3.95866
21
-5.72638
0
LINE
8
BLACK
6
CONTINUOUS
10
3.95866
20
-5.72638
11
3.95866
21
-5.75984
0
LINE
8
BLACK
6
CONTINUOUS
10
3.36811
20
-5.75984
11
3.30512
21
-5.75984
0
LINE
8
BLACK
6
CONTINUOUS
10
3.30512
20
-5.75984
11
3.30512
21
-5.72638
0
LINE
8
BLACK
6
CONTINUOUS
10
3.30512
20
-5.72638
11
3.36811
21
-5.72638
0
LINE
8
BLACK
6
CONTINUOUS
10
3.36811
20
-5.72638
11
3.36811
21
-5.75984
0
LINE
8
BLACK
6
CONTINUOUS
10
1.91142
20
-5.75984
11
1.84843
21
-5.75984
0
LINE
8
BLACK
6
CONTINUOUS
10
1.84843
20
-5.75984
11
1.84843
21
-5.72638
0
LINE
8
BLACK
6
CONTINUOUS
10
1.84843
20
-5.72638
11
1.91142
21
-5.72638
0
LINE
8
BLACK
6
CONTINUOUS
10
1.91142
20
-5.72638
11
1.91142
21
-5.75984
0
LINE
8
BLACK
6
CONTINUOUS
10
1.77362
20
-5.75984
11
1.71063
21
-5.75984
0
LINE
8
BLACK
6
CONTINUOUS
10
1.71063
20
-5.75984
11
1.71063
21
-5.72638
0
LINE
8
BLACK
6
CONTINUOUS
10
1.71063
20
-5.72638
11
1.77362
21
-5.72638
0
LINE
8
BLACK
6
CONTINUOUS
10
1.77362
20
-5.72638
11
1.77362
21
-5.75984
0
LINE
8
BLACK
6
CONTINUOUS
10
3.82087
20
-5.69094
11
3.75787
21
-5.69094
0
LINE
8
BLACK
6
CONTINUOUS
10
3.75787
20
-5.69094
11
3.75787
21
-5.65748
0
LINE
8
BLACK
6
CONTINUOUS
10
3.75787
20
-5.65748
11
3.82087
21
-5.65748
0
LINE
8
BLACK
6
CONTINUOUS
10
3.82087
20
-5.65748
11
3.82087
21
-5.69094
0
LINE
8
BLACK
6
CONTINUOUS
10
3.95866
20
-5.69094
11
3.89567
21
-5.69094
0
LINE
8
BLACK
6
CONTINUOUS
10
3.89567
20
-5.69094
11
3.89567
21
-5.65748
0
LINE
8
BLACK
6
CONTINUOUS
10
3.89567
20
-5.65748
11
3.95866
21
-5.65748
0
LINE
8
BLACK
6
CONTINUOUS
10
3.95866
20
-5.65748
11
3.95866
21
-5.69094
0
LINE
8
BLACK
6
CONTINUOUS
10
6.89173
20
-5.69094
11
6.82874
21
-5.69094
0
LINE
8
BLACK
6
CONTINUOUS
10
6.82874
20
-5.69094
11
6.82874
21
-5.65748
0
LINE
8
BLACK
6
CONTINUOUS
10
6.82874
20
-5.65748
11
6.89173
21
-5.65748
0
LINE
8
BLACK
6
CONTINUOUS
10
6.89173
20
-5.65748
11
6.89173
21
-5.69094
0
LINE
8
BLACK
6
CONTINUOUS
10
7.02953
20
-5.69094
11
6.96654
21
-5.69094
0
LINE
8
BLACK
6
CONTINUOUS
10
6.96654
20
-5.69094
11
6.96654
21
-5.65748
0
LINE
8
BLACK
6
CONTINUOUS
10
6.96654
20
-5.65748
11
7.02953
21
-5.65748
0
LINE
8
BLACK
6
CONTINUOUS
10
7.02953
20
-5.65748
11
7.02953
21
-5.69094
0
LINE
8
BLACK
6
CONTINUOUS
10
5.39567
20
-5.69094
11
5.33268
21
-5.69094
0
LINE
8
BLACK
6
CONTINUOUS
10
5.33268
20
-5.69094
11
5.33268
21
-5.65748
0
LINE
8
BLACK
6
CONTINUOUS
10
5.33268
20
-5.65748
11
5.39567
21
-5.65748
0
LINE
8
BLACK
6
CONTINUOUS
10
5.39567
20
-5.65748
11
5.39567
21
-5.69094
0
LINE
8
BLACK
6
CONTINUOUS
10
5.53346
20
-5.69094
11
5.47047
21
-5.69094
0
LINE
8
BLACK
6
CONTINUOUS
10
5.47047
20
-5.69094
11
5.47047
21
-5.65748
0
LINE
8
BLACK
6
CONTINUOUS
10
5.47047
20
-5.65748
11
5.53346
21
-5.65748
0
LINE
8
BLACK
6
CONTINUOUS
10
5.53346
20
-5.65748
11
5.53346
21
-5.69094
0
LINE
8
BLACK
6
CONTINUOUS
10
4.84449
20
-5.69094
11
4.7815
21
-5.69094
0
LINE
8
BLACK
6
CONTINUOUS
10
4.7815
20
-5.69094
11
4.7815
21
-5.65748
0
LINE
8
BLACK
6
CONTINUOUS
10
4.7815
20
-5.65748
11
4.84449
21
-5.65748
0
LINE
8
BLACK
6
CONTINUOUS
10
4.84449
20
-5.65748
11
4.84449
21
-5.69094
0
LINE
8
BLACK
6
CONTINUOUS
10
4.98228
20
-5.69094
11
4.91929
21
-5.69094
0
LINE
8
BLACK
6
CONTINUOUS
10
4.91929
20
-5.69094
11
4.91929
21
-5.65748
0
LINE
8
BLACK
6
CONTINUOUS
10
4.91929
20
-5.65748
11
4.98228
21
-5.65748
0
LINE
8
BLACK
6
CONTINUOUS
10
4.98228
20
-5.65748
11
4.98228
21
-5.69094
0
LINE
8
BLACK
6
CONTINUOUS
10
3.23031
20
-5.69094
11
3.16732
21
-5.69094
0
LINE
8
BLACK
6
CONTINUOUS
10
3.16732
20
-5.69094
11
3.16732
21
-5.65748
0
LINE
8
BLACK
6
CONTINUOUS
10
3.16732
20
-5.65748
11
3.23031
21
-5.65748
0
LINE
8
BLACK
6
CONTINUOUS
10
3.23031
20
-5.65748
11
3.23031
21
-5.69094
0
LINE
8
BLACK
6
CONTINUOUS
10
3.36811
20
-5.69094
11
3.30512
21
-5.69094
0
LINE
8
BLACK
6
CONTINUOUS
10
3.30512
20
-5.69094
11
3.30512
21
-5.65748
0
LINE
8
BLACK
6
CONTINUOUS
10
3.30512
20
-5.65748
11
3.36811
21
-5.65748
0
LINE
8
BLACK
6
CONTINUOUS
10
3.36811
20
-5.65748
11
3.36811
21
-5.69094
0
LINE
8
BLACK
6
CONTINUOUS
10
1.91142
20
-5.69094
11
1.84843
21
-5.69094
0
LINE
8
BLACK
6
CONTINUOUS
10
1.84843
20
-5.69094
11
1.84843
21
-5.65748
0
LINE
8
BLACK
6
CONTINUOUS
10
1.84843
20
-5.65748
11
1.91142
21
-5.65748
0
LINE
8
BLACK
6
CONTINUOUS
10
1.91142
20
-5.65748
11
1.91142
21
-5.69094
0
LINE
8
BLACK
6
CONTINUOUS
10
1.77362
20
-5.69094
11
1.71063
21
-5.69094
0
LINE
8
BLACK
6
CONTINUOUS
10
1.71063
20
-5.69094
11
1.71063
21
-5.65748
0
LINE
8
BLACK
6
CONTINUOUS
10
1.71063
20
-5.65748
11
1.77362
21
-5.65748
0
LINE
8
BLACK
6
CONTINUOUS
10
1.77362
20
-5.65748
11
1.77362
21
-5.69094
0
LINE
8
BLACK
6
CONTINUOUS
10
1.72776
20
-5.60827
11
1.64902
21
-5.60827
0
LINE
8
BLACK
6
CONTINUOUS
10
1.64902
20
-5.60827
11
1.64902
21
-5.56496
0
LINE
8
BLACK
6
CONTINUOUS
10
1.64902
20
-5.56496
11
1.72776
21
-5.56496
0
LINE
8
BLACK
6
CONTINUOUS
10
1.72776
20
-5.56496
11
1.72776
21
-5.60827
0
LINE
8
BLACK
6
CONTINUOUS
10
1.97579
20
-5.60827
11
1.89705
21
-5.60827
0
LINE
8
BLACK
6
CONTINUOUS
10
1.89705
20
-5.60827
11
1.89705
21
-5.56496
0
LINE
8
BLACK
6
CONTINUOUS
10
1.89705
20
-5.56496
11
1.97579
21
-5.56496
0
LINE
8
BLACK
6
CONTINUOUS
10
1.97579
20
-5.56496
11
1.97579
21
-5.60827
0
LINE
8
BLACK
6
CONTINUOUS
10
5.32224
20
-5.60827
11
5.2435
21
-5.60827
0
LINE
8
BLACK
6
CONTINUOUS
10
5.2435
20
-5.60827
11
5.2435
21
-5.56496
0
LINE
8
BLACK
6
CONTINUOUS
10
5.2435
20
-5.56496
11
5.32224
21
-5.56496
0
LINE
8
BLACK
6
CONTINUOUS
10
5.32224
20
-5.56496
11
5.32224
21
-5.60827
0
LINE
8
BLACK
6
CONTINUOUS
10
5.07421
20
-5.60827
11
4.99547
21
-5.60827
0
LINE
8
BLACK
6
CONTINUOUS
10
4.99547
20
-5.60827
11
4.99547
21
-5.56496
0
LINE
8
BLACK
6
CONTINUOUS
10
4.99547
20
-5.56496
11
5.07421
21
-5.56496
0
LINE
8
BLACK
6
CONTINUOUS
10
5.07421
20
-5.56496
11
5.07421
21
-5.60827
0
LINE
8
BLACK
6
CONTINUOUS
10
6.84587
20
-5.60827
11
6.76713
21
-5.60827
0
LINE
8
BLACK
6
CONTINUOUS
10
6.76713
20
-5.60827
11
6.76713
21
-5.56496
0
LINE
8
BLACK
6
CONTINUOUS
10
6.76713
20
-5.56496
11
6.84587
21
-5.56496
0
LINE
8
BLACK
6
CONTINUOUS
10
6.84587
20
-5.56496
11
6.84587
21
-5.60827
0
LINE
8
BLACK
6
CONTINUOUS
10
7.0939
20
-5.60827
11
7.01516
21
-5.60827
0
LINE
8
BLACK
6
CONTINUOUS
10
7.01516
20
-5.60827
11
7.01516
21
-5.56496
0
LINE
8
BLACK
6
CONTINUOUS
10
7.01516
20
-5.56496
11
7.0939
21
-5.56496
0
LINE
8
BLACK
6
CONTINUOUS
10
7.0939
20
-5.56496
11
7.0939
21
-5.60827
0
LINE
8
BLACK
6
CONTINUOUS
10
3.74744
20
-5.60827
11
3.6687
21
-5.60827
0
LINE
8
BLACK
6
CONTINUOUS
10
3.6687
20
-5.60827
11
3.6687
21
-5.56496
0
LINE
8
BLACK
6
CONTINUOUS
10
3.6687
20
-5.56496
11
3.74744
21
-5.56496
0
LINE
8
BLACK
6
CONTINUOUS
10
3.74744
20
-5.56496
11
3.74744
21
-5.60827
0
LINE
8
BLACK
6
CONTINUOUS
10
3.49941
20
-5.60827
11
3.42067
21
-5.60827
0
LINE
8
BLACK
6
CONTINUOUS
10
3.42067
20
-5.60827
11
3.42067
21
-5.56496
0
LINE
8
BLACK
6
CONTINUOUS
10
3.42067
20
-5.56496
11
3.49941
21
-5.56496
0
LINE
8
BLACK
6
CONTINUOUS
10
3.49941
20
-5.56496
11
3.49941
21
-5.60827
0
LINE
8
BLACK
6
CONTINUOUS
10
3.74744
20
-5.4622
11
3.6687
21
-5.4622
0
LINE
8
BLACK
6
CONTINUOUS
10
3.6687
20
-5.4622
11
3.6687
21
-5.4189
0
LINE
8
BLACK
6
CONTINUOUS
10
3.6687
20
-5.4189
11
3.74744
21
-5.4189
0
LINE
8
BLACK
6
CONTINUOUS
10
3.74744
20
-5.4189
11
3.74744
21
-5.4622
0
LINE
8
BLACK
6
CONTINUOUS
10
3.49941
20
-5.4622
11
3.42067
21
-5.4622
0
LINE
8
BLACK
6
CONTINUOUS
10
3.42067
20
-5.4622
11
3.42067
21
-5.4189
0
LINE
8
BLACK
6
CONTINUOUS
10
3.42067
20
-5.4189
11
3.49941
21
-5.4189
0
LINE
8
BLACK
6
CONTINUOUS
10
3.49941
20
-5.4189
11
3.49941
21
-5.4622
0
LINE
8
BLACK
6
CONTINUOUS
10
5.32224
20
-5.4622
11
5.2435
21
-5.4622
0
LINE
8
BLACK
6
CONTINUOUS
10
5.2435
20
-5.4622
11
5.2435
21
-5.4189
0
LINE
8
BLACK
6
CONTINUOUS
10
5.2435
20
-5.4189
11
5.32224
21
-5.4189
0
LINE
8
BLACK
6
CONTINUOUS
10
5.32224
20
-5.4189
11
5.32224
21
-5.4622
0
LINE
8
BLACK
6
CONTINUOUS
10
1.72776
20
-5.4622
11
1.64902
21
-5.4622
0
LINE
8
BLACK
6
CONTINUOUS
10
1.64902
20
-5.4622
11
1.64902
21
-5.4189
0
LINE
8
BLACK
6
CONTINUOUS
10
1.64902
20
-5.4189
11
1.72776
21
-5.4189
0
LINE
8
BLACK
6
CONTINUOUS
10
1.72776
20
-5.4189
11
1.72776
21
-5.4622
0
LINE
8
BLACK
6
CONTINUOUS
10
1.97579
20
-5.4622
11
1.89705
21
-5.4622
0
LINE
8
BLACK
6
CONTINUOUS
10
1.89705
20
-5.4622
11
1.89705
21
-5.4189
0
LINE
8
BLACK
6
CONTINUOUS
10
1.89705
20
-5.4189
11
1.97579
21
-5.4189
0
LINE
8
BLACK
6
CONTINUOUS
10
1.97579
20
-5.4189
11
1.97579
21
-5.4622
0
LINE
8
BLACK
6
CONTINUOUS
10
7.0939
20
-5.4622
11
7.01516
21
-5.4622
0
LINE
8
BLACK
6
CONTINUOUS
10
7.01516
20
-5.4622
11
7.01516
21
-5.4189
0
LINE
8
BLACK
6
CONTINUOUS
10
7.01516
20
-5.4189
11
7.0939
21
-5.4189
0
LINE
8
BLACK
6
CONTINUOUS
10
7.0939
20
-5.4189
11
7.0939
21
-5.4622
0
LINE
8
BLACK
6
CONTINUOUS
10
6.84587
20
-5.4622
11
6.76713
21
-5.4622
0
LINE
8
BLACK
6
CONTINUOUS
10
6.76713
20
-5.4622
11
6.76713
21
-5.4189
0
LINE
8
BLACK
6
CONTINUOUS
10
6.76713
20
-5.4189
11
6.84587
21
-5.4189
0
LINE
8
BLACK
6
CONTINUOUS
10
6.84587
20
-5.4189
11
6.84587
21
-5.4622
0
LINE
8
BLACK
6
CONTINUOUS
10
5.07421
20
-5.4622
11
4.99547
21
-5.4622
0
LINE
8
BLACK
6
CONTINUOUS
10
4.99547
20
-5.4622
11
4.99547
21
-5.4189
0
LINE
8
BLACK
6
CONTINUOUS
10
4.99547
20
-5.4189
11
5.07421
21
-5.4189
0
LINE
8
BLACK
6
CONTINUOUS
10
5.07421
20
-5.4189
11
5.07421
21
-5.4622
0
LINE
8
BLACK
6
CONTINUOUS
10
6.41322
20
-5.28815
11
6.41641
21
-5.29028
0
LINE
8
BLACK
6
CONTINUOUS
10
6.41641
20
-5.29028
11
6.41854
21
-5.29348
0
LINE
8
BLACK
6
CONTINUOUS
10
6.41854
20
-5.29348
11
6.41929
21
-5.29724
0
LINE
8
BLACK
6
CONTINUOUS
10
6.41929
20
-5.29724
11
6.41929
21
-5.33268
0
LINE
8
BLACK
6
CONTINUOUS
10
6.41929
20
-5.33268
11
6.41854
21
-5.33644
0
LINE
8
BLACK
6
CONTINUOUS
10
6.41854
20
-5.33644
11
6.41641
21
-5.33964
0
LINE
8
BLACK
6
CONTINUOUS
10
6.41641
20
-5.33964
11
6.41322
21
-5.34177
0
LINE
8
BLACK
6
CONTINUOUS
10
6.41322
20
-5.34177
11
6.40945
21
-5.34252
0
LINE
8
BLACK
6
CONTINUOUS
10
6.40945
20
-5.34252
11
6.38386
21
-5.34252
0
LINE
8
BLACK
6
CONTINUOUS
10
6.38386
20
-5.34252
11
6.38009
21
-5.34177
0
LINE
8
BLACK
6
CONTINUOUS
10
6.38009
20
-5.34177
11
6.3769
21
-5.33964
0
LINE
8
BLACK
6
CONTINUOUS
10
6.3769
20
-5.33964
11
6.37476
21
-5.33644
0
LINE
8
BLACK
6
CONTINUOUS
10
6.37476
20
-5.33644
11
6.37402
21
-5.33268
0
LINE
8
BLACK
6
CONTINUOUS
10
6.37402
20
-5.33268
11
6.37402
21
-5.29724
0
LINE
8
BLACK
6
CONTINUOUS
10
6.37402
20
-5.29724
11
6.37476
21
-5.29348
0
LINE
8
BLACK
6
CONTINUOUS
10
6.37476
20
-5.29348
11
6.3769
21
-5.29028
0
LINE
8
BLACK
6
CONTINUOUS
10
6.3769
20
-5.29028
11
6.38009
21
-5.28815
0
LINE
8
BLACK
6
CONTINUOUS
10
6.38009
20
-5.28815
11
6.38386
21
-5.2874
0
LINE
8
BLACK
6
CONTINUOUS
10
6.38386
20
-5.2874
11
6.40945
21
-5.2874
0
LINE
8
BLACK
6
CONTINUOUS
10
6.40945
20
-5.2874
11
6.41322
21
-5.28815
0
LINE
8
BLACK
6
CONTINUOUS
10
6.49392
20
-5.28815
11
6.49712
21
-5.29028
0
LINE
8
BLACK
6
CONTINUOUS
10
6.49712
20
-5.29028
11
6.49925
21
-5.29348
0
LINE
8
BLACK
6
CONTINUOUS
10
6.49925
20
-5.29348
11
6.5
21
-5.29724
0
LINE
8
BLACK
6
CONTINUOUS
10
6.5
20
-5.29724
11
6.5
21
-5.33268
0
LINE
8
BLACK
6
CONTINUOUS
10
6.5
20
-5.33268
11
6.49925
21
-5.33644
0
LINE
8
BLACK
6
CONTINUOUS
10
6.49925
20
-5.33644
11
6.49712
21
-5.33964
0
LINE
8
BLACK
6
CONTINUOUS
10
6.49712
20
-5.33964
11
6.49392
21
-5.34177
0
LINE
8
BLACK
6
CONTINUOUS
10
6.49392
20
-5.34177
11
6.49016
21
-5.34252
0
LINE
8
BLACK
6
CONTINUOUS
10
6.49016
20
-5.34252
11
6.46457
21
-5.34252
0
LINE
8
BLACK
6
CONTINUOUS
10
6.46457
20
-5.34252
11
6.4608
21
-5.34177
0
LINE
8
BLACK
6
CONTINUOUS
10
6.4608
20
-5.34177
11
6.45761
21
-5.33964
0
LINE
8
BLACK
6
CONTINUOUS
10
6.45761
20
-5.33964
11
6.45547
21
-5.33644
0
LINE
8
BLACK
6
CONTINUOUS
10
6.45547
20
-5.33644
11
6.45472
21
-5.33268
0
LINE
8
BLACK
6
CONTINUOUS
10
6.45472
20
-5.33268
11
6.45472
21
-5.29724
0
LINE
8
BLACK
6
CONTINUOUS
10
6.45472
20
-5.29724
11
6.45547
21
-5.29348
0
LINE
8
BLACK
6
CONTINUOUS
10
6.45547
20
-5.29348
11
6.45761
21
-5.29028
0
LINE
8
BLACK
6
CONTINUOUS
10
6.45761
20
-5.29028
11
6.4608
21
-5.28815
0
LINE
8
BLACK
6
CONTINUOUS
10
6.4608
20
-5.28815
11
6.46457
21
-5.2874
0
LINE
8
BLACK
6
CONTINUOUS
10
6.46457
20
-5.2874
11
6.49016
21
-5.2874
0
LINE
8
BLACK
6
CONTINUOUS
10
6.49016
20
-5.2874
11
6.49392
21
-5.28815
0
LINE
8
BLACK
6
CONTINUOUS
10
6.24587
20
-5.25157
11
6.21043
21
-5.25157
0
LINE
8
BLACK
6
CONTINUOUS
10
6.21043
20
-5.25157
11
6.21043
21
-5.17283
0
LINE
8
BLACK
6
CONTINUOUS
10
6.21043
20
-5.17283
11
6.24587
21
-5.17283
0
LINE
8
BLACK
6
CONTINUOUS
10
6.24587
20
-5.17283
11
6.24587
21
-5.25157
0
LINE
8
BLACK
6
CONTINUOUS
10
6.19587
20
-5.25157
11
6.16043
21
-5.25157
0
LINE
8
BLACK
6
CONTINUOUS
10
6.16043
20
-5.25157
11
6.16043
21
-5.17283
0
LINE
8
BLACK
6
CONTINUOUS
10
6.16043
20
-5.17283
11
6.19587
21
-5.17283
0
LINE
8
BLACK
6
CONTINUOUS
10
6.19587
20
-5.17283
11
6.19587
21
-5.25157
0
LINE
8
BLACK
6
CONTINUOUS
10
5.79587
20
-5.25157
11
5.76043
21
-5.25157
0
LINE
8
BLACK
6
CONTINUOUS
10
5.76043
20
-5.25157
11
5.76043
21
-5.17283
0
LINE
8
BLACK
6
CONTINUOUS
10
5.76043
20
-5.17283
11
5.79587
21
-5.17283
0
LINE
8
BLACK
6
CONTINUOUS
10
5.79587
20
-5.17283
11
5.79587
21
-5.25157
0
LINE
8
BLACK
6
CONTINUOUS
10
5.84587
20
-5.25157
11
5.81043
21
-5.25157
0
LINE
8
BLACK
6
CONTINUOUS
10
5.81043
20
-5.25157
11
5.81043
21
-5.17283
0
LINE
8
BLACK
6
CONTINUOUS
10
5.81043
20
-5.17283
11
5.84587
21
-5.17283
0
LINE
8
BLACK
6
CONTINUOUS
10
5.84587
20
-5.17283
11
5.84587
21
-5.25157
0
LINE
8
BLACK
6
CONTINUOUS
10
5.89587
20
-5.25157
11
5.86043
21
-5.25157
0
LINE
8
BLACK
6
CONTINUOUS
10
5.86043
20
-5.25157
11
5.86043
21
-5.17283
0
LINE
8
BLACK
6
CONTINUOUS
10
5.86043
20
-5.17283
11
5.89587
21
-5.17283
0
LINE
8
BLACK
6
CONTINUOUS
10
5.89587
20
-5.17283
11
5.89587
21
-5.25157
0
LINE
8
BLACK
6
CONTINUOUS
10
5.94587
20
-5.25157
11
5.91043
21
-5.25157
0
LINE
8
BLACK
6
CONTINUOUS
10
5.91043
20
-5.25157
11
5.91043
21
-5.17283
0
LINE
8
BLACK
6
CONTINUOUS
10
5.91043
20
-5.17283
11
5.94587
21
-5.17283
0
LINE
8
BLACK
6
CONTINUOUS
10
5.94587
20
-5.17283
11
5.94587
21
-5.25157
0
LINE
8
BLACK
6
CONTINUOUS
10
5.99587
20
-5.25157
11
5.96043
21
-5.25157
0
LINE
8
BLACK
6
CONTINUOUS
10
5.96043
20
-5.25157
11
5.96043
21
-5.17283
0
LINE
8
BLACK
6
CONTINUOUS
10
5.96043
20
-5.17283
11
5.99587
21
-5.17283
0
LINE
8
BLACK
6
CONTINUOUS
10
5.99587
20
-5.17283
11
5.99587
21
-5.25157
0
LINE
8
BLACK
6
CONTINUOUS
10
6.04587
20
-5.25157
11
6.01043
21
-5.25157
0
LINE
8
BLACK
6
CONTINUOUS
10
6.01043
20
-5.25157
11
6.01043
21
-5.17283
0
LINE
8
BLACK
6
CONTINUOUS
10
6.01043
20
-5.17283
11
6.04587
21
-5.17283
0
LINE
8
BLACK
6
CONTINUOUS
10
6.04587
20
-5.17283
11
6.04587
21
-5.25157
0
LINE
8
BLACK
6
CONTINUOUS
10
6.09587
20
-5.25157
11
6.06043
21
-5.25157
0
LINE
8
BLACK
6
CONTINUOUS
10
6.06043
20
-5.25157
11
6.06043
21
-5.17283
0
LINE
8
BLACK
6
CONTINUOUS
10
6.06043
20
-5.17283
11
6.09587
21
-5.17283
0
LINE
8
BLACK
6
CONTINUOUS
10
6.09587
20
-5.17283
11
6.09587
21
-5.25157
0
LINE
8
BLACK
6
CONTINUOUS
10
6.14587
20
-5.25157
11
6.11043
21
-5.25157
0
LINE
8
BLACK
6
CONTINUOUS
10
6.11043
20
-5.25157
11
6.11043
21
-5.17283
0
LINE
8
BLACK
6
CONTINUOUS
10
6.11043
20
-5.17283
11
6.14587
21
-5.17283
0
LINE
8
BLACK
6
CONTINUOUS
10
6.14587
20
-5.17283
11
6.14587
21
-5.25157
0
LINE
8
BLACK
6
CONTINUOUS
10
6.34646
20
-5.25138
11
6.31102
21
-5.25138
0
LINE
8
BLACK
6
CONTINUOUS
10
6.31102
20
-5.25138
11
6.31102
21
-5.17264
0
LINE
8
BLACK
6
CONTINUOUS
10
6.31102
20
-5.17264
11
6.34646
21
-5.17264
0
LINE
8
BLACK
6
CONTINUOUS
10
6.34646
20
-5.17264
11
6.34646
21
-5.25138
0
LINE
8
BLACK
6
CONTINUOUS
10
6.29724
20
-5.25138
11
6.26181
21
-5.25138
0
LINE
8
BLACK
6
CONTINUOUS
10
6.26181
20
-5.25138
11
6.26181
21
-5.17264
0
LINE
8
BLACK
6
CONTINUOUS
10
6.26181
20
-5.17264
11
6.29724
21
-5.17264
0
LINE
8
BLACK
6
CONTINUOUS
10
6.29724
20
-5.17264
11
6.29724
21
-5.25138
0
LINE
8
BLACK
6
CONTINUOUS
10
6.90534
20
-5.18973
11
6.90853
21
-5.19186
0
LINE
8
BLACK
6
CONTINUOUS
10
6.90853
20
-5.19186
11
6.91067
21
-5.19505
0
LINE
8
BLACK
6
CONTINUOUS
10
6.91067
20
-5.19505
11
6.91142
21
-5.19882
0
LINE
8
BLACK
6
CONTINUOUS
10
6.91142
20
-5.19882
11
6.91142
21
-5.23425
0
LINE
8
BLACK
6
CONTINUOUS
10
6.91142
20
-5.23425
11
6.91067
21
-5.23802
0
LINE
8
BLACK
6
CONTINUOUS
10
6.91067
20
-5.23802
11
6.90853
21
-5.24121
0
LINE
8
BLACK
6
CONTINUOUS
10
6.90853
20
-5.24121
11
6.90534
21
-5.24335
0
LINE
8
BLACK
6
CONTINUOUS
10
6.90534
20
-5.24335
11
6.90157
21
-5.24409
0
LINE
8
BLACK
6
CONTINUOUS
10
6.90157
20
-5.24409
11
6.87598
21
-5.24409
0
LINE
8
BLACK
6
CONTINUOUS
10
6.87598
20
-5.24409
11
6.87222
21
-5.24335
0
LINE
8
BLACK
6
CONTINUOUS
10
6.87222
20
-5.24335
11
6.86902
21
-5.24121
0
LINE
8
BLACK
6
CONTINUOUS
10
6.86902
20
-5.24121
11
6.86689
21
-5.23802
0
LINE
8
BLACK
6
CONTINUOUS
10
6.86689
20
-5.23802
11
6.86614
21
-5.23425
0
LINE
8
BLACK
6
CONTINUOUS
10
6.86614
20
-5.23425
11
6.86614
21
-5.19882
0
LINE
8
BLACK
6
CONTINUOUS
10
6.86614
20
-5.19882
11
6.86689
21
-5.19505
0
LINE
8
BLACK
6
CONTINUOUS
10
6.86689
20
-5.19505
11
6.86902
21
-5.19186
0
LINE
8
BLACK
6
CONTINUOUS
10
6.86902
20
-5.19186
11
6.87222
21
-5.18973
0
LINE
8
BLACK
6
CONTINUOUS
10
6.87222
20
-5.18973
11
6.87598
21
-5.18898
0
LINE
8
BLACK
6
CONTINUOUS
10
6.87598
20
-5.18898
11
6.90157
21
-5.18898
0
LINE
8
BLACK
6
CONTINUOUS
10
6.90157
20
-5.18898
11
6.90534
21
-5.18973
0
LINE
8
BLACK
6
CONTINUOUS
10
6.98605
20
-5.18973
11
6.98924
21
-5.19186
0
LINE
8
BLACK
6
CONTINUOUS
10
6.98924
20
-5.19186
11
6.99138
21
-5.19505
0
LINE
8
BLACK
6
CONTINUOUS
10
6.99138
20
-5.19505
11
6.99213
21
-5.19882
0
LINE
8
BLACK
6
CONTINUOUS
10
6.99213
20
-5.19882
11
6.99213
21
-5.23425
0
LINE
8
BLACK
6
CONTINUOUS
10
6.99213
20
-5.23425
11
6.99138
21
-5.23802
0
LINE
8
BLACK
6
CONTINUOUS
10
6.99138
20
-5.23802
11
6.98924
21
-5.24121
0
LINE
8
BLACK
6
CONTINUOUS
10
6.98924
20
-5.24121
11
6.98605
21
-5.24335
0
LINE
8
BLACK
6
CONTINUOUS
10
6.98605
20
-5.24335
11
6.98228
21
-5.24409
0
LINE
8
BLACK
6
CONTINUOUS
10
6.98228
20
-5.24409
11
6.95669
21
-5.24409
0
LINE
8
BLACK
6
CONTINUOUS
10
6.95669
20
-5.24409
11
6.95293
21
-5.24335
0
LINE
8
BLACK
6
CONTINUOUS
10
6.95293
20
-5.24335
11
6.94973
21
-5.24121
0
LINE
8
BLACK
6
CONTINUOUS
10
6.94973
20
-5.24121
11
6.9476
21
-5.23802
0
LINE
8
BLACK
6
CONTINUOUS
10
6.9476
20
-5.23802
11
6.94685
21
-5.23425
0
LINE
8
BLACK
6
CONTINUOUS
10
6.94685
20
-5.23425
11
6.94685
21
-5.19882
0
LINE
8
BLACK
6
CONTINUOUS
10
6.94685
20
-5.19882
11
6.9476
21
-5.19505
0
LINE
8
BLACK
6
CONTINUOUS
10
6.9476
20
-5.19505
11
6.94973
21
-5.19186
0
LINE
8
BLACK
6
CONTINUOUS
10
6.94973
20
-5.19186
11
6.95293
21
-5.18973
0
LINE
8
BLACK
6
CONTINUOUS
10
6.95293
20
-5.18973
11
6.95669
21
-5.18898
0
LINE
8
BLACK
6
CONTINUOUS
10
6.95669
20
-5.18898
11
6.98228
21
-5.18898
0
LINE
8
BLACK
6
CONTINUOUS
10
6.98228
20
-5.18898
11
6.98605
21
-5.18973
0
LINE
8
BLACK
6
CONTINUOUS
10
6.43701
20
-5.17087
11
6.35827
21
-5.17087
0
LINE
8
BLACK
6
CONTINUOUS
10
6.35827
20
-5.17087
11
6.35827
21
-5.13543
0
LINE
8
BLACK
6
CONTINUOUS
10
6.35827
20
-5.13543
11
6.43701
21
-5.13543
0
LINE
8
BLACK
6
CONTINUOUS
10
6.43701
20
-5.13543
11
6.43701
21
-5.17087
0
LINE
8
BLACK
6
CONTINUOUS
10
5.74803
20
-5.17087
11
5.66929
21
-5.17087
0
LINE
8
BLACK
6
CONTINUOUS
10
5.66929
20
-5.17087
11
5.66929
21
-5.13543
0
LINE
8
BLACK
6
CONTINUOUS
10
5.66929
20
-5.13543
11
5.74803
21
-5.13543
0
LINE
8
BLACK
6
CONTINUOUS
10
5.74803
20
-5.13543
11
5.74803
21
-5.17087
0
LINE
8
BLACK
6
CONTINUOUS
10
6.97848
20
-5.10012
11
6.98151
21
-5.10215
0
LINE
8
BLACK
6
CONTINUOUS
10
6.98151
20
-5.10215
11
6.98354
21
-5.10518
0
LINE
8
BLACK
6
CONTINUOUS
10
6.98354
20
-5.10518
11
6.98425
21
-5.10876
0
LINE
8
BLACK
6
CONTINUOUS
10
6.98425
20
-5.10876
11
6.98425
21
-5.12746
0
LINE
8
BLACK
6
CONTINUOUS
10
6.98425
20
-5.12746
11
6.98354
21
-5.13104
0
LINE
8
BLACK
6
CONTINUOUS
10
6.98354
20
-5.13104
11
6.98151
21
-5.13407
0
LINE
8
BLACK
6
CONTINUOUS
10
6.98151
20
-5.13407
11
6.97848
21
-5.1361
0
LINE
8
BLACK
6
CONTINUOUS
10
6.97848
20
-5.1361
11
6.9749
21
-5.13681
0
LINE
8
BLACK
6
CONTINUOUS
10
6.9749
20
-5.13681
11
6.95226
21
-5.13681
0
LINE
8
BLACK
6
CONTINUOUS
10
6.95226
20
-5.13681
11
6.94869
21
-5.1361
0
LINE
8
BLACK
6
CONTINUOUS
10
6.94869
20
-5.1361
11
6.94565
21
-5.13407
0
LINE
8
BLACK
6
CONTINUOUS
10
6.94565
20
-5.13407
11
6.94363
21
-5.13104
0
LINE
8
BLACK
6
CONTINUOUS
10
6.94363
20
-5.13104
11
6.94291
21
-5.12746
0
LINE
8
BLACK
6
CONTINUOUS
10
6.94291
20
-5.12746
11
6.94291
21
-5.10876
0
LINE
8
BLACK
6
CONTINUOUS
10
6.94291
20
-5.10876
11
6.94363
21
-5.10518
0
LINE
8
BLACK
6
CONTINUOUS
10
6.94363
20
-5.10518
11
6.94565
21
-5.10215
0
LINE
8
BLACK
6
CONTINUOUS
10
6.94565
20
-5.10215
11
6.94869
21
-5.10012
0
LINE
8
BLACK
6
CONTINUOUS
10
6.94869
20
-5.10012
11
6.95226
21
-5.09941
0
LINE
8
BLACK
6
CONTINUOUS
10
6.95226
20
-5.09941
11
6.9749
21
-5.09941
0
LINE
8
BLACK
6
CONTINUOUS
10
6.9749
20
-5.09941
11
6.97848
21
-5.10012
0
LINE
8
BLACK
6
CONTINUOUS
10
6.90958
20
-5.10012
11
6.91262
21
-5.10215
0
LINE
8
BLACK
6
CONTINUOUS
10
6.91262
20
-5.10215
11
6.91464
21
-5.10518
0
LINE
8
BLACK
6
CONTINUOUS
10
6.91464
20
-5.10518
11
6.91535
21
-5.10876
0
LINE
8
BLACK
6
CONTINUOUS
10
6.91535
20
-5.10876
11
6.91535
21
-5.12746
0
LINE
8
BLACK
6
CONTINUOUS
10
6.91535
20
-5.12746
11
6.91464
21
-5.13104
0
LINE
8
BLACK
6
CONTINUOUS
10
6.91464
20
-5.13104
11
6.91262
21
-5.13407
0
LINE
8
BLACK
6
CONTINUOUS
10
6.91262
20
-5.13407
11
6.90958
21
-5.1361
0
LINE
8
BLACK
6
CONTINUOUS
10
6.90958
20
-5.1361
11
6.906
21
-5.13681
0
LINE
8
BLACK
6
CONTINUOUS
10
6.906
20
-5.13681
11
6.88337
21
-5.13681
0
LINE
8
BLACK
6
CONTINUOUS
10
6.88337
20
-5.13681
11
6.87979
21
-5.1361
0
LINE
8
BLACK
6
CONTINUOUS
10
6.87979
20
-5.1361
11
6.87675
21
-5.13407
0
LINE
8
BLACK
6
CONTINUOUS
10
6.87675
20
-5.13407
11
6.87473
21
-5.13104
0
LINE
8
BLACK
6
CONTINUOUS
10
6.87473
20
-5.13104
11
6.87402
21
-5.12746
0
LINE
8
BLACK
6
CONTINUOUS
10
6.87402
20
-5.12746
11
6.87402
21
-5.10876
0
LINE
8
BLACK
6
CONTINUOUS
10
6.87402
20
-5.10876
11
6.87473
21
-5.10518
0
LINE
8
BLACK
6
CONTINUOUS
10
6.87473
20
-5.10518
11
6.87675
21
-5.10215
0
LINE
8
BLACK
6
CONTINUOUS
10
6.87675
20
-5.10215
11
6.87979
21
-5.10012
0
LINE
8
BLACK
6
CONTINUOUS
10
6.87979
20
-5.10012
11
6.88337
21
-5.09941
0
LINE
8
BLACK
6
CONTINUOUS
10
6.88337
20
-5.09941
11
6.906
21
-5.09941
0
LINE
8
BLACK
6
CONTINUOUS
10
6.906
20
-5.09941
11
6.90958
21
-5.10012
0
LINE
8
BLACK
6
CONTINUOUS
10
5.74803
20
-5.12087
11
5.66929
21
-5.12087
0
LINE
8
BLACK
6
CONTINUOUS
10
5.66929
20
-5.12087
11
5.66929
21
-5.08543
0
LINE
8
BLACK
6
CONTINUOUS
10
5.66929
20
-5.08543
11
5.74803
21
-5.08543
0
LINE
8
BLACK
6
CONTINUOUS
10
5.74803
20
-5.08543
11
5.74803
21
-5.12087
0
LINE
8
BLACK
6
CONTINUOUS
10
6.43701
20
-5.12087
11
6.35827
21
-5.12087
0
LINE
8
BLACK
6
CONTINUOUS
10
6.35827
20
-5.12087
11
6.35827
21
-5.08543
0
LINE
8
BLACK
6
CONTINUOUS
10
6.35827
20
-5.08543
11
6.43701
21
-5.08543
0
LINE
8
BLACK
6
CONTINUOUS
10
6.43701
20
-5.08543
11
6.43701
21
-5.12087
0
LINE
8
BLACK
6
CONTINUOUS
10
5.74803
20
-5.07087
11
5.66929
21
-5.07087
0
LINE
8
BLACK
6
CONTINUOUS
10
5.66929
20
-5.07087
11
5.66929
21
-5.03543
0
LINE
8
BLACK
6
CONTINUOUS
10
5.66929
20
-5.03543
11
5.74803
21
-5.03543
0
LINE
8
BLACK
6
CONTINUOUS
10
5.74803
20
-5.03543
11
5.74803
21
-5.07087
0
LINE
8
BLACK
6
CONTINUOUS
10
6.43701
20
-5.07087
11
6.35827
21
-5.07087
0
LINE
8
BLACK
6
CONTINUOUS
10
6.35827
20
-5.07087
11
6.35827
21
-5.03543
0
LINE
8
BLACK
6
CONTINUOUS
10
6.35827
20
-5.03543
11
6.43701
21
-5.03543
0
LINE
8
BLACK
6
CONTINUOUS
10
6.43701
20
-5.03543
11
6.43701
21
-5.07087
0
LINE
8
BLACK
6
CONTINUOUS
10
5.74803
20
-5.02087
11
5.66929
21
-5.02087
0
LINE
8
BLACK
6
CONTINUOUS
10
5.66929
20
-5.02087
11
5.66929
21
-4.98543
0
LINE
8
BLACK
6
CONTINUOUS
10
5.66929
20
-4.98543
11
5.74803
21
-4.98543
0
LINE
8
BLACK
6
CONTINUOUS
10
5.74803
20
-4.98543
11
5.74803
21
-5.02087
0
LINE
8
BLACK
6
CONTINUOUS
10
6.43701
20
-5.02087
11
6.35827
21
-5.02087
0
LINE
8
BLACK
6
CONTINUOUS
10
6.35827
20
-5.02087
11
6.35827
21
-4.98543
0
LINE
8
BLACK
6
CONTINUOUS
10
6.35827
20
-4.98543
11
6.43701
21
-4.98543
0
LINE
8
BLACK
6
CONTINUOUS
10
6.43701
20
-4.98543
11
6.43701
21
-5.02087
0
LINE
8
BLACK
6
CONTINUOUS
10
6.43701
20
-4.97087
11
6.35827
21
-4.97087
0
LINE
8
BLACK
6
CONTINUOUS
10
6.35827
20
-4.97087
11
6.35827
21
-4.93543
0
LINE
8
BLACK
6
CONTINUOUS
10
6.35827
20
-4.93543
11
6.43701
21
-4.93543
0
LINE
8
BLACK
6
CONTINUOUS
10
6.43701
20
-4.93543
11
6.43701
21
-4.97087
0
LINE
8
BLACK
6
CONTINUOUS
10
5.74803
20
-4.97087
11
5.66929
21
-4.97087
0
LINE
8
BLACK
6
CONTINUOUS
10
5.66929
20
-4.97087
11
5.66929
21
-4.93543
0
LINE
8
BLACK
6
CONTINUOUS
10
5.66929
20
-4.93543
11
5.74803
21
-4.93543
0
LINE
8
BLACK
6
CONTINUOUS
10
5.74803
20
-4.93543
11
5.74803
21
-4.97087
0
LINE
8
BLACK
6
CONTINUOUS
10
5.74803
20
-4.92087
11
5.66929
21
-4.92087
0
LINE
8
BLACK
6
CONTINUOUS
10
5.66929
20
-4.92087
11
5.66929
21
-4.88543
0
LINE
8
BLACK
6
CONTINUOUS
10
5.66929
20
-4.88543
11
5.74803
21
-4.88543
0
LINE
8
BLACK
6
CONTINUOUS
10
5.74803
20
-4.88543
11
5.74803
21
-4.92087
0
LINE
8
BLACK
6
CONTINUOUS
10
6.43701
20
-4.92087
11
6.35827
21
-4.92087
0
LINE
8
BLACK
6
CONTINUOUS
10
6.35827
20
-4.92087
11
6.35827
21
-4.88543
0
LINE
8
BLACK
6
CONTINUOUS
10
6.35827
20
-4.88543
11
6.43701
21
-4.88543
0
LINE
8
BLACK
6
CONTINUOUS
10
6.43701
20
-4.88543
11
6.43701
21
-4.92087
0
LINE
8
BLACK
6
CONTINUOUS
10
6.10236
20
-4.89685
11
5.90551
21
-4.89685
0
LINE
8
BLACK
6
CONTINUOUS
10
5.90551
20
-4.89685
11
5.90551
21
-4.7
0
LINE
8
BLACK
6
CONTINUOUS
10
5.90551
20
-4.7
11
6.10236
21
-4.7
0
LINE
8
BLACK
6
CONTINUOUS
10
6.10236
20
-4.7
11
6.10236
21
-4.89685
0
LINE
8
BLACK
6
CONTINUOUS
10
6.43701
20
-4.87087
11
6.35827
21
-4.87087
0
LINE
8
BLACK
6
CONTINUOUS
10
6.35827
20
-4.87087
11
6.35827
21
-4.83543
0
LINE
8
BLACK
6
CONTINUOUS
10
6.35827
20
-4.83543
11
6.43701
21
-4.83543
0
LINE
8
BLACK
6
CONTINUOUS
10
6.43701
20
-4.83543
11
6.43701
21
-4.87087
0
LINE
8
BLACK
6
CONTINUOUS
10
5.74803
20
-4.87087
11
5.66929
21
-4.87087
0
LINE
8
BLACK
6
CONTINUOUS
10
5.66929
20
-4.87087
11
5.66929
21
-4.83543
0
LINE
8
BLACK
6
CONTINUOUS
10
5.66929
20
-4.83543
11
5.74803
21
-4.83543
0
LINE
8
BLACK
6
CONTINUOUS
10
5.74803
20
-4.83543
11
5.74803
21
-4.87087
0
LINE
8
BLACK
6
CONTINUOUS
10
6.43701
20
-4.82087
11
6.35827
21
-4.82087
0
LINE
8
BLACK
6
CONTINUOUS
10
6.35827
20
-4.82087
11
6.35827
21
-4.78543
0
LINE
8
BLACK
6
CONTINUOUS
10
6.35827
20
-4.78543
11
6.43701
21
-4.78543
0
LINE
8
BLACK
6
CONTINUOUS
10
6.43701
20
-4.78543
11
6.43701
21
-4.82087
0
LINE
8
BLACK
6
CONTINUOUS
10
5.74803
20
-4.82087
11
5.66929
21
-4.82087
0
LINE
8
BLACK
6
CONTINUOUS
10
5.66929
20
-4.82087
11
5.66929
21
-4.78543
0
LINE
8
BLACK
6
CONTINUOUS
10
5.66929
20
-4.78543
11
5.74803
21
-4.78543
0
LINE
8
BLACK
6
CONTINUOUS
10
5.74803
20
-4.78543
11
5.74803
21
-4.82087
0
LINE
8
BLACK
6
CONTINUOUS
10
3.68278
20
-4.7463
11
3.68598
21
-4.74843
0
LINE
8
BLACK
6
CONTINUOUS
10
3.68598
20
-4.74843
11
3.68811
21
-4.75163
0
LINE
8
BLACK
6
CONTINUOUS
10
3.68811
20
-4.75163
11
3.68886
21
-4.75539
0
LINE
8
BLACK
6
CONTINUOUS
10
3.68886
20
-4.75539
11
3.68886
21
-4.80461
0
LINE
8
BLACK
6
CONTINUOUS
10
3.68886
20
-4.80461
11
3.68811
21
-4.80837
0
LINE
8
BLACK
6
CONTINUOUS
10
3.68811
20
-4.80837
11
3.68598
21
-4.81157
0
LINE
8
BLACK
6
CONTINUOUS
10
3.68598
20
-4.81157
11
3.68278
21
-4.8137
0
LINE
8
BLACK
6
CONTINUOUS
10
3.68278
20
-4.8137
11
3.67902
21
-4.81445
0
LINE
8
BLACK
6
CONTINUOUS
10
3.67902
20
-4.81445
11
3.6426
21
-4.81445
0
LINE
8
BLACK
6
CONTINUOUS
10
3.6426
20
-4.81445
11
3.63883
21
-4.8137
0
LINE
8
BLACK
6
CONTINUOUS
10
3.63883
20
-4.8137
11
3.63564
21
-4.81157
0
LINE
8
BLACK
6
CONTINUOUS
10
3.63564
20
-4.81157
11
3.63351
21
-4.80837
0
LINE
8
BLACK
6
CONTINUOUS
10
3.63351
20
-4.80837
11
3.63276
21
-4.80461
0
LINE
8
BLACK
6
CONTINUOUS
10
3.63276
20
-4.80461
11
3.63276
21
-4.75539
0
LINE
8
BLACK
6
CONTINUOUS
10
3.63276
20
-4.75539
11
3.63351
21
-4.75163
0
LINE
8
BLACK
6
CONTINUOUS
10
3.63351
20
-4.75163
11
3.63564
21
-4.74843
0
LINE
8
BLACK
6
CONTINUOUS
10
3.63564
20
-4.74843
11
3.63883
21
-4.7463
0
LINE
8
BLACK
6
CONTINUOUS
10
3.63883
20
-4.7463
11
3.6426
21
-4.74555
0
LINE
8
BLACK
6
CONTINUOUS
10
3.6426
20
-4.74555
11
3.67902
21
-4.74555
0
LINE
8
BLACK
6
CONTINUOUS
10
3.67902
20
-4.74555
11
3.68278
21
-4.7463
0
LINE
8
BLACK
6
CONTINUOUS
10
3.79991
20
-4.7463
11
3.8031
21
-4.74843
0
LINE
8
BLACK
6
CONTINUOUS
10
3.8031
20
-4.74843
11
3.80524
21
-4.75163
0
LINE
8
BLACK
6
CONTINUOUS
10
3.80524
20
-4.75163
11
3.80598
21
-4.75539
0
LINE
8
BLACK
6
CONTINUOUS
10
3.80598
20
-4.75539
11
3.80598
21
-4.80461
0
LINE
8
BLACK
6
CONTINUOUS
10
3.80598
20
-4.80461
11
3.80524
21
-4.80837
0
LINE
8
BLACK
6
CONTINUOUS
10
3.80524
20
-4.80837
11
3.8031
21
-4.81157
0
LINE
8
BLACK
6
CONTINUOUS
10
3.8031
20
-4.81157
11
3.79991
21
-4.8137
0
LINE
8
BLACK
6
CONTINUOUS
10
3.79991
20
-4.8137
11
3.79614
21
-4.81445
0
LINE
8
BLACK
6
CONTINUOUS
10
3.79614
20
-4.81445
11
3.75972
21
-4.81445
0
LINE
8
BLACK
6
CONTINUOUS
10
3.75972
20
-4.81445
11
3.75596
21
-4.8137
0
LINE
8
BLACK
6
CONTINUOUS
10
3.75596
20
-4.8137
11
3.75276
21
-4.81157
0
LINE
8
BLACK
6
CONTINUOUS
10
3.75276
20
-4.81157
11
3.75063
21
-4.80837
0
LINE
8
BLACK
6
CONTINUOUS
10
3.75063
20
-4.80837
11
3.74988
21
-4.80461
0
LINE
8
BLACK
6
CONTINUOUS
10
3.74988
20
-4.80461
11
3.74988
21
-4.75539
0
LINE
8
BLACK
6
CONTINUOUS
10
3.74988
20
-4.75539
11
3.75063
21
-4.75163
0
LINE
8
BLACK
6
CONTINUOUS
10
3.75063
20
-4.75163
11
3.75276
21
-4.74843
0
LINE
8
BLACK
6
CONTINUOUS
10
3.75276
20
-4.74843
11
3.75596
21
-4.7463
0
LINE
8
BLACK
6
CONTINUOUS
10
3.75596
20
-4.7463
11
3.75972
21
-4.74555
0
LINE
8
BLACK
6
CONTINUOUS
10
3.75972
20
-4.74555
11
3.79614
21
-4.74555
0
LINE
8
BLACK
6
CONTINUOUS
10
3.79614
20
-4.74555
11
3.79991
21
-4.7463
0
LINE
8
BLACK
6
CONTINUOUS
10
6.43701
20
-4.77087
11
6.35827
21
-4.77087
0
LINE
8
BLACK
6
CONTINUOUS
10
6.35827
20
-4.77087
11
6.35827
21
-4.73543
0
LINE
8
BLACK
6
CONTINUOUS
10
6.35827
20
-4.73543
11
6.43701
21
-4.73543
0
LINE
8
BLACK
6
CONTINUOUS
10
6.43701
20
-4.73543
11
6.43701
21
-4.77087
0
LINE
8
BLACK
6
CONTINUOUS
10
5.74803
20
-4.77087
11
5.66929
21
-4.77087
0
LINE
8
BLACK
6
CONTINUOUS
10
5.66929
20
-4.77087
11
5.66929
21
-4.73543
0
LINE
8
BLACK
6
CONTINUOUS
10
5.66929
20
-4.73543
11
5.74803
21
-4.73543
0
LINE
8
BLACK
6
CONTINUOUS
10
5.74803
20
-4.73543
11
5.74803
21
-4.77087
0
LINE
8
BLACK
6
CONTINUOUS
10
6.43701
20
-4.72087
11
6.35827
21
-4.72087
0
LINE
8
BLACK
6
CONTINUOUS
10
6.35827
20
-4.72087
11
6.35827
21
-4.68543
0
LINE
8
BLACK
6
CONTINUOUS
10
6.35827
20
-4.68543
11
6.43701
21
-4.68543
0
LINE
8
BLACK
6
CONTINUOUS
10
6.43701
20
-4.68543
11
6.43701
21
-4.72087
0
LINE
8
BLACK
6
CONTINUOUS
10
5.74803
20
-4.72087
11
5.66929
21
-4.72087
0
LINE
8
BLACK
6
CONTINUOUS
10
5.66929
20
-4.72087
11
5.66929
21
-4.68543
0
LINE
8
BLACK
6
CONTINUOUS
10
5.66929
20
-4.68543
11
5.74803
21
-4.68543
0
LINE
8
BLACK
6
CONTINUOUS
10
5.74803
20
-4.68543
11
5.74803
21
-4.72087
0
LINE
8
BLACK
6
CONTINUOUS
10
6.43701
20
-4.67087
11
6.35827
21
-4.67087
0
LINE
8
BLACK
6
CONTINUOUS
10
6.35827
20
-4.67087
11
6.35827
21
-4.63543
0
LINE
8
BLACK
6
CONTINUOUS
10
6.35827
20
-4.63543
11
6.43701
21
-4.63543
0
LINE
8
BLACK
6
CONTINUOUS
10
6.43701
20
-4.63543
11
6.43701
21
-4.67087
0
LINE
8
BLACK
6
CONTINUOUS
10
5.74803
20
-4.67087
11
5.66929
21
-4.67087
0
LINE
8
BLACK
6
CONTINUOUS
10
5.66929
20
-4.67087
11
5.66929
21
-4.63543
0
LINE
8
BLACK
6
CONTINUOUS
10
5.66929
20
-4.63543
11
5.74803
21
-4.63543
0
LINE
8
BLACK
6
CONTINUOUS
10
5.74803
20
-4.63543
11
5.74803
21
-4.67087
0
LINE
8
BLACK
6
CONTINUOUS
10
5.74803
20
-4.62087
11
5.66929
21
-4.62087
0
LINE
8
BLACK
6
CONTINUOUS
10
5.66929
20
-4.62087
11
5.66929
21
-4.58543
0
LINE
8
BLACK
6
CONTINUOUS
10
5.66929
20
-4.58543
11
5.74803
21
-4.58543
0
LINE
8
BLACK
6
CONTINUOUS
10
5.74803
20
-4.58543
11
5.74803
21
-4.62087
0
LINE
8
BLACK
6
CONTINUOUS
10
6.43701
20
-4.62087
11
6.35827
21
-4.62087
0
LINE
8
BLACK
6
CONTINUOUS
10
6.35827
20
-4.62087
11
6.35827
21
-4.58543
0
LINE
8
BLACK
6
CONTINUOUS
10
6.35827
20
-4.58543
11
6.43701
21
-4.58543
0
LINE
8
BLACK
6
CONTINUOUS
10
6.43701
20
-4.58543
11
6.43701
21
-4.62087
0
LINE
8
BLACK
6
CONTINUOUS
10
3.58835
20
-4.61339
11
3.52929
21
-4.61339
0
LINE
8
BLACK
6
CONTINUOUS
10
3.52929
20
-4.61339
11
3.52929
21
-4.53465
0
LINE
8
BLACK
6
CONTINUOUS
10
3.52929
20
-4.53465
11
3.58835
21
-4.53465
0
LINE
8
BLACK
6
CONTINUOUS
10
3.58835
20
-4.53465
11
3.58835
21
-4.61339
0
LINE
8
BLACK
6
CONTINUOUS
10
3.6789
20
-4.61339
11
3.61984
21
-4.61339
0
LINE
8
BLACK
6
CONTINUOUS
10
3.61984
20
-4.61339
11
3.61984
21
-4.53465
0
LINE
8
BLACK
6
CONTINUOUS
10
3.61984
20
-4.53465
11
3.6789
21
-4.53465
0
LINE
8
BLACK
6
CONTINUOUS
10
3.6789
20
-4.53465
11
3.6789
21
-4.61339
0
LINE
8
BLACK
6
CONTINUOUS
10
3.76945
20
-4.61339
11
3.71039
21
-4.61339
0
LINE
8
BLACK
6
CONTINUOUS
10
3.71039
20
-4.61339
11
3.71039
21
-4.53465
0
LINE
8
BLACK
6
CONTINUOUS
10
3.71039
20
-4.53465
11
3.76945
21
-4.53465
0
LINE
8
BLACK
6
CONTINUOUS
10
3.76945
20
-4.53465
11
3.76945
21
-4.61339
0
LINE
8
BLACK
6
CONTINUOUS
10
1.77362
20
-4.57874
11
1.71063
21
-4.57874
0
LINE
8
BLACK
6
CONTINUOUS
10
1.71063
20
-4.57874
11
1.71063
21
-4.54528
0
LINE
8
BLACK
6
CONTINUOUS
10
1.71063
20
-4.54528
11
1.77362
21
-4.54528
0
LINE
8
BLACK
6
CONTINUOUS
10
1.77362
20
-4.54528
11
1.77362
21
-4.57874
0
LINE
8
BLACK
6
CONTINUOUS
10
1.91142
20
-4.57874
11
1.84843
21
-4.57874
0
LINE
8
BLACK
6
CONTINUOUS
10
1.84843
20
-4.57874
11
1.84843
21
-4.54528
0
LINE
8
BLACK
6
CONTINUOUS
10
1.84843
20
-4.54528
11
1.91142
21
-4.54528
0
LINE
8
BLACK
6
CONTINUOUS
10
1.91142
20
-4.54528
11
1.91142
21
-4.57874
0
LINE
8
BLACK
6
CONTINUOUS
10
7.02953
20
-4.57874
11
6.96654
21
-4.57874
0
LINE
8
BLACK
6
CONTINUOUS
10
6.96654
20
-4.57874
11
6.96654
21
-4.54528
0
LINE
8
BLACK
6
CONTINUOUS
10
6.96654
20
-4.54528
11
7.02953
21
-4.54528
0
LINE
8
BLACK
6
CONTINUOUS
10
7.02953
20
-4.54528
11
7.02953
21
-4.57874
0
LINE
8
BLACK
6
CONTINUOUS
10
6.89173
20
-4.57874
11
6.82874
21
-4.57874
0
LINE
8
BLACK
6
CONTINUOUS
10
6.82874
20
-4.57874
11
6.82874
21
-4.54528
0
LINE
8
BLACK
6
CONTINUOUS
10
6.82874
20
-4.54528
11
6.89173
21
-4.54528
0
LINE
8
BLACK
6
CONTINUOUS
10
6.89173
20
-4.54528
11
6.89173
21
-4.57874
0
LINE
8
BLACK
6
CONTINUOUS
10
5.74803
20
-4.57087
11
5.66929
21
-4.57087
0
LINE
8
BLACK
6
CONTINUOUS
10
5.66929
20
-4.57087
11
5.66929
21
-4.53543
0
LINE
8
BLACK
6
CONTINUOUS
10
5.66929
20
-4.53543
11
5.74803
21
-4.53543
0
LINE
8
BLACK
6
CONTINUOUS
10
5.74803
20
-4.53543
11
5.74803
21
-4.57087
0
LINE
8
BLACK
6
CONTINUOUS
10
6.43701
20
-4.57028
11
6.35827
21
-4.57028
0
LINE
8
BLACK
6
CONTINUOUS
10
6.35827
20
-4.57028
11
6.35827
21
-4.53484
0
LINE
8
BLACK
6
CONTINUOUS
10
6.35827
20
-4.53484
11
6.43701
21
-4.53484
0
LINE
8
BLACK
6
CONTINUOUS
10
6.43701
20
-4.53484
11
6.43701
21
-4.57028
0
LINE
8
BLACK
6
CONTINUOUS
10
4.52558
20
-4.49319
11
4.52877
21
-4.49532
0
LINE
8
BLACK
6
CONTINUOUS
10
4.52877
20
-4.49532
11
4.5309
21
-4.49852
0
LINE
8
BLACK
6
CONTINUOUS
10
4.5309
20
-4.49852
11
4.53165
21
-4.50228
0
LINE
8
BLACK
6
CONTINUOUS
10
4.53165
20
-4.50228
11
4.53165
21
-4.53772
0
LINE
8
BLACK
6
CONTINUOUS
10
4.53165
20
-4.53772
11
4.5309
21
-4.54148
0
LINE
8
BLACK
6
CONTINUOUS
10
4.5309
20
-4.54148
11
4.52877
21
-4.54468
0
LINE
8
BLACK
6
CONTINUOUS
10
4.52877
20
-4.54468
11
4.52558
21
-4.54681
0
LINE
8
BLACK
6
CONTINUOUS
10
4.52558
20
-4.54681
11
4.52181
21
-4.54756
0
LINE
8
BLACK
6
CONTINUOUS
10
4.52181
20
-4.54756
11
4.49622
21
-4.54756
0
LINE
8
BLACK
6
CONTINUOUS
10
4.49622
20
-4.54756
11
4.49245
21
-4.54681
0
LINE
8
BLACK
6
CONTINUOUS
10
4.49245
20
-4.54681
11
4.48926
21
-4.54468
0
LINE
8
BLACK
6
CONTINUOUS
10
4.48926
20
-4.54468
11
4.48713
21
-4.54148
0
LINE
8
BLACK
6
CONTINUOUS
10
4.48713
20
-4.54148
11
4.48638
21
-4.53772
0
LINE
8
BLACK
6
CONTINUOUS
10
4.48638
20
-4.53772
11
4.48638
21
-4.50228
0
LINE
8
BLACK
6
CONTINUOUS
10
4.48638
20
-4.50228
11
4.48713
21
-4.49852
0
LINE
8
BLACK
6
CONTINUOUS
10
4.48713
20
-4.49852
11
4.48926
21
-4.49532
0
LINE
8
BLACK
6
CONTINUOUS
10
4.48926
20
-4.49532
11
4.49245
21
-4.49319
0
LINE
8
BLACK
6
CONTINUOUS
10
4.49245
20
-4.49319
11
4.49622
21
-4.49244
0
LINE
8
BLACK
6
CONTINUOUS
10
4.49622
20
-4.49244
11
4.52181
21
-4.49244
0
LINE
8
BLACK
6
CONTINUOUS
10
4.52181
20
-4.49244
11
4.52558
21
-4.49319
0
LINE
8
BLACK
6
CONTINUOUS
10
4.60629
20
-4.49319
11
4.60948
21
-4.49532
0
LINE
8
BLACK
6
CONTINUOUS
10
4.60948
20
-4.49532
11
4.61161
21
-4.49852
0
LINE
8
BLACK
6
CONTINUOUS
10
4.61161
20
-4.49852
11
4.61236
21
-4.50228
0
LINE
8
BLACK
6
CONTINUOUS
10
4.61236
20
-4.50228
11
4.61236
21
-4.53772
0
LINE
8
BLACK
6
CONTINUOUS
10
4.61236
20
-4.53772
11
4.61161
21
-4.54148
0
LINE
8
BLACK
6
CONTINUOUS
10
4.61161
20
-4.54148
11
4.60948
21
-4.54468
0
LINE
8
BLACK
6
CONTINUOUS
10
4.60948
20
-4.54468
11
4.60629
21
-4.54681
0
LINE
8
BLACK
6
CONTINUOUS
10
4.60629
20
-4.54681
11
4.60252
21
-4.54756
0
LINE
8
BLACK
6
CONTINUOUS
10
4.60252
20
-4.54756
11
4.57693
21
-4.54756
0
LINE
8
BLACK
6
CONTINUOUS
10
4.57693
20
-4.54756
11
4.57316
21
-4.54681
0
LINE
8
BLACK
6
CONTINUOUS
10
4.57316
20
-4.54681
11
4.56997
21
-4.54468
0
LINE
8
BLACK
6
CONTINUOUS
10
4.56997
20
-4.54468
11
4.56784
21
-4.54148
0
LINE
8
BLACK
6
CONTINUOUS
10
4.56784
20
-4.54148
11
4.56709
21
-4.53772
0
LINE
8
BLACK
6
CONTINUOUS
10
4.56709
20
-4.53772
11
4.56709
21
-4.50228
0
LINE
8
BLACK
6
CONTINUOUS
10
4.56709
20
-4.50228
11
4.56784
21
-4.49852
0
LINE
8
BLACK
6
CONTINUOUS
10
4.56784
20
-4.49852
11
4.56997
21
-4.49532
0
LINE
8
BLACK
6
CONTINUOUS
10
4.56997
20
-4.49532
11
4.57316
21
-4.49319
0
LINE
8
BLACK
6
CONTINUOUS
10
4.57316
20
-4.49319
11
4.57693
21
-4.49244
0
LINE
8
BLACK
6
CONTINUOUS
10
4.57693
20
-4.49244
11
4.60252
21
-4.49244
0
LINE
8
BLACK
6
CONTINUOUS
10
4.60252
20
-4.49244
11
4.60629
21
-4.49319
0
LINE
8
BLACK
6
CONTINUOUS
10
4.21558
20
-4.49319
11
4.21877
21
-4.49532
0
LINE
8
BLACK
6
CONTINUOUS
10
4.21877
20
-4.49532
11
4.2209
21
-4.49852
0
LINE
8
BLACK
6
CONTINUOUS
10
4.2209
20
-4.49852
11
4.22165
21
-4.50228
0
LINE
8
BLACK
6
CONTINUOUS
10
4.22165
20
-4.50228
11
4.22165
21
-4.53772
0
LINE
8
BLACK
6
CONTINUOUS
10
4.22165
20
-4.53772
11
4.2209
21
-4.54148
0
LINE
8
BLACK
6
CONTINUOUS
10
4.2209
20
-4.54148
11
4.21877
21
-4.54468
0
LINE
8
BLACK
6
CONTINUOUS
10
4.21877
20
-4.54468
11
4.21558
21
-4.54681
0
LINE
8
BLACK
6
CONTINUOUS
10
4.21558
20
-4.54681
11
4.21181
21
-4.54756
0
LINE
8
BLACK
6
CONTINUOUS
10
4.21181
20
-4.54756
11
4.18622
21
-4.54756
0
LINE
8
BLACK
6
CONTINUOUS
10
4.18622
20
-4.54756
11
4.18245
21
-4.54681
0
LINE
8
BLACK
6
CONTINUOUS
10
4.18245
20
-4.54681
11
4.17926
21
-4.54468
0
LINE
8
BLACK
6
CONTINUOUS
10
4.17926
20
-4.54468
11
4.17713
21
-4.54148
0
LINE
8
BLACK
6
CONTINUOUS
10
4.17713
20
-4.54148
11
4.17638
21
-4.53772
0
LINE
8
BLACK
6
CONTINUOUS
10
4.17638
20
-4.53772
11
4.17638
21
-4.50228
0
LINE
8
BLACK
6
CONTINUOUS
10
4.17638
20
-4.50228
11
4.17713
21
-4.49852
0
LINE
8
BLACK
6
CONTINUOUS
10
4.17713
20
-4.49852
11
4.17926
21
-4.49532
0
LINE
8
BLACK
6
CONTINUOUS
10
4.17926
20
-4.49532
11
4.18245
21
-4.49319
0
LINE
8
BLACK
6
CONTINUOUS
10
4.18245
20
-4.49319
11
4.18622
21
-4.49244
0
LINE
8
BLACK
6
CONTINUOUS
10
4.18622
20
-4.49244
11
4.21181
21
-4.49244
0
LINE
8
BLACK
6
CONTINUOUS
10
4.21181
20
-4.49244
11
4.21558
21
-4.49319
0
LINE
8
BLACK
6
CONTINUOUS
10
4.29629
20
-4.49319
11
4.29948
21
-4.49532
0
LINE
8
BLACK
6
CONTINUOUS
10
4.29948
20
-4.49532
11
4.30161
21
-4.49852
0
LINE
8
BLACK
6
CONTINUOUS
10
4.30161
20
-4.49852
11
4.30236
21
-4.50228
0
LINE
8
BLACK
6
CONTINUOUS
10
4.30236
20
-4.50228
11
4.30236
21
-4.53772
0
LINE
8
BLACK
6
CONTINUOUS
10
4.30236
20
-4.53772
11
4.30161
21
-4.54148
0
LINE
8
BLACK
6
CONTINUOUS
10
4.30161
20
-4.54148
11
4.29948
21
-4.54468
0
LINE
8
BLACK
6
CONTINUOUS
10
4.29948
20
-4.54468
11
4.29629
21
-4.54681
0
LINE
8
BLACK
6
CONTINUOUS
10
4.29629
20
-4.54681
11
4.29252
21
-4.54756
0
LINE
8
BLACK
6
CONTINUOUS
10
4.29252
20
-4.54756
11
4.26693
21
-4.54756
0
LINE
8
BLACK
6
CONTINUOUS
10
4.26693
20
-4.54756
11
4.26316
21
-4.54681
0
LINE
8
BLACK
6
CONTINUOUS
10
4.26316
20
-4.54681
11
4.25997
21
-4.54468
0
LINE
8
BLACK
6
CONTINUOUS
10
4.25997
20
-4.54468
11
4.25784
21
-4.54148
0
LINE
8
BLACK
6
CONTINUOUS
10
4.25784
20
-4.54148
11
4.25709
21
-4.53772
0
LINE
8
BLACK
6
CONTINUOUS
10
4.25709
20
-4.53772
11
4.25709
21
-4.50228
0
LINE
8
BLACK
6
CONTINUOUS
10
4.25709
20
-4.50228
11
4.25784
21
-4.49852
0
LINE
8
BLACK
6
CONTINUOUS
10
4.25784
20
-4.49852
11
4.25997
21
-4.49532
0
LINE
8
BLACK
6
CONTINUOUS
10
4.25997
20
-4.49532
11
4.26316
21
-4.49319
0
LINE
8
BLACK
6
CONTINUOUS
10
4.26316
20
-4.49319
11
4.26693
21
-4.49244
0
LINE
8
BLACK
6
CONTINUOUS
10
4.26693
20
-4.49244
11
4.29252
21
-4.49244
0
LINE
8
BLACK
6
CONTINUOUS
10
4.29252
20
-4.49244
11
4.29629
21
-4.49319
0
LINE
8
BLACK
6
CONTINUOUS
10
6.43701
20
-4.52106
11
6.35827
21
-4.52106
0
LINE
8
BLACK
6
CONTINUOUS
10
6.35827
20
-4.52106
11
6.35827
21
-4.48563
0
LINE
8
BLACK
6
CONTINUOUS
10
6.35827
20
-4.48563
11
6.43701
21
-4.48563
0
LINE
8
BLACK
6
CONTINUOUS
10
6.43701
20
-4.48563
11
6.43701
21
-4.52106
0
LINE
8
BLACK
6
CONTINUOUS
10
5.74803
20
-4.52087
11
5.66929
21
-4.52087
0
LINE
8
BLACK
6
CONTINUOUS
10
5.66929
20
-4.52087
11
5.66929
21
-4.48543
0
LINE
8
BLACK
6
CONTINUOUS
10
5.66929
20
-4.48543
11
5.74803
21
-4.48543
0
LINE
8
BLACK
6
CONTINUOUS
10
5.74803
20
-4.48543
11
5.74803
21
-4.52087
0
LINE
8
BLACK
6
CONTINUOUS
10
1.91142
20
-4.50984
11
1.84843
21
-4.50984
0
LINE
8
BLACK
6
CONTINUOUS
10
1.84843
20
-4.50984
11
1.84843
21
-4.47638
0
LINE
8
BLACK
6
CONTINUOUS
10
1.84843
20
-4.47638
11
1.91142
21
-4.47638
0
LINE
8
BLACK
6
CONTINUOUS
10
1.91142
20
-4.47638
11
1.91142
21
-4.50984
0
LINE
8
BLACK
6
CONTINUOUS
10
1.77362
20
-4.50984
11
1.71063
21
-4.50984
0
LINE
8
BLACK
6
CONTINUOUS
10
1.71063
20
-4.50984
11
1.71063
21
-4.47638
0
LINE
8
BLACK
6
CONTINUOUS
10
1.71063
20
-4.47638
11
1.77362
21
-4.47638
0
LINE
8
BLACK
6
CONTINUOUS
10
1.77362
20
-4.47638
11
1.77362
21
-4.50984
0
LINE
8
BLACK
6
CONTINUOUS
10
7.02953
20
-4.50984
11
6.96654
21
-4.50984
0
LINE
8
BLACK
6
CONTINUOUS
10
6.96654
20
-4.50984
11
6.96654
21
-4.47638
0
LINE
8
BLACK
6
CONTINUOUS
10
6.96654
20
-4.47638
11
7.02953
21
-4.47638
0
LINE
8
BLACK
6
CONTINUOUS
10
7.02953
20
-4.47638
11
7.02953
21
-4.50984
0
LINE
8
BLACK
6
CONTINUOUS
10
6.89173
20
-4.50984
11
6.82874
21
-4.50984
0
LINE
8
BLACK
6
CONTINUOUS
10
6.82874
20
-4.50984
11
6.82874
21
-4.47638
0
LINE
8
BLACK
6
CONTINUOUS
10
6.82874
20
-4.47638
11
6.89173
21
-4.47638
0
LINE
8
BLACK
6
CONTINUOUS
10
6.89173
20
-4.47638
11
6.89173
21
-4.50984
0
LINE
8
BLACK
6
CONTINUOUS
10
1.97579
20
-4.42717
11
1.89705
21
-4.42717
0
LINE
8
BLACK
6
CONTINUOUS
10
1.89705
20
-4.42717
11
1.89705
21
-4.38386
0
LINE
8
BLACK
6
CONTINUOUS
10
1.89705
20
-4.38386
11
1.97579
21
-4.38386
0
LINE
8
BLACK
6
CONTINUOUS
10
1.97579
20
-4.38386
11
1.97579
21
-4.42717
0
LINE
8
BLACK
6
CONTINUOUS
10
1.72776
20
-4.42717
11
1.64902
21
-4.42717
0
LINE
8
BLACK
6
CONTINUOUS
10
1.64902
20
-4.42717
11
1.64902
21
-4.38386
0
LINE
8
BLACK
6
CONTINUOUS
10
1.64902
20
-4.38386
11
1.72776
21
-4.38386
0
LINE
8
BLACK
6
CONTINUOUS
10
1.72776
20
-4.38386
11
1.72776
21
-4.42717
0
LINE
8
BLACK
6
CONTINUOUS
10
6.84587
20
-4.42717
11
6.76713
21
-4.42717
0
LINE
8
BLACK
6
CONTINUOUS
10
6.76713
20
-4.42717
11
6.76713
21
-4.38386
0
LINE
8
BLACK
6
CONTINUOUS
10
6.76713
20
-4.38386
11
6.84587
21
-4.38386
0
LINE
8
BLACK
6
CONTINUOUS
10
6.84587
20
-4.38386
11
6.84587
21
-4.42717
0
LINE
8
BLACK
6
CONTINUOUS
10
7.0939
20
-4.42717
11
7.01516
21
-4.42717
0
LINE
8
BLACK
6
CONTINUOUS
10
7.01516
20
-4.42717
11
7.01516
21
-4.38386
0
LINE
8
BLACK
6
CONTINUOUS
10
7.01516
20
-4.38386
11
7.0939
21
-4.38386
0
LINE
8
BLACK
6
CONTINUOUS
10
7.0939
20
-4.38386
11
7.0939
21
-4.42717
0
LINE
8
BLACK
6
CONTINUOUS
10
4.32618
20
-4.3937
11
4.31555
21
-4.3937
0
LINE
8
BLACK
6
CONTINUOUS
10
4.31555
20
-4.3937
11
4.31555
21
-4.35433
0
LINE
8
BLACK
6
CONTINUOUS
10
4.31555
20
-4.35433
11
4.32618
21
-4.35433
0
LINE
8
BLACK
6
CONTINUOUS
10
4.32618
20
-4.35433
11
4.32618
21
-4.3937
0
LINE
8
BLACK
6
CONTINUOUS
10
4.36555
20
-4.3937
11
4.35492
21
-4.3937
0
LINE
8
BLACK
6
CONTINUOUS
10
4.35492
20
-4.3937
11
4.35492
21
-4.35433
0
LINE
8
BLACK
6
CONTINUOUS
10
4.35492
20
-4.35433
11
4.36555
21
-4.35433
0
LINE
8
BLACK
6
CONTINUOUS
10
4.36555
20
-4.35433
11
4.36555
21
-4.3937
0
LINE
8
BLACK
6
CONTINUOUS
10
4.40492
20
-4.3937
11
4.39429
21
-4.3937
0
LINE
8
BLACK
6
CONTINUOUS
10
4.39429
20
-4.3937
11
4.39429
21
-4.35433
0
LINE
8
BLACK
6
CONTINUOUS
10
4.39429
20
-4.35433
11
4.40492
21
-4.35433
0
LINE
8
BLACK
6
CONTINUOUS
10
4.40492
20
-4.35433
11
4.40492
21
-4.3937
0
LINE
8
BLACK
6
CONTINUOUS
10
4.42461
20
-4.3937
11
4.41398
21
-4.3937
0
LINE
8
BLACK
6
CONTINUOUS
10
4.41398
20
-4.3937
11
4.41398
21
-4.35433
0
LINE
8
BLACK
6
CONTINUOUS
10
4.41398
20
-4.35433
11
4.42461
21
-4.35433
0
LINE
8
BLACK
6
CONTINUOUS
10
4.42461
20
-4.35433
11
4.42461
21
-4.3937
0
LINE
8
BLACK
6
CONTINUOUS
10
4.50236
20
-4.3937
11
4.48189
21
-4.3937
0
LINE
8
BLACK
6
CONTINUOUS
10
4.48189
20
-4.3937
11
4.48189
21
-4.35433
0
LINE
8
BLACK
6
CONTINUOUS
10
4.48189
20
-4.35433
11
4.50236
21
-4.35433
0
LINE
8
BLACK
6
CONTINUOUS
10
4.50236
20
-4.35433
11
4.50236
21
-4.3937
0
LINE
8
BLACK
6
CONTINUOUS
10
4.47283
20
-4.3937
11
4.45236
21
-4.3937
0
LINE
8
BLACK
6
CONTINUOUS
10
4.45236
20
-4.3937
11
4.45236
21
-4.35433
0
LINE
8
BLACK
6
CONTINUOUS
10
4.45236
20
-4.35433
11
4.47283
21
-4.35433
0
LINE
8
BLACK
6
CONTINUOUS
10
4.47283
20
-4.35433
11
4.47283
21
-4.3937
0
LINE
8
BLACK
6
CONTINUOUS
10
4.44429
20
-4.3937
11
4.43366
21
-4.3937
0
LINE
8
BLACK
6
CONTINUOUS
10
4.43366
20
-4.3937
11
4.43366
21
-4.35433
0
LINE
8
BLACK
6
CONTINUOUS
10
4.43366
20
-4.35433
11
4.44429
21
-4.35433
0
LINE
8
BLACK
6
CONTINUOUS
10
4.44429
20
-4.35433
11
4.44429
21
-4.3937
0
LINE
8
BLACK
6
CONTINUOUS
10
4.38524
20
-4.3937
11
4.37461
21
-4.3937
0
LINE
8
BLACK
6
CONTINUOUS
10
4.37461
20
-4.3937
11
4.37461
21
-4.35433
0
LINE
8
BLACK
6
CONTINUOUS
10
4.37461
20
-4.35433
11
4.38524
21
-4.35433
0
LINE
8
BLACK
6
CONTINUOUS
10
4.38524
20
-4.35433
11
4.38524
21
-4.3937
0
LINE
8
BLACK
6
CONTINUOUS
10
4.34587
20
-4.3937
11
4.33524
21
-4.3937
0
LINE
8
BLACK
6
CONTINUOUS
10
4.33524
20
-4.3937
11
4.33524
21
-4.35433
0
LINE
8
BLACK
6
CONTINUOUS
10
4.33524
20
-4.35433
11
4.34587
21
-4.35433
0
LINE
8
BLACK
6
CONTINUOUS
10
4.34587
20
-4.35433
11
4.34587
21
-4.3937
0
LINE
8
BLACK
6
CONTINUOUS
10
4.3065
20
-4.3937
11
4.29587
21
-4.3937
0
LINE
8
BLACK
6
CONTINUOUS
10
4.29587
20
-4.3937
11
4.29587
21
-4.35433
0
LINE
8
BLACK
6
CONTINUOUS
10
4.29587
20
-4.35433
11
4.3065
21
-4.35433
0
LINE
8
BLACK
6
CONTINUOUS
10
4.3065
20
-4.35433
11
4.3065
21
-4.3937
0
LINE
8
BLACK
6
CONTINUOUS
10
4.2878
20
-4.3937
11
4.26732
21
-4.3937
0
LINE
8
BLACK
6
CONTINUOUS
10
4.26732
20
-4.3937
11
4.26732
21
-4.35433
0
LINE
8
BLACK
6
CONTINUOUS
10
4.26732
20
-4.35433
11
4.2878
21
-4.35433
0
LINE
8
BLACK
6
CONTINUOUS
10
4.2878
20
-4.35433
11
4.2878
21
-4.3937
0
LINE
8
BLACK
6
CONTINUOUS
10
4.25827
20
-4.3937
11
4.2378
21
-4.3937
0
LINE
8
BLACK
6
CONTINUOUS
10
4.2378
20
-4.3937
11
4.2378
21
-4.35433
0
LINE
8
BLACK
6
CONTINUOUS
10
4.2378
20
-4.35433
11
4.25827
21
-4.35433
0
LINE
8
BLACK
6
CONTINUOUS
10
4.25827
20
-4.35433
11
4.25827
21
-4.3937
0
LINE
8
BLACK
6
CONTINUOUS
10
3.72417
20
-4.36535
11
3.57457
21
-4.36535
0
LINE
8
BLACK
6
CONTINUOUS
10
3.57457
20
-4.36535
11
3.57457
21
-4.28661
0
LINE
8
BLACK
6
CONTINUOUS
10
3.57457
20
-4.28661
11
3.72417
21
-4.28661
0
LINE
8
BLACK
6
CONTINUOUS
10
3.72417
20
-4.28661
11
3.72417
21
-4.36535
0
LINE
8
BLACK
6
CONTINUOUS
10
6.84587
20
-4.2811
11
6.76713
21
-4.2811
0
LINE
8
BLACK
6
CONTINUOUS
10
6.76713
20
-4.2811
11
6.76713
21
-4.2378
0
LINE
8
BLACK
6
CONTINUOUS
10
6.76713
20
-4.2378
11
6.84587
21
-4.2378
0
LINE
8
BLACK
6
CONTINUOUS
10
6.84587
20
-4.2378
11
6.84587
21
-4.2811
0
LINE
8
BLACK
6
CONTINUOUS
10
7.0939
20
-4.2811
11
7.01516
21
-4.2811
0
LINE
8
BLACK
6
CONTINUOUS
10
7.01516
20
-4.2811
11
7.01516
21
-4.2378
0
LINE
8
BLACK
6
CONTINUOUS
10
7.01516
20
-4.2378
11
7.0939
21
-4.2378
0
LINE
8
BLACK
6
CONTINUOUS
10
7.0939
20
-4.2378
11
7.0939
21
-4.2811
0
LINE
8
BLACK
6
CONTINUOUS
10
1.97579
20
-4.2811
11
1.89705
21
-4.2811
0
LINE
8
BLACK
6
CONTINUOUS
10
1.89705
20
-4.2811
11
1.89705
21
-4.2378
0
LINE
8
BLACK
6
CONTINUOUS
10
1.89705
20
-4.2378
11
1.97579
21
-4.2378
0
LINE
8
BLACK
6
CONTINUOUS
10
1.97579
20
-4.2378
11
1.97579
21
-4.2811
0
LINE
8
BLACK
6
CONTINUOUS
10
1.72776
20
-4.2811
11
1.64902
21
-4.2811
0
LINE
8
BLACK
6
CONTINUOUS
10
1.64902
20
-4.2811
11
1.64902
21
-4.2378
0
LINE
8
BLACK
6
CONTINUOUS
10
1.64902
20
-4.2378
11
1.72776
21
-4.2378
0
LINE
8
BLACK
6
CONTINUOUS
10
1.72776
20
-4.2378
11
1.72776
21
-4.2811
0
LINE
8
BLACK
6
CONTINUOUS
10
4.44488
20
-4.24409
11
4.40551
21
-4.24409
0
LINE
8
BLACK
6
CONTINUOUS
10
4.40551
20
-4.24409
11
4.40551
21
-4.16535
0
LINE
8
BLACK
6
CONTINUOUS
10
4.40551
20
-4.16535
11
4.44488
21
-4.16535
0
LINE
8
BLACK
6
CONTINUOUS
10
4.44488
20
-4.16535
11
4.44488
21
-4.24409
0
LINE
8
BLACK
6
CONTINUOUS
10
4.33465
20
-4.24409
11
4.29528
21
-4.24409
0
LINE
8
BLACK
6
CONTINUOUS
10
4.29528
20
-4.24409
11
4.29528
21
-4.16535
0
LINE
8
BLACK
6
CONTINUOUS
10
4.29528
20
-4.16535
11
4.33465
21
-4.16535
0
LINE
8
BLACK
6
CONTINUOUS
10
4.33465
20
-4.16535
11
4.33465
21
-4.24409
  0
ENDSEC
  0
EOF
