  0
SECTION
  2
HEADER
  9
$ANGBASE
  50
0.0
  9
$ANGDIR
  70
1
  9
$MEASUREMENT
  70
0
  0
ENDSEC
  0
SECTION
  2
TABLES
  0
TABLE
  2
LTYPE
  70
4
  0
LTYPE
  5
40F
  2
CONTINUOUS
  70
0
  3
Solid line
  72
65
  73
0
  40
0.0
  0
LTYPE
  5
410
  2
DASHDOT
 70
0
  3
Dash Dot ____ _ ____ _
 72
65
 73
4
 40
2.0
 49
1.25
 49
-0.25
 49
0.25
 49
-0.25
  0
LTYPE
  5
411
  2
DASHED
 70
0
  3
Dashed __ __ __ __ __
 72
65
 73
2
 40
0.75
 49
0.5
 49
-0.25
  0
LTYPE
  5
43B
  2
DOTTED
 70
0
  3
Dotted .  .  .  .
 72
65
 73
2
 40
0.2
 49
0.0
 49
-0.2
  0
ENDTAB
  0
TABLE
  2
STYLE
  70
4
  0
STYLE
  2
KICAD
  70
0
  40
0
  41
1
  42
1
  50
0
  71
0
  3
isocp.shx
  0
STYLE
  2
KICADB
  70
0
  40
0
  41
1
  42
1
  50
0
  71
0
  3
isocp.shx
  0
STYLE
  2
KICADI
  70
0
  40
0
  41
1
  42
1
  50
15
  71
0
  3
isocp.shx
  0
STYLE
  2
KICADBI
  70
0
  40
0
  41
1
  42
1
  50
15
  71
0
  3
isocp.shx
  0
ENDTAB
  0
TABLE
  2
LAYER
  70
1
  0
LAYER
  2
BLACK
  70
0
  62
7
  6
CONTINUOUS
  0
ENDTAB
  0
ENDSEC
  0
SECTION
  2
ENTITIES
0
LINE
8
BLACK
6
CONTINUOUS
10
6.57948
20
-5.26973
11
6.57865
21
-5.26939
0
LINE
8
BLACK
6
CONTINUOUS
10
6.57865
20
-5.26939
11
6.57865
21
-5.26939
0
LINE
8
BLACK
6
CONTINUOUS
10
6.57865
20
-5.26939
11
6.57864
21
-5.26939
0
LINE
8
BLACK
6
CONTINUOUS
10
6.57864
20
-5.26939
11
6.5783
21
-5.26856
0
LINE
8
BLACK
6
CONTINUOUS
10
6.5783
20
-5.26856
11
6.57795
21
-5.26772
0
LINE
8
BLACK
6
CONTINUOUS
10
6.57795
20
-5.26772
11
6.57717
21
-4.66536
0
LINE
8
BLACK
6
CONTINUOUS
10
6.57717
20
-4.66536
11
6.57786
21
-4.66369
0
LINE
8
BLACK
6
CONTINUOUS
10
6.57786
20
-4.66369
11
6.57952
21
-4.66299
0
LINE
8
BLACK
6
CONTINUOUS
10
6.57952
20
-4.66299
11
6.57992
21
-4.66316
0
LINE
8
BLACK
6
CONTINUOUS
10
6.57992
20
-4.66316
11
6.58031
21
-4.66299
0
LINE
8
BLACK
6
CONTINUOUS
10
6.58031
20
-4.66299
11
6.7685
21
-4.66299
0
LINE
8
BLACK
6
CONTINUOUS
10
6.7685
20
-4.66299
11
6.77017
21
-4.66368
0
LINE
8
BLACK
6
CONTINUOUS
10
6.77017
20
-4.66368
11
6.77087
21
-4.66535
0
LINE
8
BLACK
6
CONTINUOUS
10
6.77087
20
-4.66535
11
6.77017
21
-4.66702
0
LINE
8
BLACK
6
CONTINUOUS
10
6.77017
20
-4.66702
11
6.7685
21
-4.66772
0
LINE
8
BLACK
6
CONTINUOUS
10
6.7685
20
-4.66772
11
6.58189
21
-4.66772
0
LINE
8
BLACK
6
CONTINUOUS
10
6.58189
20
-4.66772
11
6.58202
21
-4.76732
0
LINE
8
BLACK
6
CONTINUOUS
10
6.58202
20
-4.76732
11
6.7685
21
-4.76732
0
LINE
8
BLACK
6
CONTINUOUS
10
6.7685
20
-4.76732
11
6.77017
21
-4.76801
0
LINE
8
BLACK
6
CONTINUOUS
10
6.77017
20
-4.76801
11
6.77087
21
-4.76969
0
LINE
8
BLACK
6
CONTINUOUS
10
6.77087
20
-4.76969
11
6.77017
21
-4.77136
0
LINE
8
BLACK
6
CONTINUOUS
10
6.77017
20
-4.77136
11
6.7685
21
-4.77205
0
LINE
8
BLACK
6
CONTINUOUS
10
6.7685
20
-4.77205
11
6.58203
21
-4.77205
0
LINE
8
BLACK
6
CONTINUOUS
10
6.58203
20
-4.77205
11
6.58267
21
-5.26535
0
LINE
8
BLACK
6
CONTINUOUS
10
6.58267
20
-5.26535
11
6.76929
21
-5.26535
0
LINE
8
BLACK
6
CONTINUOUS
10
6.76929
20
-5.26535
11
6.77096
21
-5.26605
0
LINE
8
BLACK
6
CONTINUOUS
10
6.77096
20
-5.26605
11
6.77165
21
-5.26772
0
LINE
8
BLACK
6
CONTINUOUS
10
6.77165
20
-5.26772
11
6.77096
21
-5.26939
0
LINE
8
BLACK
6
CONTINUOUS
10
6.77096
20
-5.26939
11
6.76929
21
-5.27008
0
LINE
8
BLACK
6
CONTINUOUS
10
6.76929
20
-5.27008
11
6.58031
21
-5.27008
0
LINE
8
BLACK
6
CONTINUOUS
10
6.58031
20
-5.27008
11
6.57948
21
-5.26973
0
LINE
8
BLACK
6
CONTINUOUS
10
4.25918
20
-4.31912
11
4.2632
21
-4.32073
0
LINE
8
BLACK
6
CONTINUOUS
10
4.2632
20
-4.32073
11
4.26637
21
-4.32367
0
LINE
8
BLACK
6
CONTINUOUS
10
4.26637
20
-4.32367
11
4.26827
21
-4.32755
0
LINE
8
BLACK
6
CONTINUOUS
10
4.26827
20
-4.32755
11
4.26864
21
-4.33186
0
LINE
8
BLACK
6
CONTINUOUS
10
4.26864
20
-4.33186
11
4.26744
21
-4.33602
0
LINE
8
BLACK
6
CONTINUOUS
10
4.26744
20
-4.33602
11
4.26482
21
-4.33946
0
LINE
8
BLACK
6
CONTINUOUS
10
4.26482
20
-4.33946
11
4.26114
21
-4.34173
0
LINE
8
BLACK
6
CONTINUOUS
10
4.26114
20
-4.34173
11
4.25689
21
-4.34252
0
LINE
8
BLACK
6
CONTINUOUS
10
4.25689
20
-4.34252
11
4.24705
21
-4.34252
0
LINE
8
BLACK
6
CONTINUOUS
10
4.24705
20
-4.34252
11
4.24475
21
-4.34229
0
LINE
8
BLACK
6
CONTINUOUS
10
4.24475
20
-4.34229
11
4.24074
21
-4.34069
0
LINE
8
BLACK
6
CONTINUOUS
10
4.24074
20
-4.34069
11
4.23757
21
-4.33775
0
LINE
8
BLACK
6
CONTINUOUS
10
4.23757
20
-4.33775
11
4.23567
21
-4.33387
0
LINE
8
BLACK
6
CONTINUOUS
10
4.23567
20
-4.33387
11
4.23529
21
-4.32956
0
LINE
8
BLACK
6
CONTINUOUS
10
4.23529
20
-4.32956
11
4.2365
21
-4.3254
0
LINE
8
BLACK
6
CONTINUOUS
10
4.2365
20
-4.3254
11
4.23911
21
-4.32196
0
LINE
8
BLACK
6
CONTINUOUS
10
4.23911
20
-4.32196
11
4.2428
21
-4.31969
0
LINE
8
BLACK
6
CONTINUOUS
10
4.2428
20
-4.31969
11
4.24705
21
-4.3189
0
LINE
8
BLACK
6
CONTINUOUS
10
4.24705
20
-4.3189
11
4.25689
21
-4.3189
0
LINE
8
BLACK
6
CONTINUOUS
10
4.25689
20
-4.3189
11
4.25918
21
-4.31912
0
LINE
8
BLACK
6
CONTINUOUS
10
4.18841
20
-4.33629
11
4.19002
21
-4.33227
0
LINE
8
BLACK
6
CONTINUOUS
10
4.19002
20
-4.33227
11
4.19296
21
-4.3291
0
LINE
8
BLACK
6
CONTINUOUS
10
4.19296
20
-4.3291
11
4.19684
21
-4.3272
0
LINE
8
BLACK
6
CONTINUOUS
10
4.19684
20
-4.3272
11
4.20115
21
-4.32683
0
LINE
8
BLACK
6
CONTINUOUS
10
4.20115
20
-4.32683
11
4.20531
21
-4.32803
0
LINE
8
BLACK
6
CONTINUOUS
10
4.20531
20
-4.32803
11
4.20875
21
-4.33065
0
LINE
8
BLACK
6
CONTINUOUS
10
4.20875
20
-4.33065
11
4.21102
21
-4.33433
0
LINE
8
BLACK
6
CONTINUOUS
10
4.21102
20
-4.33433
11
4.21181
21
-4.33858
0
LINE
8
BLACK
6
CONTINUOUS
10
4.21181
20
-4.33858
11
4.21181
21
-4.37795
0
LINE
8
BLACK
6
CONTINUOUS
10
4.21181
20
-4.37795
11
4.21159
21
-4.38025
0
LINE
8
BLACK
6
CONTINUOUS
10
4.21159
20
-4.38025
11
4.20998
21
-4.38426
0
LINE
8
BLACK
6
CONTINUOUS
10
4.20998
20
-4.38426
11
4.20704
21
-4.38743
0
LINE
8
BLACK
6
CONTINUOUS
10
4.20704
20
-4.38743
11
4.20316
21
-4.38933
0
LINE
8
BLACK
6
CONTINUOUS
10
4.20316
20
-4.38933
11
4.19885
21
-4.38971
0
LINE
8
BLACK
6
CONTINUOUS
10
4.19885
20
-4.38971
11
4.19469
21
-4.3885
0
LINE
8
BLACK
6
CONTINUOUS
10
4.19469
20
-4.3885
11
4.19125
21
-4.38589
0
LINE
8
BLACK
6
CONTINUOUS
10
4.19125
20
-4.38589
11
4.18898
21
-4.3822
0
LINE
8
BLACK
6
CONTINUOUS
10
4.18898
20
-4.3822
11
4.18819
21
-4.37795
0
LINE
8
BLACK
6
CONTINUOUS
10
4.18819
20
-4.37795
11
4.18819
21
-4.33858
0
LINE
8
BLACK
6
CONTINUOUS
10
4.18819
20
-4.33858
11
4.18841
21
-4.33629
0
LINE
8
BLACK
6
CONTINUOUS
10
4.18841
20
-4.18078
11
4.19002
21
-4.17676
0
LINE
8
BLACK
6
CONTINUOUS
10
4.19002
20
-4.17676
11
4.19296
21
-4.17359
0
LINE
8
BLACK
6
CONTINUOUS
10
4.19296
20
-4.17359
11
4.19684
21
-4.17169
0
LINE
8
BLACK
6
CONTINUOUS
10
4.19684
20
-4.17169
11
4.20115
21
-4.17132
0
LINE
8
BLACK
6
CONTINUOUS
10
4.20115
20
-4.17132
11
4.20531
21
-4.17252
0
LINE
8
BLACK
6
CONTINUOUS
10
4.20531
20
-4.17252
11
4.20875
21
-4.17514
0
LINE
8
BLACK
6
CONTINUOUS
10
4.20875
20
-4.17514
11
4.21102
21
-4.17882
0
LINE
8
BLACK
6
CONTINUOUS
10
4.21102
20
-4.17882
11
4.21181
21
-4.18307
0
LINE
8
BLACK
6
CONTINUOUS
10
4.21181
20
-4.18307
11
4.21181
21
-4.23425
0
LINE
8
BLACK
6
CONTINUOUS
10
4.21181
20
-4.23425
11
4.21159
21
-4.23655
0
LINE
8
BLACK
6
CONTINUOUS
10
4.21159
20
-4.23655
11
4.20998
21
-4.24056
0
LINE
8
BLACK
6
CONTINUOUS
10
4.20998
20
-4.24056
11
4.20704
21
-4.24373
0
LINE
8
BLACK
6
CONTINUOUS
10
4.20704
20
-4.24373
11
4.20316
21
-4.24563
0
LINE
8
BLACK
6
CONTINUOUS
10
4.20316
20
-4.24563
11
4.19885
21
-4.24601
0
LINE
8
BLACK
6
CONTINUOUS
10
4.19885
20
-4.24601
11
4.19469
21
-4.2448
0
LINE
8
BLACK
6
CONTINUOUS
10
4.19469
20
-4.2448
11
4.19125
21
-4.24219
0
LINE
8
BLACK
6
CONTINUOUS
10
4.19125
20
-4.24219
11
4.18898
21
-4.2385
0
LINE
8
BLACK
6
CONTINUOUS
10
4.18898
20
-4.2385
11
4.18819
21
-4.23425
0
LINE
8
BLACK
6
CONTINUOUS
10
4.18819
20
-4.23425
11
4.18819
21
-4.18307
0
LINE
8
BLACK
6
CONTINUOUS
10
4.18819
20
-4.18307
11
4.18841
21
-4.18078
0
LINE
8
BLACK
6
CONTINUOUS
10
4.52857
20
-4.18078
11
4.53017
21
-4.17676
0
LINE
8
BLACK
6
CONTINUOUS
10
4.53017
20
-4.17676
11
4.53312
21
-4.17359
0
LINE
8
BLACK
6
CONTINUOUS
10
4.53312
20
-4.17359
11
4.537
21
-4.17169
0
LINE
8
BLACK
6
CONTINUOUS
10
4.537
20
-4.17169
11
4.54131
21
-4.17132
0
LINE
8
BLACK
6
CONTINUOUS
10
4.54131
20
-4.17132
11
4.54546
21
-4.17252
0
LINE
8
BLACK
6
CONTINUOUS
10
4.54546
20
-4.17252
11
4.54891
21
-4.17514
0
LINE
8
BLACK
6
CONTINUOUS
10
4.54891
20
-4.17514
11
4.55118
21
-4.17882
0
LINE
8
BLACK
6
CONTINUOUS
10
4.55118
20
-4.17882
11
4.55197
21
-4.18307
0
LINE
8
BLACK
6
CONTINUOUS
10
4.55197
20
-4.18307
11
4.55197
21
-4.23425
0
LINE
8
BLACK
6
CONTINUOUS
10
4.55197
20
-4.23425
11
4.55174
21
-4.23655
0
LINE
8
BLACK
6
CONTINUOUS
10
4.55174
20
-4.23655
11
4.55014
21
-4.24056
0
LINE
8
BLACK
6
CONTINUOUS
10
4.55014
20
-4.24056
11
4.5472
21
-4.24373
0
LINE
8
BLACK
6
CONTINUOUS
10
4.5472
20
-4.24373
11
4.54331
21
-4.24563
0
LINE
8
BLACK
6
CONTINUOUS
10
4.54331
20
-4.24563
11
4.539
21
-4.24601
0
LINE
8
BLACK
6
CONTINUOUS
10
4.539
20
-4.24601
11
4.53485
21
-4.2448
0
LINE
8
BLACK
6
CONTINUOUS
10
4.53485
20
-4.2448
11
4.53141
21
-4.24219
0
LINE
8
BLACK
6
CONTINUOUS
10
4.53141
20
-4.24219
11
4.52914
21
-4.2385
0
LINE
8
BLACK
6
CONTINUOUS
10
4.52914
20
-4.2385
11
4.52835
21
-4.23425
0
LINE
8
BLACK
6
CONTINUOUS
10
4.52835
20
-4.23425
11
4.52835
21
-4.18307
0
LINE
8
BLACK
6
CONTINUOUS
10
4.52835
20
-4.18307
11
4.52857
21
-4.18078
0
LINE
8
BLACK
6
CONTINUOUS
10
4.52857
20
-4.33727
11
4.53017
21
-4.33326
0
LINE
8
BLACK
6
CONTINUOUS
10
4.53017
20
-4.33326
11
4.53312
21
-4.33008
0
LINE
8
BLACK
6
CONTINUOUS
10
4.53312
20
-4.33008
11
4.537
21
-4.32819
0
LINE
8
BLACK
6
CONTINUOUS
10
4.537
20
-4.32819
11
4.54131
21
-4.32781
0
LINE
8
BLACK
6
CONTINUOUS
10
4.54131
20
-4.32781
11
4.54546
21
-4.32902
0
LINE
8
BLACK
6
CONTINUOUS
10
4.54546
20
-4.32902
11
4.54891
21
-4.33163
0
LINE
8
BLACK
6
CONTINUOUS
10
4.54891
20
-4.33163
11
4.55118
21
-4.33531
0
LINE
8
BLACK
6
CONTINUOUS
10
4.55118
20
-4.33531
11
4.55197
21
-4.33957
0
LINE
8
BLACK
6
CONTINUOUS
10
4.55197
20
-4.33957
11
4.55197
21
-4.37894
0
LINE
8
BLACK
6
CONTINUOUS
10
4.55197
20
-4.37894
11
4.55174
21
-4.38123
0
LINE
8
BLACK
6
CONTINUOUS
10
4.55174
20
-4.38123
11
4.55014
21
-4.38525
0
LINE
8
BLACK
6
CONTINUOUS
10
4.55014
20
-4.38525
11
4.5472
21
-4.38842
0
LINE
8
BLACK
6
CONTINUOUS
10
4.5472
20
-4.38842
11
4.54331
21
-4.39032
0
LINE
8
BLACK
6
CONTINUOUS
10
4.54331
20
-4.39032
11
4.539
21
-4.39069
0
LINE
8
BLACK
6
CONTINUOUS
10
4.539
20
-4.39069
11
4.53485
21
-4.38949
0
LINE
8
BLACK
6
CONTINUOUS
10
4.53485
20
-4.38949
11
4.53141
21
-4.38687
0
LINE
8
BLACK
6
CONTINUOUS
10
4.53141
20
-4.38687
11
4.52914
21
-4.38319
0
LINE
8
BLACK
6
CONTINUOUS
10
4.52914
20
-4.38319
11
4.52835
21
-4.37894
0
LINE
8
BLACK
6
CONTINUOUS
10
4.52835
20
-4.37894
11
4.52835
21
-4.33957
0
LINE
8
BLACK
6
CONTINUOUS
10
4.52835
20
-4.33957
11
4.52857
21
-4.33727
  0
ENDSEC
  0
EOF
