%TF.GenerationSoftware,KiCad,Pcbnew,8.0.8*%
%TF.CreationDate,2025-04-07T16:00:04+02:00*%
%TF.ProjectId,tv25-tbar,74763235-2d74-4626-9172-2e6b69636164,rev?*%
%TF.SameCoordinates,Original*%
%TF.FileFunction,Legend,Top*%
%TF.FilePolarity,Positive*%
%FSLAX46Y46*%
G04 Gerber Fmt 4.6, Leading zero omitted, Abs format (unit mm)*
G04 Created by KiCad (PCBNEW 8.0.8) date 2025-04-07 16:00:04*
%MOMM*%
%LPD*%
G01*
G04 APERTURE LIST*
%ADD10C,0.150000*%
%ADD11C,0.120000*%
G04 APERTURE END LIST*
D10*
X154238095Y-148754819D02*
X154238095Y-147754819D01*
X154238095Y-148231009D02*
X154809523Y-148231009D01*
X154809523Y-148754819D02*
X154809523Y-147754819D01*
X155714285Y-147754819D02*
X155523809Y-147754819D01*
X155523809Y-147754819D02*
X155428571Y-147802438D01*
X155428571Y-147802438D02*
X155380952Y-147850057D01*
X155380952Y-147850057D02*
X155285714Y-147992914D01*
X155285714Y-147992914D02*
X155238095Y-148183390D01*
X155238095Y-148183390D02*
X155238095Y-148564342D01*
X155238095Y-148564342D02*
X155285714Y-148659580D01*
X155285714Y-148659580D02*
X155333333Y-148707200D01*
X155333333Y-148707200D02*
X155428571Y-148754819D01*
X155428571Y-148754819D02*
X155619047Y-148754819D01*
X155619047Y-148754819D02*
X155714285Y-148707200D01*
X155714285Y-148707200D02*
X155761904Y-148659580D01*
X155761904Y-148659580D02*
X155809523Y-148564342D01*
X155809523Y-148564342D02*
X155809523Y-148326247D01*
X155809523Y-148326247D02*
X155761904Y-148231009D01*
X155761904Y-148231009D02*
X155714285Y-148183390D01*
X155714285Y-148183390D02*
X155619047Y-148135771D01*
X155619047Y-148135771D02*
X155428571Y-148135771D01*
X155428571Y-148135771D02*
X155333333Y-148183390D01*
X155333333Y-148183390D02*
X155285714Y-148231009D01*
X155285714Y-148231009D02*
X155238095Y-148326247D01*
X154238095Y-113754819D02*
X154238095Y-112754819D01*
X154238095Y-113231009D02*
X154809523Y-113231009D01*
X154809523Y-113754819D02*
X154809523Y-112754819D01*
X155761904Y-112754819D02*
X155285714Y-112754819D01*
X155285714Y-112754819D02*
X155238095Y-113231009D01*
X155238095Y-113231009D02*
X155285714Y-113183390D01*
X155285714Y-113183390D02*
X155380952Y-113135771D01*
X155380952Y-113135771D02*
X155619047Y-113135771D01*
X155619047Y-113135771D02*
X155714285Y-113183390D01*
X155714285Y-113183390D02*
X155761904Y-113231009D01*
X155761904Y-113231009D02*
X155809523Y-113326247D01*
X155809523Y-113326247D02*
X155809523Y-113564342D01*
X155809523Y-113564342D02*
X155761904Y-113659580D01*
X155761904Y-113659580D02*
X155714285Y-113707200D01*
X155714285Y-113707200D02*
X155619047Y-113754819D01*
X155619047Y-113754819D02*
X155380952Y-113754819D01*
X155380952Y-113754819D02*
X155285714Y-113707200D01*
X155285714Y-113707200D02*
X155238095Y-113659580D01*
X126738095Y-116254819D02*
X126738095Y-115254819D01*
X126738095Y-115731009D02*
X127309523Y-115731009D01*
X127309523Y-116254819D02*
X127309523Y-115254819D01*
X128214285Y-115588152D02*
X128214285Y-116254819D01*
X127976190Y-115207200D02*
X127738095Y-115921485D01*
X127738095Y-115921485D02*
X128357142Y-115921485D01*
X101954819Y-135595238D02*
X101478628Y-135928571D01*
X101954819Y-136166666D02*
X100954819Y-136166666D01*
X100954819Y-136166666D02*
X100954819Y-135785714D01*
X100954819Y-135785714D02*
X101002438Y-135690476D01*
X101002438Y-135690476D02*
X101050057Y-135642857D01*
X101050057Y-135642857D02*
X101145295Y-135595238D01*
X101145295Y-135595238D02*
X101288152Y-135595238D01*
X101288152Y-135595238D02*
X101383390Y-135642857D01*
X101383390Y-135642857D02*
X101431009Y-135690476D01*
X101431009Y-135690476D02*
X101478628Y-135785714D01*
X101478628Y-135785714D02*
X101478628Y-136166666D01*
X100954819Y-135309523D02*
X101954819Y-134976190D01*
X101954819Y-134976190D02*
X100954819Y-134642857D01*
X100954819Y-134404761D02*
X100954819Y-133785714D01*
X100954819Y-133785714D02*
X101335771Y-134119047D01*
X101335771Y-134119047D02*
X101335771Y-133976190D01*
X101335771Y-133976190D02*
X101383390Y-133880952D01*
X101383390Y-133880952D02*
X101431009Y-133833333D01*
X101431009Y-133833333D02*
X101526247Y-133785714D01*
X101526247Y-133785714D02*
X101764342Y-133785714D01*
X101764342Y-133785714D02*
X101859580Y-133833333D01*
X101859580Y-133833333D02*
X101907200Y-133880952D01*
X101907200Y-133880952D02*
X101954819Y-133976190D01*
X101954819Y-133976190D02*
X101954819Y-134261904D01*
X101954819Y-134261904D02*
X101907200Y-134357142D01*
X101907200Y-134357142D02*
X101859580Y-134404761D01*
X145304819Y-135595238D02*
X144828628Y-135928571D01*
X145304819Y-136166666D02*
X144304819Y-136166666D01*
X144304819Y-136166666D02*
X144304819Y-135785714D01*
X144304819Y-135785714D02*
X144352438Y-135690476D01*
X144352438Y-135690476D02*
X144400057Y-135642857D01*
X144400057Y-135642857D02*
X144495295Y-135595238D01*
X144495295Y-135595238D02*
X144638152Y-135595238D01*
X144638152Y-135595238D02*
X144733390Y-135642857D01*
X144733390Y-135642857D02*
X144781009Y-135690476D01*
X144781009Y-135690476D02*
X144828628Y-135785714D01*
X144828628Y-135785714D02*
X144828628Y-136166666D01*
X144304819Y-135309523D02*
X145304819Y-134976190D01*
X145304819Y-134976190D02*
X144304819Y-134642857D01*
X144400057Y-134357142D02*
X144352438Y-134309523D01*
X144352438Y-134309523D02*
X144304819Y-134214285D01*
X144304819Y-134214285D02*
X144304819Y-133976190D01*
X144304819Y-133976190D02*
X144352438Y-133880952D01*
X144352438Y-133880952D02*
X144400057Y-133833333D01*
X144400057Y-133833333D02*
X144495295Y-133785714D01*
X144495295Y-133785714D02*
X144590533Y-133785714D01*
X144590533Y-133785714D02*
X144733390Y-133833333D01*
X144733390Y-133833333D02*
X145304819Y-134404761D01*
X145304819Y-134404761D02*
X145304819Y-133785714D01*
X108404761Y-126879819D02*
X108071428Y-126403628D01*
X107833333Y-126879819D02*
X107833333Y-125879819D01*
X107833333Y-125879819D02*
X108214285Y-125879819D01*
X108214285Y-125879819D02*
X108309523Y-125927438D01*
X108309523Y-125927438D02*
X108357142Y-125975057D01*
X108357142Y-125975057D02*
X108404761Y-126070295D01*
X108404761Y-126070295D02*
X108404761Y-126213152D01*
X108404761Y-126213152D02*
X108357142Y-126308390D01*
X108357142Y-126308390D02*
X108309523Y-126356009D01*
X108309523Y-126356009D02*
X108214285Y-126403628D01*
X108214285Y-126403628D02*
X107833333Y-126403628D01*
X108690476Y-125879819D02*
X109023809Y-126879819D01*
X109023809Y-126879819D02*
X109357142Y-125879819D01*
X110214285Y-126879819D02*
X109642857Y-126879819D01*
X109928571Y-126879819D02*
X109928571Y-125879819D01*
X109928571Y-125879819D02*
X109833333Y-126022676D01*
X109833333Y-126022676D02*
X109738095Y-126117914D01*
X109738095Y-126117914D02*
X109642857Y-126165533D01*
X150816667Y-98993868D02*
X150959524Y-99041487D01*
X150959524Y-99041487D02*
X151197619Y-99041487D01*
X151197619Y-99041487D02*
X151292857Y-98993868D01*
X151292857Y-98993868D02*
X151340476Y-98946248D01*
X151340476Y-98946248D02*
X151388095Y-98851010D01*
X151388095Y-98851010D02*
X151388095Y-98755772D01*
X151388095Y-98755772D02*
X151340476Y-98660534D01*
X151340476Y-98660534D02*
X151292857Y-98612915D01*
X151292857Y-98612915D02*
X151197619Y-98565296D01*
X151197619Y-98565296D02*
X151007143Y-98517677D01*
X151007143Y-98517677D02*
X150911905Y-98470058D01*
X150911905Y-98470058D02*
X150864286Y-98422439D01*
X150864286Y-98422439D02*
X150816667Y-98327201D01*
X150816667Y-98327201D02*
X150816667Y-98231963D01*
X150816667Y-98231963D02*
X150864286Y-98136725D01*
X150864286Y-98136725D02*
X150911905Y-98089106D01*
X150911905Y-98089106D02*
X151007143Y-98041487D01*
X151007143Y-98041487D02*
X151245238Y-98041487D01*
X151245238Y-98041487D02*
X151388095Y-98089106D01*
X151721429Y-98041487D02*
X151959524Y-99041487D01*
X151959524Y-99041487D02*
X152150000Y-98327201D01*
X152150000Y-98327201D02*
X152340476Y-99041487D01*
X152340476Y-99041487D02*
X152578572Y-98041487D01*
X152864286Y-98041487D02*
X153483333Y-98041487D01*
X153483333Y-98041487D02*
X153150000Y-98422439D01*
X153150000Y-98422439D02*
X153292857Y-98422439D01*
X153292857Y-98422439D02*
X153388095Y-98470058D01*
X153388095Y-98470058D02*
X153435714Y-98517677D01*
X153435714Y-98517677D02*
X153483333Y-98612915D01*
X153483333Y-98612915D02*
X153483333Y-98851010D01*
X153483333Y-98851010D02*
X153435714Y-98946248D01*
X153435714Y-98946248D02*
X153388095Y-98993868D01*
X153388095Y-98993868D02*
X153292857Y-99041487D01*
X153292857Y-99041487D02*
X153007143Y-99041487D01*
X153007143Y-99041487D02*
X152911905Y-98993868D01*
X152911905Y-98993868D02*
X152864286Y-98946248D01*
X131116667Y-163993868D02*
X131259524Y-164041487D01*
X131259524Y-164041487D02*
X131497619Y-164041487D01*
X131497619Y-164041487D02*
X131592857Y-163993868D01*
X131592857Y-163993868D02*
X131640476Y-163946248D01*
X131640476Y-163946248D02*
X131688095Y-163851010D01*
X131688095Y-163851010D02*
X131688095Y-163755772D01*
X131688095Y-163755772D02*
X131640476Y-163660534D01*
X131640476Y-163660534D02*
X131592857Y-163612915D01*
X131592857Y-163612915D02*
X131497619Y-163565296D01*
X131497619Y-163565296D02*
X131307143Y-163517677D01*
X131307143Y-163517677D02*
X131211905Y-163470058D01*
X131211905Y-163470058D02*
X131164286Y-163422439D01*
X131164286Y-163422439D02*
X131116667Y-163327201D01*
X131116667Y-163327201D02*
X131116667Y-163231963D01*
X131116667Y-163231963D02*
X131164286Y-163136725D01*
X131164286Y-163136725D02*
X131211905Y-163089106D01*
X131211905Y-163089106D02*
X131307143Y-163041487D01*
X131307143Y-163041487D02*
X131545238Y-163041487D01*
X131545238Y-163041487D02*
X131688095Y-163089106D01*
X132021429Y-163041487D02*
X132259524Y-164041487D01*
X132259524Y-164041487D02*
X132450000Y-163327201D01*
X132450000Y-163327201D02*
X132640476Y-164041487D01*
X132640476Y-164041487D02*
X132878572Y-163041487D01*
X133783333Y-164041487D02*
X133211905Y-164041487D01*
X133497619Y-164041487D02*
X133497619Y-163041487D01*
X133497619Y-163041487D02*
X133402381Y-163184344D01*
X133402381Y-163184344D02*
X133307143Y-163279582D01*
X133307143Y-163279582D02*
X133211905Y-163327201D01*
X150816667Y-163993868D02*
X150959524Y-164041487D01*
X150959524Y-164041487D02*
X151197619Y-164041487D01*
X151197619Y-164041487D02*
X151292857Y-163993868D01*
X151292857Y-163993868D02*
X151340476Y-163946248D01*
X151340476Y-163946248D02*
X151388095Y-163851010D01*
X151388095Y-163851010D02*
X151388095Y-163755772D01*
X151388095Y-163755772D02*
X151340476Y-163660534D01*
X151340476Y-163660534D02*
X151292857Y-163612915D01*
X151292857Y-163612915D02*
X151197619Y-163565296D01*
X151197619Y-163565296D02*
X151007143Y-163517677D01*
X151007143Y-163517677D02*
X150911905Y-163470058D01*
X150911905Y-163470058D02*
X150864286Y-163422439D01*
X150864286Y-163422439D02*
X150816667Y-163327201D01*
X150816667Y-163327201D02*
X150816667Y-163231963D01*
X150816667Y-163231963D02*
X150864286Y-163136725D01*
X150864286Y-163136725D02*
X150911905Y-163089106D01*
X150911905Y-163089106D02*
X151007143Y-163041487D01*
X151007143Y-163041487D02*
X151245238Y-163041487D01*
X151245238Y-163041487D02*
X151388095Y-163089106D01*
X151721429Y-163041487D02*
X151959524Y-164041487D01*
X151959524Y-164041487D02*
X152150000Y-163327201D01*
X152150000Y-163327201D02*
X152340476Y-164041487D01*
X152340476Y-164041487D02*
X152578572Y-163041487D01*
X153388095Y-163374820D02*
X153388095Y-164041487D01*
X153150000Y-162993868D02*
X152911905Y-163708153D01*
X152911905Y-163708153D02*
X153530952Y-163708153D01*
X116738095Y-96254819D02*
X116738095Y-95254819D01*
X116738095Y-95731009D02*
X117309523Y-95731009D01*
X117309523Y-96254819D02*
X117309523Y-95254819D01*
X117738095Y-95350057D02*
X117785714Y-95302438D01*
X117785714Y-95302438D02*
X117880952Y-95254819D01*
X117880952Y-95254819D02*
X118119047Y-95254819D01*
X118119047Y-95254819D02*
X118214285Y-95302438D01*
X118214285Y-95302438D02*
X118261904Y-95350057D01*
X118261904Y-95350057D02*
X118309523Y-95445295D01*
X118309523Y-95445295D02*
X118309523Y-95540533D01*
X118309523Y-95540533D02*
X118261904Y-95683390D01*
X118261904Y-95683390D02*
X117690476Y-96254819D01*
X117690476Y-96254819D02*
X118309523Y-96254819D01*
X116738095Y-166254819D02*
X116738095Y-165254819D01*
X116738095Y-165731009D02*
X117309523Y-165731009D01*
X117309523Y-166254819D02*
X117309523Y-165254819D01*
X118309523Y-166254819D02*
X117738095Y-166254819D01*
X118023809Y-166254819D02*
X118023809Y-165254819D01*
X118023809Y-165254819D02*
X117928571Y-165397676D01*
X117928571Y-165397676D02*
X117833333Y-165492914D01*
X117833333Y-165492914D02*
X117738095Y-165540533D01*
X141429580Y-171891666D02*
X141477200Y-171939285D01*
X141477200Y-171939285D02*
X141524819Y-172082142D01*
X141524819Y-172082142D02*
X141524819Y-172177380D01*
X141524819Y-172177380D02*
X141477200Y-172320237D01*
X141477200Y-172320237D02*
X141381961Y-172415475D01*
X141381961Y-172415475D02*
X141286723Y-172463094D01*
X141286723Y-172463094D02*
X141096247Y-172510713D01*
X141096247Y-172510713D02*
X140953390Y-172510713D01*
X140953390Y-172510713D02*
X140762914Y-172463094D01*
X140762914Y-172463094D02*
X140667676Y-172415475D01*
X140667676Y-172415475D02*
X140572438Y-172320237D01*
X140572438Y-172320237D02*
X140524819Y-172177380D01*
X140524819Y-172177380D02*
X140524819Y-172082142D01*
X140524819Y-172082142D02*
X140572438Y-171939285D01*
X140572438Y-171939285D02*
X140620057Y-171891666D01*
X141524819Y-170939285D02*
X141524819Y-171510713D01*
X141524819Y-171224999D02*
X140524819Y-171224999D01*
X140524819Y-171224999D02*
X140667676Y-171320237D01*
X140667676Y-171320237D02*
X140762914Y-171415475D01*
X140762914Y-171415475D02*
X140810533Y-171510713D01*
X131711905Y-129829819D02*
X131711905Y-128829819D01*
X131711905Y-128829819D02*
X131950000Y-128829819D01*
X131950000Y-128829819D02*
X132092857Y-128877438D01*
X132092857Y-128877438D02*
X132188095Y-128972676D01*
X132188095Y-128972676D02*
X132235714Y-129067914D01*
X132235714Y-129067914D02*
X132283333Y-129258390D01*
X132283333Y-129258390D02*
X132283333Y-129401247D01*
X132283333Y-129401247D02*
X132235714Y-129591723D01*
X132235714Y-129591723D02*
X132188095Y-129686961D01*
X132188095Y-129686961D02*
X132092857Y-129782200D01*
X132092857Y-129782200D02*
X131950000Y-129829819D01*
X131950000Y-129829819D02*
X131711905Y-129829819D01*
X133188095Y-128829819D02*
X132711905Y-128829819D01*
X132711905Y-128829819D02*
X132664286Y-129306009D01*
X132664286Y-129306009D02*
X132711905Y-129258390D01*
X132711905Y-129258390D02*
X132807143Y-129210771D01*
X132807143Y-129210771D02*
X133045238Y-129210771D01*
X133045238Y-129210771D02*
X133140476Y-129258390D01*
X133140476Y-129258390D02*
X133188095Y-129306009D01*
X133188095Y-129306009D02*
X133235714Y-129401247D01*
X133235714Y-129401247D02*
X133235714Y-129639342D01*
X133235714Y-129639342D02*
X133188095Y-129734580D01*
X133188095Y-129734580D02*
X133140476Y-129782200D01*
X133140476Y-129782200D02*
X133045238Y-129829819D01*
X133045238Y-129829819D02*
X132807143Y-129829819D01*
X132807143Y-129829819D02*
X132711905Y-129782200D01*
X132711905Y-129782200D02*
X132664286Y-129734580D01*
X135421428Y-127137704D02*
X135878571Y-127137704D01*
X135649999Y-127137704D02*
X135649999Y-127937704D01*
X135649999Y-127937704D02*
X135726190Y-127823419D01*
X135726190Y-127823419D02*
X135802380Y-127747228D01*
X135802380Y-127747228D02*
X135878571Y-127709133D01*
X151411905Y-173996487D02*
X151411905Y-172996487D01*
X151411905Y-172996487D02*
X151650000Y-172996487D01*
X151650000Y-172996487D02*
X151792857Y-173044106D01*
X151792857Y-173044106D02*
X151888095Y-173139344D01*
X151888095Y-173139344D02*
X151935714Y-173234582D01*
X151935714Y-173234582D02*
X151983333Y-173425058D01*
X151983333Y-173425058D02*
X151983333Y-173567915D01*
X151983333Y-173567915D02*
X151935714Y-173758391D01*
X151935714Y-173758391D02*
X151888095Y-173853629D01*
X151888095Y-173853629D02*
X151792857Y-173948868D01*
X151792857Y-173948868D02*
X151650000Y-173996487D01*
X151650000Y-173996487D02*
X151411905Y-173996487D01*
X152840476Y-173329820D02*
X152840476Y-173996487D01*
X152602381Y-172948868D02*
X152364286Y-173663153D01*
X152364286Y-173663153D02*
X152983333Y-173663153D01*
X155121428Y-171304372D02*
X155578571Y-171304372D01*
X155349999Y-171304372D02*
X155349999Y-172104372D01*
X155349999Y-172104372D02*
X155426190Y-171990087D01*
X155426190Y-171990087D02*
X155502380Y-171913896D01*
X155502380Y-171913896D02*
X155578571Y-171875801D01*
X151411905Y-108996487D02*
X151411905Y-107996487D01*
X151411905Y-107996487D02*
X151650000Y-107996487D01*
X151650000Y-107996487D02*
X151792857Y-108044106D01*
X151792857Y-108044106D02*
X151888095Y-108139344D01*
X151888095Y-108139344D02*
X151935714Y-108234582D01*
X151935714Y-108234582D02*
X151983333Y-108425058D01*
X151983333Y-108425058D02*
X151983333Y-108567915D01*
X151983333Y-108567915D02*
X151935714Y-108758391D01*
X151935714Y-108758391D02*
X151888095Y-108853629D01*
X151888095Y-108853629D02*
X151792857Y-108948868D01*
X151792857Y-108948868D02*
X151650000Y-108996487D01*
X151650000Y-108996487D02*
X151411905Y-108996487D01*
X152316667Y-107996487D02*
X152935714Y-107996487D01*
X152935714Y-107996487D02*
X152602381Y-108377439D01*
X152602381Y-108377439D02*
X152745238Y-108377439D01*
X152745238Y-108377439D02*
X152840476Y-108425058D01*
X152840476Y-108425058D02*
X152888095Y-108472677D01*
X152888095Y-108472677D02*
X152935714Y-108567915D01*
X152935714Y-108567915D02*
X152935714Y-108806010D01*
X152935714Y-108806010D02*
X152888095Y-108901248D01*
X152888095Y-108901248D02*
X152840476Y-108948868D01*
X152840476Y-108948868D02*
X152745238Y-108996487D01*
X152745238Y-108996487D02*
X152459524Y-108996487D01*
X152459524Y-108996487D02*
X152364286Y-108948868D01*
X152364286Y-108948868D02*
X152316667Y-108901248D01*
X155121428Y-106304372D02*
X155578571Y-106304372D01*
X155349999Y-106304372D02*
X155349999Y-107104372D01*
X155349999Y-107104372D02*
X155426190Y-106990087D01*
X155426190Y-106990087D02*
X155502380Y-106913896D01*
X155502380Y-106913896D02*
X155578571Y-106875801D01*
X131711905Y-173996487D02*
X131711905Y-172996487D01*
X131711905Y-172996487D02*
X131950000Y-172996487D01*
X131950000Y-172996487D02*
X132092857Y-173044106D01*
X132092857Y-173044106D02*
X132188095Y-173139344D01*
X132188095Y-173139344D02*
X132235714Y-173234582D01*
X132235714Y-173234582D02*
X132283333Y-173425058D01*
X132283333Y-173425058D02*
X132283333Y-173567915D01*
X132283333Y-173567915D02*
X132235714Y-173758391D01*
X132235714Y-173758391D02*
X132188095Y-173853629D01*
X132188095Y-173853629D02*
X132092857Y-173948868D01*
X132092857Y-173948868D02*
X131950000Y-173996487D01*
X131950000Y-173996487D02*
X131711905Y-173996487D01*
X133235714Y-173996487D02*
X132664286Y-173996487D01*
X132950000Y-173996487D02*
X132950000Y-172996487D01*
X132950000Y-172996487D02*
X132854762Y-173139344D01*
X132854762Y-173139344D02*
X132759524Y-173234582D01*
X132759524Y-173234582D02*
X132664286Y-173282201D01*
X135421428Y-171304372D02*
X135878571Y-171304372D01*
X135649999Y-171304372D02*
X135649999Y-172104372D01*
X135649999Y-172104372D02*
X135726190Y-171990087D01*
X135726190Y-171990087D02*
X135802380Y-171913896D01*
X135802380Y-171913896D02*
X135878571Y-171875801D01*
X131761905Y-148204819D02*
X131761905Y-147204819D01*
X131761905Y-147204819D02*
X132000000Y-147204819D01*
X132000000Y-147204819D02*
X132142857Y-147252438D01*
X132142857Y-147252438D02*
X132238095Y-147347676D01*
X132238095Y-147347676D02*
X132285714Y-147442914D01*
X132285714Y-147442914D02*
X132333333Y-147633390D01*
X132333333Y-147633390D02*
X132333333Y-147776247D01*
X132333333Y-147776247D02*
X132285714Y-147966723D01*
X132285714Y-147966723D02*
X132238095Y-148061961D01*
X132238095Y-148061961D02*
X132142857Y-148157200D01*
X132142857Y-148157200D02*
X132000000Y-148204819D01*
X132000000Y-148204819D02*
X131761905Y-148204819D01*
X133190476Y-147204819D02*
X133000000Y-147204819D01*
X133000000Y-147204819D02*
X132904762Y-147252438D01*
X132904762Y-147252438D02*
X132857143Y-147300057D01*
X132857143Y-147300057D02*
X132761905Y-147442914D01*
X132761905Y-147442914D02*
X132714286Y-147633390D01*
X132714286Y-147633390D02*
X132714286Y-148014342D01*
X132714286Y-148014342D02*
X132761905Y-148109580D01*
X132761905Y-148109580D02*
X132809524Y-148157200D01*
X132809524Y-148157200D02*
X132904762Y-148204819D01*
X132904762Y-148204819D02*
X133095238Y-148204819D01*
X133095238Y-148204819D02*
X133190476Y-148157200D01*
X133190476Y-148157200D02*
X133238095Y-148109580D01*
X133238095Y-148109580D02*
X133285714Y-148014342D01*
X133285714Y-148014342D02*
X133285714Y-147776247D01*
X133285714Y-147776247D02*
X133238095Y-147681009D01*
X133238095Y-147681009D02*
X133190476Y-147633390D01*
X133190476Y-147633390D02*
X133095238Y-147585771D01*
X133095238Y-147585771D02*
X132904762Y-147585771D01*
X132904762Y-147585771D02*
X132809524Y-147633390D01*
X132809524Y-147633390D02*
X132761905Y-147681009D01*
X132761905Y-147681009D02*
X132714286Y-147776247D01*
X135471428Y-145512704D02*
X135928571Y-145512704D01*
X135699999Y-145512704D02*
X135699999Y-146312704D01*
X135699999Y-146312704D02*
X135776190Y-146198419D01*
X135776190Y-146198419D02*
X135852380Y-146122228D01*
X135852380Y-146122228D02*
X135928571Y-146084133D01*
X141429580Y-107666666D02*
X141477200Y-107714285D01*
X141477200Y-107714285D02*
X141524819Y-107857142D01*
X141524819Y-107857142D02*
X141524819Y-107952380D01*
X141524819Y-107952380D02*
X141477200Y-108095237D01*
X141477200Y-108095237D02*
X141381961Y-108190475D01*
X141381961Y-108190475D02*
X141286723Y-108238094D01*
X141286723Y-108238094D02*
X141096247Y-108285713D01*
X141096247Y-108285713D02*
X140953390Y-108285713D01*
X140953390Y-108285713D02*
X140762914Y-108238094D01*
X140762914Y-108238094D02*
X140667676Y-108190475D01*
X140667676Y-108190475D02*
X140572438Y-108095237D01*
X140572438Y-108095237D02*
X140524819Y-107952380D01*
X140524819Y-107952380D02*
X140524819Y-107857142D01*
X140524819Y-107857142D02*
X140572438Y-107714285D01*
X140572438Y-107714285D02*
X140620057Y-107666666D01*
X140620057Y-107285713D02*
X140572438Y-107238094D01*
X140572438Y-107238094D02*
X140524819Y-107142856D01*
X140524819Y-107142856D02*
X140524819Y-106904761D01*
X140524819Y-106904761D02*
X140572438Y-106809523D01*
X140572438Y-106809523D02*
X140620057Y-106761904D01*
X140620057Y-106761904D02*
X140715295Y-106714285D01*
X140715295Y-106714285D02*
X140810533Y-106714285D01*
X140810533Y-106714285D02*
X140953390Y-106761904D01*
X140953390Y-106761904D02*
X141524819Y-107333332D01*
X141524819Y-107333332D02*
X141524819Y-106714285D01*
X126738095Y-146254819D02*
X126738095Y-145254819D01*
X126738095Y-145731009D02*
X127309523Y-145731009D01*
X127309523Y-146254819D02*
X127309523Y-145254819D01*
X127690476Y-145254819D02*
X128309523Y-145254819D01*
X128309523Y-145254819D02*
X127976190Y-145635771D01*
X127976190Y-145635771D02*
X128119047Y-145635771D01*
X128119047Y-145635771D02*
X128214285Y-145683390D01*
X128214285Y-145683390D02*
X128261904Y-145731009D01*
X128261904Y-145731009D02*
X128309523Y-145826247D01*
X128309523Y-145826247D02*
X128309523Y-146064342D01*
X128309523Y-146064342D02*
X128261904Y-146159580D01*
X128261904Y-146159580D02*
X128214285Y-146207200D01*
X128214285Y-146207200D02*
X128119047Y-146254819D01*
X128119047Y-146254819D02*
X127833333Y-146254819D01*
X127833333Y-146254819D02*
X127738095Y-146207200D01*
X127738095Y-146207200D02*
X127690476Y-146159580D01*
X131116667Y-98993868D02*
X131259524Y-99041487D01*
X131259524Y-99041487D02*
X131497619Y-99041487D01*
X131497619Y-99041487D02*
X131592857Y-98993868D01*
X131592857Y-98993868D02*
X131640476Y-98946248D01*
X131640476Y-98946248D02*
X131688095Y-98851010D01*
X131688095Y-98851010D02*
X131688095Y-98755772D01*
X131688095Y-98755772D02*
X131640476Y-98660534D01*
X131640476Y-98660534D02*
X131592857Y-98612915D01*
X131592857Y-98612915D02*
X131497619Y-98565296D01*
X131497619Y-98565296D02*
X131307143Y-98517677D01*
X131307143Y-98517677D02*
X131211905Y-98470058D01*
X131211905Y-98470058D02*
X131164286Y-98422439D01*
X131164286Y-98422439D02*
X131116667Y-98327201D01*
X131116667Y-98327201D02*
X131116667Y-98231963D01*
X131116667Y-98231963D02*
X131164286Y-98136725D01*
X131164286Y-98136725D02*
X131211905Y-98089106D01*
X131211905Y-98089106D02*
X131307143Y-98041487D01*
X131307143Y-98041487D02*
X131545238Y-98041487D01*
X131545238Y-98041487D02*
X131688095Y-98089106D01*
X132021429Y-98041487D02*
X132259524Y-99041487D01*
X132259524Y-99041487D02*
X132450000Y-98327201D01*
X132450000Y-98327201D02*
X132640476Y-99041487D01*
X132640476Y-99041487D02*
X132878572Y-98041487D01*
X133211905Y-98136725D02*
X133259524Y-98089106D01*
X133259524Y-98089106D02*
X133354762Y-98041487D01*
X133354762Y-98041487D02*
X133592857Y-98041487D01*
X133592857Y-98041487D02*
X133688095Y-98089106D01*
X133688095Y-98089106D02*
X133735714Y-98136725D01*
X133735714Y-98136725D02*
X133783333Y-98231963D01*
X133783333Y-98231963D02*
X133783333Y-98327201D01*
X133783333Y-98327201D02*
X133735714Y-98470058D01*
X133735714Y-98470058D02*
X133164286Y-99041487D01*
X133164286Y-99041487D02*
X133783333Y-99041487D01*
X131711905Y-108996487D02*
X131711905Y-107996487D01*
X131711905Y-107996487D02*
X131950000Y-107996487D01*
X131950000Y-107996487D02*
X132092857Y-108044106D01*
X132092857Y-108044106D02*
X132188095Y-108139344D01*
X132188095Y-108139344D02*
X132235714Y-108234582D01*
X132235714Y-108234582D02*
X132283333Y-108425058D01*
X132283333Y-108425058D02*
X132283333Y-108567915D01*
X132283333Y-108567915D02*
X132235714Y-108758391D01*
X132235714Y-108758391D02*
X132188095Y-108853629D01*
X132188095Y-108853629D02*
X132092857Y-108948868D01*
X132092857Y-108948868D02*
X131950000Y-108996487D01*
X131950000Y-108996487D02*
X131711905Y-108996487D01*
X132664286Y-108091725D02*
X132711905Y-108044106D01*
X132711905Y-108044106D02*
X132807143Y-107996487D01*
X132807143Y-107996487D02*
X133045238Y-107996487D01*
X133045238Y-107996487D02*
X133140476Y-108044106D01*
X133140476Y-108044106D02*
X133188095Y-108091725D01*
X133188095Y-108091725D02*
X133235714Y-108186963D01*
X133235714Y-108186963D02*
X133235714Y-108282201D01*
X133235714Y-108282201D02*
X133188095Y-108425058D01*
X133188095Y-108425058D02*
X132616667Y-108996487D01*
X132616667Y-108996487D02*
X133235714Y-108996487D01*
X135421428Y-106304372D02*
X135878571Y-106304372D01*
X135649999Y-106304372D02*
X135649999Y-107104372D01*
X135649999Y-107104372D02*
X135726190Y-106990087D01*
X135726190Y-106990087D02*
X135802380Y-106913896D01*
X135802380Y-106913896D02*
X135878571Y-106875801D01*
D11*
%TO.C,RV3*%
X112000000Y-97250000D02*
X103000000Y-97250000D01*
X103000000Y-97250000D02*
X103000000Y-172250000D01*
X103000000Y-172250000D02*
X112000000Y-172250000D01*
X112000000Y-172250000D02*
X112000000Y-97250000D01*
X108500000Y-99250000D02*
G75*
G02*
X106500000Y-99250000I-1000000J0D01*
G01*
X106500000Y-99250000D02*
G75*
G02*
X108500000Y-99250000I1000000J0D01*
G01*
X108500000Y-170250000D02*
G75*
G02*
X106500000Y-170250000I-1000000J0D01*
G01*
X106500000Y-170250000D02*
G75*
G02*
X108500000Y-170250000I1000000J0D01*
G01*
X108500000Y-100950000D02*
X108300000Y-100750000D01*
X108300000Y-100750000D02*
X106700000Y-100750000D01*
X106700000Y-100750000D02*
X106500000Y-100950000D01*
X106500000Y-100950000D02*
X106500000Y-168550000D01*
X106500000Y-168550000D02*
X106700000Y-168750000D01*
X106700000Y-168750000D02*
X108300000Y-168750000D01*
X108300000Y-168750000D02*
X108500000Y-168550000D01*
X108500000Y-168550000D02*
X108500000Y-100950000D01*
%TO.C,RV2*%
X147479000Y-140170000D02*
X149129000Y-140170000D01*
X147479000Y-140170000D02*
X147479000Y-136233000D01*
X150871000Y-140170000D02*
X151630000Y-140170000D01*
X153371000Y-140170000D02*
X154130000Y-140170000D01*
X155870000Y-140170000D02*
X157520000Y-140170000D01*
X157520000Y-140170000D02*
X157520000Y-136233000D01*
X147479000Y-131866000D02*
X147479000Y-127930000D01*
X157520000Y-131866000D02*
X157520000Y-127930000D01*
X147479000Y-127930000D02*
X157520000Y-127930000D01*
%TO.C,RV1*%
X108255000Y-129954000D02*
X112520000Y-129954000D01*
X108255000Y-139995000D02*
X112520000Y-139995000D01*
X105480000Y-132531000D02*
X105480000Y-137420000D01*
X112520000Y-129954000D02*
X112520000Y-139995000D01*
X112520000Y-131605000D02*
X113320000Y-131605000D01*
X112520000Y-138345000D02*
X113320000Y-138345000D01*
X112520000Y-131605000D02*
X112520000Y-138345000D01*
X113320000Y-131605000D02*
X113320000Y-138345000D01*
X113320000Y-131855000D02*
X120720000Y-131855000D01*
X113320000Y-138095000D02*
X120720000Y-138095000D01*
X113320000Y-131855000D02*
X113320000Y-138095000D01*
X120720000Y-131855000D02*
X120720000Y-138095000D01*
%TO.C,SW3*%
X148950000Y-99586668D02*
X148950000Y-100786668D01*
X148950000Y-102386668D02*
X148950000Y-103586668D01*
X148950000Y-103586668D02*
X155350000Y-103586668D01*
X155350000Y-99586668D02*
X148950000Y-99586668D01*
X155350000Y-100786668D02*
X155350000Y-99586668D01*
X155350000Y-103586668D02*
X155350000Y-102386668D01*
%TO.C,SW1*%
X135650000Y-168586668D02*
X135650000Y-167386668D01*
X135650000Y-165786668D02*
X135650000Y-164586668D01*
X135650000Y-164586668D02*
X129250000Y-164586668D01*
X129250000Y-168586668D02*
X135650000Y-168586668D01*
X129250000Y-167386668D02*
X129250000Y-168586668D01*
X129250000Y-164586668D02*
X129250000Y-165786668D01*
%TO.C,SW4*%
X148950000Y-164586668D02*
X148950000Y-165786668D01*
X148950000Y-167386668D02*
X148950000Y-168586668D01*
X148950000Y-168586668D02*
X155350000Y-168586668D01*
X155350000Y-164586668D02*
X148950000Y-164586668D01*
X155350000Y-165786668D02*
X155350000Y-164586668D01*
X155350000Y-168586668D02*
X155350000Y-167386668D01*
%TO.C,C1*%
X141990000Y-171865580D02*
X141990000Y-171584420D01*
X143010000Y-171865580D02*
X143010000Y-171584420D01*
%TO.C,D5*%
X135250000Y-128625000D02*
X135250000Y-124625000D01*
X135250000Y-128625000D02*
X129650000Y-128625000D01*
X135250000Y-124625000D02*
X130250000Y-124625000D01*
X129650000Y-125225000D02*
X130250000Y-124625000D01*
X129650000Y-125225000D02*
X129650000Y-128625000D01*
%TO.C,D4*%
X149350000Y-169391668D02*
X149350000Y-172791668D01*
X149350000Y-169391668D02*
X149950000Y-168791668D01*
X154950000Y-168791668D02*
X149950000Y-168791668D01*
X154950000Y-172791668D02*
X149350000Y-172791668D01*
X154950000Y-172791668D02*
X154950000Y-168791668D01*
%TO.C,D3*%
X149350000Y-104391668D02*
X149350000Y-107791668D01*
X149350000Y-104391668D02*
X149950000Y-103791668D01*
X154950000Y-103791668D02*
X149950000Y-103791668D01*
X154950000Y-107791668D02*
X149350000Y-107791668D01*
X154950000Y-107791668D02*
X154950000Y-103791668D01*
%TO.C,D1*%
X135250000Y-172791668D02*
X135250000Y-168791668D01*
X135250000Y-172791668D02*
X129650000Y-172791668D01*
X135250000Y-168791668D02*
X130250000Y-168791668D01*
X129650000Y-169391668D02*
X130250000Y-168791668D01*
X129650000Y-169391668D02*
X129650000Y-172791668D01*
%TO.C,D6*%
X135300000Y-147000000D02*
X135300000Y-143000000D01*
X135300000Y-147000000D02*
X129700000Y-147000000D01*
X135300000Y-143000000D02*
X130300000Y-143000000D01*
X129700000Y-143600000D02*
X130300000Y-143000000D01*
X129700000Y-143600000D02*
X129700000Y-147000000D01*
%TO.C,C2*%
X141990000Y-107640580D02*
X141990000Y-107359420D01*
X143010000Y-107640580D02*
X143010000Y-107359420D01*
%TO.C,SW2*%
X135650000Y-103586668D02*
X135650000Y-102386668D01*
X135650000Y-100786668D02*
X135650000Y-99586668D01*
X135650000Y-99586668D02*
X129250000Y-99586668D01*
X129250000Y-103586668D02*
X135650000Y-103586668D01*
X129250000Y-102386668D02*
X129250000Y-103586668D01*
X129250000Y-99586668D02*
X129250000Y-100786668D01*
%TO.C,D2*%
X135250000Y-107791668D02*
X135250000Y-103791668D01*
X135250000Y-107791668D02*
X129650000Y-107791668D01*
X135250000Y-103791668D02*
X130250000Y-103791668D01*
X129650000Y-104391668D02*
X130250000Y-103791668D01*
X129650000Y-104391668D02*
X129650000Y-107791668D01*
%TD*%
M02*
