%TF.GenerationSoftware,KiCad,Pcbnew,8.0.8*%
%TF.CreationDate,2025-04-07T16:00:04+02:00*%
%TF.ProjectId,tv25-tbar,74763235-2d74-4626-9172-2e6b69636164,rev?*%
%TF.SameCoordinates,Original*%
%TF.FileFunction,Copper,L1,Top*%
%TF.FilePolarity,Positive*%
%FSLAX46Y46*%
G04 Gerber Fmt 4.6, Leading zero omitted, Abs format (unit mm)*
G04 Created by KiCad (PCBNEW 8.0.8) date 2025-04-07 16:00:04*
%MOMM*%
%LPD*%
G01*
G04 APERTURE LIST*
G04 Aperture macros list*
%AMRoundRect*
0 Rectangle with rounded corners*
0 $1 Rounding radius*
0 $2 $3 $4 $5 $6 $7 $8 $9 X,Y pos of 4 corners*
0 Add a 4 corners polygon primitive as box body*
4,1,4,$2,$3,$4,$5,$6,$7,$8,$9,$2,$3,0*
0 Add four circle primitives for the rounded corners*
1,1,$1+$1,$2,$3*
1,1,$1+$1,$4,$5*
1,1,$1+$1,$6,$7*
1,1,$1+$1,$8,$9*
0 Add four rect primitives between the rounded corners*
20,1,$1+$1,$2,$3,$4,$5,0*
20,1,$1+$1,$4,$5,$6,$7,0*
20,1,$1+$1,$6,$7,$8,$9,0*
20,1,$1+$1,$8,$9,$2,$3,0*%
G04 Aperture macros list end*
%TA.AperFunction,ComponentPad*%
%ADD10O,1.700000X2.000000*%
%TD*%
%TA.AperFunction,ComponentPad*%
%ADD11C,3.500000*%
%TD*%
%TA.AperFunction,WasherPad*%
%ADD12C,4.000000*%
%TD*%
%TA.AperFunction,ComponentPad*%
%ADD13C,1.800000*%
%TD*%
%TA.AperFunction,ComponentPad*%
%ADD14C,4.600000*%
%TD*%
%TA.AperFunction,SMDPad,CuDef*%
%ADD15R,1.250000X1.000000*%
%TD*%
%TA.AperFunction,SMDPad,CuDef*%
%ADD16RoundRect,0.225000X0.250000X-0.225000X0.250000X0.225000X-0.250000X0.225000X-0.250000X-0.225000X0*%
%TD*%
%TA.AperFunction,SMDPad,CuDef*%
%ADD17R,1.600000X0.850000*%
%TD*%
%TA.AperFunction,ComponentPad*%
%ADD18RoundRect,0.250000X0.600000X0.600000X-0.600000X0.600000X-0.600000X-0.600000X0.600000X-0.600000X0*%
%TD*%
%TA.AperFunction,ComponentPad*%
%ADD19C,1.700000*%
%TD*%
%TA.AperFunction,ViaPad*%
%ADD20C,0.600000*%
%TD*%
%TA.AperFunction,Conductor*%
%ADD21C,0.200000*%
%TD*%
%TA.AperFunction,Conductor*%
%ADD22C,0.400000*%
%TD*%
G04 APERTURE END LIST*
D10*
%TO.P,RV3,2,2*%
%TO.N,Net-(J1-Pin_7)*%
X111250000Y-99750000D03*
%TO.P,RV3,1,1*%
%TO.N,GND*%
X108750000Y-99750000D03*
%TO.P,RV3,2B*%
%TO.N,N/C*%
X106250000Y-99750000D03*
%TO.P,RV3,1B*%
X103750000Y-99750000D03*
%TO.P,RV3,3,3*%
%TO.N,+3V3*%
X108750000Y-169750000D03*
%TO.P,RV3,3B*%
%TO.N,N/C*%
X103750000Y-169750000D03*
D11*
%TO.P,RV3,SH*%
X107500000Y-109750000D03*
X107500000Y-157250000D03*
%TD*%
D12*
%TO.P,RV2,*%
%TO.N,*%
X148100000Y-134050000D03*
X156900000Y-134050000D03*
D13*
%TO.P,RV2,1,1*%
%TO.N,GND*%
X155000000Y-141050000D03*
%TO.P,RV2,2,2*%
%TO.N,Net-(J1-Pin_8)*%
X152500000Y-141050000D03*
%TO.P,RV2,3,3*%
%TO.N,+3V3*%
X150000000Y-141050000D03*
%TD*%
%TO.P,RV1,3,3*%
%TO.N,+3V3*%
X109000000Y-132475000D03*
%TO.P,RV1,2,2*%
%TO.N,Net-(J1-Pin_7)*%
X109000000Y-134975000D03*
%TO.P,RV1,1,1*%
%TO.N,GND*%
X109000000Y-137475000D03*
D14*
%TO.P,RV1,*%
%TO.N,*%
X105700000Y-129975000D03*
X105700000Y-139975000D03*
%TD*%
D15*
%TO.P,SW3,1,1*%
%TO.N,Net-(J1-Pin_5)*%
X148275000Y-101586668D03*
%TO.P,SW3,2,2*%
%TO.N,GND*%
X156025000Y-101586668D03*
%TD*%
%TO.P,SW1,2,2*%
%TO.N,GND*%
X136325000Y-166586668D03*
%TO.P,SW1,1,1*%
%TO.N,Net-(J1-Pin_3)*%
X128575000Y-166586668D03*
%TD*%
%TO.P,SW4,1,1*%
%TO.N,Net-(J1-Pin_6)*%
X148275000Y-166586668D03*
%TO.P,SW4,2,2*%
%TO.N,GND*%
X156025000Y-166586668D03*
%TD*%
D16*
%TO.P,C1,1*%
%TO.N,+3V3*%
X142500000Y-172500000D03*
%TO.P,C1,2*%
%TO.N,GND*%
X142500000Y-170950000D03*
%TD*%
D17*
%TO.P,D5,4,VDD*%
%TO.N,+3V3*%
X130700000Y-127500000D03*
%TO.P,D5,3,DIN*%
%TO.N,Net-(D4-DOUT)*%
X130700000Y-125750000D03*
%TO.P,D5,2,VSS*%
%TO.N,GND*%
X134200000Y-125750000D03*
%TO.P,D5,1,DOUT*%
%TO.N,Net-(D5-DOUT)*%
X134200000Y-127500000D03*
%TD*%
%TO.P,D4,1,DOUT*%
%TO.N,Net-(D4-DOUT)*%
X153900000Y-171666668D03*
%TO.P,D4,2,VSS*%
%TO.N,GND*%
X153900000Y-169916668D03*
%TO.P,D4,3,DIN*%
%TO.N,Net-(D3-DOUT)*%
X150400000Y-169916668D03*
%TO.P,D4,4,VDD*%
%TO.N,+3V3*%
X150400000Y-171666668D03*
%TD*%
%TO.P,D3,1,DOUT*%
%TO.N,Net-(D3-DOUT)*%
X153900000Y-106666668D03*
%TO.P,D3,2,VSS*%
%TO.N,GND*%
X153900000Y-104916668D03*
%TO.P,D3,3,DIN*%
%TO.N,Net-(D2-DOUT)*%
X150400000Y-104916668D03*
%TO.P,D3,4,VDD*%
%TO.N,+3V3*%
X150400000Y-106666668D03*
%TD*%
%TO.P,D1,4,VDD*%
%TO.N,+3V3*%
X130700000Y-171666668D03*
%TO.P,D1,3,DIN*%
%TO.N,Net-(D1-DIN)*%
X130700000Y-169916668D03*
%TO.P,D1,2,VSS*%
%TO.N,GND*%
X134200000Y-169916668D03*
%TO.P,D1,1,DOUT*%
%TO.N,Net-(D1-DOUT)*%
X134200000Y-171666668D03*
%TD*%
%TO.P,D6,4,VDD*%
%TO.N,+3V3*%
X130750000Y-145875000D03*
%TO.P,D6,3,DIN*%
%TO.N,Net-(D5-DOUT)*%
X130750000Y-144125000D03*
%TO.P,D6,2,VSS*%
%TO.N,GND*%
X134250000Y-144125000D03*
%TO.P,D6,1,DOUT*%
%TO.N,Net-(D6-DOUT)*%
X134250000Y-145875000D03*
%TD*%
D16*
%TO.P,C2,1*%
%TO.N,+3V3*%
X142500000Y-108275000D03*
%TO.P,C2,2*%
%TO.N,GND*%
X142500000Y-106725000D03*
%TD*%
D15*
%TO.P,SW2,2,2*%
%TO.N,GND*%
X136325000Y-101586668D03*
%TO.P,SW2,1,1*%
%TO.N,Net-(J1-Pin_4)*%
X128575000Y-101586668D03*
%TD*%
D17*
%TO.P,D2,4,VDD*%
%TO.N,+3V3*%
X130700000Y-106666668D03*
%TO.P,D2,3,DIN*%
%TO.N,Net-(D1-DOUT)*%
X130700000Y-104916668D03*
%TO.P,D2,2,VSS*%
%TO.N,GND*%
X134200000Y-104916668D03*
%TO.P,D2,1,DOUT*%
%TO.N,Net-(D2-DOUT)*%
X134200000Y-106666668D03*
%TD*%
D18*
%TO.P,J1,1,Pin_1*%
%TO.N,+3V3*%
X140000000Y-129840000D03*
D19*
%TO.P,J1,2,Pin_2*%
%TO.N,Net-(D1-DIN)*%
X137460000Y-129840000D03*
%TO.P,J1,3,Pin_3*%
%TO.N,Net-(J1-Pin_3)*%
X140000000Y-132380000D03*
%TO.P,J1,4,Pin_4*%
%TO.N,Net-(J1-Pin_4)*%
X137460000Y-132380000D03*
%TO.P,J1,5,Pin_5*%
%TO.N,Net-(J1-Pin_5)*%
X140000000Y-134920000D03*
%TO.P,J1,6,Pin_6*%
%TO.N,Net-(J1-Pin_6)*%
X137460000Y-134920000D03*
%TO.P,J1,7,Pin_7*%
%TO.N,Net-(J1-Pin_7)*%
X140000000Y-137460000D03*
%TO.P,J1,8,Pin_8*%
%TO.N,Net-(J1-Pin_8)*%
X137460000Y-137460000D03*
%TO.P,J1,9,Pin_9*%
%TO.N,Net-(D6-DOUT)*%
X140000000Y-140000000D03*
%TO.P,J1,10,Pin_10*%
%TO.N,GND*%
X137460000Y-140000000D03*
%TD*%
D20*
%TO.N,*%
X68800000Y-66000000D03*
%TO.N,GND*%
X128800000Y-113200000D03*
X135000000Y-109800000D03*
X144800000Y-110000000D03*
X138600000Y-143400000D03*
%TO.N,+3V3*%
X131400000Y-146000000D03*
X149400000Y-173700000D03*
%TO.N,Net-(D4-DOUT)*%
X132200000Y-126000000D03*
X155400000Y-171800006D03*
%TD*%
D21*
%TO.N,Net-(J1-Pin_4)*%
X128575000Y-101586668D02*
X128575000Y-106482107D01*
X128575000Y-106482107D02*
X138610000Y-116517107D01*
X138610000Y-116517107D02*
X138610000Y-131230000D01*
X138610000Y-131230000D02*
X137460000Y-132380000D01*
D22*
%TO.N,+3V3*%
X150400000Y-106666668D02*
X148666668Y-108400000D01*
X148000000Y-108600000D02*
X140000000Y-108600000D01*
X148666668Y-108400000D02*
X148200000Y-108400000D01*
X148200000Y-108400000D02*
X148000000Y-108600000D01*
X140000000Y-108600000D02*
X140000000Y-129840000D01*
X140000000Y-108600000D02*
X139200000Y-108600000D01*
D21*
%TO.N,Net-(J1-Pin_6)*%
X136100000Y-136280000D02*
X137460000Y-134920000D01*
X141800000Y-138610000D02*
X136983654Y-138610000D01*
X136983654Y-138610000D02*
X136100000Y-137726346D01*
X148275000Y-145085000D02*
X141800000Y-138610000D01*
X148275000Y-166586668D02*
X148275000Y-145085000D01*
X136100000Y-137726346D02*
X136100000Y-136280000D01*
D22*
%TO.N,GND*%
X134200000Y-125750000D02*
X135317894Y-125750000D01*
X135600000Y-138140000D02*
X137460000Y-140000000D01*
X135317894Y-125750000D02*
X135600000Y-126032106D01*
X135600000Y-126032106D02*
X135600000Y-138140000D01*
X137460000Y-140000000D02*
X137460000Y-142260000D01*
X137460000Y-142260000D02*
X138600000Y-143400000D01*
%TO.N,+3V3*%
X138800000Y-108200000D02*
X138400000Y-108200000D01*
X139200000Y-108600000D02*
X138800000Y-108200000D01*
X131000000Y-108200000D02*
X138800000Y-108200000D01*
D21*
%TO.N,Net-(J1-Pin_5)*%
X148275000Y-101586668D02*
X148895000Y-101586668D01*
X148873774Y-108900000D02*
X148700000Y-108900000D01*
X148895000Y-101586668D02*
X151500000Y-104191668D01*
X141150000Y-116450000D02*
X141150000Y-133770000D01*
X151500000Y-104191668D02*
X151500000Y-107391668D01*
X151500000Y-107391668D02*
X150382106Y-107391668D01*
X150382106Y-107391668D02*
X148873774Y-108900000D01*
X148700000Y-108900000D02*
X141150000Y-116450000D01*
X141150000Y-133770000D02*
X140000000Y-134920000D01*
%TO.N,Net-(D3-DOUT)*%
X153900000Y-106666668D02*
X159200000Y-111966668D01*
X159200000Y-171400000D02*
X157600000Y-173000000D01*
X157600000Y-173000000D02*
X152800000Y-173000000D01*
X159200000Y-111966668D02*
X159200000Y-171400000D01*
X151400000Y-169916668D02*
X150400000Y-169916668D01*
X152800000Y-173000000D02*
X152000000Y-172200000D01*
X152000000Y-172200000D02*
X152000000Y-170516668D01*
X152000000Y-170516668D02*
X151400000Y-169916668D01*
%TO.N,Net-(D4-DOUT)*%
X153900000Y-171666668D02*
X155266662Y-171666668D01*
X155266662Y-171666668D02*
X155400000Y-171800006D01*
%TO.N,Net-(J1-Pin_3)*%
X128575000Y-166586668D02*
X127786668Y-166586668D01*
X135225000Y-124950000D02*
X136200000Y-125925000D01*
X125450000Y-164250000D02*
X125450000Y-128950000D01*
X136200000Y-132746346D02*
X136983654Y-133530000D01*
X125450000Y-128950000D02*
X129450000Y-124950000D01*
X127786668Y-166586668D02*
X125450000Y-164250000D01*
X136983654Y-133530000D02*
X138850000Y-133530000D01*
X129450000Y-124950000D02*
X135225000Y-124950000D01*
X136200000Y-125925000D02*
X136200000Y-132746346D01*
X138850000Y-133530000D02*
X140000000Y-132380000D01*
%TO.N,Net-(D1-DIN)*%
X129916668Y-169916668D02*
X125050000Y-165050000D01*
X125050000Y-165050000D02*
X125050000Y-127550000D01*
X137460000Y-126619314D02*
X137460000Y-129840000D01*
X125050000Y-127550000D02*
X128800000Y-123800000D01*
X128800000Y-123800000D02*
X134640686Y-123800000D01*
X130700000Y-169916668D02*
X129916668Y-169916668D01*
X134640686Y-123800000D02*
X137460000Y-126619314D01*
%TO.N,Net-(D1-DOUT)*%
X134200000Y-171666668D02*
X133333332Y-170800000D01*
X126213332Y-100786668D02*
X129386668Y-100786668D01*
X133333332Y-170800000D02*
X129800000Y-170800000D01*
X124650000Y-165650000D02*
X124650000Y-102350000D01*
X124650000Y-102350000D02*
X126213332Y-100786668D01*
X129800000Y-170800000D02*
X124650000Y-165650000D01*
X130700000Y-102100000D02*
X130700000Y-104916668D01*
X129386668Y-100786668D02*
X130700000Y-102100000D01*
%TO.N,Net-(D5-DOUT)*%
X134200000Y-127500000D02*
X130200000Y-131500000D01*
X130200000Y-131500000D02*
X130200000Y-143575000D01*
X130200000Y-143575000D02*
X130750000Y-144125000D01*
D22*
%TO.N,+3V3*%
X130875000Y-146000000D02*
X130750000Y-145875000D01*
X131400000Y-146000000D02*
X130875000Y-146000000D01*
X130750000Y-145875000D02*
X130275000Y-145875000D01*
X129300000Y-144900000D02*
X129300000Y-127500000D01*
X130275000Y-145875000D02*
X129300000Y-144900000D01*
X130700000Y-127500000D02*
X129300000Y-127500000D01*
X109000000Y-132475000D02*
X107700000Y-133775000D01*
X109800000Y-140113478D02*
X109800000Y-168700000D01*
X107700000Y-133775000D02*
X107700000Y-138013478D01*
X109800000Y-168700000D02*
X108750000Y-169750000D01*
X107700000Y-138013478D02*
X109800000Y-140113478D01*
X130700000Y-106666668D02*
X130700000Y-107900000D01*
X130700000Y-107900000D02*
X131000000Y-108200000D01*
X131400000Y-173700000D02*
X142600000Y-173700000D01*
X130700000Y-173700000D02*
X131400000Y-173700000D01*
X131400000Y-173700000D02*
X112700000Y-173700000D01*
X112700000Y-173700000D02*
X108750000Y-169750000D01*
X142600000Y-173700000D02*
X150100000Y-173700000D01*
X142500000Y-172500000D02*
X142500000Y-173600000D01*
X142500000Y-173600000D02*
X142600000Y-173700000D01*
X130700000Y-171666668D02*
X130700000Y-173700000D01*
X150100000Y-173700000D02*
X150400000Y-173400000D01*
X150400000Y-173400000D02*
X150400000Y-171666668D01*
D21*
%TO.N,Net-(D4-DOUT)*%
X130700000Y-125750000D02*
X131950000Y-125750000D01*
X131950000Y-125750000D02*
X132200000Y-126000000D01*
%TO.N,Net-(D6-DOUT)*%
X134250000Y-145875000D02*
X137325000Y-145875000D01*
X140000000Y-143200000D02*
X140000000Y-140000000D01*
X137325000Y-145875000D02*
X140000000Y-143200000D01*
%TO.N,Net-(J1-Pin_8)*%
X152500000Y-141050000D02*
X150300000Y-138850000D01*
X150300000Y-138850000D02*
X143450000Y-138850000D01*
X143450000Y-138850000D02*
X140800000Y-136200000D01*
X140800000Y-136200000D02*
X138720000Y-136200000D01*
X138720000Y-136200000D02*
X137460000Y-137460000D01*
%TO.N,Net-(D2-DOUT)*%
X134200000Y-106666668D02*
X135008332Y-107475000D01*
X135008332Y-107475000D02*
X147841668Y-107475000D01*
X147841668Y-107475000D02*
X150400000Y-104916668D01*
%TO.N,GND*%
X134200000Y-104916668D02*
X134200000Y-103711668D01*
X134200000Y-103711668D02*
X136325000Y-101586668D01*
%TO.N,Net-(J1-Pin_7)*%
X111250000Y-99750000D02*
X111250000Y-132725000D01*
X111250000Y-132725000D02*
X109000000Y-134975000D01*
%TD*%
%TA.AperFunction,Conductor*%
%TO.N,GND*%
G36*
X159442539Y-95520185D02*
G01*
X159488294Y-95572989D01*
X159499500Y-95624500D01*
X159499500Y-111117571D01*
X159479815Y-111184610D01*
X159427011Y-111230365D01*
X159357853Y-111240309D01*
X159294297Y-111211284D01*
X159287819Y-111205252D01*
X155236818Y-107154251D01*
X155203333Y-107092928D01*
X155200499Y-107066570D01*
X155200499Y-106193797D01*
X155200498Y-106193791D01*
X155200497Y-106193784D01*
X155194091Y-106134185D01*
X155190320Y-106124075D01*
X155143797Y-105999339D01*
X155143793Y-105999332D01*
X155057547Y-105884123D01*
X155052416Y-105878992D01*
X155018931Y-105817669D01*
X155023915Y-105747977D01*
X155052416Y-105703630D01*
X155057190Y-105698855D01*
X155143350Y-105583761D01*
X155143354Y-105583754D01*
X155193596Y-105449047D01*
X155193598Y-105449040D01*
X155199999Y-105389512D01*
X155200000Y-105389495D01*
X155200000Y-105166668D01*
X152600000Y-105166668D01*
X152600000Y-105389512D01*
X152606401Y-105449040D01*
X152606403Y-105449047D01*
X152656645Y-105583754D01*
X152656649Y-105583761D01*
X152742809Y-105698855D01*
X152747584Y-105703630D01*
X152781069Y-105764953D01*
X152776085Y-105834645D01*
X152747584Y-105878992D01*
X152742452Y-105884123D01*
X152656206Y-105999332D01*
X152656202Y-105999339D01*
X152605908Y-106134185D01*
X152601684Y-106173480D01*
X152599501Y-106193791D01*
X152599500Y-106193803D01*
X152599500Y-107139538D01*
X152599501Y-107139544D01*
X152605908Y-107199151D01*
X152656202Y-107333996D01*
X152656206Y-107334003D01*
X152742452Y-107449212D01*
X152742455Y-107449215D01*
X152857664Y-107535461D01*
X152857671Y-107535465D01*
X152992517Y-107585759D01*
X152992516Y-107585759D01*
X152999444Y-107586503D01*
X153052127Y-107592168D01*
X153924902Y-107592167D01*
X153991941Y-107611851D01*
X154012583Y-107628486D01*
X158563181Y-112179084D01*
X158596666Y-112240407D01*
X158599500Y-112266765D01*
X158599500Y-131950606D01*
X158579815Y-132017645D01*
X158527011Y-132063400D01*
X158457853Y-132073344D01*
X158402615Y-132050924D01*
X158242495Y-131934591D01*
X158242488Y-131934586D01*
X158242484Y-131934584D01*
X157966766Y-131783006D01*
X157966763Y-131783004D01*
X157966758Y-131783002D01*
X157966757Y-131783001D01*
X157674228Y-131667181D01*
X157674225Y-131667180D01*
X157369476Y-131588934D01*
X157369463Y-131588932D01*
X157057329Y-131549500D01*
X157057318Y-131549500D01*
X156742682Y-131549500D01*
X156742670Y-131549500D01*
X156430536Y-131588932D01*
X156430523Y-131588934D01*
X156125774Y-131667180D01*
X156125771Y-131667181D01*
X155833242Y-131783001D01*
X155833241Y-131783002D01*
X155557516Y-131934584D01*
X155557504Y-131934591D01*
X155302978Y-132119515D01*
X155302968Y-132119523D01*
X155073608Y-132334907D01*
X155073606Y-132334909D01*
X154873054Y-132577334D01*
X154873051Y-132577338D01*
X154704464Y-132842990D01*
X154704461Y-132842996D01*
X154570499Y-133127678D01*
X154570497Y-133127683D01*
X154473270Y-133426916D01*
X154414311Y-133735988D01*
X154414310Y-133735995D01*
X154394556Y-134049994D01*
X154394556Y-134050005D01*
X154414310Y-134364004D01*
X154414311Y-134364011D01*
X154473270Y-134673083D01*
X154570497Y-134972316D01*
X154570499Y-134972321D01*
X154704461Y-135257003D01*
X154704464Y-135257009D01*
X154873051Y-135522661D01*
X154873054Y-135522665D01*
X155073606Y-135765090D01*
X155073608Y-135765092D01*
X155302968Y-135980476D01*
X155302978Y-135980484D01*
X155557504Y-136165408D01*
X155557509Y-136165410D01*
X155557516Y-136165416D01*
X155833234Y-136316994D01*
X155833239Y-136316996D01*
X155833241Y-136316997D01*
X155833242Y-136316998D01*
X156125771Y-136432818D01*
X156125774Y-136432819D01*
X156430523Y-136511065D01*
X156430527Y-136511066D01*
X156496010Y-136519338D01*
X156742670Y-136550499D01*
X156742679Y-136550499D01*
X156742682Y-136550500D01*
X156742684Y-136550500D01*
X157057316Y-136550500D01*
X157057318Y-136550500D01*
X157057321Y-136550499D01*
X157057329Y-136550499D01*
X157243593Y-136526968D01*
X157369473Y-136511066D01*
X157674225Y-136432819D01*
X157674228Y-136432818D01*
X157966757Y-136316998D01*
X157966758Y-136316997D01*
X157966756Y-136316997D01*
X157966766Y-136316994D01*
X158242484Y-136165416D01*
X158282968Y-136136003D01*
X158402615Y-136049075D01*
X158468421Y-136025595D01*
X158536475Y-136041420D01*
X158585170Y-136091526D01*
X158599500Y-136149393D01*
X158599500Y-171099902D01*
X158579815Y-171166941D01*
X158563181Y-171187583D01*
X157387584Y-172363181D01*
X157326261Y-172396666D01*
X157299903Y-172399500D01*
X156193083Y-172399500D01*
X156126044Y-172379815D01*
X156080289Y-172327011D01*
X156070345Y-172257853D01*
X156088089Y-172209528D01*
X156125788Y-172149529D01*
X156125789Y-172149528D01*
X156185368Y-171979261D01*
X156203092Y-171821955D01*
X156205565Y-171800009D01*
X156205565Y-171800002D01*
X156185369Y-171620756D01*
X156185368Y-171620751D01*
X156163988Y-171559651D01*
X156125789Y-171450484D01*
X156029816Y-171297744D01*
X155902262Y-171170190D01*
X155872605Y-171151555D01*
X155749523Y-171074217D01*
X155579254Y-171014637D01*
X155579249Y-171014636D01*
X155400004Y-170994441D01*
X155399996Y-170994441D01*
X155230927Y-171013490D01*
X155162105Y-171001435D01*
X155117778Y-170964582D01*
X155057546Y-170884122D01*
X155057544Y-170884120D01*
X155057543Y-170884119D01*
X155052416Y-170878992D01*
X155018931Y-170817669D01*
X155023915Y-170747977D01*
X155052416Y-170703630D01*
X155057190Y-170698855D01*
X155143350Y-170583761D01*
X155143354Y-170583754D01*
X155193596Y-170449047D01*
X155193598Y-170449040D01*
X155199999Y-170389512D01*
X155200000Y-170389495D01*
X155200000Y-170166668D01*
X152550598Y-170166668D01*
X152483559Y-170146983D01*
X152462921Y-170130353D01*
X152368716Y-170036148D01*
X152368715Y-170036147D01*
X152364385Y-170031817D01*
X152364374Y-170031807D01*
X151887590Y-169555023D01*
X151887588Y-169555020D01*
X151776391Y-169443823D01*
X152600000Y-169443823D01*
X152600000Y-169666668D01*
X153650000Y-169666668D01*
X154150000Y-169666668D01*
X155200000Y-169666668D01*
X155200000Y-169443840D01*
X155199999Y-169443823D01*
X155193598Y-169384295D01*
X155193596Y-169384288D01*
X155143354Y-169249581D01*
X155143350Y-169249574D01*
X155057190Y-169134480D01*
X155057187Y-169134477D01*
X154942093Y-169048317D01*
X154942086Y-169048313D01*
X154807379Y-168998071D01*
X154807372Y-168998069D01*
X154747844Y-168991668D01*
X154150000Y-168991668D01*
X154150000Y-169666668D01*
X153650000Y-169666668D01*
X153650000Y-168991668D01*
X153052155Y-168991668D01*
X152992627Y-168998069D01*
X152992620Y-168998071D01*
X152857913Y-169048313D01*
X152857906Y-169048317D01*
X152742812Y-169134477D01*
X152742809Y-169134480D01*
X152656649Y-169249574D01*
X152656645Y-169249581D01*
X152606403Y-169384288D01*
X152606401Y-169384295D01*
X152600000Y-169443823D01*
X151776391Y-169443823D01*
X151768715Y-169436147D01*
X151736914Y-169417787D01*
X151688699Y-169367219D01*
X151682733Y-169353733D01*
X151643797Y-169249339D01*
X151643793Y-169249332D01*
X151557547Y-169134123D01*
X151557544Y-169134120D01*
X151442335Y-169047874D01*
X151442328Y-169047870D01*
X151307482Y-168997576D01*
X151307483Y-168997576D01*
X151247883Y-168991169D01*
X151247881Y-168991168D01*
X151247873Y-168991168D01*
X151247864Y-168991168D01*
X149552129Y-168991168D01*
X149552123Y-168991169D01*
X149492516Y-168997576D01*
X149357671Y-169047870D01*
X149357664Y-169047874D01*
X149242455Y-169134120D01*
X149242452Y-169134123D01*
X149156206Y-169249332D01*
X149156202Y-169249339D01*
X149105908Y-169384185D01*
X149102296Y-169417787D01*
X149099501Y-169443791D01*
X149099500Y-169443803D01*
X149099500Y-170389538D01*
X149099501Y-170389544D01*
X149105908Y-170449151D01*
X149156202Y-170583996D01*
X149156206Y-170584003D01*
X149242452Y-170699212D01*
X149247227Y-170703987D01*
X149280712Y-170765310D01*
X149275728Y-170835002D01*
X149247227Y-170879349D01*
X149242452Y-170884123D01*
X149156206Y-170999332D01*
X149156202Y-170999339D01*
X149105908Y-171134185D01*
X149101206Y-171177923D01*
X149099501Y-171193791D01*
X149099500Y-171193803D01*
X149099500Y-172139538D01*
X149099501Y-172139544D01*
X149105908Y-172199151D01*
X149156202Y-172333996D01*
X149156206Y-172334003D01*
X149242452Y-172449212D01*
X149242455Y-172449215D01*
X149357664Y-172535461D01*
X149357671Y-172535465D01*
X149386998Y-172546403D01*
X149492517Y-172585759D01*
X149552127Y-172592168D01*
X149575497Y-172592167D01*
X149642536Y-172611849D01*
X149688292Y-172664651D01*
X149699500Y-172716167D01*
X149699500Y-172789424D01*
X149679815Y-172856463D01*
X149627011Y-172902218D01*
X149561617Y-172912644D01*
X149400004Y-172894435D01*
X149399996Y-172894435D01*
X149220750Y-172914630D01*
X149220745Y-172914631D01*
X149050474Y-172974212D01*
X149040477Y-172980494D01*
X148974506Y-172999500D01*
X143589709Y-172999500D01*
X143522670Y-172979815D01*
X143476915Y-172927011D01*
X143466351Y-172862897D01*
X143467009Y-172856463D01*
X143475500Y-172773345D01*
X143475499Y-172226656D01*
X143473749Y-172209528D01*
X143465349Y-172127292D01*
X143465348Y-172127289D01*
X143412003Y-171966303D01*
X143411999Y-171966297D01*
X143411998Y-171966294D01*
X143322970Y-171821959D01*
X143322967Y-171821955D01*
X143313339Y-171812327D01*
X143279854Y-171751004D01*
X143284838Y-171681312D01*
X143313345Y-171636959D01*
X143322573Y-171627731D01*
X143411542Y-171483492D01*
X143411547Y-171483481D01*
X143464855Y-171322606D01*
X143474999Y-171223322D01*
X143475000Y-171223309D01*
X143475000Y-171200000D01*
X141525001Y-171200000D01*
X141525001Y-171223322D01*
X141535144Y-171322607D01*
X141588452Y-171483481D01*
X141588457Y-171483492D01*
X141677424Y-171627728D01*
X141677427Y-171627732D01*
X141686660Y-171636965D01*
X141720145Y-171698288D01*
X141715161Y-171767980D01*
X141686663Y-171812324D01*
X141677033Y-171821953D01*
X141677029Y-171821959D01*
X141588001Y-171966294D01*
X141587996Y-171966305D01*
X141534651Y-172127290D01*
X141524500Y-172226647D01*
X141524500Y-172773337D01*
X141524501Y-172773355D01*
X141533649Y-172862899D01*
X141520879Y-172931592D01*
X141472998Y-172982476D01*
X141410291Y-172999500D01*
X131524500Y-172999500D01*
X131457461Y-172979815D01*
X131411706Y-172927011D01*
X131400500Y-172875500D01*
X131400500Y-172716167D01*
X131420185Y-172649128D01*
X131472989Y-172603373D01*
X131524500Y-172592167D01*
X131547871Y-172592167D01*
X131547872Y-172592167D01*
X131607483Y-172585759D01*
X131742331Y-172535464D01*
X131857546Y-172449214D01*
X131943796Y-172333999D01*
X131994091Y-172199151D01*
X132000500Y-172139541D01*
X132000499Y-171524499D01*
X132020183Y-171457461D01*
X132072987Y-171411706D01*
X132124499Y-171400500D01*
X132775500Y-171400500D01*
X132842539Y-171420185D01*
X132888294Y-171472989D01*
X132899500Y-171524500D01*
X132899500Y-172139538D01*
X132899501Y-172139544D01*
X132905908Y-172199151D01*
X132956202Y-172333996D01*
X132956206Y-172334003D01*
X133042452Y-172449212D01*
X133042455Y-172449215D01*
X133157664Y-172535461D01*
X133157671Y-172535465D01*
X133292517Y-172585759D01*
X133292516Y-172585759D01*
X133299444Y-172586503D01*
X133352127Y-172592168D01*
X135047872Y-172592167D01*
X135107483Y-172585759D01*
X135242331Y-172535464D01*
X135357546Y-172449214D01*
X135443796Y-172333999D01*
X135494091Y-172199151D01*
X135500500Y-172139541D01*
X135500499Y-171193796D01*
X135494091Y-171134185D01*
X135481304Y-171099902D01*
X135443797Y-170999339D01*
X135443793Y-170999332D01*
X135357547Y-170884123D01*
X135352416Y-170878992D01*
X135318931Y-170817669D01*
X135323915Y-170747977D01*
X135352416Y-170703630D01*
X135357190Y-170698855D01*
X135373793Y-170676677D01*
X141525000Y-170676677D01*
X141525000Y-170700000D01*
X142250000Y-170700000D01*
X142750000Y-170700000D01*
X143474999Y-170700000D01*
X143474999Y-170676692D01*
X143474998Y-170676677D01*
X143464855Y-170577392D01*
X143411547Y-170416518D01*
X143411542Y-170416507D01*
X143322575Y-170272271D01*
X143322572Y-170272267D01*
X143202732Y-170152427D01*
X143202728Y-170152424D01*
X143058492Y-170063457D01*
X143058481Y-170063452D01*
X142897606Y-170010144D01*
X142798322Y-170000000D01*
X142750000Y-170000000D01*
X142750000Y-170700000D01*
X142250000Y-170700000D01*
X142250000Y-170000000D01*
X142249999Y-169999999D01*
X142201693Y-170000000D01*
X142201675Y-170000001D01*
X142102392Y-170010144D01*
X141941518Y-170063452D01*
X141941507Y-170063457D01*
X141797271Y-170152424D01*
X141797267Y-170152427D01*
X141677427Y-170272267D01*
X141677424Y-170272271D01*
X141588457Y-170416507D01*
X141588452Y-170416518D01*
X141535144Y-170577393D01*
X141525000Y-170676677D01*
X135373793Y-170676677D01*
X135443350Y-170583761D01*
X135443354Y-170583754D01*
X135493596Y-170449047D01*
X135493598Y-170449040D01*
X135499999Y-170389512D01*
X135500000Y-170389495D01*
X135500000Y-170166668D01*
X132897101Y-170166668D01*
X132842164Y-170196666D01*
X132815806Y-170199500D01*
X132124500Y-170199500D01*
X132057461Y-170179815D01*
X132011706Y-170127011D01*
X132000500Y-170075500D01*
X132000499Y-169443823D01*
X132900000Y-169443823D01*
X132900000Y-169666668D01*
X133950000Y-169666668D01*
X134450000Y-169666668D01*
X135500000Y-169666668D01*
X135500000Y-169443840D01*
X135499999Y-169443823D01*
X135493598Y-169384295D01*
X135493596Y-169384288D01*
X135443354Y-169249581D01*
X135443350Y-169249574D01*
X135357190Y-169134480D01*
X135357187Y-169134477D01*
X135242093Y-169048317D01*
X135242086Y-169048313D01*
X135107379Y-168998071D01*
X135107372Y-168998069D01*
X135047844Y-168991668D01*
X134450000Y-168991668D01*
X134450000Y-169666668D01*
X133950000Y-169666668D01*
X133950000Y-168991668D01*
X133352155Y-168991668D01*
X133292627Y-168998069D01*
X133292620Y-168998071D01*
X133157913Y-169048313D01*
X133157906Y-169048317D01*
X133042812Y-169134477D01*
X133042809Y-169134480D01*
X132956649Y-169249574D01*
X132956645Y-169249581D01*
X132906403Y-169384288D01*
X132906401Y-169384295D01*
X132900000Y-169443823D01*
X132000499Y-169443823D01*
X132000499Y-169443797D01*
X132000498Y-169443791D01*
X132000497Y-169443784D01*
X131994091Y-169384185D01*
X131943884Y-169249574D01*
X131943797Y-169249339D01*
X131943793Y-169249332D01*
X131857547Y-169134123D01*
X131857544Y-169134120D01*
X131742335Y-169047874D01*
X131742328Y-169047870D01*
X131607482Y-168997576D01*
X131607483Y-168997576D01*
X131547883Y-168991169D01*
X131547881Y-168991168D01*
X131547873Y-168991168D01*
X131547865Y-168991168D01*
X129891765Y-168991168D01*
X129824726Y-168971483D01*
X129804084Y-168954849D01*
X128648083Y-167798848D01*
X128614598Y-167737525D01*
X128619582Y-167667833D01*
X128661454Y-167611900D01*
X128726918Y-167587483D01*
X128735764Y-167587167D01*
X129247871Y-167587167D01*
X129247872Y-167587167D01*
X129307483Y-167580759D01*
X129442331Y-167530464D01*
X129557546Y-167444214D01*
X129643796Y-167328999D01*
X129694091Y-167194151D01*
X129700500Y-167134541D01*
X129700500Y-167134512D01*
X135200000Y-167134512D01*
X135206401Y-167194040D01*
X135206403Y-167194047D01*
X135256645Y-167328754D01*
X135256649Y-167328761D01*
X135342809Y-167443855D01*
X135342812Y-167443858D01*
X135457906Y-167530018D01*
X135457913Y-167530022D01*
X135592620Y-167580264D01*
X135592627Y-167580266D01*
X135652155Y-167586667D01*
X135652172Y-167586668D01*
X136075000Y-167586668D01*
X136575000Y-167586668D01*
X136997828Y-167586668D01*
X136997844Y-167586667D01*
X137057372Y-167580266D01*
X137057379Y-167580264D01*
X137192086Y-167530022D01*
X137192093Y-167530018D01*
X137307187Y-167443858D01*
X137307190Y-167443855D01*
X137393350Y-167328761D01*
X137393354Y-167328754D01*
X137443596Y-167194047D01*
X137443598Y-167194040D01*
X137449999Y-167134512D01*
X137450000Y-167134495D01*
X137450000Y-166836668D01*
X136575000Y-166836668D01*
X136575000Y-167586668D01*
X136075000Y-167586668D01*
X136075000Y-166836668D01*
X135200000Y-166836668D01*
X135200000Y-167134512D01*
X129700500Y-167134512D01*
X129700499Y-166038823D01*
X135200000Y-166038823D01*
X135200000Y-166336668D01*
X136075000Y-166336668D01*
X136575000Y-166336668D01*
X137450000Y-166336668D01*
X137450000Y-166038840D01*
X137449999Y-166038823D01*
X137443598Y-165979295D01*
X137443596Y-165979288D01*
X137393354Y-165844581D01*
X137393350Y-165844574D01*
X137307190Y-165729480D01*
X137307187Y-165729477D01*
X137192093Y-165643317D01*
X137192086Y-165643313D01*
X137057379Y-165593071D01*
X137057372Y-165593069D01*
X136997844Y-165586668D01*
X136575000Y-165586668D01*
X136575000Y-166336668D01*
X136075000Y-166336668D01*
X136075000Y-165586668D01*
X135652155Y-165586668D01*
X135592627Y-165593069D01*
X135592620Y-165593071D01*
X135457913Y-165643313D01*
X135457906Y-165643317D01*
X135342812Y-165729477D01*
X135342809Y-165729480D01*
X135256649Y-165844574D01*
X135256645Y-165844581D01*
X135206403Y-165979288D01*
X135206401Y-165979295D01*
X135200000Y-166038823D01*
X129700499Y-166038823D01*
X129700499Y-166038796D01*
X129694091Y-165979185D01*
X129676456Y-165931904D01*
X129643797Y-165844339D01*
X129643793Y-165844332D01*
X129557547Y-165729123D01*
X129557544Y-165729120D01*
X129442335Y-165642874D01*
X129442328Y-165642870D01*
X129307482Y-165592576D01*
X129307483Y-165592576D01*
X129247883Y-165586169D01*
X129247881Y-165586168D01*
X129247873Y-165586168D01*
X129247864Y-165586168D01*
X127902129Y-165586168D01*
X127902123Y-165586169D01*
X127842517Y-165592576D01*
X127770997Y-165619251D01*
X127701306Y-165624234D01*
X127639985Y-165590749D01*
X126086819Y-164037583D01*
X126053334Y-163976260D01*
X126050500Y-163949902D01*
X126050500Y-151466866D01*
X126070185Y-151399827D01*
X126122989Y-151354072D01*
X126192147Y-151344128D01*
X126255703Y-151373153D01*
X126262181Y-151379185D01*
X126277256Y-151394260D01*
X126277263Y-151394266D01*
X126371878Y-151466866D01*
X126469711Y-151541936D01*
X126679788Y-151663224D01*
X126903900Y-151756054D01*
X127138211Y-151818838D01*
X127318586Y-151842584D01*
X127378711Y-151850500D01*
X127378712Y-151850500D01*
X127621289Y-151850500D01*
X127669388Y-151844167D01*
X127861789Y-151818838D01*
X128096100Y-151756054D01*
X128320212Y-151663224D01*
X128530289Y-151541936D01*
X128722738Y-151394265D01*
X128894265Y-151222738D01*
X129041936Y-151030289D01*
X129163224Y-150820212D01*
X129256054Y-150596100D01*
X129318838Y-150361789D01*
X129350500Y-150121288D01*
X129350500Y-149878712D01*
X129318838Y-149638211D01*
X129256054Y-149403900D01*
X129163224Y-149179788D01*
X129041936Y-148969711D01*
X128894265Y-148777262D01*
X128894260Y-148777256D01*
X128722743Y-148605739D01*
X128722736Y-148605733D01*
X128530293Y-148458067D01*
X128530292Y-148458066D01*
X128530289Y-148458064D01*
X128320212Y-148336776D01*
X128320205Y-148336773D01*
X128096104Y-148243947D01*
X127861785Y-148181161D01*
X127621289Y-148149500D01*
X127621288Y-148149500D01*
X127378712Y-148149500D01*
X127378711Y-148149500D01*
X127138214Y-148181161D01*
X126903895Y-148243947D01*
X126679794Y-148336773D01*
X126679785Y-148336777D01*
X126469706Y-148458067D01*
X126277263Y-148605733D01*
X126277256Y-148605739D01*
X126262181Y-148620815D01*
X126200858Y-148654300D01*
X126131166Y-148649316D01*
X126075233Y-148607444D01*
X126050816Y-148541980D01*
X126050500Y-148533134D01*
X126050500Y-129250096D01*
X126070185Y-129183057D01*
X126086814Y-129162420D01*
X129187821Y-126061412D01*
X129249142Y-126027929D01*
X129318834Y-126032913D01*
X129374767Y-126074785D01*
X129399184Y-126140249D01*
X129399500Y-126149093D01*
X129399500Y-126222869D01*
X129399501Y-126222876D01*
X129405908Y-126282483D01*
X129456202Y-126417328D01*
X129456206Y-126417335D01*
X129542452Y-126532544D01*
X129547226Y-126537318D01*
X129580711Y-126598641D01*
X129575727Y-126668333D01*
X129547230Y-126712676D01*
X129542455Y-126717450D01*
X129518232Y-126749810D01*
X129462299Y-126791682D01*
X129418965Y-126799500D01*
X129231005Y-126799500D01*
X129095677Y-126826418D01*
X129095667Y-126826421D01*
X128968195Y-126879221D01*
X128968182Y-126879228D01*
X128853458Y-126955885D01*
X128853454Y-126955888D01*
X128755888Y-127053454D01*
X128755885Y-127053458D01*
X128679228Y-127168182D01*
X128679221Y-127168195D01*
X128626421Y-127295667D01*
X128626418Y-127295677D01*
X128599500Y-127431004D01*
X128599500Y-127431007D01*
X128599500Y-144831006D01*
X128599500Y-144968994D01*
X128599500Y-144968996D01*
X128599499Y-144968996D01*
X128626418Y-145104322D01*
X128626421Y-145104332D01*
X128679222Y-145231807D01*
X128755887Y-145346545D01*
X128755888Y-145346546D01*
X129413181Y-146003838D01*
X129446666Y-146065161D01*
X129449500Y-146091519D01*
X129449500Y-146347869D01*
X129449501Y-146347876D01*
X129455908Y-146407483D01*
X129506202Y-146542328D01*
X129506206Y-146542335D01*
X129592452Y-146657544D01*
X129592455Y-146657547D01*
X129707664Y-146743793D01*
X129707671Y-146743797D01*
X129842517Y-146794091D01*
X129842516Y-146794091D01*
X129849444Y-146794835D01*
X129902127Y-146800500D01*
X131348076Y-146800499D01*
X131361960Y-146801279D01*
X131399998Y-146805565D01*
X131400000Y-146805565D01*
X131400001Y-146805565D01*
X131438038Y-146801279D01*
X131451923Y-146800499D01*
X131597871Y-146800499D01*
X131597872Y-146800499D01*
X131657483Y-146794091D01*
X131792331Y-146743796D01*
X131907546Y-146657546D01*
X131993796Y-146542331D01*
X131993796Y-146542329D01*
X131999112Y-146535229D01*
X131999988Y-146535885D01*
X132011276Y-146520801D01*
X132029816Y-146502262D01*
X132125789Y-146349522D01*
X132185368Y-146179255D01*
X132185369Y-146179249D01*
X132205565Y-146000003D01*
X132205565Y-145999996D01*
X132185369Y-145820750D01*
X132185366Y-145820737D01*
X132125790Y-145650479D01*
X132069505Y-145560901D01*
X132050499Y-145494930D01*
X132050499Y-145402129D01*
X132050498Y-145402123D01*
X132050497Y-145402116D01*
X132044091Y-145342517D01*
X132027269Y-145297416D01*
X131993797Y-145207671D01*
X131993793Y-145207664D01*
X131907547Y-145092455D01*
X131902773Y-145087681D01*
X131869288Y-145026358D01*
X131874272Y-144956666D01*
X131902773Y-144912319D01*
X131907542Y-144907548D01*
X131907546Y-144907546D01*
X131993796Y-144792331D01*
X132044091Y-144657483D01*
X132050500Y-144597873D01*
X132050499Y-143652155D01*
X132950000Y-143652155D01*
X132950000Y-143875000D01*
X134000000Y-143875000D01*
X134500000Y-143875000D01*
X135550000Y-143875000D01*
X135550000Y-143652172D01*
X135549999Y-143652155D01*
X135543598Y-143592627D01*
X135543596Y-143592620D01*
X135493354Y-143457913D01*
X135493350Y-143457906D01*
X135407190Y-143342812D01*
X135407187Y-143342809D01*
X135292093Y-143256649D01*
X135292086Y-143256645D01*
X135157379Y-143206403D01*
X135157372Y-143206401D01*
X135097844Y-143200000D01*
X134500000Y-143200000D01*
X134500000Y-143875000D01*
X134000000Y-143875000D01*
X134000000Y-143200000D01*
X133402155Y-143200000D01*
X133342627Y-143206401D01*
X133342620Y-143206403D01*
X133207913Y-143256645D01*
X133207906Y-143256649D01*
X133092812Y-143342809D01*
X133092809Y-143342812D01*
X133006649Y-143457906D01*
X133006645Y-143457913D01*
X132956403Y-143592620D01*
X132956401Y-143592627D01*
X132950000Y-143652155D01*
X132050499Y-143652155D01*
X132050499Y-143652128D01*
X132044091Y-143592517D01*
X131993884Y-143457906D01*
X131993797Y-143457671D01*
X131993793Y-143457664D01*
X131907547Y-143342455D01*
X131907544Y-143342452D01*
X131792335Y-143256206D01*
X131792328Y-143256202D01*
X131657482Y-143205908D01*
X131657483Y-143205908D01*
X131597883Y-143199501D01*
X131597881Y-143199500D01*
X131597873Y-143199500D01*
X131597865Y-143199500D01*
X130924500Y-143199500D01*
X130857461Y-143179815D01*
X130811706Y-143127011D01*
X130800500Y-143075500D01*
X130800500Y-131800096D01*
X130820185Y-131733057D01*
X130836814Y-131712420D01*
X134087416Y-128461817D01*
X134148739Y-128428333D01*
X134175097Y-128425499D01*
X135047871Y-128425499D01*
X135047872Y-128425499D01*
X135107483Y-128419091D01*
X135242331Y-128368796D01*
X135357546Y-128282546D01*
X135376233Y-128257582D01*
X135432166Y-128215711D01*
X135501858Y-128210727D01*
X135563181Y-128244212D01*
X135596666Y-128305535D01*
X135599500Y-128331893D01*
X135599500Y-132659676D01*
X135599499Y-132659694D01*
X135599499Y-132825400D01*
X135599498Y-132825400D01*
X135603094Y-132838822D01*
X135640423Y-132978131D01*
X135663316Y-133017782D01*
X135707156Y-133093716D01*
X135719479Y-133115060D01*
X135719481Y-133115063D01*
X135838349Y-133233931D01*
X135838355Y-133233936D01*
X136449580Y-133845161D01*
X136483065Y-133906484D01*
X136478081Y-133976176D01*
X136449580Y-134020523D01*
X136421505Y-134048597D01*
X136285965Y-134242169D01*
X136285964Y-134242171D01*
X136195362Y-134436469D01*
X136189039Y-134450029D01*
X136186098Y-134456335D01*
X136186094Y-134456344D01*
X136124938Y-134684586D01*
X136124936Y-134684596D01*
X136104341Y-134919999D01*
X136104341Y-134920000D01*
X136124936Y-135155403D01*
X136124938Y-135155413D01*
X136159327Y-135283756D01*
X136157664Y-135353606D01*
X136127233Y-135403530D01*
X135731286Y-135799478D01*
X135619481Y-135911282D01*
X135619479Y-135911285D01*
X135586612Y-135968214D01*
X135586611Y-135968216D01*
X135540423Y-136048214D01*
X135528818Y-136091526D01*
X135499499Y-136200943D01*
X135499499Y-136200945D01*
X135499499Y-136369046D01*
X135499500Y-136369059D01*
X135499500Y-137639676D01*
X135499499Y-137639694D01*
X135499499Y-137805400D01*
X135499498Y-137805400D01*
X135540423Y-137958131D01*
X135569358Y-138008246D01*
X135569359Y-138008250D01*
X135569360Y-138008250D01*
X135619479Y-138095060D01*
X135619481Y-138095063D01*
X135738349Y-138213931D01*
X135738355Y-138213936D01*
X136498793Y-138974374D01*
X136498803Y-138974385D01*
X136503133Y-138978715D01*
X136503134Y-138978716D01*
X136614938Y-139090520D01*
X136614940Y-139090521D01*
X136614944Y-139090524D01*
X136751863Y-139169573D01*
X136751870Y-139169577D01*
X136863673Y-139199534D01*
X136904596Y-139210500D01*
X136904597Y-139210500D01*
X136972692Y-139210500D01*
X137039731Y-139230185D01*
X137060373Y-139246819D01*
X137330591Y-139517037D01*
X137267007Y-139534075D01*
X137152993Y-139599901D01*
X137059901Y-139692993D01*
X136994075Y-139807007D01*
X136977037Y-139870590D01*
X136345073Y-139238626D01*
X136345073Y-139238627D01*
X136286400Y-139322421D01*
X136286399Y-139322423D01*
X136186570Y-139536507D01*
X136186566Y-139536516D01*
X136125432Y-139764673D01*
X136125430Y-139764684D01*
X136104843Y-139999998D01*
X136104843Y-140000001D01*
X136125430Y-140235315D01*
X136125432Y-140235326D01*
X136186566Y-140463483D01*
X136186570Y-140463492D01*
X136286398Y-140677576D01*
X136345073Y-140761372D01*
X136977037Y-140129408D01*
X136994075Y-140192993D01*
X137059901Y-140307007D01*
X137152993Y-140400099D01*
X137267007Y-140465925D01*
X137330591Y-140482962D01*
X136698626Y-141114926D01*
X136782417Y-141173598D01*
X136782421Y-141173600D01*
X136996507Y-141273429D01*
X136996516Y-141273433D01*
X137224673Y-141334567D01*
X137224684Y-141334569D01*
X137459998Y-141355157D01*
X137460002Y-141355157D01*
X137695315Y-141334569D01*
X137695326Y-141334567D01*
X137923483Y-141273433D01*
X137923492Y-141273429D01*
X138137580Y-141173599D01*
X138221371Y-141114925D01*
X137589408Y-140482962D01*
X137652993Y-140465925D01*
X137767007Y-140400099D01*
X137860099Y-140307007D01*
X137925925Y-140192993D01*
X137942962Y-140129408D01*
X138574925Y-140761371D01*
X138628120Y-140685404D01*
X138682697Y-140641780D01*
X138752196Y-140634588D01*
X138814550Y-140666111D01*
X138831268Y-140685404D01*
X138961505Y-140871401D01*
X139128599Y-141038495D01*
X139225384Y-141106265D01*
X139322165Y-141174032D01*
X139322167Y-141174033D01*
X139322170Y-141174035D01*
X139327898Y-141176706D01*
X139380339Y-141222872D01*
X139399500Y-141289090D01*
X139399500Y-142899903D01*
X139379815Y-142966942D01*
X139363181Y-142987584D01*
X137112584Y-145238181D01*
X137051261Y-145271666D01*
X137024903Y-145274500D01*
X135603861Y-145274500D01*
X135536822Y-145254815D01*
X135499362Y-145214581D01*
X135499112Y-145214769D01*
X135497364Y-145212434D01*
X135495027Y-145209924D01*
X135493797Y-145207673D01*
X135493796Y-145207669D01*
X135493793Y-145207665D01*
X135493792Y-145207663D01*
X135407547Y-145092455D01*
X135402416Y-145087324D01*
X135368931Y-145026001D01*
X135373915Y-144956309D01*
X135402416Y-144911962D01*
X135407190Y-144907187D01*
X135493350Y-144792093D01*
X135493354Y-144792086D01*
X135543596Y-144657379D01*
X135543598Y-144657372D01*
X135549999Y-144597844D01*
X135550000Y-144597827D01*
X135550000Y-144375000D01*
X132950000Y-144375000D01*
X132950000Y-144597844D01*
X132956401Y-144657372D01*
X132956403Y-144657379D01*
X133006645Y-144792086D01*
X133006649Y-144792093D01*
X133092809Y-144907187D01*
X133097584Y-144911962D01*
X133131069Y-144973285D01*
X133126085Y-145042977D01*
X133097584Y-145087324D01*
X133092452Y-145092455D01*
X133006206Y-145207664D01*
X133006202Y-145207671D01*
X132955908Y-145342517D01*
X132951331Y-145385097D01*
X132949501Y-145402123D01*
X132949500Y-145402135D01*
X132949500Y-146347870D01*
X132949501Y-146347876D01*
X132955908Y-146407483D01*
X133006202Y-146542328D01*
X133006206Y-146542335D01*
X133092452Y-146657544D01*
X133092455Y-146657547D01*
X133207664Y-146743793D01*
X133207671Y-146743797D01*
X133342517Y-146794091D01*
X133342516Y-146794091D01*
X133349444Y-146794835D01*
X133402127Y-146800500D01*
X135097872Y-146800499D01*
X135157483Y-146794091D01*
X135292331Y-146743796D01*
X135407546Y-146657546D01*
X135493796Y-146542331D01*
X135493798Y-146542323D01*
X135495027Y-146540076D01*
X135496849Y-146538253D01*
X135499112Y-146535231D01*
X135499546Y-146535556D01*
X135544431Y-146490669D01*
X135603861Y-146475500D01*
X137238331Y-146475500D01*
X137238347Y-146475501D01*
X137245943Y-146475501D01*
X137404054Y-146475501D01*
X137404057Y-146475501D01*
X137556785Y-146434577D01*
X137606904Y-146405639D01*
X137693716Y-146355520D01*
X137805520Y-146243716D01*
X137805520Y-146243714D01*
X137815728Y-146233507D01*
X137815730Y-146233504D01*
X140368713Y-143680521D01*
X140368716Y-143680520D01*
X140480520Y-143568716D01*
X140530639Y-143481904D01*
X140559577Y-143431785D01*
X140600500Y-143279058D01*
X140600500Y-143120943D01*
X140600500Y-141289090D01*
X140620185Y-141222051D01*
X140672101Y-141176706D01*
X140677830Y-141174035D01*
X140871401Y-141038495D01*
X141038495Y-140871401D01*
X141174035Y-140677830D01*
X141273903Y-140463663D01*
X141335063Y-140235408D01*
X141355659Y-140000000D01*
X141335063Y-139764592D01*
X141282753Y-139569365D01*
X141273905Y-139536344D01*
X141273902Y-139536335D01*
X141256959Y-139500000D01*
X141204220Y-139386904D01*
X141193729Y-139317828D01*
X141222249Y-139254044D01*
X141280725Y-139215804D01*
X141316603Y-139210500D01*
X141499903Y-139210500D01*
X141566942Y-139230185D01*
X141587584Y-139246819D01*
X147638181Y-145297416D01*
X147671666Y-145358739D01*
X147674500Y-145385097D01*
X147674500Y-165467004D01*
X147654815Y-165534043D01*
X147602011Y-165579798D01*
X147563754Y-165590294D01*
X147542516Y-165592577D01*
X147407671Y-165642870D01*
X147407664Y-165642874D01*
X147292455Y-165729120D01*
X147292452Y-165729123D01*
X147206206Y-165844332D01*
X147206202Y-165844339D01*
X147155908Y-165979185D01*
X147149501Y-166038784D01*
X147149501Y-166038791D01*
X147149500Y-166038803D01*
X147149500Y-167134538D01*
X147149501Y-167134544D01*
X147155908Y-167194151D01*
X147206202Y-167328996D01*
X147206206Y-167329003D01*
X147292452Y-167444212D01*
X147292455Y-167444215D01*
X147407664Y-167530461D01*
X147407671Y-167530465D01*
X147542517Y-167580759D01*
X147542516Y-167580759D01*
X147549444Y-167581503D01*
X147602127Y-167587168D01*
X148947872Y-167587167D01*
X149007483Y-167580759D01*
X149142331Y-167530464D01*
X149257546Y-167444214D01*
X149343796Y-167328999D01*
X149394091Y-167194151D01*
X149400500Y-167134541D01*
X149400500Y-167134512D01*
X154900000Y-167134512D01*
X154906401Y-167194040D01*
X154906403Y-167194047D01*
X154956645Y-167328754D01*
X154956649Y-167328761D01*
X155042809Y-167443855D01*
X155042812Y-167443858D01*
X155157906Y-167530018D01*
X155157913Y-167530022D01*
X155292620Y-167580264D01*
X155292627Y-167580266D01*
X155352155Y-167586667D01*
X155352172Y-167586668D01*
X155775000Y-167586668D01*
X156275000Y-167586668D01*
X156697828Y-167586668D01*
X156697844Y-167586667D01*
X156757372Y-167580266D01*
X156757379Y-167580264D01*
X156892086Y-167530022D01*
X156892093Y-167530018D01*
X157007187Y-167443858D01*
X157007190Y-167443855D01*
X157093350Y-167328761D01*
X157093354Y-167328754D01*
X157143596Y-167194047D01*
X157143598Y-167194040D01*
X157149999Y-167134512D01*
X157150000Y-167134495D01*
X157150000Y-166836668D01*
X156275000Y-166836668D01*
X156275000Y-167586668D01*
X155775000Y-167586668D01*
X155775000Y-166836668D01*
X154900000Y-166836668D01*
X154900000Y-167134512D01*
X149400500Y-167134512D01*
X149400499Y-166038823D01*
X154900000Y-166038823D01*
X154900000Y-166336668D01*
X155775000Y-166336668D01*
X156275000Y-166336668D01*
X157150000Y-166336668D01*
X157150000Y-166038840D01*
X157149999Y-166038823D01*
X157143598Y-165979295D01*
X157143596Y-165979288D01*
X157093354Y-165844581D01*
X157093350Y-165844574D01*
X157007190Y-165729480D01*
X157007187Y-165729477D01*
X156892093Y-165643317D01*
X156892086Y-165643313D01*
X156757379Y-165593071D01*
X156757372Y-165593069D01*
X156697844Y-165586668D01*
X156275000Y-165586668D01*
X156275000Y-166336668D01*
X155775000Y-166336668D01*
X155775000Y-165586668D01*
X155352155Y-165586668D01*
X155292627Y-165593069D01*
X155292620Y-165593071D01*
X155157913Y-165643313D01*
X155157906Y-165643317D01*
X155042812Y-165729477D01*
X155042809Y-165729480D01*
X154956649Y-165844574D01*
X154956645Y-165844581D01*
X154906403Y-165979288D01*
X154906401Y-165979295D01*
X154900000Y-166038823D01*
X149400499Y-166038823D01*
X149400499Y-166038796D01*
X149394091Y-165979185D01*
X149376456Y-165931904D01*
X149343797Y-165844339D01*
X149343793Y-165844332D01*
X149257547Y-165729123D01*
X149257544Y-165729120D01*
X149142335Y-165642874D01*
X149142328Y-165642870D01*
X149007483Y-165592576D01*
X148986243Y-165590293D01*
X148921692Y-165563554D01*
X148881845Y-165506161D01*
X148875500Y-165467004D01*
X148875500Y-152378711D01*
X153149500Y-152378711D01*
X153149500Y-152621288D01*
X153181161Y-152861785D01*
X153243947Y-153096104D01*
X153336773Y-153320205D01*
X153336776Y-153320212D01*
X153458064Y-153530289D01*
X153458066Y-153530292D01*
X153458067Y-153530293D01*
X153605733Y-153722736D01*
X153605739Y-153722743D01*
X153777256Y-153894260D01*
X153777262Y-153894265D01*
X153969711Y-154041936D01*
X154179788Y-154163224D01*
X154403900Y-154256054D01*
X154638211Y-154318838D01*
X154818586Y-154342584D01*
X154878711Y-154350500D01*
X154878712Y-154350500D01*
X155121289Y-154350500D01*
X155169388Y-154344167D01*
X155361789Y-154318838D01*
X155596100Y-154256054D01*
X155820212Y-154163224D01*
X156030289Y-154041936D01*
X156222738Y-153894265D01*
X156394265Y-153722738D01*
X156541936Y-153530289D01*
X156663224Y-153320212D01*
X156756054Y-153096100D01*
X156818838Y-152861789D01*
X156850500Y-152621288D01*
X156850500Y-152378712D01*
X156818838Y-152138211D01*
X156756054Y-151903900D01*
X156663224Y-151679788D01*
X156541936Y-151469711D01*
X156394265Y-151277262D01*
X156394260Y-151277256D01*
X156222743Y-151105739D01*
X156222736Y-151105733D01*
X156030293Y-150958067D01*
X156030292Y-150958066D01*
X156030289Y-150958064D01*
X155820212Y-150836776D01*
X155780206Y-150820205D01*
X155596104Y-150743947D01*
X155361785Y-150681161D01*
X155121289Y-150649500D01*
X155121288Y-150649500D01*
X154878712Y-150649500D01*
X154878711Y-150649500D01*
X154638214Y-150681161D01*
X154403895Y-150743947D01*
X154179794Y-150836773D01*
X154179785Y-150836777D01*
X153969706Y-150958067D01*
X153777263Y-151105733D01*
X153777256Y-151105739D01*
X153605739Y-151277256D01*
X153605733Y-151277263D01*
X153458067Y-151469706D01*
X153336777Y-151679785D01*
X153336773Y-151679794D01*
X153243947Y-151903895D01*
X153181161Y-152138214D01*
X153149500Y-152378711D01*
X148875500Y-152378711D01*
X148875500Y-145174059D01*
X148875501Y-145174046D01*
X148875501Y-145005945D01*
X148875501Y-145005943D01*
X148834577Y-144853215D01*
X148819719Y-144827482D01*
X148799425Y-144792330D01*
X148799425Y-144792329D01*
X148755524Y-144716290D01*
X148755521Y-144716286D01*
X148755520Y-144716284D01*
X148643716Y-144604480D01*
X148643715Y-144604479D01*
X148639385Y-144600149D01*
X148639374Y-144600139D01*
X143701416Y-139662181D01*
X143667931Y-139600858D01*
X143672915Y-139531166D01*
X143714787Y-139475233D01*
X143780251Y-139450816D01*
X143789097Y-139450500D01*
X149602872Y-139450500D01*
X149669911Y-139470185D01*
X149715666Y-139522989D01*
X149725610Y-139592147D01*
X149696585Y-139655703D01*
X149643135Y-139691781D01*
X149435504Y-139763061D01*
X149435495Y-139763064D01*
X149231371Y-139873531D01*
X149231365Y-139873535D01*
X149048222Y-140016081D01*
X149048219Y-140016084D01*
X148891016Y-140186852D01*
X148764075Y-140381151D01*
X148670842Y-140593699D01*
X148613866Y-140818691D01*
X148613864Y-140818702D01*
X148594700Y-141049993D01*
X148594700Y-141050006D01*
X148613864Y-141281297D01*
X148613866Y-141281308D01*
X148670842Y-141506300D01*
X148764075Y-141718848D01*
X148891016Y-141913147D01*
X148891019Y-141913151D01*
X148891021Y-141913153D01*
X149048216Y-142083913D01*
X149048219Y-142083915D01*
X149048222Y-142083918D01*
X149231365Y-142226464D01*
X149231371Y-142226468D01*
X149231374Y-142226470D01*
X149398860Y-142317109D01*
X149434652Y-142336479D01*
X149435497Y-142336936D01*
X149549487Y-142376068D01*
X149655015Y-142412297D01*
X149655017Y-142412297D01*
X149655019Y-142412298D01*
X149883951Y-142450500D01*
X149883952Y-142450500D01*
X150116048Y-142450500D01*
X150116049Y-142450500D01*
X150344981Y-142412298D01*
X150564503Y-142336936D01*
X150768626Y-142226470D01*
X150769170Y-142226047D01*
X150830129Y-142178600D01*
X150951784Y-142083913D01*
X151108979Y-141913153D01*
X151146191Y-141856196D01*
X151199337Y-141810839D01*
X151268569Y-141801415D01*
X151331904Y-141830917D01*
X151353809Y-141856196D01*
X151391016Y-141913147D01*
X151391019Y-141913151D01*
X151391021Y-141913153D01*
X151548216Y-142083913D01*
X151548219Y-142083915D01*
X151548222Y-142083918D01*
X151731365Y-142226464D01*
X151731371Y-142226468D01*
X151731374Y-142226470D01*
X151898860Y-142317109D01*
X151934652Y-142336479D01*
X151935497Y-142336936D01*
X152049487Y-142376068D01*
X152155015Y-142412297D01*
X152155017Y-142412297D01*
X152155019Y-142412298D01*
X152383951Y-142450500D01*
X152383952Y-142450500D01*
X152616048Y-142450500D01*
X152616049Y-142450500D01*
X152844981Y-142412298D01*
X153064503Y-142336936D01*
X153268626Y-142226470D01*
X153269170Y-142226047D01*
X153330129Y-142178600D01*
X153451784Y-142083913D01*
X153608979Y-141913153D01*
X153646489Y-141855738D01*
X153699635Y-141810382D01*
X153768866Y-141800958D01*
X153832202Y-141830459D01*
X153846914Y-141847437D01*
X153848811Y-141847634D01*
X154517037Y-141179408D01*
X154534075Y-141242993D01*
X154599901Y-141357007D01*
X154692993Y-141450099D01*
X154807007Y-141515925D01*
X154870590Y-141532962D01*
X154201201Y-142202351D01*
X154231649Y-142226050D01*
X154435697Y-142336476D01*
X154435706Y-142336479D01*
X154655139Y-142411811D01*
X154883993Y-142450000D01*
X155116007Y-142450000D01*
X155344860Y-142411811D01*
X155564293Y-142336479D01*
X155564301Y-142336476D01*
X155768355Y-142226047D01*
X155798797Y-142202351D01*
X155798798Y-142202350D01*
X155129410Y-141532962D01*
X155192993Y-141515925D01*
X155307007Y-141450099D01*
X155400099Y-141357007D01*
X155465925Y-141242993D01*
X155482962Y-141179409D01*
X156151186Y-141847634D01*
X156235484Y-141718606D01*
X156328682Y-141506135D01*
X156385638Y-141281218D01*
X156404798Y-141050005D01*
X156404798Y-141049994D01*
X156385638Y-140818781D01*
X156328682Y-140593864D01*
X156235483Y-140381390D01*
X156151186Y-140252364D01*
X155482962Y-140920589D01*
X155465925Y-140857007D01*
X155400099Y-140742993D01*
X155307007Y-140649901D01*
X155192993Y-140584075D01*
X155129409Y-140567037D01*
X155798797Y-139897647D01*
X155798797Y-139897645D01*
X155768360Y-139873955D01*
X155768354Y-139873951D01*
X155564302Y-139763523D01*
X155564293Y-139763520D01*
X155344860Y-139688188D01*
X155116007Y-139650000D01*
X154883993Y-139650000D01*
X154655139Y-139688188D01*
X154435706Y-139763520D01*
X154435697Y-139763523D01*
X154231650Y-139873949D01*
X154201200Y-139897647D01*
X154870591Y-140567037D01*
X154807007Y-140584075D01*
X154692993Y-140649901D01*
X154599901Y-140742993D01*
X154534075Y-140857007D01*
X154517037Y-140920590D01*
X153848811Y-140252364D01*
X153844030Y-140252860D01*
X153800960Y-140289617D01*
X153731729Y-140299041D01*
X153668393Y-140269539D01*
X153646489Y-140244260D01*
X153608983Y-140186852D01*
X153608980Y-140186849D01*
X153608979Y-140186847D01*
X153451784Y-140016087D01*
X153451779Y-140016083D01*
X153451777Y-140016081D01*
X153268634Y-139873535D01*
X153268628Y-139873531D01*
X153064504Y-139763064D01*
X153064495Y-139763061D01*
X152844984Y-139687702D01*
X152673282Y-139659050D01*
X152616049Y-139649500D01*
X152383951Y-139649500D01*
X152346778Y-139655703D01*
X152155014Y-139687702D01*
X152103098Y-139705524D01*
X152033300Y-139708672D01*
X151975158Y-139675923D01*
X150787590Y-138488355D01*
X150787588Y-138488352D01*
X150668717Y-138369481D01*
X150668716Y-138369480D01*
X150581904Y-138319360D01*
X150581904Y-138319359D01*
X150581900Y-138319358D01*
X150531785Y-138290423D01*
X150379057Y-138249499D01*
X150220943Y-138249499D01*
X150213347Y-138249499D01*
X150213331Y-138249500D01*
X143750097Y-138249500D01*
X143683058Y-138229815D01*
X143662416Y-138213181D01*
X141287590Y-135838355D01*
X141287588Y-135838352D01*
X141194841Y-135745605D01*
X141161356Y-135684282D01*
X141166340Y-135614590D01*
X141171893Y-135602805D01*
X141171747Y-135602737D01*
X141209087Y-135522661D01*
X141273903Y-135383663D01*
X141335063Y-135155408D01*
X141355659Y-134920000D01*
X141335063Y-134684592D01*
X141300672Y-134556243D01*
X141302335Y-134486394D01*
X141332766Y-134436469D01*
X141405231Y-134364004D01*
X141630520Y-134138716D01*
X141681743Y-134049994D01*
X145594556Y-134049994D01*
X145594556Y-134050005D01*
X145614310Y-134364004D01*
X145614311Y-134364011D01*
X145673270Y-134673083D01*
X145770497Y-134972316D01*
X145770499Y-134972321D01*
X145904461Y-135257003D01*
X145904464Y-135257009D01*
X146073051Y-135522661D01*
X146073054Y-135522665D01*
X146273606Y-135765090D01*
X146273608Y-135765092D01*
X146502968Y-135980476D01*
X146502978Y-135980484D01*
X146757504Y-136165408D01*
X146757509Y-136165410D01*
X146757516Y-136165416D01*
X147033234Y-136316994D01*
X147033239Y-136316996D01*
X147033241Y-136316997D01*
X147033242Y-136316998D01*
X147325771Y-136432818D01*
X147325774Y-136432819D01*
X147630523Y-136511065D01*
X147630527Y-136511066D01*
X147696010Y-136519338D01*
X147942670Y-136550499D01*
X147942679Y-136550499D01*
X147942682Y-136550500D01*
X147942684Y-136550500D01*
X148257316Y-136550500D01*
X148257318Y-136550500D01*
X148257321Y-136550499D01*
X148257329Y-136550499D01*
X148443593Y-136526968D01*
X148569473Y-136511066D01*
X148874225Y-136432819D01*
X148874228Y-136432818D01*
X149166757Y-136316998D01*
X149166758Y-136316997D01*
X149166756Y-136316997D01*
X149166766Y-136316994D01*
X149442484Y-136165416D01*
X149697030Y-135980478D01*
X149926390Y-135765094D01*
X150126947Y-135522663D01*
X150295537Y-135257007D01*
X150429503Y-134972315D01*
X150526731Y-134673079D01*
X150585688Y-134364015D01*
X150593354Y-134242169D01*
X150605444Y-134050005D01*
X150605444Y-134049994D01*
X150585689Y-133735995D01*
X150585688Y-133735988D01*
X150585688Y-133735985D01*
X150526731Y-133426921D01*
X150429503Y-133127685D01*
X150413518Y-133093716D01*
X150295538Y-132842996D01*
X150295537Y-132842993D01*
X150228669Y-132737625D01*
X150126948Y-132577338D01*
X150126945Y-132577334D01*
X149926393Y-132334909D01*
X149926391Y-132334907D01*
X149697031Y-132119523D01*
X149697021Y-132119515D01*
X149442495Y-131934591D01*
X149442488Y-131934586D01*
X149442484Y-131934584D01*
X149166766Y-131783006D01*
X149166763Y-131783004D01*
X149166758Y-131783002D01*
X149166757Y-131783001D01*
X148874228Y-131667181D01*
X148874225Y-131667180D01*
X148569476Y-131588934D01*
X148569463Y-131588932D01*
X148257329Y-131549500D01*
X148257318Y-131549500D01*
X147942682Y-131549500D01*
X147942670Y-131549500D01*
X147630536Y-131588932D01*
X147630523Y-131588934D01*
X147325774Y-131667180D01*
X147325771Y-131667181D01*
X147033242Y-131783001D01*
X147033241Y-131783002D01*
X146757516Y-131934584D01*
X146757504Y-131934591D01*
X146502978Y-132119515D01*
X146502968Y-132119523D01*
X146273608Y-132334907D01*
X146273606Y-132334909D01*
X146073054Y-132577334D01*
X146073051Y-132577338D01*
X145904464Y-132842990D01*
X145904461Y-132842996D01*
X145770499Y-133127678D01*
X145770497Y-133127683D01*
X145673270Y-133426916D01*
X145614311Y-133735988D01*
X145614310Y-133735995D01*
X145594556Y-134049994D01*
X141681743Y-134049994D01*
X141709577Y-134001784D01*
X141750501Y-133849057D01*
X141750501Y-133690942D01*
X141750501Y-133683347D01*
X141750500Y-133683329D01*
X141750500Y-117378711D01*
X153149500Y-117378711D01*
X153149500Y-117621288D01*
X153181161Y-117861785D01*
X153243947Y-118096104D01*
X153305186Y-118243947D01*
X153336776Y-118320212D01*
X153458064Y-118530289D01*
X153458066Y-118530292D01*
X153458067Y-118530293D01*
X153605733Y-118722736D01*
X153605739Y-118722743D01*
X153777256Y-118894260D01*
X153777262Y-118894265D01*
X153969711Y-119041936D01*
X154179788Y-119163224D01*
X154403900Y-119256054D01*
X154638211Y-119318838D01*
X154818586Y-119342584D01*
X154878711Y-119350500D01*
X154878712Y-119350500D01*
X155121289Y-119350500D01*
X155169388Y-119344167D01*
X155361789Y-119318838D01*
X155596100Y-119256054D01*
X155820212Y-119163224D01*
X156030289Y-119041936D01*
X156222738Y-118894265D01*
X156394265Y-118722738D01*
X156541936Y-118530289D01*
X156663224Y-118320212D01*
X156756054Y-118096100D01*
X156818838Y-117861789D01*
X156850500Y-117621288D01*
X156850500Y-117378712D01*
X156818838Y-117138211D01*
X156756054Y-116903900D01*
X156663224Y-116679788D01*
X156541936Y-116469711D01*
X156481018Y-116390321D01*
X156394266Y-116277263D01*
X156394260Y-116277256D01*
X156222743Y-116105739D01*
X156222736Y-116105733D01*
X156030293Y-115958067D01*
X156030292Y-115958066D01*
X156030289Y-115958064D01*
X155820212Y-115836776D01*
X155792294Y-115825212D01*
X155596104Y-115743947D01*
X155361785Y-115681161D01*
X155121289Y-115649500D01*
X155121288Y-115649500D01*
X154878712Y-115649500D01*
X154878711Y-115649500D01*
X154638214Y-115681161D01*
X154403895Y-115743947D01*
X154179794Y-115836773D01*
X154179785Y-115836777D01*
X153969706Y-115958067D01*
X153777263Y-116105733D01*
X153777256Y-116105739D01*
X153605739Y-116277256D01*
X153605733Y-116277263D01*
X153458067Y-116469706D01*
X153336777Y-116679785D01*
X153336773Y-116679794D01*
X153243947Y-116903895D01*
X153181161Y-117138214D01*
X153149500Y-117378711D01*
X141750500Y-117378711D01*
X141750500Y-116750097D01*
X141770185Y-116683058D01*
X141786819Y-116662416D01*
X142799735Y-115649500D01*
X148923742Y-109525492D01*
X148979324Y-109493401D01*
X149105559Y-109459577D01*
X149155678Y-109430639D01*
X149242490Y-109380520D01*
X149354294Y-109268716D01*
X149354294Y-109268714D01*
X149364502Y-109258507D01*
X149364503Y-109258504D01*
X150594523Y-108028487D01*
X150655846Y-107995002D01*
X150682204Y-107992168D01*
X151579055Y-107992168D01*
X151579057Y-107992168D01*
X151731784Y-107951245D01*
X151868716Y-107872188D01*
X151980520Y-107760384D01*
X152059577Y-107623452D01*
X152100500Y-107470725D01*
X152100500Y-104443823D01*
X152600000Y-104443823D01*
X152600000Y-104666668D01*
X153650000Y-104666668D01*
X154150000Y-104666668D01*
X155200000Y-104666668D01*
X155200000Y-104443840D01*
X155199999Y-104443823D01*
X155193598Y-104384295D01*
X155193596Y-104384288D01*
X155143354Y-104249581D01*
X155143350Y-104249574D01*
X155057190Y-104134480D01*
X155057187Y-104134477D01*
X154942093Y-104048317D01*
X154942086Y-104048313D01*
X154807379Y-103998071D01*
X154807372Y-103998069D01*
X154747844Y-103991668D01*
X154150000Y-103991668D01*
X154150000Y-104666668D01*
X153650000Y-104666668D01*
X153650000Y-103991668D01*
X153052155Y-103991668D01*
X152992627Y-103998069D01*
X152992620Y-103998071D01*
X152857913Y-104048313D01*
X152857906Y-104048317D01*
X152742812Y-104134477D01*
X152742809Y-104134480D01*
X152656649Y-104249574D01*
X152656645Y-104249581D01*
X152606403Y-104384288D01*
X152606401Y-104384295D01*
X152600000Y-104443823D01*
X152100500Y-104443823D01*
X152100500Y-104112611D01*
X152059577Y-103959884D01*
X152006048Y-103867168D01*
X151980524Y-103822958D01*
X151980521Y-103822954D01*
X151980520Y-103822952D01*
X151868716Y-103711148D01*
X151868715Y-103711147D01*
X151864385Y-103706817D01*
X151864374Y-103706807D01*
X150292079Y-102134512D01*
X154900000Y-102134512D01*
X154906401Y-102194040D01*
X154906403Y-102194047D01*
X154956645Y-102328754D01*
X154956649Y-102328761D01*
X155042809Y-102443855D01*
X155042812Y-102443858D01*
X155157906Y-102530018D01*
X155157913Y-102530022D01*
X155292620Y-102580264D01*
X155292627Y-102580266D01*
X155352155Y-102586667D01*
X155352172Y-102586668D01*
X155775000Y-102586668D01*
X156275000Y-102586668D01*
X156697828Y-102586668D01*
X156697844Y-102586667D01*
X156757372Y-102580266D01*
X156757379Y-102580264D01*
X156892086Y-102530022D01*
X156892093Y-102530018D01*
X157007187Y-102443858D01*
X157007190Y-102443855D01*
X157093350Y-102328761D01*
X157093354Y-102328754D01*
X157143596Y-102194047D01*
X157143598Y-102194040D01*
X157149999Y-102134512D01*
X157150000Y-102134495D01*
X157150000Y-101836668D01*
X156275000Y-101836668D01*
X156275000Y-102586668D01*
X155775000Y-102586668D01*
X155775000Y-101836668D01*
X154900000Y-101836668D01*
X154900000Y-102134512D01*
X150292079Y-102134512D01*
X149436818Y-101279251D01*
X149403333Y-101217928D01*
X149400499Y-101191570D01*
X149400499Y-101038823D01*
X154900000Y-101038823D01*
X154900000Y-101336668D01*
X155775000Y-101336668D01*
X156275000Y-101336668D01*
X157150000Y-101336668D01*
X157150000Y-101038840D01*
X157149999Y-101038823D01*
X157143598Y-100979295D01*
X157143596Y-100979288D01*
X157093354Y-100844581D01*
X157093350Y-100844574D01*
X157007190Y-100729480D01*
X157007187Y-100729477D01*
X156892093Y-100643317D01*
X156892086Y-100643313D01*
X156757379Y-100593071D01*
X156757372Y-100593069D01*
X156697844Y-100586668D01*
X156275000Y-100586668D01*
X156275000Y-101336668D01*
X155775000Y-101336668D01*
X155775000Y-100586668D01*
X155352155Y-100586668D01*
X155292627Y-100593069D01*
X155292620Y-100593071D01*
X155157913Y-100643313D01*
X155157906Y-100643317D01*
X155042812Y-100729477D01*
X155042809Y-100729480D01*
X154956649Y-100844574D01*
X154956645Y-100844581D01*
X154906403Y-100979288D01*
X154906401Y-100979295D01*
X154900000Y-101038823D01*
X149400499Y-101038823D01*
X149400499Y-101038797D01*
X149400498Y-101038791D01*
X149400497Y-101038784D01*
X149394091Y-100979185D01*
X149375644Y-100929727D01*
X149343797Y-100844339D01*
X149343793Y-100844332D01*
X149257547Y-100729123D01*
X149257544Y-100729120D01*
X149142335Y-100642874D01*
X149142328Y-100642870D01*
X149007482Y-100592576D01*
X149007483Y-100592576D01*
X148947883Y-100586169D01*
X148947881Y-100586168D01*
X148947873Y-100586168D01*
X148947864Y-100586168D01*
X147602129Y-100586168D01*
X147602123Y-100586169D01*
X147542516Y-100592576D01*
X147407671Y-100642870D01*
X147407664Y-100642874D01*
X147292455Y-100729120D01*
X147292452Y-100729123D01*
X147206206Y-100844332D01*
X147206202Y-100844339D01*
X147155908Y-100979185D01*
X147150414Y-101030293D01*
X147149501Y-101038791D01*
X147149500Y-101038803D01*
X147149500Y-102134538D01*
X147149501Y-102134544D01*
X147155908Y-102194151D01*
X147206202Y-102328996D01*
X147206206Y-102329003D01*
X147292452Y-102444212D01*
X147292455Y-102444215D01*
X147407664Y-102530461D01*
X147407671Y-102530465D01*
X147542517Y-102580759D01*
X147542516Y-102580759D01*
X147549444Y-102581503D01*
X147602127Y-102587168D01*
X148947872Y-102587167D01*
X148947874Y-102587166D01*
X148947888Y-102587166D01*
X148977726Y-102583958D01*
X149046486Y-102596363D01*
X149078663Y-102619566D01*
X150238584Y-103779487D01*
X150272069Y-103840810D01*
X150267085Y-103910502D01*
X150225213Y-103966435D01*
X150159749Y-103990852D01*
X150150903Y-103991168D01*
X149552129Y-103991168D01*
X149552123Y-103991169D01*
X149492516Y-103997576D01*
X149357671Y-104047870D01*
X149357664Y-104047874D01*
X149242455Y-104134120D01*
X149242452Y-104134123D01*
X149156206Y-104249332D01*
X149156202Y-104249339D01*
X149105908Y-104384185D01*
X149101684Y-104423480D01*
X149099501Y-104443791D01*
X149099500Y-104443803D01*
X149099500Y-105316570D01*
X149079815Y-105383609D01*
X149063181Y-105404251D01*
X147629252Y-106838181D01*
X147567929Y-106871666D01*
X147541571Y-106874500D01*
X135624500Y-106874500D01*
X135557461Y-106854815D01*
X135511706Y-106802011D01*
X135500500Y-106750500D01*
X135500499Y-106451677D01*
X141525000Y-106451677D01*
X141525000Y-106475000D01*
X142250000Y-106475000D01*
X142750000Y-106475000D01*
X143474999Y-106475000D01*
X143474999Y-106451692D01*
X143474998Y-106451677D01*
X143464855Y-106352392D01*
X143411547Y-106191518D01*
X143411542Y-106191507D01*
X143322575Y-106047271D01*
X143322572Y-106047267D01*
X143202732Y-105927427D01*
X143202728Y-105927424D01*
X143058492Y-105838457D01*
X143058481Y-105838452D01*
X142897606Y-105785144D01*
X142798322Y-105775000D01*
X142750000Y-105775000D01*
X142750000Y-106475000D01*
X142250000Y-106475000D01*
X142250000Y-105775000D01*
X142249999Y-105774999D01*
X142201693Y-105775000D01*
X142201675Y-105775001D01*
X142102392Y-105785144D01*
X141941518Y-105838452D01*
X141941507Y-105838457D01*
X141797271Y-105927424D01*
X141797267Y-105927427D01*
X141677427Y-106047267D01*
X141677424Y-106047271D01*
X141588457Y-106191507D01*
X141588452Y-106191518D01*
X141535144Y-106352393D01*
X141525000Y-106451677D01*
X135500499Y-106451677D01*
X135500499Y-106193797D01*
X135500498Y-106193791D01*
X135500497Y-106193784D01*
X135494091Y-106134185D01*
X135490320Y-106124075D01*
X135443797Y-105999339D01*
X135443793Y-105999332D01*
X135357547Y-105884123D01*
X135352416Y-105878992D01*
X135318931Y-105817669D01*
X135323915Y-105747977D01*
X135352416Y-105703630D01*
X135357190Y-105698855D01*
X135443350Y-105583761D01*
X135443354Y-105583754D01*
X135493596Y-105449047D01*
X135493598Y-105449040D01*
X135499999Y-105389512D01*
X135500000Y-105389495D01*
X135500000Y-105166668D01*
X132900000Y-105166668D01*
X132900000Y-105389512D01*
X132906401Y-105449040D01*
X132906403Y-105449047D01*
X132956645Y-105583754D01*
X132956649Y-105583761D01*
X133042809Y-105698855D01*
X133047584Y-105703630D01*
X133081069Y-105764953D01*
X133076085Y-105834645D01*
X133047584Y-105878992D01*
X133042452Y-105884123D01*
X132956206Y-105999332D01*
X132956202Y-105999339D01*
X132905908Y-106134185D01*
X132901684Y-106173480D01*
X132899501Y-106193791D01*
X132899500Y-106193803D01*
X132899500Y-107139538D01*
X132899501Y-107139544D01*
X132905908Y-107199151D01*
X132955520Y-107332167D01*
X132960504Y-107401859D01*
X132927019Y-107463182D01*
X132865695Y-107496666D01*
X132839338Y-107499500D01*
X132060662Y-107499500D01*
X131993623Y-107479815D01*
X131947868Y-107427011D01*
X131937924Y-107357853D01*
X131944480Y-107332167D01*
X131994091Y-107199150D01*
X131998918Y-107154251D01*
X132000500Y-107139541D01*
X132000499Y-106193796D01*
X131994091Y-106134185D01*
X131990320Y-106124075D01*
X131943797Y-105999339D01*
X131943793Y-105999332D01*
X131857547Y-105884123D01*
X131852773Y-105879349D01*
X131819288Y-105818026D01*
X131824272Y-105748334D01*
X131852773Y-105703987D01*
X131857542Y-105699216D01*
X131857546Y-105699214D01*
X131943796Y-105583999D01*
X131994091Y-105449151D01*
X132000500Y-105389541D01*
X132000499Y-104443823D01*
X132900000Y-104443823D01*
X132900000Y-104666668D01*
X133950000Y-104666668D01*
X134450000Y-104666668D01*
X135500000Y-104666668D01*
X135500000Y-104443840D01*
X135499999Y-104443823D01*
X135493598Y-104384295D01*
X135493596Y-104384288D01*
X135443354Y-104249581D01*
X135443350Y-104249574D01*
X135357190Y-104134480D01*
X135357187Y-104134477D01*
X135242093Y-104048317D01*
X135242086Y-104048313D01*
X135107379Y-103998071D01*
X135107372Y-103998069D01*
X135047844Y-103991668D01*
X134450000Y-103991668D01*
X134450000Y-104666668D01*
X133950000Y-104666668D01*
X133950000Y-103991668D01*
X133352155Y-103991668D01*
X133292627Y-103998069D01*
X133292620Y-103998071D01*
X133157913Y-104048313D01*
X133157906Y-104048317D01*
X133042812Y-104134477D01*
X133042809Y-104134480D01*
X132956649Y-104249574D01*
X132956645Y-104249581D01*
X132906403Y-104384288D01*
X132906401Y-104384295D01*
X132900000Y-104443823D01*
X132000499Y-104443823D01*
X132000499Y-104443796D01*
X131994091Y-104384185D01*
X131990320Y-104374075D01*
X131943797Y-104249339D01*
X131943793Y-104249332D01*
X131857547Y-104134123D01*
X131857544Y-104134120D01*
X131742335Y-104047874D01*
X131742328Y-104047870D01*
X131607482Y-103997576D01*
X131607483Y-103997576D01*
X131547883Y-103991169D01*
X131547881Y-103991168D01*
X131547873Y-103991168D01*
X131547865Y-103991168D01*
X131424500Y-103991168D01*
X131357461Y-103971483D01*
X131311706Y-103918679D01*
X131300500Y-103867168D01*
X131300500Y-102189059D01*
X131300501Y-102189046D01*
X131300501Y-102134512D01*
X135200000Y-102134512D01*
X135206401Y-102194040D01*
X135206403Y-102194047D01*
X135256645Y-102328754D01*
X135256649Y-102328761D01*
X135342809Y-102443855D01*
X135342812Y-102443858D01*
X135457906Y-102530018D01*
X135457913Y-102530022D01*
X135592620Y-102580264D01*
X135592627Y-102580266D01*
X135652155Y-102586667D01*
X135652172Y-102586668D01*
X136075000Y-102586668D01*
X136575000Y-102586668D01*
X136997828Y-102586668D01*
X136997844Y-102586667D01*
X137057372Y-102580266D01*
X137057379Y-102580264D01*
X137192086Y-102530022D01*
X137192093Y-102530018D01*
X137307187Y-102443858D01*
X137307190Y-102443855D01*
X137393350Y-102328761D01*
X137393354Y-102328754D01*
X137443596Y-102194047D01*
X137443598Y-102194040D01*
X137449999Y-102134512D01*
X137450000Y-102134495D01*
X137450000Y-101836668D01*
X136575000Y-101836668D01*
X136575000Y-102586668D01*
X136075000Y-102586668D01*
X136075000Y-101836668D01*
X135200000Y-101836668D01*
X135200000Y-102134512D01*
X131300501Y-102134512D01*
X131300501Y-102020945D01*
X131300501Y-102020943D01*
X131259577Y-101868215D01*
X131230639Y-101818095D01*
X131180520Y-101731284D01*
X131068716Y-101619480D01*
X131068715Y-101619479D01*
X131064385Y-101615149D01*
X131064374Y-101615139D01*
X130488058Y-101038823D01*
X135200000Y-101038823D01*
X135200000Y-101336668D01*
X136075000Y-101336668D01*
X136575000Y-101336668D01*
X137450000Y-101336668D01*
X137450000Y-101038840D01*
X137449999Y-101038823D01*
X137443598Y-100979295D01*
X137443596Y-100979288D01*
X137393354Y-100844581D01*
X137393350Y-100844574D01*
X137307190Y-100729480D01*
X137307187Y-100729477D01*
X137192093Y-100643317D01*
X137192086Y-100643313D01*
X137057379Y-100593071D01*
X137057372Y-100593069D01*
X136997844Y-100586668D01*
X136575000Y-100586668D01*
X136575000Y-101336668D01*
X136075000Y-101336668D01*
X136075000Y-100586668D01*
X135652155Y-100586668D01*
X135592627Y-100593069D01*
X135592620Y-100593071D01*
X135457913Y-100643313D01*
X135457906Y-100643317D01*
X135342812Y-100729477D01*
X135342809Y-100729480D01*
X135256649Y-100844574D01*
X135256645Y-100844581D01*
X135206403Y-100979288D01*
X135206401Y-100979295D01*
X135200000Y-101038823D01*
X130488058Y-101038823D01*
X129874258Y-100425023D01*
X129874256Y-100425020D01*
X129755385Y-100306149D01*
X129755384Y-100306148D01*
X129668572Y-100256028D01*
X129668572Y-100256027D01*
X129668568Y-100256026D01*
X129618453Y-100227091D01*
X129465725Y-100186167D01*
X129307611Y-100186167D01*
X129300015Y-100186167D01*
X129299999Y-100186168D01*
X126292389Y-100186168D01*
X126134274Y-100186168D01*
X125981547Y-100227091D01*
X125981546Y-100227091D01*
X125981544Y-100227092D01*
X125981541Y-100227093D01*
X125931428Y-100256027D01*
X125931427Y-100256028D01*
X125888021Y-100281088D01*
X125844617Y-100306147D01*
X125844614Y-100306149D01*
X124169481Y-101981282D01*
X124169477Y-101981287D01*
X124119884Y-102067187D01*
X124119883Y-102067186D01*
X124090424Y-102118211D01*
X124090423Y-102118215D01*
X124049499Y-102270943D01*
X124049499Y-102270945D01*
X124049499Y-102439046D01*
X124049500Y-102439059D01*
X124049500Y-104375500D01*
X124029815Y-104442539D01*
X123977011Y-104488294D01*
X123925500Y-104499500D01*
X112434108Y-104499500D01*
X112306812Y-104533608D01*
X112192686Y-104599500D01*
X112192683Y-104599502D01*
X112099502Y-104692683D01*
X112099500Y-104692686D01*
X112081887Y-104723193D01*
X112031319Y-104771408D01*
X111962712Y-104784630D01*
X111897848Y-104758662D01*
X111857320Y-104701748D01*
X111850500Y-104661192D01*
X111850500Y-101185718D01*
X111870185Y-101118679D01*
X111918207Y-101075233D01*
X111957815Y-101055052D01*
X111957815Y-101055051D01*
X111957816Y-101055051D01*
X112062239Y-100979184D01*
X112129786Y-100930109D01*
X112129788Y-100930106D01*
X112129792Y-100930104D01*
X112280104Y-100779792D01*
X112280106Y-100779788D01*
X112280109Y-100779786D01*
X112405048Y-100607820D01*
X112405047Y-100607820D01*
X112405051Y-100607816D01*
X112501557Y-100418412D01*
X112567246Y-100216243D01*
X112600500Y-100006287D01*
X112600500Y-99878711D01*
X115649500Y-99878711D01*
X115649500Y-100121288D01*
X115673836Y-100306148D01*
X115681162Y-100361789D01*
X115696334Y-100418412D01*
X115743947Y-100596104D01*
X115836773Y-100820205D01*
X115836776Y-100820212D01*
X115958064Y-101030289D01*
X115958066Y-101030292D01*
X115958067Y-101030293D01*
X116105733Y-101222736D01*
X116105739Y-101222743D01*
X116277256Y-101394260D01*
X116277262Y-101394265D01*
X116469711Y-101541936D01*
X116679788Y-101663224D01*
X116903900Y-101756054D01*
X117138211Y-101818838D01*
X117273646Y-101836668D01*
X117378711Y-101850500D01*
X117378712Y-101850500D01*
X117621289Y-101850500D01*
X117669388Y-101844167D01*
X117861789Y-101818838D01*
X118096100Y-101756054D01*
X118320212Y-101663224D01*
X118530289Y-101541936D01*
X118722738Y-101394265D01*
X118894265Y-101222738D01*
X119041936Y-101030289D01*
X119163224Y-100820212D01*
X119256054Y-100596100D01*
X119318838Y-100361789D01*
X119350500Y-100121288D01*
X119350500Y-99878712D01*
X119318838Y-99638211D01*
X119256054Y-99403900D01*
X119163224Y-99179788D01*
X119041936Y-98969711D01*
X118894265Y-98777262D01*
X118894260Y-98777256D01*
X118722743Y-98605739D01*
X118722736Y-98605733D01*
X118530293Y-98458067D01*
X118530292Y-98458066D01*
X118530289Y-98458064D01*
X118320212Y-98336776D01*
X118320205Y-98336773D01*
X118096104Y-98243947D01*
X117861785Y-98181161D01*
X117621289Y-98149500D01*
X117621288Y-98149500D01*
X117378712Y-98149500D01*
X117378711Y-98149500D01*
X117138214Y-98181161D01*
X116903895Y-98243947D01*
X116679794Y-98336773D01*
X116679785Y-98336777D01*
X116469706Y-98458067D01*
X116277263Y-98605733D01*
X116277256Y-98605739D01*
X116105739Y-98777256D01*
X116105733Y-98777263D01*
X115958067Y-98969706D01*
X115836777Y-99179785D01*
X115836773Y-99179794D01*
X115743947Y-99403895D01*
X115681161Y-99638214D01*
X115649500Y-99878711D01*
X112600500Y-99878711D01*
X112600500Y-99493713D01*
X112567246Y-99283757D01*
X112501557Y-99081588D01*
X112405051Y-98892184D01*
X112405049Y-98892181D01*
X112405048Y-98892179D01*
X112280109Y-98720213D01*
X112129786Y-98569890D01*
X111957820Y-98444951D01*
X111768414Y-98348444D01*
X111768413Y-98348443D01*
X111768412Y-98348443D01*
X111566243Y-98282754D01*
X111566241Y-98282753D01*
X111566240Y-98282753D01*
X111404957Y-98257208D01*
X111356287Y-98249500D01*
X111143713Y-98249500D01*
X111095042Y-98257208D01*
X110933760Y-98282753D01*
X110731585Y-98348444D01*
X110542179Y-98444951D01*
X110370213Y-98569890D01*
X110219894Y-98720209D01*
X110219890Y-98720214D01*
X110100008Y-98885218D01*
X110044678Y-98927884D01*
X109975065Y-98933863D01*
X109913270Y-98901257D01*
X109899372Y-98885218D01*
X109779727Y-98720540D01*
X109779723Y-98720535D01*
X109629464Y-98570276D01*
X109629459Y-98570272D01*
X109457557Y-98445379D01*
X109268215Y-98348903D01*
X109066124Y-98283241D01*
X109000000Y-98272768D01*
X109000000Y-99316988D01*
X108942993Y-99284075D01*
X108815826Y-99250000D01*
X108684174Y-99250000D01*
X108557007Y-99284075D01*
X108500000Y-99316988D01*
X108500000Y-98272768D01*
X108499999Y-98272768D01*
X108433875Y-98283241D01*
X108231784Y-98348903D01*
X108042442Y-98445379D01*
X107870540Y-98570272D01*
X107870535Y-98570276D01*
X107720276Y-98720535D01*
X107720272Y-98720540D01*
X107600627Y-98885218D01*
X107545297Y-98927884D01*
X107475684Y-98933863D01*
X107413889Y-98901257D01*
X107399991Y-98885218D01*
X107280109Y-98720214D01*
X107280105Y-98720209D01*
X107129786Y-98569890D01*
X106957820Y-98444951D01*
X106768414Y-98348444D01*
X106768413Y-98348443D01*
X106768412Y-98348443D01*
X106566243Y-98282754D01*
X106566241Y-98282753D01*
X106566240Y-98282753D01*
X106404957Y-98257208D01*
X106356287Y-98249500D01*
X106143713Y-98249500D01*
X106095042Y-98257208D01*
X105933760Y-98282753D01*
X105731585Y-98348444D01*
X105542179Y-98444951D01*
X105370213Y-98569890D01*
X105219894Y-98720209D01*
X105219890Y-98720214D01*
X105100318Y-98884793D01*
X105044989Y-98927459D01*
X104975375Y-98933438D01*
X104913580Y-98900833D01*
X104899682Y-98884793D01*
X104780109Y-98720214D01*
X104780105Y-98720209D01*
X104629786Y-98569890D01*
X104457820Y-98444951D01*
X104268414Y-98348444D01*
X104268413Y-98348443D01*
X104268412Y-98348443D01*
X104066243Y-98282754D01*
X104066241Y-98282753D01*
X104066240Y-98282753D01*
X103904957Y-98257208D01*
X103856287Y-98249500D01*
X103643713Y-98249500D01*
X103595042Y-98257208D01*
X103433760Y-98282753D01*
X103231585Y-98348444D01*
X103042179Y-98444951D01*
X102870213Y-98569890D01*
X102719890Y-98720213D01*
X102594951Y-98892179D01*
X102498444Y-99081585D01*
X102432753Y-99283760D01*
X102399500Y-99493713D01*
X102399500Y-100006286D01*
X102432703Y-100215925D01*
X102432754Y-100216243D01*
X102498294Y-100417954D01*
X102498444Y-100418414D01*
X102594951Y-100607820D01*
X102719890Y-100779786D01*
X102870213Y-100930109D01*
X103042179Y-101055048D01*
X103042181Y-101055049D01*
X103042184Y-101055051D01*
X103231588Y-101151557D01*
X103433757Y-101217246D01*
X103643713Y-101250500D01*
X103643714Y-101250500D01*
X103856286Y-101250500D01*
X103856287Y-101250500D01*
X104066243Y-101217246D01*
X104268412Y-101151557D01*
X104457816Y-101055051D01*
X104562096Y-100979288D01*
X104629786Y-100930109D01*
X104629788Y-100930106D01*
X104629792Y-100930104D01*
X104780104Y-100779792D01*
X104899683Y-100615204D01*
X104955011Y-100572540D01*
X105024624Y-100566561D01*
X105086420Y-100599166D01*
X105100313Y-100615199D01*
X105219654Y-100779459D01*
X105219896Y-100779792D01*
X105370213Y-100930109D01*
X105542179Y-101055048D01*
X105542181Y-101055049D01*
X105542184Y-101055051D01*
X105731588Y-101151557D01*
X105933757Y-101217246D01*
X106143713Y-101250500D01*
X106143714Y-101250500D01*
X106356286Y-101250500D01*
X106356287Y-101250500D01*
X106566243Y-101217246D01*
X106768412Y-101151557D01*
X106957816Y-101055051D01*
X107062096Y-100979288D01*
X107129786Y-100930109D01*
X107129788Y-100930106D01*
X107129792Y-100930104D01*
X107280104Y-100779792D01*
X107399991Y-100614779D01*
X107455320Y-100572115D01*
X107524933Y-100566136D01*
X107586729Y-100598741D01*
X107600627Y-100614781D01*
X107720272Y-100779459D01*
X107720276Y-100779464D01*
X107870535Y-100929723D01*
X107870540Y-100929727D01*
X108042442Y-101054620D01*
X108231782Y-101151095D01*
X108433871Y-101216757D01*
X108500000Y-101227231D01*
X108500000Y-100183012D01*
X108557007Y-100215925D01*
X108684174Y-100250000D01*
X108815826Y-100250000D01*
X108942993Y-100215925D01*
X109000000Y-100183012D01*
X109000000Y-101227230D01*
X109066126Y-101216757D01*
X109066129Y-101216757D01*
X109268217Y-101151095D01*
X109457557Y-101054620D01*
X109629459Y-100929727D01*
X109629464Y-100929723D01*
X109779721Y-100779466D01*
X109899371Y-100614781D01*
X109954701Y-100572115D01*
X110024314Y-100566136D01*
X110086110Y-100598741D01*
X110100008Y-100614781D01*
X110219890Y-100779785D01*
X110219894Y-100779790D01*
X110370213Y-100930109D01*
X110542184Y-101055051D01*
X110542184Y-101055052D01*
X110581793Y-101075233D01*
X110632590Y-101123206D01*
X110649500Y-101185718D01*
X110649500Y-132424010D01*
X110629815Y-132491049D01*
X110577011Y-132536804D01*
X110507853Y-132546748D01*
X110444297Y-132517723D01*
X110406523Y-132458945D01*
X110401924Y-132434250D01*
X110386135Y-132243702D01*
X110386133Y-132243691D01*
X110329157Y-132018699D01*
X110235924Y-131806151D01*
X110108983Y-131611852D01*
X110108980Y-131611849D01*
X110108979Y-131611847D01*
X109951784Y-131441087D01*
X109951779Y-131441083D01*
X109951777Y-131441081D01*
X109768634Y-131298535D01*
X109768628Y-131298531D01*
X109564504Y-131188064D01*
X109564495Y-131188061D01*
X109344984Y-131112702D01*
X109173282Y-131084050D01*
X109116049Y-131074500D01*
X108883951Y-131074500D01*
X108838164Y-131082140D01*
X108655015Y-131112702D01*
X108455536Y-131181184D01*
X108385737Y-131184334D01*
X108325316Y-131149248D01*
X108293455Y-131087065D01*
X108300271Y-131017529D01*
X108301414Y-131014789D01*
X108336069Y-130934451D01*
X108429630Y-130621934D01*
X108486278Y-130300669D01*
X108505246Y-129975000D01*
X108486278Y-129649331D01*
X108429630Y-129328066D01*
X108336069Y-129015549D01*
X108206859Y-128716008D01*
X108043749Y-128433492D01*
X108043748Y-128433490D01*
X107848954Y-128171837D01*
X107848947Y-128171829D01*
X107848943Y-128171823D01*
X107625077Y-127934538D01*
X107625069Y-127934531D01*
X107625068Y-127934530D01*
X107375184Y-127724852D01*
X107375179Y-127724848D01*
X107375177Y-127724847D01*
X107102623Y-127545586D01*
X106874478Y-127431007D01*
X106811108Y-127399181D01*
X106811102Y-127399178D01*
X106504566Y-127287608D01*
X106504545Y-127287601D01*
X106187141Y-127212374D01*
X106187126Y-127212372D01*
X105863111Y-127174500D01*
X105536889Y-127174500D01*
X105253375Y-127207638D01*
X105212873Y-127212372D01*
X105212858Y-127212374D01*
X104895454Y-127287601D01*
X104895433Y-127287608D01*
X104588897Y-127399178D01*
X104588891Y-127399181D01*
X104297380Y-127545584D01*
X104024815Y-127724852D01*
X103774931Y-127934530D01*
X103774930Y-127934531D01*
X103774924Y-127934536D01*
X103774923Y-127934538D01*
X103551057Y-128171823D01*
X103551054Y-128171826D01*
X103551052Y-128171829D01*
X103551045Y-128171837D01*
X103356251Y-128433490D01*
X103193143Y-128716003D01*
X103193137Y-128716016D01*
X103063931Y-129015547D01*
X102970369Y-129328067D01*
X102970367Y-129328075D01*
X102913723Y-129649319D01*
X102913722Y-129649330D01*
X102894754Y-129974996D01*
X102894754Y-129975003D01*
X102913722Y-130300669D01*
X102913723Y-130300680D01*
X102970367Y-130621924D01*
X102970369Y-130621932D01*
X103063931Y-130934452D01*
X103193137Y-131233983D01*
X103193143Y-131233996D01*
X103356251Y-131516509D01*
X103551045Y-131778162D01*
X103551050Y-131778168D01*
X103551057Y-131778177D01*
X103774923Y-132015462D01*
X103774929Y-132015467D01*
X103774930Y-132015468D01*
X103774931Y-132015469D01*
X104024815Y-132225147D01*
X104024818Y-132225149D01*
X104024823Y-132225153D01*
X104297377Y-132404414D01*
X104588899Y-132550822D01*
X104895446Y-132662396D01*
X104895452Y-132662397D01*
X104895454Y-132662398D01*
X105212858Y-132737625D01*
X105212865Y-132737626D01*
X105212874Y-132737628D01*
X105536889Y-132775500D01*
X105536896Y-132775500D01*
X105863104Y-132775500D01*
X105863111Y-132775500D01*
X106187126Y-132737628D01*
X106187135Y-132737625D01*
X106187141Y-132737625D01*
X106443176Y-132676942D01*
X106504554Y-132662396D01*
X106811101Y-132550822D01*
X107102623Y-132404414D01*
X107375177Y-132225153D01*
X107405509Y-132199700D01*
X107469515Y-132171688D01*
X107538507Y-132182726D01*
X107590580Y-132229312D01*
X107609199Y-132296655D01*
X107608792Y-132304929D01*
X107596031Y-132458945D01*
X107594700Y-132475004D01*
X107594700Y-132475006D01*
X107613865Y-132706301D01*
X107629743Y-132769002D01*
X107627118Y-132838822D01*
X107597218Y-132887123D01*
X107155887Y-133328454D01*
X107079222Y-133443192D01*
X107026421Y-133570667D01*
X107026418Y-133570679D01*
X107002497Y-133690939D01*
X107002496Y-133690944D01*
X106999500Y-133706002D01*
X106999500Y-137292760D01*
X106979815Y-137359799D01*
X106927011Y-137405554D01*
X106857853Y-137415498D01*
X106819853Y-137403573D01*
X106811099Y-137399177D01*
X106504566Y-137287608D01*
X106504545Y-137287601D01*
X106187141Y-137212374D01*
X106187126Y-137212372D01*
X105863111Y-137174500D01*
X105536889Y-137174500D01*
X105253375Y-137207638D01*
X105212873Y-137212372D01*
X105212858Y-137212374D01*
X104895454Y-137287601D01*
X104895433Y-137287608D01*
X104588897Y-137399178D01*
X104588891Y-137399181D01*
X104297380Y-137545584D01*
X104024815Y-137724852D01*
X103774931Y-137934530D01*
X103774930Y-137934531D01*
X103774924Y-137934536D01*
X103774923Y-137934538D01*
X103551057Y-138171823D01*
X103551054Y-138171826D01*
X103551052Y-138171829D01*
X103551045Y-138171837D01*
X103356251Y-138433490D01*
X103193143Y-138716003D01*
X103193137Y-138716016D01*
X103063931Y-139015547D01*
X102970369Y-139328067D01*
X102970367Y-139328075D01*
X102913723Y-139649319D01*
X102913722Y-139649330D01*
X102894754Y-139974996D01*
X102894754Y-139975003D01*
X102913722Y-140300669D01*
X102913723Y-140300680D01*
X102970367Y-140621924D01*
X102970369Y-140621932D01*
X103063931Y-140934452D01*
X103193137Y-141233983D01*
X103193143Y-141233996D01*
X103356251Y-141516509D01*
X103551045Y-141778162D01*
X103551050Y-141778168D01*
X103551057Y-141778177D01*
X103774923Y-142015462D01*
X103774929Y-142015467D01*
X103774930Y-142015468D01*
X103774931Y-142015469D01*
X104024815Y-142225147D01*
X104024818Y-142225149D01*
X104024823Y-142225153D01*
X104297377Y-142404414D01*
X104588899Y-142550822D01*
X104895446Y-142662396D01*
X104895452Y-142662397D01*
X104895454Y-142662398D01*
X105212858Y-142737625D01*
X105212865Y-142737626D01*
X105212874Y-142737628D01*
X105536889Y-142775500D01*
X105536896Y-142775500D01*
X105863104Y-142775500D01*
X105863111Y-142775500D01*
X106187126Y-142737628D01*
X106187135Y-142737625D01*
X106187141Y-142737625D01*
X106443176Y-142676942D01*
X106504554Y-142662396D01*
X106811101Y-142550822D01*
X107102623Y-142404414D01*
X107375177Y-142225153D01*
X107625077Y-142015462D01*
X107848943Y-141778177D01*
X108043749Y-141516508D01*
X108206859Y-141233992D01*
X108336069Y-140934451D01*
X108429630Y-140621934D01*
X108434609Y-140593700D01*
X108486276Y-140300680D01*
X108486275Y-140300680D01*
X108486278Y-140300669D01*
X108498293Y-140094367D01*
X108521842Y-140028588D01*
X108577217Y-139985980D01*
X108646837Y-139980075D01*
X108708597Y-140012746D01*
X108709764Y-140013898D01*
X109063181Y-140367315D01*
X109096666Y-140428638D01*
X109099500Y-140454996D01*
X109099500Y-155385725D01*
X109079815Y-155452764D01*
X109027011Y-155498519D01*
X108957853Y-155508463D01*
X108894297Y-155479438D01*
X108893742Y-155478954D01*
X108872955Y-155460725D01*
X108627667Y-155296829D01*
X108627660Y-155296825D01*
X108363080Y-155166349D01*
X108083730Y-155071521D01*
X108083724Y-155071519D01*
X108083722Y-155071519D01*
X107794380Y-155013966D01*
X107794373Y-155013965D01*
X107794363Y-155013964D01*
X107500007Y-154994671D01*
X107499993Y-154994671D01*
X107205636Y-155013964D01*
X107205624Y-155013965D01*
X107205620Y-155013966D01*
X107205612Y-155013967D01*
X107205609Y-155013968D01*
X106916283Y-155071518D01*
X106916269Y-155071521D01*
X106636919Y-155166349D01*
X106372334Y-155296828D01*
X106127041Y-155460728D01*
X105905241Y-155655241D01*
X105710728Y-155877041D01*
X105546828Y-156122334D01*
X105416349Y-156386919D01*
X105321521Y-156666269D01*
X105321518Y-156666283D01*
X105263968Y-156955609D01*
X105263964Y-156955636D01*
X105244671Y-157249992D01*
X105244671Y-157250007D01*
X105263964Y-157544363D01*
X105263965Y-157544373D01*
X105263966Y-157544380D01*
X105263968Y-157544390D01*
X105321518Y-157833716D01*
X105321521Y-157833730D01*
X105416349Y-158113080D01*
X105546825Y-158377660D01*
X105546829Y-158377667D01*
X105710725Y-158622955D01*
X105905241Y-158844758D01*
X106127044Y-159039274D01*
X106238184Y-159113535D01*
X106372335Y-159203172D01*
X106636923Y-159333652D01*
X106916278Y-159428481D01*
X107205620Y-159486034D01*
X107233888Y-159487886D01*
X107499993Y-159505329D01*
X107500000Y-159505329D01*
X107500007Y-159505329D01*
X107735675Y-159489881D01*
X107794380Y-159486034D01*
X108083722Y-159428481D01*
X108363077Y-159333652D01*
X108627665Y-159203172D01*
X108872957Y-159039273D01*
X108893740Y-159021047D01*
X108957122Y-158991643D01*
X109026338Y-159001175D01*
X109079414Y-159046614D01*
X109099498Y-159113535D01*
X109099500Y-159114274D01*
X109099500Y-168142836D01*
X109079815Y-168209875D01*
X109027011Y-168255630D01*
X108957853Y-168265574D01*
X108956102Y-168265309D01*
X108894500Y-168255552D01*
X108856287Y-168249500D01*
X108643713Y-168249500D01*
X108605010Y-168255630D01*
X108433760Y-168282753D01*
X108231585Y-168348444D01*
X108042179Y-168444951D01*
X107870213Y-168569890D01*
X107719890Y-168720213D01*
X107594951Y-168892179D01*
X107498444Y-169081585D01*
X107432753Y-169283760D01*
X107399500Y-169493713D01*
X107399500Y-170006286D01*
X107421937Y-170147952D01*
X107432754Y-170216243D01*
X107489063Y-170389544D01*
X107498444Y-170418414D01*
X107594951Y-170607820D01*
X107719890Y-170779786D01*
X107870213Y-170930109D01*
X108042179Y-171055048D01*
X108042181Y-171055049D01*
X108042184Y-171055051D01*
X108231588Y-171151557D01*
X108433757Y-171217246D01*
X108643713Y-171250500D01*
X108643714Y-171250500D01*
X108856286Y-171250500D01*
X108856287Y-171250500D01*
X109066243Y-171217246D01*
X109114999Y-171201403D01*
X109184839Y-171199409D01*
X109240997Y-171231654D01*
X112253453Y-174244111D01*
X112253454Y-174244112D01*
X112295786Y-174272397D01*
X112340592Y-174326009D01*
X112349299Y-174395334D01*
X112319145Y-174458362D01*
X112259702Y-174495082D01*
X112226896Y-174499500D01*
X100624500Y-174499500D01*
X100557461Y-174479815D01*
X100511706Y-174427011D01*
X100500500Y-174375500D01*
X100500500Y-169493713D01*
X102399500Y-169493713D01*
X102399500Y-170006286D01*
X102421937Y-170147952D01*
X102432754Y-170216243D01*
X102489063Y-170389544D01*
X102498444Y-170418414D01*
X102594951Y-170607820D01*
X102719890Y-170779786D01*
X102870213Y-170930109D01*
X103042179Y-171055048D01*
X103042181Y-171055049D01*
X103042184Y-171055051D01*
X103231588Y-171151557D01*
X103433757Y-171217246D01*
X103643713Y-171250500D01*
X103643714Y-171250500D01*
X103856286Y-171250500D01*
X103856287Y-171250500D01*
X104066243Y-171217246D01*
X104268412Y-171151557D01*
X104457816Y-171055051D01*
X104513440Y-171014638D01*
X104629786Y-170930109D01*
X104629788Y-170930106D01*
X104629792Y-170930104D01*
X104780104Y-170779792D01*
X104780106Y-170779788D01*
X104780109Y-170779786D01*
X104905048Y-170607820D01*
X104905047Y-170607820D01*
X104905051Y-170607816D01*
X105001557Y-170418412D01*
X105067246Y-170216243D01*
X105100500Y-170006287D01*
X105100500Y-169493713D01*
X105067246Y-169283757D01*
X105001557Y-169081588D01*
X104905051Y-168892184D01*
X104905049Y-168892181D01*
X104905048Y-168892179D01*
X104780109Y-168720213D01*
X104629786Y-168569890D01*
X104457820Y-168444951D01*
X104268414Y-168348444D01*
X104268413Y-168348443D01*
X104268412Y-168348443D01*
X104066243Y-168282754D01*
X104066241Y-168282753D01*
X104066240Y-168282753D01*
X103894990Y-168255630D01*
X103856287Y-168249500D01*
X103643713Y-168249500D01*
X103605010Y-168255630D01*
X103433760Y-168282753D01*
X103231585Y-168348444D01*
X103042179Y-168444951D01*
X102870213Y-168569890D01*
X102719890Y-168720213D01*
X102594951Y-168892179D01*
X102498444Y-169081585D01*
X102432753Y-169283760D01*
X102399500Y-169493713D01*
X100500500Y-169493713D01*
X100500500Y-109749992D01*
X105244671Y-109749992D01*
X105244671Y-109750007D01*
X105263964Y-110044363D01*
X105263965Y-110044373D01*
X105263966Y-110044380D01*
X105263968Y-110044390D01*
X105321518Y-110333716D01*
X105321521Y-110333730D01*
X105416349Y-110613080D01*
X105546825Y-110877660D01*
X105546829Y-110877667D01*
X105710725Y-111122955D01*
X105905241Y-111344758D01*
X105987541Y-111416933D01*
X106127043Y-111539273D01*
X106372335Y-111703172D01*
X106636923Y-111833652D01*
X106916278Y-111928481D01*
X107205620Y-111986034D01*
X107233888Y-111987886D01*
X107499993Y-112005329D01*
X107500000Y-112005329D01*
X107500007Y-112005329D01*
X107735675Y-111989881D01*
X107794380Y-111986034D01*
X108083722Y-111928481D01*
X108363077Y-111833652D01*
X108627665Y-111703172D01*
X108872957Y-111539273D01*
X109094758Y-111344758D01*
X109289273Y-111122957D01*
X109453172Y-110877665D01*
X109583652Y-110613077D01*
X109678481Y-110333722D01*
X109736034Y-110044380D01*
X109755329Y-109750000D01*
X109755329Y-109749992D01*
X109736035Y-109455636D01*
X109736034Y-109455620D01*
X109678481Y-109166278D01*
X109583652Y-108886923D01*
X109453172Y-108622336D01*
X109289273Y-108377043D01*
X109246655Y-108328447D01*
X109094758Y-108155241D01*
X108872955Y-107960725D01*
X108627667Y-107796829D01*
X108627660Y-107796825D01*
X108363080Y-107666349D01*
X108083730Y-107571521D01*
X108083724Y-107571519D01*
X108083722Y-107571519D01*
X107794380Y-107513966D01*
X107794373Y-107513965D01*
X107794363Y-107513964D01*
X107500007Y-107494671D01*
X107499993Y-107494671D01*
X107205636Y-107513964D01*
X107205624Y-107513965D01*
X107205620Y-107513966D01*
X107205612Y-107513967D01*
X107205609Y-107513968D01*
X106916283Y-107571518D01*
X106916269Y-107571521D01*
X106636919Y-107666349D01*
X106372334Y-107796828D01*
X106127041Y-107960728D01*
X105905241Y-108155241D01*
X105710728Y-108377041D01*
X105546828Y-108622334D01*
X105416349Y-108886919D01*
X105321521Y-109166269D01*
X105321518Y-109166283D01*
X105263968Y-109455609D01*
X105263964Y-109455636D01*
X105244671Y-109749992D01*
X100500500Y-109749992D01*
X100500500Y-95624500D01*
X100520185Y-95557461D01*
X100572989Y-95511706D01*
X100624500Y-95500500D01*
X159375500Y-95500500D01*
X159442539Y-95520185D01*
G37*
%TD.AperFunction*%
%TA.AperFunction,Conductor*%
G36*
X111952151Y-132993131D02*
G01*
X111992680Y-133050044D01*
X111999500Y-133090602D01*
X111999500Y-165065891D01*
X112033608Y-165193187D01*
X112066554Y-165250250D01*
X112099500Y-165307314D01*
X112192686Y-165400500D01*
X112306814Y-165466392D01*
X112434108Y-165500500D01*
X112565892Y-165500500D01*
X123925499Y-165500500D01*
X123992538Y-165520185D01*
X124038293Y-165572989D01*
X124049499Y-165624500D01*
X124049499Y-165729054D01*
X124049498Y-165729054D01*
X124090423Y-165881785D01*
X124119358Y-165931900D01*
X124119359Y-165931904D01*
X124119360Y-165931904D01*
X124169479Y-166018714D01*
X124169481Y-166018717D01*
X124288349Y-166137585D01*
X124288355Y-166137590D01*
X129315139Y-171164374D01*
X129315160Y-171164397D01*
X129363180Y-171212416D01*
X129396666Y-171273739D01*
X129399500Y-171300098D01*
X129399500Y-172139538D01*
X129399501Y-172139544D01*
X129405908Y-172199151D01*
X129456202Y-172333996D01*
X129456206Y-172334003D01*
X129542452Y-172449212D01*
X129542455Y-172449215D01*
X129657664Y-172535461D01*
X129657671Y-172535465D01*
X129686998Y-172546403D01*
X129792517Y-172585759D01*
X129852127Y-172592168D01*
X129875497Y-172592167D01*
X129942536Y-172611849D01*
X129988292Y-172664651D01*
X129999500Y-172716167D01*
X129999500Y-172875500D01*
X129979815Y-172942539D01*
X129927011Y-172988294D01*
X129875500Y-172999500D01*
X113041519Y-172999500D01*
X112974480Y-172979815D01*
X112953838Y-172963181D01*
X110131016Y-170140359D01*
X110097531Y-170079036D01*
X110096224Y-170033281D01*
X110100500Y-170006287D01*
X110100500Y-169878711D01*
X115649500Y-169878711D01*
X115649500Y-170121288D01*
X115681161Y-170361785D01*
X115743947Y-170596104D01*
X115822383Y-170785464D01*
X115836776Y-170820212D01*
X115958064Y-171030289D01*
X115958066Y-171030292D01*
X115958067Y-171030293D01*
X116105733Y-171222736D01*
X116105739Y-171222743D01*
X116277256Y-171394260D01*
X116277263Y-171394266D01*
X116350528Y-171450484D01*
X116469711Y-171541936D01*
X116679788Y-171663224D01*
X116903900Y-171756054D01*
X117138211Y-171818838D01*
X117318586Y-171842584D01*
X117378711Y-171850500D01*
X117378712Y-171850500D01*
X117621289Y-171850500D01*
X117669388Y-171844167D01*
X117861789Y-171818838D01*
X118096100Y-171756054D01*
X118320212Y-171663224D01*
X118530289Y-171541936D01*
X118722738Y-171394265D01*
X118894265Y-171222738D01*
X119041936Y-171030289D01*
X119163224Y-170820212D01*
X119256054Y-170596100D01*
X119318838Y-170361789D01*
X119350500Y-170121288D01*
X119350500Y-169878712D01*
X119318838Y-169638211D01*
X119256054Y-169403900D01*
X119163224Y-169179788D01*
X119041936Y-168969711D01*
X118894265Y-168777262D01*
X118894260Y-168777256D01*
X118722743Y-168605739D01*
X118722736Y-168605733D01*
X118530293Y-168458067D01*
X118530292Y-168458066D01*
X118530289Y-168458064D01*
X118320212Y-168336776D01*
X118320205Y-168336773D01*
X118096104Y-168243947D01*
X117861785Y-168181161D01*
X117621289Y-168149500D01*
X117621288Y-168149500D01*
X117378712Y-168149500D01*
X117378711Y-168149500D01*
X117138214Y-168181161D01*
X116903895Y-168243947D01*
X116679794Y-168336773D01*
X116679785Y-168336777D01*
X116469706Y-168458067D01*
X116277263Y-168605733D01*
X116277256Y-168605739D01*
X116105739Y-168777256D01*
X116105733Y-168777263D01*
X115958067Y-168969706D01*
X115836777Y-169179785D01*
X115836773Y-169179794D01*
X115743947Y-169403895D01*
X115681161Y-169638214D01*
X115649500Y-169878711D01*
X110100500Y-169878711D01*
X110100500Y-169493713D01*
X110096224Y-169466718D01*
X110105178Y-169397427D01*
X110131013Y-169359642D01*
X110344114Y-169146543D01*
X110420775Y-169031811D01*
X110473580Y-168904329D01*
X110473580Y-168904325D01*
X110473582Y-168904322D01*
X110478934Y-168877411D01*
X110478934Y-168877409D01*
X110500500Y-168768993D01*
X110500500Y-140044485D01*
X110500500Y-140044482D01*
X110500499Y-140044480D01*
X110473582Y-139909160D01*
X110473581Y-139909159D01*
X110473580Y-139909150D01*
X110470394Y-139901459D01*
X110447051Y-139845103D01*
X110442954Y-139835212D01*
X110420778Y-139781672D01*
X110420771Y-139781660D01*
X110344115Y-139666937D01*
X110326497Y-139649319D01*
X110246542Y-139569364D01*
X109923997Y-139246819D01*
X109600363Y-138923184D01*
X109566878Y-138861861D01*
X109571862Y-138792169D01*
X109613734Y-138736236D01*
X109629027Y-138726448D01*
X109768353Y-138651048D01*
X109798797Y-138627351D01*
X109798798Y-138627351D01*
X109129409Y-137957962D01*
X109192993Y-137940925D01*
X109307007Y-137875099D01*
X109400099Y-137782007D01*
X109465925Y-137667993D01*
X109482962Y-137604409D01*
X110151186Y-138272634D01*
X110235484Y-138143606D01*
X110328682Y-137931135D01*
X110385638Y-137706218D01*
X110404798Y-137475005D01*
X110404798Y-137474994D01*
X110385638Y-137243781D01*
X110328682Y-137018864D01*
X110235483Y-136806390D01*
X110151186Y-136677364D01*
X109482962Y-137345589D01*
X109465925Y-137282007D01*
X109400099Y-137167993D01*
X109307007Y-137074901D01*
X109192993Y-137009075D01*
X109129407Y-136992036D01*
X109798797Y-136322647D01*
X109798769Y-136322197D01*
X109758656Y-136266459D01*
X109754982Y-136196686D01*
X109789614Y-136136003D01*
X109799455Y-136127474D01*
X109951784Y-136008913D01*
X110108979Y-135838153D01*
X110235924Y-135643849D01*
X110329157Y-135431300D01*
X110386134Y-135206305D01*
X110390351Y-135155413D01*
X110405300Y-134975006D01*
X110405300Y-134974993D01*
X110386135Y-134743702D01*
X110386131Y-134743682D01*
X110341680Y-134568151D01*
X110344304Y-134498331D01*
X110374202Y-134450031D01*
X111730520Y-133093716D01*
X111768113Y-133028601D01*
X111818679Y-132980387D01*
X111887286Y-132967163D01*
X111952151Y-132993131D01*
G37*
%TD.AperFunction*%
%TA.AperFunction,Conductor*%
G36*
X127392539Y-101406853D02*
G01*
X127438294Y-101459657D01*
X127449500Y-101511168D01*
X127449500Y-102134538D01*
X127449501Y-102134544D01*
X127455908Y-102194151D01*
X127506202Y-102328996D01*
X127506206Y-102329003D01*
X127592452Y-102444212D01*
X127592455Y-102444215D01*
X127707664Y-102530461D01*
X127707671Y-102530465D01*
X127752618Y-102547229D01*
X127842517Y-102580759D01*
X127863756Y-102583042D01*
X127928304Y-102609778D01*
X127968154Y-102667170D01*
X127974500Y-102706331D01*
X127974500Y-106395437D01*
X127974499Y-106395455D01*
X127974499Y-106561161D01*
X127974498Y-106561161D01*
X128015424Y-106713894D01*
X128027991Y-106735660D01*
X128027992Y-106735662D01*
X128094477Y-106850819D01*
X128094481Y-106850824D01*
X128213349Y-106969692D01*
X128213355Y-106969697D01*
X137973181Y-116729523D01*
X138006666Y-116790846D01*
X138009500Y-116817204D01*
X138009500Y-126020217D01*
X137989815Y-126087256D01*
X137937011Y-126133011D01*
X137867853Y-126142955D01*
X137804297Y-126113930D01*
X137797819Y-126107898D01*
X135128276Y-123438355D01*
X135128274Y-123438352D01*
X135009403Y-123319481D01*
X135009402Y-123319480D01*
X134922590Y-123269360D01*
X134922590Y-123269359D01*
X134922586Y-123269358D01*
X134872471Y-123240423D01*
X134719743Y-123199499D01*
X134561629Y-123199499D01*
X134554033Y-123199499D01*
X134554017Y-123199500D01*
X128886669Y-123199500D01*
X128886653Y-123199499D01*
X128879057Y-123199499D01*
X128720943Y-123199499D01*
X128613587Y-123228265D01*
X128568210Y-123240424D01*
X128568209Y-123240425D01*
X128518096Y-123269359D01*
X128518095Y-123269360D01*
X128474689Y-123294420D01*
X128431285Y-123319479D01*
X128431282Y-123319481D01*
X125462181Y-126288583D01*
X125400858Y-126322068D01*
X125331166Y-126317084D01*
X125275233Y-126275212D01*
X125250816Y-126209748D01*
X125250500Y-126200902D01*
X125250500Y-119878711D01*
X125649500Y-119878711D01*
X125649500Y-120121288D01*
X125681161Y-120361785D01*
X125743947Y-120596104D01*
X125836773Y-120820205D01*
X125836776Y-120820212D01*
X125958064Y-121030289D01*
X125958066Y-121030292D01*
X125958067Y-121030293D01*
X126105733Y-121222736D01*
X126105739Y-121222743D01*
X126277256Y-121394260D01*
X126277262Y-121394265D01*
X126469711Y-121541936D01*
X126679788Y-121663224D01*
X126903900Y-121756054D01*
X127138211Y-121818838D01*
X127318586Y-121842584D01*
X127378711Y-121850500D01*
X127378712Y-121850500D01*
X127621289Y-121850500D01*
X127669388Y-121844167D01*
X127861789Y-121818838D01*
X128096100Y-121756054D01*
X128320212Y-121663224D01*
X128530289Y-121541936D01*
X128722738Y-121394265D01*
X128894265Y-121222738D01*
X129041936Y-121030289D01*
X129163224Y-120820212D01*
X129256054Y-120596100D01*
X129318838Y-120361789D01*
X129350500Y-120121288D01*
X129350500Y-119878712D01*
X129318838Y-119638211D01*
X129256054Y-119403900D01*
X129163224Y-119179788D01*
X129041936Y-118969711D01*
X128894265Y-118777262D01*
X128894260Y-118777256D01*
X128722743Y-118605739D01*
X128722736Y-118605733D01*
X128530293Y-118458067D01*
X128530292Y-118458066D01*
X128530289Y-118458064D01*
X128320212Y-118336776D01*
X128280206Y-118320205D01*
X128096104Y-118243947D01*
X127861785Y-118181161D01*
X127621289Y-118149500D01*
X127621288Y-118149500D01*
X127378712Y-118149500D01*
X127378711Y-118149500D01*
X127138214Y-118181161D01*
X126903895Y-118243947D01*
X126679794Y-118336773D01*
X126679785Y-118336777D01*
X126469706Y-118458067D01*
X126277263Y-118605733D01*
X126277256Y-118605739D01*
X126105739Y-118777256D01*
X126105733Y-118777263D01*
X125958067Y-118969706D01*
X125836777Y-119179785D01*
X125836773Y-119179794D01*
X125743947Y-119403895D01*
X125681161Y-119638214D01*
X125649500Y-119878711D01*
X125250500Y-119878711D01*
X125250500Y-102650097D01*
X125270185Y-102583058D01*
X125286819Y-102562416D01*
X126425748Y-101423487D01*
X126487071Y-101390002D01*
X126513429Y-101387168D01*
X127325500Y-101387168D01*
X127392539Y-101406853D01*
G37*
%TD.AperFunction*%
%TA.AperFunction,Conductor*%
G36*
X138525521Y-108920185D02*
G01*
X138546163Y-108936819D01*
X138655886Y-109046542D01*
X138721525Y-109112181D01*
X138753459Y-109144115D01*
X138868182Y-109220771D01*
X138868186Y-109220773D01*
X138868189Y-109220775D01*
X138942866Y-109251707D01*
X138942867Y-109251707D01*
X138942869Y-109251709D01*
X138995666Y-109273578D01*
X138995671Y-109273580D01*
X138995680Y-109273581D01*
X138995681Y-109273582D01*
X139022545Y-109278925D01*
X139022551Y-109278926D01*
X139022591Y-109278934D01*
X139112937Y-109296905D01*
X139131006Y-109300500D01*
X139131007Y-109300500D01*
X139175500Y-109300500D01*
X139242539Y-109320185D01*
X139288294Y-109372989D01*
X139299500Y-109424500D01*
X139299500Y-116058008D01*
X139279815Y-116125047D01*
X139227011Y-116170802D01*
X139157853Y-116180746D01*
X139094297Y-116151721D01*
X139087819Y-116145689D01*
X138974397Y-116032267D01*
X138974374Y-116032246D01*
X132054309Y-109112181D01*
X132020824Y-109050858D01*
X132025808Y-108981166D01*
X132067680Y-108925233D01*
X132133144Y-108900816D01*
X132141990Y-108900500D01*
X138331007Y-108900500D01*
X138458482Y-108900500D01*
X138525521Y-108920185D01*
G37*
%TD.AperFunction*%
%TA.AperFunction,Conductor*%
G36*
X147217942Y-109320185D02*
G01*
X147263697Y-109372989D01*
X147273641Y-109442147D01*
X147244616Y-109505703D01*
X147238584Y-109512181D01*
X140912181Y-115838583D01*
X140850858Y-115872068D01*
X140781166Y-115867084D01*
X140725233Y-115825212D01*
X140700816Y-115759748D01*
X140700500Y-115750902D01*
X140700500Y-109424500D01*
X140720185Y-109357461D01*
X140772989Y-109311706D01*
X140824500Y-109300500D01*
X147150903Y-109300500D01*
X147217942Y-109320185D01*
G37*
%TD.AperFunction*%
%TD*%
M02*
