M48
; DRILL file {KiCad 8.0.8} date 2025-04-07T16:00:02+0200
; FORMAT={-:-/ absolute / inch / decimal}
; #@! TF.CreationDate,2025-04-07T16:00:02+02:00
; #@! TF.GenerationSoftware,Kicad,Pcbnew,8.0.8
; #@! TF.FileFunction,Plated,1,2,PTH
FMAT,2
INCH
; #@! TA.AperFunction,Plated,PTH,ViaDrill
T1C0.0118
; #@! TA.AperFunction,Plated,PTH,ComponentDrill
T2C0.0394
; #@! TA.AperFunction,Plated,PTH,ComponentDrill
T3C0.0787
; #@! TA.AperFunction,Plated,PTH,ComponentDrill
T4C0.0906
%
G90
G05
T1
X2.7087Y-2.5984
X5.0709Y-4.4567
X5.1732Y-5.748
X5.2047Y-4.9606
X5.315Y-4.3228
X5.4567Y-5.6457
X5.7008Y-4.3307
X5.8819Y-6.8386
X6.1181Y-6.7638
T2
X4.0846Y-3.9272
X4.0846Y-6.6831
X4.1831Y-3.9272
X4.2815Y-3.9272
X4.2815Y-6.6831
X4.2913Y-5.2156
X4.2913Y-5.314
X4.2913Y-5.4124
X4.3799Y-3.9272
X5.4118Y-5.1118
X5.4118Y-5.2118
X5.4118Y-5.3118
X5.4118Y-5.4118
X5.4118Y-5.5118
X5.5118Y-5.1118
X5.5118Y-5.2118
X5.5118Y-5.3118
X5.5118Y-5.4118
X5.5118Y-5.5118
X5.9055Y-5.5531
X6.0039Y-5.5531
X6.1024Y-5.5531
T3
X4.2323Y-4.3209
X4.2323Y-6.1909
T4
X4.1614Y-5.1171
X4.1614Y-5.5108
M30
