%TF.GenerationSoftware,KiCad,Pcbnew,8.0.8*%
%TF.CreationDate,2025-04-07T16:00:04+02:00*%
%TF.ProjectId,tv25-tbar,74763235-2d74-4626-9172-2e6b69636164,rev?*%
%TF.SameCoordinates,Original*%
%TF.FileFunction,Legend,Bot*%
%TF.FilePolarity,Positive*%
%FSLAX46Y46*%
G04 Gerber Fmt 4.6, Leading zero omitted, Abs format (unit mm)*
G04 Created by KiCad (PCBNEW 8.0.8) date 2025-04-07 16:00:04*
%MOMM*%
%LPD*%
G01*
G04 APERTURE LIST*
%ADD10C,0.150000*%
%ADD11C,0.120000*%
G04 APERTURE END LIST*
D10*
X139063333Y-123194819D02*
X139063333Y-123909104D01*
X139063333Y-123909104D02*
X139110952Y-124051961D01*
X139110952Y-124051961D02*
X139206190Y-124147200D01*
X139206190Y-124147200D02*
X139349047Y-124194819D01*
X139349047Y-124194819D02*
X139444285Y-124194819D01*
X138063333Y-124194819D02*
X138634761Y-124194819D01*
X138349047Y-124194819D02*
X138349047Y-123194819D01*
X138349047Y-123194819D02*
X138444285Y-123337676D01*
X138444285Y-123337676D02*
X138539523Y-123432914D01*
X138539523Y-123432914D02*
X138634761Y-123480533D01*
D11*
%TO.C,J1*%
X134170000Y-124630000D02*
X143290000Y-124630000D01*
X134170000Y-145210000D02*
X134170000Y-124630000D01*
X135480000Y-125930000D02*
X141980000Y-125930000D01*
X135480000Y-143910000D02*
X135480000Y-125930000D01*
X141980000Y-125930000D02*
X141980000Y-132870000D01*
X141980000Y-132870000D02*
X143290000Y-132870000D01*
X141980000Y-136970000D02*
X141980000Y-136970000D01*
X141980000Y-136970000D02*
X141980000Y-143910000D01*
X141980000Y-143910000D02*
X135480000Y-143910000D01*
X143290000Y-124630000D02*
X143290000Y-145210000D01*
X143290000Y-136970000D02*
X141980000Y-136970000D01*
X143290000Y-145210000D02*
X134170000Y-145210000D01*
X143680000Y-129840000D02*
X144680000Y-130340000D01*
X144680000Y-129340000D02*
X143680000Y-129840000D01*
X144680000Y-130340000D02*
X144680000Y-129340000D01*
%TD*%
M02*
