<?xml version="1.0" encoding="UTF-8" standalone="no"?>
<!DOCTYPE svg PUBLIC "-//W3C//DTD SVG 1.1//EN" "http://www.w3.org/Graphics/SVG/1.1/DTD/svg11.dtd">
<svg width="100%" height="100%" viewBox="0 0 278 37" version="1.1" xmlns="http://www.w3.org/2000/svg" xmlns:xlink="http://www.w3.org/1999/xlink" xml:space="preserve" xmlns:serif="http://www.serif.com/" style="fill-rule:evenodd;clip-rule:evenodd;stroke-linejoin:round;stroke-miterlimit:2;">
    <g transform="matrix(0.48,0,0,0.48,-704.234,-578.137)">
        <g transform="matrix(4.16667,0,0,4.16667,0,4.96829)">
            <path d="M376.98,301.542C376.777,301.743 376.573,301.843 376.35,301.843C375.62,301.843 375.112,301.662 374.806,301.281C374.542,300.959 374.421,300.437 374.421,299.693C374.421,299.754 374.421,299.754 374.44,299.674L374.44,298.89C374.44,298.207 374.339,297.725 374.115,297.423C373.852,297.082 373.405,296.901 372.736,296.901C372.206,296.901 371.679,297.082 371.171,297.423C370.603,297.805 370.317,298.227 370.317,298.729C370.317,299.352 370.5,299.814 370.887,300.115C371.414,300.437 371.943,300.758 372.471,301.1C372.37,301.602 371.84,301.843 370.906,301.843C370.114,301.843 369.486,301.602 368.997,301.14C368.51,300.678 368.266,300.055 368.266,299.272C368.266,297.785 369.098,296.961 370.764,296.78C371.231,296.741 371.8,296.579 372.512,296.298C373.608,295.876 374.156,295.375 374.156,294.811C374.156,294.47 373.933,294.129 373.506,293.807C373.06,293.466 372.654,293.305 372.288,293.305C372.206,293.305 372.086,293.325 371.943,293.345C371.8,293.385 371.679,293.405 371.597,293.405C371.292,293.405 371.07,293.325 370.906,293.185L370.906,292.883C370.906,292.461 371.435,292.24 372.491,292.24C373.283,292.24 373.73,292.261 373.872,292.28C374.623,292.421 375.172,292.843 375.558,293.506C375.883,294.069 376.046,294.751 376.046,295.575C376.046,295.796 376.025,296.138 376.005,296.579C375.985,297.022 375.964,297.363 375.964,297.584C375.964,298.127 376.025,298.589 376.128,298.97C376.208,299.151 376.412,299.493 376.756,300.015C377.102,300.557 377.285,300.859 377.285,300.919C377.285,301.14 377.182,301.341 376.98,301.542" style="fill:rgb(35,31,32);fill-rule:nonzero;"/>
        </g>
        <g transform="matrix(4.16667,0,0,4.16667,0,3.46683)">
            <path d="M398.957,301.902C398.774,302.062 398.591,302.144 398.408,302.144C398.165,302.144 397.922,302.082 397.698,301.942C397.474,301.802 397.353,301.62 397.353,301.4C397.353,301.019 397.373,300.436 397.414,299.651C397.474,298.868 397.495,298.286 397.495,297.904C397.495,295.555 396.764,294.147 395.322,293.726C394.65,293.524 394.022,293.524 393.432,293.726C393.006,293.866 392.722,294.288 392.599,294.972C392.539,295.313 392.457,295.795 392.336,296.377L392.336,301.179C392.356,301.22 392.356,301.26 392.356,301.319C392.356,301.5 392.233,301.682 392.011,301.821C391.788,301.962 391.564,302.043 391.361,302.043C391.137,302.043 390.974,301.962 390.853,301.802C390.63,301.5 390.507,301.139 390.507,300.677L390.507,296.68C390.507,296.68 390.528,296.538 390.528,296.258L390.528,293.444C390.528,293.224 390.63,293.062 390.813,292.922C391.015,292.781 391.218,292.701 391.441,292.701C391.624,292.701 391.908,292.741 392.274,292.802C392.64,292.883 392.924,292.922 393.107,292.922C393.27,292.922 393.858,292.781 394.855,292.521C395.443,292.359 395.911,292.3 396.256,292.319C396.723,292.359 397.291,292.601 397.941,293.022C398.692,293.524 399.079,293.986 399.12,294.449C399.181,295.192 399.221,297.522 399.221,301.4C399.221,301.58 399.14,301.762 398.957,301.902" style="fill:rgb(35,31,32);fill-rule:nonzero;"/>
        </g>
        <g transform="matrix(4.16667,0,0,4.16667,0,20.2026)">
            <path d="M412.362,301.642C412.382,301.341 412.484,301.14 412.647,301.039C412.911,300.858 413.46,300.739 414.272,300.698C415.003,300.658 415.531,300.457 415.836,300.095C416.282,299.593 416.506,298.95 416.506,298.187C416.506,297.745 416.222,297.021 415.673,296.018C415.145,295.073 414.84,294.51 414.779,294.37C413.297,291.055 412.545,289.368 412.545,289.267C412.545,289.046 412.606,288.845 412.748,288.665C412.89,288.483 413.073,288.383 413.277,288.383C413.662,288.383 413.947,288.504 414.13,288.745C414.617,289.368 415.124,290.231 415.632,291.356L416.891,294.108C417.095,294.551 417.399,294.752 417.725,294.752C417.786,294.752 417.846,294.731 417.907,294.672C418.944,293.687 419.715,292.12 420.223,289.991C420.244,289.81 420.324,289.448 420.426,288.945C420.487,288.665 420.771,288.523 421.299,288.523C421.787,288.523 422.031,288.785 422.031,289.287C422.031,289.589 421.645,290.513 420.873,292.06C420.69,292.241 420.466,292.582 420.223,293.044C420.02,294.048 419.594,295.152 418.964,296.339C418.882,296.5 418.72,296.801 418.477,297.263C418.415,297.384 418.334,297.665 418.171,298.087C417.928,298.749 417.725,299.231 417.541,299.513C417.257,299.955 416.891,300.316 416.445,300.618C416.344,300.678 416.202,300.818 416.039,301.039C415.876,301.261 415.734,301.381 415.632,301.462C415.064,301.843 414.373,302.044 413.561,302.044C413.012,302.044 412.627,301.903 412.362,301.642" style="fill:rgb(35,31,32);fill-rule:nonzero;"/>
        </g>
        <g transform="matrix(4.16667,0,0,4.16667,0,3.12908)">
            <path d="M450.121,301.763C449.797,301.962 449.512,302.063 449.289,302.063C448.984,302.063 448.802,301.923 448.74,301.661C448.639,301.22 448.537,299.331 448.477,295.977C448.456,295.273 448.111,294.69 447.399,294.269C446.79,293.888 446.099,293.706 445.348,293.706C445.105,293.706 444.881,293.727 444.678,293.786C444.556,293.847 444.435,293.968 444.313,294.127C443.927,294.831 443.703,295.434 443.662,295.977C443.622,296.438 443.622,297.383 443.662,298.77C443.703,299.935 443.662,300.857 443.561,301.541C443.52,301.883 443.196,302.063 442.606,302.063C442.423,302.063 442.281,302.023 442.199,301.943C441.896,301.642 441.753,301.18 441.753,300.598C441.753,300.416 441.773,300.176 441.794,299.833C441.835,299.492 441.854,299.231 441.854,299.07C441.874,297.663 441.835,296.699 441.753,296.197C441.692,295.835 441.53,295.434 441.265,295.013C441.002,294.57 440.716,294.208 440.413,293.968C440.271,293.847 439.803,293.706 439.011,293.525C438.848,293.405 438.706,293.345 438.605,293.345C438.585,293.284 438.544,293.204 438.482,293.104C438.829,292.682 439.437,292.462 440.271,292.462C440.738,292.462 441.185,292.521 441.57,292.682C441.692,292.722 442.098,292.923 442.769,293.265C443.236,293.506 443.641,293.626 443.966,293.626C444.129,293.626 444.292,293.587 444.435,293.525C444.536,293.466 444.719,293.345 444.941,293.123C445.165,292.902 445.369,292.763 445.552,292.702C446.241,292.501 446.851,292.4 447.379,292.4C447.664,292.4 447.969,292.44 448.273,292.501C449.33,292.722 450.02,293.888 450.324,295.977C450.466,296.921 450.548,298.146 450.548,299.693C450.548,300.315 450.569,300.798 450.588,301.14C450.609,301.36 450.446,301.562 450.121,301.763M437.589,293.546C437.589,293.687 437.427,294.229 437.102,295.192C436.878,295.835 436.777,296.619 436.777,297.563C436.777,297.905 436.817,298.589 436.878,299.572C436.939,300.356 436.96,300.998 436.939,301.46C436.878,301.562 436.777,301.701 436.655,301.883C436.35,302.043 436.086,302.124 435.863,302.124C435.314,302.124 435.05,301.642 435.05,300.678C435.05,300.536 435.07,300.296 435.091,299.975C435.111,299.653 435.131,299.411 435.131,299.25C435.05,296.538 435.03,294.57 435.091,293.305C435.091,293.083 435.314,292.902 435.7,292.763C435.842,292.702 435.985,292.682 436.167,292.682C436.817,292.682 437.264,292.883 437.528,293.265C437.569,293.324 437.589,293.426 437.589,293.546" style="fill:rgb(35,31,32);fill-rule:nonzero;"/>
        </g>
        <g transform="matrix(4.16667,0,0,4.16667,0,4.96829)">
            <path d="M472.505,301.542C472.302,301.743 472.098,301.843 471.875,301.843C471.144,301.843 470.636,301.662 470.331,301.281C470.068,300.959 469.945,300.437 469.945,299.693C469.945,299.754 469.945,299.754 469.965,299.674L469.965,298.89C469.965,298.207 469.864,297.725 469.64,297.423C469.377,297.082 468.929,296.901 468.26,296.901C467.731,296.901 467.203,297.082 466.696,297.423C466.127,297.805 465.842,298.227 465.842,298.729C465.842,299.352 466.025,299.814 466.411,300.115C466.939,300.437 467.468,300.758 467.996,301.1C467.894,301.602 467.366,301.843 466.431,301.843C465.639,301.843 465.01,301.602 464.521,301.14C464.035,300.678 463.791,300.055 463.791,299.272C463.791,297.785 464.623,296.961 466.289,296.78C466.756,296.741 467.325,296.579 468.036,296.298C469.132,295.876 469.681,295.375 469.681,294.811C469.681,294.47 469.457,294.129 469.031,293.807C468.585,293.466 468.178,293.305 467.813,293.305C467.731,293.305 467.61,293.325 467.468,293.345C467.325,293.385 467.203,293.405 467.122,293.405C466.817,293.405 466.594,293.325 466.431,293.185L466.431,292.883C466.431,292.461 466.96,292.24 468.015,292.24C468.808,292.24 469.255,292.261 469.396,292.28C470.148,292.421 470.696,292.843 471.082,293.506C471.407,294.069 471.57,294.751 471.57,295.575C471.57,295.796 471.549,296.138 471.53,296.579C471.509,297.022 471.489,297.363 471.489,297.584C471.489,298.127 471.549,298.589 471.652,298.97C471.733,299.151 471.936,299.493 472.281,300.015C472.627,300.557 472.808,300.859 472.808,300.919C472.808,301.14 472.707,301.341 472.505,301.542" style="fill:rgb(35,31,32);fill-rule:nonzero;"/>
        </g>
        <g transform="matrix(4.16667,0,0,4.16667,0,5.13508)">
            <path d="M352.131,306.207C352.131,306.207 352.273,306.057 352.434,305.407C352.477,305.238 352.492,305.06 352.492,304.961C352.492,304.028 352.504,303.572 352.504,303.572L352.504,289.892C352.504,289.892 352.518,289.157 352.467,288.736C352.417,288.315 352.192,287.911 352.117,287.836L356.233,287.858L356.233,288.319L353.779,288.319L353.779,305.777L356.233,305.777L356.233,306.207L352.131,306.207" style="fill:rgb(35,31,32);fill-rule:nonzero;"/>
        </g>
        <g transform="matrix(4.16667,0,0,4.16667,0,5.72917)">
            <path d="M490.736,306.136L486.635,306.136L486.635,305.704L489.09,305.704L489.09,288.247L486.635,288.247L486.635,287.786L490.751,287.765C490.676,287.838 490.45,288.243 490.4,288.664C490.351,289.085 490.364,289.819 490.364,289.819C490.363,289.944 490.363,290.085 490.363,290.245L490.363,303.5C490.363,303.5 490.375,303.956 490.375,304.89C490.375,304.987 490.391,305.165 490.433,305.334C490.595,305.984 490.736,306.136 490.736,306.136" style="fill:rgb(35,31,32);fill-rule:nonzero;"/>
        </g>
    </g>
</svg>
