M48
; DRILL file {KiCad 9.0.1} date 2025-05-28T08:32:54+0200
; FORMAT={-:-/ absolute / inch / decimal}
; #@! TF.CreationDate,2025-05-28T08:32:54+02:00
; #@! TF.GenerationSoftware,Kicad,Pcbnew,9.0.1
; #@! TF.FileFunction,Plated,1,2,PTH
FMAT,2
INCH
; #@! TA.AperFunction,Plated,PTH,ViaDrill
T1C0.0118
; #@! TA.AperFunction,Plated,PTH,ComponentDrill
T2C0.0236
; #@! TA.AperFunction,Plated,PTH,ComponentDrill
T3C0.0315
; #@! TA.AperFunction,Plated,PTH,ComponentDrill
T4C0.0394
; #@! TA.AperFunction,Plated,PTH,ComponentDrill
T5C0.0433
%
G90
G05
T1
X4.595Y-5.5177
X4.615Y-5.485
X4.635Y-6.195
X4.7294Y-6.19
X4.755Y-6.2224
X4.79Y-6.155
X4.8306Y-6.0306
X4.855Y-5.74
X4.895Y-5.745
X4.93Y-6.37
X4.945Y-6.195
X4.965Y-6.26
X4.9695Y-6.325
X4.9695Y-6.4
X4.98Y-6.18
X5.005Y-6.445
X5.0133Y-6.18
X5.0163Y-5.4975
X5.035Y-5.395
X5.0472Y-6.365
X5.0472Y-6.405
X5.067Y-6.2026
X5.1102Y-6.3
X5.1102Y-6.355
X5.1102Y-6.41
X5.1206Y-6.1956
X5.25Y-6.28
X5.36Y-5.85
X5.37Y-6.374
T2
X4.4276Y-6.2173
X4.4276Y-6.3173
X4.4276Y-6.4173
X4.5276Y-6.2173
X4.5276Y-6.3173
X4.5276Y-6.4173
T3
X4.4193Y-5.6299
X4.4193Y-5.7299
X4.4193Y-5.8299
T4
X4.5616Y-5.7278
X4.5616Y-5.8278
X5.4269Y-5.5956
X5.4906Y-5.8055
X5.4906Y-5.9055
X5.4906Y-6.0055
X5.4906Y-6.1055
X5.4906Y-6.2055
X5.5269Y-5.5956
X5.5906Y-5.8055
X5.5906Y-5.9055
X5.5906Y-6.0055
X5.5906Y-6.1055
X5.5906Y-6.2055
X5.6269Y-5.5956
T5
X4.9724Y-5.8697
X4.9724Y-5.9976
X5.1063Y-5.8697
X5.1063Y-5.9976
T2
G00X4.8713Y-5.3012
M15
G01X4.8713Y-5.25
M16
G05
G00X4.8713Y-5.4449
M15
G01X4.8713Y-5.4055
M16
G05
G00X5.2114Y-5.3012
M15
G01X5.2114Y-5.25
M16
G05
G00X5.2114Y-5.4459
M15
G01X5.2114Y-5.4065
M16
G05
M30
