%TF.GenerationSoftware,KiCad,Pcbnew,9.0.1*%
%TF.CreationDate,2025-05-28T08:33:00+02:00*%
%TF.ProjectId,tv25-cpu-small,74763235-2d63-4707-952d-736d616c6c2e,rev?*%
%TF.SameCoordinates,Original*%
%TF.FileFunction,Copper,L2,Bot*%
%TF.FilePolarity,Positive*%
%FSLAX46Y46*%
G04 Gerber Fmt 4.6, Leading zero omitted, Abs format (unit mm)*
G04 Created by KiCad (PCBNEW 9.0.1) date 2025-05-28 08:33:00*
%MOMM*%
%LPD*%
G01*
G04 APERTURE LIST*
G04 Aperture macros list*
%AMRoundRect*
0 Rectangle with rounded corners*
0 $1 Rounding radius*
0 $2 $3 $4 $5 $6 $7 $8 $9 X,Y pos of 4 corners*
0 Add a 4 corners polygon primitive as box body*
4,1,4,$2,$3,$4,$5,$6,$7,$8,$9,$2,$3,0*
0 Add four circle primitives for the rounded corners*
1,1,$1+$1,$2,$3*
1,1,$1+$1,$4,$5*
1,1,$1+$1,$6,$7*
1,1,$1+$1,$8,$9*
0 Add four rect primitives between the rounded corners*
20,1,$1+$1,$2,$3,$4,$5,0*
20,1,$1+$1,$4,$5,$6,$7,0*
20,1,$1+$1,$6,$7,$8,$9,0*
20,1,$1+$1,$8,$9,$2,$3,0*%
%AMFreePoly0*
4,1,23,0.500000,-0.750000,0.000000,-0.750000,0.000000,-0.745722,-0.065263,-0.745722,-0.191342,-0.711940,-0.304381,-0.646677,-0.396677,-0.554381,-0.461940,-0.441342,-0.495722,-0.315263,-0.495722,-0.250000,-0.500000,-0.250000,-0.500000,0.250000,-0.495722,0.250000,-0.495722,0.315263,-0.461940,0.441342,-0.396677,0.554381,-0.304381,0.646677,-0.191342,0.711940,-0.065263,0.745722,0.000000,0.745722,
0.000000,0.750000,0.500000,0.750000,0.500000,-0.750000,0.500000,-0.750000,$1*%
%AMFreePoly1*
4,1,23,0.000000,0.745722,0.065263,0.745722,0.191342,0.711940,0.304381,0.646677,0.396677,0.554381,0.461940,0.441342,0.495722,0.315263,0.495722,0.250000,0.500000,0.250000,0.500000,-0.250000,0.495722,-0.250000,0.495722,-0.315263,0.461940,-0.441342,0.396677,-0.554381,0.304381,-0.646677,0.191342,-0.711940,0.065263,-0.745722,0.000000,-0.745722,0.000000,-0.750000,-0.500000,-0.750000,
-0.500000,0.750000,0.000000,0.750000,0.000000,0.745722,0.000000,0.745722,$1*%
G04 Aperture macros list end*
%TA.AperFunction,ComponentPad*%
%ADD10C,2.000000*%
%TD*%
%TA.AperFunction,ComponentPad*%
%ADD11C,1.700000*%
%TD*%
%TA.AperFunction,ComponentPad*%
%ADD12O,1.200000X2.200000*%
%TD*%
%TA.AperFunction,ComponentPad*%
%ADD13O,1.800000X3.000000*%
%TD*%
%TA.AperFunction,ComponentPad*%
%ADD14R,1.700000X4.300000*%
%TD*%
%TA.AperFunction,ComponentPad*%
%ADD15O,1.660000X4.300000*%
%TD*%
%TA.AperFunction,ComponentPad*%
%ADD16O,1.620000X4.300000*%
%TD*%
%TA.AperFunction,SMDPad,CuDef*%
%ADD17FreePoly0,270.000000*%
%TD*%
%TA.AperFunction,SMDPad,CuDef*%
%ADD18FreePoly1,270.000000*%
%TD*%
%TA.AperFunction,ComponentPad*%
%ADD19R,1.700000X1.700000*%
%TD*%
%TA.AperFunction,ComponentPad*%
%ADD20R,1.500000X1.500000*%
%TD*%
%TA.AperFunction,ComponentPad*%
%ADD21C,1.600000*%
%TD*%
%TA.AperFunction,ComponentPad*%
%ADD22RoundRect,0.250000X0.600000X0.600000X-0.600000X0.600000X-0.600000X-0.600000X0.600000X-0.600000X0*%
%TD*%
%TA.AperFunction,ViaPad*%
%ADD23C,0.600000*%
%TD*%
%TA.AperFunction,Conductor*%
%ADD24C,0.200000*%
%TD*%
%TA.AperFunction,Conductor*%
%ADD25C,0.400000*%
%TD*%
%TA.AperFunction,Conductor*%
%ADD26C,0.500000*%
%TD*%
G04 APERTURE END LIST*
D10*
%TO.P,SW4,*%
%TO.N,*%
X129700000Y-149090000D03*
X129700000Y-152340000D03*
%TO.P,SW4,1,1*%
%TO.N,/strap2*%
X126300000Y-149090000D03*
%TO.P,SW4,2,2*%
%TO.N,GND*%
X126300000Y-152340000D03*
%TD*%
D11*
%TO.P,J3,1,Pin_1*%
%TO.N,+3V3*%
X112460000Y-157920000D03*
%TO.P,J3,2,Pin_2*%
%TO.N,/en*%
X115000000Y-157920000D03*
%TO.P,J3,3,Pin_3*%
%TO.N,/scl{slash}flash*%
X112460000Y-160460000D03*
%TO.P,J3,4,Pin_4*%
%TO.N,/rx*%
X115000000Y-160460000D03*
%TO.P,J3,5,Pin_5*%
%TO.N,/tx*%
X112460000Y-163000000D03*
%TO.P,J3,6,Pin_6*%
%TO.N,GND*%
X115000000Y-163000000D03*
%TD*%
D12*
%TO.P,J4,S1,SHIELD*%
%TO.N,GND*%
X132370000Y-137825000D03*
D13*
X132370000Y-134000000D03*
D12*
X123730000Y-137800000D03*
D13*
X123730000Y-134000000D03*
%TD*%
D14*
%TO.P,J11,1,Pin_1*%
%TO.N,+3V8*%
X137843000Y-143427500D03*
D15*
%TO.P,J11,2,Pin_2*%
%TO.N,/pixout*%
X140363000Y-143427500D03*
D16*
%TO.P,J11,3,Pin_3*%
%TO.N,GND*%
X142883000Y-143427500D03*
%TD*%
D17*
%TO.P,JP1,1,A*%
%TO.N,+BATT*%
X112649000Y-152512000D03*
D18*
%TO.P,JP1,2,B*%
%TO.N,+3V3*%
X112649000Y-153812000D03*
%TD*%
D19*
%TO.P,J1,1,Pin_1*%
%TO.N,GND*%
X115865000Y-148025000D03*
D11*
%TO.P,J1,2,Pin_2*%
%TO.N,+BATT*%
X115865000Y-145485000D03*
%TD*%
D20*
%TO.P,SW3,1,A*%
%TO.N,+BATT*%
X112250000Y-145540000D03*
D21*
%TO.P,SW3,2,B*%
%TO.N,+3V8*%
X112250000Y-148080000D03*
%TO.P,SW3,3,C*%
%TO.N,unconnected-(SW3-C-Pad3)*%
X112250000Y-143000000D03*
%TD*%
D22*
%TO.P,J2,1,Pin_1*%
%TO.N,+3V3*%
X142000000Y-147460000D03*
D11*
%TO.P,J2,2,Pin_2*%
%TO.N,/pixout*%
X139460000Y-147460000D03*
%TO.P,J2,3,Pin_3*%
%TO.N,/strap2*%
X142000000Y-150000000D03*
%TO.P,J2,4,Pin_4*%
%TO.N,Net-(J2-Pin_4)*%
X139460000Y-150000000D03*
%TO.P,J2,5,Pin_5*%
%TO.N,Net-(J2-Pin_5)*%
X142000000Y-152540000D03*
%TO.P,J2,6,Pin_6*%
%TO.N,Net-(J2-Pin_6)*%
X139460000Y-152540000D03*
%TO.P,J2,7,Pin_7*%
%TO.N,Net-(J2-Pin_7)*%
X142000000Y-155080000D03*
%TO.P,J2,8,Pin_8*%
%TO.N,/gpio_8*%
X139460000Y-155080000D03*
%TO.P,J2,9,Pin_9*%
%TO.N,unconnected-(J2-Pin_9-Pad9)*%
X142000000Y-157620000D03*
%TO.P,J2,10,Pin_10*%
%TO.N,GND*%
X139460000Y-157620000D03*
%TD*%
D23*
%TO.N,GND*%
X123317000Y-145796000D03*
X136144000Y-148590000D03*
X122697120Y-153177120D03*
X129800000Y-161417000D03*
X127127000Y-163703000D03*
X125222000Y-161798000D03*
X126225000Y-160655000D03*
X128200000Y-161671000D03*
X129800000Y-160020000D03*
X126225000Y-162560000D03*
X128200000Y-162687000D03*
X129800000Y-162814000D03*
X126111000Y-159004000D03*
X121666000Y-156337000D03*
%TO.N,/en*%
X133350000Y-159512000D03*
%TO.N,/pix*%
X124333000Y-145923000D03*
X125603000Y-157353000D03*
%TO.N,Net-(J2-Pin_5)*%
X128701404Y-157546316D03*
%TO.N,Net-(J2-Pin_7)*%
X126492000Y-156972000D03*
%TO.N,/strap2*%
X136398000Y-161900000D03*
%TO.N,Net-(J2-Pin_6)*%
X127336923Y-156972000D03*
%TO.N,/scl{slash}flash*%
X116713000Y-140150000D03*
X117729000Y-157353000D03*
%TO.N,/usb-*%
X120777000Y-158050000D03*
X127889000Y-137033000D03*
%TO.N,/usb+*%
X120127000Y-157226000D03*
X127414260Y-139636500D03*
%TO.N,/sda*%
X130063120Y-157368120D03*
X117221000Y-139319000D03*
%TD*%
D24*
%TO.N,/scl{slash}flash*%
X117729000Y-141166000D02*
X117729000Y-157353000D01*
X114176686Y-159309000D02*
X115773000Y-159309000D01*
X113025686Y-160460000D02*
X114176686Y-159309000D01*
X115773000Y-159309000D02*
X117729000Y-157353000D01*
X116713000Y-140150000D02*
X117729000Y-141166000D01*
X112460000Y-160460000D02*
X113025686Y-160460000D01*
D25*
%TO.N,GND*%
X132370000Y-137825000D02*
X132370000Y-140716000D01*
D26*
X128397000Y-140716000D02*
X132370000Y-140716000D01*
X123317000Y-145796000D02*
X128397000Y-140716000D01*
X115865000Y-148025000D02*
X116770000Y-148025000D01*
X116835000Y-137800000D02*
X123730000Y-137800000D01*
X116770000Y-148025000D02*
X117166000Y-147629000D01*
X117166000Y-147629000D02*
X117166000Y-142439000D01*
X117166000Y-142439000D02*
X115316000Y-140589000D01*
X115316000Y-140589000D02*
X115316000Y-139319000D01*
X115316000Y-139319000D02*
X116835000Y-137800000D01*
D24*
%TO.N,/sda*%
X117221000Y-139319000D02*
X117221000Y-139700000D01*
X119634000Y-160020000D02*
X128905000Y-160020000D01*
X117221000Y-139700000D02*
X118364000Y-140843000D01*
X118364000Y-140843000D02*
X118364000Y-158750000D01*
X118364000Y-158750000D02*
X119634000Y-160020000D01*
X129921000Y-157510240D02*
X130063120Y-157368120D01*
X128905000Y-160020000D02*
X129921000Y-159004000D01*
X129921000Y-159004000D02*
X129921000Y-157510240D01*
%TO.N,/usb+*%
X120127000Y-146923760D02*
X120127000Y-157226000D01*
X127414260Y-139636500D02*
X120127000Y-146923760D01*
%TO.N,Net-(J2-Pin_7)*%
X142000000Y-155080000D02*
X140705000Y-156375000D01*
X140705000Y-156375000D02*
X130159885Y-156375000D01*
X130159885Y-156375000D02*
X129351404Y-157183481D01*
X129351404Y-157183481D02*
X129351404Y-157815555D01*
X129351404Y-157815555D02*
X128970643Y-158196316D01*
X128970643Y-158196316D02*
X127476401Y-158196316D01*
X127476401Y-158196316D02*
X126492000Y-157211915D01*
X126492000Y-157211915D02*
X126492000Y-156972000D01*
%TO.N,Net-(J2-Pin_6)*%
X129794000Y-155575000D02*
X128397000Y-156972000D01*
%TO.N,Net-(J2-Pin_5)*%
X136590685Y-155975000D02*
X129959686Y-155975000D01*
X138636686Y-153929000D02*
X136590685Y-155975000D01*
%TO.N,Net-(J2-Pin_6)*%
X139460000Y-152540000D02*
X136425000Y-155575000D01*
X128397000Y-156972000D02*
X127336923Y-156972000D01*
%TO.N,Net-(J2-Pin_5)*%
X142000000Y-152540000D02*
X140611000Y-153929000D01*
X129959686Y-155975000D02*
X128701404Y-157233282D01*
X128701404Y-157233282D02*
X128701404Y-157546316D01*
%TO.N,Net-(J2-Pin_6)*%
X136425000Y-155575000D02*
X129794000Y-155575000D01*
%TO.N,Net-(J2-Pin_5)*%
X140611000Y-153929000D02*
X138636686Y-153929000D01*
D25*
%TO.N,GND*%
X132370000Y-140716000D02*
X132370000Y-141756500D01*
X142923000Y-143928397D02*
X142923000Y-142127500D01*
X132370000Y-141756500D02*
X136592000Y-145978500D01*
X136592000Y-145978500D02*
X140872897Y-145978500D01*
X140872897Y-145978500D02*
X142923000Y-143928397D01*
D24*
X123730000Y-134000000D02*
X132370000Y-134000000D01*
X132370000Y-134000000D02*
X134795500Y-134000000D01*
X134795500Y-134000000D02*
X142923000Y-142127500D01*
D25*
%TO.N,+3V8*%
X137843000Y-142127500D02*
X137843000Y-138859000D01*
X113792000Y-138811000D02*
X113792000Y-146538000D01*
X137843000Y-138859000D02*
X134885000Y-135901000D01*
X116702000Y-135901000D02*
X113792000Y-138811000D01*
X134885000Y-135901000D02*
X116702000Y-135901000D01*
X113792000Y-146538000D02*
X112250000Y-148080000D01*
D26*
%TO.N,+3V3*%
X112649000Y-153812000D02*
X112649000Y-157731000D01*
X112649000Y-157731000D02*
X112460000Y-157920000D01*
%TO.N,+BATT*%
X112649000Y-152512000D02*
X111745000Y-152512000D01*
X111745000Y-152512000D02*
X110999000Y-151766000D01*
X110999000Y-151766000D02*
X110999000Y-146791000D01*
X110999000Y-146791000D02*
X112250000Y-145540000D01*
D24*
%TO.N,GND*%
X124333000Y-159004000D02*
X126111000Y-159004000D01*
X121666000Y-156337000D02*
X124079000Y-158750000D01*
X124079000Y-158750000D02*
X124333000Y-159004000D01*
%TO.N,/en*%
X116615240Y-166243000D02*
X133477000Y-166243000D01*
X134747000Y-160909000D02*
X133350000Y-159512000D01*
X112221240Y-161849000D02*
X112936760Y-161849000D01*
X111983240Y-159309000D02*
X111309000Y-159983240D01*
X111309000Y-160936760D02*
X112221240Y-161849000D01*
X115000000Y-157920000D02*
X113611000Y-159309000D01*
X113611000Y-162523240D02*
X113611000Y-163238760D01*
X112936760Y-161849000D02*
X113611000Y-162523240D01*
X133477000Y-166243000D02*
X134747000Y-164973000D01*
X113611000Y-163238760D02*
X116615240Y-166243000D01*
X113611000Y-159309000D02*
X111983240Y-159309000D01*
X111309000Y-159983240D02*
X111309000Y-160936760D01*
X134747000Y-164973000D02*
X134747000Y-160909000D01*
%TO.N,/pix*%
X124333000Y-145923000D02*
X124333000Y-156083000D01*
X124333000Y-156083000D02*
X125603000Y-157353000D01*
%TO.N,/strap2*%
X126300000Y-149090000D02*
X127601000Y-147789000D01*
X142875000Y-161925000D02*
X138638328Y-161925000D01*
X138010000Y-147789000D02*
X139070000Y-148849000D01*
X144272000Y-160528000D02*
X142875000Y-161925000D01*
X127601000Y-147789000D02*
X138010000Y-147789000D01*
X138638328Y-161925000D02*
X138613328Y-161900000D01*
X139070000Y-148849000D02*
X140849000Y-148849000D01*
X138613328Y-161900000D02*
X136398000Y-161900000D01*
X144272000Y-152272000D02*
X144272000Y-160528000D01*
X142000000Y-150000000D02*
X144272000Y-152272000D01*
X140849000Y-148849000D02*
X142000000Y-150000000D01*
%TO.N,/usb-*%
X128651000Y-137795000D02*
X128651000Y-139319000D01*
X127889000Y-137033000D02*
X128651000Y-137795000D01*
X128651000Y-139319000D02*
X120777000Y-147193000D01*
X120777000Y-147193000D02*
X120777000Y-158050000D01*
%TD*%
%TA.AperFunction,Conductor*%
%TO.N,GND*%
G36*
X145442539Y-132520185D02*
G01*
X145488294Y-132572989D01*
X145499500Y-132624500D01*
X145499500Y-171375500D01*
X145479815Y-171442539D01*
X145427011Y-171488294D01*
X145375500Y-171499500D01*
X134924000Y-171499500D01*
X134856961Y-171479815D01*
X134811206Y-171427011D01*
X134800000Y-171375500D01*
X134800000Y-168874038D01*
X141399500Y-168874038D01*
X141399500Y-169125961D01*
X141438910Y-169374785D01*
X141516760Y-169614383D01*
X141631132Y-169838848D01*
X141779201Y-170042649D01*
X141779205Y-170042654D01*
X141957345Y-170220794D01*
X141957350Y-170220798D01*
X142135117Y-170349952D01*
X142161155Y-170368870D01*
X142304184Y-170441747D01*
X142385616Y-170483239D01*
X142385618Y-170483239D01*
X142385621Y-170483241D01*
X142625215Y-170561090D01*
X142874038Y-170600500D01*
X142874039Y-170600500D01*
X143125961Y-170600500D01*
X143125962Y-170600500D01*
X143374785Y-170561090D01*
X143614379Y-170483241D01*
X143838845Y-170368870D01*
X144042656Y-170220793D01*
X144220793Y-170042656D01*
X144368870Y-169838845D01*
X144483241Y-169614379D01*
X144561090Y-169374785D01*
X144600500Y-169125962D01*
X144600500Y-168874038D01*
X144561090Y-168625215D01*
X144483241Y-168385621D01*
X144483239Y-168385618D01*
X144483239Y-168385616D01*
X144441747Y-168304184D01*
X144368870Y-168161155D01*
X144349952Y-168135117D01*
X144220798Y-167957350D01*
X144220794Y-167957345D01*
X144042654Y-167779205D01*
X144042649Y-167779201D01*
X143838848Y-167631132D01*
X143838847Y-167631131D01*
X143838845Y-167631130D01*
X143768747Y-167595413D01*
X143614383Y-167516760D01*
X143374785Y-167438910D01*
X143125962Y-167399500D01*
X142874038Y-167399500D01*
X142749626Y-167419205D01*
X142625214Y-167438910D01*
X142385616Y-167516760D01*
X142161151Y-167631132D01*
X141957350Y-167779201D01*
X141957345Y-167779205D01*
X141779205Y-167957345D01*
X141779201Y-167957350D01*
X141631132Y-168161151D01*
X141516760Y-168385616D01*
X141438910Y-168625214D01*
X141399500Y-168874038D01*
X134800000Y-168874038D01*
X134800000Y-166700000D01*
X134168596Y-166700000D01*
X134101557Y-166680315D01*
X134055802Y-166627511D01*
X134045858Y-166558353D01*
X134074883Y-166494797D01*
X134080915Y-166488319D01*
X135115713Y-165453521D01*
X135115716Y-165453520D01*
X135227520Y-165341716D01*
X135277639Y-165254904D01*
X135306577Y-165204785D01*
X135347500Y-165052058D01*
X135347500Y-164893943D01*
X135347500Y-160829943D01*
X135306577Y-160677216D01*
X135273833Y-160620501D01*
X135227524Y-160540290D01*
X135227521Y-160540286D01*
X135227520Y-160540284D01*
X135115716Y-160428480D01*
X135115715Y-160428479D01*
X135111385Y-160424149D01*
X135111374Y-160424139D01*
X134184574Y-159497339D01*
X134151089Y-159436016D01*
X134150638Y-159433849D01*
X134119738Y-159278510D01*
X134119737Y-159278503D01*
X134119735Y-159278498D01*
X134059397Y-159132827D01*
X134059390Y-159132814D01*
X133971789Y-159001711D01*
X133971786Y-159001707D01*
X133860292Y-158890213D01*
X133860288Y-158890210D01*
X133729185Y-158802609D01*
X133729175Y-158802604D01*
X133729100Y-158802573D01*
X133729099Y-158802572D01*
X133729098Y-158802572D01*
X133583501Y-158742264D01*
X133583489Y-158742261D01*
X133428845Y-158711500D01*
X133428842Y-158711500D01*
X133271158Y-158711500D01*
X133271155Y-158711500D01*
X133116510Y-158742261D01*
X133116498Y-158742264D01*
X132970827Y-158802602D01*
X132970814Y-158802609D01*
X132839711Y-158890210D01*
X132839707Y-158890213D01*
X132728213Y-159001707D01*
X132728210Y-159001711D01*
X132640609Y-159132814D01*
X132640602Y-159132827D01*
X132580264Y-159278498D01*
X132580261Y-159278510D01*
X132549500Y-159433153D01*
X132549500Y-159590846D01*
X132580261Y-159745489D01*
X132580264Y-159745501D01*
X132640602Y-159891172D01*
X132640609Y-159891185D01*
X132728210Y-160022288D01*
X132728213Y-160022292D01*
X132839707Y-160133786D01*
X132839711Y-160133789D01*
X132970814Y-160221390D01*
X132970827Y-160221397D01*
X133110535Y-160279265D01*
X133116503Y-160281737D01*
X133181147Y-160294595D01*
X133271849Y-160312638D01*
X133333760Y-160345023D01*
X133335339Y-160346574D01*
X134110181Y-161121416D01*
X134143666Y-161182739D01*
X134146500Y-161209097D01*
X134146500Y-164672903D01*
X134126815Y-164739942D01*
X134110181Y-164760584D01*
X133264584Y-165606181D01*
X133203261Y-165639666D01*
X133176903Y-165642500D01*
X116915337Y-165642500D01*
X116848298Y-165622815D01*
X116827656Y-165606181D01*
X115608660Y-164387185D01*
X115575175Y-164325862D01*
X115580159Y-164256170D01*
X115622031Y-164200237D01*
X115640047Y-164189019D01*
X115707552Y-164154624D01*
X115761716Y-164115270D01*
X115761717Y-164115270D01*
X114941300Y-163294854D01*
X114960504Y-163300000D01*
X115039496Y-163300000D01*
X115115796Y-163279556D01*
X115184205Y-163240060D01*
X115240060Y-163184205D01*
X115279556Y-163115796D01*
X115300000Y-163039496D01*
X115300000Y-162999999D01*
X115353554Y-162999999D01*
X115353554Y-163000001D01*
X116115270Y-163761717D01*
X116115270Y-163761716D01*
X116154622Y-163707554D01*
X116251095Y-163518217D01*
X116316757Y-163316130D01*
X116316757Y-163316127D01*
X116350000Y-163106246D01*
X116350000Y-162893753D01*
X116316757Y-162683872D01*
X116316757Y-162683869D01*
X116251095Y-162481782D01*
X116154624Y-162292449D01*
X116115270Y-162238282D01*
X116115269Y-162238282D01*
X115353554Y-162999999D01*
X115300000Y-162999999D01*
X115300000Y-162960504D01*
X115279556Y-162884204D01*
X115240060Y-162815795D01*
X115184205Y-162759940D01*
X115115796Y-162720444D01*
X115039496Y-162700000D01*
X114960504Y-162700000D01*
X114884204Y-162720444D01*
X114815795Y-162759940D01*
X114759940Y-162815795D01*
X114720444Y-162884204D01*
X114700000Y-162960504D01*
X114700000Y-163039496D01*
X114705145Y-163058699D01*
X114247819Y-162601373D01*
X114214334Y-162540050D01*
X114211500Y-162513692D01*
X114211500Y-162444185D01*
X114211500Y-162444183D01*
X114170577Y-162291456D01*
X114139877Y-162238282D01*
X114091524Y-162154530D01*
X114091521Y-162154526D01*
X114091520Y-162154524D01*
X113979716Y-162042720D01*
X113979715Y-162042719D01*
X113975385Y-162038389D01*
X113975374Y-162038379D01*
X113471126Y-161534131D01*
X113437641Y-161472808D01*
X113442625Y-161403116D01*
X113471126Y-161358769D01*
X113490104Y-161339792D01*
X113490106Y-161339788D01*
X113490109Y-161339786D01*
X113615048Y-161167820D01*
X113615047Y-161167820D01*
X113615051Y-161167816D01*
X113619514Y-161159054D01*
X113667488Y-161108259D01*
X113735308Y-161091463D01*
X113801444Y-161113999D01*
X113840486Y-161159056D01*
X113844951Y-161167820D01*
X113969890Y-161339786D01*
X114120213Y-161490109D01*
X114292179Y-161615048D01*
X114292181Y-161615049D01*
X114292184Y-161615051D01*
X114301493Y-161619794D01*
X114352290Y-161667766D01*
X114369087Y-161735587D01*
X114346552Y-161801722D01*
X114301505Y-161840760D01*
X114292446Y-161845376D01*
X114292440Y-161845380D01*
X114238282Y-161884727D01*
X114238282Y-161884728D01*
X115000000Y-162646446D01*
X115000001Y-162646446D01*
X115761716Y-161884728D01*
X115707547Y-161845373D01*
X115707547Y-161845372D01*
X115698500Y-161840763D01*
X115647706Y-161792788D01*
X115630912Y-161724966D01*
X115653451Y-161658832D01*
X115698508Y-161619793D01*
X115707816Y-161615051D01*
X115819194Y-161534131D01*
X115879786Y-161490109D01*
X115879788Y-161490106D01*
X115879792Y-161490104D01*
X116030104Y-161339792D01*
X116030106Y-161339788D01*
X116030109Y-161339786D01*
X116155048Y-161167820D01*
X116155047Y-161167820D01*
X116155051Y-161167816D01*
X116251557Y-160978412D01*
X116317246Y-160776243D01*
X116350500Y-160566287D01*
X116350500Y-160353713D01*
X116317246Y-160143757D01*
X116251557Y-159941588D01*
X116204051Y-159848353D01*
X116199490Y-159824064D01*
X116190853Y-159800909D01*
X116193154Y-159790327D01*
X116191156Y-159779686D01*
X116200449Y-159756787D01*
X116205703Y-159732636D01*
X116215639Y-159719362D01*
X116217432Y-159714946D01*
X116226838Y-159704396D01*
X116253520Y-159677716D01*
X116253521Y-159677713D01*
X117551820Y-158379413D01*
X117613142Y-158345930D01*
X117682834Y-158350914D01*
X117738767Y-158392786D01*
X117763184Y-158458250D01*
X117763500Y-158467096D01*
X117763500Y-158663330D01*
X117763499Y-158663348D01*
X117763499Y-158829054D01*
X117763498Y-158829054D01*
X117804423Y-158981786D01*
X117818820Y-159006720D01*
X117818821Y-159006725D01*
X117818823Y-159006725D01*
X117883479Y-159118714D01*
X117883481Y-159118717D01*
X118002349Y-159237585D01*
X118002355Y-159237590D01*
X119149139Y-160384374D01*
X119149149Y-160384385D01*
X119153479Y-160388715D01*
X119153480Y-160388716D01*
X119265284Y-160500520D01*
X119265286Y-160500521D01*
X119265290Y-160500524D01*
X119332028Y-160539055D01*
X119332032Y-160539056D01*
X119332033Y-160539057D01*
X119367124Y-160559317D01*
X119402212Y-160579576D01*
X119402214Y-160579576D01*
X119402215Y-160579577D01*
X119554942Y-160620500D01*
X119554943Y-160620500D01*
X128818331Y-160620500D01*
X128818347Y-160620501D01*
X128825943Y-160620501D01*
X128984054Y-160620501D01*
X128984057Y-160620501D01*
X129136785Y-160579577D01*
X129206967Y-160539057D01*
X129206971Y-160539055D01*
X129273709Y-160500524D01*
X129273708Y-160500524D01*
X129273716Y-160500520D01*
X129385520Y-160388716D01*
X129385520Y-160388714D01*
X129395724Y-160378511D01*
X129395728Y-160378506D01*
X130279506Y-159494728D01*
X130279511Y-159494724D01*
X130289714Y-159484520D01*
X130289716Y-159484520D01*
X130401520Y-159372716D01*
X130479719Y-159237269D01*
X130479738Y-159237251D01*
X130479732Y-159237248D01*
X130480576Y-159235786D01*
X130480577Y-159235785D01*
X130521501Y-159083057D01*
X130521501Y-158924943D01*
X130521501Y-158917348D01*
X130521500Y-158917330D01*
X130521500Y-158090872D01*
X130541185Y-158023833D01*
X130569622Y-157994887D01*
X130568705Y-157993769D01*
X130573403Y-157989912D01*
X130573409Y-157989909D01*
X130684909Y-157878409D01*
X130772514Y-157747299D01*
X130777075Y-157736289D01*
X130831379Y-157605185D01*
X130832857Y-157601617D01*
X130863620Y-157446962D01*
X130863620Y-157289278D01*
X130863620Y-157289275D01*
X130863619Y-157289273D01*
X130831669Y-157128648D01*
X130833059Y-157128371D01*
X130832496Y-157065635D01*
X130869741Y-157006520D01*
X130933033Y-156976926D01*
X130951782Y-156975500D01*
X138079265Y-156975500D01*
X138146304Y-156995185D01*
X138192059Y-157047989D01*
X138202003Y-157117147D01*
X138197196Y-157137818D01*
X138143242Y-157303869D01*
X138143242Y-157303872D01*
X138110000Y-157513753D01*
X138110000Y-157726246D01*
X138143242Y-157936127D01*
X138143242Y-157936130D01*
X138208904Y-158138217D01*
X138305375Y-158327550D01*
X138344728Y-158381716D01*
X138977036Y-157749407D01*
X138994075Y-157812993D01*
X139059901Y-157927007D01*
X139152993Y-158020099D01*
X139267007Y-158085925D01*
X139330590Y-158102962D01*
X138698282Y-158735269D01*
X138698282Y-158735270D01*
X138752449Y-158774624D01*
X138941782Y-158871095D01*
X139143870Y-158936757D01*
X139353754Y-158970000D01*
X139566246Y-158970000D01*
X139776127Y-158936757D01*
X139776130Y-158936757D01*
X139978217Y-158871095D01*
X140167554Y-158774622D01*
X140221716Y-158735270D01*
X140221717Y-158735270D01*
X139589408Y-158102962D01*
X139652993Y-158085925D01*
X139767007Y-158020099D01*
X139860099Y-157927007D01*
X139925925Y-157812993D01*
X139942962Y-157749409D01*
X140575270Y-158381717D01*
X140575270Y-158381716D01*
X140614622Y-158327555D01*
X140619232Y-158318507D01*
X140667205Y-158267709D01*
X140735025Y-158250912D01*
X140801161Y-158273447D01*
X140840204Y-158318504D01*
X140844949Y-158327817D01*
X140969890Y-158499786D01*
X141120213Y-158650109D01*
X141292179Y-158775048D01*
X141292181Y-158775049D01*
X141292184Y-158775051D01*
X141481588Y-158871557D01*
X141683757Y-158937246D01*
X141893713Y-158970500D01*
X141893714Y-158970500D01*
X142106286Y-158970500D01*
X142106287Y-158970500D01*
X142316243Y-158937246D01*
X142518412Y-158871557D01*
X142707816Y-158775051D01*
X142795287Y-158711500D01*
X142879786Y-158650109D01*
X142879788Y-158650106D01*
X142879792Y-158650104D01*
X143030104Y-158499792D01*
X143030106Y-158499788D01*
X143030109Y-158499786D01*
X143139086Y-158349789D01*
X143155051Y-158327816D01*
X143251557Y-158138412D01*
X143317246Y-157936243D01*
X143350500Y-157726287D01*
X143350500Y-157513713D01*
X143317246Y-157303757D01*
X143251557Y-157101588D01*
X143155051Y-156912184D01*
X143155049Y-156912181D01*
X143155048Y-156912179D01*
X143030109Y-156740213D01*
X142879786Y-156589890D01*
X142707820Y-156464951D01*
X142707115Y-156464591D01*
X142699054Y-156460485D01*
X142648259Y-156412512D01*
X142631463Y-156344692D01*
X142653999Y-156278556D01*
X142699054Y-156239515D01*
X142707816Y-156235051D01*
X142795287Y-156171500D01*
X142879786Y-156110109D01*
X142879788Y-156110106D01*
X142879792Y-156110104D01*
X143030104Y-155959792D01*
X143030106Y-155959788D01*
X143030109Y-155959786D01*
X143155048Y-155787820D01*
X143155047Y-155787820D01*
X143155051Y-155787816D01*
X143251557Y-155598412D01*
X143317246Y-155396243D01*
X143350500Y-155186287D01*
X143350500Y-154973713D01*
X143317246Y-154763757D01*
X143251557Y-154561588D01*
X143155051Y-154372184D01*
X143155049Y-154372181D01*
X143155048Y-154372179D01*
X143030109Y-154200213D01*
X142879786Y-154049890D01*
X142707820Y-153924951D01*
X142707115Y-153924591D01*
X142699054Y-153920485D01*
X142648259Y-153872512D01*
X142631463Y-153804692D01*
X142653999Y-153738556D01*
X142699054Y-153699515D01*
X142707816Y-153695051D01*
X142729789Y-153679086D01*
X142879786Y-153570109D01*
X142879788Y-153570106D01*
X142879792Y-153570104D01*
X143030104Y-153419792D01*
X143030106Y-153419788D01*
X143030109Y-153419786D01*
X143155048Y-153247820D01*
X143155047Y-153247820D01*
X143155051Y-153247816D01*
X143251557Y-153058412D01*
X143317246Y-152856243D01*
X143350500Y-152646287D01*
X143350500Y-152499097D01*
X143356738Y-152477851D01*
X143358318Y-152455763D01*
X143366390Y-152444979D01*
X143370185Y-152432058D01*
X143386918Y-152417558D01*
X143400190Y-152399830D01*
X143412810Y-152395122D01*
X143422989Y-152386303D01*
X143444906Y-152383151D01*
X143465654Y-152375413D01*
X143478814Y-152378275D01*
X143492147Y-152376359D01*
X143512290Y-152385558D01*
X143533927Y-152390265D01*
X143551652Y-152403533D01*
X143555703Y-152405384D01*
X143562181Y-152411416D01*
X143635181Y-152484416D01*
X143668666Y-152545739D01*
X143671500Y-152572097D01*
X143671500Y-160227903D01*
X143651815Y-160294942D01*
X143635181Y-160315584D01*
X142662584Y-161288181D01*
X142601261Y-161321666D01*
X142574903Y-161324500D01*
X138802015Y-161324500D01*
X138769922Y-161320275D01*
X138736810Y-161311403D01*
X138692385Y-161299499D01*
X138534271Y-161299499D01*
X138526675Y-161299499D01*
X138526659Y-161299500D01*
X136977766Y-161299500D01*
X136910727Y-161279815D01*
X136908875Y-161278602D01*
X136777185Y-161190609D01*
X136777172Y-161190602D01*
X136631501Y-161130264D01*
X136631489Y-161130261D01*
X136476845Y-161099500D01*
X136476842Y-161099500D01*
X136319158Y-161099500D01*
X136319155Y-161099500D01*
X136164510Y-161130261D01*
X136164498Y-161130264D01*
X136018827Y-161190602D01*
X136018814Y-161190609D01*
X135887711Y-161278210D01*
X135887707Y-161278213D01*
X135776213Y-161389707D01*
X135776210Y-161389711D01*
X135688609Y-161520814D01*
X135688602Y-161520827D01*
X135628264Y-161666498D01*
X135628261Y-161666510D01*
X135597500Y-161821153D01*
X135597500Y-161978846D01*
X135628261Y-162133489D01*
X135628264Y-162133501D01*
X135688602Y-162279172D01*
X135688609Y-162279185D01*
X135776210Y-162410288D01*
X135776213Y-162410292D01*
X135887707Y-162521786D01*
X135887711Y-162521789D01*
X136018814Y-162609390D01*
X136018827Y-162609397D01*
X136108273Y-162646446D01*
X136164503Y-162669737D01*
X136316644Y-162700000D01*
X136319153Y-162700499D01*
X136319156Y-162700500D01*
X136319158Y-162700500D01*
X136476844Y-162700500D01*
X136476845Y-162700499D01*
X136631497Y-162669737D01*
X136777179Y-162609394D01*
X136902734Y-162525501D01*
X136908875Y-162521398D01*
X136975553Y-162500520D01*
X136977766Y-162500500D01*
X138449645Y-162500500D01*
X138481734Y-162504724D01*
X138487166Y-162506179D01*
X138518347Y-162514534D01*
X138559270Y-162525500D01*
X138559271Y-162525500D01*
X142788331Y-162525500D01*
X142788347Y-162525501D01*
X142795943Y-162525501D01*
X142954054Y-162525501D01*
X142954057Y-162525501D01*
X143106785Y-162484577D01*
X143156904Y-162455639D01*
X143243716Y-162405520D01*
X143355520Y-162293716D01*
X143355520Y-162293714D01*
X143365728Y-162283507D01*
X143365730Y-162283504D01*
X144630506Y-161018728D01*
X144630511Y-161018724D01*
X144640714Y-161008520D01*
X144640716Y-161008520D01*
X144752520Y-160896716D01*
X144831577Y-160759784D01*
X144872500Y-160607057D01*
X144872500Y-152192943D01*
X144871222Y-152188171D01*
X144831577Y-152040215D01*
X144799648Y-151984913D01*
X144752520Y-151903284D01*
X144640716Y-151791480D01*
X144640715Y-151791479D01*
X144636385Y-151787149D01*
X144636374Y-151787139D01*
X143333757Y-150484522D01*
X143300272Y-150423199D01*
X143303507Y-150358523D01*
X143317246Y-150316243D01*
X143350500Y-150106287D01*
X143350500Y-149893713D01*
X143317246Y-149683757D01*
X143251557Y-149481588D01*
X143155051Y-149292184D01*
X143155049Y-149292181D01*
X143155048Y-149292179D01*
X143030109Y-149120213D01*
X142879790Y-148969894D01*
X142879785Y-148969890D01*
X142874891Y-148966334D01*
X142832227Y-148911003D01*
X142826249Y-148841390D01*
X142858857Y-148779595D01*
X142908774Y-148748312D01*
X142919334Y-148744814D01*
X143068656Y-148652712D01*
X143192712Y-148528656D01*
X143284814Y-148379334D01*
X143339999Y-148212797D01*
X143350500Y-148110009D01*
X143350499Y-146809992D01*
X143339999Y-146707203D01*
X143284814Y-146540666D01*
X143192712Y-146391344D01*
X143068656Y-146267288D01*
X143065613Y-146264245D01*
X143032128Y-146202922D01*
X143037112Y-146133230D01*
X143078984Y-146077297D01*
X143133898Y-146054090D01*
X143189764Y-146045242D01*
X143385868Y-145981523D01*
X143569590Y-145887912D01*
X143736409Y-145766709D01*
X143736410Y-145766709D01*
X143882209Y-145620910D01*
X143882209Y-145620909D01*
X144003412Y-145454090D01*
X144097023Y-145270368D01*
X144160743Y-145074259D01*
X144193000Y-144870604D01*
X144193000Y-143677500D01*
X143007000Y-143677500D01*
X142939961Y-143657815D01*
X142894206Y-143605011D01*
X142883000Y-143553500D01*
X142883000Y-143427500D01*
X142757000Y-143427500D01*
X142689961Y-143407815D01*
X142644206Y-143355011D01*
X142633000Y-143303500D01*
X142633000Y-142537417D01*
X142730007Y-142593425D01*
X142857174Y-142627500D01*
X142988826Y-142627500D01*
X143115993Y-142593425D01*
X143133000Y-142583606D01*
X143133000Y-143177500D01*
X144193000Y-143177500D01*
X144193000Y-141984395D01*
X144160743Y-141780740D01*
X144097023Y-141584631D01*
X144003412Y-141400909D01*
X143882209Y-141234090D01*
X143882209Y-141234089D01*
X143736410Y-141088290D01*
X143569590Y-140967087D01*
X143385868Y-140873476D01*
X143189755Y-140809755D01*
X143133000Y-140800765D01*
X143133000Y-141671393D01*
X143115993Y-141661575D01*
X142988826Y-141627500D01*
X142857174Y-141627500D01*
X142730007Y-141661575D01*
X142633000Y-141717582D01*
X142633000Y-140800765D01*
X142576244Y-140809755D01*
X142576243Y-140809755D01*
X142380131Y-140873476D01*
X142196409Y-140967087D01*
X142029590Y-141088290D01*
X142029589Y-141088290D01*
X141883790Y-141234089D01*
X141883790Y-141234090D01*
X141762585Y-141400912D01*
X141739892Y-141445449D01*
X141691917Y-141496245D01*
X141624096Y-141513039D01*
X141557961Y-141490501D01*
X141518923Y-141445448D01*
X141500945Y-141410165D01*
X141377848Y-141240738D01*
X141229762Y-141092652D01*
X141060334Y-140969554D01*
X141023209Y-140950638D01*
X140873732Y-140874475D01*
X140674560Y-140809761D01*
X140467718Y-140777000D01*
X140467713Y-140777000D01*
X140258287Y-140777000D01*
X140258282Y-140777000D01*
X140051439Y-140809761D01*
X139852267Y-140874475D01*
X139665665Y-140969554D01*
X139496239Y-141092651D01*
X139386491Y-141202399D01*
X139325168Y-141235883D01*
X139255476Y-141230899D01*
X139199543Y-141189027D01*
X139182628Y-141158050D01*
X139136797Y-141035171D01*
X139136793Y-141035164D01*
X139050547Y-140919955D01*
X139050544Y-140919952D01*
X138935335Y-140833706D01*
X138935328Y-140833702D01*
X138800482Y-140783408D01*
X138800483Y-140783408D01*
X138740883Y-140777001D01*
X138740881Y-140777000D01*
X138740873Y-140777000D01*
X138740865Y-140777000D01*
X138667500Y-140777000D01*
X138600461Y-140757315D01*
X138554706Y-140704511D01*
X138543500Y-140653000D01*
X138543500Y-138790006D01*
X138537416Y-138759424D01*
X138537416Y-138759421D01*
X138516581Y-138654679D01*
X138516580Y-138654672D01*
X138516578Y-138654667D01*
X138463777Y-138527192D01*
X138387112Y-138412454D01*
X135331545Y-135356887D01*
X135216807Y-135280222D01*
X135089332Y-135227421D01*
X135089322Y-135227418D01*
X134953996Y-135200500D01*
X134953994Y-135200500D01*
X134953993Y-135200500D01*
X133817604Y-135200500D01*
X133794342Y-135193669D01*
X133770233Y-135191095D01*
X133761417Y-135184001D01*
X133750565Y-135180815D01*
X133734691Y-135162495D01*
X133715798Y-135147293D01*
X133712216Y-135136559D01*
X133704810Y-135128011D01*
X133701359Y-135104015D01*
X133693686Y-135081014D01*
X133695838Y-135065615D01*
X133694866Y-135058853D01*
X133697434Y-135045920D01*
X133741173Y-134874038D01*
X141399500Y-134874038D01*
X141399500Y-135125962D01*
X141415570Y-135227421D01*
X141438910Y-135374785D01*
X141516760Y-135614383D01*
X141631132Y-135838848D01*
X141779201Y-136042649D01*
X141779205Y-136042654D01*
X141957345Y-136220794D01*
X141957350Y-136220798D01*
X142135117Y-136349952D01*
X142161155Y-136368870D01*
X142304184Y-136441747D01*
X142385616Y-136483239D01*
X142385618Y-136483239D01*
X142385621Y-136483241D01*
X142625215Y-136561090D01*
X142874038Y-136600500D01*
X142874039Y-136600500D01*
X143125961Y-136600500D01*
X143125962Y-136600500D01*
X143374785Y-136561090D01*
X143614379Y-136483241D01*
X143838845Y-136368870D01*
X144042656Y-136220793D01*
X144220793Y-136042656D01*
X144368870Y-135838845D01*
X144483241Y-135614379D01*
X144561090Y-135374785D01*
X144600500Y-135125962D01*
X144600500Y-134874038D01*
X144561090Y-134625215D01*
X144483241Y-134385621D01*
X144483239Y-134385618D01*
X144483239Y-134385616D01*
X144441747Y-134304184D01*
X144368870Y-134161155D01*
X144349952Y-134135117D01*
X144220798Y-133957350D01*
X144220794Y-133957345D01*
X144042654Y-133779205D01*
X144042649Y-133779201D01*
X143838848Y-133631132D01*
X143838847Y-133631131D01*
X143838845Y-133631130D01*
X143768747Y-133595413D01*
X143614383Y-133516760D01*
X143374785Y-133438910D01*
X143125962Y-133399500D01*
X142874038Y-133399500D01*
X142749626Y-133419205D01*
X142625214Y-133438910D01*
X142385616Y-133516760D01*
X142161151Y-133631132D01*
X141957350Y-133779201D01*
X141957345Y-133779205D01*
X141779205Y-133957345D01*
X141779201Y-133957350D01*
X141631132Y-134161151D01*
X141516760Y-134385616D01*
X141438910Y-134625214D01*
X141416644Y-134765796D01*
X141399500Y-134874038D01*
X133741173Y-134874038D01*
X133748786Y-134844122D01*
X133770000Y-134710181D01*
X133770000Y-134250000D01*
X132670000Y-134250000D01*
X132670000Y-133750000D01*
X133770000Y-133750000D01*
X133770000Y-133289818D01*
X133735526Y-133072164D01*
X133667432Y-132862589D01*
X133574803Y-132680795D01*
X133561907Y-132612126D01*
X133588183Y-132547385D01*
X133645290Y-132507128D01*
X133685288Y-132500500D01*
X145375500Y-132500500D01*
X145442539Y-132520185D01*
G37*
%TD.AperFunction*%
%TA.AperFunction,Conductor*%
G36*
X122716034Y-136621185D02*
G01*
X122761789Y-136673989D01*
X122771733Y-136743147D01*
X122759480Y-136781795D01*
X122710591Y-136877742D01*
X122657085Y-137042415D01*
X122630000Y-137213428D01*
X122630000Y-137550000D01*
X123430000Y-137550000D01*
X123430000Y-138050000D01*
X122630000Y-138050000D01*
X122630000Y-138386571D01*
X122657085Y-138557584D01*
X122710591Y-138722257D01*
X122789195Y-138876524D01*
X122890967Y-139016602D01*
X123013397Y-139139032D01*
X123153475Y-139240804D01*
X123307744Y-139319408D01*
X123472415Y-139372914D01*
X123472414Y-139372914D01*
X123479999Y-139374115D01*
X123480000Y-139374114D01*
X123480000Y-138466988D01*
X123489940Y-138484205D01*
X123545795Y-138540060D01*
X123614204Y-138579556D01*
X123690504Y-138600000D01*
X123769496Y-138600000D01*
X123845796Y-138579556D01*
X123914205Y-138540060D01*
X123970060Y-138484205D01*
X123980000Y-138466988D01*
X123980000Y-139374115D01*
X123987584Y-139372914D01*
X124152255Y-139319408D01*
X124306524Y-139240804D01*
X124446602Y-139139032D01*
X124569032Y-139016602D01*
X124670804Y-138876524D01*
X124749408Y-138722257D01*
X124802914Y-138557584D01*
X124830000Y-138386571D01*
X124830000Y-138050000D01*
X124030000Y-138050000D01*
X124030000Y-137550000D01*
X124570198Y-137550000D01*
X124632197Y-137566612D01*
X124712515Y-137612984D01*
X124852525Y-137650500D01*
X124852528Y-137650500D01*
X125247472Y-137650500D01*
X125247475Y-137650500D01*
X125387485Y-137612984D01*
X125513015Y-137540509D01*
X125615509Y-137438015D01*
X125687984Y-137312485D01*
X125725500Y-137172475D01*
X125725500Y-137027525D01*
X125687984Y-136887515D01*
X125630239Y-136787498D01*
X125613767Y-136719601D01*
X125636619Y-136653574D01*
X125691540Y-136610383D01*
X125737627Y-136601500D01*
X127015699Y-136601500D01*
X127082738Y-136621185D01*
X127128493Y-136673989D01*
X127138437Y-136743147D01*
X127130261Y-136772951D01*
X127119263Y-136799503D01*
X127119261Y-136799510D01*
X127088500Y-136954153D01*
X127088500Y-137111846D01*
X127119261Y-137266489D01*
X127119264Y-137266501D01*
X127179602Y-137412172D01*
X127179609Y-137412185D01*
X127267210Y-137543288D01*
X127267213Y-137543292D01*
X127378707Y-137654786D01*
X127378711Y-137654789D01*
X127509814Y-137742390D01*
X127509827Y-137742397D01*
X127655498Y-137802735D01*
X127655503Y-137802737D01*
X127720147Y-137815595D01*
X127810849Y-137833638D01*
X127827605Y-137842402D01*
X127846085Y-137846423D01*
X127871123Y-137865167D01*
X127872760Y-137866023D01*
X127874339Y-137867574D01*
X128014181Y-138007416D01*
X128047666Y-138068739D01*
X128050500Y-138095097D01*
X128050500Y-138866880D01*
X128030815Y-138933919D01*
X127978011Y-138979674D01*
X127908853Y-138989618D01*
X127857610Y-138969982D01*
X127793450Y-138927112D01*
X127793432Y-138927102D01*
X127647761Y-138866764D01*
X127647749Y-138866761D01*
X127493105Y-138836000D01*
X127493102Y-138836000D01*
X127335418Y-138836000D01*
X127335415Y-138836000D01*
X127180770Y-138866761D01*
X127180758Y-138866764D01*
X127035087Y-138927102D01*
X127035074Y-138927109D01*
X126903971Y-139014710D01*
X126903967Y-139014713D01*
X126792473Y-139126207D01*
X126792470Y-139126211D01*
X126704869Y-139257314D01*
X126704862Y-139257327D01*
X126644524Y-139402998D01*
X126644521Y-139403008D01*
X126613621Y-139558350D01*
X126581236Y-139620261D01*
X126579685Y-139621839D01*
X119646481Y-146555042D01*
X119646479Y-146555045D01*
X119616489Y-146606991D01*
X119616488Y-146606993D01*
X119567423Y-146691974D01*
X119556793Y-146731646D01*
X119526499Y-146844703D01*
X119526499Y-146844705D01*
X119526499Y-147012806D01*
X119526500Y-147012819D01*
X119526500Y-156646234D01*
X119506815Y-156713273D01*
X119505602Y-156715125D01*
X119417609Y-156846814D01*
X119417602Y-156846827D01*
X119357264Y-156992498D01*
X119357261Y-156992510D01*
X119326500Y-157147153D01*
X119326500Y-157304846D01*
X119357261Y-157459489D01*
X119357264Y-157459501D01*
X119417602Y-157605172D01*
X119417609Y-157605185D01*
X119505210Y-157736288D01*
X119505213Y-157736292D01*
X119616707Y-157847786D01*
X119616711Y-157847789D01*
X119747814Y-157935390D01*
X119747827Y-157935397D01*
X119899131Y-157998068D01*
X119898114Y-158000522D01*
X119946930Y-158032510D01*
X119975390Y-158096321D01*
X119976500Y-158112878D01*
X119976500Y-158128846D01*
X120007261Y-158283489D01*
X120007264Y-158283501D01*
X120067602Y-158429172D01*
X120067609Y-158429185D01*
X120155210Y-158560288D01*
X120155213Y-158560292D01*
X120266707Y-158671786D01*
X120266711Y-158671789D01*
X120397814Y-158759390D01*
X120397827Y-158759397D01*
X120502152Y-158802609D01*
X120543503Y-158819737D01*
X120698153Y-158850499D01*
X120698156Y-158850500D01*
X120698158Y-158850500D01*
X120855844Y-158850500D01*
X120855845Y-158850499D01*
X121010497Y-158819737D01*
X121156179Y-158759394D01*
X121287289Y-158671789D01*
X121398789Y-158560289D01*
X121486394Y-158429179D01*
X121546737Y-158283497D01*
X121577500Y-158128842D01*
X121577500Y-157971158D01*
X121577500Y-157971155D01*
X121577499Y-157971153D01*
X121559818Y-157882264D01*
X121546737Y-157816503D01*
X121545283Y-157812993D01*
X121486397Y-157670827D01*
X121486390Y-157670814D01*
X121398398Y-157539125D01*
X121377520Y-157472447D01*
X121377500Y-157470234D01*
X121377500Y-147493097D01*
X121397185Y-147426058D01*
X121413819Y-147405416D01*
X122389345Y-146429890D01*
X123434507Y-145384727D01*
X123495828Y-145351244D01*
X123565520Y-145356228D01*
X123621453Y-145398100D01*
X123645870Y-145463564D01*
X123631018Y-145531837D01*
X123625295Y-145541290D01*
X123623613Y-145543806D01*
X123623602Y-145543827D01*
X123563264Y-145689498D01*
X123563261Y-145689510D01*
X123532500Y-145844153D01*
X123532500Y-146001846D01*
X123563261Y-146156489D01*
X123563264Y-146156501D01*
X123623602Y-146302172D01*
X123623609Y-146302185D01*
X123711602Y-146433874D01*
X123732480Y-146500551D01*
X123732500Y-146502765D01*
X123732500Y-155996330D01*
X123732499Y-155996348D01*
X123732499Y-156162054D01*
X123732498Y-156162054D01*
X123773423Y-156314785D01*
X123802358Y-156364900D01*
X123802359Y-156364904D01*
X123802360Y-156364904D01*
X123852479Y-156451714D01*
X123852481Y-156451717D01*
X123971349Y-156570585D01*
X123971355Y-156570590D01*
X124768425Y-157367660D01*
X124801910Y-157428983D01*
X124802361Y-157431149D01*
X124833261Y-157586491D01*
X124833264Y-157586501D01*
X124893602Y-157732172D01*
X124893609Y-157732185D01*
X124981210Y-157863288D01*
X124981213Y-157863292D01*
X125092707Y-157974786D01*
X125092711Y-157974789D01*
X125223814Y-158062390D01*
X125223827Y-158062397D01*
X125345701Y-158112878D01*
X125369503Y-158122737D01*
X125524153Y-158153499D01*
X125524156Y-158153500D01*
X125524158Y-158153500D01*
X125681844Y-158153500D01*
X125681845Y-158153499D01*
X125836497Y-158122737D01*
X125982179Y-158062394D01*
X126113289Y-157974789D01*
X126171784Y-157916293D01*
X126233105Y-157882810D01*
X126302797Y-157887794D01*
X126347145Y-157916295D01*
X126991540Y-158560690D01*
X126991550Y-158560701D01*
X126995880Y-158565031D01*
X126995881Y-158565032D01*
X127107685Y-158676836D01*
X127183314Y-158720500D01*
X127244616Y-158755893D01*
X127397343Y-158796816D01*
X127397344Y-158796816D01*
X128883975Y-158796816D01*
X128891582Y-158796816D01*
X128891586Y-158796817D01*
X128979587Y-158796817D01*
X129046627Y-158816502D01*
X129092381Y-158869307D01*
X129099787Y-158920817D01*
X129101255Y-158931033D01*
X129102324Y-158938465D01*
X129089068Y-158967490D01*
X129073299Y-159002020D01*
X129067267Y-159008498D01*
X128692584Y-159383181D01*
X128631261Y-159416666D01*
X128604903Y-159419500D01*
X119934097Y-159419500D01*
X119867058Y-159399815D01*
X119846416Y-159383181D01*
X119000819Y-158537584D01*
X118967334Y-158476261D01*
X118964500Y-158449903D01*
X118964500Y-140763945D01*
X118964500Y-140763943D01*
X118923577Y-140611216D01*
X118923577Y-140611215D01*
X118876213Y-140529179D01*
X118844520Y-140474284D01*
X118732716Y-140362480D01*
X118732715Y-140362479D01*
X118728385Y-140358149D01*
X118728374Y-140358139D01*
X118026321Y-139656086D01*
X117992836Y-139594763D01*
X117992385Y-139544213D01*
X118021500Y-139397844D01*
X118021500Y-139240155D01*
X118021499Y-139240153D01*
X118004067Y-139152518D01*
X117990737Y-139085503D01*
X117972553Y-139041602D01*
X117930397Y-138939827D01*
X117930390Y-138939814D01*
X117842789Y-138808711D01*
X117842786Y-138808707D01*
X117731291Y-138697212D01*
X117731287Y-138697209D01*
X117600185Y-138609609D01*
X117600172Y-138609602D01*
X117454501Y-138549264D01*
X117454489Y-138549261D01*
X117299845Y-138518500D01*
X117299842Y-138518500D01*
X117142158Y-138518500D01*
X117142155Y-138518500D01*
X116987510Y-138549261D01*
X116987498Y-138549264D01*
X116841827Y-138609602D01*
X116841814Y-138609609D01*
X116710713Y-138697209D01*
X116710709Y-138697212D01*
X116599213Y-138808707D01*
X116599210Y-138808711D01*
X116511609Y-138939814D01*
X116511602Y-138939827D01*
X116451264Y-139085498D01*
X116451261Y-139085510D01*
X116420500Y-139240153D01*
X116420500Y-139321847D01*
X116400815Y-139388886D01*
X116348011Y-139434641D01*
X116343959Y-139436406D01*
X116333822Y-139440605D01*
X116333814Y-139440609D01*
X116202711Y-139528210D01*
X116202707Y-139528213D01*
X116091213Y-139639707D01*
X116091210Y-139639711D01*
X116003609Y-139770814D01*
X116003602Y-139770827D01*
X115943264Y-139916498D01*
X115943261Y-139916510D01*
X115912500Y-140071153D01*
X115912500Y-140228846D01*
X115943261Y-140383489D01*
X115943264Y-140383501D01*
X116003602Y-140529172D01*
X116003609Y-140529185D01*
X116091210Y-140660288D01*
X116091213Y-140660292D01*
X116202707Y-140771786D01*
X116202711Y-140771789D01*
X116333814Y-140859390D01*
X116333827Y-140859397D01*
X116479498Y-140919735D01*
X116479503Y-140919737D01*
X116544147Y-140932595D01*
X116634849Y-140950638D01*
X116696760Y-140983023D01*
X116698339Y-140984574D01*
X117092181Y-141378416D01*
X117125666Y-141439739D01*
X117128500Y-141466097D01*
X117128500Y-144544816D01*
X117108815Y-144611855D01*
X117056011Y-144657610D01*
X116986853Y-144667554D01*
X116923297Y-144638529D01*
X116904183Y-144617702D01*
X116895111Y-144605216D01*
X116895105Y-144605209D01*
X116744786Y-144454890D01*
X116572820Y-144329951D01*
X116383414Y-144233444D01*
X116383413Y-144233443D01*
X116383412Y-144233443D01*
X116181243Y-144167754D01*
X116181241Y-144167753D01*
X116181240Y-144167753D01*
X116019957Y-144142208D01*
X115971287Y-144134500D01*
X115758713Y-144134500D01*
X115710042Y-144142208D01*
X115548760Y-144167753D01*
X115346585Y-144233444D01*
X115157179Y-144329951D01*
X114985213Y-144454890D01*
X114834894Y-144605209D01*
X114834890Y-144605214D01*
X114716818Y-144767728D01*
X114661488Y-144810394D01*
X114591875Y-144816373D01*
X114530080Y-144783768D01*
X114495723Y-144722929D01*
X114492500Y-144694843D01*
X114492500Y-139152518D01*
X114512185Y-139085479D01*
X114528819Y-139064837D01*
X116955837Y-136637819D01*
X117017160Y-136604334D01*
X117043518Y-136601500D01*
X122648995Y-136601500D01*
X122716034Y-136621185D01*
G37*
%TD.AperFunction*%
%TA.AperFunction,Conductor*%
G36*
X114436201Y-146986968D02*
G01*
X114492134Y-147028840D01*
X114516551Y-147094304D01*
X114516157Y-147116400D01*
X114515000Y-147127159D01*
X114515000Y-147775000D01*
X115431988Y-147775000D01*
X115399075Y-147832007D01*
X115365000Y-147959174D01*
X115365000Y-148090826D01*
X115399075Y-148217993D01*
X115431988Y-148275000D01*
X114515000Y-148275000D01*
X114515000Y-148922844D01*
X114521401Y-148982372D01*
X114521403Y-148982379D01*
X114571645Y-149117086D01*
X114571649Y-149117093D01*
X114657809Y-149232187D01*
X114657812Y-149232190D01*
X114772906Y-149318350D01*
X114772913Y-149318354D01*
X114907620Y-149368596D01*
X114907627Y-149368598D01*
X114967155Y-149374999D01*
X114967172Y-149375000D01*
X115615000Y-149375000D01*
X115615000Y-148458012D01*
X115672007Y-148490925D01*
X115799174Y-148525000D01*
X115930826Y-148525000D01*
X116057993Y-148490925D01*
X116115000Y-148458012D01*
X116115000Y-149375000D01*
X116762828Y-149375000D01*
X116762844Y-149374999D01*
X116822372Y-149368598D01*
X116822379Y-149368596D01*
X116961167Y-149316832D01*
X117030858Y-149311848D01*
X117092181Y-149345333D01*
X117125666Y-149406656D01*
X117128500Y-149433014D01*
X117128500Y-156773234D01*
X117108815Y-156840273D01*
X117107602Y-156842125D01*
X117019609Y-156973814D01*
X117019602Y-156973827D01*
X116959264Y-157119498D01*
X116959261Y-157119508D01*
X116928362Y-157274848D01*
X116895977Y-157336759D01*
X116894426Y-157338337D01*
X116531956Y-157700807D01*
X116470633Y-157734292D01*
X116400941Y-157729308D01*
X116345008Y-157687436D01*
X116321802Y-157632525D01*
X116317246Y-157603757D01*
X116251557Y-157401588D01*
X116155051Y-157212184D01*
X116155049Y-157212181D01*
X116155048Y-157212179D01*
X116030109Y-157040213D01*
X115879786Y-156889890D01*
X115707820Y-156764951D01*
X115518414Y-156668444D01*
X115518413Y-156668443D01*
X115518412Y-156668443D01*
X115316243Y-156602754D01*
X115316241Y-156602753D01*
X115316240Y-156602753D01*
X115140520Y-156574922D01*
X115106287Y-156569500D01*
X114893713Y-156569500D01*
X114859480Y-156574922D01*
X114683760Y-156602753D01*
X114481585Y-156668444D01*
X114292179Y-156764951D01*
X114120213Y-156889890D01*
X113969890Y-157040213D01*
X113844949Y-157212182D01*
X113840484Y-157220946D01*
X113792509Y-157271742D01*
X113724688Y-157288536D01*
X113658553Y-157265998D01*
X113619516Y-157220946D01*
X113615050Y-157212182D01*
X113490109Y-157040213D01*
X113435819Y-156985923D01*
X113402334Y-156924600D01*
X113399500Y-156898242D01*
X113399500Y-154755678D01*
X113419185Y-154688639D01*
X113456201Y-154653352D01*
X113455384Y-154652128D01*
X113458742Y-154649883D01*
X113458757Y-154649875D01*
X113563449Y-154569541D01*
X113656541Y-154476449D01*
X113736875Y-154371757D01*
X113802701Y-154257743D01*
X113853200Y-154135829D01*
X113887275Y-154008662D01*
X113904500Y-153877826D01*
X113904500Y-153312000D01*
X113899355Y-153240060D01*
X113888396Y-153202740D01*
X113884636Y-153150158D01*
X113888086Y-153126163D01*
X113904500Y-153012000D01*
X113904500Y-152446174D01*
X113887275Y-152315338D01*
X113853200Y-152188171D01*
X113802701Y-152066257D01*
X113802698Y-152066252D01*
X113802697Y-152066249D01*
X113802696Y-152066248D01*
X113736879Y-151952250D01*
X113736875Y-151952243D01*
X113690450Y-151891742D01*
X113656544Y-151847555D01*
X113656541Y-151847551D01*
X113563449Y-151754459D01*
X113563444Y-151754455D01*
X113458767Y-151674132D01*
X113458749Y-151674120D01*
X113344751Y-151608303D01*
X113344750Y-151608302D01*
X113317957Y-151597204D01*
X113222829Y-151557800D01*
X113095662Y-151523725D01*
X113095661Y-151523724D01*
X113095658Y-151523724D01*
X112964833Y-151506500D01*
X112964826Y-151506500D01*
X112333174Y-151506500D01*
X112333166Y-151506500D01*
X112202341Y-151523724D01*
X112075174Y-151557799D01*
X112075172Y-151557799D01*
X112075171Y-151557800D01*
X112058926Y-151564529D01*
X111994029Y-151591410D01*
X111974150Y-151593546D01*
X111955422Y-151600532D01*
X111940126Y-151597204D01*
X111924559Y-151598878D01*
X111906682Y-151589929D01*
X111887149Y-151585680D01*
X111864856Y-151568992D01*
X111862080Y-151567602D01*
X111858933Y-151564566D01*
X111785817Y-151491449D01*
X111752334Y-151430127D01*
X111749500Y-151403770D01*
X111749500Y-149455475D01*
X111769185Y-149388436D01*
X111821989Y-149342681D01*
X111891147Y-149332737D01*
X111911820Y-149337545D01*
X111945458Y-149348475D01*
X111945461Y-149348475D01*
X111945466Y-149348477D01*
X112147648Y-149380500D01*
X112147649Y-149380500D01*
X112352351Y-149380500D01*
X112352352Y-149380500D01*
X112554534Y-149348477D01*
X112749219Y-149285220D01*
X112931610Y-149192287D01*
X113048257Y-149107539D01*
X113097213Y-149071971D01*
X113097215Y-149071968D01*
X113097219Y-149071966D01*
X113241966Y-148927219D01*
X113241968Y-148927215D01*
X113241971Y-148927213D01*
X113349220Y-148779595D01*
X113362287Y-148761610D01*
X113455220Y-148579219D01*
X113518477Y-148384534D01*
X113550500Y-148182352D01*
X113550500Y-147977648D01*
X113532012Y-147860926D01*
X113540966Y-147791637D01*
X113566801Y-147753853D01*
X114305188Y-147015467D01*
X114366509Y-146981984D01*
X114436201Y-146986968D01*
G37*
%TD.AperFunction*%
%TA.AperFunction,Conductor*%
G36*
X137776942Y-148409185D02*
G01*
X137797584Y-148425819D01*
X138381131Y-149009366D01*
X138414616Y-149070689D01*
X138409632Y-149140381D01*
X138393769Y-149169932D01*
X138304948Y-149292184D01*
X138208444Y-149481585D01*
X138142753Y-149683760D01*
X138109500Y-149893713D01*
X138109500Y-150106286D01*
X138142753Y-150316239D01*
X138142753Y-150316241D01*
X138142754Y-150316243D01*
X138197431Y-150484522D01*
X138208444Y-150518414D01*
X138304951Y-150707820D01*
X138429890Y-150879786D01*
X138580213Y-151030109D01*
X138752182Y-151155050D01*
X138760946Y-151159516D01*
X138811742Y-151207491D01*
X138828536Y-151275312D01*
X138805998Y-151341447D01*
X138760946Y-151380484D01*
X138752182Y-151384949D01*
X138580213Y-151509890D01*
X138429890Y-151660213D01*
X138304951Y-151832179D01*
X138208444Y-152021585D01*
X138142753Y-152223760D01*
X138109500Y-152433713D01*
X138109500Y-152646286D01*
X138142754Y-152856244D01*
X138142754Y-152856247D01*
X138156491Y-152898523D01*
X138158486Y-152968364D01*
X138126241Y-153024522D01*
X136212584Y-154938181D01*
X136151261Y-154971666D01*
X136124903Y-154974500D01*
X129714940Y-154974500D01*
X129674019Y-154985464D01*
X129674019Y-154985465D01*
X129636751Y-154995451D01*
X129562214Y-155015423D01*
X129562209Y-155015426D01*
X129425290Y-155094475D01*
X129425282Y-155094481D01*
X129333478Y-155186286D01*
X129313480Y-155206284D01*
X129313478Y-155206286D01*
X128731945Y-155787820D01*
X128184584Y-156335181D01*
X128157656Y-156349884D01*
X128131838Y-156366477D01*
X128125637Y-156367368D01*
X128123261Y-156368666D01*
X128096903Y-156371500D01*
X127916689Y-156371500D01*
X127849650Y-156351815D01*
X127847798Y-156350602D01*
X127716108Y-156262609D01*
X127716095Y-156262602D01*
X127570424Y-156202264D01*
X127570412Y-156202261D01*
X127415768Y-156171500D01*
X127415765Y-156171500D01*
X127258081Y-156171500D01*
X127258078Y-156171500D01*
X127103433Y-156202261D01*
X127103421Y-156202264D01*
X126961913Y-156260878D01*
X126892443Y-156268347D01*
X126867009Y-156260878D01*
X126725501Y-156202264D01*
X126725489Y-156202261D01*
X126570845Y-156171500D01*
X126570842Y-156171500D01*
X126413158Y-156171500D01*
X126413155Y-156171500D01*
X126258510Y-156202261D01*
X126258498Y-156202264D01*
X126112827Y-156262602D01*
X126112814Y-156262609D01*
X125981711Y-156350210D01*
X125981707Y-156350213D01*
X125870213Y-156461707D01*
X125870208Y-156461713D01*
X125840595Y-156506032D01*
X125825255Y-156518851D01*
X125813563Y-156535066D01*
X125798994Y-156540797D01*
X125786982Y-156550837D01*
X125767147Y-156553327D01*
X125748545Y-156560647D01*
X125720739Y-156559155D01*
X125717657Y-156559543D01*
X125713301Y-156558757D01*
X125681148Y-156552361D01*
X125619238Y-156519975D01*
X125617660Y-156518425D01*
X124969819Y-155870584D01*
X124936334Y-155809261D01*
X124933500Y-155782903D01*
X124933500Y-153331927D01*
X124953185Y-153264888D01*
X125005989Y-153219133D01*
X125067229Y-153208309D01*
X125077341Y-153209104D01*
X125776212Y-152510233D01*
X125787482Y-152552292D01*
X125859890Y-152677708D01*
X125962292Y-152780110D01*
X126087708Y-152852518D01*
X126129765Y-152863787D01*
X125430893Y-153562658D01*
X125513828Y-153622914D01*
X125724197Y-153730102D01*
X125948752Y-153803065D01*
X125948751Y-153803065D01*
X126181948Y-153840000D01*
X126418052Y-153840000D01*
X126651247Y-153803065D01*
X126875802Y-153730102D01*
X127086163Y-153622918D01*
X127086169Y-153622914D01*
X127169104Y-153562658D01*
X127169105Y-153562658D01*
X126470233Y-152863787D01*
X126512292Y-152852518D01*
X126637708Y-152780110D01*
X126740110Y-152677708D01*
X126812518Y-152552292D01*
X126823787Y-152510234D01*
X127522658Y-153209105D01*
X127522658Y-153209104D01*
X127582914Y-153126169D01*
X127582918Y-153126163D01*
X127690102Y-152915802D01*
X127763065Y-152691247D01*
X127800000Y-152458052D01*
X127800000Y-152221947D01*
X127799993Y-152221902D01*
X128199500Y-152221902D01*
X128199500Y-152458097D01*
X128236446Y-152691368D01*
X128309433Y-152915996D01*
X128400616Y-153094951D01*
X128416657Y-153126433D01*
X128555483Y-153317510D01*
X128722490Y-153484517D01*
X128913567Y-153623343D01*
X129012991Y-153674002D01*
X129124003Y-153730566D01*
X129124005Y-153730566D01*
X129124008Y-153730568D01*
X129244412Y-153769689D01*
X129348631Y-153803553D01*
X129581903Y-153840500D01*
X129581908Y-153840500D01*
X129818097Y-153840500D01*
X130051368Y-153803553D01*
X130052870Y-153803065D01*
X130275992Y-153730568D01*
X130486433Y-153623343D01*
X130677510Y-153484517D01*
X130844517Y-153317510D01*
X130983343Y-153126433D01*
X131090568Y-152915992D01*
X131163553Y-152691368D01*
X131184171Y-152561190D01*
X131200500Y-152458097D01*
X131200500Y-152221902D01*
X131163553Y-151988631D01*
X131099494Y-151791480D01*
X131090568Y-151764008D01*
X131090566Y-151764005D01*
X131090566Y-151764003D01*
X130988928Y-151564529D01*
X130983343Y-151553567D01*
X130844517Y-151362490D01*
X130677510Y-151195483D01*
X130486433Y-151056657D01*
X130434320Y-151030104D01*
X130275996Y-150949433D01*
X130051368Y-150876446D01*
X129818097Y-150839500D01*
X129818092Y-150839500D01*
X129581908Y-150839500D01*
X129581903Y-150839500D01*
X129348631Y-150876446D01*
X129124003Y-150949433D01*
X128913566Y-151056657D01*
X128830047Y-151117338D01*
X128722490Y-151195483D01*
X128722488Y-151195485D01*
X128722487Y-151195485D01*
X128555485Y-151362487D01*
X128555485Y-151362488D01*
X128555483Y-151362490D01*
X128506342Y-151430127D01*
X128416657Y-151553566D01*
X128309433Y-151764003D01*
X128236446Y-151988631D01*
X128199500Y-152221902D01*
X127799993Y-152221902D01*
X127763065Y-151988752D01*
X127690102Y-151764197D01*
X127582914Y-151553828D01*
X127522658Y-151470894D01*
X127522658Y-151470893D01*
X126823787Y-152169765D01*
X126812518Y-152127708D01*
X126740110Y-152002292D01*
X126637708Y-151899890D01*
X126512292Y-151827482D01*
X126470234Y-151816212D01*
X127169105Y-151117340D01*
X127169104Y-151117338D01*
X127086174Y-151057087D01*
X126875802Y-150949897D01*
X126651247Y-150876934D01*
X126651248Y-150876934D01*
X126418052Y-150840000D01*
X126181948Y-150840000D01*
X125948752Y-150876934D01*
X125724197Y-150949897D01*
X125513830Y-151057084D01*
X125430894Y-151117340D01*
X126129766Y-151816212D01*
X126087708Y-151827482D01*
X125962292Y-151899890D01*
X125859890Y-152002292D01*
X125787482Y-152127708D01*
X125776212Y-152169766D01*
X125077340Y-151470894D01*
X125067229Y-151471690D01*
X125053618Y-151468830D01*
X125039853Y-151470810D01*
X125020101Y-151461789D01*
X124998852Y-151457326D01*
X124988947Y-151447562D01*
X124976297Y-151441785D01*
X124964557Y-151423518D01*
X124949095Y-151408275D01*
X124945268Y-151393503D01*
X124938523Y-151383007D01*
X124933500Y-151348072D01*
X124933500Y-150143608D01*
X124953185Y-150076569D01*
X125005989Y-150030814D01*
X125075147Y-150020870D01*
X125138703Y-150049895D01*
X125151838Y-150064215D01*
X125152319Y-150063805D01*
X125155481Y-150067507D01*
X125155483Y-150067510D01*
X125322490Y-150234517D01*
X125513567Y-150373343D01*
X125573466Y-150403863D01*
X125724003Y-150480566D01*
X125724005Y-150480566D01*
X125724008Y-150480568D01*
X125840486Y-150518414D01*
X125948631Y-150553553D01*
X126181903Y-150590500D01*
X126181908Y-150590500D01*
X126418097Y-150590500D01*
X126651368Y-150553553D01*
X126875992Y-150480568D01*
X127052794Y-150390482D01*
X127121462Y-150377587D01*
X127186203Y-150403863D01*
X127220713Y-150449622D01*
X127221267Y-150449327D01*
X127223158Y-150452865D01*
X127223650Y-150453517D01*
X127224142Y-150454706D01*
X127224143Y-150454707D01*
X127319951Y-150598094D01*
X127319957Y-150598102D01*
X127441897Y-150720042D01*
X127441901Y-150720045D01*
X127585288Y-150815854D01*
X127585301Y-150815861D01*
X127739631Y-150879786D01*
X127744626Y-150881855D01*
X127913766Y-150915499D01*
X127913769Y-150915500D01*
X127913771Y-150915500D01*
X128086231Y-150915500D01*
X128086232Y-150915499D01*
X128255374Y-150881855D01*
X128414705Y-150815858D01*
X128558099Y-150720045D01*
X128680045Y-150598099D01*
X128775858Y-150454705D01*
X128776345Y-150453527D01*
X128776765Y-150453006D01*
X128778728Y-150449335D01*
X128779423Y-150449706D01*
X128820177Y-150399122D01*
X128886468Y-150377048D01*
X128947206Y-150390483D01*
X129124003Y-150480566D01*
X129124005Y-150480566D01*
X129124008Y-150480568D01*
X129240486Y-150518414D01*
X129348631Y-150553553D01*
X129581903Y-150590500D01*
X129581908Y-150590500D01*
X129818097Y-150590500D01*
X130051368Y-150553553D01*
X130275992Y-150480568D01*
X130486433Y-150373343D01*
X130677510Y-150234517D01*
X130844517Y-150067510D01*
X130983343Y-149876433D01*
X131090568Y-149665992D01*
X131163553Y-149441368D01*
X131171937Y-149388436D01*
X131200500Y-149208097D01*
X131200500Y-148971902D01*
X131163553Y-148738631D01*
X131112972Y-148582961D01*
X131102852Y-148551817D01*
X131100858Y-148481978D01*
X131136938Y-148422145D01*
X131199639Y-148391316D01*
X131220784Y-148389500D01*
X137709903Y-148389500D01*
X137776942Y-148409185D01*
G37*
%TD.AperFunction*%
%TA.AperFunction,Conductor*%
G36*
X130554412Y-136621185D02*
G01*
X130600167Y-136673989D01*
X130610111Y-136743147D01*
X130594761Y-136787497D01*
X130537016Y-136887515D01*
X130499500Y-137027525D01*
X130499500Y-137172475D01*
X130537016Y-137312485D01*
X130537017Y-137312488D01*
X130609488Y-137438011D01*
X130609490Y-137438013D01*
X130609491Y-137438015D01*
X130711985Y-137540509D01*
X130711986Y-137540510D01*
X130711988Y-137540511D01*
X130837511Y-137612982D01*
X130837512Y-137612982D01*
X130837515Y-137612984D01*
X130977525Y-137650500D01*
X130977528Y-137650500D01*
X131122472Y-137650500D01*
X131122475Y-137650500D01*
X131262485Y-137612984D01*
X131299501Y-137591612D01*
X131361501Y-137575000D01*
X132070000Y-137575000D01*
X132070000Y-138075000D01*
X131270000Y-138075000D01*
X131270000Y-138411571D01*
X131297085Y-138582584D01*
X131350591Y-138747257D01*
X131429195Y-138901524D01*
X131530967Y-139041602D01*
X131653397Y-139164032D01*
X131793475Y-139265804D01*
X131947744Y-139344408D01*
X132112415Y-139397914D01*
X132112414Y-139397914D01*
X132119999Y-139399115D01*
X132120000Y-139399114D01*
X132120000Y-138491988D01*
X132129940Y-138509205D01*
X132185795Y-138565060D01*
X132254204Y-138604556D01*
X132330504Y-138625000D01*
X132409496Y-138625000D01*
X132485796Y-138604556D01*
X132554205Y-138565060D01*
X132610060Y-138509205D01*
X132620000Y-138491988D01*
X132620000Y-139399115D01*
X132627584Y-139397914D01*
X132792255Y-139344408D01*
X132946524Y-139265804D01*
X133086602Y-139164032D01*
X133209032Y-139041602D01*
X133310804Y-138901524D01*
X133389408Y-138747257D01*
X133442914Y-138582584D01*
X133470000Y-138411571D01*
X133470000Y-138075000D01*
X132670000Y-138075000D01*
X132670000Y-137575000D01*
X133470000Y-137575000D01*
X133470000Y-137238428D01*
X133442914Y-137067415D01*
X133389407Y-136902740D01*
X133327782Y-136781796D01*
X133314885Y-136713126D01*
X133341161Y-136648386D01*
X133398267Y-136608128D01*
X133438266Y-136601500D01*
X134543481Y-136601500D01*
X134610520Y-136621185D01*
X134631162Y-136637819D01*
X137106181Y-139112838D01*
X137139666Y-139174161D01*
X137142500Y-139200519D01*
X137142500Y-140653000D01*
X137122815Y-140720039D01*
X137070011Y-140765794D01*
X137018502Y-140777000D01*
X136945130Y-140777000D01*
X136945123Y-140777001D01*
X136885516Y-140783408D01*
X136750671Y-140833702D01*
X136750664Y-140833706D01*
X136635455Y-140919952D01*
X136635452Y-140919955D01*
X136549206Y-141035164D01*
X136549202Y-141035171D01*
X136498908Y-141170017D01*
X136492501Y-141229616D01*
X136492500Y-141229635D01*
X136492500Y-145625370D01*
X136492501Y-145625376D01*
X136498908Y-145684983D01*
X136549202Y-145819828D01*
X136549206Y-145819835D01*
X136635452Y-145935044D01*
X136635455Y-145935047D01*
X136750664Y-146021293D01*
X136750671Y-146021297D01*
X136885517Y-146071591D01*
X136885516Y-146071591D01*
X136888586Y-146071921D01*
X136945127Y-146078000D01*
X138682920Y-146077999D01*
X138749959Y-146097684D01*
X138795714Y-146150487D01*
X138805658Y-146219646D01*
X138776633Y-146283202D01*
X138755805Y-146302317D01*
X138580214Y-146429890D01*
X138580209Y-146429894D01*
X138429890Y-146580213D01*
X138304951Y-146752179D01*
X138208444Y-146941585D01*
X138208443Y-146941587D01*
X138208443Y-146941588D01*
X138156055Y-147102819D01*
X138142107Y-147123217D01*
X138131840Y-147145701D01*
X138122730Y-147151555D01*
X138116620Y-147160492D01*
X138093855Y-147170112D01*
X138073062Y-147183476D01*
X138056651Y-147185835D01*
X138052261Y-147187691D01*
X138038127Y-147188499D01*
X137930943Y-147188499D01*
X137930939Y-147188499D01*
X137923332Y-147188500D01*
X137923331Y-147188499D01*
X137923331Y-147188500D01*
X127687669Y-147188500D01*
X127687653Y-147188499D01*
X127680057Y-147188499D01*
X127521943Y-147188499D01*
X127414587Y-147217265D01*
X127369210Y-147229424D01*
X127369209Y-147229425D01*
X127319096Y-147258359D01*
X127319095Y-147258360D01*
X127275689Y-147283420D01*
X127232285Y-147308479D01*
X127232282Y-147308481D01*
X127120478Y-147420286D01*
X126903563Y-147637200D01*
X126842240Y-147670685D01*
X126777564Y-147667450D01*
X126651370Y-147626447D01*
X126418097Y-147589500D01*
X126418092Y-147589500D01*
X126181908Y-147589500D01*
X126181903Y-147589500D01*
X125948631Y-147626446D01*
X125724003Y-147699433D01*
X125513566Y-147806657D01*
X125438867Y-147860930D01*
X125322490Y-147945483D01*
X125322488Y-147945485D01*
X125322487Y-147945485D01*
X125155485Y-148112487D01*
X125152319Y-148116195D01*
X125150672Y-148114788D01*
X125102480Y-148151945D01*
X125032866Y-148157920D01*
X124971074Y-148125309D01*
X124936721Y-148064468D01*
X124933500Y-148036391D01*
X124933500Y-146502765D01*
X124953185Y-146435726D01*
X124954398Y-146433874D01*
X125042390Y-146302185D01*
X125042390Y-146302184D01*
X125042394Y-146302179D01*
X125050255Y-146283202D01*
X125094996Y-146175185D01*
X125102737Y-146156497D01*
X125133500Y-146001842D01*
X125133500Y-145844158D01*
X125133500Y-145844155D01*
X125133499Y-145844153D01*
X125113738Y-145744808D01*
X125102737Y-145689503D01*
X125082653Y-145641015D01*
X125042397Y-145543827D01*
X125042390Y-145543814D01*
X124954789Y-145412711D01*
X124954786Y-145412707D01*
X124843292Y-145301213D01*
X124843288Y-145301210D01*
X124712185Y-145213609D01*
X124712172Y-145213602D01*
X124566501Y-145153264D01*
X124566489Y-145153261D01*
X124411845Y-145122500D01*
X124411842Y-145122500D01*
X124254158Y-145122500D01*
X124254155Y-145122500D01*
X124099510Y-145153261D01*
X124099498Y-145153264D01*
X123953827Y-145213602D01*
X123953806Y-145213613D01*
X123951290Y-145215295D01*
X123949772Y-145215769D01*
X123948446Y-145216479D01*
X123948311Y-145216227D01*
X123884610Y-145236166D01*
X123817232Y-145217675D01*
X123770547Y-145165691D01*
X123759378Y-145096720D01*
X123787271Y-145032659D01*
X123794714Y-145024520D01*
X129131520Y-139687716D01*
X129210577Y-139550784D01*
X129251501Y-139398057D01*
X129251501Y-139239942D01*
X129251501Y-139232347D01*
X129251500Y-139232329D01*
X129251500Y-137884060D01*
X129251501Y-137884047D01*
X129251501Y-137715944D01*
X129235114Y-137654789D01*
X129210577Y-137563216D01*
X129199072Y-137543288D01*
X129131524Y-137426290D01*
X129131518Y-137426282D01*
X128723573Y-137018337D01*
X128715201Y-137003363D01*
X128703634Y-136992251D01*
X128692799Y-136963298D01*
X128690640Y-136959436D01*
X128689500Y-136954658D01*
X128689500Y-136954158D01*
X128658737Y-136799503D01*
X128643972Y-136763857D01*
X128641687Y-136754280D01*
X128642995Y-136728821D01*
X128640272Y-136703482D01*
X128644759Y-136694517D01*
X128645274Y-136684503D01*
X128660138Y-136663794D01*
X128671547Y-136641003D01*
X128680169Y-136635886D01*
X128686017Y-136627741D01*
X128709716Y-136618356D01*
X128731637Y-136605351D01*
X128747635Y-136603341D01*
X128750979Y-136602018D01*
X128753784Y-136602569D01*
X128762301Y-136601500D01*
X130487373Y-136601500D01*
X130554412Y-136621185D01*
G37*
%TD.AperFunction*%
%TA.AperFunction,Conductor*%
G36*
X141646634Y-145346021D02*
G01*
X141659215Y-145345482D01*
X141679080Y-145357077D01*
X141700853Y-145364497D01*
X141710126Y-145375199D01*
X141719557Y-145380704D01*
X141739892Y-145409550D01*
X141762585Y-145454087D01*
X141883790Y-145620909D01*
X141883790Y-145620910D01*
X142029589Y-145766709D01*
X142192651Y-145885182D01*
X142235316Y-145940512D01*
X142241295Y-146010126D01*
X142208689Y-146071921D01*
X142147850Y-146106278D01*
X142119765Y-146109500D01*
X141349998Y-146109500D01*
X141349981Y-146109501D01*
X141247203Y-146120000D01*
X141247200Y-146120001D01*
X141080668Y-146175185D01*
X141080663Y-146175187D01*
X140931342Y-146267289D01*
X140807289Y-146391342D01*
X140715187Y-146540663D01*
X140715183Y-146540673D01*
X140711685Y-146551229D01*
X140671910Y-146608672D01*
X140607393Y-146635493D01*
X140538618Y-146623174D01*
X140493663Y-146585106D01*
X140490105Y-146580209D01*
X140339786Y-146429890D01*
X140163875Y-146302085D01*
X140164587Y-146301104D01*
X140121504Y-146253477D01*
X140110085Y-146184547D01*
X140137746Y-146120386D01*
X140195703Y-146081364D01*
X140252573Y-146077095D01*
X140258287Y-146078000D01*
X140467718Y-146078000D01*
X140567992Y-146062117D01*
X140674559Y-146045239D01*
X140873735Y-145980523D01*
X141060334Y-145885446D01*
X141229762Y-145762348D01*
X141377848Y-145614262D01*
X141500946Y-145444834D01*
X141518923Y-145409551D01*
X141527567Y-145400398D01*
X141532303Y-145388732D01*
X141551104Y-145375477D01*
X141566897Y-145358756D01*
X141579116Y-145355729D01*
X141589409Y-145348474D01*
X141612391Y-145347488D01*
X141634717Y-145341960D01*
X141646634Y-145346021D01*
G37*
%TD.AperFunction*%
%TA.AperFunction,Conductor*%
G36*
X139358236Y-145631449D02*
G01*
X139386491Y-145652601D01*
X139496238Y-145762348D01*
X139608839Y-145844158D01*
X139669608Y-145888310D01*
X139668227Y-145890209D01*
X139708645Y-145934773D01*
X139720152Y-146003689D01*
X139692574Y-146067886D01*
X139634666Y-146106981D01*
X139577652Y-146111300D01*
X139566287Y-146109500D01*
X139353713Y-146109500D01*
X139163140Y-146139683D01*
X139093847Y-146130728D01*
X139040395Y-146085732D01*
X139019756Y-146018980D01*
X139038481Y-145951667D01*
X139045743Y-145942528D01*
X139045232Y-145942145D01*
X139136793Y-145819835D01*
X139136792Y-145819835D01*
X139136796Y-145819831D01*
X139182628Y-145696949D01*
X139224499Y-145641015D01*
X139289963Y-145616598D01*
X139358236Y-145631449D01*
G37*
%TD.AperFunction*%
%TA.AperFunction,Conductor*%
G36*
X122481751Y-132520185D02*
G01*
X122527506Y-132572989D01*
X122537450Y-132642147D01*
X122525197Y-132680795D01*
X122432567Y-132862589D01*
X122364473Y-133072164D01*
X122330000Y-133289818D01*
X122330000Y-133750000D01*
X123430000Y-133750000D01*
X123430000Y-134250000D01*
X122330000Y-134250000D01*
X122330000Y-134710181D01*
X122364473Y-134927835D01*
X122400327Y-135038182D01*
X122402322Y-135108023D01*
X122366242Y-135167856D01*
X122303541Y-135198684D01*
X122282396Y-135200500D01*
X116633003Y-135200500D01*
X116535760Y-135219843D01*
X116535758Y-135219843D01*
X116524591Y-135222065D01*
X116497671Y-135227420D01*
X116444866Y-135249292D01*
X116370189Y-135280225D01*
X116370188Y-135280226D01*
X116349199Y-135294249D01*
X116349192Y-135294253D01*
X116255457Y-135356886D01*
X116255453Y-135356889D01*
X113247888Y-138364453D01*
X113247887Y-138364454D01*
X113171222Y-138479192D01*
X113118421Y-138606667D01*
X113118418Y-138606679D01*
X113100411Y-138697209D01*
X113100411Y-138697212D01*
X113091500Y-138742006D01*
X113091500Y-141766831D01*
X113071815Y-141833870D01*
X113019011Y-141879625D01*
X112949853Y-141889569D01*
X112911205Y-141877316D01*
X112749223Y-141794781D01*
X112554534Y-141731522D01*
X112379995Y-141703878D01*
X112352352Y-141699500D01*
X112147648Y-141699500D01*
X112123329Y-141703351D01*
X111945465Y-141731522D01*
X111750776Y-141794781D01*
X111568386Y-141887715D01*
X111402786Y-142008028D01*
X111258028Y-142152786D01*
X111137715Y-142318386D01*
X111044781Y-142500776D01*
X110981522Y-142695465D01*
X110949500Y-142897648D01*
X110949500Y-143102351D01*
X110981522Y-143304534D01*
X111044781Y-143499223D01*
X111137715Y-143681613D01*
X111258028Y-143847213D01*
X111402786Y-143991971D01*
X111505463Y-144066569D01*
X111548129Y-144121898D01*
X111554108Y-144191512D01*
X111521503Y-144253307D01*
X111460664Y-144287664D01*
X111445833Y-144290177D01*
X111392516Y-144295909D01*
X111257671Y-144346202D01*
X111257664Y-144346206D01*
X111142455Y-144432452D01*
X111142452Y-144432455D01*
X111056206Y-144547664D01*
X111056202Y-144547671D01*
X111005908Y-144682517D01*
X110999501Y-144742116D01*
X110999500Y-144742135D01*
X110999500Y-145677769D01*
X110979815Y-145744808D01*
X110963181Y-145765450D01*
X110712181Y-146016450D01*
X110650858Y-146049935D01*
X110581166Y-146044951D01*
X110525233Y-146003079D01*
X110500816Y-145937615D01*
X110500500Y-145928769D01*
X110500500Y-134874038D01*
X111399500Y-134874038D01*
X111399500Y-135125962D01*
X111415570Y-135227421D01*
X111438910Y-135374785D01*
X111516760Y-135614383D01*
X111631132Y-135838848D01*
X111779201Y-136042649D01*
X111779205Y-136042654D01*
X111957345Y-136220794D01*
X111957350Y-136220798D01*
X112135117Y-136349952D01*
X112161155Y-136368870D01*
X112304184Y-136441747D01*
X112385616Y-136483239D01*
X112385618Y-136483239D01*
X112385621Y-136483241D01*
X112625215Y-136561090D01*
X112874038Y-136600500D01*
X112874039Y-136600500D01*
X113125961Y-136600500D01*
X113125962Y-136600500D01*
X113374785Y-136561090D01*
X113614379Y-136483241D01*
X113838845Y-136368870D01*
X114042656Y-136220793D01*
X114220793Y-136042656D01*
X114368870Y-135838845D01*
X114483241Y-135614379D01*
X114561090Y-135374785D01*
X114600500Y-135125962D01*
X114600500Y-134874038D01*
X114561090Y-134625215D01*
X114483241Y-134385621D01*
X114483239Y-134385618D01*
X114483239Y-134385616D01*
X114441747Y-134304184D01*
X114368870Y-134161155D01*
X114349952Y-134135117D01*
X114220798Y-133957350D01*
X114220794Y-133957345D01*
X114042654Y-133779205D01*
X114042649Y-133779201D01*
X113838848Y-133631132D01*
X113838847Y-133631131D01*
X113838845Y-133631130D01*
X113768747Y-133595413D01*
X113614383Y-133516760D01*
X113374785Y-133438910D01*
X113125962Y-133399500D01*
X112874038Y-133399500D01*
X112749626Y-133419205D01*
X112625214Y-133438910D01*
X112385616Y-133516760D01*
X112161151Y-133631132D01*
X111957350Y-133779201D01*
X111957345Y-133779205D01*
X111779205Y-133957345D01*
X111779201Y-133957350D01*
X111631132Y-134161151D01*
X111516760Y-134385616D01*
X111438910Y-134625214D01*
X111416644Y-134765796D01*
X111399500Y-134874038D01*
X110500500Y-134874038D01*
X110500500Y-132624500D01*
X110520185Y-132557461D01*
X110572989Y-132511706D01*
X110624500Y-132500500D01*
X122414712Y-132500500D01*
X122481751Y-132520185D01*
G37*
%TD.AperFunction*%
%TA.AperFunction,Conductor*%
G36*
X132563039Y-136621185D02*
G01*
X132608794Y-136673989D01*
X132620000Y-136725500D01*
X132620000Y-137158011D01*
X132610060Y-137140795D01*
X132554205Y-137084940D01*
X132485796Y-137045444D01*
X132409496Y-137025000D01*
X132330504Y-137025000D01*
X132254204Y-137045444D01*
X132185795Y-137084940D01*
X132129940Y-137140795D01*
X132120000Y-137158011D01*
X132120000Y-136725500D01*
X132139685Y-136658461D01*
X132192489Y-136612706D01*
X132244000Y-136601500D01*
X132496000Y-136601500D01*
X132563039Y-136621185D01*
G37*
%TD.AperFunction*%
%TA.AperFunction,Conductor*%
G36*
X123923039Y-136621185D02*
G01*
X123968794Y-136673989D01*
X123980000Y-136725500D01*
X123980000Y-137133011D01*
X123970060Y-137115795D01*
X123914205Y-137059940D01*
X123845796Y-137020444D01*
X123769496Y-137000000D01*
X123690504Y-137000000D01*
X123614204Y-137020444D01*
X123545795Y-137059940D01*
X123489940Y-137115795D01*
X123480000Y-137133011D01*
X123480000Y-136725500D01*
X123499685Y-136658461D01*
X123552489Y-136612706D01*
X123604000Y-136601500D01*
X123856000Y-136601500D01*
X123923039Y-136621185D01*
G37*
%TD.AperFunction*%
%TA.AperFunction,Conductor*%
G36*
X123980000Y-135076500D02*
G01*
X123960315Y-135143539D01*
X123907511Y-135189294D01*
X123856000Y-135200500D01*
X123604000Y-135200500D01*
X123536961Y-135180815D01*
X123491206Y-135128011D01*
X123480000Y-135076500D01*
X123480000Y-134816988D01*
X123489940Y-134834205D01*
X123545795Y-134890060D01*
X123614204Y-134929556D01*
X123690504Y-134950000D01*
X123769496Y-134950000D01*
X123845796Y-134929556D01*
X123914205Y-134890060D01*
X123970060Y-134834205D01*
X123980000Y-134816988D01*
X123980000Y-135076500D01*
G37*
%TD.AperFunction*%
%TA.AperFunction,Conductor*%
G36*
X131121751Y-132520185D02*
G01*
X131167506Y-132572989D01*
X131177450Y-132642147D01*
X131165197Y-132680795D01*
X131072567Y-132862589D01*
X131004473Y-133072164D01*
X130970000Y-133289818D01*
X130970000Y-133750000D01*
X132070000Y-133750000D01*
X132070000Y-134250000D01*
X130970000Y-134250000D01*
X130970000Y-134710181D01*
X131004473Y-134927835D01*
X131040327Y-135038182D01*
X131042322Y-135108023D01*
X131006242Y-135167856D01*
X130943541Y-135198684D01*
X130922396Y-135200500D01*
X125177604Y-135200500D01*
X125110565Y-135180815D01*
X125064810Y-135128011D01*
X125054866Y-135058853D01*
X125059673Y-135038182D01*
X125095526Y-134927835D01*
X125130000Y-134710181D01*
X125130000Y-134250000D01*
X124030000Y-134250000D01*
X124030000Y-133750000D01*
X125130000Y-133750000D01*
X125130000Y-133289818D01*
X125095526Y-133072164D01*
X125027432Y-132862589D01*
X124934803Y-132680795D01*
X124921907Y-132612126D01*
X124948183Y-132547385D01*
X125005290Y-132507128D01*
X125045288Y-132500500D01*
X131054712Y-132500500D01*
X131121751Y-132520185D01*
G37*
%TD.AperFunction*%
%TA.AperFunction,Conductor*%
G36*
X132620000Y-135076500D02*
G01*
X132600315Y-135143539D01*
X132547511Y-135189294D01*
X132496000Y-135200500D01*
X132244000Y-135200500D01*
X132176961Y-135180815D01*
X132131206Y-135128011D01*
X132120000Y-135076500D01*
X132120000Y-134816988D01*
X132129940Y-134834205D01*
X132185795Y-134890060D01*
X132254204Y-134929556D01*
X132330504Y-134950000D01*
X132409496Y-134950000D01*
X132485796Y-134929556D01*
X132554205Y-134890060D01*
X132610060Y-134834205D01*
X132620000Y-134816988D01*
X132620000Y-135076500D01*
G37*
%TD.AperFunction*%
%TD*%
M02*
