%TF.GenerationSoftware,KiCad,Pcbnew,9.0.1*%
%TF.CreationDate,2025-05-28T08:33:00+02:00*%
%TF.ProjectId,tv25-cpu-small,74763235-2d63-4707-952d-736d616c6c2e,rev?*%
%TF.SameCoordinates,Original*%
%TF.FileFunction,Legend,Bot*%
%TF.FilePolarity,Positive*%
%FSLAX46Y46*%
G04 Gerber Fmt 4.6, Leading zero omitted, Abs format (unit mm)*
G04 Created by KiCad (PCBNEW 9.0.1) date 2025-05-28 08:33:00*
%MOMM*%
%LPD*%
G01*
G04 APERTURE LIST*
%ADD10C,0.100000*%
%ADD11C,0.150000*%
%ADD12C,0.010000*%
%ADD13C,0.120000*%
G04 APERTURE END LIST*
D10*
X122239693Y-149796961D02*
X122144455Y-149844580D01*
X122144455Y-149844580D02*
X122001598Y-149844580D01*
X122001598Y-149844580D02*
X121858741Y-149796961D01*
X121858741Y-149796961D02*
X121763503Y-149701723D01*
X121763503Y-149701723D02*
X121715884Y-149606485D01*
X121715884Y-149606485D02*
X121668265Y-149416009D01*
X121668265Y-149416009D02*
X121668265Y-149273152D01*
X121668265Y-149273152D02*
X121715884Y-149082676D01*
X121715884Y-149082676D02*
X121763503Y-148987438D01*
X121763503Y-148987438D02*
X121858741Y-148892200D01*
X121858741Y-148892200D02*
X122001598Y-148844580D01*
X122001598Y-148844580D02*
X122096836Y-148844580D01*
X122096836Y-148844580D02*
X122239693Y-148892200D01*
X122239693Y-148892200D02*
X122287312Y-148939819D01*
X122287312Y-148939819D02*
X122287312Y-149273152D01*
X122287312Y-149273152D02*
X122096836Y-149273152D01*
X122715884Y-148844580D02*
X122715884Y-149844580D01*
X122715884Y-149844580D02*
X123287312Y-148844580D01*
X123287312Y-148844580D02*
X123287312Y-149844580D01*
X123763503Y-148844580D02*
X123763503Y-149844580D01*
X123763503Y-149844580D02*
X124001598Y-149844580D01*
X124001598Y-149844580D02*
X124144455Y-149796961D01*
X124144455Y-149796961D02*
X124239693Y-149701723D01*
X124239693Y-149701723D02*
X124287312Y-149606485D01*
X124287312Y-149606485D02*
X124334931Y-149416009D01*
X124334931Y-149416009D02*
X124334931Y-149273152D01*
X124334931Y-149273152D02*
X124287312Y-149082676D01*
X124287312Y-149082676D02*
X124239693Y-148987438D01*
X124239693Y-148987438D02*
X124144455Y-148892200D01*
X124144455Y-148892200D02*
X124001598Y-148844580D01*
X124001598Y-148844580D02*
X123763503Y-148844580D01*
X122049217Y-144161390D02*
X122192074Y-144113771D01*
X122192074Y-144113771D02*
X122239693Y-144066152D01*
X122239693Y-144066152D02*
X122287312Y-143970914D01*
X122287312Y-143970914D02*
X122287312Y-143828057D01*
X122287312Y-143828057D02*
X122239693Y-143732819D01*
X122239693Y-143732819D02*
X122192074Y-143685200D01*
X122192074Y-143685200D02*
X122096836Y-143637580D01*
X122096836Y-143637580D02*
X121715884Y-143637580D01*
X121715884Y-143637580D02*
X121715884Y-144637580D01*
X121715884Y-144637580D02*
X122049217Y-144637580D01*
X122049217Y-144637580D02*
X122144455Y-144589961D01*
X122144455Y-144589961D02*
X122192074Y-144542342D01*
X122192074Y-144542342D02*
X122239693Y-144447104D01*
X122239693Y-144447104D02*
X122239693Y-144351866D01*
X122239693Y-144351866D02*
X122192074Y-144256628D01*
X122192074Y-144256628D02*
X122144455Y-144209009D01*
X122144455Y-144209009D02*
X122049217Y-144161390D01*
X122049217Y-144161390D02*
X121715884Y-144161390D01*
X122668265Y-143923295D02*
X123144455Y-143923295D01*
X122573027Y-143637580D02*
X122906360Y-144637580D01*
X122906360Y-144637580D02*
X123239693Y-143637580D01*
X123430170Y-144637580D02*
X124001598Y-144637580D01*
X123715884Y-143637580D02*
X123715884Y-144637580D01*
X124192075Y-144637580D02*
X124763503Y-144637580D01*
X124477789Y-143637580D02*
X124477789Y-144637580D01*
X125096837Y-144018533D02*
X125858742Y-144018533D01*
X125477789Y-143637580D02*
X125477789Y-144399485D01*
X114715027Y-166862580D02*
X115286455Y-166862580D01*
X115000741Y-165862580D02*
X115000741Y-166862580D01*
X115476932Y-166862580D02*
X115810265Y-165862580D01*
X115810265Y-165862580D02*
X116143598Y-166862580D01*
X116476932Y-166243533D02*
X117238837Y-166243533D01*
X118286455Y-165957819D02*
X118238836Y-165910200D01*
X118238836Y-165910200D02*
X118095979Y-165862580D01*
X118095979Y-165862580D02*
X118000741Y-165862580D01*
X118000741Y-165862580D02*
X117857884Y-165910200D01*
X117857884Y-165910200D02*
X117762646Y-166005438D01*
X117762646Y-166005438D02*
X117715027Y-166100676D01*
X117715027Y-166100676D02*
X117667408Y-166291152D01*
X117667408Y-166291152D02*
X117667408Y-166434009D01*
X117667408Y-166434009D02*
X117715027Y-166624485D01*
X117715027Y-166624485D02*
X117762646Y-166719723D01*
X117762646Y-166719723D02*
X117857884Y-166814961D01*
X117857884Y-166814961D02*
X118000741Y-166862580D01*
X118000741Y-166862580D02*
X118095979Y-166862580D01*
X118095979Y-166862580D02*
X118238836Y-166814961D01*
X118238836Y-166814961D02*
X118286455Y-166767342D01*
X118905503Y-166862580D02*
X119095979Y-166862580D01*
X119095979Y-166862580D02*
X119191217Y-166814961D01*
X119191217Y-166814961D02*
X119286455Y-166719723D01*
X119286455Y-166719723D02*
X119334074Y-166529247D01*
X119334074Y-166529247D02*
X119334074Y-166195914D01*
X119334074Y-166195914D02*
X119286455Y-166005438D01*
X119286455Y-166005438D02*
X119191217Y-165910200D01*
X119191217Y-165910200D02*
X119095979Y-165862580D01*
X119095979Y-165862580D02*
X118905503Y-165862580D01*
X118905503Y-165862580D02*
X118810265Y-165910200D01*
X118810265Y-165910200D02*
X118715027Y-166005438D01*
X118715027Y-166005438D02*
X118667408Y-166195914D01*
X118667408Y-166195914D02*
X118667408Y-166529247D01*
X118667408Y-166529247D02*
X118715027Y-166719723D01*
X118715027Y-166719723D02*
X118810265Y-166814961D01*
X118810265Y-166814961D02*
X118905503Y-166862580D01*
X119762646Y-165862580D02*
X119762646Y-166862580D01*
X119762646Y-166862580D02*
X120334074Y-165862580D01*
X120334074Y-165862580D02*
X120334074Y-166862580D01*
X120667408Y-166862580D02*
X121238836Y-166862580D01*
X120953122Y-165862580D02*
X120953122Y-166862580D01*
X122143598Y-165862580D02*
X121810265Y-166338771D01*
X121572170Y-165862580D02*
X121572170Y-166862580D01*
X121572170Y-166862580D02*
X121953122Y-166862580D01*
X121953122Y-166862580D02*
X122048360Y-166814961D01*
X122048360Y-166814961D02*
X122095979Y-166767342D01*
X122095979Y-166767342D02*
X122143598Y-166672104D01*
X122143598Y-166672104D02*
X122143598Y-166529247D01*
X122143598Y-166529247D02*
X122095979Y-166434009D01*
X122095979Y-166434009D02*
X122048360Y-166386390D01*
X122048360Y-166386390D02*
X121953122Y-166338771D01*
X121953122Y-166338771D02*
X121572170Y-166338771D01*
X122762646Y-166862580D02*
X122953122Y-166862580D01*
X122953122Y-166862580D02*
X123048360Y-166814961D01*
X123048360Y-166814961D02*
X123143598Y-166719723D01*
X123143598Y-166719723D02*
X123191217Y-166529247D01*
X123191217Y-166529247D02*
X123191217Y-166195914D01*
X123191217Y-166195914D02*
X123143598Y-166005438D01*
X123143598Y-166005438D02*
X123048360Y-165910200D01*
X123048360Y-165910200D02*
X122953122Y-165862580D01*
X122953122Y-165862580D02*
X122762646Y-165862580D01*
X122762646Y-165862580D02*
X122667408Y-165910200D01*
X122667408Y-165910200D02*
X122572170Y-166005438D01*
X122572170Y-166005438D02*
X122524551Y-166195914D01*
X122524551Y-166195914D02*
X122524551Y-166529247D01*
X122524551Y-166529247D02*
X122572170Y-166719723D01*
X122572170Y-166719723D02*
X122667408Y-166814961D01*
X122667408Y-166814961D02*
X122762646Y-166862580D01*
X124095979Y-165862580D02*
X123619789Y-165862580D01*
X123619789Y-165862580D02*
X123619789Y-166862580D01*
X124429313Y-166243533D02*
X125191218Y-166243533D01*
X125619789Y-165910200D02*
X125762646Y-165862580D01*
X125762646Y-165862580D02*
X126000741Y-165862580D01*
X126000741Y-165862580D02*
X126095979Y-165910200D01*
X126095979Y-165910200D02*
X126143598Y-165957819D01*
X126143598Y-165957819D02*
X126191217Y-166053057D01*
X126191217Y-166053057D02*
X126191217Y-166148295D01*
X126191217Y-166148295D02*
X126143598Y-166243533D01*
X126143598Y-166243533D02*
X126095979Y-166291152D01*
X126095979Y-166291152D02*
X126000741Y-166338771D01*
X126000741Y-166338771D02*
X125810265Y-166386390D01*
X125810265Y-166386390D02*
X125715027Y-166434009D01*
X125715027Y-166434009D02*
X125667408Y-166481628D01*
X125667408Y-166481628D02*
X125619789Y-166576866D01*
X125619789Y-166576866D02*
X125619789Y-166672104D01*
X125619789Y-166672104D02*
X125667408Y-166767342D01*
X125667408Y-166767342D02*
X125715027Y-166814961D01*
X125715027Y-166814961D02*
X125810265Y-166862580D01*
X125810265Y-166862580D02*
X126048360Y-166862580D01*
X126048360Y-166862580D02*
X126191217Y-166814961D01*
X126619789Y-165862580D02*
X126619789Y-166862580D01*
X126619789Y-166862580D02*
X126953122Y-166148295D01*
X126953122Y-166148295D02*
X127286455Y-166862580D01*
X127286455Y-166862580D02*
X127286455Y-165862580D01*
X127953122Y-166862580D02*
X128143598Y-166862580D01*
X128143598Y-166862580D02*
X128238836Y-166814961D01*
X128238836Y-166814961D02*
X128334074Y-166719723D01*
X128334074Y-166719723D02*
X128381693Y-166529247D01*
X128381693Y-166529247D02*
X128381693Y-166195914D01*
X128381693Y-166195914D02*
X128334074Y-166005438D01*
X128334074Y-166005438D02*
X128238836Y-165910200D01*
X128238836Y-165910200D02*
X128143598Y-165862580D01*
X128143598Y-165862580D02*
X127953122Y-165862580D01*
X127953122Y-165862580D02*
X127857884Y-165910200D01*
X127857884Y-165910200D02*
X127762646Y-166005438D01*
X127762646Y-166005438D02*
X127715027Y-166195914D01*
X127715027Y-166195914D02*
X127715027Y-166529247D01*
X127715027Y-166529247D02*
X127762646Y-166719723D01*
X127762646Y-166719723D02*
X127857884Y-166814961D01*
X127857884Y-166814961D02*
X127953122Y-166862580D01*
X129286455Y-165862580D02*
X128810265Y-165862580D01*
X128810265Y-165862580D02*
X128810265Y-166862580D01*
X130095979Y-165862580D02*
X129619789Y-165862580D01*
X129619789Y-165862580D02*
X129619789Y-166862580D01*
X130429313Y-166243533D02*
X131191218Y-166243533D01*
X131619789Y-166767342D02*
X131667408Y-166814961D01*
X131667408Y-166814961D02*
X131762646Y-166862580D01*
X131762646Y-166862580D02*
X132000741Y-166862580D01*
X132000741Y-166862580D02*
X132095979Y-166814961D01*
X132095979Y-166814961D02*
X132143598Y-166767342D01*
X132143598Y-166767342D02*
X132191217Y-166672104D01*
X132191217Y-166672104D02*
X132191217Y-166576866D01*
X132191217Y-166576866D02*
X132143598Y-166434009D01*
X132143598Y-166434009D02*
X131572170Y-165862580D01*
X131572170Y-165862580D02*
X132191217Y-165862580D01*
X132810265Y-166862580D02*
X132905503Y-166862580D01*
X132905503Y-166862580D02*
X133000741Y-166814961D01*
X133000741Y-166814961D02*
X133048360Y-166767342D01*
X133048360Y-166767342D02*
X133095979Y-166672104D01*
X133095979Y-166672104D02*
X133143598Y-166481628D01*
X133143598Y-166481628D02*
X133143598Y-166243533D01*
X133143598Y-166243533D02*
X133095979Y-166053057D01*
X133095979Y-166053057D02*
X133048360Y-165957819D01*
X133048360Y-165957819D02*
X133000741Y-165910200D01*
X133000741Y-165910200D02*
X132905503Y-165862580D01*
X132905503Y-165862580D02*
X132810265Y-165862580D01*
X132810265Y-165862580D02*
X132715027Y-165910200D01*
X132715027Y-165910200D02*
X132667408Y-165957819D01*
X132667408Y-165957819D02*
X132619789Y-166053057D01*
X132619789Y-166053057D02*
X132572170Y-166243533D01*
X132572170Y-166243533D02*
X132572170Y-166481628D01*
X132572170Y-166481628D02*
X132619789Y-166672104D01*
X132619789Y-166672104D02*
X132667408Y-166767342D01*
X132667408Y-166767342D02*
X132715027Y-166814961D01*
X132715027Y-166814961D02*
X132810265Y-166862580D01*
X133524551Y-166767342D02*
X133572170Y-166814961D01*
X133572170Y-166814961D02*
X133667408Y-166862580D01*
X133667408Y-166862580D02*
X133905503Y-166862580D01*
X133905503Y-166862580D02*
X134000741Y-166814961D01*
X134000741Y-166814961D02*
X134048360Y-166767342D01*
X134048360Y-166767342D02*
X134095979Y-166672104D01*
X134095979Y-166672104D02*
X134095979Y-166576866D01*
X134095979Y-166576866D02*
X134048360Y-166434009D01*
X134048360Y-166434009D02*
X133476932Y-165862580D01*
X133476932Y-165862580D02*
X134095979Y-165862580D01*
X135000741Y-166862580D02*
X134524551Y-166862580D01*
X134524551Y-166862580D02*
X134476932Y-166386390D01*
X134476932Y-166386390D02*
X134524551Y-166434009D01*
X134524551Y-166434009D02*
X134619789Y-166481628D01*
X134619789Y-166481628D02*
X134857884Y-166481628D01*
X134857884Y-166481628D02*
X134953122Y-166434009D01*
X134953122Y-166434009D02*
X135000741Y-166386390D01*
X135000741Y-166386390D02*
X135048360Y-166291152D01*
X135048360Y-166291152D02*
X135048360Y-166053057D01*
X135048360Y-166053057D02*
X135000741Y-165957819D01*
X135000741Y-165957819D02*
X134953122Y-165910200D01*
X134953122Y-165910200D02*
X134857884Y-165862580D01*
X134857884Y-165862580D02*
X134619789Y-165862580D01*
X134619789Y-165862580D02*
X134524551Y-165910200D01*
X134524551Y-165910200D02*
X134476932Y-165957819D01*
X135476932Y-166243533D02*
X136238837Y-166243533D01*
X136905503Y-166862580D02*
X137000741Y-166862580D01*
X137000741Y-166862580D02*
X137095979Y-166814961D01*
X137095979Y-166814961D02*
X137143598Y-166767342D01*
X137143598Y-166767342D02*
X137191217Y-166672104D01*
X137191217Y-166672104D02*
X137238836Y-166481628D01*
X137238836Y-166481628D02*
X137238836Y-166243533D01*
X137238836Y-166243533D02*
X137191217Y-166053057D01*
X137191217Y-166053057D02*
X137143598Y-165957819D01*
X137143598Y-165957819D02*
X137095979Y-165910200D01*
X137095979Y-165910200D02*
X137000741Y-165862580D01*
X137000741Y-165862580D02*
X136905503Y-165862580D01*
X136905503Y-165862580D02*
X136810265Y-165910200D01*
X136810265Y-165910200D02*
X136762646Y-165957819D01*
X136762646Y-165957819D02*
X136715027Y-166053057D01*
X136715027Y-166053057D02*
X136667408Y-166243533D01*
X136667408Y-166243533D02*
X136667408Y-166481628D01*
X136667408Y-166481628D02*
X136715027Y-166672104D01*
X136715027Y-166672104D02*
X136762646Y-166767342D01*
X136762646Y-166767342D02*
X136810265Y-166814961D01*
X136810265Y-166814961D02*
X136905503Y-166862580D01*
X138143598Y-166862580D02*
X137667408Y-166862580D01*
X137667408Y-166862580D02*
X137619789Y-166386390D01*
X137619789Y-166386390D02*
X137667408Y-166434009D01*
X137667408Y-166434009D02*
X137762646Y-166481628D01*
X137762646Y-166481628D02*
X138000741Y-166481628D01*
X138000741Y-166481628D02*
X138095979Y-166434009D01*
X138095979Y-166434009D02*
X138143598Y-166386390D01*
X138143598Y-166386390D02*
X138191217Y-166291152D01*
X138191217Y-166291152D02*
X138191217Y-166053057D01*
X138191217Y-166053057D02*
X138143598Y-165957819D01*
X138143598Y-165957819D02*
X138095979Y-165910200D01*
X138095979Y-165910200D02*
X138000741Y-165862580D01*
X138000741Y-165862580D02*
X137762646Y-165862580D01*
X137762646Y-165862580D02*
X137667408Y-165910200D01*
X137667408Y-165910200D02*
X137619789Y-165957819D01*
X138619789Y-166243533D02*
X139381694Y-166243533D01*
X139810265Y-166767342D02*
X139857884Y-166814961D01*
X139857884Y-166814961D02*
X139953122Y-166862580D01*
X139953122Y-166862580D02*
X140191217Y-166862580D01*
X140191217Y-166862580D02*
X140286455Y-166814961D01*
X140286455Y-166814961D02*
X140334074Y-166767342D01*
X140334074Y-166767342D02*
X140381693Y-166672104D01*
X140381693Y-166672104D02*
X140381693Y-166576866D01*
X140381693Y-166576866D02*
X140334074Y-166434009D01*
X140334074Y-166434009D02*
X139762646Y-165862580D01*
X139762646Y-165862580D02*
X140381693Y-165862580D01*
X140953122Y-166434009D02*
X140857884Y-166481628D01*
X140857884Y-166481628D02*
X140810265Y-166529247D01*
X140810265Y-166529247D02*
X140762646Y-166624485D01*
X140762646Y-166624485D02*
X140762646Y-166672104D01*
X140762646Y-166672104D02*
X140810265Y-166767342D01*
X140810265Y-166767342D02*
X140857884Y-166814961D01*
X140857884Y-166814961D02*
X140953122Y-166862580D01*
X140953122Y-166862580D02*
X141143598Y-166862580D01*
X141143598Y-166862580D02*
X141238836Y-166814961D01*
X141238836Y-166814961D02*
X141286455Y-166767342D01*
X141286455Y-166767342D02*
X141334074Y-166672104D01*
X141334074Y-166672104D02*
X141334074Y-166624485D01*
X141334074Y-166624485D02*
X141286455Y-166529247D01*
X141286455Y-166529247D02*
X141238836Y-166481628D01*
X141238836Y-166481628D02*
X141143598Y-166434009D01*
X141143598Y-166434009D02*
X140953122Y-166434009D01*
X140953122Y-166434009D02*
X140857884Y-166386390D01*
X140857884Y-166386390D02*
X140810265Y-166338771D01*
X140810265Y-166338771D02*
X140762646Y-166243533D01*
X140762646Y-166243533D02*
X140762646Y-166053057D01*
X140762646Y-166053057D02*
X140810265Y-165957819D01*
X140810265Y-165957819D02*
X140857884Y-165910200D01*
X140857884Y-165910200D02*
X140953122Y-165862580D01*
X140953122Y-165862580D02*
X141143598Y-165862580D01*
X141143598Y-165862580D02*
X141238836Y-165910200D01*
X141238836Y-165910200D02*
X141286455Y-165957819D01*
X141286455Y-165957819D02*
X141334074Y-166053057D01*
X141334074Y-166053057D02*
X141334074Y-166243533D01*
X141334074Y-166243533D02*
X141286455Y-166338771D01*
X141286455Y-166338771D02*
X141238836Y-166386390D01*
X141238836Y-166386390D02*
X141143598Y-166434009D01*
D11*
X116827609Y-163210476D02*
X116865704Y-163286666D01*
X116865704Y-163286666D02*
X116865704Y-163400952D01*
X116865704Y-163400952D02*
X116827609Y-163515238D01*
X116827609Y-163515238D02*
X116751419Y-163591428D01*
X116751419Y-163591428D02*
X116675228Y-163629523D01*
X116675228Y-163629523D02*
X116522847Y-163667619D01*
X116522847Y-163667619D02*
X116408561Y-163667619D01*
X116408561Y-163667619D02*
X116256180Y-163629523D01*
X116256180Y-163629523D02*
X116179990Y-163591428D01*
X116179990Y-163591428D02*
X116103800Y-163515238D01*
X116103800Y-163515238D02*
X116065704Y-163400952D01*
X116065704Y-163400952D02*
X116065704Y-163324761D01*
X116065704Y-163324761D02*
X116103800Y-163210476D01*
X116103800Y-163210476D02*
X116141895Y-163172380D01*
X116141895Y-163172380D02*
X116408561Y-163172380D01*
X116408561Y-163172380D02*
X116408561Y-163324761D01*
X116065704Y-162829523D02*
X116865704Y-162829523D01*
X116865704Y-162829523D02*
X116865704Y-162639047D01*
X116865704Y-162639047D02*
X116827609Y-162524761D01*
X116827609Y-162524761D02*
X116751419Y-162448571D01*
X116751419Y-162448571D02*
X116675228Y-162410476D01*
X116675228Y-162410476D02*
X116522847Y-162372380D01*
X116522847Y-162372380D02*
X116408561Y-162372380D01*
X116408561Y-162372380D02*
X116256180Y-162410476D01*
X116256180Y-162410476D02*
X116179990Y-162448571D01*
X116179990Y-162448571D02*
X116103800Y-162524761D01*
X116103800Y-162524761D02*
X116065704Y-162639047D01*
X116065704Y-162639047D02*
X116065704Y-162829523D01*
X110984752Y-160729523D02*
X110984752Y-160996189D01*
X110565704Y-160996189D02*
X111365704Y-160996189D01*
X111365704Y-160996189D02*
X111365704Y-160615237D01*
X110565704Y-159929523D02*
X110565704Y-160310475D01*
X110565704Y-160310475D02*
X111365704Y-160310475D01*
X116484752Y-158410475D02*
X116484752Y-158143809D01*
X116065704Y-158029523D02*
X116065704Y-158410475D01*
X116065704Y-158410475D02*
X116865704Y-158410475D01*
X116865704Y-158410475D02*
X116865704Y-158029523D01*
X116065704Y-157686665D02*
X116865704Y-157686665D01*
X116865704Y-157686665D02*
X116065704Y-157229522D01*
X116065704Y-157229522D02*
X116865704Y-157229522D01*
X111365704Y-158507030D02*
X111365704Y-158011792D01*
X111365704Y-158011792D02*
X111060942Y-158278458D01*
X111060942Y-158278458D02*
X111060942Y-158164173D01*
X111060942Y-158164173D02*
X111022847Y-158087982D01*
X111022847Y-158087982D02*
X110984752Y-158049887D01*
X110984752Y-158049887D02*
X110908561Y-158011792D01*
X110908561Y-158011792D02*
X110718085Y-158011792D01*
X110718085Y-158011792D02*
X110641895Y-158049887D01*
X110641895Y-158049887D02*
X110603800Y-158087982D01*
X110603800Y-158087982D02*
X110565704Y-158164173D01*
X110565704Y-158164173D02*
X110565704Y-158392744D01*
X110565704Y-158392744D02*
X110603800Y-158468935D01*
X110603800Y-158468935D02*
X110641895Y-158507030D01*
X111365704Y-157783220D02*
X110565704Y-157516553D01*
X110565704Y-157516553D02*
X111365704Y-157249887D01*
X116065704Y-160553332D02*
X116446657Y-160819999D01*
X116065704Y-161010475D02*
X116865704Y-161010475D01*
X116865704Y-161010475D02*
X116865704Y-160705713D01*
X116865704Y-160705713D02*
X116827609Y-160629523D01*
X116827609Y-160629523D02*
X116789514Y-160591428D01*
X116789514Y-160591428D02*
X116713323Y-160553332D01*
X116713323Y-160553332D02*
X116599038Y-160553332D01*
X116599038Y-160553332D02*
X116522847Y-160591428D01*
X116522847Y-160591428D02*
X116484752Y-160629523D01*
X116484752Y-160629523D02*
X116446657Y-160705713D01*
X116446657Y-160705713D02*
X116446657Y-161010475D01*
X116865704Y-160286666D02*
X116065704Y-159753332D01*
X116865704Y-159753332D02*
X116065704Y-160286666D01*
X111465704Y-163629523D02*
X111465704Y-163172380D01*
X110665704Y-163400952D02*
X111465704Y-163400952D01*
X111465704Y-162981904D02*
X110665704Y-162448570D01*
X111465704Y-162448570D02*
X110665704Y-162981904D01*
X112825450Y-137938000D02*
X112861164Y-138045143D01*
X112861164Y-138045143D02*
X112861164Y-138223714D01*
X112861164Y-138223714D02*
X112825450Y-138295143D01*
X112825450Y-138295143D02*
X112789735Y-138330857D01*
X112789735Y-138330857D02*
X112718307Y-138366571D01*
X112718307Y-138366571D02*
X112646878Y-138366571D01*
X112646878Y-138366571D02*
X112575450Y-138330857D01*
X112575450Y-138330857D02*
X112539735Y-138295143D01*
X112539735Y-138295143D02*
X112504021Y-138223714D01*
X112504021Y-138223714D02*
X112468307Y-138080857D01*
X112468307Y-138080857D02*
X112432592Y-138009428D01*
X112432592Y-138009428D02*
X112396878Y-137973714D01*
X112396878Y-137973714D02*
X112325450Y-137938000D01*
X112325450Y-137938000D02*
X112254021Y-137938000D01*
X112254021Y-137938000D02*
X112182592Y-137973714D01*
X112182592Y-137973714D02*
X112146878Y-138009428D01*
X112146878Y-138009428D02*
X112111164Y-138080857D01*
X112111164Y-138080857D02*
X112111164Y-138259428D01*
X112111164Y-138259428D02*
X112146878Y-138366571D01*
X112111164Y-138616571D02*
X112861164Y-138795143D01*
X112861164Y-138795143D02*
X112325450Y-138938000D01*
X112325450Y-138938000D02*
X112861164Y-139080857D01*
X112861164Y-139080857D02*
X112111164Y-139259429D01*
X112111164Y-139473714D02*
X112111164Y-139938000D01*
X112111164Y-139938000D02*
X112396878Y-139688000D01*
X112396878Y-139688000D02*
X112396878Y-139795143D01*
X112396878Y-139795143D02*
X112432592Y-139866572D01*
X112432592Y-139866572D02*
X112468307Y-139902286D01*
X112468307Y-139902286D02*
X112539735Y-139938000D01*
X112539735Y-139938000D02*
X112718307Y-139938000D01*
X112718307Y-139938000D02*
X112789735Y-139902286D01*
X112789735Y-139902286D02*
X112825450Y-139866572D01*
X112825450Y-139866572D02*
X112861164Y-139795143D01*
X112861164Y-139795143D02*
X112861164Y-139580857D01*
X112861164Y-139580857D02*
X112825450Y-139509429D01*
X112825450Y-139509429D02*
X112789735Y-139473714D01*
D12*
%TO.C,U5*%
X130289796Y-168236205D02*
X130354162Y-168278396D01*
X130396533Y-168394047D01*
X130425569Y-168615101D01*
X130449933Y-168973500D01*
X130462879Y-169261335D01*
X130459091Y-169576652D01*
X130421684Y-169759514D01*
X130344910Y-169831177D01*
X130223025Y-169812900D01*
X130220595Y-169811942D01*
X130155993Y-169752712D01*
X130116132Y-169617994D01*
X130095937Y-169376595D01*
X130090334Y-168997324D01*
X130091642Y-168733802D01*
X130101445Y-168466744D01*
X130126536Y-168315451D01*
X130173532Y-168248051D01*
X130249049Y-168232667D01*
X130289796Y-168236205D01*
G36*
X130289796Y-168236205D02*
G01*
X130354162Y-168278396D01*
X130396533Y-168394047D01*
X130425569Y-168615101D01*
X130449933Y-168973500D01*
X130462879Y-169261335D01*
X130459091Y-169576652D01*
X130421684Y-169759514D01*
X130344910Y-169831177D01*
X130223025Y-169812900D01*
X130220595Y-169811942D01*
X130155993Y-169752712D01*
X130116132Y-169617994D01*
X130095937Y-169376595D01*
X130090334Y-168997324D01*
X130091642Y-168733802D01*
X130101445Y-168466744D01*
X130126536Y-168315451D01*
X130173532Y-168248051D01*
X130249049Y-168232667D01*
X130289796Y-168236205D01*
G37*
X139488334Y-170611007D02*
X139170834Y-170553605D01*
X139001234Y-170519975D01*
X138843295Y-170474412D01*
X138844242Y-170444653D01*
X139008556Y-170434000D01*
X139234334Y-170434000D01*
X139234334Y-168994667D01*
X139233733Y-168536373D01*
X139229911Y-168138076D01*
X139220078Y-167865227D01*
X139201453Y-167694176D01*
X139171253Y-167601276D01*
X139126696Y-167562878D01*
X139065000Y-167555333D01*
X138966579Y-167539457D01*
X138895667Y-167470667D01*
X138898226Y-167459555D01*
X138996133Y-167407266D01*
X139192000Y-167386000D01*
X139488334Y-167386000D01*
X139488334Y-170611007D01*
G36*
X139488334Y-170611007D02*
G01*
X139170834Y-170553605D01*
X139001234Y-170519975D01*
X138843295Y-170474412D01*
X138844242Y-170444653D01*
X139008556Y-170434000D01*
X139234334Y-170434000D01*
X139234334Y-168994667D01*
X139233733Y-168536373D01*
X139229911Y-168138076D01*
X139220078Y-167865227D01*
X139201453Y-167694176D01*
X139171253Y-167601276D01*
X139126696Y-167562878D01*
X139065000Y-167555333D01*
X138966579Y-167539457D01*
X138895667Y-167470667D01*
X138898226Y-167459555D01*
X138996133Y-167407266D01*
X139192000Y-167386000D01*
X139488334Y-167386000D01*
X139488334Y-170611007D01*
G37*
X116475608Y-167392508D02*
X116641636Y-167423221D01*
X116713000Y-167470667D01*
X116681247Y-167519877D01*
X116543667Y-167555333D01*
X116489750Y-167560441D01*
X116442891Y-167592927D01*
X116410792Y-167676502D01*
X116390668Y-167834816D01*
X116379738Y-168091515D01*
X116375221Y-168470250D01*
X116374334Y-168994667D01*
X116374934Y-169452961D01*
X116378756Y-169851257D01*
X116388589Y-170124107D01*
X116407214Y-170295158D01*
X116437414Y-170388058D01*
X116481971Y-170426456D01*
X116543667Y-170434000D01*
X116642136Y-170450854D01*
X116713000Y-170523778D01*
X116711032Y-170534478D01*
X116615148Y-170582737D01*
X116412042Y-170587278D01*
X116111083Y-170561000D01*
X116113643Y-169015833D01*
X116114516Y-168546004D01*
X116115521Y-168108877D01*
X116116535Y-167758549D01*
X116117477Y-167522530D01*
X116118268Y-167428333D01*
X116147964Y-167401810D01*
X116287018Y-167383660D01*
X116475608Y-167392508D01*
G36*
X116475608Y-167392508D02*
G01*
X116641636Y-167423221D01*
X116713000Y-167470667D01*
X116681247Y-167519877D01*
X116543667Y-167555333D01*
X116489750Y-167560441D01*
X116442891Y-167592927D01*
X116410792Y-167676502D01*
X116390668Y-167834816D01*
X116379738Y-168091515D01*
X116375221Y-168470250D01*
X116374334Y-168994667D01*
X116374934Y-169452961D01*
X116378756Y-169851257D01*
X116388589Y-170124107D01*
X116407214Y-170295158D01*
X116437414Y-170388058D01*
X116481971Y-170426456D01*
X116543667Y-170434000D01*
X116642136Y-170450854D01*
X116713000Y-170523778D01*
X116711032Y-170534478D01*
X116615148Y-170582737D01*
X116412042Y-170587278D01*
X116111083Y-170561000D01*
X116113643Y-169015833D01*
X116114516Y-168546004D01*
X116115521Y-168108877D01*
X116116535Y-167758549D01*
X116117477Y-167522530D01*
X116118268Y-167428333D01*
X116147964Y-167401810D01*
X116287018Y-167383660D01*
X116475608Y-167392508D01*
G37*
X123959538Y-168238923D02*
X124007365Y-168306009D01*
X124061447Y-168536368D01*
X124079000Y-168920367D01*
X124061027Y-169311606D01*
X123986624Y-169587824D01*
X123830047Y-169746760D01*
X123565602Y-169813593D01*
X123167594Y-169813503D01*
X122597334Y-169783193D01*
X122572990Y-169007930D01*
X122564130Y-168660767D01*
X122567871Y-168425368D01*
X122591203Y-168296932D01*
X122640255Y-168243388D01*
X122721156Y-168232667D01*
X122810368Y-168246878D01*
X122864635Y-168316994D01*
X122888407Y-168480809D01*
X122893667Y-168776075D01*
X122896069Y-169002408D01*
X122917878Y-169302978D01*
X122972719Y-169480805D01*
X123072974Y-169565664D01*
X123231025Y-169587333D01*
X123382165Y-169569419D01*
X123564347Y-169452198D01*
X123668412Y-169210486D01*
X123705356Y-168826648D01*
X123713730Y-168624431D01*
X123740025Y-168380035D01*
X123776394Y-168242817D01*
X123842524Y-168183710D01*
X123959538Y-168238923D01*
G36*
X123959538Y-168238923D02*
G01*
X124007365Y-168306009D01*
X124061447Y-168536368D01*
X124079000Y-168920367D01*
X124061027Y-169311606D01*
X123986624Y-169587824D01*
X123830047Y-169746760D01*
X123565602Y-169813593D01*
X123167594Y-169813503D01*
X122597334Y-169783193D01*
X122572990Y-169007930D01*
X122564130Y-168660767D01*
X122567871Y-168425368D01*
X122591203Y-168296932D01*
X122640255Y-168243388D01*
X122721156Y-168232667D01*
X122810368Y-168246878D01*
X122864635Y-168316994D01*
X122888407Y-168480809D01*
X122893667Y-168776075D01*
X122896069Y-169002408D01*
X122917878Y-169302978D01*
X122972719Y-169480805D01*
X123072974Y-169565664D01*
X123231025Y-169587333D01*
X123382165Y-169569419D01*
X123564347Y-169452198D01*
X123668412Y-169210486D01*
X123705356Y-168826648D01*
X123713730Y-168624431D01*
X123740025Y-168380035D01*
X123776394Y-168242817D01*
X123842524Y-168183710D01*
X123959538Y-168238923D01*
G37*
X119374790Y-168185251D02*
X119483862Y-168288982D01*
X119467304Y-168360694D01*
X119342327Y-168442854D01*
X119232798Y-168504444D01*
X119167426Y-168648163D01*
X119211949Y-168809219D01*
X119347999Y-168940444D01*
X119557208Y-168994667D01*
X119709444Y-168953800D01*
X119813279Y-168791422D01*
X119845667Y-168488801D01*
X119879814Y-168314984D01*
X120015593Y-168188315D01*
X120226667Y-168202049D01*
X120321236Y-168255252D01*
X120337986Y-168357924D01*
X120229360Y-168533985D01*
X120193932Y-168597262D01*
X120128877Y-168832962D01*
X120102360Y-169129711D01*
X120092641Y-169305970D01*
X120002754Y-169620196D01*
X119819131Y-169793881D01*
X119542184Y-169826513D01*
X119374322Y-169782155D01*
X119277107Y-169699842D01*
X119301317Y-169621941D01*
X119460269Y-169587333D01*
X119554204Y-169575801D01*
X119701888Y-169489861D01*
X119749560Y-169361364D01*
X119667504Y-169240100D01*
X119648735Y-169229060D01*
X119471357Y-169153223D01*
X119233273Y-169076436D01*
X118950661Y-168950992D01*
X118786659Y-168763827D01*
X118773223Y-168543411D01*
X118919540Y-168312127D01*
X118989825Y-168254500D01*
X119189086Y-168174620D01*
X119374790Y-168185251D01*
G36*
X119374790Y-168185251D02*
G01*
X119483862Y-168288982D01*
X119467304Y-168360694D01*
X119342327Y-168442854D01*
X119232798Y-168504444D01*
X119167426Y-168648163D01*
X119211949Y-168809219D01*
X119347999Y-168940444D01*
X119557208Y-168994667D01*
X119709444Y-168953800D01*
X119813279Y-168791422D01*
X119845667Y-168488801D01*
X119879814Y-168314984D01*
X120015593Y-168188315D01*
X120226667Y-168202049D01*
X120321236Y-168255252D01*
X120337986Y-168357924D01*
X120229360Y-168533985D01*
X120193932Y-168597262D01*
X120128877Y-168832962D01*
X120102360Y-169129711D01*
X120092641Y-169305970D01*
X120002754Y-169620196D01*
X119819131Y-169793881D01*
X119542184Y-169826513D01*
X119374322Y-169782155D01*
X119277107Y-169699842D01*
X119301317Y-169621941D01*
X119460269Y-169587333D01*
X119554204Y-169575801D01*
X119701888Y-169489861D01*
X119749560Y-169361364D01*
X119667504Y-169240100D01*
X119648735Y-169229060D01*
X119471357Y-169153223D01*
X119233273Y-169076436D01*
X118950661Y-168950992D01*
X118786659Y-168763827D01*
X118773223Y-168543411D01*
X118919540Y-168312127D01*
X118989825Y-168254500D01*
X119189086Y-168174620D01*
X119374790Y-168185251D01*
G37*
X126584230Y-167568089D02*
X126786382Y-167642272D01*
X126953393Y-167762451D01*
X126986994Y-167803769D01*
X127111462Y-168001256D01*
X127269293Y-168291565D01*
X127441348Y-168634485D01*
X127608486Y-168989805D01*
X127751567Y-169317315D01*
X127851452Y-169576803D01*
X127889000Y-169728059D01*
X127887777Y-169757370D01*
X127838684Y-169851401D01*
X127743188Y-169826611D01*
X127636166Y-169705529D01*
X127552492Y-169510682D01*
X127497901Y-169352249D01*
X127385858Y-169129212D01*
X127260043Y-168949297D01*
X127147965Y-168849712D01*
X127077131Y-168867667D01*
X127064460Y-168894954D01*
X126888597Y-169235884D01*
X126707908Y-169528322D01*
X126546505Y-169736667D01*
X126428500Y-169825318D01*
X126406054Y-169829035D01*
X126318945Y-169817405D01*
X126293923Y-169737308D01*
X126335442Y-169568536D01*
X126447956Y-169290882D01*
X126635916Y-168884138D01*
X126702931Y-168741134D01*
X126853995Y-168382567D01*
X126916211Y-168134700D01*
X126887453Y-167970937D01*
X126765600Y-167864677D01*
X126548528Y-167789321D01*
X126530321Y-167784415D01*
X126353164Y-167712654D01*
X126280334Y-167637579D01*
X126291511Y-167597974D01*
X126401189Y-167549968D01*
X126584230Y-167568089D01*
G36*
X126584230Y-167568089D02*
G01*
X126786382Y-167642272D01*
X126953393Y-167762451D01*
X126986994Y-167803769D01*
X127111462Y-168001256D01*
X127269293Y-168291565D01*
X127441348Y-168634485D01*
X127608486Y-168989805D01*
X127751567Y-169317315D01*
X127851452Y-169576803D01*
X127889000Y-169728059D01*
X127887777Y-169757370D01*
X127838684Y-169851401D01*
X127743188Y-169826611D01*
X127636166Y-169705529D01*
X127552492Y-169510682D01*
X127497901Y-169352249D01*
X127385858Y-169129212D01*
X127260043Y-168949297D01*
X127147965Y-168849712D01*
X127077131Y-168867667D01*
X127064460Y-168894954D01*
X126888597Y-169235884D01*
X126707908Y-169528322D01*
X126546505Y-169736667D01*
X126428500Y-169825318D01*
X126406054Y-169829035D01*
X126318945Y-169817405D01*
X126293923Y-169737308D01*
X126335442Y-169568536D01*
X126447956Y-169290882D01*
X126635916Y-168884138D01*
X126702931Y-168741134D01*
X126853995Y-168382567D01*
X126916211Y-168134700D01*
X126887453Y-167970937D01*
X126765600Y-167864677D01*
X126548528Y-167789321D01*
X126530321Y-167784415D01*
X126353164Y-167712654D01*
X126280334Y-167637579D01*
X126291511Y-167597974D01*
X126401189Y-167549968D01*
X126584230Y-167568089D01*
G37*
X135637462Y-168235032D02*
X135637796Y-168235581D01*
X135617297Y-168344502D01*
X135494292Y-168483728D01*
X135430301Y-168539694D01*
X135349082Y-168665400D01*
X135390647Y-168798862D01*
X135437708Y-168858163D01*
X135612716Y-168961044D01*
X135805173Y-168977997D01*
X135942629Y-168896241D01*
X135988470Y-168773537D01*
X136015704Y-168560534D01*
X136067237Y-168337847D01*
X136203416Y-168201446D01*
X136387269Y-168197931D01*
X136491464Y-168255768D01*
X136509072Y-168358586D01*
X136400693Y-168533985D01*
X136365265Y-168597262D01*
X136300210Y-168832962D01*
X136273693Y-169129711D01*
X136263975Y-169305970D01*
X136174088Y-169620196D01*
X135990464Y-169793881D01*
X135713517Y-169826513D01*
X135572303Y-169794987D01*
X135458207Y-169714481D01*
X135481879Y-169628055D01*
X135652147Y-169572275D01*
X135832724Y-169514751D01*
X135890000Y-169379390D01*
X135874260Y-169303338D01*
X135760256Y-169197654D01*
X135509000Y-169104102D01*
X135456615Y-169088294D01*
X135129406Y-168939684D01*
X134954816Y-168754786D01*
X134938389Y-168543903D01*
X135085667Y-168317333D01*
X135100125Y-168303363D01*
X135301390Y-168179438D01*
X135500704Y-168153648D01*
X135637462Y-168235032D01*
G36*
X135637462Y-168235032D02*
G01*
X135637796Y-168235581D01*
X135617297Y-168344502D01*
X135494292Y-168483728D01*
X135430301Y-168539694D01*
X135349082Y-168665400D01*
X135390647Y-168798862D01*
X135437708Y-168858163D01*
X135612716Y-168961044D01*
X135805173Y-168977997D01*
X135942629Y-168896241D01*
X135988470Y-168773537D01*
X136015704Y-168560534D01*
X136067237Y-168337847D01*
X136203416Y-168201446D01*
X136387269Y-168197931D01*
X136491464Y-168255768D01*
X136509072Y-168358586D01*
X136400693Y-168533985D01*
X136365265Y-168597262D01*
X136300210Y-168832962D01*
X136273693Y-169129711D01*
X136263975Y-169305970D01*
X136174088Y-169620196D01*
X135990464Y-169793881D01*
X135713517Y-169826513D01*
X135572303Y-169794987D01*
X135458207Y-169714481D01*
X135481879Y-169628055D01*
X135652147Y-169572275D01*
X135832724Y-169514751D01*
X135890000Y-169379390D01*
X135874260Y-169303338D01*
X135760256Y-169197654D01*
X135509000Y-169104102D01*
X135456615Y-169088294D01*
X135129406Y-168939684D01*
X134954816Y-168754786D01*
X134938389Y-168543903D01*
X135085667Y-168317333D01*
X135100125Y-168303363D01*
X135301390Y-168179438D01*
X135500704Y-168153648D01*
X135637462Y-168235032D01*
G37*
X132549751Y-168232681D02*
X132638368Y-168250573D01*
X132688023Y-168327245D01*
X132709543Y-168499506D01*
X132713752Y-168804167D01*
X132712499Y-168915355D01*
X132678822Y-169327614D01*
X132591296Y-169602278D01*
X132439139Y-169761297D01*
X132211571Y-169826625D01*
X132211012Y-169826678D01*
X131953177Y-169816782D01*
X131737251Y-169754482D01*
X131581266Y-169699744D01*
X131376483Y-169748024D01*
X131337662Y-169766207D01*
X131144072Y-169818535D01*
X130929177Y-169839694D01*
X130754994Y-169827016D01*
X130683535Y-169777833D01*
X130684862Y-169770745D01*
X130767054Y-169683615D01*
X130937535Y-169570105D01*
X130955150Y-169560020D01*
X131086082Y-169470523D01*
X131156702Y-169361605D01*
X131185509Y-169183319D01*
X131191000Y-168885716D01*
X131197758Y-168623462D01*
X131218161Y-168397305D01*
X131247445Y-168289111D01*
X131334023Y-168236608D01*
X131477204Y-168266757D01*
X131569606Y-168423167D01*
X131586619Y-168523096D01*
X131614427Y-168779349D01*
X131634719Y-169079333D01*
X131648247Y-169295863D01*
X131680935Y-169465082D01*
X131750540Y-169542093D01*
X131878856Y-169570763D01*
X132090813Y-169557784D01*
X132255598Y-169433347D01*
X132347690Y-169177986D01*
X132376334Y-168776953D01*
X132380669Y-168501474D01*
X132402525Y-168327072D01*
X132453626Y-168250002D01*
X132545667Y-168232667D01*
X132549751Y-168232681D01*
G36*
X132549751Y-168232681D02*
G01*
X132638368Y-168250573D01*
X132688023Y-168327245D01*
X132709543Y-168499506D01*
X132713752Y-168804167D01*
X132712499Y-168915355D01*
X132678822Y-169327614D01*
X132591296Y-169602278D01*
X132439139Y-169761297D01*
X132211571Y-169826625D01*
X132211012Y-169826678D01*
X131953177Y-169816782D01*
X131737251Y-169754482D01*
X131581266Y-169699744D01*
X131376483Y-169748024D01*
X131337662Y-169766207D01*
X131144072Y-169818535D01*
X130929177Y-169839694D01*
X130754994Y-169827016D01*
X130683535Y-169777833D01*
X130684862Y-169770745D01*
X130767054Y-169683615D01*
X130937535Y-169570105D01*
X130955150Y-169560020D01*
X131086082Y-169470523D01*
X131156702Y-169361605D01*
X131185509Y-169183319D01*
X131191000Y-168885716D01*
X131197758Y-168623462D01*
X131218161Y-168397305D01*
X131247445Y-168289111D01*
X131334023Y-168236608D01*
X131477204Y-168266757D01*
X131569606Y-168423167D01*
X131586619Y-168523096D01*
X131614427Y-168779349D01*
X131634719Y-169079333D01*
X131648247Y-169295863D01*
X131680935Y-169465082D01*
X131750540Y-169542093D01*
X131878856Y-169570763D01*
X132090813Y-169557784D01*
X132255598Y-169433347D01*
X132347690Y-169177986D01*
X132376334Y-168776953D01*
X132380669Y-168501474D01*
X132402525Y-168327072D01*
X132453626Y-168250002D01*
X132545667Y-168232667D01*
X132549751Y-168232681D01*
G37*
D13*
%TO.C,JP1*%
X112949000Y-151762000D02*
X112349000Y-151762000D01*
X111649000Y-152462000D02*
X111649000Y-153862000D01*
X113649000Y-153862000D02*
X113649000Y-152462000D01*
X112349000Y-154562000D02*
X112949000Y-154562000D01*
X112949000Y-151762000D02*
G75*
G02*
X113649000Y-152462000I1J-699999D01*
G01*
X111649000Y-152462000D02*
G75*
G02*
X112349000Y-151762000I699999J1D01*
G01*
X113649000Y-153862000D02*
G75*
G02*
X112949000Y-154562000I-700000J0D01*
G01*
X112349000Y-154562000D02*
G75*
G02*
X111649000Y-153862000I0J700000D01*
G01*
%TO.C,J1*%
X114595000Y-148025000D02*
X114595000Y-149295000D01*
X114595000Y-149295000D02*
X115865000Y-149295000D01*
X116942358Y-145055000D02*
X117255000Y-145055000D01*
X116942358Y-145915000D02*
X117255000Y-145915000D01*
X117025000Y-147595000D02*
X117255000Y-147595000D01*
X117025000Y-148455000D02*
X117255000Y-148455000D01*
X117255000Y-144105000D02*
X120015000Y-144105000D01*
X117255000Y-146755000D02*
X120015000Y-146755000D01*
X117255000Y-149405000D02*
X117255000Y-144105000D01*
X120015000Y-144105000D02*
X120015000Y-149405000D01*
X120015000Y-145915000D02*
X126015000Y-145915000D01*
X120015000Y-149405000D02*
X117255000Y-149405000D01*
X126015000Y-145055000D02*
X120015000Y-145055000D01*
X126015000Y-145915000D02*
X126015000Y-145055000D01*
X120015000Y-148455000D02*
X126015000Y-148455000D01*
X126015000Y-147595000D01*
X120015000Y-147595000D01*
X120015000Y-148455000D01*
G36*
X120015000Y-148455000D02*
G01*
X126015000Y-148455000D01*
X126015000Y-147595000D01*
X120015000Y-147595000D01*
X120015000Y-148455000D01*
G37*
%TO.C,SW3*%
X113610000Y-150650000D02*
X110890000Y-150650000D01*
X110890000Y-140430000D01*
X113610000Y-140430000D01*
X113610000Y-150650000D01*
%TO.C,J2*%
X136170000Y-142250000D02*
X136170000Y-162830000D01*
X136170000Y-162830000D02*
X145290000Y-162830000D01*
X137480000Y-143550000D02*
X137480000Y-161530000D01*
X137480000Y-161530000D02*
X143980000Y-161530000D01*
X143980000Y-143550000D02*
X137480000Y-143550000D01*
X143980000Y-150490000D02*
X143980000Y-143550000D01*
X143980000Y-154590000D02*
X143980000Y-154590000D01*
X143980000Y-154590000D02*
X145290000Y-154590000D01*
X143980000Y-161530000D02*
X143980000Y-154590000D01*
X145290000Y-142250000D02*
X136170000Y-142250000D01*
X145290000Y-150490000D02*
X143980000Y-150490000D01*
X145290000Y-162830000D02*
X145290000Y-142250000D01*
X145680000Y-147460000D02*
X146680000Y-146960000D01*
X146680000Y-146960000D02*
X146680000Y-147960000D01*
X146680000Y-147960000D02*
X145680000Y-147460000D01*
%TD*%
M02*
