%TF.GenerationSoftware,KiCad,Pcbnew,9.0.1*%
%TF.CreationDate,2025-05-28T08:33:00+02:00*%
%TF.ProjectId,tv25-cpu-small,74763235-2d63-4707-952d-736d616c6c2e,rev?*%
%TF.SameCoordinates,Original*%
%TF.FileFunction,Copper,L1,Top*%
%TF.FilePolarity,Positive*%
%FSLAX46Y46*%
G04 Gerber Fmt 4.6, Leading zero omitted, Abs format (unit mm)*
G04 Created by KiCad (PCBNEW 9.0.1) date 2025-05-28 08:33:00*
%MOMM*%
%LPD*%
G01*
G04 APERTURE LIST*
G04 Aperture macros list*
%AMRoundRect*
0 Rectangle with rounded corners*
0 $1 Rounding radius*
0 $2 $3 $4 $5 $6 $7 $8 $9 X,Y pos of 4 corners*
0 Add a 4 corners polygon primitive as box body*
4,1,4,$2,$3,$4,$5,$6,$7,$8,$9,$2,$3,0*
0 Add four circle primitives for the rounded corners*
1,1,$1+$1,$2,$3*
1,1,$1+$1,$4,$5*
1,1,$1+$1,$6,$7*
1,1,$1+$1,$8,$9*
0 Add four rect primitives between the rounded corners*
20,1,$1+$1,$2,$3,$4,$5,0*
20,1,$1+$1,$4,$5,$6,$7,0*
20,1,$1+$1,$6,$7,$8,$9,0*
20,1,$1+$1,$8,$9,$2,$3,0*%
%AMFreePoly0*
4,1,6,0.725000,-0.725000,-0.725000,-0.725000,-0.725000,0.125000,-0.125000,0.725000,0.725000,0.725000,0.725000,-0.725000,0.725000,-0.725000,$1*%
G04 Aperture macros list end*
%TA.AperFunction,ComponentPad*%
%ADD10C,2.000000*%
%TD*%
%TA.AperFunction,SMDPad,CuDef*%
%ADD11RoundRect,0.150000X-0.512500X-0.150000X0.512500X-0.150000X0.512500X0.150000X-0.512500X0.150000X0*%
%TD*%
%TA.AperFunction,SMDPad,CuDef*%
%ADD12RoundRect,0.250000X-0.337500X-0.475000X0.337500X-0.475000X0.337500X0.475000X-0.337500X0.475000X0*%
%TD*%
%TA.AperFunction,SMDPad,CuDef*%
%ADD13RoundRect,0.200000X-0.200000X-0.275000X0.200000X-0.275000X0.200000X0.275000X-0.200000X0.275000X0*%
%TD*%
%TA.AperFunction,ComponentPad*%
%ADD14C,1.700000*%
%TD*%
%TA.AperFunction,SMDPad,CuDef*%
%ADD15RoundRect,0.250000X-0.250000X-0.475000X0.250000X-0.475000X0.250000X0.475000X-0.250000X0.475000X0*%
%TD*%
%TA.AperFunction,SMDPad,CuDef*%
%ADD16RoundRect,0.200000X0.200000X0.275000X-0.200000X0.275000X-0.200000X-0.275000X0.200000X-0.275000X0*%
%TD*%
%TA.AperFunction,SMDPad,CuDef*%
%ADD17RoundRect,0.225000X0.250000X-0.225000X0.250000X0.225000X-0.250000X0.225000X-0.250000X-0.225000X0*%
%TD*%
%TA.AperFunction,SMDPad,CuDef*%
%ADD18RoundRect,0.250000X0.250000X0.475000X-0.250000X0.475000X-0.250000X-0.475000X0.250000X-0.475000X0*%
%TD*%
%TA.AperFunction,SMDPad,CuDef*%
%ADD19R,0.800000X0.400000*%
%TD*%
%TA.AperFunction,SMDPad,CuDef*%
%ADD20R,0.400000X0.800000*%
%TD*%
%TA.AperFunction,SMDPad,CuDef*%
%ADD21FreePoly0,180.000000*%
%TD*%
%TA.AperFunction,SMDPad,CuDef*%
%ADD22R,1.450000X1.450000*%
%TD*%
%TA.AperFunction,SMDPad,CuDef*%
%ADD23R,0.700000X0.700000*%
%TD*%
%TA.AperFunction,SMDPad,CuDef*%
%ADD24RoundRect,0.200000X0.275000X-0.200000X0.275000X0.200000X-0.275000X0.200000X-0.275000X-0.200000X0*%
%TD*%
%TA.AperFunction,SMDPad,CuDef*%
%ADD25R,0.900000X1.000000*%
%TD*%
%TA.AperFunction,SMDPad,CuDef*%
%ADD26RoundRect,0.243750X-0.243750X-0.456250X0.243750X-0.456250X0.243750X0.456250X-0.243750X0.456250X0*%
%TD*%
%TA.AperFunction,SMDPad,CuDef*%
%ADD27R,0.520000X1.000000*%
%TD*%
%TA.AperFunction,SMDPad,CuDef*%
%ADD28R,0.270000X1.000000*%
%TD*%
%TA.AperFunction,SMDPad,CuDef*%
%ADD29R,1.000000X2.000000*%
%TD*%
%TA.AperFunction,ComponentPad*%
%ADD30O,1.200000X2.200000*%
%TD*%
%TA.AperFunction,ComponentPad*%
%ADD31O,1.800000X3.000000*%
%TD*%
%TA.AperFunction,SMDPad,CuDef*%
%ADD32R,1.000000X1.800000*%
%TD*%
%TA.AperFunction,SMDPad,CuDef*%
%ADD33RoundRect,0.062500X-0.325000X-0.062500X0.325000X-0.062500X0.325000X0.062500X-0.325000X0.062500X0*%
%TD*%
%TA.AperFunction,HeatsinkPad*%
%ADD34R,0.800000X1.200000*%
%TD*%
%TA.AperFunction,SMDPad,CuDef*%
%ADD35RoundRect,0.250000X0.650000X0.250000X-0.650000X0.250000X-0.650000X-0.250000X0.650000X-0.250000X0*%
%TD*%
%TA.AperFunction,ComponentPad*%
%ADD36R,1.700000X4.300000*%
%TD*%
%TA.AperFunction,ComponentPad*%
%ADD37O,1.660000X4.300000*%
%TD*%
%TA.AperFunction,ComponentPad*%
%ADD38O,1.620000X4.300000*%
%TD*%
%TA.AperFunction,ComponentPad*%
%ADD39R,1.700000X1.700000*%
%TD*%
%TA.AperFunction,ComponentPad*%
%ADD40R,1.500000X1.500000*%
%TD*%
%TA.AperFunction,ComponentPad*%
%ADD41C,1.600000*%
%TD*%
%TA.AperFunction,ComponentPad*%
%ADD42RoundRect,0.250000X0.600000X0.600000X-0.600000X0.600000X-0.600000X-0.600000X0.600000X-0.600000X0*%
%TD*%
%TA.AperFunction,ViaPad*%
%ADD43C,0.600000*%
%TD*%
%TA.AperFunction,Conductor*%
%ADD44C,0.200000*%
%TD*%
%TA.AperFunction,Conductor*%
%ADD45C,0.400000*%
%TD*%
%TA.AperFunction,Conductor*%
%ADD46C,0.500000*%
%TD*%
%TA.AperFunction,Conductor*%
%ADD47C,1.000000*%
%TD*%
%TA.AperFunction,Conductor*%
%ADD48C,0.700000*%
%TD*%
G04 APERTURE END LIST*
D10*
%TO.P,SW4,*%
%TO.N,*%
X129700000Y-149090000D03*
X129700000Y-152340000D03*
%TO.P,SW4,1,1*%
%TO.N,/strap2*%
X126300000Y-149090000D03*
%TO.P,SW4,2,2*%
%TO.N,GND*%
X126300000Y-152340000D03*
%TD*%
D11*
%TO.P,U2,1,VIN*%
%TO.N,+3V8*%
X119350595Y-146800001D03*
%TO.P,U2,2,GND*%
%TO.N,GND*%
X119350595Y-147750001D03*
%TO.P,U2,3,CE*%
%TO.N,+3V8*%
X119350595Y-148700001D03*
%TO.P,U2,4,NC*%
%TO.N,unconnected-(U2-NC-Pad4)*%
X121625595Y-148700001D03*
%TO.P,U2,5,VOUT*%
%TO.N,+3V3*%
X121625595Y-146800001D03*
%TD*%
D12*
%TO.P,C5,1*%
%TO.N,GND*%
X131962500Y-150500000D03*
%TO.P,C5,2*%
%TO.N,Net-(U4-GPIO0{slash}ADC1_CH0{slash}XTAL_32K_P)*%
X134037500Y-150500000D03*
%TD*%
%TO.P,C6,1*%
%TO.N,GND*%
X131962500Y-148500000D03*
%TO.P,C6,2*%
%TO.N,Net-(U4-GPIO1{slash}ADC1_CH1{slash}XTAL_32K_N)*%
X134037500Y-148500000D03*
%TD*%
D13*
%TO.P,R8,1*%
%TO.N,Net-(J4-CC1)*%
X129675000Y-139827000D03*
%TO.P,R8,2*%
%TO.N,GND*%
X131325000Y-139827000D03*
%TD*%
D14*
%TO.P,J3,1,Pin_1*%
%TO.N,+3V3*%
X112460000Y-157920000D03*
%TO.P,J3,2,Pin_2*%
%TO.N,/en*%
X115000000Y-157920000D03*
%TO.P,J3,3,Pin_3*%
%TO.N,/scl{slash}flash*%
X112460000Y-160460000D03*
%TO.P,J3,4,Pin_4*%
%TO.N,/rx*%
X115000000Y-160460000D03*
%TO.P,J3,5,Pin_5*%
%TO.N,/tx*%
X112460000Y-163000000D03*
%TO.P,J3,6,Pin_6*%
%TO.N,GND*%
X115000000Y-163000000D03*
%TD*%
D13*
%TO.P,R10,1*%
%TO.N,+3V3*%
X119571000Y-153543000D03*
%TO.P,R10,2*%
%TO.N,/sda*%
X121221000Y-153543000D03*
%TD*%
D15*
%TO.P,C2,1*%
%TO.N,+3V8*%
X119538095Y-150500001D03*
%TO.P,C2,2*%
%TO.N,GND*%
X121438095Y-150500001D03*
%TD*%
D16*
%TO.P,R9,1*%
%TO.N,Net-(J4-CC2)*%
X126492000Y-139827000D03*
%TO.P,R9,2*%
%TO.N,GND*%
X124842000Y-139827000D03*
%TD*%
D17*
%TO.P,C1,1*%
%TO.N,+BATT*%
X112250000Y-141025000D03*
%TO.P,C1,2*%
%TO.N,GND*%
X112250000Y-139475000D03*
%TD*%
D11*
%TO.P,U1,1,STAT*%
%TO.N,Net-(D1-A)*%
X119385500Y-140528000D03*
%TO.P,U1,2,VSS*%
%TO.N,GND*%
X119385500Y-141478000D03*
%TO.P,U1,3,VBAT*%
%TO.N,+BATT*%
X119385500Y-142428000D03*
%TO.P,U1,4,VDD*%
%TO.N,+5V*%
X121660500Y-142428000D03*
%TO.P,U1,5,PROG*%
%TO.N,Net-(U1-PROG)*%
X121660500Y-140528000D03*
%TD*%
D18*
%TO.P,C3,1*%
%TO.N,+3V3*%
X121438095Y-144750001D03*
%TO.P,C3,2*%
%TO.N,GND*%
X119538095Y-144750001D03*
%TD*%
D19*
%TO.P,U4,1,GND*%
%TO.N,GND*%
X134100000Y-165100000D03*
%TO.P,U4,2,GND*%
X134100000Y-164300000D03*
%TO.P,U4,3,3V3*%
%TO.N,+3V3*%
X134100000Y-163500000D03*
%TO.P,U4,4,NC*%
%TO.N,unconnected-(U4-NC-Pad4)*%
X134100000Y-162700000D03*
%TO.P,U4,5,GPIO2/ADC1_CH2*%
%TO.N,/strap2*%
X134100000Y-161900000D03*
%TO.P,U4,6,GPIO3/ADC1_CH3*%
%TO.N,Net-(J2-Pin_4)*%
X134100000Y-161100000D03*
%TO.P,U4,7,NC*%
%TO.N,unconnected-(U4-NC-Pad7)*%
X134100000Y-160300000D03*
%TO.P,U4,8,EN/CHIP_PU*%
%TO.N,/en*%
X134100000Y-159500000D03*
%TO.P,U4,9,NC*%
%TO.N,unconnected-(U4-NC-Pad9)*%
X134100000Y-158700000D03*
%TO.P,U4,10,NC*%
%TO.N,unconnected-(U4-NC-Pad10)*%
X134100000Y-157900000D03*
%TO.P,U4,11,GND*%
%TO.N,GND*%
X134100000Y-157100000D03*
D20*
%TO.P,U4,12,GPIO0/ADC1_CH0/XTAL_32K_P*%
%TO.N,Net-(U4-GPIO0{slash}ADC1_CH0{slash}XTAL_32K_P)*%
X133000000Y-156200000D03*
%TO.P,U4,13,GPIO1/ADC1_CH1/XTAL_32K_N*%
%TO.N,Net-(U4-GPIO1{slash}ADC1_CH1{slash}XTAL_32K_N)*%
X132200000Y-156200000D03*
%TO.P,U4,14,GND*%
%TO.N,GND*%
X131400000Y-156200000D03*
%TO.P,U4,15,NC*%
%TO.N,unconnected-(U4-NC-Pad15)*%
X130600000Y-156200000D03*
%TO.P,U4,16,GPIO10*%
%TO.N,/sda*%
X129800000Y-156200000D03*
%TO.P,U4,17,NC*%
%TO.N,unconnected-(U4-NC-Pad17)*%
X129000000Y-156200000D03*
%TO.P,U4,18,GPIO4/ADC1_CH4*%
%TO.N,Net-(J2-Pin_5)*%
X128200000Y-156200000D03*
%TO.P,U4,19,GPIO5/ADC2_CH0*%
%TO.N,Net-(J2-Pin_6)*%
X127400000Y-156200000D03*
%TO.P,U4,20,GPIO6*%
%TO.N,Net-(J2-Pin_7)*%
X126600000Y-156200000D03*
%TO.P,U4,21,GPIO7*%
%TO.N,/pix*%
X125800000Y-156200000D03*
%TO.P,U4,22,GPIO8*%
%TO.N,/gpio_8*%
X125000000Y-156200000D03*
%TO.P,U4,23,GPIO9*%
%TO.N,/scl{slash}flash*%
X124200000Y-156200000D03*
%TO.P,U4,24,NC*%
%TO.N,unconnected-(U4-NC-Pad24)*%
X123400000Y-156200000D03*
D19*
%TO.P,U4,25,NC*%
%TO.N,unconnected-(U4-NC-Pad25)*%
X122300000Y-157100000D03*
%TO.P,U4,26,GPIO18/USB_D-*%
%TO.N,/usb-*%
X122300000Y-157900000D03*
%TO.P,U4,27,GPIO19/USB_D+*%
%TO.N,/usb+*%
X122300000Y-158700000D03*
%TO.P,U4,28,NC*%
%TO.N,unconnected-(U4-NC-Pad28)*%
X122300000Y-159500000D03*
%TO.P,U4,29,NC*%
%TO.N,unconnected-(U4-NC-Pad29)*%
X122300000Y-160300000D03*
%TO.P,U4,30,GPIO20/U0RXD*%
%TO.N,/rx*%
X122300000Y-161100000D03*
%TO.P,U4,31,GPIO21/U0TXD*%
%TO.N,/tx*%
X122300000Y-161900000D03*
%TO.P,U4,32,NC*%
%TO.N,unconnected-(U4-NC-Pad32)*%
X122300000Y-162700000D03*
%TO.P,U4,33,NC*%
%TO.N,unconnected-(U4-NC-Pad33)*%
X122300000Y-163500000D03*
%TO.P,U4,34,NC*%
%TO.N,unconnected-(U4-NC-Pad34)*%
X122300000Y-164300000D03*
%TO.P,U4,35,NC*%
%TO.N,unconnected-(U4-NC-Pad35)*%
X122300000Y-165100000D03*
D20*
%TO.P,U4,36,GND*%
%TO.N,GND*%
X123400000Y-166000000D03*
%TO.P,U4,37,GND*%
X124200000Y-166000000D03*
%TO.P,U4,38,GND*%
X125000000Y-166000000D03*
%TO.P,U4,39,GND*%
X125800000Y-166000000D03*
%TO.P,U4,40,GND*%
X126600000Y-166000000D03*
%TO.P,U4,41,GND*%
X127400000Y-166000000D03*
%TO.P,U4,42,GND*%
X128200000Y-166000000D03*
%TO.P,U4,43,GND*%
X129000000Y-166000000D03*
%TO.P,U4,44,GND*%
X129800000Y-166000000D03*
%TO.P,U4,45,GND*%
X130600000Y-166000000D03*
%TO.P,U4,46,GND*%
X131400000Y-166000000D03*
%TO.P,U4,47,GND*%
X132200000Y-166000000D03*
%TO.P,U4,48,GND*%
X133000000Y-166000000D03*
D21*
%TO.P,U4,49,GND*%
X130175000Y-163075000D03*
D22*
X130175000Y-161100000D03*
X130175000Y-159125000D03*
X128200000Y-163075000D03*
X128200000Y-161100000D03*
X128200000Y-159125000D03*
X126225000Y-163075000D03*
X126225000Y-161100000D03*
X126225000Y-159125000D03*
D23*
%TO.P,U4,50,GND*%
X122250000Y-166050000D03*
%TO.P,U4,51,GND*%
X122250000Y-156150000D03*
%TO.P,U4,52,GND*%
X134150000Y-156150000D03*
%TO.P,U4,53,GND*%
X134150000Y-166050000D03*
%TD*%
D13*
%TO.P,R4,1*%
%TO.N,+5V*%
X135600000Y-137500000D03*
%TO.P,R4,2*%
%TO.N,Net-(D2-A)*%
X137250000Y-137500000D03*
%TD*%
%TO.P,R3,1*%
%TO.N,+3V3*%
X113125000Y-155200000D03*
%TO.P,R3,2*%
%TO.N,/en*%
X114775000Y-155200000D03*
%TD*%
D16*
%TO.P,R1,1*%
%TO.N,Net-(U1-PROG)*%
X121348000Y-138978000D03*
%TO.P,R1,2*%
%TO.N,GND*%
X119698000Y-138978000D03*
%TD*%
D24*
%TO.P,R7,1*%
%TO.N,+3V3*%
X137500000Y-163660000D03*
%TO.P,R7,2*%
%TO.N,/strap2*%
X137500000Y-162010000D03*
%TD*%
D13*
%TO.P,R11,1*%
%TO.N,+3V3*%
X118500000Y-155500000D03*
%TO.P,R11,2*%
%TO.N,/scl{slash}flash*%
X120150000Y-155500000D03*
%TD*%
D24*
%TO.P,R6,1*%
%TO.N,+3V3*%
X139500000Y-163650000D03*
%TO.P,R6,2*%
%TO.N,/gpio_8*%
X139500000Y-162000000D03*
%TD*%
D25*
%TO.P,SW2,1,1*%
%TO.N,GND*%
X111869000Y-151727000D03*
X115969000Y-151727000D03*
%TO.P,SW2,2,2*%
%TO.N,/en*%
X111869000Y-153327000D03*
X115969000Y-153327000D03*
%TD*%
D13*
%TO.P,R2,1*%
%TO.N,Net-(D1-K)*%
X118675000Y-135500000D03*
%TO.P,R2,2*%
%TO.N,GND*%
X120325000Y-135500000D03*
%TD*%
%TO.P,R5,1*%
%TO.N,Net-(D2-A)*%
X135600000Y-135500000D03*
%TO.P,R5,2*%
%TO.N,GND*%
X137250000Y-135500000D03*
%TD*%
D26*
%TO.P,D1,1,K*%
%TO.N,Net-(D1-K)*%
X118562500Y-133500000D03*
%TO.P,D1,2,A*%
%TO.N,Net-(D1-A)*%
X120437500Y-133500000D03*
%TD*%
D27*
%TO.P,J4,A1,GND*%
%TO.N,GND*%
X131150000Y-138200000D03*
%TO.P,J4,A4,VBUS*%
%TO.N,+5V*%
X130400000Y-138200000D03*
D28*
%TO.P,J4,A5,CC1*%
%TO.N,Net-(J4-CC1)*%
X129800000Y-138200000D03*
%TO.P,J4,A6,D+*%
%TO.N,/usb+*%
X128300000Y-138200000D03*
%TO.P,J4,A7,D-*%
%TO.N,/usb-*%
X127300000Y-138200000D03*
%TO.P,J4,A8,SBU1*%
%TO.N,unconnected-(J4-SBU1-PadA8)*%
X126300000Y-138200000D03*
D27*
%TO.P,J4,A9,VBUS*%
%TO.N,+5V*%
X125700000Y-138200000D03*
%TO.P,J4,A12,GND*%
%TO.N,GND*%
X124950000Y-138200000D03*
D28*
%TO.P,J4,B5,CC2*%
%TO.N,Net-(J4-CC2)*%
X126800000Y-138200000D03*
%TO.P,J4,B6,D+*%
%TO.N,/usb+*%
X127800000Y-138200000D03*
%TO.P,J4,B7,D-*%
%TO.N,/usb-*%
X128800000Y-138200000D03*
%TO.P,J4,B8,SBU2*%
%TO.N,unconnected-(J4-SBU2-PadB8)*%
X129300000Y-138200000D03*
D29*
%TO.P,J4,MT*%
%TO.N,N/C*%
X129450000Y-133900000D03*
X126650000Y-133900000D03*
D30*
%TO.P,J4,S1,SHIELD*%
%TO.N,GND*%
X132370000Y-137825000D03*
D31*
X132370000Y-134000000D03*
D30*
X123730000Y-137800000D03*
D31*
X123730000Y-134000000D03*
%TD*%
D32*
%TO.P,Y1,1,1*%
%TO.N,Net-(U4-GPIO1{slash}ADC1_CH1{slash}XTAL_32K_N)*%
X131750000Y-153000000D03*
%TO.P,Y1,2,2*%
%TO.N,Net-(U4-GPIO0{slash}ADC1_CH0{slash}XTAL_32K_P)*%
X134250000Y-153000000D03*
%TD*%
D17*
%TO.P,C4,1*%
%TO.N,/en*%
X117602000Y-153429000D03*
%TO.P,C4,2*%
%TO.N,GND*%
X117602000Y-151879000D03*
%TD*%
D33*
%TO.P,U3,1,CTG*%
%TO.N,GND*%
X113775000Y-139500000D03*
%TO.P,U3,2,CELL*%
%TO.N,+BATT*%
X113775000Y-140000000D03*
%TO.P,U3,3,VDD*%
X113775000Y-140500000D03*
%TO.P,U3,4,GND*%
%TO.N,GND*%
X113775000Y-141000000D03*
%TO.P,U3,5,!ALRT*%
%TO.N,unconnected-(U3-!ALRT-Pad5)*%
X115750000Y-141000000D03*
%TO.P,U3,6,QSTRT*%
%TO.N,GND*%
X115750000Y-140500000D03*
%TO.P,U3,7,SCL*%
%TO.N,/scl{slash}flash*%
X115750000Y-140000000D03*
%TO.P,U3,8,SDA*%
%TO.N,/sda*%
X115750000Y-139500000D03*
D34*
%TO.P,U3,9,EP*%
%TO.N,GND*%
X114762500Y-140250000D03*
%TD*%
D35*
%TO.P,D4,1,DOUT*%
%TO.N,/pixout*%
X129840000Y-144144000D03*
%TO.P,D4,2,VSS*%
%TO.N,GND*%
X126200000Y-144144000D03*
%TO.P,D4,3,DIN*%
%TO.N,/pix*%
X126160000Y-145924000D03*
%TO.P,D4,4,VDD*%
%TO.N,+3V8*%
X129840000Y-145924000D03*
%TD*%
D36*
%TO.P,J11,1,Pin_1*%
%TO.N,+3V8*%
X137843000Y-143427500D03*
D37*
%TO.P,J11,2,Pin_2*%
%TO.N,/pixout*%
X140363000Y-143427500D03*
D38*
%TO.P,J11,3,Pin_3*%
%TO.N,GND*%
X142883000Y-143427500D03*
%TD*%
D26*
%TO.P,D2,1,K*%
%TO.N,Net-(D1-A)*%
X135562500Y-133500000D03*
%TO.P,D2,2,A*%
%TO.N,Net-(D2-A)*%
X137437500Y-133500000D03*
%TD*%
D39*
%TO.P,J1,1,Pin_1*%
%TO.N,GND*%
X115865000Y-148025000D03*
D14*
%TO.P,J1,2,Pin_2*%
%TO.N,+BATT*%
X115865000Y-145485000D03*
%TD*%
D40*
%TO.P,SW3,1,A*%
%TO.N,+BATT*%
X112250000Y-145540000D03*
D41*
%TO.P,SW3,2,B*%
%TO.N,+3V8*%
X112250000Y-148080000D03*
%TO.P,SW3,3,C*%
%TO.N,unconnected-(SW3-C-Pad3)*%
X112250000Y-143000000D03*
%TD*%
D42*
%TO.P,J2,1,Pin_1*%
%TO.N,+3V3*%
X142000000Y-147460000D03*
D14*
%TO.P,J2,2,Pin_2*%
%TO.N,/pixout*%
X139460000Y-147460000D03*
%TO.P,J2,3,Pin_3*%
%TO.N,/strap2*%
X142000000Y-150000000D03*
%TO.P,J2,4,Pin_4*%
%TO.N,Net-(J2-Pin_4)*%
X139460000Y-150000000D03*
%TO.P,J2,5,Pin_5*%
%TO.N,Net-(J2-Pin_5)*%
X142000000Y-152540000D03*
%TO.P,J2,6,Pin_6*%
%TO.N,Net-(J2-Pin_6)*%
X139460000Y-152540000D03*
%TO.P,J2,7,Pin_7*%
%TO.N,Net-(J2-Pin_7)*%
X142000000Y-155080000D03*
%TO.P,J2,8,Pin_8*%
%TO.N,/gpio_8*%
X139460000Y-155080000D03*
%TO.P,J2,9,Pin_9*%
%TO.N,unconnected-(J2-Pin_9-Pad9)*%
X142000000Y-157620000D03*
%TO.P,J2,10,Pin_10*%
%TO.N,GND*%
X139460000Y-157620000D03*
%TD*%
D43*
%TO.N,GND*%
X123317000Y-145796000D03*
X136144000Y-148590000D03*
X122697120Y-153177120D03*
X129800000Y-161417000D03*
X127127000Y-163703000D03*
X125222000Y-161798000D03*
X126225000Y-160655000D03*
X128200000Y-161671000D03*
X129800000Y-160020000D03*
X126225000Y-162560000D03*
X128200000Y-162687000D03*
X129800000Y-162814000D03*
X126111000Y-159004000D03*
X121666000Y-156337000D03*
%TO.N,/en*%
X133350000Y-159512000D03*
%TO.N,/pix*%
X124333000Y-145923000D03*
X125603000Y-157353000D03*
%TO.N,Net-(J2-Pin_5)*%
X128701404Y-157546316D03*
%TO.N,Net-(J2-Pin_7)*%
X126492000Y-156972000D03*
%TO.N,/strap2*%
X136398000Y-161900000D03*
%TO.N,Net-(J2-Pin_6)*%
X127336923Y-156972000D03*
%TO.N,/scl{slash}flash*%
X116713000Y-140150000D03*
X117729000Y-157353000D03*
%TO.N,/usb-*%
X120777000Y-158050000D03*
X127889000Y-137033000D03*
%TO.N,/usb+*%
X120127000Y-157226000D03*
X127414260Y-139636500D03*
%TO.N,/sda*%
X130063120Y-157368120D03*
X117221000Y-139319000D03*
%TD*%
D44*
%TO.N,Net-(J2-Pin_4)*%
X139460000Y-150000000D02*
X140611000Y-151151000D01*
X142854000Y-151151000D02*
X143383000Y-151680000D01*
X137779064Y-161100000D02*
X134100000Y-161100000D01*
X143383000Y-151680000D02*
X143383000Y-160782000D01*
X140611000Y-151151000D02*
X142854000Y-151151000D01*
X138684000Y-162373064D02*
X138684000Y-162004936D01*
X143383000Y-160782000D02*
X141351000Y-162814000D01*
X141351000Y-162814000D02*
X139124936Y-162814000D01*
X139124936Y-162814000D02*
X138684000Y-162373064D01*
X138684000Y-162004936D02*
X137779064Y-161100000D01*
%TO.N,/gpio_8*%
X124179000Y-148363000D02*
X124179000Y-150268000D01*
X138176000Y-153796000D02*
X138176000Y-148717000D01*
X136933000Y-147474000D02*
X125068000Y-147474000D01*
X139460000Y-155080000D02*
X138176000Y-153796000D01*
X120520000Y-153054936D02*
X120520000Y-154031064D01*
X125068000Y-147474000D02*
X124179000Y-148363000D01*
X124179000Y-150268000D02*
X121657032Y-152789968D01*
X138176000Y-148717000D02*
X136933000Y-147474000D01*
X124238000Y-155099000D02*
X125000000Y-155861000D01*
X121657032Y-152789968D02*
X121634064Y-152767000D01*
X121634064Y-152767000D02*
X120807936Y-152767000D01*
X120807936Y-152767000D02*
X120520000Y-153054936D01*
X120520000Y-154031064D02*
X121587936Y-155099000D01*
X121587936Y-155099000D02*
X124238000Y-155099000D01*
X125000000Y-155861000D02*
X125000000Y-156200000D01*
%TO.N,GND*%
X131400000Y-156200000D02*
X131400000Y-155022000D01*
X131400000Y-155022000D02*
X130556000Y-154178000D01*
X130556000Y-154178000D02*
X128138000Y-154178000D01*
X128138000Y-154178000D02*
X126300000Y-152340000D01*
%TO.N,/sda*%
X121221000Y-153543000D02*
X122237000Y-154559000D01*
X122237000Y-154559000D02*
X124460000Y-154559000D01*
X124460000Y-154559000D02*
X125400000Y-155499000D01*
X125400000Y-155499000D02*
X129501000Y-155499000D01*
X129501000Y-155499000D02*
X129501000Y-156200000D01*
X129501000Y-156200000D02*
X129800000Y-156200000D01*
%TO.N,+3V3*%
X118500000Y-155500000D02*
X117094000Y-156906000D01*
X117094000Y-156906000D02*
X117094000Y-157453760D01*
X117094000Y-157453760D02*
X115476760Y-159071000D01*
X115476760Y-159071000D02*
X113611000Y-159071000D01*
X113611000Y-159071000D02*
X112460000Y-157920000D01*
%TO.N,/scl{slash}flash*%
X118297000Y-157353000D02*
X117729000Y-157353000D01*
X120150000Y-155500000D02*
X118297000Y-157353000D01*
D45*
%TO.N,+3V3*%
X125233420Y-146825000D02*
X127086580Y-146825000D01*
X134663267Y-146820000D02*
X134668266Y-146825000D01*
X130766580Y-146825000D02*
X130771580Y-146820000D01*
X125228420Y-146820000D02*
X125233420Y-146825000D01*
X141599000Y-148711000D02*
X142000000Y-148310000D01*
X127091580Y-146820000D02*
X128908420Y-146820000D01*
X123317000Y-146825000D02*
X123322000Y-146820000D01*
X127086580Y-146825000D02*
X127091580Y-146820000D01*
X123322000Y-146820000D02*
X125228420Y-146820000D01*
X128908420Y-146820000D02*
X128913420Y-146825000D01*
X128913420Y-146825000D02*
X130766580Y-146825000D01*
X137055818Y-146825000D02*
X138941818Y-148711000D01*
X130771580Y-146820000D02*
X134663267Y-146820000D01*
X134668266Y-146825000D02*
X137055818Y-146825000D01*
X138941818Y-148711000D02*
X141599000Y-148711000D01*
X142000000Y-148310000D02*
X142000000Y-147460000D01*
D44*
%TO.N,/pixout*%
X129840000Y-144144000D02*
X130857000Y-145161000D01*
X135763000Y-145161000D02*
X136692000Y-144232000D01*
X139232000Y-140976500D02*
X140383000Y-142127500D01*
X130857000Y-145161000D02*
X135763000Y-145161000D01*
X136692000Y-144232000D02*
X136692000Y-140976500D01*
X136692000Y-140976500D02*
X139232000Y-140976500D01*
%TO.N,+3V8*%
X129840000Y-145924000D02*
X137843000Y-145924000D01*
X137843000Y-145924000D02*
X137843000Y-142127500D01*
D45*
%TO.N,+3V3*%
X122313093Y-146825000D02*
X123317000Y-146825000D01*
X123317000Y-146825000D02*
X123317000Y-150273676D01*
X123317000Y-150273676D02*
X121964675Y-151626001D01*
X121964675Y-151626001D02*
X120979693Y-151626001D01*
X120979693Y-151626001D02*
X119571000Y-153034694D01*
X119571000Y-153034694D02*
X119571000Y-153543000D01*
D44*
%TO.N,/usb+*%
X120127000Y-158343452D02*
X120127000Y-157226000D01*
X120483548Y-158700000D02*
X120127000Y-158343452D01*
X122300000Y-158700000D02*
X120483548Y-158700000D01*
%TO.N,Net-(J2-Pin_5)*%
X128200000Y-157044912D02*
X128701404Y-157546316D01*
X128200000Y-156200000D02*
X128200000Y-157044912D01*
%TO.N,GND*%
X129800000Y-161417000D02*
X129800000Y-162814000D01*
X126225000Y-160655000D02*
X126225000Y-162560000D01*
X128200000Y-161671000D02*
X128200000Y-162687000D01*
X129800000Y-160020000D02*
X129800000Y-161417000D01*
X126225000Y-162560000D02*
X126225000Y-163075000D01*
X128200000Y-162687000D02*
X128200000Y-163075000D01*
X129800000Y-162814000D02*
X129800000Y-166000000D01*
%TO.N,Net-(J4-CC1)*%
X129800000Y-138200000D02*
X129800000Y-139702000D01*
X129800000Y-139702000D02*
X129675000Y-139827000D01*
%TO.N,Net-(J4-CC2)*%
X126492000Y-139827000D02*
X126800000Y-139519000D01*
X126800000Y-139519000D02*
X126800000Y-138200000D01*
D46*
%TO.N,GND*%
X115865000Y-148025000D02*
X116139999Y-147750001D01*
D44*
X130175000Y-159385000D02*
X129800000Y-159760000D01*
D45*
X124950000Y-138200000D02*
X124130000Y-138200000D01*
D46*
X120489095Y-147667095D02*
X120489095Y-149551001D01*
X120487095Y-143637000D02*
X120487095Y-142783905D01*
D44*
X126225000Y-159118000D02*
X126225000Y-160655000D01*
X117131298Y-141478000D02*
X118110000Y-141478000D01*
D46*
X120523000Y-142748000D02*
X120523000Y-141478000D01*
X120487095Y-147665095D02*
X120489095Y-147667095D01*
D44*
X126111000Y-159004000D02*
X126225000Y-159118000D01*
D46*
X119385500Y-141478000D02*
X118999000Y-141478000D01*
D44*
X115000000Y-163000000D02*
X116078000Y-164078000D01*
X134100000Y-157100000D02*
X132200000Y-157100000D01*
X115012500Y-140500000D02*
X114762500Y-140250000D01*
X126200000Y-144144000D02*
X125693000Y-143637000D01*
D46*
X119917195Y-147750001D02*
X120487095Y-147180101D01*
X119538095Y-144750001D02*
X120457096Y-144750001D01*
D44*
X117796000Y-166050000D02*
X122250000Y-166050000D01*
X116153298Y-140500000D02*
X117131298Y-141478000D01*
D46*
X120487095Y-142783905D02*
X120523000Y-142748000D01*
D44*
X131962500Y-150500000D02*
X131446500Y-151016000D01*
D45*
X131150000Y-139652000D02*
X131325000Y-139827000D01*
D44*
X113775000Y-139500000D02*
X114178298Y-139500000D01*
X118237000Y-141351000D02*
X118110000Y-141478000D01*
X134150000Y-156150000D02*
X134150000Y-157050000D01*
D46*
X119385500Y-141478000D02*
X120523000Y-141478000D01*
D45*
X131150000Y-138200000D02*
X131150000Y-139652000D01*
D44*
X134100000Y-164300000D02*
X134100000Y-166000000D01*
X131400000Y-156200000D02*
X131400000Y-157900000D01*
D46*
X119350595Y-147750001D02*
X119917195Y-147750001D01*
D44*
X126225000Y-159125000D02*
X126225000Y-163075000D01*
X115951000Y-164205000D02*
X117796000Y-166050000D01*
X125693000Y-143637000D02*
X120487095Y-143637000D01*
X118110000Y-141478000D02*
X119385500Y-141478000D01*
X122250000Y-156150000D02*
X121853000Y-156150000D01*
D46*
X120487095Y-144780000D02*
X120487095Y-143637000D01*
D44*
X131400000Y-157900000D02*
X130175000Y-159125000D01*
D46*
X120487095Y-147180101D02*
X120487095Y-147665095D01*
D44*
X114178298Y-139500000D02*
X114762500Y-140084202D01*
X114762500Y-140084202D02*
X114762500Y-140250000D01*
D46*
X116139999Y-147750001D02*
X119350595Y-147750001D01*
D44*
X134100000Y-157100000D02*
X134150000Y-157050000D01*
D46*
X120487095Y-147180101D02*
X120487095Y-144780000D01*
D45*
X124950000Y-139719000D02*
X124842000Y-139827000D01*
D44*
X127624000Y-151016000D02*
X126300000Y-152340000D01*
X138890000Y-157050000D02*
X139460000Y-157620000D01*
X118237000Y-137287000D02*
X118237000Y-141351000D01*
D46*
X120489095Y-149551001D02*
X121438095Y-150500001D01*
D44*
X122250000Y-166050000D02*
X134150000Y-166050000D01*
D46*
X124842000Y-141223000D02*
X124842000Y-139827000D01*
D44*
X113750000Y-139475000D02*
X113775000Y-139500000D01*
X130175000Y-159125000D02*
X130175000Y-159385000D01*
X113775000Y-141000000D02*
X114178298Y-141000000D01*
D45*
X131150000Y-138200000D02*
X131995000Y-138200000D01*
D44*
X134100000Y-166000000D02*
X134150000Y-166050000D01*
D45*
X124130000Y-138200000D02*
X123730000Y-137800000D01*
X131995000Y-138200000D02*
X132370000Y-137825000D01*
X124950000Y-138200000D02*
X124950000Y-139719000D01*
D44*
X116078000Y-164078000D02*
X115951000Y-164205000D01*
X115750000Y-140500000D02*
X116153298Y-140500000D01*
X119698000Y-136127000D02*
X120325000Y-135500000D01*
X119698000Y-137287000D02*
X118237000Y-137287000D01*
X115750000Y-140500000D02*
X115012500Y-140500000D01*
X126225000Y-159125000D02*
X130175000Y-159125000D01*
X131962500Y-148500000D02*
X131962500Y-150500000D01*
X131446500Y-151016000D02*
X127624000Y-151016000D01*
X114178298Y-141000000D02*
X114762500Y-140415798D01*
X119698000Y-138978000D02*
X119698000Y-137287000D01*
X129800000Y-159760000D02*
X129800000Y-160020000D01*
X121853000Y-156150000D02*
X121666000Y-156337000D01*
X128200000Y-159125000D02*
X128200000Y-161671000D01*
X119698000Y-137287000D02*
X119698000Y-136127000D01*
D46*
X120457096Y-144750001D02*
X120487095Y-144780000D01*
D44*
X132200000Y-157100000D02*
X131400000Y-157900000D01*
X112250000Y-139475000D02*
X113750000Y-139475000D01*
D46*
X120523000Y-141478000D02*
X124587000Y-141478000D01*
D44*
X134150000Y-157050000D02*
X138890000Y-157050000D01*
X114762500Y-140415798D02*
X114762500Y-140250000D01*
D46*
X124587000Y-141478000D02*
X124842000Y-141223000D01*
D47*
%TO.N,+BATT*%
X115865000Y-145485000D02*
X112305000Y-145485000D01*
D44*
X112250000Y-141025000D02*
X112775000Y-140500000D01*
D48*
X115865000Y-145485000D02*
X115865000Y-144866000D01*
D44*
X113351000Y-142126000D02*
X113351000Y-144439000D01*
X113775000Y-140000000D02*
X113775000Y-140500000D01*
X113351000Y-144439000D02*
X112250000Y-145540000D01*
D48*
X115865000Y-144866000D02*
X118252000Y-142479000D01*
D47*
X112305000Y-145485000D02*
X112250000Y-145540000D01*
D48*
X118252000Y-142479000D02*
X119385500Y-142479000D01*
D44*
X112775000Y-140500000D02*
X113775000Y-140500000D01*
X112250000Y-141025000D02*
X113351000Y-142126000D01*
D45*
%TO.N,+3V8*%
X113446000Y-149276000D02*
X112250000Y-148080000D01*
X119538095Y-150500001D02*
X119538095Y-149637095D01*
X118774596Y-149276000D02*
X113446000Y-149276000D01*
X113556000Y-146774000D02*
X112250000Y-148080000D01*
X119350595Y-146800001D02*
X119324594Y-146774000D01*
X119538095Y-149637095D02*
X118975798Y-149074798D01*
X119350595Y-148700001D02*
X118975798Y-149074798D01*
X118975798Y-149074798D02*
X118774596Y-149276000D01*
X119324594Y-146774000D02*
X113556000Y-146774000D01*
%TO.N,+3V3*%
X144145000Y-161798000D02*
X142283000Y-163660000D01*
X137340000Y-163500000D02*
X137500000Y-163660000D01*
X121438095Y-144750001D02*
X121438095Y-146612501D01*
D44*
X119571000Y-154429000D02*
X118500000Y-155500000D01*
D45*
X121625595Y-146800001D02*
X122288094Y-146800001D01*
X142000000Y-147460000D02*
X144145000Y-149605000D01*
X134100000Y-163500000D02*
X137340000Y-163500000D01*
D44*
X119571000Y-153543000D02*
X119571000Y-154429000D01*
D45*
X144145000Y-149605000D02*
X144145000Y-161798000D01*
X122288094Y-146800001D02*
X122313093Y-146825000D01*
X121438095Y-146612501D02*
X121625595Y-146800001D01*
D44*
X112460000Y-157920000D02*
X112460000Y-155865000D01*
X112460000Y-155865000D02*
X113125000Y-155200000D01*
D45*
X142283000Y-163660000D02*
X137500000Y-163660000D01*
D44*
%TO.N,/en*%
X117602000Y-153429000D02*
X114808000Y-153429000D01*
X114808000Y-153429000D02*
X114808000Y-153670000D01*
X111971000Y-153429000D02*
X111869000Y-153327000D01*
X114775000Y-153703000D02*
X114775000Y-155200000D01*
X133350000Y-159512000D02*
X134088000Y-159512000D01*
X115000000Y-155425000D02*
X114775000Y-155200000D01*
X115000000Y-157920000D02*
X115000000Y-155425000D01*
X114808000Y-153429000D02*
X111971000Y-153429000D01*
X114808000Y-153670000D02*
X114775000Y-153703000D01*
X134088000Y-159512000D02*
X134100000Y-159500000D01*
%TO.N,Net-(U4-GPIO0{slash}ADC1_CH0{slash}XTAL_32K_P)*%
X133000000Y-154250000D02*
X134250000Y-153000000D01*
X134037500Y-152787500D02*
X134250000Y-153000000D01*
X133000000Y-156200000D02*
X133000000Y-154250000D01*
X134037500Y-150500000D02*
X134037500Y-152787500D01*
%TO.N,Net-(U4-GPIO1{slash}ADC1_CH1{slash}XTAL_32K_N)*%
X134037500Y-148500000D02*
X132851000Y-149686500D01*
X131750000Y-153000000D02*
X132200000Y-153450000D01*
X132851000Y-149686500D02*
X132851000Y-151899000D01*
X132200000Y-153450000D02*
X132200000Y-156200000D01*
X132851000Y-151899000D02*
X131750000Y-153000000D01*
%TO.N,Net-(D1-A)*%
X120647000Y-139266500D02*
X120647000Y-137671000D01*
X119385500Y-140528000D02*
X120647000Y-139266500D01*
X122738500Y-135801000D02*
X122627750Y-135690250D01*
X135562500Y-133500000D02*
X133261500Y-135801000D01*
X133261500Y-135801000D02*
X122738500Y-135801000D01*
X120647000Y-137671000D02*
X122627750Y-135690250D01*
X122627750Y-135690250D02*
X120437500Y-133500000D01*
%TO.N,Net-(D1-K)*%
X118562500Y-133500000D02*
X118562500Y-135387500D01*
X118562500Y-135387500D02*
X118675000Y-135500000D01*
%TO.N,Net-(D2-A)*%
X135600000Y-135500000D02*
X135600000Y-135337500D01*
X137250000Y-137150000D02*
X135600000Y-135500000D01*
X137250000Y-137500000D02*
X137250000Y-137150000D01*
X135600000Y-135337500D02*
X137437500Y-133500000D01*
%TO.N,/pix*%
X125603000Y-156397000D02*
X125800000Y-156200000D01*
X125603000Y-157353000D02*
X125603000Y-156397000D01*
X126160000Y-145924000D02*
X124334000Y-145924000D01*
X124334000Y-145924000D02*
X124333000Y-145923000D01*
%TO.N,/pixout*%
X140383000Y-146537000D02*
X140383000Y-142127500D01*
X139460000Y-147460000D02*
X140383000Y-146537000D01*
%TO.N,/gpio_8*%
X140611000Y-156231000D02*
X140611000Y-160889000D01*
X139460000Y-155080000D02*
X140611000Y-156231000D01*
X140611000Y-160889000D02*
X139500000Y-162000000D01*
%TO.N,Net-(J2-Pin_7)*%
X126600000Y-156200000D02*
X126600000Y-156864000D01*
X126600000Y-156864000D02*
X126492000Y-156972000D01*
%TO.N,/strap2*%
X137500000Y-162010000D02*
X137329000Y-162010000D01*
X136508000Y-162010000D02*
X136398000Y-161900000D01*
X137500000Y-162010000D02*
X136508000Y-162010000D01*
X137329000Y-162010000D02*
X137219000Y-161900000D01*
X137219000Y-161900000D02*
X134100000Y-161900000D01*
%TO.N,Net-(J2-Pin_6)*%
X127400000Y-156200000D02*
X127400000Y-156908923D01*
X127400000Y-156908923D02*
X127336923Y-156972000D01*
%TO.N,/rx*%
X115640000Y-161100000D02*
X122300000Y-161100000D01*
X115000000Y-160460000D02*
X115640000Y-161100000D01*
%TO.N,/tx*%
X113611000Y-161849000D02*
X112460000Y-163000000D01*
X122249000Y-161849000D02*
X113611000Y-161849000D01*
X122300000Y-161900000D02*
X122249000Y-161849000D01*
%TO.N,/scl{slash}flash*%
X123902000Y-155500000D02*
X124200000Y-155798000D01*
X116563000Y-140000000D02*
X116713000Y-140150000D01*
X120150000Y-155500000D02*
X123902000Y-155500000D01*
X124200000Y-155798000D02*
X124200000Y-156200000D01*
X115750000Y-140000000D02*
X116563000Y-140000000D01*
%TO.N,/usb-*%
X128736000Y-137399000D02*
X128800000Y-137463000D01*
X127300000Y-137463000D02*
X127364000Y-137399000D01*
X127889000Y-137399000D02*
X128736000Y-137399000D01*
X122300000Y-157900000D02*
X120927000Y-157900000D01*
X127889000Y-137399000D02*
X127889000Y-137033000D01*
X127364000Y-137399000D02*
X127889000Y-137399000D01*
X128800000Y-137463000D02*
X128800000Y-138200000D01*
X120927000Y-157900000D02*
X120777000Y-158050000D01*
X127300000Y-138200000D02*
X127300000Y-137463000D01*
%TO.N,/usb+*%
X127800000Y-139250760D02*
X127414260Y-139636500D01*
X127800000Y-138200000D02*
X128300000Y-138200000D01*
X127800000Y-138200000D02*
X127800000Y-139250760D01*
D45*
%TO.N,+5V*%
X130489000Y-140391484D02*
X130489000Y-138289000D01*
X130489000Y-138289000D02*
X130400000Y-138200000D01*
D44*
X130805347Y-136424000D02*
X130400000Y-136829347D01*
X130400000Y-136829347D02*
X130400000Y-138200000D01*
D45*
X130164484Y-140716000D02*
X130489000Y-140391484D01*
X125337000Y-142428000D02*
X121660500Y-142428000D01*
X125691000Y-138209000D02*
X125691000Y-140716000D01*
X125691000Y-140716000D02*
X125691000Y-142074000D01*
D44*
X135600000Y-137500000D02*
X134524000Y-136424000D01*
X134524000Y-136424000D02*
X130805347Y-136424000D01*
D45*
X125691000Y-142074000D02*
X125337000Y-142428000D01*
X125691000Y-140716000D02*
X130164484Y-140716000D01*
X125700000Y-138200000D02*
X125691000Y-138209000D01*
D44*
%TO.N,Net-(U1-PROG)*%
X121348000Y-138978000D02*
X121348000Y-140215500D01*
X121348000Y-140215500D02*
X121660500Y-140528000D01*
%TO.N,/sda*%
X117040000Y-139500000D02*
X117221000Y-139319000D01*
X115750000Y-139500000D02*
X117040000Y-139500000D01*
X129800000Y-157105000D02*
X130063120Y-157368120D01*
X129800000Y-156200000D02*
X129800000Y-157105000D01*
%TD*%
%TA.AperFunction,Conductor*%
%TO.N,GND*%
G36*
X117624255Y-132520185D02*
G01*
X117670010Y-132572989D01*
X117679954Y-132642147D01*
X117662755Y-132689597D01*
X117639639Y-132727072D01*
X117639637Y-132727077D01*
X117584913Y-132892223D01*
X117574500Y-132994144D01*
X117574500Y-134005855D01*
X117584913Y-134107776D01*
X117639637Y-134272922D01*
X117639642Y-134272933D01*
X117730971Y-134420999D01*
X117730974Y-134421003D01*
X117853997Y-134544026D01*
X117903097Y-134574311D01*
X117909919Y-134581896D01*
X117919203Y-134586136D01*
X117932890Y-134607434D01*
X117949821Y-134626257D01*
X117952465Y-134637893D01*
X117956977Y-134644914D01*
X117962000Y-134679849D01*
X117962000Y-134695980D01*
X117942315Y-134763019D01*
X117925681Y-134783661D01*
X117919531Y-134789810D01*
X117919530Y-134789811D01*
X117831522Y-134935393D01*
X117780913Y-135097807D01*
X117774500Y-135168386D01*
X117774500Y-135831613D01*
X117780913Y-135902192D01*
X117780913Y-135902194D01*
X117780914Y-135902196D01*
X117831522Y-136064606D01*
X117913058Y-136199483D01*
X117919530Y-136210188D01*
X118039811Y-136330469D01*
X118039813Y-136330470D01*
X118039815Y-136330472D01*
X118185394Y-136418478D01*
X118347804Y-136469086D01*
X118418384Y-136475500D01*
X118418387Y-136475500D01*
X118931613Y-136475500D01*
X118931616Y-136475500D01*
X119002196Y-136469086D01*
X119164606Y-136418478D01*
X119310185Y-136330472D01*
X119412673Y-136227983D01*
X119473994Y-136194499D01*
X119543685Y-136199483D01*
X119588034Y-136227984D01*
X119690122Y-136330072D01*
X119835604Y-136418019D01*
X119835603Y-136418019D01*
X119997894Y-136468590D01*
X119997893Y-136468590D01*
X120068408Y-136474998D01*
X120068426Y-136474999D01*
X120074999Y-136474998D01*
X120075000Y-136474998D01*
X120075000Y-135624000D01*
X120094685Y-135556961D01*
X120147489Y-135511206D01*
X120199000Y-135500000D01*
X120325000Y-135500000D01*
X120325000Y-135374000D01*
X120344685Y-135306961D01*
X120397489Y-135261206D01*
X120449000Y-135250000D01*
X121250811Y-135250000D01*
X121255274Y-135247563D01*
X121324966Y-135252547D01*
X121369313Y-135281048D01*
X121690833Y-135602568D01*
X121724318Y-135663891D01*
X121719334Y-135733583D01*
X121690833Y-135777930D01*
X121416766Y-136051996D01*
X121355443Y-136085481D01*
X121285751Y-136080497D01*
X121229818Y-136038625D01*
X121205401Y-135973161D01*
X121210701Y-135927421D01*
X121218590Y-135902104D01*
X121225000Y-135831572D01*
X121225000Y-135750000D01*
X120575000Y-135750000D01*
X120575000Y-136474999D01*
X120581581Y-136474999D01*
X120652102Y-136468591D01*
X120652104Y-136468591D01*
X120677422Y-136460702D01*
X120747283Y-136459550D01*
X120806676Y-136496350D01*
X120836744Y-136559419D01*
X120827942Y-136628732D01*
X120801995Y-136666768D01*
X120278286Y-137190478D01*
X120166481Y-137302282D01*
X120166480Y-137302284D01*
X120120581Y-137381784D01*
X120087423Y-137439215D01*
X120046499Y-137591943D01*
X120046499Y-137591945D01*
X120046499Y-137760046D01*
X120046500Y-137760059D01*
X120046500Y-137879000D01*
X120026815Y-137946039D01*
X119974011Y-137991794D01*
X119955089Y-137995910D01*
X119948000Y-138003000D01*
X119948000Y-138854000D01*
X119928315Y-138921039D01*
X119875511Y-138966794D01*
X119824000Y-138978000D01*
X119698000Y-138978000D01*
X119698000Y-139104000D01*
X119678315Y-139171039D01*
X119625511Y-139216794D01*
X119574000Y-139228000D01*
X118798001Y-139228000D01*
X118798001Y-139309582D01*
X118804408Y-139380102D01*
X118804409Y-139380107D01*
X118854981Y-139542398D01*
X118854982Y-139542401D01*
X118855933Y-139543973D01*
X118856277Y-139545276D01*
X118858060Y-139549238D01*
X118857401Y-139549534D01*
X118873765Y-139611529D01*
X118852243Y-139678001D01*
X118798200Y-139722285D01*
X118772100Y-139730097D01*
X118770427Y-139730402D01*
X118612606Y-139776254D01*
X118612603Y-139776255D01*
X118471137Y-139859917D01*
X118471129Y-139859923D01*
X118354923Y-139976129D01*
X118354917Y-139976137D01*
X118271255Y-140117603D01*
X118271254Y-140117606D01*
X118225402Y-140275426D01*
X118225401Y-140275432D01*
X118222500Y-140312298D01*
X118222500Y-140743701D01*
X118225401Y-140780567D01*
X118225402Y-140780573D01*
X118271254Y-140938393D01*
X118271256Y-140938399D01*
X118272426Y-140940377D01*
X118272869Y-140942126D01*
X118274353Y-140945554D01*
X118273799Y-140945793D01*
X118289603Y-141008102D01*
X118274249Y-141060395D01*
X118274817Y-141060641D01*
X118272827Y-141065239D01*
X118272428Y-141066599D01*
X118271722Y-141067791D01*
X118271716Y-141067806D01*
X118225900Y-141225505D01*
X118225899Y-141225511D01*
X118225704Y-141227998D01*
X118225705Y-141228000D01*
X118491185Y-141228000D01*
X118554306Y-141245268D01*
X118612602Y-141279744D01*
X118654224Y-141291836D01*
X118770426Y-141325597D01*
X118770429Y-141325597D01*
X118770431Y-141325598D01*
X118807306Y-141328500D01*
X118807314Y-141328500D01*
X119963686Y-141328500D01*
X119963694Y-141328500D01*
X120000569Y-141325598D01*
X120000571Y-141325597D01*
X120000573Y-141325597D01*
X120042191Y-141313505D01*
X120158398Y-141279744D01*
X120216694Y-141245268D01*
X120279815Y-141228000D01*
X120545294Y-141228000D01*
X120569557Y-141201752D01*
X120629518Y-141165885D01*
X120699352Y-141168129D01*
X120739012Y-141192530D01*
X120739969Y-141191298D01*
X120746132Y-141196078D01*
X120746135Y-141196081D01*
X120887602Y-141279744D01*
X120929224Y-141291836D01*
X121045426Y-141325597D01*
X121045429Y-141325597D01*
X121045431Y-141325598D01*
X121082306Y-141328500D01*
X121082314Y-141328500D01*
X122238686Y-141328500D01*
X122238694Y-141328500D01*
X122275569Y-141325598D01*
X122275571Y-141325597D01*
X122275573Y-141325597D01*
X122317191Y-141313505D01*
X122433398Y-141279744D01*
X122574865Y-141196081D01*
X122691081Y-141079865D01*
X122774744Y-140938398D01*
X122810952Y-140813769D01*
X122820597Y-140780573D01*
X122820598Y-140780567D01*
X122822874Y-140751647D01*
X122823500Y-140743694D01*
X122823500Y-140312306D01*
X122820598Y-140275431D01*
X122786650Y-140158582D01*
X123942001Y-140158582D01*
X123948408Y-140229102D01*
X123948409Y-140229107D01*
X123998981Y-140391396D01*
X124086927Y-140536877D01*
X124207122Y-140657072D01*
X124352604Y-140745019D01*
X124352603Y-140745019D01*
X124514894Y-140795590D01*
X124514893Y-140795590D01*
X124585408Y-140801998D01*
X124585426Y-140801999D01*
X124591999Y-140801998D01*
X124592000Y-140801998D01*
X124592000Y-140077000D01*
X123942001Y-140077000D01*
X123942001Y-140158582D01*
X122786650Y-140158582D01*
X122774744Y-140117602D01*
X122691081Y-139976135D01*
X122691079Y-139976133D01*
X122691076Y-139976129D01*
X122574870Y-139859923D01*
X122574862Y-139859917D01*
X122433396Y-139776255D01*
X122433393Y-139776254D01*
X122275565Y-139730400D01*
X122274424Y-139730192D01*
X122273845Y-139729900D01*
X122269485Y-139728634D01*
X122269720Y-139727824D01*
X122212015Y-139698778D01*
X122176497Y-139638609D01*
X122179148Y-139568790D01*
X122190594Y-139544066D01*
X122191478Y-139542606D01*
X122242086Y-139380196D01*
X122248500Y-139309616D01*
X122248500Y-138646384D01*
X122242086Y-138575804D01*
X122191478Y-138413394D01*
X122103472Y-138267815D01*
X122103470Y-138267813D01*
X122103469Y-138267811D01*
X121983188Y-138147530D01*
X121955854Y-138131006D01*
X121837606Y-138059522D01*
X121675196Y-138008914D01*
X121675194Y-138008913D01*
X121675192Y-138008913D01*
X121625778Y-138004423D01*
X121604616Y-138002500D01*
X121604613Y-138002500D01*
X121464097Y-138002500D01*
X121397058Y-137982815D01*
X121351303Y-137930011D01*
X121341359Y-137860853D01*
X121370384Y-137797297D01*
X121376416Y-137790819D01*
X122000020Y-137167215D01*
X122595085Y-136572149D01*
X122656407Y-136538666D01*
X122726099Y-136543650D01*
X122782032Y-136585522D01*
X122806449Y-136650986D01*
X122791597Y-136719259D01*
X122789487Y-136722903D01*
X122710591Y-136877742D01*
X122657085Y-137042415D01*
X122630000Y-137213428D01*
X122630000Y-137550000D01*
X123430000Y-137550000D01*
X123430000Y-138050000D01*
X122630000Y-138050000D01*
X122630000Y-138386571D01*
X122657085Y-138557584D01*
X122710591Y-138722257D01*
X122789195Y-138876524D01*
X122890967Y-139016602D01*
X123013397Y-139139032D01*
X123153475Y-139240804D01*
X123307744Y-139319408D01*
X123472415Y-139372914D01*
X123472414Y-139372914D01*
X123479999Y-139374115D01*
X123480000Y-139374114D01*
X123480000Y-138466988D01*
X123489940Y-138484205D01*
X123545795Y-138540060D01*
X123614204Y-138579556D01*
X123690504Y-138600000D01*
X123769496Y-138600000D01*
X123845796Y-138579556D01*
X123914205Y-138540060D01*
X123970060Y-138484205D01*
X123980000Y-138466988D01*
X123980000Y-139440638D01*
X123960315Y-139507677D01*
X123943681Y-139528319D01*
X123942000Y-139530000D01*
X123942000Y-139577000D01*
X124592000Y-139577000D01*
X124592000Y-138846000D01*
X124611685Y-138778961D01*
X124648141Y-138742216D01*
X124750295Y-138675423D01*
X124771943Y-138668880D01*
X124791795Y-138658041D01*
X124804747Y-138658967D01*
X124817177Y-138655211D01*
X124838926Y-138661411D01*
X124861487Y-138663025D01*
X124871882Y-138670807D01*
X124884370Y-138674367D01*
X124899314Y-138691341D01*
X124917421Y-138704896D01*
X124922409Y-138717575D01*
X124930539Y-138726809D01*
X124933364Y-138745416D01*
X124941444Y-138765952D01*
X124945909Y-138807483D01*
X124982682Y-138906076D01*
X124990500Y-138949409D01*
X124990500Y-141603500D01*
X124970815Y-141670539D01*
X124918011Y-141716294D01*
X124866500Y-141727500D01*
X122553969Y-141727500D01*
X122490848Y-141710232D01*
X122439664Y-141679962D01*
X122433398Y-141676256D01*
X122433397Y-141676255D01*
X122433396Y-141676255D01*
X122433393Y-141676254D01*
X122275573Y-141630402D01*
X122275567Y-141630401D01*
X122238701Y-141627500D01*
X122238694Y-141627500D01*
X121082306Y-141627500D01*
X121082298Y-141627500D01*
X121045432Y-141630401D01*
X121045426Y-141630402D01*
X120887606Y-141676254D01*
X120887603Y-141676255D01*
X120746137Y-141759917D01*
X120739969Y-141764702D01*
X120738664Y-141763019D01*
X120686954Y-141791246D01*
X120617263Y-141786251D01*
X120569558Y-141754247D01*
X120545296Y-141728000D01*
X120279815Y-141728000D01*
X120216694Y-141710732D01*
X120203687Y-141703040D01*
X120158398Y-141676256D01*
X120158397Y-141676255D01*
X120158396Y-141676255D01*
X120158393Y-141676254D01*
X120000573Y-141630402D01*
X120000567Y-141630401D01*
X119963701Y-141627500D01*
X119963694Y-141627500D01*
X118807306Y-141627500D01*
X118807298Y-141627500D01*
X118799453Y-141628118D01*
X118789725Y-141628500D01*
X118168228Y-141628500D01*
X118003925Y-141661182D01*
X118003913Y-141661185D01*
X117958583Y-141679962D01*
X117849143Y-141725292D01*
X117849130Y-141725299D01*
X117709838Y-141818372D01*
X117709834Y-141818375D01*
X115254822Y-144273387D01*
X115223437Y-144296190D01*
X115157182Y-144329949D01*
X114981266Y-144457759D01*
X114980635Y-144456891D01*
X114921581Y-144483359D01*
X114904800Y-144484500D01*
X114075500Y-144484500D01*
X114008461Y-144464815D01*
X113962706Y-144412011D01*
X113951500Y-144360500D01*
X113951500Y-142046945D01*
X113951499Y-142046941D01*
X113940263Y-142005005D01*
X113940263Y-142005006D01*
X113910577Y-141894215D01*
X113906823Y-141887713D01*
X113862533Y-141811000D01*
X113846060Y-141743100D01*
X113868912Y-141677073D01*
X113923833Y-141633883D01*
X113969920Y-141625000D01*
X114136863Y-141625000D01*
X114136877Y-141624999D01*
X114246841Y-141610521D01*
X114246842Y-141610521D01*
X114383675Y-141553843D01*
X114501179Y-141463679D01*
X114591344Y-141346174D01*
X114647668Y-141210195D01*
X114691508Y-141155791D01*
X114757802Y-141133726D01*
X114825502Y-141151005D01*
X114873113Y-141202142D01*
X114876790Y-141210194D01*
X114897466Y-141260111D01*
X114933221Y-141346429D01*
X115023464Y-141464036D01*
X115141071Y-141554279D01*
X115278028Y-141611009D01*
X115388099Y-141625500D01*
X116111900Y-141625499D01*
X116111903Y-141625499D01*
X116221963Y-141611011D01*
X116221967Y-141611009D01*
X116221972Y-141611009D01*
X116358929Y-141554279D01*
X116476536Y-141464036D01*
X116566779Y-141346429D01*
X116623509Y-141209472D01*
X116638000Y-141099401D01*
X116638000Y-141074500D01*
X116657685Y-141007461D01*
X116710489Y-140961706D01*
X116762000Y-140950500D01*
X116791844Y-140950500D01*
X116791845Y-140950499D01*
X116946497Y-140919737D01*
X117092179Y-140859394D01*
X117223289Y-140771789D01*
X117334789Y-140660289D01*
X117422394Y-140529179D01*
X117482737Y-140383497D01*
X117513500Y-140228842D01*
X117513500Y-140147151D01*
X117533185Y-140080112D01*
X117585989Y-140034357D01*
X117590001Y-140032609D01*
X117600179Y-140028394D01*
X117731289Y-139940789D01*
X117842789Y-139829289D01*
X117930394Y-139698179D01*
X117990737Y-139552497D01*
X118021500Y-139397842D01*
X118021500Y-139240158D01*
X118021500Y-139240155D01*
X118021499Y-139240153D01*
X118015092Y-139207944D01*
X117990737Y-139085503D01*
X117970365Y-139036320D01*
X117930397Y-138939827D01*
X117930390Y-138939814D01*
X117842789Y-138808711D01*
X117842786Y-138808707D01*
X117731292Y-138697213D01*
X117731288Y-138697210D01*
X117655287Y-138646427D01*
X118798000Y-138646427D01*
X118798000Y-138728000D01*
X119448000Y-138728000D01*
X119448000Y-138003000D01*
X119447999Y-138002999D01*
X119441436Y-138003000D01*
X119441417Y-138003001D01*
X119370897Y-138009408D01*
X119370892Y-138009409D01*
X119208603Y-138059981D01*
X119063122Y-138147927D01*
X118942927Y-138268122D01*
X118854980Y-138413604D01*
X118804409Y-138575893D01*
X118798000Y-138646427D01*
X117655287Y-138646427D01*
X117600185Y-138609609D01*
X117600172Y-138609602D01*
X117454501Y-138549264D01*
X117454489Y-138549261D01*
X117299845Y-138518500D01*
X117299842Y-138518500D01*
X117142158Y-138518500D01*
X117142155Y-138518500D01*
X116987510Y-138549261D01*
X116987498Y-138549264D01*
X116841827Y-138609602D01*
X116841814Y-138609609D01*
X116710711Y-138697210D01*
X116710707Y-138697213D01*
X116599213Y-138808707D01*
X116599209Y-138808712D01*
X116575372Y-138844389D01*
X116569280Y-138849479D01*
X116565982Y-138856703D01*
X116542853Y-138871566D01*
X116521761Y-138889195D01*
X116512385Y-138891147D01*
X116507204Y-138894477D01*
X116472269Y-138899500D01*
X116272008Y-138899500D01*
X116224558Y-138890062D01*
X116221975Y-138888992D01*
X116221970Y-138888990D01*
X116111901Y-138874500D01*
X115388096Y-138874500D01*
X115278036Y-138888988D01*
X115278027Y-138888991D01*
X115141074Y-138945719D01*
X115141071Y-138945720D01*
X115141071Y-138945721D01*
X115023464Y-139035964D01*
X114985452Y-139085503D01*
X114933219Y-139153574D01*
X114876790Y-139289805D01*
X114832949Y-139344208D01*
X114766654Y-139366273D01*
X114698955Y-139348994D01*
X114651345Y-139297856D01*
X114647668Y-139289804D01*
X114591344Y-139153825D01*
X114501179Y-139036320D01*
X114383675Y-138946156D01*
X114246841Y-138889478D01*
X114136877Y-138875000D01*
X113900000Y-138875000D01*
X113900000Y-139250500D01*
X113897449Y-139259185D01*
X113898738Y-139268147D01*
X113887759Y-139292187D01*
X113880315Y-139317539D01*
X113873474Y-139323466D01*
X113869713Y-139331703D01*
X113847478Y-139345992D01*
X113827511Y-139363294D01*
X113816996Y-139365581D01*
X113810935Y-139369477D01*
X113776000Y-139374500D01*
X113774000Y-139374500D01*
X113706961Y-139354815D01*
X113661206Y-139302011D01*
X113650000Y-139250500D01*
X113650000Y-138875000D01*
X113413122Y-138875000D01*
X113303158Y-138889478D01*
X113303154Y-138889479D01*
X113262354Y-138906379D01*
X113192884Y-138913848D01*
X113130405Y-138882572D01*
X113109363Y-138856915D01*
X113072571Y-138797266D01*
X112952732Y-138677427D01*
X112952728Y-138677424D01*
X112808492Y-138588457D01*
X112808481Y-138588452D01*
X112647606Y-138535144D01*
X112548322Y-138525000D01*
X112500000Y-138525000D01*
X112500000Y-139225000D01*
X113088428Y-139225000D01*
X113155467Y-139244685D01*
X113201222Y-139297489D01*
X113211166Y-139366647D01*
X113182141Y-139430203D01*
X113163918Y-139447372D01*
X113058427Y-139528319D01*
X113048464Y-139535964D01*
X112958218Y-139653574D01*
X112954155Y-139660613D01*
X112951686Y-139659187D01*
X112916514Y-139702846D01*
X112850223Y-139724920D01*
X112845780Y-139725000D01*
X111275001Y-139725000D01*
X111275001Y-139748322D01*
X111285144Y-139847607D01*
X111338452Y-140008481D01*
X111338457Y-140008492D01*
X111427424Y-140152728D01*
X111427427Y-140152732D01*
X111436660Y-140161965D01*
X111470145Y-140223288D01*
X111465161Y-140292980D01*
X111436663Y-140337324D01*
X111427033Y-140346953D01*
X111427029Y-140346959D01*
X111338001Y-140491294D01*
X111337996Y-140491305D01*
X111284651Y-140652290D01*
X111274500Y-140751647D01*
X111274500Y-141298337D01*
X111274501Y-141298355D01*
X111284650Y-141397707D01*
X111284651Y-141397710D01*
X111337996Y-141558694D01*
X111338001Y-141558705D01*
X111427029Y-141703040D01*
X111427032Y-141703044D01*
X111490813Y-141766825D01*
X111524298Y-141828148D01*
X111519314Y-141897840D01*
X111477442Y-141953773D01*
X111476017Y-141954824D01*
X111402787Y-142008028D01*
X111402782Y-142008032D01*
X111258028Y-142152786D01*
X111137715Y-142318386D01*
X111044781Y-142500776D01*
X110981522Y-142695465D01*
X110949500Y-142897648D01*
X110949500Y-143102351D01*
X110981522Y-143304534D01*
X111044781Y-143499223D01*
X111137715Y-143681613D01*
X111258028Y-143847213D01*
X111402786Y-143991971D01*
X111505463Y-144066569D01*
X111548129Y-144121898D01*
X111554108Y-144191512D01*
X111521503Y-144253307D01*
X111460664Y-144287664D01*
X111445833Y-144290177D01*
X111392516Y-144295909D01*
X111257671Y-144346202D01*
X111257664Y-144346206D01*
X111142455Y-144432452D01*
X111142452Y-144432455D01*
X111056206Y-144547664D01*
X111056202Y-144547671D01*
X111005908Y-144682517D01*
X110999501Y-144742116D01*
X110999500Y-144742135D01*
X110999500Y-146337870D01*
X110999501Y-146337876D01*
X111005908Y-146397483D01*
X111056202Y-146532328D01*
X111056206Y-146532335D01*
X111142452Y-146647544D01*
X111142455Y-146647547D01*
X111257664Y-146733793D01*
X111257671Y-146733797D01*
X111302618Y-146750561D01*
X111392517Y-146784091D01*
X111445835Y-146789823D01*
X111510384Y-146816560D01*
X111550232Y-146873952D01*
X111552726Y-146943777D01*
X111517074Y-147003867D01*
X111505463Y-147013430D01*
X111402787Y-147088028D01*
X111402782Y-147088032D01*
X111258028Y-147232786D01*
X111137715Y-147398386D01*
X111044781Y-147580776D01*
X110981522Y-147775465D01*
X110949500Y-147977648D01*
X110949500Y-148182351D01*
X110981522Y-148384534D01*
X111044781Y-148579223D01*
X111108691Y-148704653D01*
X111126072Y-148738764D01*
X111137715Y-148761613D01*
X111258028Y-148927213D01*
X111402786Y-149071971D01*
X111530144Y-149164500D01*
X111568390Y-149192287D01*
X111684607Y-149251503D01*
X111750776Y-149285218D01*
X111750778Y-149285218D01*
X111750781Y-149285220D01*
X111851003Y-149317784D01*
X111945465Y-149348477D01*
X112046557Y-149364488D01*
X112147648Y-149380500D01*
X112147649Y-149380500D01*
X112352351Y-149380500D01*
X112352352Y-149380500D01*
X112469070Y-149362013D01*
X112538363Y-149370967D01*
X112576149Y-149396805D01*
X112901886Y-149722542D01*
X112963082Y-149783738D01*
X112999459Y-149820115D01*
X113114182Y-149896771D01*
X113114195Y-149896778D01*
X113163154Y-149917057D01*
X113166119Y-149918285D01*
X113241671Y-149949580D01*
X113262741Y-149953771D01*
X113325412Y-149966237D01*
X113377004Y-149976500D01*
X113377007Y-149976500D01*
X118413595Y-149976500D01*
X118480634Y-149996185D01*
X118526389Y-150048989D01*
X118537595Y-150100500D01*
X118537595Y-151014928D01*
X118517910Y-151081967D01*
X118465106Y-151127722D01*
X118395948Y-151137666D01*
X118332392Y-151108641D01*
X118325914Y-151102609D01*
X118304732Y-151081427D01*
X118304728Y-151081424D01*
X118160492Y-150992457D01*
X118160481Y-150992452D01*
X117999606Y-150939144D01*
X117900322Y-150929000D01*
X117852000Y-150929000D01*
X117852000Y-151629000D01*
X118576999Y-151629000D01*
X118576999Y-151624635D01*
X118596684Y-151557596D01*
X118649488Y-151511841D01*
X118718646Y-151501897D01*
X118782202Y-151530922D01*
X118788680Y-151536954D01*
X118819439Y-151567713D01*
X118968761Y-151659815D01*
X119135298Y-151715000D01*
X119238086Y-151725501D01*
X119590174Y-151725500D01*
X119657212Y-151745184D01*
X119702967Y-151797988D01*
X119712911Y-151867147D01*
X119683886Y-151930702D01*
X119677854Y-151937181D01*
X119026887Y-152588148D01*
X118963550Y-152682941D01*
X118941074Y-152707184D01*
X118941117Y-152707227D01*
X118939983Y-152708360D01*
X118936931Y-152711653D01*
X118935821Y-152712522D01*
X118815528Y-152832814D01*
X118746579Y-152946869D01*
X118695051Y-152994056D01*
X118626192Y-153005894D01*
X118561863Y-152978625D01*
X118522757Y-152921722D01*
X118520860Y-152915996D01*
X118514003Y-152895303D01*
X118513999Y-152895297D01*
X118513998Y-152895294D01*
X118424970Y-152750959D01*
X118424967Y-152750955D01*
X118415339Y-152741327D01*
X118381854Y-152680004D01*
X118386838Y-152610312D01*
X118415345Y-152565959D01*
X118424573Y-152556731D01*
X118513542Y-152412492D01*
X118513547Y-152412481D01*
X118566855Y-152251606D01*
X118576999Y-152152322D01*
X118577000Y-152152309D01*
X118577000Y-152129000D01*
X116621000Y-152129000D01*
X116553961Y-152109315D01*
X116508206Y-152056511D01*
X116497000Y-152005000D01*
X116497000Y-151977000D01*
X115019000Y-151977000D01*
X115019000Y-152274844D01*
X115025401Y-152334372D01*
X115025403Y-152334379D01*
X115078746Y-152477399D01*
X115076930Y-152478076D01*
X115089383Y-152535316D01*
X115082411Y-152568358D01*
X115077803Y-152581196D01*
X115075204Y-152584669D01*
X115024909Y-152719517D01*
X115023517Y-152732463D01*
X115018521Y-152746385D01*
X115006296Y-152763145D01*
X114998358Y-152782309D01*
X114986124Y-152790802D01*
X114977348Y-152802835D01*
X114958005Y-152810324D01*
X114940964Y-152822156D01*
X114917728Y-152825920D01*
X114912193Y-152828064D01*
X114908792Y-152827368D01*
X114901809Y-152828500D01*
X112936192Y-152828500D01*
X112869153Y-152808815D01*
X112823398Y-152756011D01*
X112815420Y-152726939D01*
X112814876Y-152727068D01*
X112813092Y-152719520D01*
X112759697Y-152576359D01*
X112761266Y-152575773D01*
X112748616Y-152517630D01*
X112760314Y-152477793D01*
X112759253Y-152477398D01*
X112812597Y-152334376D01*
X112812598Y-152334372D01*
X112818999Y-152274844D01*
X112819000Y-152274827D01*
X112819000Y-151977000D01*
X110919000Y-151977000D01*
X110919000Y-152274844D01*
X110925401Y-152334372D01*
X110925403Y-152334379D01*
X110978746Y-152477399D01*
X110976930Y-152478076D01*
X110989383Y-152535316D01*
X110977428Y-152576033D01*
X110978303Y-152576359D01*
X110924908Y-152719517D01*
X110918501Y-152779116D01*
X110918500Y-152779135D01*
X110918500Y-153874870D01*
X110918501Y-153874876D01*
X110924908Y-153934483D01*
X110975202Y-154069328D01*
X110975206Y-154069335D01*
X111061452Y-154184544D01*
X111061455Y-154184547D01*
X111176664Y-154270793D01*
X111176671Y-154270797D01*
X111311517Y-154321091D01*
X111311516Y-154321091D01*
X111318444Y-154321835D01*
X111371127Y-154327500D01*
X112247794Y-154327499D01*
X112314833Y-154347183D01*
X112360588Y-154399987D01*
X112370532Y-154469146D01*
X112353911Y-154515647D01*
X112348561Y-154524499D01*
X112281522Y-154635393D01*
X112230913Y-154797807D01*
X112224500Y-154868386D01*
X112224500Y-155199902D01*
X112204815Y-155266941D01*
X112188181Y-155287583D01*
X111979481Y-155496282D01*
X111979479Y-155496285D01*
X111960975Y-155528335D01*
X111939105Y-155566216D01*
X111900423Y-155633215D01*
X111859499Y-155785943D01*
X111859499Y-155785945D01*
X111859499Y-155954046D01*
X111859500Y-155954059D01*
X111859500Y-156634281D01*
X111839815Y-156701320D01*
X111791795Y-156744765D01*
X111752185Y-156764947D01*
X111752184Y-156764948D01*
X111580213Y-156889890D01*
X111429890Y-157040213D01*
X111304951Y-157212179D01*
X111208444Y-157401585D01*
X111142753Y-157603760D01*
X111109500Y-157813713D01*
X111109500Y-158026286D01*
X111138199Y-158207488D01*
X111142754Y-158236243D01*
X111193530Y-158392516D01*
X111208444Y-158438414D01*
X111304951Y-158627820D01*
X111429890Y-158799786D01*
X111580213Y-158950109D01*
X111752182Y-159075050D01*
X111760946Y-159079516D01*
X111811742Y-159127491D01*
X111828536Y-159195312D01*
X111805998Y-159261447D01*
X111760946Y-159300484D01*
X111752182Y-159304949D01*
X111580213Y-159429890D01*
X111429890Y-159580213D01*
X111304951Y-159752179D01*
X111208444Y-159941585D01*
X111142753Y-160143760D01*
X111109500Y-160353713D01*
X111109500Y-160566286D01*
X111137541Y-160743334D01*
X111142754Y-160776243D01*
X111205078Y-160968057D01*
X111208444Y-160978414D01*
X111304951Y-161167820D01*
X111429890Y-161339786D01*
X111580213Y-161490109D01*
X111752182Y-161615050D01*
X111760946Y-161619516D01*
X111811742Y-161667491D01*
X111828536Y-161735312D01*
X111805998Y-161801447D01*
X111760946Y-161840484D01*
X111752182Y-161844949D01*
X111580213Y-161969890D01*
X111429890Y-162120213D01*
X111304951Y-162292179D01*
X111208444Y-162481585D01*
X111142753Y-162683760D01*
X111109500Y-162893713D01*
X111109500Y-163106286D01*
X111142753Y-163316239D01*
X111208444Y-163518414D01*
X111304951Y-163707820D01*
X111429890Y-163879786D01*
X111580213Y-164030109D01*
X111752179Y-164155048D01*
X111752181Y-164155049D01*
X111752184Y-164155051D01*
X111941588Y-164251557D01*
X112143757Y-164317246D01*
X112353713Y-164350500D01*
X112353714Y-164350500D01*
X112566286Y-164350500D01*
X112566287Y-164350500D01*
X112776243Y-164317246D01*
X112978412Y-164251557D01*
X113167816Y-164155051D01*
X113189789Y-164139086D01*
X113222571Y-164115269D01*
X114238282Y-164115269D01*
X114238282Y-164115270D01*
X114292449Y-164154624D01*
X114481782Y-164251095D01*
X114683870Y-164316757D01*
X114893754Y-164350000D01*
X115106246Y-164350000D01*
X115316127Y-164316757D01*
X115316130Y-164316757D01*
X115518217Y-164251095D01*
X115707554Y-164154622D01*
X115761716Y-164115270D01*
X115761717Y-164115270D01*
X115000000Y-163353554D01*
X114238282Y-164115269D01*
X113222571Y-164115269D01*
X113339786Y-164030109D01*
X113339788Y-164030106D01*
X113339792Y-164030104D01*
X113490104Y-163879792D01*
X113490106Y-163879788D01*
X113490109Y-163879786D01*
X113575890Y-163761717D01*
X113615051Y-163707816D01*
X113619793Y-163698508D01*
X113667763Y-163647711D01*
X113735583Y-163630911D01*
X113801719Y-163653445D01*
X113840763Y-163698500D01*
X113845373Y-163707547D01*
X113884728Y-163761716D01*
X114705146Y-162941297D01*
X114700000Y-162960504D01*
X114700000Y-163039496D01*
X114720444Y-163115796D01*
X114759940Y-163184205D01*
X114815795Y-163240060D01*
X114884204Y-163279556D01*
X114960504Y-163300000D01*
X115039496Y-163300000D01*
X115115796Y-163279556D01*
X115184205Y-163240060D01*
X115240060Y-163184205D01*
X115279556Y-163115796D01*
X115300000Y-163039496D01*
X115300000Y-162960504D01*
X115294854Y-162941301D01*
X116115270Y-163761717D01*
X116115270Y-163761716D01*
X116154622Y-163707554D01*
X116251095Y-163518217D01*
X116316757Y-163316130D01*
X116316757Y-163316127D01*
X116350000Y-163106246D01*
X116350000Y-162893753D01*
X116316757Y-162683872D01*
X116316757Y-162683869D01*
X116293346Y-162611818D01*
X116291351Y-162541977D01*
X116327431Y-162482144D01*
X116390132Y-162451316D01*
X116411277Y-162449500D01*
X121275500Y-162449500D01*
X121342539Y-162469185D01*
X121388294Y-162521989D01*
X121399500Y-162573500D01*
X121399500Y-162947869D01*
X121399501Y-162947876D01*
X121405908Y-163007482D01*
X121417849Y-163039496D01*
X121424252Y-163056665D01*
X121424253Y-163056666D01*
X121429237Y-163126358D01*
X121424253Y-163143331D01*
X121405910Y-163192511D01*
X121405910Y-163192514D01*
X121405909Y-163192517D01*
X121399500Y-163252127D01*
X121399500Y-163252134D01*
X121399500Y-163252135D01*
X121399500Y-163747870D01*
X121399501Y-163747876D01*
X121405908Y-163807482D01*
X121419004Y-163842593D01*
X121424252Y-163856665D01*
X121424253Y-163856666D01*
X121429237Y-163926358D01*
X121424253Y-163943331D01*
X121405910Y-163992511D01*
X121405910Y-163992514D01*
X121405909Y-163992517D01*
X121399500Y-164052127D01*
X121399500Y-164052134D01*
X121399500Y-164052135D01*
X121399500Y-164547870D01*
X121399501Y-164547876D01*
X121405908Y-164607482D01*
X121419004Y-164642593D01*
X121424252Y-164656665D01*
X121424253Y-164656666D01*
X121429237Y-164726358D01*
X121424253Y-164743331D01*
X121405910Y-164792511D01*
X121405910Y-164792514D01*
X121405909Y-164792517D01*
X121399500Y-164852127D01*
X121399500Y-164852134D01*
X121399500Y-164852135D01*
X121399500Y-165347870D01*
X121399501Y-165347876D01*
X121405909Y-165407484D01*
X121424519Y-165457382D01*
X121429503Y-165527074D01*
X121424520Y-165544046D01*
X121406402Y-165592623D01*
X121406401Y-165592627D01*
X121400000Y-165652155D01*
X121400000Y-165800000D01*
X121840833Y-165800000D01*
X121848811Y-165800427D01*
X121848817Y-165800322D01*
X121852102Y-165800497D01*
X121852127Y-165800500D01*
X122747872Y-165800499D01*
X122747872Y-165800498D01*
X122751196Y-165800321D01*
X122751201Y-165800426D01*
X122759163Y-165800000D01*
X123200000Y-165800000D01*
X123600000Y-165800000D01*
X124000000Y-165800000D01*
X124400000Y-165800000D01*
X124800000Y-165800000D01*
X125200000Y-165800000D01*
X125600000Y-165800000D01*
X126000000Y-165800000D01*
X126400000Y-165800000D01*
X126800000Y-165800000D01*
X127200000Y-165800000D01*
X127600000Y-165800000D01*
X128000000Y-165800000D01*
X128400000Y-165800000D01*
X128800000Y-165800000D01*
X129200000Y-165800000D01*
X129600000Y-165800000D01*
X130000000Y-165800000D01*
X130400000Y-165800000D01*
X130800000Y-165800000D01*
X131200000Y-165800000D01*
X131600000Y-165800000D01*
X132000000Y-165800000D01*
X132400000Y-165800000D01*
X132800000Y-165800000D01*
X133200000Y-165800000D01*
X133900000Y-165800000D01*
X134400000Y-165800000D01*
X135000000Y-165800000D01*
X135000000Y-165652172D01*
X134999999Y-165652155D01*
X134993597Y-165592622D01*
X134993597Y-165592621D01*
X134975214Y-165543335D01*
X134970228Y-165473644D01*
X134975214Y-165456665D01*
X134993597Y-165407378D01*
X134993597Y-165407377D01*
X134999999Y-165347844D01*
X135000000Y-165347827D01*
X135000000Y-165300000D01*
X134400000Y-165300000D01*
X134400000Y-165800000D01*
X133900000Y-165800000D01*
X133900000Y-165300000D01*
X133200000Y-165300000D01*
X133200000Y-165800000D01*
X132800000Y-165800000D01*
X132800000Y-165100000D01*
X132752155Y-165100000D01*
X132692627Y-165106401D01*
X132692619Y-165106403D01*
X132643333Y-165124786D01*
X132573641Y-165129770D01*
X132556667Y-165124786D01*
X132507380Y-165106403D01*
X132507372Y-165106401D01*
X132447844Y-165100000D01*
X132400000Y-165100000D01*
X132400000Y-165800000D01*
X132000000Y-165800000D01*
X132000000Y-165100000D01*
X131952155Y-165100000D01*
X131892627Y-165106401D01*
X131892619Y-165106403D01*
X131843333Y-165124786D01*
X131773641Y-165129770D01*
X131756667Y-165124786D01*
X131707380Y-165106403D01*
X131707372Y-165106401D01*
X131647844Y-165100000D01*
X131600000Y-165100000D01*
X131600000Y-165800000D01*
X131200000Y-165800000D01*
X131200000Y-165100000D01*
X131152155Y-165100000D01*
X131092627Y-165106401D01*
X131092619Y-165106403D01*
X131043333Y-165124786D01*
X130973641Y-165129770D01*
X130956667Y-165124786D01*
X130907380Y-165106403D01*
X130907372Y-165106401D01*
X130847844Y-165100000D01*
X130800000Y-165100000D01*
X130800000Y-165800000D01*
X130400000Y-165800000D01*
X130400000Y-165100000D01*
X130352155Y-165100000D01*
X130292627Y-165106401D01*
X130292619Y-165106403D01*
X130243333Y-165124786D01*
X130173641Y-165129770D01*
X130156667Y-165124786D01*
X130107380Y-165106403D01*
X130107372Y-165106401D01*
X130047844Y-165100000D01*
X130000000Y-165100000D01*
X130000000Y-165800000D01*
X129600000Y-165800000D01*
X129600000Y-165100000D01*
X129552155Y-165100000D01*
X129492627Y-165106401D01*
X129492619Y-165106403D01*
X129443333Y-165124786D01*
X129373641Y-165129770D01*
X129356667Y-165124786D01*
X129307380Y-165106403D01*
X129307372Y-165106401D01*
X129247844Y-165100000D01*
X129200000Y-165100000D01*
X129200000Y-165800000D01*
X128800000Y-165800000D01*
X128800000Y-165100000D01*
X128752155Y-165100000D01*
X128692627Y-165106401D01*
X128692619Y-165106403D01*
X128643333Y-165124786D01*
X128573641Y-165129770D01*
X128556667Y-165124786D01*
X128507380Y-165106403D01*
X128507372Y-165106401D01*
X128447844Y-165100000D01*
X128400000Y-165100000D01*
X128400000Y-165800000D01*
X128000000Y-165800000D01*
X128000000Y-165100000D01*
X127952155Y-165100000D01*
X127892627Y-165106401D01*
X127892619Y-165106403D01*
X127843333Y-165124786D01*
X127773641Y-165129770D01*
X127756667Y-165124786D01*
X127707380Y-165106403D01*
X127707372Y-165106401D01*
X127647844Y-165100000D01*
X127600000Y-165100000D01*
X127600000Y-165800000D01*
X127200000Y-165800000D01*
X127200000Y-165100000D01*
X127152155Y-165100000D01*
X127092627Y-165106401D01*
X127092619Y-165106403D01*
X127043333Y-165124786D01*
X126973641Y-165129770D01*
X126956667Y-165124786D01*
X126907380Y-165106403D01*
X126907372Y-165106401D01*
X126847844Y-165100000D01*
X126800000Y-165100000D01*
X126800000Y-165800000D01*
X126400000Y-165800000D01*
X126400000Y-165100000D01*
X126352155Y-165100000D01*
X126292627Y-165106401D01*
X126292619Y-165106403D01*
X126243333Y-165124786D01*
X126173641Y-165129770D01*
X126156667Y-165124786D01*
X126107380Y-165106403D01*
X126107372Y-165106401D01*
X126047844Y-165100000D01*
X126000000Y-165100000D01*
X126000000Y-165800000D01*
X125600000Y-165800000D01*
X125600000Y-165100000D01*
X125552155Y-165100000D01*
X125492627Y-165106401D01*
X125492619Y-165106403D01*
X125443333Y-165124786D01*
X125373641Y-165129770D01*
X125356667Y-165124786D01*
X125307380Y-165106403D01*
X125307372Y-165106401D01*
X125247844Y-165100000D01*
X125200000Y-165100000D01*
X125200000Y-165800000D01*
X124800000Y-165800000D01*
X124800000Y-165100000D01*
X124752155Y-165100000D01*
X124692627Y-165106401D01*
X124692619Y-165106403D01*
X124643333Y-165124786D01*
X124573641Y-165129770D01*
X124556667Y-165124786D01*
X124507380Y-165106403D01*
X124507372Y-165106401D01*
X124447844Y-165100000D01*
X124400000Y-165100000D01*
X124400000Y-165800000D01*
X124000000Y-165800000D01*
X124000000Y-165100000D01*
X123952155Y-165100000D01*
X123892627Y-165106401D01*
X123892619Y-165106403D01*
X123843333Y-165124786D01*
X123773641Y-165129770D01*
X123756667Y-165124786D01*
X123707380Y-165106403D01*
X123707372Y-165106401D01*
X123647844Y-165100000D01*
X123600000Y-165100000D01*
X123600000Y-165800000D01*
X123200000Y-165800000D01*
X123200000Y-165359167D01*
X123200427Y-165351188D01*
X123200322Y-165351183D01*
X123200497Y-165347898D01*
X123200500Y-165347873D01*
X123200499Y-164852128D01*
X123194091Y-164792517D01*
X123175747Y-164743334D01*
X123170762Y-164673643D01*
X123175747Y-164656665D01*
X123194089Y-164607488D01*
X123194088Y-164607488D01*
X123194091Y-164607483D01*
X123200500Y-164547873D01*
X123200500Y-164547844D01*
X133200000Y-164547844D01*
X133206401Y-164607372D01*
X133206403Y-164607380D01*
X133224786Y-164656667D01*
X133229770Y-164726359D01*
X133224786Y-164743333D01*
X133206403Y-164792619D01*
X133206401Y-164792627D01*
X133200000Y-164852155D01*
X133200000Y-164900000D01*
X133900000Y-164900000D01*
X134300000Y-164900000D01*
X135000000Y-164900000D01*
X135000000Y-164852172D01*
X134999999Y-164852155D01*
X134993597Y-164792622D01*
X134993597Y-164792621D01*
X134975214Y-164743335D01*
X134970228Y-164673644D01*
X134975214Y-164656665D01*
X134993597Y-164607378D01*
X134993597Y-164607377D01*
X134999999Y-164547844D01*
X135000000Y-164547827D01*
X135000000Y-164500000D01*
X134300000Y-164500000D01*
X134300000Y-164900000D01*
X133900000Y-164900000D01*
X133900000Y-164500000D01*
X133200000Y-164500000D01*
X133200000Y-164547844D01*
X123200500Y-164547844D01*
X123200499Y-164295185D01*
X123200499Y-164052129D01*
X123200498Y-164052123D01*
X123194091Y-163992517D01*
X123194089Y-163992511D01*
X123175747Y-163943334D01*
X123170762Y-163873643D01*
X123175747Y-163856665D01*
X123194089Y-163807488D01*
X123194088Y-163807488D01*
X123194091Y-163807483D01*
X123200500Y-163747873D01*
X123200499Y-163252128D01*
X123194091Y-163192517D01*
X123175747Y-163143334D01*
X123170762Y-163073643D01*
X123175747Y-163056665D01*
X123194089Y-163007488D01*
X123194088Y-163007488D01*
X123194091Y-163007483D01*
X123200500Y-162947873D01*
X123200499Y-162452128D01*
X123194091Y-162392517D01*
X123175747Y-162343334D01*
X123170762Y-162273643D01*
X123175747Y-162256665D01*
X123194089Y-162207488D01*
X123194088Y-162207488D01*
X123194091Y-162207483D01*
X123200500Y-162147873D01*
X123200499Y-161652128D01*
X123194091Y-161592517D01*
X123175747Y-161543334D01*
X123170762Y-161473643D01*
X123175747Y-161456665D01*
X123194089Y-161407488D01*
X123194088Y-161407488D01*
X123194091Y-161407483D01*
X123200500Y-161347873D01*
X123200499Y-160852128D01*
X123194091Y-160792517D01*
X123175747Y-160743334D01*
X123170762Y-160673643D01*
X123175747Y-160656665D01*
X123194089Y-160607488D01*
X123194088Y-160607488D01*
X123194091Y-160607483D01*
X123200500Y-160547873D01*
X123200499Y-160052128D01*
X123194091Y-159992517D01*
X123175747Y-159943334D01*
X123170762Y-159873643D01*
X123175747Y-159856665D01*
X123194089Y-159807488D01*
X123194088Y-159807488D01*
X123194091Y-159807483D01*
X123200500Y-159747873D01*
X123200499Y-159252128D01*
X123194091Y-159192517D01*
X123193152Y-159190000D01*
X123175747Y-159143334D01*
X123170762Y-159073643D01*
X123175747Y-159056665D01*
X123194089Y-159007488D01*
X123194088Y-159007488D01*
X123194091Y-159007483D01*
X123200500Y-158947873D01*
X123200499Y-158452128D01*
X123194091Y-158392517D01*
X123194090Y-158392514D01*
X123175747Y-158343334D01*
X123170762Y-158273643D01*
X123175747Y-158256665D01*
X123183364Y-158236243D01*
X123194091Y-158207483D01*
X123200500Y-158147873D01*
X123200499Y-157652128D01*
X123194091Y-157592517D01*
X123175747Y-157543334D01*
X123170762Y-157473643D01*
X123175747Y-157456665D01*
X123185004Y-157431846D01*
X123194091Y-157407483D01*
X123200500Y-157347873D01*
X123200499Y-157224498D01*
X123220183Y-157157460D01*
X123272987Y-157111705D01*
X123324499Y-157100499D01*
X123647871Y-157100499D01*
X123647872Y-157100499D01*
X123707483Y-157094091D01*
X123756665Y-157075746D01*
X123826355Y-157070761D01*
X123843333Y-157075747D01*
X123892508Y-157094088D01*
X123892511Y-157094089D01*
X123892517Y-157094091D01*
X123952127Y-157100500D01*
X124447872Y-157100499D01*
X124507483Y-157094091D01*
X124556665Y-157075746D01*
X124579193Y-157074135D01*
X124600916Y-157067931D01*
X124619093Y-157071280D01*
X124626355Y-157070761D01*
X124635813Y-157073213D01*
X124639620Y-157074361D01*
X124692517Y-157094091D01*
X124711941Y-157096179D01*
X124723008Y-157099518D01*
X124742967Y-157112554D01*
X124765000Y-157121681D01*
X124771688Y-157131314D01*
X124781505Y-157137726D01*
X124791249Y-157159488D01*
X124804848Y-157179074D01*
X124805632Y-157191608D01*
X124810059Y-157201494D01*
X124807364Y-157219295D01*
X124808812Y-157242422D01*
X124802500Y-157274157D01*
X124802500Y-157431846D01*
X124833261Y-157586489D01*
X124833264Y-157586501D01*
X124893602Y-157732172D01*
X124893609Y-157732185D01*
X124981210Y-157863288D01*
X124981213Y-157863292D01*
X125092707Y-157974786D01*
X125092711Y-157974789D01*
X125223814Y-158062390D01*
X125223827Y-158062397D01*
X125362895Y-158120000D01*
X125369503Y-158122737D01*
X125524153Y-158153499D01*
X125524156Y-158153500D01*
X125524158Y-158153500D01*
X125681844Y-158153500D01*
X125681845Y-158153499D01*
X125836497Y-158122737D01*
X125982179Y-158062394D01*
X126113289Y-157974789D01*
X126224789Y-157863289D01*
X126254402Y-157818968D01*
X126308012Y-157774164D01*
X126377337Y-157765455D01*
X126381696Y-157766242D01*
X126413155Y-157772500D01*
X126413158Y-157772500D01*
X126570844Y-157772500D01*
X126570845Y-157772499D01*
X126725497Y-157741737D01*
X126867010Y-157683120D01*
X126936478Y-157675652D01*
X126961913Y-157683121D01*
X127103421Y-157741735D01*
X127103426Y-157741737D01*
X127247614Y-157770418D01*
X127258076Y-157772499D01*
X127258079Y-157772500D01*
X127258081Y-157772500D01*
X127415767Y-157772500D01*
X127415768Y-157772499D01*
X127570420Y-157741737D01*
X127716102Y-157681394D01*
X127734792Y-157668905D01*
X127801468Y-157648027D01*
X127868849Y-157666510D01*
X127915540Y-157718488D01*
X127925301Y-157747813D01*
X127931666Y-157779810D01*
X127931668Y-157779817D01*
X127992006Y-157925488D01*
X127992013Y-157925501D01*
X128079614Y-158056604D01*
X128079617Y-158056608D01*
X128191111Y-158168102D01*
X128191115Y-158168105D01*
X128322218Y-158255706D01*
X128322231Y-158255713D01*
X128429151Y-158300000D01*
X128467907Y-158316053D01*
X128605042Y-158343331D01*
X128622557Y-158346815D01*
X128622560Y-158346816D01*
X128622562Y-158346816D01*
X128780248Y-158346816D01*
X128780249Y-158346815D01*
X128934901Y-158316053D01*
X129059625Y-158264391D01*
X129080576Y-158255713D01*
X129080576Y-158255712D01*
X129080583Y-158255710D01*
X129211693Y-158168105D01*
X129323193Y-158056605D01*
X129357944Y-158004595D01*
X129411555Y-157959792D01*
X129480880Y-157951084D01*
X129543908Y-157981238D01*
X129548727Y-157985806D01*
X129552827Y-157989906D01*
X129552831Y-157989909D01*
X129683934Y-158077510D01*
X129683947Y-158077517D01*
X129793122Y-158122738D01*
X129829623Y-158137857D01*
X129981674Y-158168102D01*
X129984273Y-158168619D01*
X129984276Y-158168620D01*
X129984278Y-158168620D01*
X130141964Y-158168620D01*
X130141965Y-158168619D01*
X130296617Y-158137857D01*
X130442299Y-158077514D01*
X130573409Y-157989909D01*
X130684909Y-157878409D01*
X130772514Y-157747299D01*
X130774818Y-157741738D01*
X130799811Y-157681397D01*
X130832857Y-157601617D01*
X130863620Y-157446962D01*
X130863620Y-157289278D01*
X130863620Y-157289275D01*
X130851093Y-157226299D01*
X130854112Y-157192556D01*
X130856527Y-157158777D01*
X130857217Y-157157854D01*
X130857320Y-157156707D01*
X130878086Y-157129974D01*
X130898396Y-157102842D01*
X130899729Y-157102113D01*
X130900183Y-157101530D01*
X130929373Y-157085927D01*
X130939542Y-157082133D01*
X130957379Y-157075480D01*
X131027068Y-157070494D01*
X131044048Y-157075479D01*
X131092628Y-157093598D01*
X131092627Y-157093598D01*
X131152155Y-157099999D01*
X131152172Y-157100000D01*
X131200000Y-157100000D01*
X131200000Y-156942106D01*
X131202550Y-156933420D01*
X131201262Y-156924459D01*
X131214726Y-156891953D01*
X131219685Y-156875067D01*
X131222861Y-156872314D01*
X131224734Y-156867794D01*
X131243796Y-156842331D01*
X131249536Y-156826943D01*
X131283818Y-156735027D01*
X131325689Y-156679093D01*
X131391153Y-156654676D01*
X131459426Y-156669527D01*
X131508832Y-156718932D01*
X131516182Y-156735027D01*
X131550464Y-156826943D01*
X131556204Y-156842331D01*
X131563571Y-156852172D01*
X131575266Y-156867794D01*
X131579974Y-156880416D01*
X131588794Y-156890595D01*
X131591945Y-156912510D01*
X131599684Y-156933258D01*
X131600000Y-156942106D01*
X131600000Y-157100000D01*
X131647828Y-157100000D01*
X131647844Y-157099999D01*
X131707372Y-157093598D01*
X131707375Y-157093597D01*
X131755949Y-157075480D01*
X131825640Y-157070494D01*
X131842610Y-157075477D01*
X131892517Y-157094091D01*
X131952127Y-157100500D01*
X132447872Y-157100499D01*
X132507483Y-157094091D01*
X132556665Y-157075746D01*
X132626355Y-157070761D01*
X132643333Y-157075747D01*
X132692508Y-157094088D01*
X132692511Y-157094089D01*
X132692517Y-157094091D01*
X132752127Y-157100500D01*
X133076001Y-157100499D01*
X133143039Y-157120183D01*
X133188794Y-157172987D01*
X133200000Y-157224499D01*
X133200000Y-157347844D01*
X133206401Y-157407372D01*
X133206403Y-157407383D01*
X133224519Y-157455953D01*
X133229503Y-157525644D01*
X133224520Y-157542616D01*
X133205910Y-157592513D01*
X133205909Y-157592517D01*
X133199500Y-157652127D01*
X133199500Y-157652134D01*
X133199500Y-157652135D01*
X133199500Y-158147870D01*
X133199501Y-158147876D01*
X133205908Y-158207482D01*
X133219004Y-158242593D01*
X133224252Y-158256665D01*
X133224253Y-158256666D01*
X133229237Y-158326358D01*
X133224253Y-158343331D01*
X133205909Y-158392514D01*
X133205908Y-158392516D01*
X133200974Y-158438414D01*
X133199501Y-158452123D01*
X133199500Y-158452135D01*
X133199500Y-158625121D01*
X133179815Y-158692160D01*
X133127011Y-158737915D01*
X133122069Y-158739785D01*
X133122130Y-158739932D01*
X132970827Y-158802602D01*
X132970814Y-158802609D01*
X132839711Y-158890210D01*
X132839707Y-158890213D01*
X132728213Y-159001707D01*
X132728210Y-159001711D01*
X132640609Y-159132814D01*
X132640602Y-159132827D01*
X132580264Y-159278498D01*
X132580261Y-159278510D01*
X132549500Y-159433153D01*
X132549500Y-159590846D01*
X132580261Y-159745489D01*
X132580264Y-159745501D01*
X132640602Y-159891172D01*
X132640609Y-159891185D01*
X132728210Y-160022288D01*
X132728213Y-160022292D01*
X132839707Y-160133786D01*
X132839711Y-160133789D01*
X132970814Y-160221390D01*
X132970827Y-160221397D01*
X133122131Y-160284068D01*
X133121114Y-160286522D01*
X133169930Y-160318510D01*
X133198390Y-160382321D01*
X133199500Y-160398877D01*
X133199500Y-160547869D01*
X133199501Y-160547876D01*
X133205908Y-160607482D01*
X133218136Y-160640265D01*
X133224252Y-160656665D01*
X133224253Y-160656666D01*
X133229237Y-160726358D01*
X133224253Y-160743331D01*
X133205910Y-160792511D01*
X133205910Y-160792514D01*
X133205909Y-160792517D01*
X133199500Y-160852127D01*
X133199500Y-160852134D01*
X133199500Y-160852135D01*
X133199500Y-161347870D01*
X133199501Y-161347876D01*
X133205908Y-161407482D01*
X133219004Y-161442593D01*
X133224252Y-161456665D01*
X133224253Y-161456666D01*
X133229237Y-161526358D01*
X133224253Y-161543331D01*
X133205910Y-161592511D01*
X133205910Y-161592514D01*
X133205909Y-161592517D01*
X133199500Y-161652127D01*
X133199500Y-161652134D01*
X133199500Y-161652135D01*
X133199500Y-162147870D01*
X133199501Y-162147876D01*
X133205908Y-162207482D01*
X133207682Y-162212238D01*
X133224252Y-162256665D01*
X133224253Y-162256666D01*
X133229237Y-162326358D01*
X133224253Y-162343331D01*
X133205910Y-162392511D01*
X133205910Y-162392514D01*
X133205909Y-162392517D01*
X133199500Y-162452127D01*
X133199500Y-162452134D01*
X133199500Y-162452135D01*
X133199500Y-162947870D01*
X133199501Y-162947876D01*
X133205908Y-163007482D01*
X133217849Y-163039496D01*
X133224252Y-163056665D01*
X133224253Y-163056666D01*
X133229237Y-163126358D01*
X133224253Y-163143331D01*
X133205910Y-163192511D01*
X133205910Y-163192514D01*
X133205909Y-163192517D01*
X133199500Y-163252127D01*
X133199500Y-163252134D01*
X133199500Y-163252135D01*
X133199500Y-163747870D01*
X133199501Y-163747876D01*
X133205909Y-163807484D01*
X133224519Y-163857382D01*
X133229503Y-163927074D01*
X133224520Y-163944046D01*
X133206402Y-163992623D01*
X133206401Y-163992627D01*
X133200000Y-164052155D01*
X133200000Y-164100000D01*
X133357893Y-164100000D01*
X133424932Y-164119685D01*
X133432204Y-164124733D01*
X133457668Y-164143795D01*
X133457671Y-164143797D01*
X133486695Y-164154622D01*
X133592517Y-164194091D01*
X133652127Y-164200500D01*
X134021004Y-164200499D01*
X134021018Y-164200500D01*
X134031007Y-164200500D01*
X136542352Y-164200500D01*
X136609391Y-164220185D01*
X136648469Y-164260350D01*
X136669525Y-164295181D01*
X136669526Y-164295182D01*
X136669528Y-164295185D01*
X136789815Y-164415472D01*
X136935394Y-164503478D01*
X137097804Y-164554086D01*
X137168384Y-164560500D01*
X137168387Y-164560500D01*
X137831613Y-164560500D01*
X137831616Y-164560500D01*
X137902196Y-164554086D01*
X138064606Y-164503478D01*
X138210185Y-164415472D01*
X138210189Y-164415468D01*
X138228839Y-164396819D01*
X138290162Y-164363334D01*
X138316520Y-164360500D01*
X138693480Y-164360500D01*
X138760519Y-164380185D01*
X138781161Y-164396819D01*
X138789811Y-164405469D01*
X138789813Y-164405470D01*
X138789815Y-164405472D01*
X138935394Y-164493478D01*
X139097804Y-164544086D01*
X139168384Y-164550500D01*
X139168387Y-164550500D01*
X139831613Y-164550500D01*
X139831616Y-164550500D01*
X139902196Y-164544086D01*
X140064606Y-164493478D01*
X140210185Y-164405472D01*
X140210189Y-164405468D01*
X140218839Y-164396819D01*
X140280162Y-164363334D01*
X140306520Y-164360500D01*
X142351996Y-164360500D01*
X142443040Y-164342389D01*
X142487328Y-164333580D01*
X142580032Y-164295181D01*
X142614807Y-164280777D01*
X142614808Y-164280776D01*
X142614811Y-164280775D01*
X142729543Y-164204114D01*
X144689114Y-162244543D01*
X144765775Y-162129811D01*
X144818580Y-162002328D01*
X144845500Y-161866994D01*
X144845500Y-161729006D01*
X144845500Y-149536007D01*
X144838437Y-149500501D01*
X144838337Y-149500000D01*
X144824869Y-149432289D01*
X144818580Y-149400672D01*
X144816978Y-149396805D01*
X144765777Y-149273192D01*
X144689112Y-149158454D01*
X143386818Y-147856160D01*
X143353333Y-147794837D01*
X143350499Y-147768479D01*
X143350499Y-146809998D01*
X143350498Y-146809981D01*
X143339999Y-146707203D01*
X143339998Y-146707200D01*
X143320231Y-146647547D01*
X143284814Y-146540666D01*
X143192712Y-146391344D01*
X143068656Y-146267288D01*
X143065613Y-146264245D01*
X143032128Y-146202922D01*
X143037112Y-146133230D01*
X143078984Y-146077297D01*
X143133898Y-146054090D01*
X143189764Y-146045242D01*
X143385868Y-145981523D01*
X143569590Y-145887912D01*
X143736409Y-145766709D01*
X143736410Y-145766709D01*
X143882209Y-145620910D01*
X143882209Y-145620909D01*
X144003412Y-145454090D01*
X144097023Y-145270368D01*
X144160743Y-145074259D01*
X144193000Y-144870604D01*
X144193000Y-143677500D01*
X143007000Y-143677500D01*
X142939961Y-143657815D01*
X142894206Y-143605011D01*
X142883000Y-143553500D01*
X142883000Y-143427500D01*
X142757000Y-143427500D01*
X142689961Y-143407815D01*
X142644206Y-143355011D01*
X142633000Y-143303500D01*
X142633000Y-142537417D01*
X142730007Y-142593425D01*
X142857174Y-142627500D01*
X142988826Y-142627500D01*
X143115993Y-142593425D01*
X143133000Y-142583606D01*
X143133000Y-143177500D01*
X144193000Y-143177500D01*
X144193000Y-141984395D01*
X144160743Y-141780740D01*
X144097023Y-141584631D01*
X144003412Y-141400909D01*
X143882209Y-141234090D01*
X143882209Y-141234089D01*
X143736410Y-141088290D01*
X143569590Y-140967087D01*
X143385868Y-140873476D01*
X143189755Y-140809755D01*
X143133000Y-140800765D01*
X143133000Y-141671393D01*
X143115993Y-141661575D01*
X142988826Y-141627500D01*
X142857174Y-141627500D01*
X142730007Y-141661575D01*
X142633000Y-141717582D01*
X142633000Y-140800765D01*
X142576244Y-140809755D01*
X142576243Y-140809755D01*
X142380131Y-140873476D01*
X142196409Y-140967087D01*
X142029590Y-141088290D01*
X142029589Y-141088290D01*
X141883790Y-141234089D01*
X141883790Y-141234090D01*
X141762585Y-141400912D01*
X141739892Y-141445449D01*
X141691917Y-141496245D01*
X141624096Y-141513039D01*
X141557961Y-141490501D01*
X141518923Y-141445448D01*
X141500945Y-141410165D01*
X141377848Y-141240738D01*
X141229762Y-141092652D01*
X141060334Y-140969554D01*
X141049504Y-140964036D01*
X140873732Y-140874475D01*
X140674560Y-140809761D01*
X140467718Y-140777000D01*
X140467713Y-140777000D01*
X140258287Y-140777000D01*
X140258282Y-140777000D01*
X140051440Y-140809761D01*
X140020344Y-140819864D01*
X140005132Y-140820298D01*
X139990875Y-140825616D01*
X139970917Y-140821274D01*
X139950503Y-140821857D01*
X139936418Y-140813769D01*
X139922602Y-140810764D01*
X139894348Y-140789613D01*
X139719590Y-140614855D01*
X139719588Y-140614852D01*
X139600717Y-140495981D01*
X139600709Y-140495975D01*
X139482107Y-140427501D01*
X139482104Y-140427500D01*
X139463785Y-140416923D01*
X139311057Y-140375999D01*
X139152943Y-140375999D01*
X139145347Y-140375999D01*
X139145331Y-140376000D01*
X136612943Y-140376000D01*
X136460216Y-140416923D01*
X136460209Y-140416926D01*
X136323290Y-140495975D01*
X136323282Y-140495981D01*
X136211481Y-140607782D01*
X136211475Y-140607790D01*
X136132426Y-140744709D01*
X136132423Y-140744716D01*
X136091500Y-140897443D01*
X136091500Y-143931903D01*
X136071815Y-143998942D01*
X136055181Y-144019584D01*
X135550584Y-144524181D01*
X135489261Y-144557666D01*
X135462903Y-144560500D01*
X131364500Y-144560500D01*
X131297461Y-144540815D01*
X131251706Y-144488011D01*
X131240500Y-144436500D01*
X131240499Y-143843998D01*
X131240498Y-143843980D01*
X131229999Y-143741203D01*
X131229998Y-143741200D01*
X131184869Y-143605011D01*
X131174814Y-143574666D01*
X131082712Y-143425344D01*
X130958656Y-143301288D01*
X130809334Y-143209186D01*
X130642797Y-143154001D01*
X130642795Y-143154000D01*
X130540010Y-143143500D01*
X129139998Y-143143500D01*
X129139981Y-143143501D01*
X129037203Y-143154000D01*
X129037200Y-143154001D01*
X128870668Y-143209185D01*
X128870663Y-143209187D01*
X128721342Y-143301289D01*
X128597289Y-143425342D01*
X128505187Y-143574663D01*
X128505185Y-143574668D01*
X128477633Y-143657815D01*
X128450001Y-143741203D01*
X128450001Y-143741204D01*
X128450000Y-143741204D01*
X128439500Y-143843983D01*
X128439500Y-144444001D01*
X128439501Y-144444019D01*
X128450000Y-144546796D01*
X128450001Y-144546799D01*
X128505185Y-144713331D01*
X128505187Y-144713336D01*
X128522950Y-144742135D01*
X128597096Y-144862345D01*
X128597289Y-144862657D01*
X128680951Y-144946319D01*
X128714436Y-145007642D01*
X128709452Y-145077334D01*
X128680951Y-145121681D01*
X128597289Y-145205342D01*
X128505187Y-145354663D01*
X128505185Y-145354668D01*
X128485953Y-145412707D01*
X128450001Y-145521203D01*
X128450001Y-145521204D01*
X128450000Y-145521204D01*
X128439500Y-145623983D01*
X128439500Y-145623991D01*
X128439500Y-145867583D01*
X128439501Y-145995500D01*
X128419817Y-146062539D01*
X128367013Y-146108294D01*
X128315501Y-146119500D01*
X127684500Y-146119500D01*
X127617461Y-146099815D01*
X127571706Y-146047011D01*
X127560500Y-145995500D01*
X127560499Y-145623998D01*
X127560498Y-145623980D01*
X127549999Y-145521203D01*
X127549998Y-145521200D01*
X127527759Y-145454087D01*
X127494814Y-145354666D01*
X127402712Y-145205344D01*
X127338695Y-145141327D01*
X127305210Y-145080004D01*
X127310194Y-145010312D01*
X127338695Y-144965964D01*
X127442317Y-144862342D01*
X127534356Y-144713124D01*
X127534358Y-144713119D01*
X127589505Y-144546697D01*
X127589506Y-144546690D01*
X127599999Y-144443986D01*
X127600000Y-144443973D01*
X127600000Y-144394000D01*
X124800001Y-144394000D01*
X124800001Y-144443986D01*
X124810494Y-144546697D01*
X124865641Y-144713119D01*
X124865643Y-144713124D01*
X124957684Y-144862345D01*
X125021304Y-144925965D01*
X125025354Y-144933382D01*
X125032169Y-144938382D01*
X125041849Y-144963590D01*
X125054789Y-144987288D01*
X125054186Y-144995717D01*
X125057216Y-145003608D01*
X125051731Y-145030045D01*
X125049805Y-145056980D01*
X125044370Y-145065526D01*
X125043023Y-145072021D01*
X125023426Y-145098464D01*
X125022146Y-145100478D01*
X125021735Y-145100896D01*
X124917288Y-145205344D01*
X124913907Y-145210824D01*
X124904355Y-145220563D01*
X124879403Y-145234500D01*
X124856071Y-145251021D01*
X124849284Y-145251325D01*
X124843357Y-145254637D01*
X124814832Y-145252873D01*
X124786271Y-145254156D01*
X124778218Y-145250609D01*
X124773621Y-145250325D01*
X124767684Y-145245969D01*
X124746941Y-145236833D01*
X124712179Y-145213606D01*
X124712172Y-145213602D01*
X124566501Y-145153264D01*
X124566489Y-145153261D01*
X124411845Y-145122500D01*
X124411842Y-145122500D01*
X124254158Y-145122500D01*
X124254155Y-145122500D01*
X124099510Y-145153261D01*
X124099498Y-145153264D01*
X123953827Y-145213602D01*
X123953814Y-145213609D01*
X123822711Y-145301210D01*
X123822707Y-145301213D01*
X123711213Y-145412707D01*
X123711210Y-145412711D01*
X123623609Y-145543814D01*
X123623602Y-145543827D01*
X123563264Y-145689498D01*
X123563261Y-145689510D01*
X123532500Y-145844153D01*
X123532500Y-145995500D01*
X123530405Y-146002632D01*
X123531654Y-146009960D01*
X123520695Y-146035700D01*
X123512815Y-146062539D01*
X123507197Y-146067406D01*
X123504286Y-146074246D01*
X123481149Y-146089977D01*
X123460011Y-146108294D01*
X123451223Y-146110325D01*
X123446507Y-146113532D01*
X123417955Y-146118015D01*
X123411714Y-146119458D01*
X123410094Y-146119500D01*
X123390994Y-146119500D01*
X123253006Y-146119500D01*
X123229461Y-146124183D01*
X123218871Y-146124458D01*
X123218117Y-146124257D01*
X123215657Y-146124500D01*
X122561335Y-146124500D01*
X122498214Y-146107232D01*
X122482069Y-146097684D01*
X122398493Y-146048257D01*
X122398492Y-146048256D01*
X122398491Y-146048256D01*
X122398488Y-146048255D01*
X122234580Y-146000635D01*
X122235346Y-145997997D01*
X122183633Y-145971913D01*
X122148165Y-145911715D01*
X122150873Y-145841898D01*
X122180722Y-145793741D01*
X122280807Y-145693657D01*
X122372909Y-145544335D01*
X122428094Y-145377798D01*
X122438595Y-145275010D01*
X122438594Y-144224993D01*
X122437246Y-144211801D01*
X122428094Y-144122204D01*
X122428093Y-144122201D01*
X122394089Y-144019584D01*
X122372909Y-143955667D01*
X122280807Y-143806345D01*
X122156751Y-143682289D01*
X122007429Y-143590187D01*
X121840892Y-143535002D01*
X121840890Y-143535001D01*
X121738105Y-143524501D01*
X121138093Y-143524501D01*
X121138075Y-143524502D01*
X121035298Y-143535001D01*
X121035295Y-143535002D01*
X120868763Y-143590186D01*
X120868758Y-143590188D01*
X120719437Y-143682290D01*
X120595383Y-143806344D01*
X120595378Y-143806350D01*
X120593336Y-143809662D01*
X120591342Y-143811454D01*
X120590902Y-143812012D01*
X120590806Y-143811936D01*
X120541386Y-143856384D01*
X120472423Y-143867603D01*
X120408342Y-143839756D01*
X120382263Y-143809657D01*
X120380414Y-143806660D01*
X120380411Y-143806656D01*
X120256440Y-143682685D01*
X120107219Y-143590644D01*
X120107214Y-143590642D01*
X119940792Y-143535495D01*
X119940785Y-143535494D01*
X119838081Y-143525001D01*
X119706083Y-143525001D01*
X119695271Y-143521826D01*
X119684066Y-143523031D01*
X119662345Y-143512158D01*
X119639044Y-143505316D01*
X119631664Y-143496799D01*
X119621587Y-143491755D01*
X119609193Y-143470867D01*
X119593289Y-143452512D01*
X119591685Y-143441357D01*
X119585935Y-143431666D01*
X119586801Y-143407395D01*
X119583345Y-143383354D01*
X119588026Y-143373102D01*
X119588429Y-143361841D01*
X119602280Y-143341891D01*
X119612370Y-143319798D01*
X119622883Y-143312216D01*
X119628277Y-143304449D01*
X119658629Y-143286440D01*
X119681094Y-143277135D01*
X119775725Y-143237939D01*
X119823177Y-143228500D01*
X119963686Y-143228500D01*
X119963694Y-143228500D01*
X120000569Y-143225598D01*
X120000571Y-143225597D01*
X120000573Y-143225597D01*
X120057062Y-143209185D01*
X120158398Y-143179744D01*
X120299865Y-143096081D01*
X120416081Y-142979865D01*
X120416267Y-142979549D01*
X120416477Y-142979353D01*
X120420861Y-142973702D01*
X120421772Y-142974409D01*
X120467336Y-142931866D01*
X120536077Y-142919362D01*
X120600667Y-142946006D01*
X120624855Y-142973921D01*
X120625139Y-142973702D01*
X120629179Y-142978911D01*
X120629732Y-142979548D01*
X120629919Y-142979865D01*
X120629921Y-142979867D01*
X120629923Y-142979870D01*
X120746129Y-143096076D01*
X120746133Y-143096079D01*
X120746135Y-143096081D01*
X120887602Y-143179744D01*
X120929224Y-143191836D01*
X121045426Y-143225597D01*
X121045429Y-143225597D01*
X121045431Y-143225598D01*
X121082306Y-143228500D01*
X121082314Y-143228500D01*
X122238686Y-143228500D01*
X122238694Y-143228500D01*
X122275569Y-143225598D01*
X122275571Y-143225597D01*
X122275573Y-143225597D01*
X122332062Y-143209185D01*
X122433398Y-143179744D01*
X122490848Y-143145767D01*
X122553969Y-143128500D01*
X124955477Y-143128500D01*
X125022516Y-143148185D01*
X125068271Y-143200989D01*
X125078215Y-143270147D01*
X125049190Y-143333703D01*
X125043158Y-143340181D01*
X124957684Y-143425654D01*
X124865643Y-143574875D01*
X124865641Y-143574880D01*
X124810494Y-143741302D01*
X124810493Y-143741309D01*
X124800000Y-143844013D01*
X124800000Y-143894000D01*
X125950000Y-143894000D01*
X126450000Y-143894000D01*
X127599999Y-143894000D01*
X127599999Y-143844028D01*
X127599998Y-143844013D01*
X127589505Y-143741302D01*
X127534358Y-143574880D01*
X127534356Y-143574875D01*
X127442315Y-143425654D01*
X127318345Y-143301684D01*
X127169124Y-143209643D01*
X127169119Y-143209641D01*
X127002697Y-143154494D01*
X127002690Y-143154493D01*
X126899986Y-143144000D01*
X126450000Y-143144000D01*
X126450000Y-143894000D01*
X125950000Y-143894000D01*
X125950000Y-143173130D01*
X125860541Y-143133260D01*
X125853212Y-143127025D01*
X125843980Y-143124315D01*
X125827033Y-143104758D01*
X125807321Y-143087990D01*
X125804525Y-143078782D01*
X125798225Y-143071511D01*
X125794542Y-143045896D01*
X125787024Y-143021133D01*
X125789650Y-143011876D01*
X125788281Y-143002353D01*
X125799031Y-142978813D01*
X125806095Y-142953917D01*
X125813308Y-142947549D01*
X125817306Y-142938797D01*
X125823338Y-142932319D01*
X126235112Y-142520545D01*
X126235114Y-142520543D01*
X126311775Y-142405811D01*
X126364580Y-142278328D01*
X126381488Y-142193326D01*
X126391500Y-142142996D01*
X126391500Y-141540500D01*
X126411185Y-141473461D01*
X126463989Y-141427706D01*
X126515500Y-141416500D01*
X130233480Y-141416500D01*
X130327955Y-141397707D01*
X130368812Y-141389580D01*
X130432553Y-141363177D01*
X130496291Y-141336777D01*
X130496292Y-141336776D01*
X130496295Y-141336775D01*
X130611027Y-141260114D01*
X131033114Y-140838027D01*
X131057187Y-140801999D01*
X131575000Y-140801999D01*
X131581581Y-140801999D01*
X131652102Y-140795591D01*
X131652107Y-140795590D01*
X131814396Y-140745018D01*
X131959877Y-140657072D01*
X132080072Y-140536877D01*
X132168019Y-140391395D01*
X132218590Y-140229106D01*
X132225000Y-140158572D01*
X132225000Y-140077000D01*
X131575000Y-140077000D01*
X131575000Y-140801999D01*
X131057187Y-140801999D01*
X131109775Y-140723295D01*
X131162580Y-140595812D01*
X131175836Y-140529172D01*
X131189500Y-140460480D01*
X131189500Y-138810862D01*
X131209185Y-138743823D01*
X131261989Y-138698068D01*
X131331147Y-138688124D01*
X131394703Y-138717149D01*
X131399913Y-138722000D01*
X131451000Y-138722000D01*
X131518039Y-138741685D01*
X131563794Y-138794489D01*
X131575000Y-138846000D01*
X131575000Y-139577000D01*
X132224999Y-139577000D01*
X132224999Y-139555000D01*
X132217100Y-139547101D01*
X132176961Y-139535315D01*
X132131206Y-139482511D01*
X132120000Y-139431000D01*
X132120000Y-138491988D01*
X132129940Y-138509205D01*
X132185795Y-138565060D01*
X132254204Y-138604556D01*
X132330504Y-138625000D01*
X132409496Y-138625000D01*
X132485796Y-138604556D01*
X132554205Y-138565060D01*
X132610060Y-138509205D01*
X132620000Y-138491988D01*
X132620000Y-139399115D01*
X132627584Y-139397914D01*
X132792255Y-139344408D01*
X132946524Y-139265804D01*
X133086602Y-139164032D01*
X133209032Y-139041602D01*
X133310804Y-138901524D01*
X133389408Y-138747257D01*
X133442914Y-138582584D01*
X133470000Y-138411571D01*
X133470000Y-138075000D01*
X132670000Y-138075000D01*
X132670000Y-137575000D01*
X133470000Y-137575000D01*
X133470000Y-137238428D01*
X133458829Y-137167898D01*
X133467784Y-137098604D01*
X133512780Y-137045152D01*
X133579531Y-137024513D01*
X133581302Y-137024500D01*
X134223903Y-137024500D01*
X134290942Y-137044185D01*
X134311584Y-137060819D01*
X134663181Y-137412416D01*
X134696666Y-137473739D01*
X134699500Y-137500097D01*
X134699500Y-137831613D01*
X134705913Y-137902192D01*
X134705913Y-137902194D01*
X134705914Y-137902196D01*
X134739168Y-138008913D01*
X134756522Y-138064606D01*
X134844530Y-138210188D01*
X134964811Y-138330469D01*
X134964813Y-138330470D01*
X134964815Y-138330472D01*
X135110394Y-138418478D01*
X135272804Y-138469086D01*
X135343384Y-138475500D01*
X135343387Y-138475500D01*
X135856613Y-138475500D01*
X135856616Y-138475500D01*
X135927196Y-138469086D01*
X136089606Y-138418478D01*
X136235185Y-138330472D01*
X136235189Y-138330468D01*
X136337319Y-138228339D01*
X136398642Y-138194854D01*
X136468334Y-138199838D01*
X136512681Y-138228339D01*
X136614811Y-138330469D01*
X136614813Y-138330470D01*
X136614815Y-138330472D01*
X136760394Y-138418478D01*
X136922804Y-138469086D01*
X136993384Y-138475500D01*
X136993387Y-138475500D01*
X137506613Y-138475500D01*
X137506616Y-138475500D01*
X137577196Y-138469086D01*
X137739606Y-138418478D01*
X137885185Y-138330472D01*
X138005472Y-138210185D01*
X138093478Y-138064606D01*
X138144086Y-137902196D01*
X138150500Y-137831616D01*
X138150500Y-137168384D01*
X138144086Y-137097804D01*
X138093478Y-136935394D01*
X138005472Y-136789815D01*
X138005470Y-136789813D01*
X138005469Y-136789811D01*
X137885188Y-136669530D01*
X137859202Y-136653821D01*
X137779805Y-136605823D01*
X137732618Y-136554296D01*
X137720780Y-136485436D01*
X137748049Y-136421108D01*
X137779806Y-136393590D01*
X137884877Y-136330072D01*
X138005072Y-136209877D01*
X138093019Y-136064395D01*
X138143590Y-135902106D01*
X138150000Y-135831572D01*
X138150000Y-135750000D01*
X137374000Y-135750000D01*
X137306961Y-135730315D01*
X137261206Y-135677511D01*
X137250000Y-135626000D01*
X137250000Y-135374000D01*
X137269685Y-135306961D01*
X137322489Y-135261206D01*
X137374000Y-135250000D01*
X138149999Y-135250000D01*
X138149999Y-135168417D01*
X138143591Y-135097897D01*
X138143590Y-135097892D01*
X138093019Y-134935604D01*
X138091637Y-134933318D01*
X138091637Y-134933317D01*
X138055523Y-134874038D01*
X141399500Y-134874038D01*
X141399500Y-135125962D01*
X141418760Y-135247563D01*
X141438910Y-135374785D01*
X141516760Y-135614383D01*
X141575831Y-135730315D01*
X141627445Y-135831613D01*
X141631132Y-135838848D01*
X141779201Y-136042649D01*
X141779205Y-136042654D01*
X141957345Y-136220794D01*
X141957350Y-136220798D01*
X142135117Y-136349952D01*
X142161155Y-136368870D01*
X142304184Y-136441747D01*
X142385616Y-136483239D01*
X142385618Y-136483239D01*
X142385621Y-136483241D01*
X142625215Y-136561090D01*
X142874038Y-136600500D01*
X142874039Y-136600500D01*
X143125961Y-136600500D01*
X143125962Y-136600500D01*
X143374785Y-136561090D01*
X143614379Y-136483241D01*
X143838845Y-136368870D01*
X144042656Y-136220793D01*
X144220793Y-136042656D01*
X144368870Y-135838845D01*
X144483241Y-135614379D01*
X144561090Y-135374785D01*
X144600500Y-135125962D01*
X144600500Y-134874038D01*
X144561090Y-134625215D01*
X144483241Y-134385621D01*
X144483239Y-134385618D01*
X144483239Y-134385616D01*
X144433221Y-134287452D01*
X144368870Y-134161155D01*
X144330087Y-134107775D01*
X144220798Y-133957350D01*
X144220794Y-133957345D01*
X144042654Y-133779205D01*
X144042649Y-133779201D01*
X143838848Y-133631132D01*
X143838847Y-133631131D01*
X143838845Y-133631130D01*
X143753026Y-133587403D01*
X143614383Y-133516760D01*
X143374785Y-133438910D01*
X143125962Y-133399500D01*
X142874038Y-133399500D01*
X142749626Y-133419205D01*
X142625214Y-133438910D01*
X142385616Y-133516760D01*
X142161151Y-133631132D01*
X141957350Y-133779201D01*
X141957345Y-133779205D01*
X141779205Y-133957345D01*
X141779201Y-133957350D01*
X141631132Y-134161151D01*
X141516760Y-134385616D01*
X141438910Y-134625214D01*
X141412840Y-134789811D01*
X141399500Y-134874038D01*
X138055523Y-134874038D01*
X137998259Y-134780041D01*
X137991032Y-134753047D01*
X137980694Y-134727079D01*
X137982120Y-134719754D01*
X137980191Y-134712548D01*
X137988705Y-134685933D01*
X137994048Y-134658497D01*
X137999290Y-134652846D01*
X138001481Y-134646001D01*
X138019252Y-134631334D01*
X138039056Y-134609991D01*
X138146003Y-134544026D01*
X138269026Y-134421003D01*
X138360362Y-134272925D01*
X138415087Y-134107775D01*
X138425500Y-134005848D01*
X138425500Y-132994152D01*
X138415087Y-132892225D01*
X138360362Y-132727075D01*
X138337244Y-132689596D01*
X138318805Y-132622204D01*
X138339728Y-132555541D01*
X138393370Y-132510771D01*
X138442784Y-132500500D01*
X145375500Y-132500500D01*
X145442539Y-132520185D01*
X145488294Y-132572989D01*
X145499500Y-132624500D01*
X145499500Y-171375500D01*
X145479815Y-171442539D01*
X145427011Y-171488294D01*
X145375500Y-171499500D01*
X134924000Y-171499500D01*
X134856961Y-171479815D01*
X134811206Y-171427011D01*
X134800000Y-171375500D01*
X134800000Y-168874038D01*
X141399500Y-168874038D01*
X141399500Y-169125961D01*
X141438910Y-169374785D01*
X141516760Y-169614383D01*
X141631132Y-169838848D01*
X141779201Y-170042649D01*
X141779205Y-170042654D01*
X141957345Y-170220794D01*
X141957350Y-170220798D01*
X142135117Y-170349952D01*
X142161155Y-170368870D01*
X142304184Y-170441747D01*
X142385616Y-170483239D01*
X142385618Y-170483239D01*
X142385621Y-170483241D01*
X142625215Y-170561090D01*
X142874038Y-170600500D01*
X142874039Y-170600500D01*
X143125961Y-170600500D01*
X143125962Y-170600500D01*
X143374785Y-170561090D01*
X143614379Y-170483241D01*
X143838845Y-170368870D01*
X144042656Y-170220793D01*
X144220793Y-170042656D01*
X144368870Y-169838845D01*
X144483241Y-169614379D01*
X144561090Y-169374785D01*
X144600500Y-169125962D01*
X144600500Y-168874038D01*
X144561090Y-168625215D01*
X144483241Y-168385621D01*
X144483239Y-168385618D01*
X144483239Y-168385616D01*
X144441747Y-168304184D01*
X144368870Y-168161155D01*
X144349952Y-168135117D01*
X144220798Y-167957350D01*
X144220794Y-167957345D01*
X144042654Y-167779205D01*
X144042649Y-167779201D01*
X143838848Y-167631132D01*
X143838847Y-167631131D01*
X143838845Y-167631130D01*
X143768747Y-167595413D01*
X143614383Y-167516760D01*
X143374785Y-167438910D01*
X143125962Y-167399500D01*
X142874038Y-167399500D01*
X142749626Y-167419205D01*
X142625214Y-167438910D01*
X142385616Y-167516760D01*
X142161151Y-167631132D01*
X141957350Y-167779201D01*
X141957345Y-167779205D01*
X141779205Y-167957345D01*
X141779201Y-167957350D01*
X141631132Y-168161151D01*
X141516760Y-168385616D01*
X141438910Y-168625214D01*
X141399500Y-168874038D01*
X134800000Y-168874038D01*
X134800000Y-166862070D01*
X134819685Y-166795031D01*
X134849693Y-166762801D01*
X134857187Y-166757190D01*
X134943352Y-166642088D01*
X134943354Y-166642086D01*
X134993596Y-166507379D01*
X134993598Y-166507372D01*
X134999999Y-166447844D01*
X135000000Y-166447827D01*
X135000000Y-166300000D01*
X133294000Y-166300000D01*
X133226961Y-166280315D01*
X133181206Y-166227511D01*
X133176672Y-166206672D01*
X133170000Y-166200000D01*
X123230000Y-166200000D01*
X123220023Y-166209976D01*
X123210315Y-166243039D01*
X123157511Y-166288794D01*
X123106000Y-166300000D01*
X121400000Y-166300000D01*
X121400000Y-166447844D01*
X121406401Y-166507372D01*
X121406403Y-166507379D01*
X121456645Y-166642086D01*
X121456647Y-166642088D01*
X121542812Y-166757190D01*
X121550307Y-166762801D01*
X121592180Y-166818733D01*
X121600000Y-166862070D01*
X121600000Y-171375500D01*
X121580315Y-171442539D01*
X121527511Y-171488294D01*
X121476000Y-171499500D01*
X110624500Y-171499500D01*
X110557461Y-171479815D01*
X110511706Y-171427011D01*
X110500500Y-171375500D01*
X110500500Y-168874038D01*
X111399500Y-168874038D01*
X111399500Y-169125961D01*
X111438910Y-169374785D01*
X111516760Y-169614383D01*
X111631132Y-169838848D01*
X111779201Y-170042649D01*
X111779205Y-170042654D01*
X111957345Y-170220794D01*
X111957350Y-170220798D01*
X112135117Y-170349952D01*
X112161155Y-170368870D01*
X112304184Y-170441747D01*
X112385616Y-170483239D01*
X112385618Y-170483239D01*
X112385621Y-170483241D01*
X112625215Y-170561090D01*
X112874038Y-170600500D01*
X112874039Y-170600500D01*
X113125961Y-170600500D01*
X113125962Y-170600500D01*
X113374785Y-170561090D01*
X113614379Y-170483241D01*
X113838845Y-170368870D01*
X114042656Y-170220793D01*
X114220793Y-170042656D01*
X114368870Y-169838845D01*
X114483241Y-169614379D01*
X114561090Y-169374785D01*
X114600500Y-169125962D01*
X114600500Y-168874038D01*
X114561090Y-168625215D01*
X114483241Y-168385621D01*
X114483239Y-168385618D01*
X114483239Y-168385616D01*
X114441747Y-168304184D01*
X114368870Y-168161155D01*
X114349952Y-168135117D01*
X114220798Y-167957350D01*
X114220794Y-167957345D01*
X114042654Y-167779205D01*
X114042649Y-167779201D01*
X113838848Y-167631132D01*
X113838847Y-167631131D01*
X113838845Y-167631130D01*
X113768747Y-167595413D01*
X113614383Y-167516760D01*
X113374785Y-167438910D01*
X113125962Y-167399500D01*
X112874038Y-167399500D01*
X112749626Y-167419205D01*
X112625214Y-167438910D01*
X112385616Y-167516760D01*
X112161151Y-167631132D01*
X111957350Y-167779201D01*
X111957345Y-167779205D01*
X111779205Y-167957345D01*
X111779201Y-167957350D01*
X111631132Y-168161151D01*
X111516760Y-168385616D01*
X111438910Y-168625214D01*
X111399500Y-168874038D01*
X110500500Y-168874038D01*
X110500500Y-151179155D01*
X110919000Y-151179155D01*
X110919000Y-151477000D01*
X111619000Y-151477000D01*
X112119000Y-151477000D01*
X112819000Y-151477000D01*
X112819000Y-151179172D01*
X112818999Y-151179155D01*
X115019000Y-151179155D01*
X115019000Y-151477000D01*
X115719000Y-151477000D01*
X116219000Y-151477000D01*
X116925000Y-151477000D01*
X116992039Y-151496685D01*
X117037794Y-151549489D01*
X117049000Y-151601000D01*
X117049000Y-151629000D01*
X117352000Y-151629000D01*
X117352000Y-150929000D01*
X117351999Y-150928999D01*
X117303693Y-150929000D01*
X117303675Y-150929001D01*
X117204392Y-150939144D01*
X117043518Y-150992452D01*
X117043509Y-150992456D01*
X117019892Y-151007024D01*
X116952500Y-151025464D01*
X116885836Y-151004541D01*
X116855529Y-150975796D01*
X116776186Y-150869809D01*
X116661093Y-150783649D01*
X116661086Y-150783645D01*
X116526379Y-150733403D01*
X116526372Y-150733401D01*
X116466844Y-150727000D01*
X116219000Y-150727000D01*
X116219000Y-151477000D01*
X115719000Y-151477000D01*
X115719000Y-150727000D01*
X115471155Y-150727000D01*
X115411627Y-150733401D01*
X115411620Y-150733403D01*
X115276913Y-150783645D01*
X115276906Y-150783649D01*
X115161812Y-150869809D01*
X115161809Y-150869812D01*
X115075649Y-150984906D01*
X115075645Y-150984913D01*
X115025403Y-151119620D01*
X115025401Y-151119627D01*
X115019000Y-151179155D01*
X112818999Y-151179155D01*
X112812598Y-151119627D01*
X112812596Y-151119620D01*
X112762354Y-150984913D01*
X112762350Y-150984906D01*
X112676190Y-150869812D01*
X112676187Y-150869809D01*
X112561093Y-150783649D01*
X112561086Y-150783645D01*
X112426379Y-150733403D01*
X112426372Y-150733401D01*
X112366844Y-150727000D01*
X112119000Y-150727000D01*
X112119000Y-151477000D01*
X111619000Y-151477000D01*
X111619000Y-150727000D01*
X111371155Y-150727000D01*
X111311627Y-150733401D01*
X111311620Y-150733403D01*
X111176913Y-150783645D01*
X111176906Y-150783649D01*
X111061812Y-150869809D01*
X111061809Y-150869812D01*
X110975649Y-150984906D01*
X110975645Y-150984913D01*
X110925403Y-151119620D01*
X110925401Y-151119627D01*
X110919000Y-151179155D01*
X110500500Y-151179155D01*
X110500500Y-139201677D01*
X111275000Y-139201677D01*
X111275000Y-139225000D01*
X112000000Y-139225000D01*
X112000000Y-138525000D01*
X111999999Y-138524999D01*
X111951693Y-138525000D01*
X111951675Y-138525001D01*
X111852392Y-138535144D01*
X111691518Y-138588452D01*
X111691507Y-138588457D01*
X111547271Y-138677424D01*
X111547267Y-138677427D01*
X111427427Y-138797267D01*
X111427424Y-138797271D01*
X111338457Y-138941507D01*
X111338452Y-138941518D01*
X111285144Y-139102393D01*
X111275000Y-139201677D01*
X110500500Y-139201677D01*
X110500500Y-134874038D01*
X111399500Y-134874038D01*
X111399500Y-135125962D01*
X111418760Y-135247563D01*
X111438910Y-135374785D01*
X111516760Y-135614383D01*
X111575831Y-135730315D01*
X111627445Y-135831613D01*
X111631132Y-135838848D01*
X111779201Y-136042649D01*
X111779205Y-136042654D01*
X111957345Y-136220794D01*
X111957350Y-136220798D01*
X112135117Y-136349952D01*
X112161155Y-136368870D01*
X112304184Y-136441747D01*
X112385616Y-136483239D01*
X112385618Y-136483239D01*
X112385621Y-136483241D01*
X112625215Y-136561090D01*
X112874038Y-136600500D01*
X112874039Y-136600500D01*
X113125961Y-136600500D01*
X113125962Y-136600500D01*
X113374785Y-136561090D01*
X113614379Y-136483241D01*
X113838845Y-136368870D01*
X114042656Y-136220793D01*
X114220793Y-136042656D01*
X114368870Y-135838845D01*
X114483241Y-135614379D01*
X114561090Y-135374785D01*
X114600500Y-135125962D01*
X114600500Y-134874038D01*
X114561090Y-134625215D01*
X114483241Y-134385621D01*
X114483239Y-134385618D01*
X114483239Y-134385616D01*
X114433221Y-134287452D01*
X114368870Y-134161155D01*
X114330087Y-134107775D01*
X114220798Y-133957350D01*
X114220794Y-133957345D01*
X114042654Y-133779205D01*
X114042649Y-133779201D01*
X113838848Y-133631132D01*
X113838847Y-133631131D01*
X113838845Y-133631130D01*
X113753026Y-133587403D01*
X113614383Y-133516760D01*
X113374785Y-133438910D01*
X113125962Y-133399500D01*
X112874038Y-133399500D01*
X112749626Y-133419205D01*
X112625214Y-133438910D01*
X112385616Y-133516760D01*
X112161151Y-133631132D01*
X111957350Y-133779201D01*
X111957345Y-133779205D01*
X111779205Y-133957345D01*
X111779201Y-133957350D01*
X111631132Y-134161151D01*
X111516760Y-134385616D01*
X111438910Y-134625214D01*
X111412840Y-134789811D01*
X111399500Y-134874038D01*
X110500500Y-134874038D01*
X110500500Y-132624500D01*
X110520185Y-132557461D01*
X110572989Y-132511706D01*
X110624500Y-132500500D01*
X117557216Y-132500500D01*
X117624255Y-132520185D01*
G37*
%TD.AperFunction*%
%TA.AperFunction,Conductor*%
G36*
X136699942Y-148094185D02*
G01*
X136720584Y-148110819D01*
X137539181Y-148929416D01*
X137572666Y-148990739D01*
X137575500Y-149017097D01*
X137575500Y-153709330D01*
X137575499Y-153709348D01*
X137575499Y-153875054D01*
X137575498Y-153875054D01*
X137616423Y-154027785D01*
X137629189Y-154049896D01*
X137695477Y-154164712D01*
X137695481Y-154164717D01*
X137814349Y-154283585D01*
X137814355Y-154283590D01*
X138126241Y-154595476D01*
X138159726Y-154656799D01*
X138156492Y-154721473D01*
X138142753Y-154763757D01*
X138109500Y-154973713D01*
X138109500Y-155186287D01*
X138118250Y-155241534D01*
X138140890Y-155384478D01*
X138142754Y-155396243D01*
X138204924Y-155587583D01*
X138208444Y-155598414D01*
X138304951Y-155787820D01*
X138429890Y-155959786D01*
X138580213Y-156110109D01*
X138752179Y-156235048D01*
X138752181Y-156235049D01*
X138752184Y-156235051D01*
X138761493Y-156239794D01*
X138812290Y-156287766D01*
X138829087Y-156355587D01*
X138806552Y-156421722D01*
X138761505Y-156460760D01*
X138752446Y-156465376D01*
X138752440Y-156465380D01*
X138698282Y-156504727D01*
X138698282Y-156504728D01*
X139330591Y-157137037D01*
X139267007Y-157154075D01*
X139152993Y-157219901D01*
X139059901Y-157312993D01*
X138994075Y-157427007D01*
X138977037Y-157490591D01*
X138344728Y-156858282D01*
X138344727Y-156858282D01*
X138305380Y-156912439D01*
X138208904Y-157101782D01*
X138143242Y-157303869D01*
X138143242Y-157303872D01*
X138110000Y-157513753D01*
X138110000Y-157726246D01*
X138143242Y-157936127D01*
X138143242Y-157936130D01*
X138208904Y-158138217D01*
X138305375Y-158327550D01*
X138344728Y-158381716D01*
X138977036Y-157749407D01*
X138994075Y-157812993D01*
X139059901Y-157927007D01*
X139152993Y-158020099D01*
X139267007Y-158085925D01*
X139330589Y-158102962D01*
X138698282Y-158735269D01*
X138698282Y-158735270D01*
X138752449Y-158774624D01*
X138941782Y-158871095D01*
X139143870Y-158936757D01*
X139353754Y-158970000D01*
X139566246Y-158970000D01*
X139776127Y-158936757D01*
X139776133Y-158936756D01*
X139848180Y-158913346D01*
X139918021Y-158911349D01*
X139977855Y-158947429D01*
X140008684Y-159010129D01*
X140010500Y-159031276D01*
X140010500Y-160588903D01*
X139990815Y-160655942D01*
X139974181Y-160676584D01*
X139587584Y-161063181D01*
X139526261Y-161096666D01*
X139499903Y-161099500D01*
X139168384Y-161099500D01*
X139149145Y-161101248D01*
X139097807Y-161105913D01*
X138935393Y-161156522D01*
X138892861Y-161182234D01*
X138868456Y-161196988D01*
X138862365Y-161200670D01*
X138794810Y-161218506D01*
X138728337Y-161196988D01*
X138710534Y-161182234D01*
X138266654Y-160738355D01*
X138266652Y-160738352D01*
X138147781Y-160619481D01*
X138147780Y-160619480D01*
X138055646Y-160566287D01*
X138055645Y-160566286D01*
X138010847Y-160540422D01*
X137954945Y-160525443D01*
X137858121Y-160499499D01*
X137700007Y-160499499D01*
X137692411Y-160499499D01*
X137692395Y-160499500D01*
X135124500Y-160499500D01*
X135057461Y-160479815D01*
X135011706Y-160427011D01*
X135000500Y-160375500D01*
X135000499Y-160052130D01*
X135000498Y-160052123D01*
X134994091Y-159992517D01*
X134975747Y-159943334D01*
X134970762Y-159873643D01*
X134975747Y-159856665D01*
X134994089Y-159807488D01*
X134994088Y-159807488D01*
X134994091Y-159807483D01*
X135000500Y-159747873D01*
X135000499Y-159252128D01*
X134994091Y-159192517D01*
X134993152Y-159190000D01*
X134975747Y-159143334D01*
X134970762Y-159073643D01*
X134975747Y-159056665D01*
X134994089Y-159007488D01*
X134994088Y-159007488D01*
X134994091Y-159007483D01*
X135000500Y-158947873D01*
X135000499Y-158452128D01*
X134994091Y-158392517D01*
X134994090Y-158392514D01*
X134975747Y-158343334D01*
X134970762Y-158273643D01*
X134975747Y-158256665D01*
X134983364Y-158236243D01*
X134994091Y-158207483D01*
X135000500Y-158147873D01*
X135000499Y-157652128D01*
X134994091Y-157592517D01*
X134975480Y-157542620D01*
X134970494Y-157472931D01*
X134975480Y-157455949D01*
X134993597Y-157407375D01*
X134993598Y-157407372D01*
X134999999Y-157347844D01*
X135000000Y-157347827D01*
X135000000Y-157300000D01*
X134842107Y-157300000D01*
X134775068Y-157280315D01*
X134767796Y-157275267D01*
X134742331Y-157256204D01*
X134742328Y-157256202D01*
X134607482Y-157205908D01*
X134607483Y-157205908D01*
X134547883Y-157199501D01*
X134547881Y-157199500D01*
X134547873Y-157199500D01*
X134547865Y-157199500D01*
X134224000Y-157199500D01*
X134215314Y-157196949D01*
X134206353Y-157198238D01*
X134182312Y-157187259D01*
X134156961Y-157179815D01*
X134151033Y-157172974D01*
X134142797Y-157169213D01*
X134128507Y-157146978D01*
X134111206Y-157127011D01*
X134108918Y-157116496D01*
X134105023Y-157110435D01*
X134100000Y-157075500D01*
X134100000Y-157024000D01*
X134119685Y-156956961D01*
X134172489Y-156911206D01*
X134224000Y-156900000D01*
X135000000Y-156900000D01*
X135000000Y-156852172D01*
X134999999Y-156852155D01*
X134993597Y-156792622D01*
X134993597Y-156792621D01*
X134975214Y-156743335D01*
X134970228Y-156673644D01*
X134975214Y-156656665D01*
X134993597Y-156607378D01*
X134993597Y-156607377D01*
X134999999Y-156547844D01*
X135000000Y-156547827D01*
X135000000Y-156400000D01*
X134274000Y-156400000D01*
X134206961Y-156380315D01*
X134161206Y-156327511D01*
X134150000Y-156276000D01*
X134150000Y-156150000D01*
X134024000Y-156150000D01*
X133956961Y-156130315D01*
X133911206Y-156077511D01*
X133900000Y-156026000D01*
X133900000Y-155900000D01*
X134400000Y-155900000D01*
X135000000Y-155900000D01*
X135000000Y-155752172D01*
X134999999Y-155752155D01*
X134993598Y-155692627D01*
X134993596Y-155692620D01*
X134943354Y-155557913D01*
X134943350Y-155557906D01*
X134857190Y-155442812D01*
X134857187Y-155442809D01*
X134742093Y-155356649D01*
X134742086Y-155356645D01*
X134607379Y-155306403D01*
X134607372Y-155306401D01*
X134547844Y-155300000D01*
X134400000Y-155300000D01*
X134400000Y-155900000D01*
X133900000Y-155900000D01*
X133900000Y-155300000D01*
X133752172Y-155300000D01*
X133737755Y-155301550D01*
X133668996Y-155289144D01*
X133617858Y-155241534D01*
X133600500Y-155178260D01*
X133600500Y-154550097D01*
X133609144Y-154520657D01*
X133615667Y-154490672D01*
X133619422Y-154485654D01*
X133620185Y-154483058D01*
X133636814Y-154462420D01*
X133662417Y-154436817D01*
X133723737Y-154403333D01*
X133750088Y-154400499D01*
X134797872Y-154400499D01*
X134857483Y-154394091D01*
X134992331Y-154343796D01*
X135107546Y-154257546D01*
X135193796Y-154142331D01*
X135244091Y-154007483D01*
X135250500Y-153947873D01*
X135250499Y-152052128D01*
X135244091Y-151992517D01*
X135209543Y-151899890D01*
X135193797Y-151857671D01*
X135193793Y-151857664D01*
X135107547Y-151742455D01*
X135107544Y-151742452D01*
X134992335Y-151656206D01*
X134984546Y-151651953D01*
X134986306Y-151648728D01*
X134944248Y-151617074D01*
X134920001Y-151551546D01*
X134935030Y-151483312D01*
X134956022Y-151455345D01*
X134967712Y-151443656D01*
X135059814Y-151294334D01*
X135114999Y-151127797D01*
X135125500Y-151025009D01*
X135125499Y-149974992D01*
X135114999Y-149872203D01*
X135059814Y-149705666D01*
X134973109Y-149565094D01*
X134954670Y-149497704D01*
X134973109Y-149434905D01*
X135059814Y-149294334D01*
X135114999Y-149127797D01*
X135125500Y-149025009D01*
X135125499Y-148198499D01*
X135145183Y-148131461D01*
X135197987Y-148085706D01*
X135249499Y-148074500D01*
X136632903Y-148074500D01*
X136699942Y-148094185D01*
G37*
%TD.AperFunction*%
%TA.AperFunction,Conductor*%
G36*
X122193039Y-156120185D02*
G01*
X122238794Y-156172989D01*
X122250000Y-156224500D01*
X122250000Y-156275500D01*
X122230315Y-156342539D01*
X122177511Y-156388294D01*
X122126000Y-156399500D01*
X121852130Y-156399500D01*
X121848805Y-156399679D01*
X121848799Y-156399573D01*
X121840837Y-156400000D01*
X121400000Y-156400000D01*
X121400000Y-156547844D01*
X121406401Y-156607372D01*
X121406403Y-156607383D01*
X121424519Y-156655953D01*
X121429503Y-156725644D01*
X121424520Y-156742616D01*
X121405910Y-156792513D01*
X121405909Y-156792517D01*
X121399500Y-156852127D01*
X121399500Y-157075747D01*
X121399501Y-157175500D01*
X121396950Y-157184186D01*
X121398239Y-157193147D01*
X121387261Y-157217183D01*
X121379817Y-157242539D01*
X121372974Y-157248467D01*
X121369214Y-157256703D01*
X121346982Y-157270989D01*
X121327013Y-157288294D01*
X121316497Y-157290581D01*
X121310436Y-157294477D01*
X121275501Y-157299500D01*
X121081604Y-157299500D01*
X121034155Y-157290062D01*
X121010497Y-157280263D01*
X121010493Y-157280262D01*
X121004870Y-157277933D01*
X121005877Y-157275501D01*
X120956981Y-157243384D01*
X120928592Y-157179541D01*
X120927500Y-157163121D01*
X120927500Y-157147155D01*
X120927499Y-157147153D01*
X120912407Y-157071280D01*
X120896737Y-156992503D01*
X120893653Y-156985057D01*
X120836397Y-156846827D01*
X120836390Y-156846814D01*
X120748789Y-156715711D01*
X120748786Y-156715707D01*
X120634323Y-156601244D01*
X120600838Y-156539921D01*
X120605822Y-156470229D01*
X120647694Y-156414296D01*
X120657844Y-156407452D01*
X120785185Y-156330472D01*
X120905472Y-156210185D01*
X120935598Y-156160349D01*
X120987126Y-156113162D01*
X121041715Y-156100500D01*
X122126000Y-156100500D01*
X122193039Y-156120185D01*
G37*
%TD.AperFunction*%
%TA.AperFunction,Conductor*%
G36*
X132155539Y-148519685D02*
G01*
X132201294Y-148572489D01*
X132212500Y-148624000D01*
X132212500Y-150376000D01*
X132192815Y-150443039D01*
X132140011Y-150488794D01*
X132088500Y-150500000D01*
X131962500Y-150500000D01*
X131962500Y-150626000D01*
X131942815Y-150693039D01*
X131890011Y-150738794D01*
X131838500Y-150750000D01*
X130875001Y-150750000D01*
X130875001Y-151024971D01*
X130875002Y-151024991D01*
X130881508Y-151088686D01*
X130868738Y-151157378D01*
X130820856Y-151208262D01*
X130753066Y-151225182D01*
X130686890Y-151202765D01*
X130677613Y-151195572D01*
X130677512Y-151195485D01*
X130677510Y-151195483D01*
X130486433Y-151056657D01*
X130275996Y-150949433D01*
X130051368Y-150876446D01*
X129818097Y-150839500D01*
X129818092Y-150839500D01*
X129581908Y-150839500D01*
X129581903Y-150839500D01*
X129348631Y-150876446D01*
X129124003Y-150949433D01*
X128913566Y-151056657D01*
X128815755Y-151127722D01*
X128722490Y-151195483D01*
X128722488Y-151195485D01*
X128722487Y-151195485D01*
X128555485Y-151362487D01*
X128555485Y-151362488D01*
X128555483Y-151362490D01*
X128496514Y-151443653D01*
X128416657Y-151553566D01*
X128309433Y-151764003D01*
X128236446Y-151988631D01*
X128199500Y-152221902D01*
X128199500Y-152458097D01*
X128236446Y-152691368D01*
X128309433Y-152915996D01*
X128403139Y-153099902D01*
X128416657Y-153126433D01*
X128555483Y-153317510D01*
X128722490Y-153484517D01*
X128913567Y-153623343D01*
X128947809Y-153640790D01*
X129124003Y-153730566D01*
X129124005Y-153730566D01*
X129124008Y-153730568D01*
X129244412Y-153769689D01*
X129348631Y-153803553D01*
X129581903Y-153840500D01*
X129581908Y-153840500D01*
X129818097Y-153840500D01*
X130051368Y-153803553D01*
X130057046Y-153801708D01*
X130275992Y-153730568D01*
X130486433Y-153623343D01*
X130552616Y-153575257D01*
X130618419Y-153551778D01*
X130686473Y-153567603D01*
X130735169Y-153617708D01*
X130749500Y-153675576D01*
X130749500Y-153947869D01*
X130749501Y-153947876D01*
X130755908Y-154007483D01*
X130806202Y-154142328D01*
X130806206Y-154142335D01*
X130892452Y-154257544D01*
X130892455Y-154257547D01*
X131007664Y-154343793D01*
X131007671Y-154343797D01*
X131038277Y-154355212D01*
X131142517Y-154394091D01*
X131202127Y-154400500D01*
X131475501Y-154400499D01*
X131542539Y-154420183D01*
X131588294Y-154472987D01*
X131599500Y-154524499D01*
X131599500Y-155458561D01*
X131596872Y-155467510D01*
X131598159Y-155476749D01*
X131584623Y-155509223D01*
X131579815Y-155525600D01*
X131576657Y-155528335D01*
X131574767Y-155532872D01*
X131556204Y-155557668D01*
X131556202Y-155557671D01*
X131516182Y-155664972D01*
X131474311Y-155720906D01*
X131408846Y-155745323D01*
X131340573Y-155730471D01*
X131291168Y-155681066D01*
X131283818Y-155664972D01*
X131243797Y-155557671D01*
X131243795Y-155557668D01*
X131224733Y-155532204D01*
X131219931Y-155519329D01*
X131210980Y-155508907D01*
X131207961Y-155487238D01*
X131200316Y-155466739D01*
X131200000Y-155457893D01*
X131200000Y-155300000D01*
X131152155Y-155300000D01*
X131092627Y-155306401D01*
X131092623Y-155306402D01*
X131044046Y-155324520D01*
X130974354Y-155329503D01*
X130957382Y-155324519D01*
X130907488Y-155305910D01*
X130907484Y-155305909D01*
X130907483Y-155305909D01*
X130847873Y-155299500D01*
X130847863Y-155299500D01*
X130352129Y-155299500D01*
X130352123Y-155299501D01*
X130292516Y-155305908D01*
X130243332Y-155324253D01*
X130216973Y-155326138D01*
X130191153Y-155331755D01*
X130178108Y-155328917D01*
X130173640Y-155329237D01*
X130156669Y-155324253D01*
X130141582Y-155318627D01*
X130117938Y-155309808D01*
X130062005Y-155267936D01*
X130053891Y-155255637D01*
X129981520Y-155130284D01*
X129869716Y-155018480D01*
X129869714Y-155018479D01*
X129869709Y-155018475D01*
X129732790Y-154939426D01*
X129732786Y-154939424D01*
X129732784Y-154939423D01*
X129580057Y-154898500D01*
X129580056Y-154898500D01*
X125700098Y-154898500D01*
X125633059Y-154878815D01*
X125612417Y-154862181D01*
X124947590Y-154197355D01*
X124947588Y-154197352D01*
X124828717Y-154078481D01*
X124828716Y-154078480D01*
X124724333Y-154018215D01*
X124724332Y-154018214D01*
X124691783Y-153999422D01*
X124630379Y-153982969D01*
X124539057Y-153958499D01*
X124380943Y-153958499D01*
X124373347Y-153958499D01*
X124373331Y-153958500D01*
X122537097Y-153958500D01*
X122470058Y-153938815D01*
X122449416Y-153922181D01*
X122157819Y-153630584D01*
X122143115Y-153603656D01*
X122126523Y-153577838D01*
X122125631Y-153571637D01*
X122124334Y-153569261D01*
X122121500Y-153542903D01*
X122121500Y-153226096D01*
X122141185Y-153159057D01*
X122157819Y-153138415D01*
X123074287Y-152221947D01*
X124800000Y-152221947D01*
X124800000Y-152458052D01*
X124836934Y-152691247D01*
X124909897Y-152915802D01*
X125017087Y-153126174D01*
X125077338Y-153209104D01*
X125077340Y-153209105D01*
X125776212Y-152510233D01*
X125787482Y-152552292D01*
X125859890Y-152677708D01*
X125962292Y-152780110D01*
X126087708Y-152852518D01*
X126129765Y-152863787D01*
X125430893Y-153562658D01*
X125513828Y-153622914D01*
X125724197Y-153730102D01*
X125948752Y-153803065D01*
X125948751Y-153803065D01*
X126181948Y-153840000D01*
X126418052Y-153840000D01*
X126651247Y-153803065D01*
X126875802Y-153730102D01*
X127086163Y-153622918D01*
X127086169Y-153622914D01*
X127169104Y-153562658D01*
X127169105Y-153562658D01*
X126470233Y-152863787D01*
X126512292Y-152852518D01*
X126637708Y-152780110D01*
X126740110Y-152677708D01*
X126812518Y-152552292D01*
X126823787Y-152510234D01*
X127522658Y-153209105D01*
X127522658Y-153209104D01*
X127582914Y-153126169D01*
X127582918Y-153126163D01*
X127690102Y-152915802D01*
X127763065Y-152691247D01*
X127800000Y-152458052D01*
X127800000Y-152221947D01*
X127763065Y-151988752D01*
X127690102Y-151764197D01*
X127582914Y-151553828D01*
X127522658Y-151470894D01*
X127522658Y-151470893D01*
X126823787Y-152169765D01*
X126812518Y-152127708D01*
X126740110Y-152002292D01*
X126637708Y-151899890D01*
X126512292Y-151827482D01*
X126470234Y-151816212D01*
X127169105Y-151117340D01*
X127169104Y-151117338D01*
X127086174Y-151057087D01*
X126875802Y-150949897D01*
X126651247Y-150876934D01*
X126651248Y-150876934D01*
X126418052Y-150840000D01*
X126181948Y-150840000D01*
X125948752Y-150876934D01*
X125724197Y-150949897D01*
X125513830Y-151057084D01*
X125430894Y-151117340D01*
X126129766Y-151816212D01*
X126087708Y-151827482D01*
X125962292Y-151899890D01*
X125859890Y-152002292D01*
X125787482Y-152127708D01*
X125776212Y-152169766D01*
X125077340Y-151470894D01*
X125017084Y-151553830D01*
X124909897Y-151764197D01*
X124836934Y-151988752D01*
X124800000Y-152221947D01*
X123074287Y-152221947D01*
X123166840Y-152129394D01*
X123690325Y-151605909D01*
X124537506Y-150758728D01*
X124537511Y-150758724D01*
X124547714Y-150748520D01*
X124547716Y-150748520D01*
X124659520Y-150636716D01*
X124738577Y-150499784D01*
X124772457Y-150373343D01*
X124779500Y-150347058D01*
X124779500Y-150188943D01*
X124779500Y-149927483D01*
X124799185Y-149860444D01*
X124851989Y-149814689D01*
X124921147Y-149804745D01*
X124984703Y-149833770D01*
X125013986Y-149871191D01*
X125016657Y-149876433D01*
X125155483Y-150067510D01*
X125322490Y-150234517D01*
X125513567Y-150373343D01*
X125573466Y-150403863D01*
X125724003Y-150480566D01*
X125724005Y-150480566D01*
X125724008Y-150480568D01*
X125844412Y-150519689D01*
X125948631Y-150553553D01*
X126181903Y-150590500D01*
X126181908Y-150590500D01*
X126418097Y-150590500D01*
X126651368Y-150553553D01*
X126875992Y-150480568D01*
X127052794Y-150390482D01*
X127121462Y-150377587D01*
X127186203Y-150403863D01*
X127220713Y-150449622D01*
X127221267Y-150449327D01*
X127223158Y-150452865D01*
X127223650Y-150453517D01*
X127224142Y-150454706D01*
X127224143Y-150454707D01*
X127319951Y-150598094D01*
X127319957Y-150598102D01*
X127441897Y-150720042D01*
X127441901Y-150720045D01*
X127585288Y-150815854D01*
X127585301Y-150815861D01*
X127744621Y-150881853D01*
X127744626Y-150881855D01*
X127913766Y-150915499D01*
X127913769Y-150915500D01*
X127913771Y-150915500D01*
X128086231Y-150915500D01*
X128086232Y-150915499D01*
X128255374Y-150881855D01*
X128414705Y-150815858D01*
X128558099Y-150720045D01*
X128680045Y-150598099D01*
X128775858Y-150454705D01*
X128776345Y-150453527D01*
X128776765Y-150453006D01*
X128778728Y-150449335D01*
X128779423Y-150449706D01*
X128820177Y-150399122D01*
X128886468Y-150377048D01*
X128947206Y-150390483D01*
X129124003Y-150480566D01*
X129124005Y-150480566D01*
X129124008Y-150480568D01*
X129244412Y-150519689D01*
X129348631Y-150553553D01*
X129581903Y-150590500D01*
X129581908Y-150590500D01*
X129818097Y-150590500D01*
X130051368Y-150553553D01*
X130275992Y-150480568D01*
X130486433Y-150373343D01*
X130677510Y-150234517D01*
X130680829Y-150231197D01*
X130742146Y-150197711D01*
X130811838Y-150202690D01*
X130856194Y-150231194D01*
X130875000Y-150250000D01*
X131712500Y-150250000D01*
X131712500Y-148624000D01*
X131732185Y-148556961D01*
X131784989Y-148511206D01*
X131836500Y-148500000D01*
X132088500Y-148500000D01*
X132155539Y-148519685D01*
G37*
%TD.AperFunction*%
%TA.AperFunction,Conductor*%
G36*
X114458039Y-147494185D02*
G01*
X114503794Y-147546989D01*
X114515000Y-147598500D01*
X114515000Y-147775000D01*
X115431988Y-147775000D01*
X115399075Y-147832007D01*
X115365000Y-147959174D01*
X115365000Y-148090826D01*
X115399075Y-148217993D01*
X115431988Y-148275000D01*
X114515000Y-148275000D01*
X114515000Y-148451500D01*
X114495315Y-148518539D01*
X114442511Y-148564294D01*
X114391000Y-148575500D01*
X113787518Y-148575500D01*
X113758077Y-148566855D01*
X113728091Y-148560332D01*
X113723075Y-148556577D01*
X113720479Y-148555815D01*
X113699837Y-148539181D01*
X113566805Y-148406149D01*
X113533320Y-148344826D01*
X113532013Y-148299070D01*
X113550500Y-148182350D01*
X113550500Y-147977649D01*
X113545844Y-147948256D01*
X113532013Y-147860929D01*
X113540967Y-147791637D01*
X113566805Y-147753851D01*
X113809838Y-147510819D01*
X113871161Y-147477334D01*
X113897519Y-147474500D01*
X114391000Y-147474500D01*
X114458039Y-147494185D01*
G37*
%TD.AperFunction*%
%TA.AperFunction,Conductor*%
G36*
X120664447Y-147440130D02*
G01*
X120704107Y-147464531D01*
X120705064Y-147463299D01*
X120711227Y-147468079D01*
X120711230Y-147468082D01*
X120852697Y-147551745D01*
X120877927Y-147559075D01*
X121010521Y-147597598D01*
X121010524Y-147597598D01*
X121010526Y-147597599D01*
X121047401Y-147600501D01*
X121047409Y-147600501D01*
X122203781Y-147600501D01*
X122203789Y-147600501D01*
X122240664Y-147597599D01*
X122240666Y-147597598D01*
X122240668Y-147597598D01*
X122298551Y-147580781D01*
X122398493Y-147551745D01*
X122413672Y-147542767D01*
X122429573Y-147538417D01*
X122441858Y-147530523D01*
X122476793Y-147525500D01*
X122492500Y-147525500D01*
X122559539Y-147545185D01*
X122605294Y-147597989D01*
X122616500Y-147649500D01*
X122616500Y-147859790D01*
X122596815Y-147926829D01*
X122544011Y-147972584D01*
X122474853Y-147982528D01*
X122429381Y-147966523D01*
X122398494Y-147948257D01*
X122398488Y-147948255D01*
X122240668Y-147902403D01*
X122240662Y-147902402D01*
X122203796Y-147899501D01*
X122203789Y-147899501D01*
X121047401Y-147899501D01*
X121047393Y-147899501D01*
X121010527Y-147902402D01*
X121010521Y-147902403D01*
X120852701Y-147948255D01*
X120852698Y-147948256D01*
X120711232Y-148031918D01*
X120705064Y-148036703D01*
X120703759Y-148035020D01*
X120652049Y-148063247D01*
X120582358Y-148058252D01*
X120534653Y-148026248D01*
X120510391Y-148000001D01*
X120244910Y-148000001D01*
X120181789Y-147982733D01*
X120123491Y-147948256D01*
X120123488Y-147948255D01*
X119965668Y-147902403D01*
X119965662Y-147902402D01*
X119928796Y-147899501D01*
X119928789Y-147899501D01*
X118772401Y-147899501D01*
X118772393Y-147899501D01*
X118735527Y-147902402D01*
X118735521Y-147902403D01*
X118577701Y-147948255D01*
X118577698Y-147948256D01*
X118519401Y-147982733D01*
X118456280Y-148000001D01*
X118190800Y-148000001D01*
X118190799Y-148000002D01*
X118190994Y-148002489D01*
X118190995Y-148002495D01*
X118236811Y-148160194D01*
X118236815Y-148160204D01*
X118237522Y-148161399D01*
X118237790Y-148162455D01*
X118239911Y-148167357D01*
X118239119Y-148167699D01*
X118254698Y-148229124D01*
X118249994Y-148258642D01*
X118245613Y-148273940D01*
X118236351Y-148289603D01*
X118190497Y-148447432D01*
X118188433Y-148473649D01*
X118185003Y-148485632D01*
X118172711Y-148505045D01*
X118164527Y-148526518D01*
X118154373Y-148534005D01*
X118147626Y-148544663D01*
X118126789Y-148554348D01*
X118108296Y-148567988D01*
X118090795Y-148571080D01*
X118084267Y-148574116D01*
X118078269Y-148573294D01*
X118065793Y-148575500D01*
X117339000Y-148575500D01*
X117271961Y-148555815D01*
X117226206Y-148503011D01*
X117215000Y-148451500D01*
X117215000Y-148275000D01*
X116298012Y-148275000D01*
X116330925Y-148217993D01*
X116365000Y-148090826D01*
X116365000Y-147959174D01*
X116330925Y-147832007D01*
X116298012Y-147775000D01*
X117215000Y-147775000D01*
X117215000Y-147598500D01*
X117234685Y-147531461D01*
X117287489Y-147485706D01*
X117339000Y-147474500D01*
X118112988Y-147474500D01*
X118180027Y-147494185D01*
X118186962Y-147500001D01*
X118456280Y-147500001D01*
X118519400Y-147517268D01*
X118577697Y-147551745D01*
X118602927Y-147559075D01*
X118735521Y-147597598D01*
X118735524Y-147597598D01*
X118735526Y-147597599D01*
X118772401Y-147600501D01*
X118772409Y-147600501D01*
X119928781Y-147600501D01*
X119928789Y-147600501D01*
X119965664Y-147597599D01*
X119965666Y-147597598D01*
X119965668Y-147597598D01*
X120023551Y-147580781D01*
X120123493Y-147551745D01*
X120181789Y-147517269D01*
X120244910Y-147500001D01*
X120510389Y-147500001D01*
X120534652Y-147473753D01*
X120594613Y-147437886D01*
X120664447Y-147440130D01*
G37*
%TD.AperFunction*%
%TA.AperFunction,Conductor*%
G36*
X120567251Y-145660237D02*
G01*
X120593338Y-145690342D01*
X120595382Y-145693655D01*
X120595384Y-145693658D01*
X120701276Y-145799550D01*
X120715979Y-145826477D01*
X120732572Y-145852296D01*
X120733463Y-145858496D01*
X120734761Y-145860873D01*
X120737595Y-145887231D01*
X120737595Y-146054192D01*
X120717910Y-146121231D01*
X120701276Y-146141873D01*
X120595018Y-146248130D01*
X120595009Y-146248141D01*
X120594824Y-146248456D01*
X120594614Y-146248651D01*
X120590234Y-146254299D01*
X120589322Y-146253592D01*
X120543752Y-146296137D01*
X120475010Y-146308638D01*
X120410422Y-146281989D01*
X120386238Y-146254079D01*
X120385956Y-146254299D01*
X120381918Y-146249093D01*
X120381366Y-146248456D01*
X120381180Y-146248141D01*
X120381171Y-146248130D01*
X120264965Y-146131924D01*
X120264957Y-146131918D01*
X120176921Y-146079854D01*
X120129238Y-146028785D01*
X120116734Y-145960043D01*
X120143379Y-145895454D01*
X120174946Y-145867583D01*
X120256438Y-145817318D01*
X120380413Y-145693343D01*
X120382260Y-145690349D01*
X120384064Y-145688725D01*
X120384893Y-145687678D01*
X120385071Y-145687819D01*
X120434205Y-145643622D01*
X120503168Y-145632397D01*
X120567251Y-145660237D01*
G37*
%TD.AperFunction*%
%TA.AperFunction,Conductor*%
G36*
X119055666Y-143349185D02*
G01*
X119101421Y-143401989D01*
X119111365Y-143471147D01*
X119082340Y-143534703D01*
X119027631Y-143571206D01*
X118968975Y-143590642D01*
X118968970Y-143590644D01*
X118819749Y-143682685D01*
X118695779Y-143806655D01*
X118603738Y-143955876D01*
X118603736Y-143955881D01*
X118548589Y-144122303D01*
X118548588Y-144122310D01*
X118538095Y-144225014D01*
X118538095Y-144500001D01*
X119414095Y-144500001D01*
X119481134Y-144519686D01*
X119526889Y-144572490D01*
X119538095Y-144624001D01*
X119538095Y-144876001D01*
X119518410Y-144943040D01*
X119465606Y-144988795D01*
X119414095Y-145000001D01*
X118538096Y-145000001D01*
X118538096Y-145274987D01*
X118548589Y-145377698D01*
X118603736Y-145544120D01*
X118603738Y-145544125D01*
X118695779Y-145693346D01*
X118796061Y-145793628D01*
X118797267Y-145795837D01*
X118799429Y-145797130D01*
X118813925Y-145826344D01*
X118829546Y-145854951D01*
X118829366Y-145857461D01*
X118830486Y-145859718D01*
X118826887Y-145892124D01*
X118824562Y-145924643D01*
X118823052Y-145926658D01*
X118822775Y-145929161D01*
X118802225Y-145954480D01*
X118782690Y-145980576D01*
X118779841Y-145982059D01*
X118778745Y-145983411D01*
X118771465Y-145986422D01*
X118747129Y-145999099D01*
X118737575Y-146002241D01*
X118735526Y-146002403D01*
X118577697Y-146048257D01*
X118552625Y-146063083D01*
X118539840Y-146067290D01*
X118521648Y-146067876D01*
X118501091Y-146073500D01*
X117264455Y-146073500D01*
X117197416Y-146053815D01*
X117151661Y-146001011D01*
X117141717Y-145931853D01*
X117146524Y-145911182D01*
X117182246Y-145801243D01*
X117215500Y-145591287D01*
X117215500Y-145378713D01*
X117182246Y-145168757D01*
X117116557Y-144966588D01*
X117116555Y-144966585D01*
X117116555Y-144966583D01*
X117107044Y-144947917D01*
X117094147Y-144879248D01*
X117120423Y-144814507D01*
X117129838Y-144803949D01*
X118567970Y-143365819D01*
X118629293Y-143332334D01*
X118655651Y-143329500D01*
X118988627Y-143329500D01*
X119055666Y-143349185D01*
G37*
%TD.AperFunction*%
%TA.AperFunction,Conductor*%
G36*
X132563039Y-137044185D02*
G01*
X132608794Y-137096989D01*
X132620000Y-137148500D01*
X132620000Y-137158011D01*
X132610060Y-137140795D01*
X132554205Y-137084940D01*
X132485796Y-137045444D01*
X132409496Y-137025000D01*
X132330504Y-137025000D01*
X132254204Y-137045444D01*
X132185795Y-137084940D01*
X132129940Y-137140795D01*
X132120000Y-137158011D01*
X132120000Y-137148500D01*
X132139685Y-137081461D01*
X132192489Y-137035706D01*
X132244000Y-137024500D01*
X132496000Y-137024500D01*
X132563039Y-137044185D01*
G37*
%TD.AperFunction*%
%TA.AperFunction,Conductor*%
G36*
X123923039Y-136421185D02*
G01*
X123968794Y-136473989D01*
X123980000Y-136525500D01*
X123980000Y-137133011D01*
X123970060Y-137115795D01*
X123914205Y-137059940D01*
X123845796Y-137020444D01*
X123769496Y-137000000D01*
X123690504Y-137000000D01*
X123614204Y-137020444D01*
X123545795Y-137059940D01*
X123489940Y-137115795D01*
X123480000Y-137133011D01*
X123480000Y-136525500D01*
X123499685Y-136458461D01*
X123552489Y-136412706D01*
X123604000Y-136401500D01*
X123856000Y-136401500D01*
X123923039Y-136421185D01*
G37*
%TD.AperFunction*%
%TA.AperFunction,Conductor*%
G36*
X123980000Y-135076500D02*
G01*
X123960315Y-135143539D01*
X123907511Y-135189294D01*
X123856000Y-135200500D01*
X123604000Y-135200500D01*
X123536961Y-135180815D01*
X123491206Y-135128011D01*
X123480000Y-135076500D01*
X123480000Y-134816988D01*
X123489940Y-134834205D01*
X123545795Y-134890060D01*
X123614204Y-134929556D01*
X123690504Y-134950000D01*
X123769496Y-134950000D01*
X123845796Y-134929556D01*
X123914205Y-134890060D01*
X123970060Y-134834205D01*
X123980000Y-134816988D01*
X123980000Y-135076500D01*
G37*
%TD.AperFunction*%
%TA.AperFunction,Conductor*%
G36*
X125653270Y-132520185D02*
G01*
X125699025Y-132572989D01*
X125708969Y-132642147D01*
X125702413Y-132667833D01*
X125655908Y-132792517D01*
X125649501Y-132852116D01*
X125649501Y-132852123D01*
X125649500Y-132852135D01*
X125649500Y-134947870D01*
X125649501Y-134947876D01*
X125655909Y-135007484D01*
X125665488Y-135033168D01*
X125670472Y-135102860D01*
X125636986Y-135164182D01*
X125575663Y-135197667D01*
X125549306Y-135200500D01*
X125177604Y-135200500D01*
X125110565Y-135180815D01*
X125064810Y-135128011D01*
X125054866Y-135058853D01*
X125059673Y-135038182D01*
X125095526Y-134927835D01*
X125130000Y-134710181D01*
X125130000Y-134250000D01*
X124030000Y-134250000D01*
X124030000Y-133750000D01*
X125130000Y-133750000D01*
X125130000Y-133289818D01*
X125095526Y-133072164D01*
X125027432Y-132862589D01*
X124934803Y-132680795D01*
X124921907Y-132612126D01*
X124948183Y-132547385D01*
X125005290Y-132507128D01*
X125045288Y-132500500D01*
X125586231Y-132500500D01*
X125653270Y-132520185D01*
G37*
%TD.AperFunction*%
%TA.AperFunction,Conductor*%
G36*
X131057352Y-132501275D02*
G01*
X131060023Y-132500614D01*
X131090678Y-132511061D01*
X131121751Y-132520185D01*
X131123552Y-132522264D01*
X131126158Y-132523152D01*
X131146304Y-132548521D01*
X131167506Y-132572989D01*
X131167897Y-132575711D01*
X131169609Y-132577867D01*
X131172840Y-132610087D01*
X131177450Y-132642147D01*
X131176390Y-132645488D01*
X131176581Y-132647388D01*
X131165197Y-132680795D01*
X131072567Y-132862589D01*
X131004473Y-133072164D01*
X130970000Y-133289818D01*
X130970000Y-133750000D01*
X132070000Y-133750000D01*
X132070000Y-134250000D01*
X130970000Y-134250000D01*
X130970000Y-134710181D01*
X131004473Y-134927835D01*
X131040327Y-135038182D01*
X131042322Y-135108023D01*
X131006242Y-135167856D01*
X130943541Y-135198684D01*
X130922396Y-135200500D01*
X130550694Y-135200500D01*
X130483655Y-135180815D01*
X130437900Y-135128011D01*
X130427956Y-135058853D01*
X130434512Y-135033168D01*
X130444090Y-135007485D01*
X130444091Y-135007484D01*
X130444091Y-135007483D01*
X130450500Y-134947873D01*
X130450499Y-132852128D01*
X130444091Y-132792517D01*
X130419683Y-132727077D01*
X130397587Y-132667833D01*
X130392603Y-132598141D01*
X130426088Y-132536818D01*
X130487411Y-132503334D01*
X130513769Y-132500500D01*
X131054712Y-132500500D01*
X131057352Y-132501275D01*
G37*
%TD.AperFunction*%
%TA.AperFunction,Conductor*%
G36*
X132620000Y-135076500D02*
G01*
X132600315Y-135143539D01*
X132547511Y-135189294D01*
X132496000Y-135200500D01*
X132244000Y-135200500D01*
X132176961Y-135180815D01*
X132131206Y-135128011D01*
X132120000Y-135076500D01*
X132120000Y-134816988D01*
X132129940Y-134834205D01*
X132185795Y-134890060D01*
X132254204Y-134929556D01*
X132330504Y-134950000D01*
X132409496Y-134950000D01*
X132485796Y-134929556D01*
X132554205Y-134890060D01*
X132610060Y-134834205D01*
X132620000Y-134816988D01*
X132620000Y-135076500D01*
G37*
%TD.AperFunction*%
%TA.AperFunction,Conductor*%
G36*
X122481751Y-132520185D02*
G01*
X122527506Y-132572989D01*
X122537450Y-132642147D01*
X122525197Y-132680795D01*
X122432567Y-132862589D01*
X122364473Y-133072164D01*
X122330000Y-133289818D01*
X122330000Y-133750000D01*
X123430000Y-133750000D01*
X123430000Y-134250000D01*
X122330000Y-134250000D01*
X122327465Y-134252534D01*
X122310315Y-134310942D01*
X122257511Y-134356697D01*
X122188353Y-134366641D01*
X122124797Y-134337616D01*
X122118319Y-134331584D01*
X121461819Y-133675084D01*
X121428334Y-133613761D01*
X121425500Y-133587403D01*
X121425500Y-132994157D01*
X121425499Y-132994144D01*
X121415087Y-132892225D01*
X121360362Y-132727075D01*
X121337244Y-132689596D01*
X121318805Y-132622204D01*
X121339728Y-132555541D01*
X121393370Y-132510771D01*
X121442784Y-132500500D01*
X122414712Y-132500500D01*
X122481751Y-132520185D01*
G37*
%TD.AperFunction*%
%TA.AperFunction,Conductor*%
G36*
X134624255Y-132520185D02*
G01*
X134670010Y-132572989D01*
X134679954Y-132642147D01*
X134662755Y-132689597D01*
X134639639Y-132727072D01*
X134639637Y-132727077D01*
X134584913Y-132892223D01*
X134574500Y-132994144D01*
X134574500Y-133587403D01*
X134554815Y-133654442D01*
X134538181Y-133675084D01*
X133954313Y-134258951D01*
X133892990Y-134292436D01*
X133823298Y-134287452D01*
X133778951Y-134258951D01*
X133770000Y-134250000D01*
X132670000Y-134250000D01*
X132670000Y-133750000D01*
X133770000Y-133750000D01*
X133770000Y-133289818D01*
X133735526Y-133072164D01*
X133667432Y-132862589D01*
X133574803Y-132680795D01*
X133561907Y-132612126D01*
X133588183Y-132547385D01*
X133645290Y-132507128D01*
X133685288Y-132500500D01*
X134557216Y-132500500D01*
X134624255Y-132520185D01*
G37*
%TD.AperFunction*%
%TD*%
M02*
