%TF.GenerationSoftware,KiCad,Pcbnew,9.0.1*%
%TF.CreationDate,2025-05-28T08:33:00+02:00*%
%TF.ProjectId,tv25-cpu-small,74763235-2d63-4707-952d-736d616c6c2e,rev?*%
%TF.SameCoordinates,Original*%
%TF.FileFunction,Paste,Top*%
%TF.FilePolarity,Positive*%
%FSLAX46Y46*%
G04 Gerber Fmt 4.6, Leading zero omitted, Abs format (unit mm)*
G04 Created by KiCad (PCBNEW 9.0.1) date 2025-05-28 08:33:00*
%MOMM*%
%LPD*%
G01*
G04 APERTURE LIST*
G04 Aperture macros list*
%AMRoundRect*
0 Rectangle with rounded corners*
0 $1 Rounding radius*
0 $2 $3 $4 $5 $6 $7 $8 $9 X,Y pos of 4 corners*
0 Add a 4 corners polygon primitive as box body*
4,1,4,$2,$3,$4,$5,$6,$7,$8,$9,$2,$3,0*
0 Add four circle primitives for the rounded corners*
1,1,$1+$1,$2,$3*
1,1,$1+$1,$4,$5*
1,1,$1+$1,$6,$7*
1,1,$1+$1,$8,$9*
0 Add four rect primitives between the rounded corners*
20,1,$1+$1,$2,$3,$4,$5,0*
20,1,$1+$1,$4,$5,$6,$7,0*
20,1,$1+$1,$6,$7,$8,$9,0*
20,1,$1+$1,$8,$9,$2,$3,0*%
%AMFreePoly0*
4,1,6,0.725000,-0.725000,-0.725000,-0.725000,-0.725000,0.125000,-0.125000,0.725000,0.725000,0.725000,0.725000,-0.725000,0.725000,-0.725000,$1*%
G04 Aperture macros list end*
%ADD10RoundRect,0.150000X-0.512500X-0.150000X0.512500X-0.150000X0.512500X0.150000X-0.512500X0.150000X0*%
%ADD11RoundRect,0.250000X-0.337500X-0.475000X0.337500X-0.475000X0.337500X0.475000X-0.337500X0.475000X0*%
%ADD12RoundRect,0.200000X-0.200000X-0.275000X0.200000X-0.275000X0.200000X0.275000X-0.200000X0.275000X0*%
%ADD13RoundRect,0.250000X-0.250000X-0.475000X0.250000X-0.475000X0.250000X0.475000X-0.250000X0.475000X0*%
%ADD14RoundRect,0.200000X0.200000X0.275000X-0.200000X0.275000X-0.200000X-0.275000X0.200000X-0.275000X0*%
%ADD15RoundRect,0.225000X0.250000X-0.225000X0.250000X0.225000X-0.250000X0.225000X-0.250000X-0.225000X0*%
%ADD16RoundRect,0.250000X0.250000X0.475000X-0.250000X0.475000X-0.250000X-0.475000X0.250000X-0.475000X0*%
%ADD17R,0.800000X0.400000*%
%ADD18R,0.400000X0.800000*%
%ADD19FreePoly0,180.000000*%
%ADD20R,1.450000X1.450000*%
%ADD21R,0.700000X0.700000*%
%ADD22RoundRect,0.200000X0.275000X-0.200000X0.275000X0.200000X-0.275000X0.200000X-0.275000X-0.200000X0*%
%ADD23R,0.900000X1.000000*%
%ADD24RoundRect,0.243750X-0.243750X-0.456250X0.243750X-0.456250X0.243750X0.456250X-0.243750X0.456250X0*%
%ADD25R,0.520000X1.000000*%
%ADD26R,0.270000X1.000000*%
%ADD27R,1.000000X2.000000*%
%ADD28R,1.000000X1.800000*%
%ADD29RoundRect,0.080000X-0.080000X-0.160000X0.080000X-0.160000X0.080000X0.160000X-0.080000X0.160000X0*%
%ADD30RoundRect,0.062500X-0.325000X-0.062500X0.325000X-0.062500X0.325000X0.062500X-0.325000X0.062500X0*%
%ADD31RoundRect,0.250000X0.650000X0.250000X-0.650000X0.250000X-0.650000X-0.250000X0.650000X-0.250000X0*%
G04 APERTURE END LIST*
D10*
%TO.C,U2*%
X119350595Y-146800001D03*
X119350595Y-147750001D03*
X119350595Y-148700001D03*
X121625595Y-148700001D03*
X121625595Y-146800001D03*
%TD*%
D11*
%TO.C,C5*%
X131962500Y-150500000D03*
X134037500Y-150500000D03*
%TD*%
%TO.C,C6*%
X131962500Y-148500000D03*
X134037500Y-148500000D03*
%TD*%
D12*
%TO.C,R8*%
X129675000Y-139827000D03*
X131325000Y-139827000D03*
%TD*%
%TO.C,R10*%
X119571000Y-153543000D03*
X121221000Y-153543000D03*
%TD*%
D13*
%TO.C,C2*%
X119538095Y-150500001D03*
X121438095Y-150500001D03*
%TD*%
D14*
%TO.C,R9*%
X126492000Y-139827000D03*
X124842000Y-139827000D03*
%TD*%
D15*
%TO.C,C1*%
X112250000Y-141025000D03*
X112250000Y-139475000D03*
%TD*%
D10*
%TO.C,U1*%
X119385500Y-140528000D03*
X119385500Y-141478000D03*
X119385500Y-142428000D03*
X121660500Y-142428000D03*
X121660500Y-140528000D03*
%TD*%
D16*
%TO.C,C3*%
X121438095Y-144750001D03*
X119538095Y-144750001D03*
%TD*%
D17*
%TO.C,U4*%
X134100000Y-165100000D03*
X134100000Y-164300000D03*
X134100000Y-163500000D03*
X134100000Y-162700000D03*
X134100000Y-161900000D03*
X134100000Y-161100000D03*
X134100000Y-160300000D03*
X134100000Y-159500000D03*
X134100000Y-158700000D03*
X134100000Y-157900000D03*
X134100000Y-157100000D03*
D18*
X133000000Y-156200000D03*
X132200000Y-156200000D03*
X131400000Y-156200000D03*
X130600000Y-156200000D03*
X129800000Y-156200000D03*
X129000000Y-156200000D03*
X128200000Y-156200000D03*
X127400000Y-156200000D03*
X126600000Y-156200000D03*
X125800000Y-156200000D03*
X125000000Y-156200000D03*
X124200000Y-156200000D03*
X123400000Y-156200000D03*
D17*
X122300000Y-157100000D03*
X122300000Y-157900000D03*
X122300000Y-158700000D03*
X122300000Y-159500000D03*
X122300000Y-160300000D03*
X122300000Y-161100000D03*
X122300000Y-161900000D03*
X122300000Y-162700000D03*
X122300000Y-163500000D03*
X122300000Y-164300000D03*
X122300000Y-165100000D03*
D18*
X123400000Y-166000000D03*
X124200000Y-166000000D03*
X125000000Y-166000000D03*
X125800000Y-166000000D03*
X126600000Y-166000000D03*
X127400000Y-166000000D03*
X128200000Y-166000000D03*
X129000000Y-166000000D03*
X129800000Y-166000000D03*
X130600000Y-166000000D03*
X131400000Y-166000000D03*
X132200000Y-166000000D03*
X133000000Y-166000000D03*
D19*
X130175000Y-163075000D03*
D20*
X130175000Y-161100000D03*
X130175000Y-159125000D03*
X128200000Y-163075000D03*
X128200000Y-161100000D03*
X128200000Y-159125000D03*
X126225000Y-163075000D03*
X126225000Y-161100000D03*
X126225000Y-159125000D03*
D21*
X122250000Y-166050000D03*
X122250000Y-156150000D03*
X134150000Y-156150000D03*
X134150000Y-166050000D03*
%TD*%
D12*
%TO.C,R4*%
X135600000Y-137500000D03*
X137250000Y-137500000D03*
%TD*%
%TO.C,R3*%
X113125000Y-155200000D03*
X114775000Y-155200000D03*
%TD*%
D14*
%TO.C,R1*%
X121348000Y-138978000D03*
X119698000Y-138978000D03*
%TD*%
D22*
%TO.C,R7*%
X137500000Y-163660000D03*
X137500000Y-162010000D03*
%TD*%
D12*
%TO.C,R11*%
X118500000Y-155500000D03*
X120150000Y-155500000D03*
%TD*%
D22*
%TO.C,R6*%
X139500000Y-163650000D03*
X139500000Y-162000000D03*
%TD*%
D23*
%TO.C,SW2*%
X111869000Y-151727000D03*
X115969000Y-151727000D03*
X111869000Y-153327000D03*
X115969000Y-153327000D03*
%TD*%
D12*
%TO.C,R2*%
X118675000Y-135500000D03*
X120325000Y-135500000D03*
%TD*%
%TO.C,R5*%
X135600000Y-135500000D03*
X137250000Y-135500000D03*
%TD*%
D24*
%TO.C,D1*%
X118562500Y-133500000D03*
X120437500Y-133500000D03*
%TD*%
D25*
%TO.C,J4*%
X131150000Y-138200000D03*
X130400000Y-138200000D03*
D26*
X129800000Y-138200000D03*
X128300000Y-138200000D03*
X127300000Y-138200000D03*
X126300000Y-138200000D03*
D25*
X125700000Y-138200000D03*
X124950000Y-138200000D03*
D26*
X126800000Y-138200000D03*
X127800000Y-138200000D03*
X128800000Y-138200000D03*
X129300000Y-138200000D03*
D27*
X129450000Y-133900000D03*
X126650000Y-133900000D03*
%TD*%
D28*
%TO.C,Y1*%
X131750000Y-153000000D03*
X134250000Y-153000000D03*
%TD*%
D15*
%TO.C,C4*%
X117602000Y-153429000D03*
X117602000Y-151879000D03*
%TD*%
D29*
%TO.C,U3*%
X114562500Y-139950000D03*
X114562500Y-140550000D03*
X114962500Y-139950000D03*
X114962500Y-140550000D03*
D30*
X113775000Y-139500000D03*
X113775000Y-140000000D03*
X113775000Y-140500000D03*
X113775000Y-141000000D03*
X115750000Y-141000000D03*
X115750000Y-140500000D03*
X115750000Y-140000000D03*
X115750000Y-139500000D03*
%TD*%
D31*
%TO.C,D4*%
X129840000Y-144144000D03*
X126200000Y-144144000D03*
X126160000Y-145924000D03*
X129840000Y-145924000D03*
%TD*%
D24*
%TO.C,D2*%
X135562500Y-133500000D03*
X137437500Y-133500000D03*
%TD*%
M02*
