%TF.GenerationSoftware,KiCad,Pcbnew,9.0.1*%
%TF.CreationDate,2025-05-28T08:33:00+02:00*%
%TF.ProjectId,tv25-cpu-small,74763235-2d63-4707-952d-736d616c6c2e,rev?*%
%TF.SameCoordinates,Original*%
%TF.FileFunction,Legend,Top*%
%TF.FilePolarity,Positive*%
%FSLAX46Y46*%
G04 Gerber Fmt 4.6, Leading zero omitted, Abs format (unit mm)*
G04 Created by KiCad (PCBNEW 9.0.1) date 2025-05-28 08:33:00*
%MOMM*%
%LPD*%
G01*
G04 APERTURE LIST*
%ADD10C,0.150000*%
%ADD11C,0.120000*%
G04 APERTURE END LIST*
D10*
X127143000Y-154989450D02*
X127250143Y-155025164D01*
X127250143Y-155025164D02*
X127428714Y-155025164D01*
X127428714Y-155025164D02*
X127500143Y-154989450D01*
X127500143Y-154989450D02*
X127535857Y-154953735D01*
X127535857Y-154953735D02*
X127571571Y-154882307D01*
X127571571Y-154882307D02*
X127571571Y-154810878D01*
X127571571Y-154810878D02*
X127535857Y-154739450D01*
X127535857Y-154739450D02*
X127500143Y-154703735D01*
X127500143Y-154703735D02*
X127428714Y-154668021D01*
X127428714Y-154668021D02*
X127285857Y-154632307D01*
X127285857Y-154632307D02*
X127214428Y-154596592D01*
X127214428Y-154596592D02*
X127178714Y-154560878D01*
X127178714Y-154560878D02*
X127143000Y-154489450D01*
X127143000Y-154489450D02*
X127143000Y-154418021D01*
X127143000Y-154418021D02*
X127178714Y-154346592D01*
X127178714Y-154346592D02*
X127214428Y-154310878D01*
X127214428Y-154310878D02*
X127285857Y-154275164D01*
X127285857Y-154275164D02*
X127464428Y-154275164D01*
X127464428Y-154275164D02*
X127571571Y-154310878D01*
X127821571Y-154275164D02*
X128000143Y-155025164D01*
X128000143Y-155025164D02*
X128143000Y-154489450D01*
X128143000Y-154489450D02*
X128285857Y-155025164D01*
X128285857Y-155025164D02*
X128464429Y-154275164D01*
X129071572Y-154525164D02*
X129071572Y-155025164D01*
X128893000Y-154239450D02*
X128714429Y-154775164D01*
X128714429Y-154775164D02*
X129178714Y-154775164D01*
X122745571Y-147417164D02*
X122745571Y-148024307D01*
X122745571Y-148024307D02*
X122781285Y-148095735D01*
X122781285Y-148095735D02*
X122817000Y-148131450D01*
X122817000Y-148131450D02*
X122888428Y-148167164D01*
X122888428Y-148167164D02*
X123031285Y-148167164D01*
X123031285Y-148167164D02*
X123102714Y-148131450D01*
X123102714Y-148131450D02*
X123138428Y-148095735D01*
X123138428Y-148095735D02*
X123174142Y-148024307D01*
X123174142Y-148024307D02*
X123174142Y-147417164D01*
X123495571Y-147488592D02*
X123531285Y-147452878D01*
X123531285Y-147452878D02*
X123602714Y-147417164D01*
X123602714Y-147417164D02*
X123781285Y-147417164D01*
X123781285Y-147417164D02*
X123852714Y-147452878D01*
X123852714Y-147452878D02*
X123888428Y-147488592D01*
X123888428Y-147488592D02*
X123924142Y-147560021D01*
X123924142Y-147560021D02*
X123924142Y-147631450D01*
X123924142Y-147631450D02*
X123888428Y-147738592D01*
X123888428Y-147738592D02*
X123459856Y-148167164D01*
X123459856Y-148167164D02*
X123924142Y-148167164D01*
X135637999Y-150762735D02*
X135602285Y-150798450D01*
X135602285Y-150798450D02*
X135495142Y-150834164D01*
X135495142Y-150834164D02*
X135423714Y-150834164D01*
X135423714Y-150834164D02*
X135316571Y-150798450D01*
X135316571Y-150798450D02*
X135245142Y-150727021D01*
X135245142Y-150727021D02*
X135209428Y-150655592D01*
X135209428Y-150655592D02*
X135173714Y-150512735D01*
X135173714Y-150512735D02*
X135173714Y-150405592D01*
X135173714Y-150405592D02*
X135209428Y-150262735D01*
X135209428Y-150262735D02*
X135245142Y-150191307D01*
X135245142Y-150191307D02*
X135316571Y-150119878D01*
X135316571Y-150119878D02*
X135423714Y-150084164D01*
X135423714Y-150084164D02*
X135495142Y-150084164D01*
X135495142Y-150084164D02*
X135602285Y-150119878D01*
X135602285Y-150119878D02*
X135637999Y-150155592D01*
X136316571Y-150084164D02*
X135959428Y-150084164D01*
X135959428Y-150084164D02*
X135923714Y-150441307D01*
X135923714Y-150441307D02*
X135959428Y-150405592D01*
X135959428Y-150405592D02*
X136030857Y-150369878D01*
X136030857Y-150369878D02*
X136209428Y-150369878D01*
X136209428Y-150369878D02*
X136280857Y-150405592D01*
X136280857Y-150405592D02*
X136316571Y-150441307D01*
X136316571Y-150441307D02*
X136352285Y-150512735D01*
X136352285Y-150512735D02*
X136352285Y-150691307D01*
X136352285Y-150691307D02*
X136316571Y-150762735D01*
X136316571Y-150762735D02*
X136280857Y-150798450D01*
X136280857Y-150798450D02*
X136209428Y-150834164D01*
X136209428Y-150834164D02*
X136030857Y-150834164D01*
X136030857Y-150834164D02*
X135959428Y-150798450D01*
X135959428Y-150798450D02*
X135923714Y-150762735D01*
X135637999Y-148984735D02*
X135602285Y-149020450D01*
X135602285Y-149020450D02*
X135495142Y-149056164D01*
X135495142Y-149056164D02*
X135423714Y-149056164D01*
X135423714Y-149056164D02*
X135316571Y-149020450D01*
X135316571Y-149020450D02*
X135245142Y-148949021D01*
X135245142Y-148949021D02*
X135209428Y-148877592D01*
X135209428Y-148877592D02*
X135173714Y-148734735D01*
X135173714Y-148734735D02*
X135173714Y-148627592D01*
X135173714Y-148627592D02*
X135209428Y-148484735D01*
X135209428Y-148484735D02*
X135245142Y-148413307D01*
X135245142Y-148413307D02*
X135316571Y-148341878D01*
X135316571Y-148341878D02*
X135423714Y-148306164D01*
X135423714Y-148306164D02*
X135495142Y-148306164D01*
X135495142Y-148306164D02*
X135602285Y-148341878D01*
X135602285Y-148341878D02*
X135637999Y-148377592D01*
X136280857Y-148306164D02*
X136137999Y-148306164D01*
X136137999Y-148306164D02*
X136066571Y-148341878D01*
X136066571Y-148341878D02*
X136030857Y-148377592D01*
X136030857Y-148377592D02*
X135959428Y-148484735D01*
X135959428Y-148484735D02*
X135923714Y-148627592D01*
X135923714Y-148627592D02*
X135923714Y-148913307D01*
X135923714Y-148913307D02*
X135959428Y-148984735D01*
X135959428Y-148984735D02*
X135995142Y-149020450D01*
X135995142Y-149020450D02*
X136066571Y-149056164D01*
X136066571Y-149056164D02*
X136209428Y-149056164D01*
X136209428Y-149056164D02*
X136280857Y-149020450D01*
X136280857Y-149020450D02*
X136316571Y-148984735D01*
X136316571Y-148984735D02*
X136352285Y-148913307D01*
X136352285Y-148913307D02*
X136352285Y-148734735D01*
X136352285Y-148734735D02*
X136316571Y-148663307D01*
X136316571Y-148663307D02*
X136280857Y-148627592D01*
X136280857Y-148627592D02*
X136209428Y-148591878D01*
X136209428Y-148591878D02*
X136066571Y-148591878D01*
X136066571Y-148591878D02*
X135995142Y-148627592D01*
X135995142Y-148627592D02*
X135959428Y-148663307D01*
X135959428Y-148663307D02*
X135923714Y-148734735D01*
X132589999Y-140293164D02*
X132339999Y-139936021D01*
X132161428Y-140293164D02*
X132161428Y-139543164D01*
X132161428Y-139543164D02*
X132447142Y-139543164D01*
X132447142Y-139543164D02*
X132518571Y-139578878D01*
X132518571Y-139578878D02*
X132554285Y-139614592D01*
X132554285Y-139614592D02*
X132589999Y-139686021D01*
X132589999Y-139686021D02*
X132589999Y-139793164D01*
X132589999Y-139793164D02*
X132554285Y-139864592D01*
X132554285Y-139864592D02*
X132518571Y-139900307D01*
X132518571Y-139900307D02*
X132447142Y-139936021D01*
X132447142Y-139936021D02*
X132161428Y-139936021D01*
X133018571Y-139864592D02*
X132947142Y-139828878D01*
X132947142Y-139828878D02*
X132911428Y-139793164D01*
X132911428Y-139793164D02*
X132875714Y-139721735D01*
X132875714Y-139721735D02*
X132875714Y-139686021D01*
X132875714Y-139686021D02*
X132911428Y-139614592D01*
X132911428Y-139614592D02*
X132947142Y-139578878D01*
X132947142Y-139578878D02*
X133018571Y-139543164D01*
X133018571Y-139543164D02*
X133161428Y-139543164D01*
X133161428Y-139543164D02*
X133232857Y-139578878D01*
X133232857Y-139578878D02*
X133268571Y-139614592D01*
X133268571Y-139614592D02*
X133304285Y-139686021D01*
X133304285Y-139686021D02*
X133304285Y-139721735D01*
X133304285Y-139721735D02*
X133268571Y-139793164D01*
X133268571Y-139793164D02*
X133232857Y-139828878D01*
X133232857Y-139828878D02*
X133161428Y-139864592D01*
X133161428Y-139864592D02*
X133018571Y-139864592D01*
X133018571Y-139864592D02*
X132947142Y-139900307D01*
X132947142Y-139900307D02*
X132911428Y-139936021D01*
X132911428Y-139936021D02*
X132875714Y-140007450D01*
X132875714Y-140007450D02*
X132875714Y-140150307D01*
X132875714Y-140150307D02*
X132911428Y-140221735D01*
X132911428Y-140221735D02*
X132947142Y-140257450D01*
X132947142Y-140257450D02*
X133018571Y-140293164D01*
X133018571Y-140293164D02*
X133161428Y-140293164D01*
X133161428Y-140293164D02*
X133232857Y-140257450D01*
X133232857Y-140257450D02*
X133268571Y-140221735D01*
X133268571Y-140221735D02*
X133304285Y-140150307D01*
X133304285Y-140150307D02*
X133304285Y-140007450D01*
X133304285Y-140007450D02*
X133268571Y-139936021D01*
X133268571Y-139936021D02*
X133232857Y-139900307D01*
X133232857Y-139900307D02*
X133161428Y-139864592D01*
X116854295Y-160553332D02*
X116473342Y-160819999D01*
X116854295Y-161010475D02*
X116054295Y-161010475D01*
X116054295Y-161010475D02*
X116054295Y-160705713D01*
X116054295Y-160705713D02*
X116092390Y-160629523D01*
X116092390Y-160629523D02*
X116130485Y-160591428D01*
X116130485Y-160591428D02*
X116206676Y-160553332D01*
X116206676Y-160553332D02*
X116320961Y-160553332D01*
X116320961Y-160553332D02*
X116397152Y-160591428D01*
X116397152Y-160591428D02*
X116435247Y-160629523D01*
X116435247Y-160629523D02*
X116473342Y-160705713D01*
X116473342Y-160705713D02*
X116473342Y-161010475D01*
X116054295Y-160286666D02*
X116854295Y-159753332D01*
X116054295Y-159753332D02*
X116854295Y-160286666D01*
X110554295Y-163629523D02*
X110554295Y-163172380D01*
X111354295Y-163400952D02*
X110554295Y-163400952D01*
X110554295Y-162981904D02*
X111354295Y-162448570D01*
X110554295Y-162448570D02*
X111354295Y-162981904D01*
X110654295Y-158507030D02*
X110654295Y-158011792D01*
X110654295Y-158011792D02*
X110959057Y-158278458D01*
X110959057Y-158278458D02*
X110959057Y-158164173D01*
X110959057Y-158164173D02*
X110997152Y-158087982D01*
X110997152Y-158087982D02*
X111035247Y-158049887D01*
X111035247Y-158049887D02*
X111111438Y-158011792D01*
X111111438Y-158011792D02*
X111301914Y-158011792D01*
X111301914Y-158011792D02*
X111378104Y-158049887D01*
X111378104Y-158049887D02*
X111416200Y-158087982D01*
X111416200Y-158087982D02*
X111454295Y-158164173D01*
X111454295Y-158164173D02*
X111454295Y-158392744D01*
X111454295Y-158392744D02*
X111416200Y-158468935D01*
X111416200Y-158468935D02*
X111378104Y-158507030D01*
X110654295Y-157783220D02*
X111454295Y-157516553D01*
X111454295Y-157516553D02*
X110654295Y-157249887D01*
X111035247Y-160729523D02*
X111035247Y-160996189D01*
X111454295Y-160996189D02*
X110654295Y-160996189D01*
X110654295Y-160996189D02*
X110654295Y-160615237D01*
X111454295Y-159929523D02*
X111454295Y-160310475D01*
X111454295Y-160310475D02*
X110654295Y-160310475D01*
X116435247Y-158410475D02*
X116435247Y-158143809D01*
X116854295Y-158029523D02*
X116854295Y-158410475D01*
X116854295Y-158410475D02*
X116054295Y-158410475D01*
X116054295Y-158410475D02*
X116054295Y-158029523D01*
X116854295Y-157686665D02*
X116054295Y-157686665D01*
X116054295Y-157686665D02*
X116854295Y-157229522D01*
X116854295Y-157229522D02*
X116054295Y-157229522D01*
X116092390Y-163210476D02*
X116054295Y-163286666D01*
X116054295Y-163286666D02*
X116054295Y-163400952D01*
X116054295Y-163400952D02*
X116092390Y-163515238D01*
X116092390Y-163515238D02*
X116168580Y-163591428D01*
X116168580Y-163591428D02*
X116244771Y-163629523D01*
X116244771Y-163629523D02*
X116397152Y-163667619D01*
X116397152Y-163667619D02*
X116511438Y-163667619D01*
X116511438Y-163667619D02*
X116663819Y-163629523D01*
X116663819Y-163629523D02*
X116740009Y-163591428D01*
X116740009Y-163591428D02*
X116816200Y-163515238D01*
X116816200Y-163515238D02*
X116854295Y-163400952D01*
X116854295Y-163400952D02*
X116854295Y-163324761D01*
X116854295Y-163324761D02*
X116816200Y-163210476D01*
X116816200Y-163210476D02*
X116778104Y-163172380D01*
X116778104Y-163172380D02*
X116511438Y-163172380D01*
X116511438Y-163172380D02*
X116511438Y-163324761D01*
X116854295Y-162829523D02*
X116054295Y-162829523D01*
X116054295Y-162829523D02*
X116054295Y-162639047D01*
X116054295Y-162639047D02*
X116092390Y-162524761D01*
X116092390Y-162524761D02*
X116168580Y-162448571D01*
X116168580Y-162448571D02*
X116244771Y-162410476D01*
X116244771Y-162410476D02*
X116397152Y-162372380D01*
X116397152Y-162372380D02*
X116511438Y-162372380D01*
X116511438Y-162372380D02*
X116663819Y-162410476D01*
X116663819Y-162410476D02*
X116740009Y-162448571D01*
X116740009Y-162448571D02*
X116816200Y-162524761D01*
X116816200Y-162524761D02*
X116854295Y-162639047D01*
X116854295Y-162639047D02*
X116854295Y-162829523D01*
X122580856Y-153882164D02*
X122330856Y-153525021D01*
X122152285Y-153882164D02*
X122152285Y-153132164D01*
X122152285Y-153132164D02*
X122437999Y-153132164D01*
X122437999Y-153132164D02*
X122509428Y-153167878D01*
X122509428Y-153167878D02*
X122545142Y-153203592D01*
X122545142Y-153203592D02*
X122580856Y-153275021D01*
X122580856Y-153275021D02*
X122580856Y-153382164D01*
X122580856Y-153382164D02*
X122545142Y-153453592D01*
X122545142Y-153453592D02*
X122509428Y-153489307D01*
X122509428Y-153489307D02*
X122437999Y-153525021D01*
X122437999Y-153525021D02*
X122152285Y-153525021D01*
X123295142Y-153882164D02*
X122866571Y-153882164D01*
X123080856Y-153882164D02*
X123080856Y-153132164D01*
X123080856Y-153132164D02*
X123009428Y-153239307D01*
X123009428Y-153239307D02*
X122937999Y-153310735D01*
X122937999Y-153310735D02*
X122866571Y-153346450D01*
X123759428Y-153132164D02*
X123830857Y-153132164D01*
X123830857Y-153132164D02*
X123902285Y-153167878D01*
X123902285Y-153167878D02*
X123938000Y-153203592D01*
X123938000Y-153203592D02*
X123973714Y-153275021D01*
X123973714Y-153275021D02*
X124009428Y-153417878D01*
X124009428Y-153417878D02*
X124009428Y-153596450D01*
X124009428Y-153596450D02*
X123973714Y-153739307D01*
X123973714Y-153739307D02*
X123938000Y-153810735D01*
X123938000Y-153810735D02*
X123902285Y-153846450D01*
X123902285Y-153846450D02*
X123830857Y-153882164D01*
X123830857Y-153882164D02*
X123759428Y-153882164D01*
X123759428Y-153882164D02*
X123688000Y-153846450D01*
X123688000Y-153846450D02*
X123652285Y-153810735D01*
X123652285Y-153810735D02*
X123616571Y-153739307D01*
X123616571Y-153739307D02*
X123580857Y-153596450D01*
X123580857Y-153596450D02*
X123580857Y-153417878D01*
X123580857Y-153417878D02*
X123616571Y-153275021D01*
X123616571Y-153275021D02*
X123652285Y-153203592D01*
X123652285Y-153203592D02*
X123688000Y-153167878D01*
X123688000Y-153167878D02*
X123759428Y-153132164D01*
X123064999Y-150762735D02*
X123029285Y-150798450D01*
X123029285Y-150798450D02*
X122922142Y-150834164D01*
X122922142Y-150834164D02*
X122850714Y-150834164D01*
X122850714Y-150834164D02*
X122743571Y-150798450D01*
X122743571Y-150798450D02*
X122672142Y-150727021D01*
X122672142Y-150727021D02*
X122636428Y-150655592D01*
X122636428Y-150655592D02*
X122600714Y-150512735D01*
X122600714Y-150512735D02*
X122600714Y-150405592D01*
X122600714Y-150405592D02*
X122636428Y-150262735D01*
X122636428Y-150262735D02*
X122672142Y-150191307D01*
X122672142Y-150191307D02*
X122743571Y-150119878D01*
X122743571Y-150119878D02*
X122850714Y-150084164D01*
X122850714Y-150084164D02*
X122922142Y-150084164D01*
X122922142Y-150084164D02*
X123029285Y-150119878D01*
X123029285Y-150119878D02*
X123064999Y-150155592D01*
X123350714Y-150155592D02*
X123386428Y-150119878D01*
X123386428Y-150119878D02*
X123457857Y-150084164D01*
X123457857Y-150084164D02*
X123636428Y-150084164D01*
X123636428Y-150084164D02*
X123707857Y-150119878D01*
X123707857Y-150119878D02*
X123743571Y-150155592D01*
X123743571Y-150155592D02*
X123779285Y-150227021D01*
X123779285Y-150227021D02*
X123779285Y-150298450D01*
X123779285Y-150298450D02*
X123743571Y-150405592D01*
X123743571Y-150405592D02*
X123314999Y-150834164D01*
X123314999Y-150834164D02*
X123779285Y-150834164D01*
X123318999Y-140166164D02*
X123068999Y-139809021D01*
X122890428Y-140166164D02*
X122890428Y-139416164D01*
X122890428Y-139416164D02*
X123176142Y-139416164D01*
X123176142Y-139416164D02*
X123247571Y-139451878D01*
X123247571Y-139451878D02*
X123283285Y-139487592D01*
X123283285Y-139487592D02*
X123318999Y-139559021D01*
X123318999Y-139559021D02*
X123318999Y-139666164D01*
X123318999Y-139666164D02*
X123283285Y-139737592D01*
X123283285Y-139737592D02*
X123247571Y-139773307D01*
X123247571Y-139773307D02*
X123176142Y-139809021D01*
X123176142Y-139809021D02*
X122890428Y-139809021D01*
X123676142Y-140166164D02*
X123818999Y-140166164D01*
X123818999Y-140166164D02*
X123890428Y-140130450D01*
X123890428Y-140130450D02*
X123926142Y-140094735D01*
X123926142Y-140094735D02*
X123997571Y-139987592D01*
X123997571Y-139987592D02*
X124033285Y-139844735D01*
X124033285Y-139844735D02*
X124033285Y-139559021D01*
X124033285Y-139559021D02*
X123997571Y-139487592D01*
X123997571Y-139487592D02*
X123961857Y-139451878D01*
X123961857Y-139451878D02*
X123890428Y-139416164D01*
X123890428Y-139416164D02*
X123747571Y-139416164D01*
X123747571Y-139416164D02*
X123676142Y-139451878D01*
X123676142Y-139451878D02*
X123640428Y-139487592D01*
X123640428Y-139487592D02*
X123604714Y-139559021D01*
X123604714Y-139559021D02*
X123604714Y-139737592D01*
X123604714Y-139737592D02*
X123640428Y-139809021D01*
X123640428Y-139809021D02*
X123676142Y-139844735D01*
X123676142Y-139844735D02*
X123747571Y-139880450D01*
X123747571Y-139880450D02*
X123890428Y-139880450D01*
X123890428Y-139880450D02*
X123961857Y-139844735D01*
X123961857Y-139844735D02*
X123997571Y-139809021D01*
X123997571Y-139809021D02*
X124033285Y-139737592D01*
X112269999Y-138443735D02*
X112234285Y-138479450D01*
X112234285Y-138479450D02*
X112127142Y-138515164D01*
X112127142Y-138515164D02*
X112055714Y-138515164D01*
X112055714Y-138515164D02*
X111948571Y-138479450D01*
X111948571Y-138479450D02*
X111877142Y-138408021D01*
X111877142Y-138408021D02*
X111841428Y-138336592D01*
X111841428Y-138336592D02*
X111805714Y-138193735D01*
X111805714Y-138193735D02*
X111805714Y-138086592D01*
X111805714Y-138086592D02*
X111841428Y-137943735D01*
X111841428Y-137943735D02*
X111877142Y-137872307D01*
X111877142Y-137872307D02*
X111948571Y-137800878D01*
X111948571Y-137800878D02*
X112055714Y-137765164D01*
X112055714Y-137765164D02*
X112127142Y-137765164D01*
X112127142Y-137765164D02*
X112234285Y-137800878D01*
X112234285Y-137800878D02*
X112269999Y-137836592D01*
X112984285Y-138515164D02*
X112555714Y-138515164D01*
X112769999Y-138515164D02*
X112769999Y-137765164D01*
X112769999Y-137765164D02*
X112698571Y-137872307D01*
X112698571Y-137872307D02*
X112627142Y-137943735D01*
X112627142Y-137943735D02*
X112555714Y-137979450D01*
X122999571Y-141194164D02*
X122999571Y-141801307D01*
X122999571Y-141801307D02*
X123035285Y-141872735D01*
X123035285Y-141872735D02*
X123071000Y-141908450D01*
X123071000Y-141908450D02*
X123142428Y-141944164D01*
X123142428Y-141944164D02*
X123285285Y-141944164D01*
X123285285Y-141944164D02*
X123356714Y-141908450D01*
X123356714Y-141908450D02*
X123392428Y-141872735D01*
X123392428Y-141872735D02*
X123428142Y-141801307D01*
X123428142Y-141801307D02*
X123428142Y-141194164D01*
X124178142Y-141944164D02*
X123749571Y-141944164D01*
X123963856Y-141944164D02*
X123963856Y-141194164D01*
X123963856Y-141194164D02*
X123892428Y-141301307D01*
X123892428Y-141301307D02*
X123820999Y-141372735D01*
X123820999Y-141372735D02*
X123749571Y-141408450D01*
X123191999Y-144920735D02*
X123156285Y-144956450D01*
X123156285Y-144956450D02*
X123049142Y-144992164D01*
X123049142Y-144992164D02*
X122977714Y-144992164D01*
X122977714Y-144992164D02*
X122870571Y-144956450D01*
X122870571Y-144956450D02*
X122799142Y-144885021D01*
X122799142Y-144885021D02*
X122763428Y-144813592D01*
X122763428Y-144813592D02*
X122727714Y-144670735D01*
X122727714Y-144670735D02*
X122727714Y-144563592D01*
X122727714Y-144563592D02*
X122763428Y-144420735D01*
X122763428Y-144420735D02*
X122799142Y-144349307D01*
X122799142Y-144349307D02*
X122870571Y-144277878D01*
X122870571Y-144277878D02*
X122977714Y-144242164D01*
X122977714Y-144242164D02*
X123049142Y-144242164D01*
X123049142Y-144242164D02*
X123156285Y-144277878D01*
X123156285Y-144277878D02*
X123191999Y-144313592D01*
X123441999Y-144242164D02*
X123906285Y-144242164D01*
X123906285Y-144242164D02*
X123656285Y-144527878D01*
X123656285Y-144527878D02*
X123763428Y-144527878D01*
X123763428Y-144527878D02*
X123834857Y-144563592D01*
X123834857Y-144563592D02*
X123870571Y-144599307D01*
X123870571Y-144599307D02*
X123906285Y-144670735D01*
X123906285Y-144670735D02*
X123906285Y-144849307D01*
X123906285Y-144849307D02*
X123870571Y-144920735D01*
X123870571Y-144920735D02*
X123834857Y-144956450D01*
X123834857Y-144956450D02*
X123763428Y-144992164D01*
X123763428Y-144992164D02*
X123549142Y-144992164D01*
X123549142Y-144992164D02*
X123477714Y-144956450D01*
X123477714Y-144956450D02*
X123441999Y-144920735D01*
X127628571Y-172889164D02*
X127628571Y-173496307D01*
X127628571Y-173496307D02*
X127664285Y-173567735D01*
X127664285Y-173567735D02*
X127700000Y-173603450D01*
X127700000Y-173603450D02*
X127771428Y-173639164D01*
X127771428Y-173639164D02*
X127914285Y-173639164D01*
X127914285Y-173639164D02*
X127985714Y-173603450D01*
X127985714Y-173603450D02*
X128021428Y-173567735D01*
X128021428Y-173567735D02*
X128057142Y-173496307D01*
X128057142Y-173496307D02*
X128057142Y-172889164D01*
X128735714Y-173139164D02*
X128735714Y-173639164D01*
X128557142Y-172853450D02*
X128378571Y-173389164D01*
X128378571Y-173389164D02*
X128842856Y-173389164D01*
X123438094Y-169819104D02*
X123914284Y-169819104D01*
X123342856Y-170104819D02*
X123676189Y-169104819D01*
X123676189Y-169104819D02*
X124009522Y-170104819D01*
X124342856Y-169438152D02*
X124342856Y-170104819D01*
X124342856Y-169533390D02*
X124390475Y-169485771D01*
X124390475Y-169485771D02*
X124485713Y-169438152D01*
X124485713Y-169438152D02*
X124628570Y-169438152D01*
X124628570Y-169438152D02*
X124723808Y-169485771D01*
X124723808Y-169485771D02*
X124771427Y-169581009D01*
X124771427Y-169581009D02*
X124771427Y-170104819D01*
X125104761Y-169438152D02*
X125485713Y-169438152D01*
X125247618Y-169104819D02*
X125247618Y-169961961D01*
X125247618Y-169961961D02*
X125295237Y-170057200D01*
X125295237Y-170057200D02*
X125390475Y-170104819D01*
X125390475Y-170104819D02*
X125485713Y-170104819D01*
X126199999Y-170057200D02*
X126104761Y-170104819D01*
X126104761Y-170104819D02*
X125914285Y-170104819D01*
X125914285Y-170104819D02*
X125819047Y-170057200D01*
X125819047Y-170057200D02*
X125771428Y-169961961D01*
X125771428Y-169961961D02*
X125771428Y-169581009D01*
X125771428Y-169581009D02*
X125819047Y-169485771D01*
X125819047Y-169485771D02*
X125914285Y-169438152D01*
X125914285Y-169438152D02*
X126104761Y-169438152D01*
X126104761Y-169438152D02*
X126199999Y-169485771D01*
X126199999Y-169485771D02*
X126247618Y-169581009D01*
X126247618Y-169581009D02*
X126247618Y-169676247D01*
X126247618Y-169676247D02*
X125771428Y-169771485D01*
X126676190Y-169438152D02*
X126676190Y-170104819D01*
X126676190Y-169533390D02*
X126723809Y-169485771D01*
X126723809Y-169485771D02*
X126819047Y-169438152D01*
X126819047Y-169438152D02*
X126961904Y-169438152D01*
X126961904Y-169438152D02*
X127057142Y-169485771D01*
X127057142Y-169485771D02*
X127104761Y-169581009D01*
X127104761Y-169581009D02*
X127104761Y-170104819D01*
X127580952Y-169438152D02*
X127580952Y-170104819D01*
X127580952Y-169533390D02*
X127628571Y-169485771D01*
X127628571Y-169485771D02*
X127723809Y-169438152D01*
X127723809Y-169438152D02*
X127866666Y-169438152D01*
X127866666Y-169438152D02*
X127961904Y-169485771D01*
X127961904Y-169485771D02*
X128009523Y-169581009D01*
X128009523Y-169581009D02*
X128009523Y-170104819D01*
X128914285Y-170104819D02*
X128914285Y-169581009D01*
X128914285Y-169581009D02*
X128866666Y-169485771D01*
X128866666Y-169485771D02*
X128771428Y-169438152D01*
X128771428Y-169438152D02*
X128580952Y-169438152D01*
X128580952Y-169438152D02*
X128485714Y-169485771D01*
X128914285Y-170057200D02*
X128819047Y-170104819D01*
X128819047Y-170104819D02*
X128580952Y-170104819D01*
X128580952Y-170104819D02*
X128485714Y-170057200D01*
X128485714Y-170057200D02*
X128438095Y-169961961D01*
X128438095Y-169961961D02*
X128438095Y-169866723D01*
X128438095Y-169866723D02*
X128485714Y-169771485D01*
X128485714Y-169771485D02*
X128580952Y-169723866D01*
X128580952Y-169723866D02*
X128819047Y-169723866D01*
X128819047Y-169723866D02*
X128914285Y-169676247D01*
X130104762Y-169819104D02*
X130580952Y-169819104D01*
X130009524Y-170104819D02*
X130342857Y-169104819D01*
X130342857Y-169104819D02*
X130676190Y-170104819D01*
X131009524Y-170104819D02*
X131009524Y-169438152D01*
X131009524Y-169628628D02*
X131057143Y-169533390D01*
X131057143Y-169533390D02*
X131104762Y-169485771D01*
X131104762Y-169485771D02*
X131200000Y-169438152D01*
X131200000Y-169438152D02*
X131295238Y-169438152D01*
X132009524Y-170057200D02*
X131914286Y-170104819D01*
X131914286Y-170104819D02*
X131723810Y-170104819D01*
X131723810Y-170104819D02*
X131628572Y-170057200D01*
X131628572Y-170057200D02*
X131580953Y-169961961D01*
X131580953Y-169961961D02*
X131580953Y-169581009D01*
X131580953Y-169581009D02*
X131628572Y-169485771D01*
X131628572Y-169485771D02*
X131723810Y-169438152D01*
X131723810Y-169438152D02*
X131914286Y-169438152D01*
X131914286Y-169438152D02*
X132009524Y-169485771D01*
X132009524Y-169485771D02*
X132057143Y-169581009D01*
X132057143Y-169581009D02*
X132057143Y-169676247D01*
X132057143Y-169676247D02*
X131580953Y-169771485D01*
X132914286Y-170104819D02*
X132914286Y-169581009D01*
X132914286Y-169581009D02*
X132866667Y-169485771D01*
X132866667Y-169485771D02*
X132771429Y-169438152D01*
X132771429Y-169438152D02*
X132580953Y-169438152D01*
X132580953Y-169438152D02*
X132485715Y-169485771D01*
X132914286Y-170057200D02*
X132819048Y-170104819D01*
X132819048Y-170104819D02*
X132580953Y-170104819D01*
X132580953Y-170104819D02*
X132485715Y-170057200D01*
X132485715Y-170057200D02*
X132438096Y-169961961D01*
X132438096Y-169961961D02*
X132438096Y-169866723D01*
X132438096Y-169866723D02*
X132485715Y-169771485D01*
X132485715Y-169771485D02*
X132580953Y-169723866D01*
X132580953Y-169723866D02*
X132819048Y-169723866D01*
X132819048Y-169723866D02*
X132914286Y-169676247D01*
X139066999Y-137753164D02*
X138816999Y-137396021D01*
X138638428Y-137753164D02*
X138638428Y-137003164D01*
X138638428Y-137003164D02*
X138924142Y-137003164D01*
X138924142Y-137003164D02*
X138995571Y-137038878D01*
X138995571Y-137038878D02*
X139031285Y-137074592D01*
X139031285Y-137074592D02*
X139066999Y-137146021D01*
X139066999Y-137146021D02*
X139066999Y-137253164D01*
X139066999Y-137253164D02*
X139031285Y-137324592D01*
X139031285Y-137324592D02*
X138995571Y-137360307D01*
X138995571Y-137360307D02*
X138924142Y-137396021D01*
X138924142Y-137396021D02*
X138638428Y-137396021D01*
X139709857Y-137253164D02*
X139709857Y-137753164D01*
X139531285Y-136967450D02*
X139352714Y-137503164D01*
X139352714Y-137503164D02*
X139816999Y-137503164D01*
X111380999Y-155533164D02*
X111130999Y-155176021D01*
X110952428Y-155533164D02*
X110952428Y-154783164D01*
X110952428Y-154783164D02*
X111238142Y-154783164D01*
X111238142Y-154783164D02*
X111309571Y-154818878D01*
X111309571Y-154818878D02*
X111345285Y-154854592D01*
X111345285Y-154854592D02*
X111380999Y-154926021D01*
X111380999Y-154926021D02*
X111380999Y-155033164D01*
X111380999Y-155033164D02*
X111345285Y-155104592D01*
X111345285Y-155104592D02*
X111309571Y-155140307D01*
X111309571Y-155140307D02*
X111238142Y-155176021D01*
X111238142Y-155176021D02*
X110952428Y-155176021D01*
X111630999Y-154783164D02*
X112095285Y-154783164D01*
X112095285Y-154783164D02*
X111845285Y-155068878D01*
X111845285Y-155068878D02*
X111952428Y-155068878D01*
X111952428Y-155068878D02*
X112023857Y-155104592D01*
X112023857Y-155104592D02*
X112059571Y-155140307D01*
X112059571Y-155140307D02*
X112095285Y-155211735D01*
X112095285Y-155211735D02*
X112095285Y-155390307D01*
X112095285Y-155390307D02*
X112059571Y-155461735D01*
X112059571Y-155461735D02*
X112023857Y-155497450D01*
X112023857Y-155497450D02*
X111952428Y-155533164D01*
X111952428Y-155533164D02*
X111738142Y-155533164D01*
X111738142Y-155533164D02*
X111666714Y-155497450D01*
X111666714Y-155497450D02*
X111630999Y-155461735D01*
X120397999Y-138007164D02*
X120147999Y-137650021D01*
X119969428Y-138007164D02*
X119969428Y-137257164D01*
X119969428Y-137257164D02*
X120255142Y-137257164D01*
X120255142Y-137257164D02*
X120326571Y-137292878D01*
X120326571Y-137292878D02*
X120362285Y-137328592D01*
X120362285Y-137328592D02*
X120397999Y-137400021D01*
X120397999Y-137400021D02*
X120397999Y-137507164D01*
X120397999Y-137507164D02*
X120362285Y-137578592D01*
X120362285Y-137578592D02*
X120326571Y-137614307D01*
X120326571Y-137614307D02*
X120255142Y-137650021D01*
X120255142Y-137650021D02*
X119969428Y-137650021D01*
X121112285Y-138007164D02*
X120683714Y-138007164D01*
X120897999Y-138007164D02*
X120897999Y-137257164D01*
X120897999Y-137257164D02*
X120826571Y-137364307D01*
X120826571Y-137364307D02*
X120755142Y-137435735D01*
X120755142Y-137435735D02*
X120683714Y-137471450D01*
X138007164Y-165352000D02*
X137650021Y-165602000D01*
X138007164Y-165780571D02*
X137257164Y-165780571D01*
X137257164Y-165780571D02*
X137257164Y-165494857D01*
X137257164Y-165494857D02*
X137292878Y-165423428D01*
X137292878Y-165423428D02*
X137328592Y-165387714D01*
X137328592Y-165387714D02*
X137400021Y-165352000D01*
X137400021Y-165352000D02*
X137507164Y-165352000D01*
X137507164Y-165352000D02*
X137578592Y-165387714D01*
X137578592Y-165387714D02*
X137614307Y-165423428D01*
X137614307Y-165423428D02*
X137650021Y-165494857D01*
X137650021Y-165494857D02*
X137650021Y-165780571D01*
X137257164Y-165102000D02*
X137257164Y-164602000D01*
X137257164Y-164602000D02*
X138007164Y-164923428D01*
X118897856Y-157184164D02*
X118647856Y-156827021D01*
X118469285Y-157184164D02*
X118469285Y-156434164D01*
X118469285Y-156434164D02*
X118754999Y-156434164D01*
X118754999Y-156434164D02*
X118826428Y-156469878D01*
X118826428Y-156469878D02*
X118862142Y-156505592D01*
X118862142Y-156505592D02*
X118897856Y-156577021D01*
X118897856Y-156577021D02*
X118897856Y-156684164D01*
X118897856Y-156684164D02*
X118862142Y-156755592D01*
X118862142Y-156755592D02*
X118826428Y-156791307D01*
X118826428Y-156791307D02*
X118754999Y-156827021D01*
X118754999Y-156827021D02*
X118469285Y-156827021D01*
X119612142Y-157184164D02*
X119183571Y-157184164D01*
X119397856Y-157184164D02*
X119397856Y-156434164D01*
X119397856Y-156434164D02*
X119326428Y-156541307D01*
X119326428Y-156541307D02*
X119254999Y-156612735D01*
X119254999Y-156612735D02*
X119183571Y-156648450D01*
X120326428Y-157184164D02*
X119897857Y-157184164D01*
X120112142Y-157184164D02*
X120112142Y-156434164D01*
X120112142Y-156434164D02*
X120040714Y-156541307D01*
X120040714Y-156541307D02*
X119969285Y-156612735D01*
X119969285Y-156612735D02*
X119897857Y-156648450D01*
X139912164Y-165479000D02*
X139555021Y-165729000D01*
X139912164Y-165907571D02*
X139162164Y-165907571D01*
X139162164Y-165907571D02*
X139162164Y-165621857D01*
X139162164Y-165621857D02*
X139197878Y-165550428D01*
X139197878Y-165550428D02*
X139233592Y-165514714D01*
X139233592Y-165514714D02*
X139305021Y-165479000D01*
X139305021Y-165479000D02*
X139412164Y-165479000D01*
X139412164Y-165479000D02*
X139483592Y-165514714D01*
X139483592Y-165514714D02*
X139519307Y-165550428D01*
X139519307Y-165550428D02*
X139555021Y-165621857D01*
X139555021Y-165621857D02*
X139555021Y-165907571D01*
X139162164Y-164836143D02*
X139162164Y-164979000D01*
X139162164Y-164979000D02*
X139197878Y-165050428D01*
X139197878Y-165050428D02*
X139233592Y-165086143D01*
X139233592Y-165086143D02*
X139340735Y-165157571D01*
X139340735Y-165157571D02*
X139483592Y-165193285D01*
X139483592Y-165193285D02*
X139769307Y-165193285D01*
X139769307Y-165193285D02*
X139840735Y-165157571D01*
X139840735Y-165157571D02*
X139876450Y-165121857D01*
X139876450Y-165121857D02*
X139912164Y-165050428D01*
X139912164Y-165050428D02*
X139912164Y-164907571D01*
X139912164Y-164907571D02*
X139876450Y-164836143D01*
X139876450Y-164836143D02*
X139840735Y-164800428D01*
X139840735Y-164800428D02*
X139769307Y-164764714D01*
X139769307Y-164764714D02*
X139590735Y-164764714D01*
X139590735Y-164764714D02*
X139519307Y-164800428D01*
X139519307Y-164800428D02*
X139483592Y-164836143D01*
X139483592Y-164836143D02*
X139447878Y-164907571D01*
X139447878Y-164907571D02*
X139447878Y-165050428D01*
X139447878Y-165050428D02*
X139483592Y-165121857D01*
X139483592Y-165121857D02*
X139519307Y-165157571D01*
X139519307Y-165157571D02*
X139590735Y-165193285D01*
X112919000Y-150380450D02*
X113026143Y-150416164D01*
X113026143Y-150416164D02*
X113204714Y-150416164D01*
X113204714Y-150416164D02*
X113276143Y-150380450D01*
X113276143Y-150380450D02*
X113311857Y-150344735D01*
X113311857Y-150344735D02*
X113347571Y-150273307D01*
X113347571Y-150273307D02*
X113347571Y-150201878D01*
X113347571Y-150201878D02*
X113311857Y-150130450D01*
X113311857Y-150130450D02*
X113276143Y-150094735D01*
X113276143Y-150094735D02*
X113204714Y-150059021D01*
X113204714Y-150059021D02*
X113061857Y-150023307D01*
X113061857Y-150023307D02*
X112990428Y-149987592D01*
X112990428Y-149987592D02*
X112954714Y-149951878D01*
X112954714Y-149951878D02*
X112919000Y-149880450D01*
X112919000Y-149880450D02*
X112919000Y-149809021D01*
X112919000Y-149809021D02*
X112954714Y-149737592D01*
X112954714Y-149737592D02*
X112990428Y-149701878D01*
X112990428Y-149701878D02*
X113061857Y-149666164D01*
X113061857Y-149666164D02*
X113240428Y-149666164D01*
X113240428Y-149666164D02*
X113347571Y-149701878D01*
X113597571Y-149666164D02*
X113776143Y-150416164D01*
X113776143Y-150416164D02*
X113919000Y-149880450D01*
X113919000Y-149880450D02*
X114061857Y-150416164D01*
X114061857Y-150416164D02*
X114240429Y-149666164D01*
X114490429Y-149737592D02*
X114526143Y-149701878D01*
X114526143Y-149701878D02*
X114597572Y-149666164D01*
X114597572Y-149666164D02*
X114776143Y-149666164D01*
X114776143Y-149666164D02*
X114847572Y-149701878D01*
X114847572Y-149701878D02*
X114883286Y-149737592D01*
X114883286Y-149737592D02*
X114919000Y-149809021D01*
X114919000Y-149809021D02*
X114919000Y-149880450D01*
X114919000Y-149880450D02*
X114883286Y-149987592D01*
X114883286Y-149987592D02*
X114454714Y-150416164D01*
X114454714Y-150416164D02*
X114919000Y-150416164D01*
X116841999Y-135848164D02*
X116591999Y-135491021D01*
X116413428Y-135848164D02*
X116413428Y-135098164D01*
X116413428Y-135098164D02*
X116699142Y-135098164D01*
X116699142Y-135098164D02*
X116770571Y-135133878D01*
X116770571Y-135133878D02*
X116806285Y-135169592D01*
X116806285Y-135169592D02*
X116841999Y-135241021D01*
X116841999Y-135241021D02*
X116841999Y-135348164D01*
X116841999Y-135348164D02*
X116806285Y-135419592D01*
X116806285Y-135419592D02*
X116770571Y-135455307D01*
X116770571Y-135455307D02*
X116699142Y-135491021D01*
X116699142Y-135491021D02*
X116413428Y-135491021D01*
X117127714Y-135169592D02*
X117163428Y-135133878D01*
X117163428Y-135133878D02*
X117234857Y-135098164D01*
X117234857Y-135098164D02*
X117413428Y-135098164D01*
X117413428Y-135098164D02*
X117484857Y-135133878D01*
X117484857Y-135133878D02*
X117520571Y-135169592D01*
X117520571Y-135169592D02*
X117556285Y-135241021D01*
X117556285Y-135241021D02*
X117556285Y-135312450D01*
X117556285Y-135312450D02*
X117520571Y-135419592D01*
X117520571Y-135419592D02*
X117091999Y-135848164D01*
X117091999Y-135848164D02*
X117556285Y-135848164D01*
X139066999Y-135467164D02*
X138816999Y-135110021D01*
X138638428Y-135467164D02*
X138638428Y-134717164D01*
X138638428Y-134717164D02*
X138924142Y-134717164D01*
X138924142Y-134717164D02*
X138995571Y-134752878D01*
X138995571Y-134752878D02*
X139031285Y-134788592D01*
X139031285Y-134788592D02*
X139066999Y-134860021D01*
X139066999Y-134860021D02*
X139066999Y-134967164D01*
X139066999Y-134967164D02*
X139031285Y-135038592D01*
X139031285Y-135038592D02*
X138995571Y-135074307D01*
X138995571Y-135074307D02*
X138924142Y-135110021D01*
X138924142Y-135110021D02*
X138638428Y-135110021D01*
X139745571Y-134717164D02*
X139388428Y-134717164D01*
X139388428Y-134717164D02*
X139352714Y-135074307D01*
X139352714Y-135074307D02*
X139388428Y-135038592D01*
X139388428Y-135038592D02*
X139459857Y-135002878D01*
X139459857Y-135002878D02*
X139638428Y-135002878D01*
X139638428Y-135002878D02*
X139709857Y-135038592D01*
X139709857Y-135038592D02*
X139745571Y-135074307D01*
X139745571Y-135074307D02*
X139781285Y-135145735D01*
X139781285Y-135145735D02*
X139781285Y-135324307D01*
X139781285Y-135324307D02*
X139745571Y-135395735D01*
X139745571Y-135395735D02*
X139709857Y-135431450D01*
X139709857Y-135431450D02*
X139638428Y-135467164D01*
X139638428Y-135467164D02*
X139459857Y-135467164D01*
X139459857Y-135467164D02*
X139388428Y-135431450D01*
X139388428Y-135431450D02*
X139352714Y-135395735D01*
X116413428Y-133816164D02*
X116413428Y-133066164D01*
X116413428Y-133066164D02*
X116591999Y-133066164D01*
X116591999Y-133066164D02*
X116699142Y-133101878D01*
X116699142Y-133101878D02*
X116770571Y-133173307D01*
X116770571Y-133173307D02*
X116806285Y-133244735D01*
X116806285Y-133244735D02*
X116841999Y-133387592D01*
X116841999Y-133387592D02*
X116841999Y-133494735D01*
X116841999Y-133494735D02*
X116806285Y-133637592D01*
X116806285Y-133637592D02*
X116770571Y-133709021D01*
X116770571Y-133709021D02*
X116699142Y-133780450D01*
X116699142Y-133780450D02*
X116591999Y-133816164D01*
X116591999Y-133816164D02*
X116413428Y-133816164D01*
X117556285Y-133816164D02*
X117127714Y-133816164D01*
X117341999Y-133816164D02*
X117341999Y-133066164D01*
X117341999Y-133066164D02*
X117270571Y-133173307D01*
X117270571Y-133173307D02*
X117199142Y-133244735D01*
X117199142Y-133244735D02*
X117127714Y-133280450D01*
X135532857Y-153017021D02*
X135532857Y-153374164D01*
X135282857Y-152624164D02*
X135532857Y-153017021D01*
X135532857Y-153017021D02*
X135782857Y-152624164D01*
X136425714Y-153374164D02*
X135997143Y-153374164D01*
X136211428Y-153374164D02*
X136211428Y-152624164D01*
X136211428Y-152624164D02*
X136140000Y-152731307D01*
X136140000Y-152731307D02*
X136068571Y-152802735D01*
X136068571Y-152802735D02*
X135997143Y-152838450D01*
X117476999Y-150762735D02*
X117441285Y-150798450D01*
X117441285Y-150798450D02*
X117334142Y-150834164D01*
X117334142Y-150834164D02*
X117262714Y-150834164D01*
X117262714Y-150834164D02*
X117155571Y-150798450D01*
X117155571Y-150798450D02*
X117084142Y-150727021D01*
X117084142Y-150727021D02*
X117048428Y-150655592D01*
X117048428Y-150655592D02*
X117012714Y-150512735D01*
X117012714Y-150512735D02*
X117012714Y-150405592D01*
X117012714Y-150405592D02*
X117048428Y-150262735D01*
X117048428Y-150262735D02*
X117084142Y-150191307D01*
X117084142Y-150191307D02*
X117155571Y-150119878D01*
X117155571Y-150119878D02*
X117262714Y-150084164D01*
X117262714Y-150084164D02*
X117334142Y-150084164D01*
X117334142Y-150084164D02*
X117441285Y-150119878D01*
X117441285Y-150119878D02*
X117476999Y-150155592D01*
X118119857Y-150334164D02*
X118119857Y-150834164D01*
X117941285Y-150048450D02*
X117762714Y-150584164D01*
X117762714Y-150584164D02*
X118226999Y-150584164D01*
X114236571Y-137765164D02*
X114236571Y-138372307D01*
X114236571Y-138372307D02*
X114272285Y-138443735D01*
X114272285Y-138443735D02*
X114308000Y-138479450D01*
X114308000Y-138479450D02*
X114379428Y-138515164D01*
X114379428Y-138515164D02*
X114522285Y-138515164D01*
X114522285Y-138515164D02*
X114593714Y-138479450D01*
X114593714Y-138479450D02*
X114629428Y-138443735D01*
X114629428Y-138443735D02*
X114665142Y-138372307D01*
X114665142Y-138372307D02*
X114665142Y-137765164D01*
X114950856Y-137765164D02*
X115415142Y-137765164D01*
X115415142Y-137765164D02*
X115165142Y-138050878D01*
X115165142Y-138050878D02*
X115272285Y-138050878D01*
X115272285Y-138050878D02*
X115343714Y-138086592D01*
X115343714Y-138086592D02*
X115379428Y-138122307D01*
X115379428Y-138122307D02*
X115415142Y-138193735D01*
X115415142Y-138193735D02*
X115415142Y-138372307D01*
X115415142Y-138372307D02*
X115379428Y-138443735D01*
X115379428Y-138443735D02*
X115343714Y-138479450D01*
X115343714Y-138479450D02*
X115272285Y-138515164D01*
X115272285Y-138515164D02*
X115057999Y-138515164D01*
X115057999Y-138515164D02*
X114986571Y-138479450D01*
X114986571Y-138479450D02*
X114950856Y-138443735D01*
X127335428Y-142960164D02*
X127335428Y-142210164D01*
X127335428Y-142210164D02*
X127513999Y-142210164D01*
X127513999Y-142210164D02*
X127621142Y-142245878D01*
X127621142Y-142245878D02*
X127692571Y-142317307D01*
X127692571Y-142317307D02*
X127728285Y-142388735D01*
X127728285Y-142388735D02*
X127763999Y-142531592D01*
X127763999Y-142531592D02*
X127763999Y-142638735D01*
X127763999Y-142638735D02*
X127728285Y-142781592D01*
X127728285Y-142781592D02*
X127692571Y-142853021D01*
X127692571Y-142853021D02*
X127621142Y-142924450D01*
X127621142Y-142924450D02*
X127513999Y-142960164D01*
X127513999Y-142960164D02*
X127335428Y-142960164D01*
X128406857Y-142460164D02*
X128406857Y-142960164D01*
X128228285Y-142174450D02*
X128049714Y-142710164D01*
X128049714Y-142710164D02*
X128513999Y-142710164D01*
X138638428Y-133816164D02*
X138638428Y-133066164D01*
X138638428Y-133066164D02*
X138816999Y-133066164D01*
X138816999Y-133066164D02*
X138924142Y-133101878D01*
X138924142Y-133101878D02*
X138995571Y-133173307D01*
X138995571Y-133173307D02*
X139031285Y-133244735D01*
X139031285Y-133244735D02*
X139066999Y-133387592D01*
X139066999Y-133387592D02*
X139066999Y-133494735D01*
X139066999Y-133494735D02*
X139031285Y-133637592D01*
X139031285Y-133637592D02*
X138995571Y-133709021D01*
X138995571Y-133709021D02*
X138924142Y-133780450D01*
X138924142Y-133780450D02*
X138816999Y-133816164D01*
X138816999Y-133816164D02*
X138638428Y-133816164D01*
X139352714Y-133137592D02*
X139388428Y-133101878D01*
X139388428Y-133101878D02*
X139459857Y-133066164D01*
X139459857Y-133066164D02*
X139638428Y-133066164D01*
X139638428Y-133066164D02*
X139709857Y-133101878D01*
X139709857Y-133101878D02*
X139745571Y-133137592D01*
X139745571Y-133137592D02*
X139781285Y-133209021D01*
X139781285Y-133209021D02*
X139781285Y-133280450D01*
X139781285Y-133280450D02*
X139745571Y-133387592D01*
X139745571Y-133387592D02*
X139316999Y-133816164D01*
X139316999Y-133816164D02*
X139781285Y-133816164D01*
%TO.C,SW4*%
D11*
X128400000Y-152040000D02*
X127600000Y-152040000D01*
X127600000Y-153040000D01*
X128400000Y-153040000D01*
X128400000Y-152040000D01*
X131000000Y-147640000D02*
X125000000Y-147640000D01*
X125000000Y-154040000D01*
X131000000Y-154040000D01*
X131000000Y-147640000D01*
%TO.C,U2*%
X120488095Y-146190001D02*
X119688095Y-146190001D01*
X120488095Y-146190001D02*
X121288095Y-146190001D01*
X120488095Y-149310001D02*
X119688095Y-149310001D01*
X120488095Y-149310001D02*
X121288095Y-149310001D01*
X119188095Y-146240001D02*
X118948095Y-145910001D01*
X119428095Y-145910001D01*
X119188095Y-146240001D01*
G36*
X119188095Y-146240001D02*
G01*
X118948095Y-145910001D01*
X119428095Y-145910001D01*
X119188095Y-146240001D01*
G37*
%TO.C,C5*%
X132738748Y-149765000D02*
X133261252Y-149765000D01*
X132738748Y-151235000D02*
X133261252Y-151235000D01*
%TO.C,C6*%
X132738748Y-147765000D02*
X133261252Y-147765000D01*
X132738748Y-149235000D02*
X133261252Y-149235000D01*
%TO.C,R8*%
X130262742Y-139304500D02*
X130737258Y-139304500D01*
X130262742Y-140349500D02*
X130737258Y-140349500D01*
%TO.C,R10*%
X120158742Y-153020500D02*
X120633258Y-153020500D01*
X120158742Y-154065500D02*
X120633258Y-154065500D01*
%TO.C,C2*%
X120226843Y-149765001D02*
X120749347Y-149765001D01*
X120226843Y-151235001D02*
X120749347Y-151235001D01*
%TO.C,R9*%
X125904258Y-139304500D02*
X125429742Y-139304500D01*
X125904258Y-140349500D02*
X125429742Y-140349500D01*
%TO.C,C1*%
X111740000Y-140390580D02*
X111740000Y-140109420D01*
X112760000Y-140390580D02*
X112760000Y-140109420D01*
%TO.C,U1*%
X120523000Y-139918000D02*
X119723000Y-139918000D01*
X120523000Y-139918000D02*
X121323000Y-139918000D01*
X120523000Y-143038000D02*
X119723000Y-143038000D01*
X120523000Y-143038000D02*
X121323000Y-143038000D01*
X119223000Y-139968000D02*
X118983000Y-139638000D01*
X119463000Y-139638000D01*
X119223000Y-139968000D01*
G36*
X119223000Y-139968000D02*
G01*
X118983000Y-139638000D01*
X119463000Y-139638000D01*
X119223000Y-139968000D01*
G37*
%TO.C,C3*%
X120749347Y-144015001D02*
X120226843Y-144015001D01*
X120749347Y-145485001D02*
X120226843Y-145485001D01*
%TO.C,U4*%
X121400000Y-155300000D02*
X122200000Y-155300000D01*
X121400000Y-156100000D02*
X121400000Y-155300000D01*
X121400000Y-172300000D02*
X121400000Y-171700000D01*
X121600000Y-155500000D02*
X134800000Y-155500000D01*
X121600000Y-172100000D02*
X121600000Y-155500000D01*
X122150000Y-172300000D02*
X121400000Y-172300000D01*
X134125000Y-172300000D02*
X134975000Y-172300000D01*
X134800000Y-155500000D02*
X134800000Y-172100000D01*
X134800000Y-166700000D02*
X121600000Y-166700000D01*
X134800000Y-172100000D02*
X121600000Y-172100000D01*
X135000000Y-155300000D02*
X134200000Y-155300000D01*
X135000000Y-156100000D02*
X135000000Y-155300000D01*
%TO.C,R4*%
X136187742Y-136977500D02*
X136662258Y-136977500D01*
X136187742Y-138022500D02*
X136662258Y-138022500D01*
%TO.C,R3*%
X113712742Y-154677500D02*
X114187258Y-154677500D01*
X113712742Y-155722500D02*
X114187258Y-155722500D01*
%TO.C,R1*%
X120760258Y-138455500D02*
X120285742Y-138455500D01*
X120760258Y-139500500D02*
X120285742Y-139500500D01*
%TO.C,R7*%
X136977500Y-163072258D02*
X136977500Y-162597742D01*
X138022500Y-163072258D02*
X138022500Y-162597742D01*
%TO.C,R11*%
X119087742Y-154977500D02*
X119562258Y-154977500D01*
X119087742Y-156022500D02*
X119562258Y-156022500D01*
%TO.C,R6*%
X138977500Y-163062258D02*
X138977500Y-162587742D01*
X140022500Y-163062258D02*
X140022500Y-162587742D01*
%TO.C,SW2*%
X111719000Y-152577000D02*
X111719000Y-152477000D01*
X111719000Y-154077000D02*
X116119000Y-154077000D01*
X116119000Y-150977000D02*
X111719000Y-150977000D01*
X116119000Y-152577000D02*
X116119000Y-152477000D01*
%TO.C,R2*%
X119262742Y-134977500D02*
X119737258Y-134977500D01*
X119262742Y-136022500D02*
X119737258Y-136022500D01*
%TO.C,R5*%
X136187742Y-134977500D02*
X136662258Y-134977500D01*
X136187742Y-136022500D02*
X136662258Y-136022500D01*
%TO.C,D1*%
X117815000Y-132540000D02*
X117815000Y-134460000D01*
X117815000Y-134460000D02*
X120500000Y-134460000D01*
X120500000Y-132540000D02*
X117815000Y-132540000D01*
%TO.C,Y1*%
X131050000Y-152100000D02*
X131050000Y-153900000D01*
X132450000Y-152050000D02*
X133550000Y-152050000D01*
X132450000Y-153950000D02*
X133550000Y-153950000D01*
%TO.C,C4*%
X117092000Y-152794580D02*
X117092000Y-152513420D01*
X118112000Y-152794580D02*
X118112000Y-152513420D01*
%TO.C,U3*%
X113762500Y-139115000D02*
X115762500Y-139115000D01*
X113762500Y-141385000D02*
X115762500Y-141385000D01*
X113212500Y-139200000D02*
X112932500Y-139200000D01*
X113212500Y-138920000D01*
X113212500Y-139200000D01*
G36*
X113212500Y-139200000D02*
G01*
X112932500Y-139200000D01*
X113212500Y-138920000D01*
X113212500Y-139200000D01*
G37*
%TO.C,D4*%
X126100000Y-143234000D02*
X126100000Y-143634000D01*
X126100000Y-145134000D02*
X126600000Y-144634000D01*
X126100000Y-145334000D02*
X126100000Y-144734000D01*
X126100000Y-146834000D02*
X126100000Y-146434000D01*
X127200000Y-144034000D02*
X127950000Y-143234000D01*
X129800000Y-143234000D02*
X126100000Y-143234000D01*
X129800000Y-143634000D02*
X129800000Y-143234000D01*
X129800000Y-145434000D02*
X129800000Y-144734000D01*
X129800000Y-146534000D02*
X129800000Y-146834000D01*
X129800000Y-146834000D02*
X126100000Y-146834000D01*
X128948683Y-145034000D02*
G75*
G02*
X127051317Y-145034000I-948683J0D01*
G01*
X127051317Y-145034000D02*
G75*
G02*
X128948683Y-145034000I948683J0D01*
G01*
%TO.C,J11*%
X136493000Y-140777500D02*
X144303000Y-140857500D01*
X136493000Y-145577500D02*
X136493000Y-140777500D01*
X141653000Y-145637500D02*
X141653000Y-140857500D01*
X144303000Y-145637500D02*
X144303000Y-140857500D01*
%TO.C,D2*%
X134815000Y-132540000D02*
X134815000Y-134460000D01*
X134815000Y-134460000D02*
X137500000Y-134460000D01*
X137500000Y-132540000D02*
X134815000Y-132540000D01*
%TD*%
M02*
