%TF.GenerationSoftware,KiCad,Pcbnew,9.0.1*%
%TF.CreationDate,2025-05-28T08:33:00+02:00*%
%TF.ProjectId,tv25-cpu-small,74763235-2d63-4707-952d-736d616c6c2e,rev?*%
%TF.SameCoordinates,Original*%
%TF.FileFunction,Soldermask,Bot*%
%TF.FilePolarity,Negative*%
%FSLAX46Y46*%
G04 Gerber Fmt 4.6, Leading zero omitted, Abs format (unit mm)*
G04 Created by KiCad (PCBNEW 9.0.1) date 2025-05-28 08:33:00*
%MOMM*%
%LPD*%
G01*
G04 APERTURE LIST*
G04 Aperture macros list*
%AMRoundRect*
0 Rectangle with rounded corners*
0 $1 Rounding radius*
0 $2 $3 $4 $5 $6 $7 $8 $9 X,Y pos of 4 corners*
0 Add a 4 corners polygon primitive as box body*
4,1,4,$2,$3,$4,$5,$6,$7,$8,$9,$2,$3,0*
0 Add four circle primitives for the rounded corners*
1,1,$1+$1,$2,$3*
1,1,$1+$1,$4,$5*
1,1,$1+$1,$6,$7*
1,1,$1+$1,$8,$9*
0 Add four rect primitives between the rounded corners*
20,1,$1+$1,$2,$3,$4,$5,0*
20,1,$1+$1,$4,$5,$6,$7,0*
20,1,$1+$1,$6,$7,$8,$9,0*
20,1,$1+$1,$8,$9,$2,$3,0*%
%AMFreePoly0*
4,1,23,0.500000,-0.750000,0.000000,-0.750000,0.000000,-0.745722,-0.065263,-0.745722,-0.191342,-0.711940,-0.304381,-0.646677,-0.396677,-0.554381,-0.461940,-0.441342,-0.495722,-0.315263,-0.495722,-0.250000,-0.500000,-0.250000,-0.500000,0.250000,-0.495722,0.250000,-0.495722,0.315263,-0.461940,0.441342,-0.396677,0.554381,-0.304381,0.646677,-0.191342,0.711940,-0.065263,0.745722,0.000000,0.745722,
0.000000,0.750000,0.500000,0.750000,0.500000,-0.750000,0.500000,-0.750000,$1*%
%AMFreePoly1*
4,1,23,0.000000,0.745722,0.065263,0.745722,0.191342,0.711940,0.304381,0.646677,0.396677,0.554381,0.461940,0.441342,0.495722,0.315263,0.495722,0.250000,0.500000,0.250000,0.500000,-0.250000,0.495722,-0.250000,0.495722,-0.315263,0.461940,-0.441342,0.396677,-0.554381,0.304381,-0.646677,0.191342,-0.711940,0.065263,-0.745722,0.000000,-0.745722,0.000000,-0.750000,-0.500000,-0.750000,
-0.500000,0.750000,0.000000,0.750000,0.000000,0.745722,0.000000,0.745722,$1*%
G04 Aperture macros list end*
%ADD10C,2.000000*%
%ADD11C,1.250000*%
%ADD12C,2.700000*%
%ADD13C,1.700000*%
%ADD14C,0.600000*%
%ADD15O,0.850000X0.600000*%
%ADD16O,1.200000X2.200000*%
%ADD17O,1.800000X3.000000*%
%ADD18R,1.700000X4.300000*%
%ADD19O,1.660000X4.300000*%
%ADD20O,1.620000X4.300000*%
%ADD21FreePoly0,270.000000*%
%ADD22FreePoly1,270.000000*%
%ADD23R,1.700000X1.700000*%
%ADD24R,1.500000X1.500000*%
%ADD25C,1.600000*%
%ADD26RoundRect,0.250000X0.600000X0.600000X-0.600000X0.600000X-0.600000X-0.600000X0.600000X-0.600000X0*%
G04 APERTURE END LIST*
%TO.C,JP1*%
G36*
X111899000Y-153012000D02*
G01*
X113399000Y-153012000D01*
X113399000Y-153312000D01*
X111899000Y-153312000D01*
X111899000Y-153012000D01*
G37*
%TD*%
D10*
%TO.C,SW4*%
X129700000Y-149090000D03*
D11*
X128000000Y-150040000D03*
D10*
X129700000Y-152340000D03*
X126300000Y-149090000D03*
X126300000Y-152340000D03*
%TD*%
D12*
%TO.C,H2*%
X143000000Y-169000000D03*
%TD*%
D13*
%TO.C,J3*%
X112460000Y-157920000D03*
X115000000Y-157920000D03*
X112460000Y-160460000D03*
X115000000Y-160460000D03*
X112460000Y-163000000D03*
X115000000Y-163000000D03*
%TD*%
D12*
%TO.C,H3*%
X113000000Y-135000000D03*
%TD*%
%TO.C,H4*%
X113000000Y-169000000D03*
%TD*%
%TO.C,H1*%
X143000000Y-135000000D03*
%TD*%
D14*
%TO.C,J4*%
X131050000Y-137100000D03*
D15*
X125050000Y-137100000D03*
D16*
X132370000Y-137825000D03*
D17*
X132370000Y-134000000D03*
D16*
X123730000Y-137800000D03*
D17*
X123730000Y-134000000D03*
%TD*%
D18*
%TO.C,J11*%
X137843000Y-143427500D03*
D19*
X140363000Y-143427500D03*
D20*
X142883000Y-143427500D03*
%TD*%
D21*
%TO.C,JP1*%
X112649000Y-152512000D03*
D22*
X112649000Y-153812000D03*
%TD*%
D23*
%TO.C,J1*%
X115865000Y-148025000D03*
D13*
X115865000Y-145485000D03*
%TD*%
D24*
%TO.C,SW3*%
X112250000Y-145540000D03*
D25*
X112250000Y-148080000D03*
X112250000Y-143000000D03*
%TD*%
D26*
%TO.C,J2*%
X142000000Y-147460000D03*
D13*
X139460000Y-147460000D03*
X142000000Y-150000000D03*
X139460000Y-150000000D03*
X142000000Y-152540000D03*
X139460000Y-152540000D03*
X142000000Y-155080000D03*
X139460000Y-155080000D03*
X142000000Y-157620000D03*
X139460000Y-157620000D03*
%TD*%
M02*
