%TF.GenerationSoftware,KiCad,Pcbnew,8.0.8*%
%TF.CreationDate,2025-04-07T15:23:35+02:00*%
%TF.ProjectId,tv25-btn+Rot,74763235-2d62-4746-9e2b-526f742e6b69,rev?*%
%TF.SameCoordinates,Original*%
%TF.FileFunction,Soldermask,Top*%
%TF.FilePolarity,Negative*%
%FSLAX46Y46*%
G04 Gerber Fmt 4.6, Leading zero omitted, Abs format (unit mm)*
G04 Created by KiCad (PCBNEW 8.0.8) date 2025-04-07 15:23:35*
%MOMM*%
%LPD*%
G01*
G04 APERTURE LIST*
G04 Aperture macros list*
%AMRoundRect*
0 Rectangle with rounded corners*
0 $1 Rounding radius*
0 $2 $3 $4 $5 $6 $7 $8 $9 X,Y pos of 4 corners*
0 Add a 4 corners polygon primitive as box body*
4,1,4,$2,$3,$4,$5,$6,$7,$8,$9,$2,$3,0*
0 Add four circle primitives for the rounded corners*
1,1,$1+$1,$2,$3*
1,1,$1+$1,$4,$5*
1,1,$1+$1,$6,$7*
1,1,$1+$1,$8,$9*
0 Add four rect primitives between the rounded corners*
20,1,$1+$1,$2,$3,$4,$5,0*
20,1,$1+$1,$4,$5,$6,$7,0*
20,1,$1+$1,$6,$7,$8,$9,0*
20,1,$1+$1,$8,$9,$2,$3,0*%
G04 Aperture macros list end*
%ADD10R,1.050000X0.650000*%
%ADD11R,2.500000X3.000000*%
%ADD12R,2.000000X2.000000*%
%ADD13C,2.000000*%
%ADD14C,3.200000*%
%ADD15RoundRect,0.225000X0.250000X-0.225000X0.250000X0.225000X-0.250000X0.225000X-0.250000X-0.225000X0*%
%ADD16R,1.600000X0.850000*%
%ADD17RoundRect,0.250000X-0.600000X0.600000X-0.600000X-0.600000X0.600000X-0.600000X0.600000X0.600000X0*%
%ADD18C,1.700000*%
G04 APERTURE END LIST*
D10*
%TO.C,SW3*%
X147875000Y-49725000D03*
X152025000Y-49725000D03*
X147875000Y-51875000D03*
X152025000Y-51875000D03*
%TD*%
%TO.C,SW1*%
X107175000Y-49725000D03*
X111325000Y-49725000D03*
X107175000Y-51875000D03*
X111325000Y-51875000D03*
%TD*%
%TO.C,SW6*%
X208925000Y-49725000D03*
X213075000Y-49725000D03*
X208925000Y-51875000D03*
X213075000Y-51875000D03*
%TD*%
%TO.C,SW5*%
X188575000Y-49725000D03*
X192725000Y-49725000D03*
X188575000Y-51875000D03*
X192725000Y-51875000D03*
%TD*%
%TO.C,SW4*%
X168225000Y-49725000D03*
X172375000Y-49725000D03*
X168225000Y-51875000D03*
X172375000Y-51875000D03*
%TD*%
D11*
%TO.C,SW9*%
X166250000Y-43950000D03*
X154250000Y-43950000D03*
X165850000Y-50950000D03*
X154650000Y-50950000D03*
D12*
X162750000Y-43450000D03*
D13*
X157750000Y-43450000D03*
X160250000Y-43450000D03*
%TD*%
D14*
%TO.C,H2*%
X181000000Y-54500000D03*
%TD*%
%TO.C,H1*%
X140000000Y-54500000D03*
%TD*%
D15*
%TO.C,C1*%
X133500000Y-55880000D03*
X133500000Y-54330000D03*
%TD*%
D16*
%TO.C,D5*%
X192400000Y-55880000D03*
X192400000Y-54130000D03*
X188900000Y-54130000D03*
X188900000Y-55880000D03*
%TD*%
%TO.C,D4*%
X172050000Y-55880000D03*
X172050000Y-54130000D03*
X168550000Y-54130000D03*
X168550000Y-55880000D03*
%TD*%
%TO.C,D3*%
X151700000Y-55880000D03*
X151700000Y-54130000D03*
X148200000Y-54130000D03*
X148200000Y-55880000D03*
%TD*%
%TO.C,D1*%
X111000000Y-55880000D03*
X111000000Y-54130000D03*
X107500000Y-54130000D03*
X107500000Y-55880000D03*
%TD*%
D14*
%TO.C,H4*%
X180000000Y-75000000D03*
%TD*%
D16*
%TO.C,D6*%
X212750000Y-56000000D03*
X212750000Y-54250000D03*
X209250000Y-54250000D03*
X209250000Y-56000000D03*
%TD*%
D15*
%TO.C,C2*%
X174500000Y-55880000D03*
X174500000Y-54330000D03*
%TD*%
D14*
%TO.C,H3*%
X195000000Y-75000000D03*
%TD*%
D10*
%TO.C,SW2*%
X127525000Y-49725000D03*
X131675000Y-49725000D03*
X127525000Y-51875000D03*
X131675000Y-51875000D03*
%TD*%
D16*
%TO.C,D2*%
X131350000Y-55880000D03*
X131350000Y-54130000D03*
X127850000Y-54130000D03*
X127850000Y-55880000D03*
%TD*%
D11*
%TO.C,SW7*%
X207000000Y-43950000D03*
X195000000Y-43950000D03*
X206600000Y-50950000D03*
X195400000Y-50950000D03*
D12*
X203500000Y-43450000D03*
D13*
X198500000Y-43450000D03*
X201000000Y-43450000D03*
%TD*%
D11*
%TO.C,SW8*%
X125500000Y-43950000D03*
X113500000Y-43950000D03*
X125100000Y-50950000D03*
X113900000Y-50950000D03*
D12*
X122000000Y-43450000D03*
D13*
X117000000Y-43450000D03*
X119500000Y-43450000D03*
%TD*%
D17*
%TO.C,J1*%
X174920000Y-45500000D03*
D18*
X174920000Y-48040000D03*
X177460000Y-45500000D03*
X177460000Y-48040000D03*
X180000000Y-45500000D03*
X180000000Y-48040000D03*
X182540000Y-45500000D03*
X182540000Y-48040000D03*
X185080000Y-45500000D03*
X185080000Y-48040000D03*
%TD*%
M02*
