%TF.GenerationSoftware,KiCad,Pcbnew,8.0.8*%
%TF.CreationDate,2025-04-07T15:23:35+02:00*%
%TF.ProjectId,tv25-btn+Rot,74763235-2d62-4746-9e2b-526f742e6b69,rev?*%
%TF.SameCoordinates,Original*%
%TF.FileFunction,Legend,Top*%
%TF.FilePolarity,Positive*%
%FSLAX46Y46*%
G04 Gerber Fmt 4.6, Leading zero omitted, Abs format (unit mm)*
G04 Created by KiCad (PCBNEW 8.0.8) date 2025-04-07 15:23:35*
%MOMM*%
%LPD*%
G01*
G04 APERTURE LIST*
%ADD10C,0.150000*%
%ADD11C,0.120000*%
G04 APERTURE END LIST*
D10*
X148616667Y-48607200D02*
X148759524Y-48654819D01*
X148759524Y-48654819D02*
X148997619Y-48654819D01*
X148997619Y-48654819D02*
X149092857Y-48607200D01*
X149092857Y-48607200D02*
X149140476Y-48559580D01*
X149140476Y-48559580D02*
X149188095Y-48464342D01*
X149188095Y-48464342D02*
X149188095Y-48369104D01*
X149188095Y-48369104D02*
X149140476Y-48273866D01*
X149140476Y-48273866D02*
X149092857Y-48226247D01*
X149092857Y-48226247D02*
X148997619Y-48178628D01*
X148997619Y-48178628D02*
X148807143Y-48131009D01*
X148807143Y-48131009D02*
X148711905Y-48083390D01*
X148711905Y-48083390D02*
X148664286Y-48035771D01*
X148664286Y-48035771D02*
X148616667Y-47940533D01*
X148616667Y-47940533D02*
X148616667Y-47845295D01*
X148616667Y-47845295D02*
X148664286Y-47750057D01*
X148664286Y-47750057D02*
X148711905Y-47702438D01*
X148711905Y-47702438D02*
X148807143Y-47654819D01*
X148807143Y-47654819D02*
X149045238Y-47654819D01*
X149045238Y-47654819D02*
X149188095Y-47702438D01*
X149521429Y-47654819D02*
X149759524Y-48654819D01*
X149759524Y-48654819D02*
X149950000Y-47940533D01*
X149950000Y-47940533D02*
X150140476Y-48654819D01*
X150140476Y-48654819D02*
X150378572Y-47654819D01*
X150664286Y-47654819D02*
X151283333Y-47654819D01*
X151283333Y-47654819D02*
X150950000Y-48035771D01*
X150950000Y-48035771D02*
X151092857Y-48035771D01*
X151092857Y-48035771D02*
X151188095Y-48083390D01*
X151188095Y-48083390D02*
X151235714Y-48131009D01*
X151235714Y-48131009D02*
X151283333Y-48226247D01*
X151283333Y-48226247D02*
X151283333Y-48464342D01*
X151283333Y-48464342D02*
X151235714Y-48559580D01*
X151235714Y-48559580D02*
X151188095Y-48607200D01*
X151188095Y-48607200D02*
X151092857Y-48654819D01*
X151092857Y-48654819D02*
X150807143Y-48654819D01*
X150807143Y-48654819D02*
X150711905Y-48607200D01*
X150711905Y-48607200D02*
X150664286Y-48559580D01*
X107916667Y-48607200D02*
X108059524Y-48654819D01*
X108059524Y-48654819D02*
X108297619Y-48654819D01*
X108297619Y-48654819D02*
X108392857Y-48607200D01*
X108392857Y-48607200D02*
X108440476Y-48559580D01*
X108440476Y-48559580D02*
X108488095Y-48464342D01*
X108488095Y-48464342D02*
X108488095Y-48369104D01*
X108488095Y-48369104D02*
X108440476Y-48273866D01*
X108440476Y-48273866D02*
X108392857Y-48226247D01*
X108392857Y-48226247D02*
X108297619Y-48178628D01*
X108297619Y-48178628D02*
X108107143Y-48131009D01*
X108107143Y-48131009D02*
X108011905Y-48083390D01*
X108011905Y-48083390D02*
X107964286Y-48035771D01*
X107964286Y-48035771D02*
X107916667Y-47940533D01*
X107916667Y-47940533D02*
X107916667Y-47845295D01*
X107916667Y-47845295D02*
X107964286Y-47750057D01*
X107964286Y-47750057D02*
X108011905Y-47702438D01*
X108011905Y-47702438D02*
X108107143Y-47654819D01*
X108107143Y-47654819D02*
X108345238Y-47654819D01*
X108345238Y-47654819D02*
X108488095Y-47702438D01*
X108821429Y-47654819D02*
X109059524Y-48654819D01*
X109059524Y-48654819D02*
X109250000Y-47940533D01*
X109250000Y-47940533D02*
X109440476Y-48654819D01*
X109440476Y-48654819D02*
X109678572Y-47654819D01*
X110583333Y-48654819D02*
X110011905Y-48654819D01*
X110297619Y-48654819D02*
X110297619Y-47654819D01*
X110297619Y-47654819D02*
X110202381Y-47797676D01*
X110202381Y-47797676D02*
X110107143Y-47892914D01*
X110107143Y-47892914D02*
X110011905Y-47940533D01*
X209666667Y-48607200D02*
X209809524Y-48654819D01*
X209809524Y-48654819D02*
X210047619Y-48654819D01*
X210047619Y-48654819D02*
X210142857Y-48607200D01*
X210142857Y-48607200D02*
X210190476Y-48559580D01*
X210190476Y-48559580D02*
X210238095Y-48464342D01*
X210238095Y-48464342D02*
X210238095Y-48369104D01*
X210238095Y-48369104D02*
X210190476Y-48273866D01*
X210190476Y-48273866D02*
X210142857Y-48226247D01*
X210142857Y-48226247D02*
X210047619Y-48178628D01*
X210047619Y-48178628D02*
X209857143Y-48131009D01*
X209857143Y-48131009D02*
X209761905Y-48083390D01*
X209761905Y-48083390D02*
X209714286Y-48035771D01*
X209714286Y-48035771D02*
X209666667Y-47940533D01*
X209666667Y-47940533D02*
X209666667Y-47845295D01*
X209666667Y-47845295D02*
X209714286Y-47750057D01*
X209714286Y-47750057D02*
X209761905Y-47702438D01*
X209761905Y-47702438D02*
X209857143Y-47654819D01*
X209857143Y-47654819D02*
X210095238Y-47654819D01*
X210095238Y-47654819D02*
X210238095Y-47702438D01*
X210571429Y-47654819D02*
X210809524Y-48654819D01*
X210809524Y-48654819D02*
X211000000Y-47940533D01*
X211000000Y-47940533D02*
X211190476Y-48654819D01*
X211190476Y-48654819D02*
X211428572Y-47654819D01*
X212238095Y-47654819D02*
X212047619Y-47654819D01*
X212047619Y-47654819D02*
X211952381Y-47702438D01*
X211952381Y-47702438D02*
X211904762Y-47750057D01*
X211904762Y-47750057D02*
X211809524Y-47892914D01*
X211809524Y-47892914D02*
X211761905Y-48083390D01*
X211761905Y-48083390D02*
X211761905Y-48464342D01*
X211761905Y-48464342D02*
X211809524Y-48559580D01*
X211809524Y-48559580D02*
X211857143Y-48607200D01*
X211857143Y-48607200D02*
X211952381Y-48654819D01*
X211952381Y-48654819D02*
X212142857Y-48654819D01*
X212142857Y-48654819D02*
X212238095Y-48607200D01*
X212238095Y-48607200D02*
X212285714Y-48559580D01*
X212285714Y-48559580D02*
X212333333Y-48464342D01*
X212333333Y-48464342D02*
X212333333Y-48226247D01*
X212333333Y-48226247D02*
X212285714Y-48131009D01*
X212285714Y-48131009D02*
X212238095Y-48083390D01*
X212238095Y-48083390D02*
X212142857Y-48035771D01*
X212142857Y-48035771D02*
X211952381Y-48035771D01*
X211952381Y-48035771D02*
X211857143Y-48083390D01*
X211857143Y-48083390D02*
X211809524Y-48131009D01*
X211809524Y-48131009D02*
X211761905Y-48226247D01*
X189316667Y-48607200D02*
X189459524Y-48654819D01*
X189459524Y-48654819D02*
X189697619Y-48654819D01*
X189697619Y-48654819D02*
X189792857Y-48607200D01*
X189792857Y-48607200D02*
X189840476Y-48559580D01*
X189840476Y-48559580D02*
X189888095Y-48464342D01*
X189888095Y-48464342D02*
X189888095Y-48369104D01*
X189888095Y-48369104D02*
X189840476Y-48273866D01*
X189840476Y-48273866D02*
X189792857Y-48226247D01*
X189792857Y-48226247D02*
X189697619Y-48178628D01*
X189697619Y-48178628D02*
X189507143Y-48131009D01*
X189507143Y-48131009D02*
X189411905Y-48083390D01*
X189411905Y-48083390D02*
X189364286Y-48035771D01*
X189364286Y-48035771D02*
X189316667Y-47940533D01*
X189316667Y-47940533D02*
X189316667Y-47845295D01*
X189316667Y-47845295D02*
X189364286Y-47750057D01*
X189364286Y-47750057D02*
X189411905Y-47702438D01*
X189411905Y-47702438D02*
X189507143Y-47654819D01*
X189507143Y-47654819D02*
X189745238Y-47654819D01*
X189745238Y-47654819D02*
X189888095Y-47702438D01*
X190221429Y-47654819D02*
X190459524Y-48654819D01*
X190459524Y-48654819D02*
X190650000Y-47940533D01*
X190650000Y-47940533D02*
X190840476Y-48654819D01*
X190840476Y-48654819D02*
X191078572Y-47654819D01*
X191935714Y-47654819D02*
X191459524Y-47654819D01*
X191459524Y-47654819D02*
X191411905Y-48131009D01*
X191411905Y-48131009D02*
X191459524Y-48083390D01*
X191459524Y-48083390D02*
X191554762Y-48035771D01*
X191554762Y-48035771D02*
X191792857Y-48035771D01*
X191792857Y-48035771D02*
X191888095Y-48083390D01*
X191888095Y-48083390D02*
X191935714Y-48131009D01*
X191935714Y-48131009D02*
X191983333Y-48226247D01*
X191983333Y-48226247D02*
X191983333Y-48464342D01*
X191983333Y-48464342D02*
X191935714Y-48559580D01*
X191935714Y-48559580D02*
X191888095Y-48607200D01*
X191888095Y-48607200D02*
X191792857Y-48654819D01*
X191792857Y-48654819D02*
X191554762Y-48654819D01*
X191554762Y-48654819D02*
X191459524Y-48607200D01*
X191459524Y-48607200D02*
X191411905Y-48559580D01*
X168966667Y-48607200D02*
X169109524Y-48654819D01*
X169109524Y-48654819D02*
X169347619Y-48654819D01*
X169347619Y-48654819D02*
X169442857Y-48607200D01*
X169442857Y-48607200D02*
X169490476Y-48559580D01*
X169490476Y-48559580D02*
X169538095Y-48464342D01*
X169538095Y-48464342D02*
X169538095Y-48369104D01*
X169538095Y-48369104D02*
X169490476Y-48273866D01*
X169490476Y-48273866D02*
X169442857Y-48226247D01*
X169442857Y-48226247D02*
X169347619Y-48178628D01*
X169347619Y-48178628D02*
X169157143Y-48131009D01*
X169157143Y-48131009D02*
X169061905Y-48083390D01*
X169061905Y-48083390D02*
X169014286Y-48035771D01*
X169014286Y-48035771D02*
X168966667Y-47940533D01*
X168966667Y-47940533D02*
X168966667Y-47845295D01*
X168966667Y-47845295D02*
X169014286Y-47750057D01*
X169014286Y-47750057D02*
X169061905Y-47702438D01*
X169061905Y-47702438D02*
X169157143Y-47654819D01*
X169157143Y-47654819D02*
X169395238Y-47654819D01*
X169395238Y-47654819D02*
X169538095Y-47702438D01*
X169871429Y-47654819D02*
X170109524Y-48654819D01*
X170109524Y-48654819D02*
X170300000Y-47940533D01*
X170300000Y-47940533D02*
X170490476Y-48654819D01*
X170490476Y-48654819D02*
X170728572Y-47654819D01*
X171538095Y-47988152D02*
X171538095Y-48654819D01*
X171300000Y-47607200D02*
X171061905Y-48321485D01*
X171061905Y-48321485D02*
X171680952Y-48321485D01*
X167857200Y-47583332D02*
X167904819Y-47440475D01*
X167904819Y-47440475D02*
X167904819Y-47202380D01*
X167904819Y-47202380D02*
X167857200Y-47107142D01*
X167857200Y-47107142D02*
X167809580Y-47059523D01*
X167809580Y-47059523D02*
X167714342Y-47011904D01*
X167714342Y-47011904D02*
X167619104Y-47011904D01*
X167619104Y-47011904D02*
X167523866Y-47059523D01*
X167523866Y-47059523D02*
X167476247Y-47107142D01*
X167476247Y-47107142D02*
X167428628Y-47202380D01*
X167428628Y-47202380D02*
X167381009Y-47392856D01*
X167381009Y-47392856D02*
X167333390Y-47488094D01*
X167333390Y-47488094D02*
X167285771Y-47535713D01*
X167285771Y-47535713D02*
X167190533Y-47583332D01*
X167190533Y-47583332D02*
X167095295Y-47583332D01*
X167095295Y-47583332D02*
X167000057Y-47535713D01*
X167000057Y-47535713D02*
X166952438Y-47488094D01*
X166952438Y-47488094D02*
X166904819Y-47392856D01*
X166904819Y-47392856D02*
X166904819Y-47154761D01*
X166904819Y-47154761D02*
X166952438Y-47011904D01*
X166904819Y-46678570D02*
X167904819Y-46440475D01*
X167904819Y-46440475D02*
X167190533Y-46249999D01*
X167190533Y-46249999D02*
X167904819Y-46059523D01*
X167904819Y-46059523D02*
X166904819Y-45821428D01*
X167904819Y-45392856D02*
X167904819Y-45202380D01*
X167904819Y-45202380D02*
X167857200Y-45107142D01*
X167857200Y-45107142D02*
X167809580Y-45059523D01*
X167809580Y-45059523D02*
X167666723Y-44964285D01*
X167666723Y-44964285D02*
X167476247Y-44916666D01*
X167476247Y-44916666D02*
X167095295Y-44916666D01*
X167095295Y-44916666D02*
X167000057Y-44964285D01*
X167000057Y-44964285D02*
X166952438Y-45011904D01*
X166952438Y-45011904D02*
X166904819Y-45107142D01*
X166904819Y-45107142D02*
X166904819Y-45297618D01*
X166904819Y-45297618D02*
X166952438Y-45392856D01*
X166952438Y-45392856D02*
X167000057Y-45440475D01*
X167000057Y-45440475D02*
X167095295Y-45488094D01*
X167095295Y-45488094D02*
X167333390Y-45488094D01*
X167333390Y-45488094D02*
X167428628Y-45440475D01*
X167428628Y-45440475D02*
X167476247Y-45392856D01*
X167476247Y-45392856D02*
X167523866Y-45297618D01*
X167523866Y-45297618D02*
X167523866Y-45107142D01*
X167523866Y-45107142D02*
X167476247Y-45011904D01*
X167476247Y-45011904D02*
X167428628Y-44964285D01*
X167428628Y-44964285D02*
X167333390Y-44916666D01*
X180238095Y-50754819D02*
X180238095Y-49754819D01*
X180238095Y-50231009D02*
X180809523Y-50231009D01*
X180809523Y-50754819D02*
X180809523Y-49754819D01*
X181238095Y-49850057D02*
X181285714Y-49802438D01*
X181285714Y-49802438D02*
X181380952Y-49754819D01*
X181380952Y-49754819D02*
X181619047Y-49754819D01*
X181619047Y-49754819D02*
X181714285Y-49802438D01*
X181714285Y-49802438D02*
X181761904Y-49850057D01*
X181761904Y-49850057D02*
X181809523Y-49945295D01*
X181809523Y-49945295D02*
X181809523Y-50040533D01*
X181809523Y-50040533D02*
X181761904Y-50183390D01*
X181761904Y-50183390D02*
X181190476Y-50754819D01*
X181190476Y-50754819D02*
X181809523Y-50754819D01*
X139238095Y-50754819D02*
X139238095Y-49754819D01*
X139238095Y-50231009D02*
X139809523Y-50231009D01*
X139809523Y-50754819D02*
X139809523Y-49754819D01*
X140809523Y-50754819D02*
X140238095Y-50754819D01*
X140523809Y-50754819D02*
X140523809Y-49754819D01*
X140523809Y-49754819D02*
X140428571Y-49897676D01*
X140428571Y-49897676D02*
X140333333Y-49992914D01*
X140333333Y-49992914D02*
X140238095Y-50040533D01*
X132429580Y-55271666D02*
X132477200Y-55319285D01*
X132477200Y-55319285D02*
X132524819Y-55462142D01*
X132524819Y-55462142D02*
X132524819Y-55557380D01*
X132524819Y-55557380D02*
X132477200Y-55700237D01*
X132477200Y-55700237D02*
X132381961Y-55795475D01*
X132381961Y-55795475D02*
X132286723Y-55843094D01*
X132286723Y-55843094D02*
X132096247Y-55890713D01*
X132096247Y-55890713D02*
X131953390Y-55890713D01*
X131953390Y-55890713D02*
X131762914Y-55843094D01*
X131762914Y-55843094D02*
X131667676Y-55795475D01*
X131667676Y-55795475D02*
X131572438Y-55700237D01*
X131572438Y-55700237D02*
X131524819Y-55557380D01*
X131524819Y-55557380D02*
X131524819Y-55462142D01*
X131524819Y-55462142D02*
X131572438Y-55319285D01*
X131572438Y-55319285D02*
X131620057Y-55271666D01*
X132524819Y-54319285D02*
X132524819Y-54890713D01*
X132524819Y-54604999D02*
X131524819Y-54604999D01*
X131524819Y-54604999D02*
X131667676Y-54700237D01*
X131667676Y-54700237D02*
X131762914Y-54795475D01*
X131762914Y-54795475D02*
X131810533Y-54890713D01*
X189911905Y-58209819D02*
X189911905Y-57209819D01*
X189911905Y-57209819D02*
X190150000Y-57209819D01*
X190150000Y-57209819D02*
X190292857Y-57257438D01*
X190292857Y-57257438D02*
X190388095Y-57352676D01*
X190388095Y-57352676D02*
X190435714Y-57447914D01*
X190435714Y-57447914D02*
X190483333Y-57638390D01*
X190483333Y-57638390D02*
X190483333Y-57781247D01*
X190483333Y-57781247D02*
X190435714Y-57971723D01*
X190435714Y-57971723D02*
X190388095Y-58066961D01*
X190388095Y-58066961D02*
X190292857Y-58162200D01*
X190292857Y-58162200D02*
X190150000Y-58209819D01*
X190150000Y-58209819D02*
X189911905Y-58209819D01*
X191388095Y-57209819D02*
X190911905Y-57209819D01*
X190911905Y-57209819D02*
X190864286Y-57686009D01*
X190864286Y-57686009D02*
X190911905Y-57638390D01*
X190911905Y-57638390D02*
X191007143Y-57590771D01*
X191007143Y-57590771D02*
X191245238Y-57590771D01*
X191245238Y-57590771D02*
X191340476Y-57638390D01*
X191340476Y-57638390D02*
X191388095Y-57686009D01*
X191388095Y-57686009D02*
X191435714Y-57781247D01*
X191435714Y-57781247D02*
X191435714Y-58019342D01*
X191435714Y-58019342D02*
X191388095Y-58114580D01*
X191388095Y-58114580D02*
X191340476Y-58162200D01*
X191340476Y-58162200D02*
X191245238Y-58209819D01*
X191245238Y-58209819D02*
X191007143Y-58209819D01*
X191007143Y-58209819D02*
X190911905Y-58162200D01*
X190911905Y-58162200D02*
X190864286Y-58114580D01*
X193621428Y-55517704D02*
X194078571Y-55517704D01*
X193849999Y-55517704D02*
X193849999Y-56317704D01*
X193849999Y-56317704D02*
X193926190Y-56203419D01*
X193926190Y-56203419D02*
X194002380Y-56127228D01*
X194002380Y-56127228D02*
X194078571Y-56089133D01*
X169561905Y-58209819D02*
X169561905Y-57209819D01*
X169561905Y-57209819D02*
X169800000Y-57209819D01*
X169800000Y-57209819D02*
X169942857Y-57257438D01*
X169942857Y-57257438D02*
X170038095Y-57352676D01*
X170038095Y-57352676D02*
X170085714Y-57447914D01*
X170085714Y-57447914D02*
X170133333Y-57638390D01*
X170133333Y-57638390D02*
X170133333Y-57781247D01*
X170133333Y-57781247D02*
X170085714Y-57971723D01*
X170085714Y-57971723D02*
X170038095Y-58066961D01*
X170038095Y-58066961D02*
X169942857Y-58162200D01*
X169942857Y-58162200D02*
X169800000Y-58209819D01*
X169800000Y-58209819D02*
X169561905Y-58209819D01*
X170990476Y-57543152D02*
X170990476Y-58209819D01*
X170752381Y-57162200D02*
X170514286Y-57876485D01*
X170514286Y-57876485D02*
X171133333Y-57876485D01*
X173271428Y-55517704D02*
X173728571Y-55517704D01*
X173499999Y-55517704D02*
X173499999Y-56317704D01*
X173499999Y-56317704D02*
X173576190Y-56203419D01*
X173576190Y-56203419D02*
X173652380Y-56127228D01*
X173652380Y-56127228D02*
X173728571Y-56089133D01*
X149211905Y-58209819D02*
X149211905Y-57209819D01*
X149211905Y-57209819D02*
X149450000Y-57209819D01*
X149450000Y-57209819D02*
X149592857Y-57257438D01*
X149592857Y-57257438D02*
X149688095Y-57352676D01*
X149688095Y-57352676D02*
X149735714Y-57447914D01*
X149735714Y-57447914D02*
X149783333Y-57638390D01*
X149783333Y-57638390D02*
X149783333Y-57781247D01*
X149783333Y-57781247D02*
X149735714Y-57971723D01*
X149735714Y-57971723D02*
X149688095Y-58066961D01*
X149688095Y-58066961D02*
X149592857Y-58162200D01*
X149592857Y-58162200D02*
X149450000Y-58209819D01*
X149450000Y-58209819D02*
X149211905Y-58209819D01*
X150116667Y-57209819D02*
X150735714Y-57209819D01*
X150735714Y-57209819D02*
X150402381Y-57590771D01*
X150402381Y-57590771D02*
X150545238Y-57590771D01*
X150545238Y-57590771D02*
X150640476Y-57638390D01*
X150640476Y-57638390D02*
X150688095Y-57686009D01*
X150688095Y-57686009D02*
X150735714Y-57781247D01*
X150735714Y-57781247D02*
X150735714Y-58019342D01*
X150735714Y-58019342D02*
X150688095Y-58114580D01*
X150688095Y-58114580D02*
X150640476Y-58162200D01*
X150640476Y-58162200D02*
X150545238Y-58209819D01*
X150545238Y-58209819D02*
X150259524Y-58209819D01*
X150259524Y-58209819D02*
X150164286Y-58162200D01*
X150164286Y-58162200D02*
X150116667Y-58114580D01*
X152921428Y-55517704D02*
X153378571Y-55517704D01*
X153149999Y-55517704D02*
X153149999Y-56317704D01*
X153149999Y-56317704D02*
X153226190Y-56203419D01*
X153226190Y-56203419D02*
X153302380Y-56127228D01*
X153302380Y-56127228D02*
X153378571Y-56089133D01*
X108511905Y-58209819D02*
X108511905Y-57209819D01*
X108511905Y-57209819D02*
X108750000Y-57209819D01*
X108750000Y-57209819D02*
X108892857Y-57257438D01*
X108892857Y-57257438D02*
X108988095Y-57352676D01*
X108988095Y-57352676D02*
X109035714Y-57447914D01*
X109035714Y-57447914D02*
X109083333Y-57638390D01*
X109083333Y-57638390D02*
X109083333Y-57781247D01*
X109083333Y-57781247D02*
X109035714Y-57971723D01*
X109035714Y-57971723D02*
X108988095Y-58066961D01*
X108988095Y-58066961D02*
X108892857Y-58162200D01*
X108892857Y-58162200D02*
X108750000Y-58209819D01*
X108750000Y-58209819D02*
X108511905Y-58209819D01*
X110035714Y-58209819D02*
X109464286Y-58209819D01*
X109750000Y-58209819D02*
X109750000Y-57209819D01*
X109750000Y-57209819D02*
X109654762Y-57352676D01*
X109654762Y-57352676D02*
X109559524Y-57447914D01*
X109559524Y-57447914D02*
X109464286Y-57495533D01*
X112221428Y-55517704D02*
X112678571Y-55517704D01*
X112449999Y-55517704D02*
X112449999Y-56317704D01*
X112449999Y-56317704D02*
X112526190Y-56203419D01*
X112526190Y-56203419D02*
X112602380Y-56127228D01*
X112602380Y-56127228D02*
X112678571Y-56089133D01*
X179238095Y-71254819D02*
X179238095Y-70254819D01*
X179238095Y-70731009D02*
X179809523Y-70731009D01*
X179809523Y-71254819D02*
X179809523Y-70254819D01*
X180714285Y-70588152D02*
X180714285Y-71254819D01*
X180476190Y-70207200D02*
X180238095Y-70921485D01*
X180238095Y-70921485D02*
X180857142Y-70921485D01*
X210261905Y-58329819D02*
X210261905Y-57329819D01*
X210261905Y-57329819D02*
X210500000Y-57329819D01*
X210500000Y-57329819D02*
X210642857Y-57377438D01*
X210642857Y-57377438D02*
X210738095Y-57472676D01*
X210738095Y-57472676D02*
X210785714Y-57567914D01*
X210785714Y-57567914D02*
X210833333Y-57758390D01*
X210833333Y-57758390D02*
X210833333Y-57901247D01*
X210833333Y-57901247D02*
X210785714Y-58091723D01*
X210785714Y-58091723D02*
X210738095Y-58186961D01*
X210738095Y-58186961D02*
X210642857Y-58282200D01*
X210642857Y-58282200D02*
X210500000Y-58329819D01*
X210500000Y-58329819D02*
X210261905Y-58329819D01*
X211690476Y-57329819D02*
X211500000Y-57329819D01*
X211500000Y-57329819D02*
X211404762Y-57377438D01*
X211404762Y-57377438D02*
X211357143Y-57425057D01*
X211357143Y-57425057D02*
X211261905Y-57567914D01*
X211261905Y-57567914D02*
X211214286Y-57758390D01*
X211214286Y-57758390D02*
X211214286Y-58139342D01*
X211214286Y-58139342D02*
X211261905Y-58234580D01*
X211261905Y-58234580D02*
X211309524Y-58282200D01*
X211309524Y-58282200D02*
X211404762Y-58329819D01*
X211404762Y-58329819D02*
X211595238Y-58329819D01*
X211595238Y-58329819D02*
X211690476Y-58282200D01*
X211690476Y-58282200D02*
X211738095Y-58234580D01*
X211738095Y-58234580D02*
X211785714Y-58139342D01*
X211785714Y-58139342D02*
X211785714Y-57901247D01*
X211785714Y-57901247D02*
X211738095Y-57806009D01*
X211738095Y-57806009D02*
X211690476Y-57758390D01*
X211690476Y-57758390D02*
X211595238Y-57710771D01*
X211595238Y-57710771D02*
X211404762Y-57710771D01*
X211404762Y-57710771D02*
X211309524Y-57758390D01*
X211309524Y-57758390D02*
X211261905Y-57806009D01*
X211261905Y-57806009D02*
X211214286Y-57901247D01*
X213971428Y-55637704D02*
X214428571Y-55637704D01*
X214199999Y-55637704D02*
X214199999Y-56437704D01*
X214199999Y-56437704D02*
X214276190Y-56323419D01*
X214276190Y-56323419D02*
X214352380Y-56247228D01*
X214352380Y-56247228D02*
X214428571Y-56209133D01*
X173429580Y-55271666D02*
X173477200Y-55319285D01*
X173477200Y-55319285D02*
X173524819Y-55462142D01*
X173524819Y-55462142D02*
X173524819Y-55557380D01*
X173524819Y-55557380D02*
X173477200Y-55700237D01*
X173477200Y-55700237D02*
X173381961Y-55795475D01*
X173381961Y-55795475D02*
X173286723Y-55843094D01*
X173286723Y-55843094D02*
X173096247Y-55890713D01*
X173096247Y-55890713D02*
X172953390Y-55890713D01*
X172953390Y-55890713D02*
X172762914Y-55843094D01*
X172762914Y-55843094D02*
X172667676Y-55795475D01*
X172667676Y-55795475D02*
X172572438Y-55700237D01*
X172572438Y-55700237D02*
X172524819Y-55557380D01*
X172524819Y-55557380D02*
X172524819Y-55462142D01*
X172524819Y-55462142D02*
X172572438Y-55319285D01*
X172572438Y-55319285D02*
X172620057Y-55271666D01*
X172620057Y-54890713D02*
X172572438Y-54843094D01*
X172572438Y-54843094D02*
X172524819Y-54747856D01*
X172524819Y-54747856D02*
X172524819Y-54509761D01*
X172524819Y-54509761D02*
X172572438Y-54414523D01*
X172572438Y-54414523D02*
X172620057Y-54366904D01*
X172620057Y-54366904D02*
X172715295Y-54319285D01*
X172715295Y-54319285D02*
X172810533Y-54319285D01*
X172810533Y-54319285D02*
X172953390Y-54366904D01*
X172953390Y-54366904D02*
X173524819Y-54938332D01*
X173524819Y-54938332D02*
X173524819Y-54319285D01*
X194238095Y-71254819D02*
X194238095Y-70254819D01*
X194238095Y-70731009D02*
X194809523Y-70731009D01*
X194809523Y-71254819D02*
X194809523Y-70254819D01*
X195190476Y-70254819D02*
X195809523Y-70254819D01*
X195809523Y-70254819D02*
X195476190Y-70635771D01*
X195476190Y-70635771D02*
X195619047Y-70635771D01*
X195619047Y-70635771D02*
X195714285Y-70683390D01*
X195714285Y-70683390D02*
X195761904Y-70731009D01*
X195761904Y-70731009D02*
X195809523Y-70826247D01*
X195809523Y-70826247D02*
X195809523Y-71064342D01*
X195809523Y-71064342D02*
X195761904Y-71159580D01*
X195761904Y-71159580D02*
X195714285Y-71207200D01*
X195714285Y-71207200D02*
X195619047Y-71254819D01*
X195619047Y-71254819D02*
X195333333Y-71254819D01*
X195333333Y-71254819D02*
X195238095Y-71207200D01*
X195238095Y-71207200D02*
X195190476Y-71159580D01*
X128266667Y-48607200D02*
X128409524Y-48654819D01*
X128409524Y-48654819D02*
X128647619Y-48654819D01*
X128647619Y-48654819D02*
X128742857Y-48607200D01*
X128742857Y-48607200D02*
X128790476Y-48559580D01*
X128790476Y-48559580D02*
X128838095Y-48464342D01*
X128838095Y-48464342D02*
X128838095Y-48369104D01*
X128838095Y-48369104D02*
X128790476Y-48273866D01*
X128790476Y-48273866D02*
X128742857Y-48226247D01*
X128742857Y-48226247D02*
X128647619Y-48178628D01*
X128647619Y-48178628D02*
X128457143Y-48131009D01*
X128457143Y-48131009D02*
X128361905Y-48083390D01*
X128361905Y-48083390D02*
X128314286Y-48035771D01*
X128314286Y-48035771D02*
X128266667Y-47940533D01*
X128266667Y-47940533D02*
X128266667Y-47845295D01*
X128266667Y-47845295D02*
X128314286Y-47750057D01*
X128314286Y-47750057D02*
X128361905Y-47702438D01*
X128361905Y-47702438D02*
X128457143Y-47654819D01*
X128457143Y-47654819D02*
X128695238Y-47654819D01*
X128695238Y-47654819D02*
X128838095Y-47702438D01*
X129171429Y-47654819D02*
X129409524Y-48654819D01*
X129409524Y-48654819D02*
X129600000Y-47940533D01*
X129600000Y-47940533D02*
X129790476Y-48654819D01*
X129790476Y-48654819D02*
X130028572Y-47654819D01*
X130361905Y-47750057D02*
X130409524Y-47702438D01*
X130409524Y-47702438D02*
X130504762Y-47654819D01*
X130504762Y-47654819D02*
X130742857Y-47654819D01*
X130742857Y-47654819D02*
X130838095Y-47702438D01*
X130838095Y-47702438D02*
X130885714Y-47750057D01*
X130885714Y-47750057D02*
X130933333Y-47845295D01*
X130933333Y-47845295D02*
X130933333Y-47940533D01*
X130933333Y-47940533D02*
X130885714Y-48083390D01*
X130885714Y-48083390D02*
X130314286Y-48654819D01*
X130314286Y-48654819D02*
X130933333Y-48654819D01*
X128861905Y-58209819D02*
X128861905Y-57209819D01*
X128861905Y-57209819D02*
X129100000Y-57209819D01*
X129100000Y-57209819D02*
X129242857Y-57257438D01*
X129242857Y-57257438D02*
X129338095Y-57352676D01*
X129338095Y-57352676D02*
X129385714Y-57447914D01*
X129385714Y-57447914D02*
X129433333Y-57638390D01*
X129433333Y-57638390D02*
X129433333Y-57781247D01*
X129433333Y-57781247D02*
X129385714Y-57971723D01*
X129385714Y-57971723D02*
X129338095Y-58066961D01*
X129338095Y-58066961D02*
X129242857Y-58162200D01*
X129242857Y-58162200D02*
X129100000Y-58209819D01*
X129100000Y-58209819D02*
X128861905Y-58209819D01*
X129814286Y-57305057D02*
X129861905Y-57257438D01*
X129861905Y-57257438D02*
X129957143Y-57209819D01*
X129957143Y-57209819D02*
X130195238Y-57209819D01*
X130195238Y-57209819D02*
X130290476Y-57257438D01*
X130290476Y-57257438D02*
X130338095Y-57305057D01*
X130338095Y-57305057D02*
X130385714Y-57400295D01*
X130385714Y-57400295D02*
X130385714Y-57495533D01*
X130385714Y-57495533D02*
X130338095Y-57638390D01*
X130338095Y-57638390D02*
X129766667Y-58209819D01*
X129766667Y-58209819D02*
X130385714Y-58209819D01*
X132571428Y-55517704D02*
X133028571Y-55517704D01*
X132799999Y-55517704D02*
X132799999Y-56317704D01*
X132799999Y-56317704D02*
X132876190Y-56203419D01*
X132876190Y-56203419D02*
X132952380Y-56127228D01*
X132952380Y-56127228D02*
X133028571Y-56089133D01*
X208607200Y-47583332D02*
X208654819Y-47440475D01*
X208654819Y-47440475D02*
X208654819Y-47202380D01*
X208654819Y-47202380D02*
X208607200Y-47107142D01*
X208607200Y-47107142D02*
X208559580Y-47059523D01*
X208559580Y-47059523D02*
X208464342Y-47011904D01*
X208464342Y-47011904D02*
X208369104Y-47011904D01*
X208369104Y-47011904D02*
X208273866Y-47059523D01*
X208273866Y-47059523D02*
X208226247Y-47107142D01*
X208226247Y-47107142D02*
X208178628Y-47202380D01*
X208178628Y-47202380D02*
X208131009Y-47392856D01*
X208131009Y-47392856D02*
X208083390Y-47488094D01*
X208083390Y-47488094D02*
X208035771Y-47535713D01*
X208035771Y-47535713D02*
X207940533Y-47583332D01*
X207940533Y-47583332D02*
X207845295Y-47583332D01*
X207845295Y-47583332D02*
X207750057Y-47535713D01*
X207750057Y-47535713D02*
X207702438Y-47488094D01*
X207702438Y-47488094D02*
X207654819Y-47392856D01*
X207654819Y-47392856D02*
X207654819Y-47154761D01*
X207654819Y-47154761D02*
X207702438Y-47011904D01*
X207654819Y-46678570D02*
X208654819Y-46440475D01*
X208654819Y-46440475D02*
X207940533Y-46249999D01*
X207940533Y-46249999D02*
X208654819Y-46059523D01*
X208654819Y-46059523D02*
X207654819Y-45821428D01*
X207654819Y-45535713D02*
X207654819Y-44869047D01*
X207654819Y-44869047D02*
X208654819Y-45297618D01*
X127107200Y-47583332D02*
X127154819Y-47440475D01*
X127154819Y-47440475D02*
X127154819Y-47202380D01*
X127154819Y-47202380D02*
X127107200Y-47107142D01*
X127107200Y-47107142D02*
X127059580Y-47059523D01*
X127059580Y-47059523D02*
X126964342Y-47011904D01*
X126964342Y-47011904D02*
X126869104Y-47011904D01*
X126869104Y-47011904D02*
X126773866Y-47059523D01*
X126773866Y-47059523D02*
X126726247Y-47107142D01*
X126726247Y-47107142D02*
X126678628Y-47202380D01*
X126678628Y-47202380D02*
X126631009Y-47392856D01*
X126631009Y-47392856D02*
X126583390Y-47488094D01*
X126583390Y-47488094D02*
X126535771Y-47535713D01*
X126535771Y-47535713D02*
X126440533Y-47583332D01*
X126440533Y-47583332D02*
X126345295Y-47583332D01*
X126345295Y-47583332D02*
X126250057Y-47535713D01*
X126250057Y-47535713D02*
X126202438Y-47488094D01*
X126202438Y-47488094D02*
X126154819Y-47392856D01*
X126154819Y-47392856D02*
X126154819Y-47154761D01*
X126154819Y-47154761D02*
X126202438Y-47011904D01*
X126154819Y-46678570D02*
X127154819Y-46440475D01*
X127154819Y-46440475D02*
X126440533Y-46249999D01*
X126440533Y-46249999D02*
X127154819Y-46059523D01*
X127154819Y-46059523D02*
X126154819Y-45821428D01*
X126583390Y-45297618D02*
X126535771Y-45392856D01*
X126535771Y-45392856D02*
X126488152Y-45440475D01*
X126488152Y-45440475D02*
X126392914Y-45488094D01*
X126392914Y-45488094D02*
X126345295Y-45488094D01*
X126345295Y-45488094D02*
X126250057Y-45440475D01*
X126250057Y-45440475D02*
X126202438Y-45392856D01*
X126202438Y-45392856D02*
X126154819Y-45297618D01*
X126154819Y-45297618D02*
X126154819Y-45107142D01*
X126154819Y-45107142D02*
X126202438Y-45011904D01*
X126202438Y-45011904D02*
X126250057Y-44964285D01*
X126250057Y-44964285D02*
X126345295Y-44916666D01*
X126345295Y-44916666D02*
X126392914Y-44916666D01*
X126392914Y-44916666D02*
X126488152Y-44964285D01*
X126488152Y-44964285D02*
X126535771Y-45011904D01*
X126535771Y-45011904D02*
X126583390Y-45107142D01*
X126583390Y-45107142D02*
X126583390Y-45297618D01*
X126583390Y-45297618D02*
X126631009Y-45392856D01*
X126631009Y-45392856D02*
X126678628Y-45440475D01*
X126678628Y-45440475D02*
X126773866Y-45488094D01*
X126773866Y-45488094D02*
X126964342Y-45488094D01*
X126964342Y-45488094D02*
X127059580Y-45440475D01*
X127059580Y-45440475D02*
X127107200Y-45392856D01*
X127107200Y-45392856D02*
X127154819Y-45297618D01*
X127154819Y-45297618D02*
X127154819Y-45107142D01*
X127154819Y-45107142D02*
X127107200Y-45011904D01*
X127107200Y-45011904D02*
X127059580Y-44964285D01*
X127059580Y-44964285D02*
X126964342Y-44916666D01*
X126964342Y-44916666D02*
X126773866Y-44916666D01*
X126773866Y-44916666D02*
X126678628Y-44964285D01*
X126678628Y-44964285D02*
X126631009Y-45011904D01*
X126631009Y-45011904D02*
X126583390Y-45107142D01*
D11*
%TO.C,SW3*%
X147750000Y-49100000D02*
X147750000Y-49220000D01*
X147750000Y-50230000D02*
X147750000Y-51370000D01*
X147750000Y-52380000D02*
X147750000Y-52500000D01*
X147750000Y-52500000D02*
X152150000Y-52500000D01*
X152150000Y-49100000D02*
X147750000Y-49100000D01*
X152150000Y-49220000D02*
X152150000Y-49100000D01*
X152150000Y-51370000D02*
X152150000Y-50230000D01*
X152150000Y-52500000D02*
X152150000Y-52380000D01*
%TO.C,SW1*%
X107050000Y-49100000D02*
X107050000Y-49220000D01*
X107050000Y-50230000D02*
X107050000Y-51370000D01*
X107050000Y-52380000D02*
X107050000Y-52500000D01*
X107050000Y-52500000D02*
X111450000Y-52500000D01*
X111450000Y-49100000D02*
X107050000Y-49100000D01*
X111450000Y-49220000D02*
X111450000Y-49100000D01*
X111450000Y-51370000D02*
X111450000Y-50230000D01*
X111450000Y-52500000D02*
X111450000Y-52380000D01*
%TO.C,SW6*%
X208800000Y-49100000D02*
X208800000Y-49220000D01*
X208800000Y-50230000D02*
X208800000Y-51370000D01*
X208800000Y-52380000D02*
X208800000Y-52500000D01*
X208800000Y-52500000D02*
X213200000Y-52500000D01*
X213200000Y-49100000D02*
X208800000Y-49100000D01*
X213200000Y-49220000D02*
X213200000Y-49100000D01*
X213200000Y-51370000D02*
X213200000Y-50230000D01*
X213200000Y-52500000D02*
X213200000Y-52380000D01*
%TO.C,SW5*%
X188450000Y-49100000D02*
X188450000Y-49220000D01*
X188450000Y-50230000D02*
X188450000Y-51370000D01*
X188450000Y-52380000D02*
X188450000Y-52500000D01*
X188450000Y-52500000D02*
X192850000Y-52500000D01*
X192850000Y-49100000D02*
X188450000Y-49100000D01*
X192850000Y-49220000D02*
X192850000Y-49100000D01*
X192850000Y-51370000D02*
X192850000Y-50230000D01*
X192850000Y-52500000D02*
X192850000Y-52380000D01*
%TO.C,SW4*%
X168100000Y-49100000D02*
X168100000Y-49220000D01*
X168100000Y-50230000D02*
X168100000Y-51370000D01*
X168100000Y-52380000D02*
X168100000Y-52500000D01*
X168100000Y-52500000D02*
X172500000Y-52500000D01*
X172500000Y-49100000D02*
X168100000Y-49100000D01*
X172500000Y-49220000D02*
X172500000Y-49100000D01*
X172500000Y-51370000D02*
X172500000Y-50230000D01*
X172500000Y-52500000D02*
X172500000Y-52380000D01*
%TO.C,SW9*%
X153950000Y-44250000D02*
X156750000Y-44250000D01*
X153950000Y-49150000D02*
X153950000Y-44250000D01*
X153950000Y-57650000D02*
X153950000Y-52750000D01*
X160250000Y-50450000D02*
X160250000Y-51450000D01*
X160750000Y-50950000D02*
X159750000Y-50950000D01*
X164050000Y-43450000D02*
X164350000Y-43150000D01*
X164350000Y-43150000D02*
X164350000Y-43750000D01*
X164350000Y-43750000D02*
X164050000Y-43450000D01*
X166550000Y-44250000D02*
X164050000Y-44250000D01*
X166550000Y-49050000D02*
X166550000Y-44250000D01*
X166550000Y-52750000D02*
X166550000Y-57650000D01*
X166550000Y-57650000D02*
X153950000Y-57650000D01*
X163250000Y-50950000D02*
G75*
G02*
X157250000Y-50950000I-3000000J0D01*
G01*
X157250000Y-50950000D02*
G75*
G02*
X163250000Y-50950000I3000000J0D01*
G01*
%TO.C,C1*%
X132990000Y-55245580D02*
X132990000Y-54964420D01*
X134010000Y-55245580D02*
X134010000Y-54964420D01*
%TO.C,D5*%
X187850000Y-53605000D02*
X187850000Y-57005000D01*
X187850000Y-53605000D02*
X188450000Y-53005000D01*
X193450000Y-53005000D02*
X188450000Y-53005000D01*
X193450000Y-57005000D02*
X187850000Y-57005000D01*
X193450000Y-57005000D02*
X193450000Y-53005000D01*
%TO.C,D4*%
X167500000Y-53605000D02*
X167500000Y-57005000D01*
X167500000Y-53605000D02*
X168100000Y-53005000D01*
X173100000Y-53005000D02*
X168100000Y-53005000D01*
X173100000Y-57005000D02*
X167500000Y-57005000D01*
X173100000Y-57005000D02*
X173100000Y-53005000D01*
%TO.C,D3*%
X147150000Y-53605000D02*
X147150000Y-57005000D01*
X147150000Y-53605000D02*
X147750000Y-53005000D01*
X152750000Y-53005000D02*
X147750000Y-53005000D01*
X152750000Y-57005000D02*
X147150000Y-57005000D01*
X152750000Y-57005000D02*
X152750000Y-53005000D01*
%TO.C,D1*%
X106450000Y-53605000D02*
X106450000Y-57005000D01*
X106450000Y-53605000D02*
X107050000Y-53005000D01*
X112050000Y-53005000D02*
X107050000Y-53005000D01*
X112050000Y-57005000D02*
X106450000Y-57005000D01*
X112050000Y-57005000D02*
X112050000Y-53005000D01*
%TO.C,D6*%
X208200000Y-53725000D02*
X208200000Y-57125000D01*
X208200000Y-53725000D02*
X208800000Y-53125000D01*
X213800000Y-53125000D02*
X208800000Y-53125000D01*
X213800000Y-57125000D02*
X208200000Y-57125000D01*
X213800000Y-57125000D02*
X213800000Y-53125000D01*
%TO.C,C2*%
X173990000Y-55245580D02*
X173990000Y-54964420D01*
X175010000Y-55245580D02*
X175010000Y-54964420D01*
%TO.C,SW2*%
X127400000Y-49100000D02*
X127400000Y-49220000D01*
X127400000Y-50230000D02*
X127400000Y-51370000D01*
X127400000Y-52380000D02*
X127400000Y-52500000D01*
X127400000Y-52500000D02*
X131800000Y-52500000D01*
X131800000Y-49100000D02*
X127400000Y-49100000D01*
X131800000Y-49220000D02*
X131800000Y-49100000D01*
X131800000Y-51370000D02*
X131800000Y-50230000D01*
X131800000Y-52500000D02*
X131800000Y-52380000D01*
%TO.C,D2*%
X126800000Y-53605000D02*
X126800000Y-57005000D01*
X126800000Y-53605000D02*
X127400000Y-53005000D01*
X132400000Y-53005000D02*
X127400000Y-53005000D01*
X132400000Y-57005000D02*
X126800000Y-57005000D01*
X132400000Y-57005000D02*
X132400000Y-53005000D01*
%TO.C,SW7*%
X194700000Y-44250000D02*
X197500000Y-44250000D01*
X194700000Y-49150000D02*
X194700000Y-44250000D01*
X194700000Y-57650000D02*
X194700000Y-52750000D01*
X201000000Y-50450000D02*
X201000000Y-51450000D01*
X201500000Y-50950000D02*
X200500000Y-50950000D01*
X204800000Y-43450000D02*
X205100000Y-43150000D01*
X205100000Y-43150000D02*
X205100000Y-43750000D01*
X205100000Y-43750000D02*
X204800000Y-43450000D01*
X207300000Y-44250000D02*
X204800000Y-44250000D01*
X207300000Y-49050000D02*
X207300000Y-44250000D01*
X207300000Y-52750000D02*
X207300000Y-57650000D01*
X207300000Y-57650000D02*
X194700000Y-57650000D01*
X204000000Y-50950000D02*
G75*
G02*
X198000000Y-50950000I-3000000J0D01*
G01*
X198000000Y-50950000D02*
G75*
G02*
X204000000Y-50950000I3000000J0D01*
G01*
%TO.C,SW8*%
X113200000Y-44250000D02*
X116000000Y-44250000D01*
X113200000Y-49150000D02*
X113200000Y-44250000D01*
X113200000Y-57650000D02*
X113200000Y-52750000D01*
X119500000Y-50450000D02*
X119500000Y-51450000D01*
X120000000Y-50950000D02*
X119000000Y-50950000D01*
X123300000Y-43450000D02*
X123600000Y-43150000D01*
X123600000Y-43150000D02*
X123600000Y-43750000D01*
X123600000Y-43750000D02*
X123300000Y-43450000D01*
X125800000Y-44250000D02*
X123300000Y-44250000D01*
X125800000Y-49050000D02*
X125800000Y-44250000D01*
X125800000Y-52750000D02*
X125800000Y-57650000D01*
X125800000Y-57650000D02*
X113200000Y-57650000D01*
X122500000Y-50950000D02*
G75*
G02*
X116500000Y-50950000I-3000000J0D01*
G01*
X116500000Y-50950000D02*
G75*
G02*
X122500000Y-50950000I3000000J0D01*
G01*
%TD*%
M02*
