%TF.GenerationSoftware,KiCad,Pcbnew,8.0.8*%
%TF.CreationDate,2025-04-07T15:23:35+02:00*%
%TF.ProjectId,tv25-btn+Rot,74763235-2d62-4746-9e2b-526f742e6b69,rev?*%
%TF.SameCoordinates,Original*%
%TF.FileFunction,Copper,L1,Top*%
%TF.FilePolarity,Positive*%
%FSLAX46Y46*%
G04 Gerber Fmt 4.6, Leading zero omitted, Abs format (unit mm)*
G04 Created by KiCad (PCBNEW 8.0.8) date 2025-04-07 15:23:35*
%MOMM*%
%LPD*%
G01*
G04 APERTURE LIST*
G04 Aperture macros list*
%AMRoundRect*
0 Rectangle with rounded corners*
0 $1 Rounding radius*
0 $2 $3 $4 $5 $6 $7 $8 $9 X,Y pos of 4 corners*
0 Add a 4 corners polygon primitive as box body*
4,1,4,$2,$3,$4,$5,$6,$7,$8,$9,$2,$3,0*
0 Add four circle primitives for the rounded corners*
1,1,$1+$1,$2,$3*
1,1,$1+$1,$4,$5*
1,1,$1+$1,$6,$7*
1,1,$1+$1,$8,$9*
0 Add four rect primitives between the rounded corners*
20,1,$1+$1,$2,$3,$4,$5,0*
20,1,$1+$1,$4,$5,$6,$7,0*
20,1,$1+$1,$6,$7,$8,$9,0*
20,1,$1+$1,$8,$9,$2,$3,0*%
G04 Aperture macros list end*
%TA.AperFunction,SMDPad,CuDef*%
%ADD10R,1.050000X0.650000*%
%TD*%
%TA.AperFunction,ComponentPad*%
%ADD11R,2.500000X3.000000*%
%TD*%
%TA.AperFunction,ComponentPad*%
%ADD12R,2.000000X2.000000*%
%TD*%
%TA.AperFunction,ComponentPad*%
%ADD13C,2.000000*%
%TD*%
%TA.AperFunction,SMDPad,CuDef*%
%ADD14RoundRect,0.225000X0.250000X-0.225000X0.250000X0.225000X-0.250000X0.225000X-0.250000X-0.225000X0*%
%TD*%
%TA.AperFunction,SMDPad,CuDef*%
%ADD15R,1.600000X0.850000*%
%TD*%
%TA.AperFunction,ComponentPad*%
%ADD16RoundRect,0.250000X-0.600000X0.600000X-0.600000X-0.600000X0.600000X-0.600000X0.600000X0.600000X0*%
%TD*%
%TA.AperFunction,ComponentPad*%
%ADD17C,1.700000*%
%TD*%
%TA.AperFunction,ViaPad*%
%ADD18C,0.600000*%
%TD*%
%TA.AperFunction,Conductor*%
%ADD19C,0.400000*%
%TD*%
%TA.AperFunction,Conductor*%
%ADD20C,0.200000*%
%TD*%
G04 APERTURE END LIST*
D10*
%TO.P,SW3,1,1*%
%TO.N,Net-(J1-Pin_5)*%
X147875000Y-49725000D03*
X152025000Y-49725000D03*
%TO.P,SW3,2,2*%
%TO.N,GND*%
X147875000Y-51875000D03*
X152025000Y-51875000D03*
%TD*%
%TO.P,SW1,1,1*%
%TO.N,Net-(J1-Pin_3)*%
X107175000Y-49725000D03*
X111325000Y-49725000D03*
%TO.P,SW1,2,2*%
%TO.N,GND*%
X107175000Y-51875000D03*
X111325000Y-51875000D03*
%TD*%
%TO.P,SW6,1,1*%
%TO.N,Net-(J1-Pin_8)*%
X208925000Y-49725000D03*
X213075000Y-49725000D03*
%TO.P,SW6,2,2*%
%TO.N,GND*%
X208925000Y-51875000D03*
X213075000Y-51875000D03*
%TD*%
%TO.P,SW5,1,1*%
%TO.N,Net-(J1-Pin_7)*%
X188575000Y-49725000D03*
X192725000Y-49725000D03*
%TO.P,SW5,2,2*%
%TO.N,GND*%
X188575000Y-51875000D03*
X192725000Y-51875000D03*
%TD*%
%TO.P,SW4,1,1*%
%TO.N,Net-(J1-Pin_6)*%
X168225000Y-49725000D03*
X172375000Y-49725000D03*
%TO.P,SW4,2,2*%
%TO.N,GND*%
X168225000Y-51875000D03*
X172375000Y-51875000D03*
%TD*%
D11*
%TO.P,SW9,*%
%TO.N,*%
X166250000Y-43950000D03*
X154250000Y-43950000D03*
X165850000Y-50950000D03*
X154650000Y-50950000D03*
D12*
%TO.P,SW9,A,A*%
%TO.N,Net-(J1-Pin_6)*%
X162750000Y-43450000D03*
D13*
%TO.P,SW9,B,B*%
%TO.N,Net-(J1-Pin_5)*%
X157750000Y-43450000D03*
%TO.P,SW9,C,C*%
%TO.N,GND*%
X160250000Y-43450000D03*
%TD*%
D14*
%TO.P,C1,1*%
%TO.N,+3V3*%
X133500000Y-55880000D03*
%TO.P,C1,2*%
%TO.N,GND*%
X133500000Y-54330000D03*
%TD*%
D15*
%TO.P,D5,1,DOUT*%
%TO.N,Net-(D5-DOUT)*%
X192400000Y-55880000D03*
%TO.P,D5,2,VSS*%
%TO.N,GND*%
X192400000Y-54130000D03*
%TO.P,D5,3,DIN*%
%TO.N,Net-(D4-DOUT)*%
X188900000Y-54130000D03*
%TO.P,D5,4,VDD*%
%TO.N,+3V3*%
X188900000Y-55880000D03*
%TD*%
%TO.P,D4,1,DOUT*%
%TO.N,Net-(D4-DOUT)*%
X172050000Y-55880000D03*
%TO.P,D4,2,VSS*%
%TO.N,GND*%
X172050000Y-54130000D03*
%TO.P,D4,3,DIN*%
%TO.N,Net-(D3-DOUT)*%
X168550000Y-54130000D03*
%TO.P,D4,4,VDD*%
%TO.N,+3V3*%
X168550000Y-55880000D03*
%TD*%
%TO.P,D3,1,DOUT*%
%TO.N,Net-(D3-DOUT)*%
X151700000Y-55880000D03*
%TO.P,D3,2,VSS*%
%TO.N,GND*%
X151700000Y-54130000D03*
%TO.P,D3,3,DIN*%
%TO.N,Net-(D2-DOUT)*%
X148200000Y-54130000D03*
%TO.P,D3,4,VDD*%
%TO.N,+3V3*%
X148200000Y-55880000D03*
%TD*%
%TO.P,D1,1,DOUT*%
%TO.N,Net-(D1-DOUT)*%
X111000000Y-55880000D03*
%TO.P,D1,2,VSS*%
%TO.N,GND*%
X111000000Y-54130000D03*
%TO.P,D1,3,DIN*%
%TO.N,Net-(D1-DIN)*%
X107500000Y-54130000D03*
%TO.P,D1,4,VDD*%
%TO.N,+3V3*%
X107500000Y-55880000D03*
%TD*%
%TO.P,D6,1,DOUT*%
%TO.N,Net-(D6-DOUT)*%
X212750000Y-56000000D03*
%TO.P,D6,2,VSS*%
%TO.N,GND*%
X212750000Y-54250000D03*
%TO.P,D6,3,DIN*%
%TO.N,Net-(D5-DOUT)*%
X209250000Y-54250000D03*
%TO.P,D6,4,VDD*%
%TO.N,+3V3*%
X209250000Y-56000000D03*
%TD*%
D14*
%TO.P,C2,1*%
%TO.N,+3V3*%
X174500000Y-55880000D03*
%TO.P,C2,2*%
%TO.N,GND*%
X174500000Y-54330000D03*
%TD*%
D10*
%TO.P,SW2,1,1*%
%TO.N,Net-(J1-Pin_4)*%
X127525000Y-49725000D03*
X131675000Y-49725000D03*
%TO.P,SW2,2,2*%
%TO.N,GND*%
X127525000Y-51875000D03*
X131675000Y-51875000D03*
%TD*%
D15*
%TO.P,D2,1,DOUT*%
%TO.N,Net-(D2-DOUT)*%
X131350000Y-55880000D03*
%TO.P,D2,2,VSS*%
%TO.N,GND*%
X131350000Y-54130000D03*
%TO.P,D2,3,DIN*%
%TO.N,Net-(D1-DOUT)*%
X127850000Y-54130000D03*
%TO.P,D2,4,VDD*%
%TO.N,+3V3*%
X127850000Y-55880000D03*
%TD*%
D11*
%TO.P,SW7,*%
%TO.N,*%
X207000000Y-43950000D03*
X195000000Y-43950000D03*
X206600000Y-50950000D03*
X195400000Y-50950000D03*
D12*
%TO.P,SW7,A,A*%
%TO.N,Net-(J1-Pin_8)*%
X203500000Y-43450000D03*
D13*
%TO.P,SW7,B,B*%
%TO.N,Net-(J1-Pin_7)*%
X198500000Y-43450000D03*
%TO.P,SW7,C,C*%
%TO.N,GND*%
X201000000Y-43450000D03*
%TD*%
D11*
%TO.P,SW8,*%
%TO.N,*%
X125500000Y-43950000D03*
X113500000Y-43950000D03*
X125100000Y-50950000D03*
X113900000Y-50950000D03*
D12*
%TO.P,SW8,A,A*%
%TO.N,Net-(J1-Pin_4)*%
X122000000Y-43450000D03*
D13*
%TO.P,SW8,B,B*%
%TO.N,Net-(J1-Pin_3)*%
X117000000Y-43450000D03*
%TO.P,SW8,C,C*%
%TO.N,GND*%
X119500000Y-43450000D03*
%TD*%
D16*
%TO.P,J1,1,Pin_1*%
%TO.N,+3V3*%
X174920000Y-45500000D03*
D17*
%TO.P,J1,2,Pin_2*%
%TO.N,Net-(D1-DIN)*%
X174920000Y-48040000D03*
%TO.P,J1,3,Pin_3*%
%TO.N,Net-(J1-Pin_3)*%
X177460000Y-45500000D03*
%TO.P,J1,4,Pin_4*%
%TO.N,Net-(J1-Pin_4)*%
X177460000Y-48040000D03*
%TO.P,J1,5,Pin_5*%
%TO.N,Net-(J1-Pin_5)*%
X180000000Y-45500000D03*
%TO.P,J1,6,Pin_6*%
%TO.N,Net-(J1-Pin_6)*%
X180000000Y-48040000D03*
%TO.P,J1,7,Pin_7*%
%TO.N,Net-(J1-Pin_7)*%
X182540000Y-45500000D03*
%TO.P,J1,8,Pin_8*%
%TO.N,Net-(J1-Pin_8)*%
X182540000Y-48040000D03*
%TO.P,J1,9,Pin_9*%
%TO.N,Net-(D6-DOUT)*%
X185080000Y-45500000D03*
%TO.P,J1,10,Pin_10*%
%TO.N,GND*%
X185080000Y-48040000D03*
%TD*%
D18*
%TO.N,*%
X190000000Y-43000000D03*
%TO.N,GND*%
X190500000Y-48000000D03*
%TO.N,*%
X170000000Y-43500000D03*
%TO.N,GND*%
X212500000Y-43500000D03*
X107500000Y-43000000D03*
%TO.N,+3V3*%
X174500000Y-50499998D03*
X173500000Y-56954000D03*
%TO.N,Net-(D1-DIN)*%
X109000000Y-54000000D03*
%TD*%
D19*
%TO.N,+3V3*%
X173670000Y-49669998D02*
X174500000Y-50499998D01*
X174920000Y-45500000D02*
X173670000Y-46750000D01*
D20*
%TO.N,Net-(J1-Pin_6)*%
X174300000Y-51650000D02*
X176390000Y-51650000D01*
D19*
%TO.N,+3V3*%
X173670000Y-46750000D02*
X173670000Y-49669998D01*
D20*
%TO.N,Net-(J1-Pin_6)*%
X172375000Y-49725000D02*
X174300000Y-51650000D01*
X176390000Y-51650000D02*
X180000000Y-48040000D01*
D19*
%TO.N,+3V3*%
X107500000Y-57000000D02*
X128000000Y-57000000D01*
X128000000Y-57000000D02*
X133500000Y-57000000D01*
X127850000Y-55880000D02*
X127850000Y-56850000D01*
X127850000Y-56850000D02*
X128000000Y-57000000D01*
X133500000Y-57000000D02*
X148500000Y-57000000D01*
X133500000Y-55880000D02*
X133500000Y-57000000D01*
X148500000Y-57000000D02*
X168500000Y-57000000D01*
X148200000Y-55880000D02*
X148200000Y-56700000D01*
X148200000Y-56700000D02*
X148500000Y-57000000D01*
X168500000Y-57000000D02*
X174500000Y-57000000D01*
X168550000Y-55880000D02*
X168550000Y-56950000D01*
X168550000Y-56950000D02*
X168500000Y-57000000D01*
X174500000Y-57000000D02*
X189000000Y-57000000D01*
X174500000Y-55880000D02*
X174500000Y-57000000D01*
X188900000Y-55880000D02*
X188900000Y-56900000D01*
X189000000Y-57000000D02*
X208250000Y-57000000D01*
X188900000Y-56900000D02*
X189000000Y-57000000D01*
X107500000Y-55880000D02*
X107500000Y-57000000D01*
X208250000Y-57000000D02*
X209250000Y-56000000D01*
D20*
%TO.N,Net-(D1-DIN)*%
X109000000Y-54000000D02*
X107630000Y-54000000D01*
X107630000Y-54000000D02*
X107500000Y-54130000D01*
%TO.N,GND*%
X127525000Y-51875000D02*
X131675000Y-51875000D01*
X131675000Y-51875000D02*
X131675000Y-52505000D01*
X131675000Y-52505000D02*
X133500000Y-54330000D01*
X111325000Y-51875000D02*
X111325000Y-53805000D01*
X111325000Y-53805000D02*
X111000000Y-54130000D01*
%TO.N,Net-(D6-DOUT)*%
X212750000Y-56000000D02*
X213900000Y-54850000D01*
X208550000Y-42150000D02*
X188430000Y-42150000D01*
X213900000Y-54850000D02*
X213900000Y-47500000D01*
X188430000Y-42150000D02*
X185080000Y-45500000D01*
X213900000Y-47500000D02*
X208550000Y-42150000D01*
%TO.N,Net-(D5-DOUT)*%
X192400000Y-55880000D02*
X207620000Y-55880000D01*
X207620000Y-55880000D02*
X209250000Y-54250000D01*
%TO.N,Net-(D4-DOUT)*%
X172050000Y-55880000D02*
X172800000Y-55130000D01*
X172800000Y-55130000D02*
X178872284Y-55130000D01*
X178872284Y-55130000D02*
X180192284Y-56450000D01*
X180192284Y-56450000D02*
X186580000Y-56450000D01*
X186580000Y-56450000D02*
X188900000Y-54130000D01*
%TO.N,Net-(D3-DOUT)*%
X151700000Y-55880000D02*
X166800000Y-55880000D01*
X166800000Y-55880000D02*
X168550000Y-54130000D01*
%TO.N,Net-(D2-DOUT)*%
X131350000Y-55880000D02*
X132100000Y-55130000D01*
X132100000Y-55130000D02*
X137420000Y-55130000D01*
X138740000Y-56450000D02*
X145880000Y-56450000D01*
X137420000Y-55130000D02*
X138740000Y-56450000D01*
X145880000Y-56450000D02*
X148200000Y-54130000D01*
%TO.N,Net-(D1-DOUT)*%
X111000000Y-55880000D02*
X126100000Y-55880000D01*
X126100000Y-55880000D02*
X127850000Y-54130000D01*
%TO.N,Net-(J1-Pin_8)*%
X208925000Y-49725000D02*
X203500000Y-44300000D01*
X203500000Y-44300000D02*
X203500000Y-43450000D01*
X213075000Y-49725000D02*
X208925000Y-49725000D01*
%TO.N,Net-(J1-Pin_7)*%
X188575000Y-49725000D02*
X185740000Y-46890000D01*
X185740000Y-46890000D02*
X183930000Y-46890000D01*
X183930000Y-46890000D02*
X182540000Y-45500000D01*
X192725000Y-49725000D02*
X198500000Y-43950000D01*
X198500000Y-43950000D02*
X198500000Y-43450000D01*
X188575000Y-49725000D02*
X192725000Y-49725000D01*
%TO.N,Net-(J1-Pin_6)*%
X168225000Y-49725000D02*
X162750000Y-44250000D01*
X162750000Y-44250000D02*
X162750000Y-43450000D01*
X172375000Y-49725000D02*
X168225000Y-49725000D01*
%TO.N,Net-(J1-Pin_5)*%
X152025000Y-49725000D02*
X157750000Y-44000000D01*
X157750000Y-44000000D02*
X157750000Y-43450000D01*
X147875000Y-49725000D02*
X152025000Y-49725000D01*
%TO.N,Net-(J1-Pin_3)*%
X117000000Y-43800000D02*
X111075000Y-49725000D01*
X117000000Y-43450000D02*
X117000000Y-43800000D01*
X111075000Y-49725000D02*
X107175000Y-49725000D01*
%TO.N,Net-(J1-Pin_4)*%
X122000000Y-44200000D02*
X127525000Y-49725000D01*
X127525000Y-49725000D02*
X131675000Y-49725000D01*
X122000000Y-43450000D02*
X122000000Y-44200000D01*
%TD*%
%TA.AperFunction,Conductor*%
%TO.N,GND*%
G36*
X152503270Y-42070185D02*
G01*
X152549025Y-42122989D01*
X152558969Y-42192147D01*
X152552413Y-42217833D01*
X152505908Y-42342517D01*
X152499501Y-42402116D01*
X152499501Y-42402123D01*
X152499500Y-42402135D01*
X152499500Y-45497870D01*
X152499501Y-45497876D01*
X152505908Y-45557483D01*
X152556202Y-45692328D01*
X152556206Y-45692335D01*
X152642452Y-45807544D01*
X152642455Y-45807547D01*
X152757664Y-45893793D01*
X152757671Y-45893797D01*
X152892517Y-45944091D01*
X152892516Y-45944091D01*
X152899444Y-45944835D01*
X152952127Y-45950500D01*
X154650902Y-45950499D01*
X154717941Y-45970184D01*
X154763696Y-46022987D01*
X154773640Y-46092146D01*
X154744615Y-46155702D01*
X154738583Y-46162180D01*
X152037582Y-48863181D01*
X151976259Y-48896666D01*
X151949901Y-48899500D01*
X151452129Y-48899500D01*
X151452123Y-48899501D01*
X151392516Y-48905908D01*
X151257671Y-48956202D01*
X151257664Y-48956206D01*
X151142457Y-49042451D01*
X151142449Y-49042458D01*
X151118232Y-49074810D01*
X151062299Y-49116682D01*
X151018965Y-49124500D01*
X148881035Y-49124500D01*
X148813996Y-49104815D01*
X148781768Y-49074810D01*
X148757550Y-49042458D01*
X148757547Y-49042455D01*
X148757546Y-49042454D01*
X148726833Y-49019462D01*
X148642335Y-48956206D01*
X148642328Y-48956202D01*
X148507482Y-48905908D01*
X148507483Y-48905908D01*
X148447883Y-48899501D01*
X148447881Y-48899500D01*
X148447873Y-48899500D01*
X148447864Y-48899500D01*
X147302129Y-48899500D01*
X147302123Y-48899501D01*
X147242516Y-48905908D01*
X147107671Y-48956202D01*
X147107664Y-48956206D01*
X146992455Y-49042452D01*
X146992452Y-49042455D01*
X146906206Y-49157664D01*
X146906202Y-49157671D01*
X146855910Y-49292513D01*
X146855909Y-49292517D01*
X146849500Y-49352127D01*
X146849500Y-49352134D01*
X146849500Y-49352135D01*
X146849500Y-50097870D01*
X146849501Y-50097876D01*
X146855908Y-50157483D01*
X146906202Y-50292328D01*
X146906206Y-50292335D01*
X146992452Y-50407544D01*
X146992455Y-50407547D01*
X147107664Y-50493793D01*
X147107671Y-50493797D01*
X147242517Y-50544091D01*
X147242516Y-50544091D01*
X147248525Y-50544737D01*
X147302127Y-50550500D01*
X148447872Y-50550499D01*
X148507483Y-50544091D01*
X148642331Y-50493796D01*
X148757546Y-50407546D01*
X148770791Y-50389854D01*
X148781768Y-50375190D01*
X148837701Y-50333318D01*
X148881035Y-50325500D01*
X151018965Y-50325500D01*
X151086004Y-50345185D01*
X151118232Y-50375190D01*
X151142449Y-50407541D01*
X151142452Y-50407544D01*
X151142454Y-50407546D01*
X151171095Y-50428987D01*
X151257664Y-50493793D01*
X151257671Y-50493797D01*
X151392517Y-50544091D01*
X151392516Y-50544091D01*
X151398525Y-50544737D01*
X151452127Y-50550500D01*
X152597872Y-50550499D01*
X152657483Y-50544091D01*
X152705752Y-50526088D01*
X152732167Y-50516236D01*
X152801859Y-50511252D01*
X152863182Y-50544737D01*
X152896666Y-50606061D01*
X152899500Y-50632418D01*
X152899500Y-50968115D01*
X152879815Y-51035154D01*
X152827011Y-51080909D01*
X152757853Y-51090853D01*
X152732167Y-51084297D01*
X152657379Y-51056403D01*
X152657372Y-51056401D01*
X152597844Y-51050000D01*
X152275000Y-51050000D01*
X152275000Y-52700000D01*
X152597828Y-52700000D01*
X152597844Y-52699999D01*
X152657372Y-52693598D01*
X152657376Y-52693597D01*
X152800398Y-52640253D01*
X152801185Y-52642365D01*
X152857332Y-52630144D01*
X152922800Y-52654552D01*
X152949976Y-52685913D01*
X152950888Y-52685231D01*
X153042452Y-52807544D01*
X153042455Y-52807547D01*
X153157664Y-52893793D01*
X153157671Y-52893797D01*
X153292517Y-52944091D01*
X153292516Y-52944091D01*
X153299444Y-52944835D01*
X153352127Y-52950500D01*
X155947872Y-52950499D01*
X156007483Y-52944091D01*
X156142331Y-52893796D01*
X156257546Y-52807546D01*
X156343796Y-52692331D01*
X156394091Y-52557483D01*
X156400500Y-52497873D01*
X156400499Y-49402128D01*
X156394091Y-49342517D01*
X156393402Y-49340671D01*
X156343797Y-49207671D01*
X156343793Y-49207664D01*
X156257547Y-49092455D01*
X156257544Y-49092452D01*
X156142335Y-49006206D01*
X156142328Y-49006202D01*
X156007482Y-48955908D01*
X156007483Y-48955908D01*
X155947883Y-48949501D01*
X155947881Y-48949500D01*
X155947873Y-48949500D01*
X155947865Y-48949500D01*
X153949096Y-48949500D01*
X153882057Y-48929815D01*
X153836302Y-48877011D01*
X153826358Y-48807853D01*
X153855383Y-48744297D01*
X153861415Y-48737819D01*
X154676832Y-47922403D01*
X157612417Y-44986819D01*
X157673740Y-44953334D01*
X157700098Y-44950500D01*
X157874335Y-44950500D01*
X158119614Y-44909571D01*
X158354810Y-44828828D01*
X158573509Y-44710474D01*
X158769744Y-44557738D01*
X158938164Y-44374785D01*
X158938169Y-44374777D01*
X158941311Y-44370741D01*
X158943050Y-44372094D01*
X158989095Y-44332764D01*
X159018375Y-44328069D01*
X159767037Y-43579408D01*
X159784075Y-43642993D01*
X159849901Y-43757007D01*
X159942993Y-43850099D01*
X160057007Y-43915925D01*
X160120589Y-43932962D01*
X159379943Y-44673609D01*
X159426768Y-44710055D01*
X159426771Y-44710057D01*
X159645385Y-44828364D01*
X159645396Y-44828369D01*
X159880506Y-44909083D01*
X160125707Y-44950000D01*
X160374293Y-44950000D01*
X160619493Y-44909083D01*
X160854603Y-44828369D01*
X160854614Y-44828364D01*
X161073230Y-44710056D01*
X161073236Y-44710051D01*
X161129107Y-44666565D01*
X161194101Y-44640921D01*
X161262641Y-44654487D01*
X161304537Y-44690105D01*
X161392455Y-44807547D01*
X161507664Y-44893793D01*
X161507671Y-44893797D01*
X161642517Y-44944091D01*
X161642516Y-44944091D01*
X161647400Y-44944616D01*
X161702127Y-44950500D01*
X162549902Y-44950499D01*
X162616941Y-44970183D01*
X162637583Y-44986818D01*
X166388584Y-48737819D01*
X166422069Y-48799142D01*
X166417085Y-48868834D01*
X166375213Y-48924767D01*
X166309749Y-48949184D01*
X166300903Y-48949500D01*
X164552129Y-48949500D01*
X164552123Y-48949501D01*
X164492516Y-48955908D01*
X164357671Y-49006202D01*
X164357664Y-49006206D01*
X164242455Y-49092452D01*
X164242452Y-49092455D01*
X164156206Y-49207664D01*
X164156202Y-49207671D01*
X164105908Y-49342517D01*
X164101896Y-49379841D01*
X164099501Y-49402123D01*
X164099500Y-49402135D01*
X164099500Y-52497870D01*
X164099501Y-52497876D01*
X164105908Y-52557483D01*
X164156202Y-52692328D01*
X164156206Y-52692335D01*
X164242452Y-52807544D01*
X164242455Y-52807547D01*
X164357664Y-52893793D01*
X164357671Y-52893797D01*
X164492517Y-52944091D01*
X164492516Y-52944091D01*
X164499444Y-52944835D01*
X164552127Y-52950500D01*
X167147872Y-52950499D01*
X167207483Y-52944091D01*
X167342331Y-52893796D01*
X167457546Y-52807546D01*
X167504241Y-52745169D01*
X167560173Y-52703300D01*
X167616764Y-52696193D01*
X167652160Y-52699999D01*
X167652172Y-52700000D01*
X167975000Y-52700000D01*
X168475000Y-52700000D01*
X168797828Y-52700000D01*
X168797844Y-52699999D01*
X168857372Y-52693598D01*
X168857379Y-52693596D01*
X168992086Y-52643354D01*
X168992093Y-52643350D01*
X169107187Y-52557190D01*
X169107190Y-52557187D01*
X169193350Y-52442093D01*
X169193354Y-52442086D01*
X169243596Y-52307379D01*
X169243598Y-52307372D01*
X169249999Y-52247844D01*
X171350000Y-52247844D01*
X171356401Y-52307372D01*
X171356403Y-52307379D01*
X171406645Y-52442086D01*
X171406649Y-52442093D01*
X171492809Y-52557187D01*
X171492812Y-52557190D01*
X171607906Y-52643350D01*
X171607913Y-52643354D01*
X171742620Y-52693596D01*
X171742627Y-52693598D01*
X171802155Y-52699999D01*
X171802172Y-52700000D01*
X172125000Y-52700000D01*
X172625000Y-52700000D01*
X172947828Y-52700000D01*
X172947844Y-52699999D01*
X173007372Y-52693598D01*
X173007379Y-52693596D01*
X173142086Y-52643354D01*
X173142093Y-52643350D01*
X173257187Y-52557190D01*
X173257190Y-52557187D01*
X173343350Y-52442093D01*
X173343354Y-52442086D01*
X173393596Y-52307379D01*
X173393598Y-52307372D01*
X173399999Y-52247844D01*
X173400000Y-52247827D01*
X173400000Y-52125000D01*
X172625000Y-52125000D01*
X172625000Y-52700000D01*
X172125000Y-52700000D01*
X172125000Y-52125000D01*
X171350000Y-52125000D01*
X171350000Y-52247844D01*
X169249999Y-52247844D01*
X169250000Y-52247827D01*
X169250000Y-52125000D01*
X168475000Y-52125000D01*
X168475000Y-52700000D01*
X167975000Y-52700000D01*
X167975000Y-51625000D01*
X168475000Y-51625000D01*
X169250000Y-51625000D01*
X169250000Y-51502172D01*
X169249999Y-51502155D01*
X171350000Y-51502155D01*
X171350000Y-51625000D01*
X172125000Y-51625000D01*
X172125000Y-51050000D01*
X171802155Y-51050000D01*
X171742627Y-51056401D01*
X171742620Y-51056403D01*
X171607913Y-51106645D01*
X171607906Y-51106649D01*
X171492812Y-51192809D01*
X171492809Y-51192812D01*
X171406649Y-51307906D01*
X171406645Y-51307913D01*
X171356403Y-51442620D01*
X171356401Y-51442627D01*
X171350000Y-51502155D01*
X169249999Y-51502155D01*
X169243598Y-51442627D01*
X169243596Y-51442620D01*
X169193354Y-51307913D01*
X169193350Y-51307906D01*
X169107190Y-51192812D01*
X169107187Y-51192809D01*
X168992093Y-51106649D01*
X168992086Y-51106645D01*
X168857379Y-51056403D01*
X168857372Y-51056401D01*
X168797844Y-51050000D01*
X168475000Y-51050000D01*
X168475000Y-51625000D01*
X167975000Y-51625000D01*
X167975000Y-51050000D01*
X167724499Y-51050000D01*
X167657460Y-51030315D01*
X167611705Y-50977511D01*
X167600499Y-50926000D01*
X167600499Y-50674499D01*
X167620184Y-50607460D01*
X167672988Y-50561705D01*
X167724494Y-50550499D01*
X168797872Y-50550499D01*
X168857483Y-50544091D01*
X168992331Y-50493796D01*
X169107546Y-50407546D01*
X169120791Y-50389854D01*
X169131768Y-50375190D01*
X169187701Y-50333318D01*
X169231035Y-50325500D01*
X171368965Y-50325500D01*
X171436004Y-50345185D01*
X171468232Y-50375190D01*
X171492449Y-50407541D01*
X171492452Y-50407544D01*
X171492454Y-50407546D01*
X171521095Y-50428987D01*
X171607664Y-50493793D01*
X171607671Y-50493797D01*
X171624297Y-50499998D01*
X171742517Y-50544091D01*
X171802127Y-50550500D01*
X172299902Y-50550499D01*
X172366941Y-50570183D01*
X172387583Y-50586818D01*
X172650201Y-50849436D01*
X172683686Y-50910759D01*
X172678702Y-50980451D01*
X172650202Y-51024798D01*
X172625000Y-51050000D01*
X172625000Y-51625000D01*
X173374403Y-51625000D01*
X173441442Y-51644685D01*
X173462084Y-51661319D01*
X173815139Y-52014374D01*
X173815149Y-52014385D01*
X173819479Y-52018715D01*
X173819480Y-52018716D01*
X173931284Y-52130520D01*
X174012674Y-52177510D01*
X174068215Y-52209577D01*
X174220943Y-52250500D01*
X174379057Y-52250500D01*
X176303331Y-52250500D01*
X176303347Y-52250501D01*
X176310943Y-52250501D01*
X176469054Y-52250501D01*
X176469057Y-52250501D01*
X176478973Y-52247844D01*
X187550000Y-52247844D01*
X187556401Y-52307372D01*
X187556403Y-52307379D01*
X187606645Y-52442086D01*
X187606649Y-52442093D01*
X187692809Y-52557187D01*
X187692812Y-52557190D01*
X187807906Y-52643350D01*
X187807913Y-52643354D01*
X187942620Y-52693596D01*
X187942627Y-52693598D01*
X188002155Y-52699999D01*
X188002172Y-52700000D01*
X188325000Y-52700000D01*
X188825000Y-52700000D01*
X189147828Y-52700000D01*
X189147844Y-52699999D01*
X189207372Y-52693598D01*
X189207379Y-52693596D01*
X189342086Y-52643354D01*
X189342093Y-52643350D01*
X189457187Y-52557190D01*
X189457190Y-52557187D01*
X189543350Y-52442093D01*
X189543354Y-52442086D01*
X189593596Y-52307379D01*
X189593598Y-52307372D01*
X189599999Y-52247844D01*
X191700000Y-52247844D01*
X191706401Y-52307372D01*
X191706403Y-52307379D01*
X191756645Y-52442086D01*
X191756649Y-52442093D01*
X191842809Y-52557187D01*
X191842812Y-52557190D01*
X191957906Y-52643350D01*
X191957913Y-52643354D01*
X192092620Y-52693596D01*
X192092627Y-52693598D01*
X192152155Y-52699999D01*
X192152172Y-52700000D01*
X192475000Y-52700000D01*
X192475000Y-52125000D01*
X191700000Y-52125000D01*
X191700000Y-52247844D01*
X189599999Y-52247844D01*
X189600000Y-52247827D01*
X189600000Y-52125000D01*
X188825000Y-52125000D01*
X188825000Y-52700000D01*
X188325000Y-52700000D01*
X188325000Y-52125000D01*
X187550000Y-52125000D01*
X187550000Y-52247844D01*
X176478973Y-52247844D01*
X176621785Y-52209577D01*
X176677326Y-52177510D01*
X176758716Y-52130520D01*
X176870520Y-52018716D01*
X176870520Y-52018714D01*
X176880724Y-52008511D01*
X176880728Y-52008506D01*
X177387079Y-51502155D01*
X187550000Y-51502155D01*
X187550000Y-51625000D01*
X188325000Y-51625000D01*
X188825000Y-51625000D01*
X189600000Y-51625000D01*
X189600000Y-51502172D01*
X189599999Y-51502155D01*
X191700000Y-51502155D01*
X191700000Y-51625000D01*
X192475000Y-51625000D01*
X192475000Y-51050000D01*
X192152155Y-51050000D01*
X192092627Y-51056401D01*
X192092620Y-51056403D01*
X191957913Y-51106645D01*
X191957906Y-51106649D01*
X191842812Y-51192809D01*
X191842809Y-51192812D01*
X191756649Y-51307906D01*
X191756645Y-51307913D01*
X191706403Y-51442620D01*
X191706401Y-51442627D01*
X191700000Y-51502155D01*
X189599999Y-51502155D01*
X189593598Y-51442627D01*
X189593596Y-51442620D01*
X189543354Y-51307913D01*
X189543350Y-51307906D01*
X189457190Y-51192812D01*
X189457187Y-51192809D01*
X189342093Y-51106649D01*
X189342086Y-51106645D01*
X189207379Y-51056403D01*
X189207372Y-51056401D01*
X189147844Y-51050000D01*
X188825000Y-51050000D01*
X188825000Y-51625000D01*
X188325000Y-51625000D01*
X188325000Y-51050000D01*
X188002155Y-51050000D01*
X187942627Y-51056401D01*
X187942620Y-51056403D01*
X187807913Y-51106645D01*
X187807906Y-51106649D01*
X187692812Y-51192809D01*
X187692809Y-51192812D01*
X187606649Y-51307906D01*
X187606645Y-51307913D01*
X187556403Y-51442620D01*
X187556401Y-51442627D01*
X187550000Y-51502155D01*
X177387079Y-51502155D01*
X179516470Y-49372763D01*
X179577791Y-49339280D01*
X179636238Y-49340670D01*
X179764592Y-49375063D01*
X179952918Y-49391539D01*
X179999999Y-49395659D01*
X180000000Y-49395659D01*
X180000001Y-49395659D01*
X180039234Y-49392226D01*
X180235408Y-49375063D01*
X180463663Y-49313903D01*
X180677830Y-49214035D01*
X180871401Y-49078495D01*
X181038495Y-48911401D01*
X181168425Y-48725842D01*
X181223002Y-48682217D01*
X181292500Y-48675023D01*
X181354855Y-48706546D01*
X181371575Y-48725842D01*
X181497658Y-48905908D01*
X181501505Y-48911401D01*
X181668599Y-49078495D01*
X181688536Y-49092455D01*
X181862165Y-49214032D01*
X181862167Y-49214033D01*
X181862170Y-49214035D01*
X182076337Y-49313903D01*
X182304592Y-49375063D01*
X182492918Y-49391539D01*
X182539999Y-49395659D01*
X182540000Y-49395659D01*
X182540001Y-49395659D01*
X182579234Y-49392226D01*
X182775408Y-49375063D01*
X183003663Y-49313903D01*
X183217830Y-49214035D01*
X183411401Y-49078495D01*
X183578495Y-48911401D01*
X183708730Y-48725405D01*
X183763307Y-48681781D01*
X183832805Y-48674587D01*
X183895160Y-48706110D01*
X183911879Y-48725405D01*
X183965072Y-48801372D01*
X183965073Y-48801372D01*
X184597037Y-48169408D01*
X184614075Y-48232993D01*
X184679901Y-48347007D01*
X184772993Y-48440099D01*
X184887007Y-48505925D01*
X184950591Y-48522962D01*
X184318626Y-49154926D01*
X184402417Y-49213598D01*
X184402421Y-49213600D01*
X184616507Y-49313429D01*
X184616516Y-49313433D01*
X184844673Y-49374567D01*
X184844684Y-49374569D01*
X185079998Y-49395157D01*
X185080002Y-49395157D01*
X185315315Y-49374569D01*
X185315326Y-49374567D01*
X185543483Y-49313433D01*
X185543492Y-49313429D01*
X185757580Y-49213599D01*
X185841371Y-49154925D01*
X185209408Y-48522962D01*
X185272993Y-48505925D01*
X185387007Y-48440099D01*
X185480099Y-48347007D01*
X185545925Y-48232993D01*
X185562962Y-48169408D01*
X186194925Y-48801371D01*
X186253599Y-48717580D01*
X186253601Y-48717576D01*
X186326554Y-48561129D01*
X186372726Y-48508689D01*
X186439919Y-48489537D01*
X186506801Y-48509753D01*
X186526617Y-48525852D01*
X187513181Y-49512416D01*
X187546666Y-49573739D01*
X187549500Y-49600097D01*
X187549500Y-50097870D01*
X187549501Y-50097876D01*
X187555908Y-50157483D01*
X187606202Y-50292328D01*
X187606206Y-50292335D01*
X187692452Y-50407544D01*
X187692455Y-50407547D01*
X187807664Y-50493793D01*
X187807671Y-50493797D01*
X187942517Y-50544091D01*
X187942516Y-50544091D01*
X187948525Y-50544737D01*
X188002127Y-50550500D01*
X189147872Y-50550499D01*
X189207483Y-50544091D01*
X189342331Y-50493796D01*
X189457546Y-50407546D01*
X189470791Y-50389854D01*
X189481768Y-50375190D01*
X189537701Y-50333318D01*
X189581035Y-50325500D01*
X191718965Y-50325500D01*
X191786004Y-50345185D01*
X191818232Y-50375190D01*
X191842449Y-50407541D01*
X191842452Y-50407544D01*
X191842454Y-50407546D01*
X191871095Y-50428987D01*
X191957664Y-50493793D01*
X191957671Y-50493797D01*
X192092517Y-50544091D01*
X192092516Y-50544091D01*
X192098525Y-50544737D01*
X192152127Y-50550500D01*
X193297872Y-50550499D01*
X193357483Y-50544091D01*
X193482167Y-50497587D01*
X193551859Y-50492603D01*
X193613182Y-50526088D01*
X193646666Y-50587411D01*
X193649500Y-50613769D01*
X193649500Y-50986763D01*
X193629815Y-51053802D01*
X193577011Y-51099557D01*
X193507853Y-51109501D01*
X193482168Y-51102945D01*
X193357382Y-51056403D01*
X193357372Y-51056401D01*
X193297844Y-51050000D01*
X192975000Y-51050000D01*
X192975000Y-52700000D01*
X193297828Y-52700000D01*
X193297844Y-52699999D01*
X193357372Y-52693598D01*
X193357379Y-52693596D01*
X193492086Y-52643354D01*
X193492090Y-52643352D01*
X193512580Y-52628013D01*
X193578044Y-52603594D01*
X193646317Y-52618444D01*
X193695724Y-52667848D01*
X193703073Y-52683940D01*
X193706200Y-52692325D01*
X193706206Y-52692335D01*
X193792452Y-52807544D01*
X193792455Y-52807547D01*
X193907664Y-52893793D01*
X193907671Y-52893797D01*
X194042517Y-52944091D01*
X194042516Y-52944091D01*
X194049444Y-52944835D01*
X194102127Y-52950500D01*
X196697872Y-52950499D01*
X196757483Y-52944091D01*
X196892331Y-52893796D01*
X197007546Y-52807546D01*
X197093796Y-52692331D01*
X197144091Y-52557483D01*
X197150500Y-52497873D01*
X197150499Y-49402128D01*
X197144091Y-49342517D01*
X197143402Y-49340671D01*
X197093797Y-49207671D01*
X197093793Y-49207664D01*
X197007547Y-49092455D01*
X197007544Y-49092452D01*
X196892335Y-49006206D01*
X196892328Y-49006202D01*
X196757482Y-48955908D01*
X196757483Y-48955908D01*
X196697883Y-48949501D01*
X196697881Y-48949500D01*
X196697873Y-48949500D01*
X196697865Y-48949500D01*
X194649096Y-48949500D01*
X194582057Y-48929815D01*
X194536302Y-48877011D01*
X194526358Y-48807853D01*
X194555383Y-48744297D01*
X194561415Y-48737819D01*
X198312415Y-44986819D01*
X198373738Y-44953334D01*
X198400096Y-44950500D01*
X198624335Y-44950500D01*
X198869614Y-44909571D01*
X199104810Y-44828828D01*
X199323509Y-44710474D01*
X199519744Y-44557738D01*
X199688164Y-44374785D01*
X199688169Y-44374777D01*
X199691311Y-44370741D01*
X199693050Y-44372094D01*
X199739095Y-44332764D01*
X199768375Y-44328069D01*
X200517036Y-43579407D01*
X200534075Y-43642993D01*
X200599901Y-43757007D01*
X200692993Y-43850099D01*
X200807007Y-43915925D01*
X200870589Y-43932962D01*
X200129943Y-44673609D01*
X200176768Y-44710055D01*
X200176771Y-44710057D01*
X200395385Y-44828364D01*
X200395396Y-44828369D01*
X200630506Y-44909083D01*
X200875707Y-44950000D01*
X201124293Y-44950000D01*
X201369493Y-44909083D01*
X201604603Y-44828369D01*
X201604614Y-44828364D01*
X201823230Y-44710056D01*
X201823236Y-44710051D01*
X201879107Y-44666565D01*
X201944101Y-44640921D01*
X202012641Y-44654487D01*
X202054537Y-44690105D01*
X202142455Y-44807547D01*
X202257664Y-44893793D01*
X202257671Y-44893797D01*
X202392517Y-44944091D01*
X202392516Y-44944091D01*
X202397400Y-44944616D01*
X202452127Y-44950500D01*
X203249902Y-44950499D01*
X203316941Y-44970183D01*
X203337583Y-44986818D01*
X207088583Y-48737819D01*
X207122068Y-48799142D01*
X207117084Y-48868834D01*
X207075212Y-48924767D01*
X207009748Y-48949184D01*
X207000902Y-48949500D01*
X205302129Y-48949500D01*
X205302123Y-48949501D01*
X205242516Y-48955908D01*
X205107671Y-49006202D01*
X205107664Y-49006206D01*
X204992455Y-49092452D01*
X204992452Y-49092455D01*
X204906206Y-49207664D01*
X204906202Y-49207671D01*
X204855908Y-49342517D01*
X204851896Y-49379841D01*
X204849501Y-49402123D01*
X204849500Y-49402135D01*
X204849500Y-52497870D01*
X204849501Y-52497876D01*
X204855908Y-52557483D01*
X204906202Y-52692328D01*
X204906206Y-52692335D01*
X204992452Y-52807544D01*
X204992455Y-52807547D01*
X205107664Y-52893793D01*
X205107671Y-52893797D01*
X205242517Y-52944091D01*
X205242516Y-52944091D01*
X205249444Y-52944835D01*
X205302127Y-52950500D01*
X207897872Y-52950499D01*
X207957483Y-52944091D01*
X208092331Y-52893796D01*
X208207546Y-52807546D01*
X208250858Y-52749688D01*
X208306789Y-52707818D01*
X208350123Y-52700000D01*
X208675000Y-52700000D01*
X209175000Y-52700000D01*
X209497828Y-52700000D01*
X209497844Y-52699999D01*
X209557372Y-52693598D01*
X209557379Y-52693596D01*
X209692086Y-52643354D01*
X209692093Y-52643350D01*
X209807187Y-52557190D01*
X209807190Y-52557187D01*
X209893350Y-52442093D01*
X209893354Y-52442086D01*
X209943596Y-52307379D01*
X209943598Y-52307372D01*
X209949999Y-52247844D01*
X212050000Y-52247844D01*
X212056401Y-52307372D01*
X212056403Y-52307379D01*
X212106645Y-52442086D01*
X212106649Y-52442093D01*
X212192809Y-52557187D01*
X212192812Y-52557190D01*
X212307906Y-52643350D01*
X212307913Y-52643354D01*
X212442620Y-52693596D01*
X212442627Y-52693598D01*
X212502155Y-52699999D01*
X212502172Y-52700000D01*
X212825000Y-52700000D01*
X212825000Y-52125000D01*
X212050000Y-52125000D01*
X212050000Y-52247844D01*
X209949999Y-52247844D01*
X209950000Y-52247827D01*
X209950000Y-52125000D01*
X209175000Y-52125000D01*
X209175000Y-52700000D01*
X208675000Y-52700000D01*
X208675000Y-51625000D01*
X209175000Y-51625000D01*
X209950000Y-51625000D01*
X209950000Y-51502172D01*
X209949999Y-51502155D01*
X212050000Y-51502155D01*
X212050000Y-51625000D01*
X212825000Y-51625000D01*
X212825000Y-51050000D01*
X212502155Y-51050000D01*
X212442627Y-51056401D01*
X212442620Y-51056403D01*
X212307913Y-51106645D01*
X212307906Y-51106649D01*
X212192812Y-51192809D01*
X212192809Y-51192812D01*
X212106649Y-51307906D01*
X212106645Y-51307913D01*
X212056403Y-51442620D01*
X212056401Y-51442627D01*
X212050000Y-51502155D01*
X209949999Y-51502155D01*
X209943598Y-51442627D01*
X209943596Y-51442620D01*
X209893354Y-51307913D01*
X209893350Y-51307906D01*
X209807190Y-51192812D01*
X209807187Y-51192809D01*
X209692093Y-51106649D01*
X209692086Y-51106645D01*
X209557379Y-51056403D01*
X209557372Y-51056401D01*
X209497844Y-51050000D01*
X209175000Y-51050000D01*
X209175000Y-51625000D01*
X208675000Y-51625000D01*
X208675000Y-51050000D01*
X208474499Y-51050000D01*
X208407460Y-51030315D01*
X208361705Y-50977511D01*
X208350499Y-50926000D01*
X208350499Y-50674499D01*
X208370184Y-50607460D01*
X208422988Y-50561705D01*
X208474494Y-50550499D01*
X209497872Y-50550499D01*
X209557483Y-50544091D01*
X209692331Y-50493796D01*
X209807546Y-50407546D01*
X209820791Y-50389854D01*
X209831768Y-50375190D01*
X209887701Y-50333318D01*
X209931035Y-50325500D01*
X212068965Y-50325500D01*
X212136004Y-50345185D01*
X212168232Y-50375190D01*
X212192449Y-50407541D01*
X212192452Y-50407544D01*
X212192454Y-50407546D01*
X212221095Y-50428987D01*
X212307664Y-50493793D01*
X212307671Y-50493797D01*
X212442517Y-50544091D01*
X212442516Y-50544091D01*
X212448525Y-50544737D01*
X212502127Y-50550500D01*
X213175500Y-50550499D01*
X213242539Y-50570183D01*
X213288294Y-50622987D01*
X213299500Y-50674499D01*
X213299500Y-53201000D01*
X213279815Y-53268039D01*
X213227011Y-53313794D01*
X213175500Y-53325000D01*
X213000000Y-53325000D01*
X213000000Y-54126000D01*
X212980315Y-54193039D01*
X212927511Y-54238794D01*
X212876000Y-54250000D01*
X212750000Y-54250000D01*
X212750000Y-54376000D01*
X212730315Y-54443039D01*
X212677511Y-54488794D01*
X212626000Y-54500000D01*
X211450000Y-54500000D01*
X211450000Y-54722844D01*
X211456401Y-54782372D01*
X211456403Y-54782379D01*
X211506645Y-54917086D01*
X211506649Y-54917093D01*
X211592809Y-55032187D01*
X211597584Y-55036962D01*
X211631069Y-55098285D01*
X211626085Y-55167977D01*
X211597584Y-55212324D01*
X211592452Y-55217455D01*
X211506206Y-55332664D01*
X211506202Y-55332671D01*
X211455908Y-55467517D01*
X211449501Y-55527116D01*
X211449501Y-55527123D01*
X211449500Y-55527135D01*
X211449500Y-56472870D01*
X211449501Y-56472876D01*
X211455908Y-56532483D01*
X211506202Y-56667328D01*
X211506206Y-56667335D01*
X211592452Y-56782544D01*
X211592455Y-56782547D01*
X211707664Y-56868793D01*
X211707671Y-56868797D01*
X211842517Y-56919091D01*
X211842516Y-56919091D01*
X211849444Y-56919835D01*
X211902127Y-56925500D01*
X213597872Y-56925499D01*
X213657483Y-56919091D01*
X213792331Y-56868796D01*
X213907546Y-56782546D01*
X213993796Y-56667331D01*
X214044091Y-56532483D01*
X214050500Y-56472873D01*
X214050499Y-55600097D01*
X214070183Y-55533059D01*
X214086818Y-55512417D01*
X214192119Y-55407116D01*
X214380221Y-55219014D01*
X214441542Y-55185531D01*
X214511234Y-55190515D01*
X214567167Y-55232387D01*
X214591584Y-55297851D01*
X214591900Y-55306697D01*
X214591900Y-57129500D01*
X214572215Y-57196539D01*
X214519411Y-57242294D01*
X214467900Y-57253500D01*
X209286518Y-57253500D01*
X209219479Y-57233815D01*
X209173724Y-57181011D01*
X209163780Y-57111853D01*
X209192805Y-57048297D01*
X209198837Y-57041819D01*
X209278838Y-56961818D01*
X209340161Y-56928333D01*
X209366519Y-56925499D01*
X210097871Y-56925499D01*
X210097872Y-56925499D01*
X210157483Y-56919091D01*
X210292331Y-56868796D01*
X210407546Y-56782546D01*
X210493796Y-56667331D01*
X210544091Y-56532483D01*
X210550500Y-56472873D01*
X210550499Y-55527128D01*
X210544091Y-55467517D01*
X210521567Y-55407128D01*
X210493797Y-55332671D01*
X210493793Y-55332664D01*
X210407547Y-55217455D01*
X210402773Y-55212681D01*
X210369288Y-55151358D01*
X210374272Y-55081666D01*
X210402773Y-55037319D01*
X210407542Y-55032548D01*
X210407546Y-55032546D01*
X210493796Y-54917331D01*
X210544091Y-54782483D01*
X210550500Y-54722873D01*
X210550499Y-53777155D01*
X211450000Y-53777155D01*
X211450000Y-54000000D01*
X212500000Y-54000000D01*
X212500000Y-53325000D01*
X211902155Y-53325000D01*
X211842627Y-53331401D01*
X211842620Y-53331403D01*
X211707913Y-53381645D01*
X211707906Y-53381649D01*
X211592812Y-53467809D01*
X211592809Y-53467812D01*
X211506649Y-53582906D01*
X211506645Y-53582913D01*
X211456403Y-53717620D01*
X211456401Y-53717627D01*
X211450000Y-53777155D01*
X210550499Y-53777155D01*
X210550499Y-53777128D01*
X210544091Y-53717517D01*
X210530021Y-53679794D01*
X210493797Y-53582671D01*
X210493793Y-53582664D01*
X210407547Y-53467455D01*
X210407544Y-53467452D01*
X210292335Y-53381206D01*
X210292328Y-53381202D01*
X210157482Y-53330908D01*
X210157483Y-53330908D01*
X210097883Y-53324501D01*
X210097881Y-53324500D01*
X210097873Y-53324500D01*
X210097864Y-53324500D01*
X208402129Y-53324500D01*
X208402123Y-53324501D01*
X208342516Y-53330908D01*
X208207671Y-53381202D01*
X208207664Y-53381206D01*
X208092455Y-53467452D01*
X208092452Y-53467455D01*
X208006206Y-53582664D01*
X208006202Y-53582671D01*
X207955908Y-53717517D01*
X207952572Y-53748553D01*
X207949501Y-53777123D01*
X207949500Y-53777135D01*
X207949500Y-54649902D01*
X207929815Y-54716941D01*
X207913181Y-54737583D01*
X207407584Y-55243181D01*
X207346261Y-55276666D01*
X207319903Y-55279500D01*
X193753861Y-55279500D01*
X193686822Y-55259815D01*
X193649362Y-55219581D01*
X193649112Y-55219769D01*
X193647364Y-55217434D01*
X193645027Y-55214924D01*
X193643797Y-55212673D01*
X193643796Y-55212669D01*
X193643793Y-55212665D01*
X193643792Y-55212663D01*
X193557547Y-55097455D01*
X193552416Y-55092324D01*
X193518931Y-55031001D01*
X193523915Y-54961309D01*
X193552416Y-54916962D01*
X193557190Y-54912187D01*
X193643350Y-54797093D01*
X193643354Y-54797086D01*
X193693596Y-54662379D01*
X193693598Y-54662372D01*
X193699999Y-54602844D01*
X193700000Y-54602827D01*
X193700000Y-54380000D01*
X191100000Y-54380000D01*
X191100000Y-54602844D01*
X191106401Y-54662372D01*
X191106403Y-54662379D01*
X191156645Y-54797086D01*
X191156649Y-54797093D01*
X191242809Y-54912187D01*
X191247584Y-54916962D01*
X191281069Y-54978285D01*
X191276085Y-55047977D01*
X191247584Y-55092324D01*
X191242452Y-55097455D01*
X191156206Y-55212664D01*
X191156202Y-55212671D01*
X191105908Y-55347517D01*
X191099501Y-55407116D01*
X191099500Y-55407127D01*
X191099500Y-55849500D01*
X191099501Y-56175500D01*
X191079817Y-56242539D01*
X191027013Y-56288294D01*
X190975501Y-56299500D01*
X190324500Y-56299500D01*
X190257461Y-56279815D01*
X190211706Y-56227011D01*
X190200500Y-56175500D01*
X190200499Y-55407129D01*
X190200498Y-55407123D01*
X190200497Y-55407116D01*
X190194091Y-55347517D01*
X190188551Y-55332664D01*
X190143797Y-55212671D01*
X190143793Y-55212664D01*
X190057547Y-55097455D01*
X190052773Y-55092681D01*
X190019288Y-55031358D01*
X190024272Y-54961666D01*
X190052773Y-54917319D01*
X190057542Y-54912548D01*
X190057546Y-54912546D01*
X190143796Y-54797331D01*
X190194091Y-54662483D01*
X190200500Y-54602873D01*
X190200499Y-53657155D01*
X191100000Y-53657155D01*
X191100000Y-53880000D01*
X192150000Y-53880000D01*
X192650000Y-53880000D01*
X193700000Y-53880000D01*
X193700000Y-53657172D01*
X193699999Y-53657155D01*
X193693598Y-53597627D01*
X193693596Y-53597620D01*
X193643354Y-53462913D01*
X193643350Y-53462906D01*
X193557190Y-53347812D01*
X193557187Y-53347809D01*
X193442093Y-53261649D01*
X193442086Y-53261645D01*
X193307379Y-53211403D01*
X193307372Y-53211401D01*
X193247844Y-53205000D01*
X192650000Y-53205000D01*
X192650000Y-53880000D01*
X192150000Y-53880000D01*
X192150000Y-53205000D01*
X191552155Y-53205000D01*
X191492627Y-53211401D01*
X191492620Y-53211403D01*
X191357913Y-53261645D01*
X191357906Y-53261649D01*
X191242812Y-53347809D01*
X191242809Y-53347812D01*
X191156649Y-53462906D01*
X191156645Y-53462913D01*
X191106403Y-53597620D01*
X191106401Y-53597627D01*
X191100000Y-53657155D01*
X190200499Y-53657155D01*
X190200499Y-53657128D01*
X190194091Y-53597517D01*
X190188641Y-53582906D01*
X190143797Y-53462671D01*
X190143793Y-53462664D01*
X190057547Y-53347455D01*
X190057544Y-53347452D01*
X189942335Y-53261206D01*
X189942328Y-53261202D01*
X189807482Y-53210908D01*
X189807483Y-53210908D01*
X189747883Y-53204501D01*
X189747881Y-53204500D01*
X189747873Y-53204500D01*
X189747864Y-53204500D01*
X188052129Y-53204500D01*
X188052123Y-53204501D01*
X187992516Y-53210908D01*
X187857671Y-53261202D01*
X187857664Y-53261206D01*
X187742455Y-53347452D01*
X187742452Y-53347455D01*
X187656206Y-53462664D01*
X187656202Y-53462671D01*
X187605908Y-53597517D01*
X187600022Y-53652271D01*
X187599501Y-53657123D01*
X187599500Y-53657135D01*
X187599500Y-54529902D01*
X187579815Y-54596941D01*
X187563181Y-54617583D01*
X186367584Y-55813181D01*
X186306261Y-55846666D01*
X186279903Y-55849500D01*
X182548444Y-55849500D01*
X182481405Y-55829815D01*
X182435650Y-55777011D01*
X182425706Y-55707853D01*
X182450068Y-55650014D01*
X182452921Y-55646294D01*
X182541936Y-55530289D01*
X182663224Y-55320212D01*
X182756054Y-55096100D01*
X182818838Y-54861789D01*
X182850500Y-54621288D01*
X182850500Y-54378712D01*
X182818838Y-54138211D01*
X182756054Y-53903900D01*
X182663224Y-53679788D01*
X182541936Y-53469711D01*
X182394265Y-53277262D01*
X182394260Y-53277256D01*
X182222743Y-53105739D01*
X182222736Y-53105733D01*
X182030293Y-52958067D01*
X182030292Y-52958066D01*
X182030289Y-52958064D01*
X181820212Y-52836776D01*
X181820205Y-52836773D01*
X181596104Y-52743947D01*
X181408200Y-52693598D01*
X181361789Y-52681162D01*
X181361788Y-52681161D01*
X181361785Y-52681161D01*
X181121289Y-52649500D01*
X181121288Y-52649500D01*
X180878712Y-52649500D01*
X180878711Y-52649500D01*
X180638214Y-52681161D01*
X180403895Y-52743947D01*
X180179794Y-52836773D01*
X180179785Y-52836777D01*
X179969706Y-52958067D01*
X179777263Y-53105733D01*
X179777256Y-53105739D01*
X179605739Y-53277256D01*
X179605733Y-53277263D01*
X179458067Y-53469706D01*
X179336777Y-53679785D01*
X179336773Y-53679794D01*
X179243947Y-53903895D01*
X179181161Y-54138214D01*
X179149500Y-54378711D01*
X179149500Y-54420996D01*
X179129815Y-54488035D01*
X179077011Y-54533790D01*
X179007853Y-54543734D01*
X178993414Y-54540772D01*
X178951341Y-54529499D01*
X178793227Y-54529499D01*
X178785631Y-54529499D01*
X178785615Y-54529500D01*
X173474000Y-54529500D01*
X173406961Y-54509815D01*
X173361206Y-54457011D01*
X173350000Y-54405500D01*
X173350000Y-54380000D01*
X170750000Y-54380000D01*
X170750000Y-54602844D01*
X170756401Y-54662372D01*
X170756403Y-54662379D01*
X170806645Y-54797086D01*
X170806649Y-54797093D01*
X170892809Y-54912187D01*
X170897584Y-54916962D01*
X170931069Y-54978285D01*
X170926085Y-55047977D01*
X170897584Y-55092324D01*
X170892452Y-55097455D01*
X170806206Y-55212664D01*
X170806202Y-55212671D01*
X170755908Y-55347517D01*
X170749501Y-55407116D01*
X170749500Y-55407127D01*
X170749500Y-55849500D01*
X170749501Y-56175500D01*
X170729817Y-56242539D01*
X170677013Y-56288294D01*
X170625501Y-56299500D01*
X169974500Y-56299500D01*
X169907461Y-56279815D01*
X169861706Y-56227011D01*
X169850500Y-56175500D01*
X169850499Y-55407129D01*
X169850498Y-55407123D01*
X169850497Y-55407116D01*
X169844091Y-55347517D01*
X169838551Y-55332664D01*
X169793797Y-55212671D01*
X169793793Y-55212664D01*
X169707547Y-55097455D01*
X169702773Y-55092681D01*
X169669288Y-55031358D01*
X169674272Y-54961666D01*
X169702773Y-54917319D01*
X169707542Y-54912548D01*
X169707546Y-54912546D01*
X169793796Y-54797331D01*
X169844091Y-54662483D01*
X169850500Y-54602873D01*
X169850499Y-53657155D01*
X170750000Y-53657155D01*
X170750000Y-53880000D01*
X171800000Y-53880000D01*
X172300000Y-53880000D01*
X173376134Y-53880000D01*
X173379863Y-53877963D01*
X173449556Y-53882941D01*
X173505493Y-53924806D01*
X173529917Y-53990268D01*
X173529592Y-54011728D01*
X173525000Y-54056672D01*
X173525000Y-54080000D01*
X174250000Y-54080000D01*
X174750000Y-54080000D01*
X175474999Y-54080000D01*
X175474999Y-54056692D01*
X175474998Y-54056677D01*
X175464855Y-53957392D01*
X175411547Y-53796518D01*
X175411542Y-53796507D01*
X175322575Y-53652271D01*
X175322572Y-53652267D01*
X175202732Y-53532427D01*
X175202728Y-53532424D01*
X175058492Y-53443457D01*
X175058481Y-53443452D01*
X174897606Y-53390144D01*
X174798322Y-53380000D01*
X174750000Y-53380000D01*
X174750000Y-54080000D01*
X174250000Y-54080000D01*
X174250000Y-53380000D01*
X174249999Y-53379999D01*
X174201693Y-53380000D01*
X174201675Y-53380001D01*
X174102392Y-53390144D01*
X173941518Y-53443452D01*
X173941507Y-53443457D01*
X173797271Y-53532424D01*
X173797267Y-53532427D01*
X173677427Y-53652267D01*
X173677424Y-53652271D01*
X173588453Y-53796514D01*
X173586383Y-53800955D01*
X173540212Y-53853395D01*
X173473019Y-53872549D01*
X173406138Y-53852335D01*
X173360802Y-53799171D01*
X173350000Y-53748553D01*
X173350000Y-53657172D01*
X173349999Y-53657155D01*
X173343598Y-53597627D01*
X173343596Y-53597620D01*
X173293354Y-53462913D01*
X173293350Y-53462906D01*
X173207190Y-53347812D01*
X173207187Y-53347809D01*
X173092093Y-53261649D01*
X173092086Y-53261645D01*
X172957379Y-53211403D01*
X172957372Y-53211401D01*
X172897844Y-53205000D01*
X172300000Y-53205000D01*
X172300000Y-53880000D01*
X171800000Y-53880000D01*
X171800000Y-53205000D01*
X171202155Y-53205000D01*
X171142627Y-53211401D01*
X171142620Y-53211403D01*
X171007913Y-53261645D01*
X171007906Y-53261649D01*
X170892812Y-53347809D01*
X170892809Y-53347812D01*
X170806649Y-53462906D01*
X170806645Y-53462913D01*
X170756403Y-53597620D01*
X170756401Y-53597627D01*
X170750000Y-53657155D01*
X169850499Y-53657155D01*
X169850499Y-53657128D01*
X169844091Y-53597517D01*
X169838641Y-53582906D01*
X169793797Y-53462671D01*
X169793793Y-53462664D01*
X169707547Y-53347455D01*
X169707544Y-53347452D01*
X169592335Y-53261206D01*
X169592328Y-53261202D01*
X169457482Y-53210908D01*
X169457483Y-53210908D01*
X169397883Y-53204501D01*
X169397881Y-53204500D01*
X169397873Y-53204500D01*
X169397864Y-53204500D01*
X167702129Y-53204500D01*
X167702123Y-53204501D01*
X167642516Y-53210908D01*
X167507671Y-53261202D01*
X167507664Y-53261206D01*
X167392455Y-53347452D01*
X167392452Y-53347455D01*
X167306206Y-53462664D01*
X167306202Y-53462671D01*
X167255908Y-53597517D01*
X167250022Y-53652271D01*
X167249501Y-53657123D01*
X167249500Y-53657135D01*
X167249500Y-54529901D01*
X167229815Y-54596940D01*
X167213181Y-54617582D01*
X167054656Y-54776108D01*
X166732480Y-55098285D01*
X166587584Y-55243181D01*
X166526261Y-55276666D01*
X166499903Y-55279500D01*
X153053861Y-55279500D01*
X152986822Y-55259815D01*
X152949362Y-55219581D01*
X152949112Y-55219769D01*
X152947364Y-55217434D01*
X152945027Y-55214924D01*
X152943797Y-55212673D01*
X152943796Y-55212669D01*
X152943793Y-55212665D01*
X152943792Y-55212663D01*
X152857547Y-55097455D01*
X152852416Y-55092324D01*
X152818931Y-55031001D01*
X152823915Y-54961309D01*
X152852416Y-54916962D01*
X152857190Y-54912187D01*
X152943350Y-54797093D01*
X152943354Y-54797086D01*
X152993596Y-54662379D01*
X152993598Y-54662372D01*
X152999999Y-54602844D01*
X153000000Y-54602827D01*
X153000000Y-54380000D01*
X150400000Y-54380000D01*
X150400000Y-54602844D01*
X150406401Y-54662372D01*
X150406403Y-54662379D01*
X150456645Y-54797086D01*
X150456649Y-54797093D01*
X150542809Y-54912187D01*
X150547584Y-54916962D01*
X150581069Y-54978285D01*
X150576085Y-55047977D01*
X150547584Y-55092324D01*
X150542452Y-55097455D01*
X150456206Y-55212664D01*
X150456202Y-55212671D01*
X150405908Y-55347517D01*
X150399501Y-55407116D01*
X150399500Y-55407127D01*
X150399500Y-55849500D01*
X150399501Y-56175500D01*
X150379817Y-56242539D01*
X150327013Y-56288294D01*
X150275501Y-56299500D01*
X149624500Y-56299500D01*
X149557461Y-56279815D01*
X149511706Y-56227011D01*
X149500500Y-56175500D01*
X149500499Y-55407129D01*
X149500498Y-55407123D01*
X149500497Y-55407116D01*
X149494091Y-55347517D01*
X149488551Y-55332664D01*
X149443797Y-55212671D01*
X149443793Y-55212664D01*
X149357547Y-55097455D01*
X149352773Y-55092681D01*
X149319288Y-55031358D01*
X149324272Y-54961666D01*
X149352773Y-54917319D01*
X149357542Y-54912548D01*
X149357546Y-54912546D01*
X149443796Y-54797331D01*
X149494091Y-54662483D01*
X149500500Y-54602873D01*
X149500499Y-53657155D01*
X150400000Y-53657155D01*
X150400000Y-53880000D01*
X151450000Y-53880000D01*
X151950000Y-53880000D01*
X153000000Y-53880000D01*
X153000000Y-53657172D01*
X152999999Y-53657155D01*
X152993598Y-53597627D01*
X152993596Y-53597620D01*
X152943354Y-53462913D01*
X152943350Y-53462906D01*
X152857190Y-53347812D01*
X152857187Y-53347809D01*
X152742093Y-53261649D01*
X152742086Y-53261645D01*
X152607379Y-53211403D01*
X152607372Y-53211401D01*
X152547844Y-53205000D01*
X151950000Y-53205000D01*
X151950000Y-53880000D01*
X151450000Y-53880000D01*
X151450000Y-53205000D01*
X150852155Y-53205000D01*
X150792627Y-53211401D01*
X150792620Y-53211403D01*
X150657913Y-53261645D01*
X150657906Y-53261649D01*
X150542812Y-53347809D01*
X150542809Y-53347812D01*
X150456649Y-53462906D01*
X150456645Y-53462913D01*
X150406403Y-53597620D01*
X150406401Y-53597627D01*
X150400000Y-53657155D01*
X149500499Y-53657155D01*
X149500499Y-53657128D01*
X149494091Y-53597517D01*
X149488641Y-53582906D01*
X149443797Y-53462671D01*
X149443793Y-53462664D01*
X149357547Y-53347455D01*
X149357544Y-53347452D01*
X149242335Y-53261206D01*
X149242328Y-53261202D01*
X149107482Y-53210908D01*
X149107483Y-53210908D01*
X149047883Y-53204501D01*
X149047881Y-53204500D01*
X149047873Y-53204500D01*
X149047864Y-53204500D01*
X147352129Y-53204500D01*
X147352123Y-53204501D01*
X147292516Y-53210908D01*
X147157671Y-53261202D01*
X147157664Y-53261206D01*
X147042455Y-53347452D01*
X147042452Y-53347455D01*
X146956206Y-53462664D01*
X146956202Y-53462671D01*
X146905908Y-53597517D01*
X146900022Y-53652271D01*
X146899501Y-53657123D01*
X146899500Y-53657135D01*
X146899500Y-54529902D01*
X146879815Y-54596941D01*
X146863181Y-54617583D01*
X145667584Y-55813181D01*
X145606261Y-55846666D01*
X145579903Y-55849500D01*
X141548444Y-55849500D01*
X141481405Y-55829815D01*
X141435650Y-55777011D01*
X141425706Y-55707853D01*
X141450068Y-55650014D01*
X141452921Y-55646294D01*
X141541936Y-55530289D01*
X141663224Y-55320212D01*
X141756054Y-55096100D01*
X141818838Y-54861789D01*
X141850500Y-54621288D01*
X141850500Y-54378712D01*
X141818838Y-54138211D01*
X141756054Y-53903900D01*
X141663224Y-53679788D01*
X141541936Y-53469711D01*
X141394265Y-53277262D01*
X141394260Y-53277256D01*
X141222743Y-53105739D01*
X141222736Y-53105733D01*
X141030293Y-52958067D01*
X141030292Y-52958066D01*
X141030289Y-52958064D01*
X140820212Y-52836776D01*
X140820205Y-52836773D01*
X140596104Y-52743947D01*
X140408200Y-52693598D01*
X140361789Y-52681162D01*
X140361788Y-52681161D01*
X140361785Y-52681161D01*
X140121289Y-52649500D01*
X140121288Y-52649500D01*
X139878712Y-52649500D01*
X139878711Y-52649500D01*
X139638214Y-52681161D01*
X139403895Y-52743947D01*
X139179794Y-52836773D01*
X139179785Y-52836777D01*
X138969706Y-52958067D01*
X138777263Y-53105733D01*
X138777256Y-53105739D01*
X138605739Y-53277256D01*
X138605733Y-53277263D01*
X138458067Y-53469706D01*
X138336777Y-53679785D01*
X138336773Y-53679794D01*
X138243947Y-53903895D01*
X138181161Y-54138214D01*
X138149500Y-54378711D01*
X138149500Y-54621289D01*
X138160793Y-54707073D01*
X138150027Y-54776108D01*
X138103647Y-54828363D01*
X138036378Y-54847248D01*
X137969577Y-54826767D01*
X137950173Y-54810938D01*
X137907590Y-54768355D01*
X137907588Y-54768352D01*
X137788717Y-54649481D01*
X137788716Y-54649480D01*
X137701904Y-54599360D01*
X137701904Y-54599359D01*
X137701900Y-54599358D01*
X137651785Y-54570423D01*
X137499057Y-54529499D01*
X137340943Y-54529499D01*
X137333347Y-54529499D01*
X137333331Y-54529500D01*
X132519000Y-54529500D01*
X132451961Y-54509815D01*
X132406206Y-54457011D01*
X132395000Y-54405500D01*
X132395000Y-54380000D01*
X130050000Y-54380000D01*
X130050000Y-54602844D01*
X130056401Y-54662372D01*
X130056403Y-54662379D01*
X130106645Y-54797086D01*
X130106649Y-54797093D01*
X130192809Y-54912187D01*
X130197584Y-54916962D01*
X130231069Y-54978285D01*
X130226085Y-55047977D01*
X130197584Y-55092324D01*
X130192452Y-55097455D01*
X130106206Y-55212664D01*
X130106202Y-55212671D01*
X130055908Y-55347517D01*
X130049501Y-55407116D01*
X130049500Y-55407127D01*
X130049500Y-55849500D01*
X130049501Y-56175500D01*
X130029817Y-56242539D01*
X129977013Y-56288294D01*
X129925501Y-56299500D01*
X129274500Y-56299500D01*
X129207461Y-56279815D01*
X129161706Y-56227011D01*
X129150500Y-56175500D01*
X129150499Y-55407129D01*
X129150498Y-55407123D01*
X129150497Y-55407116D01*
X129144091Y-55347517D01*
X129138551Y-55332664D01*
X129093797Y-55212671D01*
X129093793Y-55212664D01*
X129007547Y-55097455D01*
X129002773Y-55092681D01*
X128969288Y-55031358D01*
X128974272Y-54961666D01*
X129002773Y-54917319D01*
X129007542Y-54912548D01*
X129007546Y-54912546D01*
X129093796Y-54797331D01*
X129144091Y-54662483D01*
X129150500Y-54602873D01*
X129150499Y-53657155D01*
X130050000Y-53657155D01*
X130050000Y-53880000D01*
X131100000Y-53880000D01*
X131600000Y-53880000D01*
X132656000Y-53880000D01*
X132723039Y-53899685D01*
X132768794Y-53952489D01*
X132780000Y-54004000D01*
X132780000Y-54080000D01*
X133250000Y-54080000D01*
X133750000Y-54080000D01*
X134474999Y-54080000D01*
X134474999Y-54056692D01*
X134474998Y-54056677D01*
X134464855Y-53957392D01*
X134411547Y-53796518D01*
X134411542Y-53796507D01*
X134322575Y-53652271D01*
X134322572Y-53652267D01*
X134202732Y-53532427D01*
X134202728Y-53532424D01*
X134058492Y-53443457D01*
X134058481Y-53443452D01*
X133897606Y-53390144D01*
X133798322Y-53380000D01*
X133750000Y-53380000D01*
X133750000Y-54080000D01*
X133250000Y-54080000D01*
X133250000Y-53380000D01*
X133249999Y-53379999D01*
X133201693Y-53380000D01*
X133201675Y-53380001D01*
X133102392Y-53390144D01*
X132941518Y-53443452D01*
X132941507Y-53443457D01*
X132797272Y-53532423D01*
X132793397Y-53535488D01*
X132728601Y-53561627D01*
X132659959Y-53548585D01*
X132609265Y-53500503D01*
X132600305Y-53481551D01*
X132593353Y-53462911D01*
X132593350Y-53462906D01*
X132507190Y-53347812D01*
X132507187Y-53347809D01*
X132392093Y-53261649D01*
X132392086Y-53261645D01*
X132257379Y-53211403D01*
X132257372Y-53211401D01*
X132197844Y-53205000D01*
X131600000Y-53205000D01*
X131600000Y-53880000D01*
X131100000Y-53880000D01*
X131100000Y-53205000D01*
X130502155Y-53205000D01*
X130442627Y-53211401D01*
X130442620Y-53211403D01*
X130307913Y-53261645D01*
X130307906Y-53261649D01*
X130192812Y-53347809D01*
X130192809Y-53347812D01*
X130106649Y-53462906D01*
X130106645Y-53462913D01*
X130056403Y-53597620D01*
X130056401Y-53597627D01*
X130050000Y-53657155D01*
X129150499Y-53657155D01*
X129150499Y-53657128D01*
X129144091Y-53597517D01*
X129138641Y-53582906D01*
X129093797Y-53462671D01*
X129093793Y-53462664D01*
X129007547Y-53347455D01*
X129007544Y-53347452D01*
X128892335Y-53261206D01*
X128892328Y-53261202D01*
X128757482Y-53210908D01*
X128757483Y-53210908D01*
X128697883Y-53204501D01*
X128697881Y-53204500D01*
X128697873Y-53204500D01*
X128697864Y-53204500D01*
X127002129Y-53204500D01*
X127002123Y-53204501D01*
X126942516Y-53210908D01*
X126807671Y-53261202D01*
X126807664Y-53261206D01*
X126692455Y-53347452D01*
X126692452Y-53347455D01*
X126606206Y-53462664D01*
X126606202Y-53462671D01*
X126555908Y-53597517D01*
X126550022Y-53652271D01*
X126549501Y-53657123D01*
X126549500Y-53657135D01*
X126549500Y-54529901D01*
X126529815Y-54596940D01*
X126513181Y-54617582D01*
X126354656Y-54776108D01*
X126032480Y-55098285D01*
X125887584Y-55243181D01*
X125826261Y-55276666D01*
X125799903Y-55279500D01*
X112353861Y-55279500D01*
X112286822Y-55259815D01*
X112249362Y-55219581D01*
X112249112Y-55219769D01*
X112247364Y-55217434D01*
X112245027Y-55214924D01*
X112243797Y-55212673D01*
X112243796Y-55212669D01*
X112243793Y-55212665D01*
X112243792Y-55212663D01*
X112157547Y-55097455D01*
X112152416Y-55092324D01*
X112118931Y-55031001D01*
X112123915Y-54961309D01*
X112152416Y-54916962D01*
X112157190Y-54912187D01*
X112243350Y-54797093D01*
X112243354Y-54797086D01*
X112293596Y-54662379D01*
X112293598Y-54662372D01*
X112299999Y-54602844D01*
X112300000Y-54602827D01*
X112300000Y-54380000D01*
X111124000Y-54380000D01*
X111056961Y-54360315D01*
X111011206Y-54307511D01*
X111000000Y-54256000D01*
X111000000Y-54130000D01*
X110874000Y-54130000D01*
X110806961Y-54110315D01*
X110761206Y-54057511D01*
X110750000Y-54006000D01*
X110750000Y-53880000D01*
X111250000Y-53880000D01*
X112300000Y-53880000D01*
X112300000Y-53657172D01*
X112299999Y-53657155D01*
X112293598Y-53597627D01*
X112293596Y-53597620D01*
X112243354Y-53462913D01*
X112243350Y-53462906D01*
X112157190Y-53347812D01*
X112157187Y-53347809D01*
X112042093Y-53261649D01*
X112042086Y-53261645D01*
X111907379Y-53211403D01*
X111907372Y-53211401D01*
X111847844Y-53205000D01*
X111250000Y-53205000D01*
X111250000Y-53880000D01*
X110750000Y-53880000D01*
X110750000Y-53205000D01*
X110152155Y-53205000D01*
X110092627Y-53211401D01*
X110092620Y-53211403D01*
X109957913Y-53261645D01*
X109957906Y-53261649D01*
X109842812Y-53347809D01*
X109842809Y-53347812D01*
X109773197Y-53440802D01*
X109717263Y-53482673D01*
X109647572Y-53487657D01*
X109586250Y-53454172D01*
X109502262Y-53370184D01*
X109349523Y-53274211D01*
X109179254Y-53214631D01*
X109179249Y-53214630D01*
X109000004Y-53194435D01*
X108999996Y-53194435D01*
X108820750Y-53214630D01*
X108820742Y-53214632D01*
X108650988Y-53274032D01*
X108581210Y-53277593D01*
X108551174Y-53263512D01*
X108550114Y-53265454D01*
X108542328Y-53261202D01*
X108407482Y-53210908D01*
X108407483Y-53210908D01*
X108347883Y-53204501D01*
X108347881Y-53204500D01*
X108347873Y-53204500D01*
X108347864Y-53204500D01*
X106652129Y-53204500D01*
X106652123Y-53204501D01*
X106592516Y-53210908D01*
X106457671Y-53261202D01*
X106457664Y-53261206D01*
X106342455Y-53347452D01*
X106342452Y-53347455D01*
X106273766Y-53439208D01*
X106217832Y-53481079D01*
X106148141Y-53486063D01*
X106086818Y-53452577D01*
X106053334Y-53391254D01*
X106050500Y-53364897D01*
X106050500Y-52606059D01*
X106070185Y-52539020D01*
X106122989Y-52493265D01*
X106192147Y-52483321D01*
X106255703Y-52512346D01*
X106273767Y-52531749D01*
X106292811Y-52557189D01*
X106292812Y-52557190D01*
X106407906Y-52643350D01*
X106407913Y-52643354D01*
X106542620Y-52693596D01*
X106542627Y-52693598D01*
X106602155Y-52699999D01*
X106602172Y-52700000D01*
X106925000Y-52700000D01*
X107425000Y-52700000D01*
X107747828Y-52700000D01*
X107747844Y-52699999D01*
X107807372Y-52693598D01*
X107807379Y-52693596D01*
X107942086Y-52643354D01*
X107942093Y-52643350D01*
X108057187Y-52557190D01*
X108057190Y-52557187D01*
X108143350Y-52442093D01*
X108143354Y-52442086D01*
X108193596Y-52307379D01*
X108193598Y-52307372D01*
X108199999Y-52247844D01*
X110300000Y-52247844D01*
X110306401Y-52307372D01*
X110306403Y-52307379D01*
X110356645Y-52442086D01*
X110356649Y-52442093D01*
X110442809Y-52557187D01*
X110442812Y-52557190D01*
X110557906Y-52643350D01*
X110557913Y-52643354D01*
X110692620Y-52693596D01*
X110692627Y-52693598D01*
X110752155Y-52699999D01*
X110752172Y-52700000D01*
X111075000Y-52700000D01*
X111075000Y-52125000D01*
X110300000Y-52125000D01*
X110300000Y-52247844D01*
X108199999Y-52247844D01*
X108200000Y-52247827D01*
X108200000Y-52125000D01*
X107425000Y-52125000D01*
X107425000Y-52700000D01*
X106925000Y-52700000D01*
X106925000Y-51625000D01*
X107425000Y-51625000D01*
X108200000Y-51625000D01*
X108200000Y-51502172D01*
X108199999Y-51502155D01*
X110300000Y-51502155D01*
X110300000Y-51625000D01*
X111075000Y-51625000D01*
X111075000Y-51050000D01*
X110752155Y-51050000D01*
X110692627Y-51056401D01*
X110692620Y-51056403D01*
X110557913Y-51106645D01*
X110557906Y-51106649D01*
X110442812Y-51192809D01*
X110442809Y-51192812D01*
X110356649Y-51307906D01*
X110356645Y-51307913D01*
X110306403Y-51442620D01*
X110306401Y-51442627D01*
X110300000Y-51502155D01*
X108199999Y-51502155D01*
X108193598Y-51442627D01*
X108193596Y-51442620D01*
X108143354Y-51307913D01*
X108143350Y-51307906D01*
X108057190Y-51192812D01*
X108057187Y-51192809D01*
X107942093Y-51106649D01*
X107942086Y-51106645D01*
X107807379Y-51056403D01*
X107807372Y-51056401D01*
X107747844Y-51050000D01*
X107425000Y-51050000D01*
X107425000Y-51625000D01*
X106925000Y-51625000D01*
X106925000Y-51050000D01*
X106602155Y-51050000D01*
X106542627Y-51056401D01*
X106542620Y-51056403D01*
X106407913Y-51106645D01*
X106407906Y-51106649D01*
X106292812Y-51192809D01*
X106273766Y-51218252D01*
X106217832Y-51260122D01*
X106148140Y-51265106D01*
X106086818Y-51231620D01*
X106053333Y-51170297D01*
X106050500Y-51143940D01*
X106050500Y-50456893D01*
X106070185Y-50389854D01*
X106122989Y-50344099D01*
X106192147Y-50334155D01*
X106255703Y-50363180D01*
X106273767Y-50382583D01*
X106292454Y-50407546D01*
X106292455Y-50407547D01*
X106407664Y-50493793D01*
X106407671Y-50493797D01*
X106542517Y-50544091D01*
X106542516Y-50544091D01*
X106548525Y-50544737D01*
X106602127Y-50550500D01*
X107747872Y-50550499D01*
X107807483Y-50544091D01*
X107942331Y-50493796D01*
X108057546Y-50407546D01*
X108070791Y-50389854D01*
X108081768Y-50375190D01*
X108137701Y-50333318D01*
X108181035Y-50325500D01*
X110318965Y-50325500D01*
X110386004Y-50345185D01*
X110418232Y-50375190D01*
X110442449Y-50407541D01*
X110442452Y-50407544D01*
X110442454Y-50407546D01*
X110471095Y-50428987D01*
X110557664Y-50493793D01*
X110557671Y-50493797D01*
X110692517Y-50544091D01*
X110692516Y-50544091D01*
X110698525Y-50544737D01*
X110752127Y-50550500D01*
X111897872Y-50550499D01*
X111957483Y-50544091D01*
X111982165Y-50534884D01*
X112051856Y-50529899D01*
X112113180Y-50563384D01*
X112146666Y-50624706D01*
X112149500Y-50651066D01*
X112149500Y-50949466D01*
X112129815Y-51016505D01*
X112077011Y-51062260D01*
X112007853Y-51072204D01*
X111982168Y-51065648D01*
X111957382Y-51056403D01*
X111957372Y-51056401D01*
X111897844Y-51050000D01*
X111575000Y-51050000D01*
X111575000Y-52700000D01*
X111897828Y-52700000D01*
X111897844Y-52699999D01*
X111957372Y-52693598D01*
X111957376Y-52693597D01*
X112065661Y-52653209D01*
X112135353Y-52648225D01*
X112196676Y-52681709D01*
X112208261Y-52695080D01*
X112292452Y-52807544D01*
X112292455Y-52807547D01*
X112407664Y-52893793D01*
X112407671Y-52893797D01*
X112542517Y-52944091D01*
X112542516Y-52944091D01*
X112549444Y-52944835D01*
X112602127Y-52950500D01*
X115197872Y-52950499D01*
X115257483Y-52944091D01*
X115392331Y-52893796D01*
X115507546Y-52807546D01*
X115593796Y-52692331D01*
X115644091Y-52557483D01*
X115650500Y-52497873D01*
X115650499Y-49402128D01*
X115644091Y-49342517D01*
X115643402Y-49340671D01*
X115593797Y-49207671D01*
X115593793Y-49207664D01*
X115507547Y-49092455D01*
X115507544Y-49092452D01*
X115392335Y-49006206D01*
X115392328Y-49006202D01*
X115257482Y-48955908D01*
X115257483Y-48955908D01*
X115197883Y-48949501D01*
X115197881Y-48949500D01*
X115197873Y-48949500D01*
X115197865Y-48949500D01*
X112999096Y-48949500D01*
X112932057Y-48929815D01*
X112886302Y-48877011D01*
X112876358Y-48807853D01*
X112905383Y-48744297D01*
X112911415Y-48737819D01*
X114794379Y-46854855D01*
X116678904Y-44970329D01*
X116740225Y-44936846D01*
X116786990Y-44935703D01*
X116875665Y-44950500D01*
X116875666Y-44950500D01*
X117124335Y-44950500D01*
X117369614Y-44909571D01*
X117604810Y-44828828D01*
X117823509Y-44710474D01*
X118019744Y-44557738D01*
X118188164Y-44374785D01*
X118188169Y-44374777D01*
X118191311Y-44370741D01*
X118193050Y-44372094D01*
X118239095Y-44332764D01*
X118268375Y-44328069D01*
X119017037Y-43579408D01*
X119034075Y-43642993D01*
X119099901Y-43757007D01*
X119192993Y-43850099D01*
X119307007Y-43915925D01*
X119370589Y-43932962D01*
X118629943Y-44673609D01*
X118676768Y-44710055D01*
X118676771Y-44710057D01*
X118895385Y-44828364D01*
X118895396Y-44828369D01*
X119130506Y-44909083D01*
X119375707Y-44950000D01*
X119624293Y-44950000D01*
X119869493Y-44909083D01*
X120104603Y-44828369D01*
X120104614Y-44828364D01*
X120323230Y-44710056D01*
X120323236Y-44710051D01*
X120379107Y-44666565D01*
X120444101Y-44640921D01*
X120512641Y-44654487D01*
X120554537Y-44690105D01*
X120642455Y-44807547D01*
X120757664Y-44893793D01*
X120757671Y-44893797D01*
X120892517Y-44944091D01*
X120892516Y-44944091D01*
X120897400Y-44944616D01*
X120952127Y-44950500D01*
X121849902Y-44950499D01*
X121916941Y-44970183D01*
X121937583Y-44986818D01*
X125688584Y-48737819D01*
X125722069Y-48799142D01*
X125717085Y-48868834D01*
X125675213Y-48924767D01*
X125609749Y-48949184D01*
X125600903Y-48949500D01*
X123802129Y-48949500D01*
X123802123Y-48949501D01*
X123742516Y-48955908D01*
X123607671Y-49006202D01*
X123607664Y-49006206D01*
X123492455Y-49092452D01*
X123492452Y-49092455D01*
X123406206Y-49207664D01*
X123406202Y-49207671D01*
X123355908Y-49342517D01*
X123351896Y-49379841D01*
X123349501Y-49402123D01*
X123349500Y-49402135D01*
X123349500Y-52497870D01*
X123349501Y-52497876D01*
X123355908Y-52557483D01*
X123406202Y-52692328D01*
X123406206Y-52692335D01*
X123492452Y-52807544D01*
X123492455Y-52807547D01*
X123607664Y-52893793D01*
X123607671Y-52893797D01*
X123742517Y-52944091D01*
X123742516Y-52944091D01*
X123749444Y-52944835D01*
X123802127Y-52950500D01*
X126397872Y-52950499D01*
X126457483Y-52944091D01*
X126592331Y-52893796D01*
X126707546Y-52807546D01*
X126759147Y-52738614D01*
X126815079Y-52696746D01*
X126884770Y-52691762D01*
X126886930Y-52692252D01*
X126892628Y-52693598D01*
X126952155Y-52699999D01*
X126952172Y-52700000D01*
X127275000Y-52700000D01*
X127775000Y-52700000D01*
X128097828Y-52700000D01*
X128097844Y-52699999D01*
X128157372Y-52693598D01*
X128157379Y-52693596D01*
X128292086Y-52643354D01*
X128292093Y-52643350D01*
X128407187Y-52557190D01*
X128407190Y-52557187D01*
X128493350Y-52442093D01*
X128493354Y-52442086D01*
X128543596Y-52307379D01*
X128543598Y-52307372D01*
X128549999Y-52247844D01*
X130650000Y-52247844D01*
X130656401Y-52307372D01*
X130656403Y-52307379D01*
X130706645Y-52442086D01*
X130706649Y-52442093D01*
X130792809Y-52557187D01*
X130792812Y-52557190D01*
X130907906Y-52643350D01*
X130907913Y-52643354D01*
X131042620Y-52693596D01*
X131042627Y-52693598D01*
X131102155Y-52699999D01*
X131102172Y-52700000D01*
X131425000Y-52700000D01*
X131925000Y-52700000D01*
X132247828Y-52700000D01*
X132247844Y-52699999D01*
X132307372Y-52693598D01*
X132307379Y-52693596D01*
X132442086Y-52643354D01*
X132442093Y-52643350D01*
X132557187Y-52557190D01*
X132557190Y-52557187D01*
X132643350Y-52442093D01*
X132643354Y-52442086D01*
X132693596Y-52307379D01*
X132693598Y-52307372D01*
X132699999Y-52247844D01*
X146850000Y-52247844D01*
X146856401Y-52307372D01*
X146856403Y-52307379D01*
X146906645Y-52442086D01*
X146906649Y-52442093D01*
X146992809Y-52557187D01*
X146992812Y-52557190D01*
X147107906Y-52643350D01*
X147107913Y-52643354D01*
X147242620Y-52693596D01*
X147242627Y-52693598D01*
X147302155Y-52699999D01*
X147302172Y-52700000D01*
X147625000Y-52700000D01*
X148125000Y-52700000D01*
X148447828Y-52700000D01*
X148447844Y-52699999D01*
X148507372Y-52693598D01*
X148507379Y-52693596D01*
X148642086Y-52643354D01*
X148642093Y-52643350D01*
X148757187Y-52557190D01*
X148757190Y-52557187D01*
X148843350Y-52442093D01*
X148843354Y-52442086D01*
X148893596Y-52307379D01*
X148893598Y-52307372D01*
X148899999Y-52247844D01*
X151000000Y-52247844D01*
X151006401Y-52307372D01*
X151006403Y-52307379D01*
X151056645Y-52442086D01*
X151056649Y-52442093D01*
X151142809Y-52557187D01*
X151142812Y-52557190D01*
X151257906Y-52643350D01*
X151257913Y-52643354D01*
X151392620Y-52693596D01*
X151392627Y-52693598D01*
X151452155Y-52699999D01*
X151452172Y-52700000D01*
X151775000Y-52700000D01*
X151775000Y-52125000D01*
X151000000Y-52125000D01*
X151000000Y-52247844D01*
X148899999Y-52247844D01*
X148900000Y-52247827D01*
X148900000Y-52125000D01*
X148125000Y-52125000D01*
X148125000Y-52700000D01*
X147625000Y-52700000D01*
X147625000Y-52125000D01*
X146850000Y-52125000D01*
X146850000Y-52247844D01*
X132699999Y-52247844D01*
X132700000Y-52247827D01*
X132700000Y-52125000D01*
X131925000Y-52125000D01*
X131925000Y-52700000D01*
X131425000Y-52700000D01*
X131425000Y-52125000D01*
X130650000Y-52125000D01*
X130650000Y-52247844D01*
X128549999Y-52247844D01*
X128550000Y-52247827D01*
X128550000Y-52125000D01*
X127775000Y-52125000D01*
X127775000Y-52700000D01*
X127275000Y-52700000D01*
X127275000Y-51625000D01*
X127775000Y-51625000D01*
X128550000Y-51625000D01*
X128550000Y-51502172D01*
X128549999Y-51502155D01*
X130650000Y-51502155D01*
X130650000Y-51625000D01*
X131425000Y-51625000D01*
X131925000Y-51625000D01*
X132700000Y-51625000D01*
X132700000Y-51502172D01*
X132699999Y-51502155D01*
X146850000Y-51502155D01*
X146850000Y-51625000D01*
X147625000Y-51625000D01*
X148125000Y-51625000D01*
X148900000Y-51625000D01*
X148900000Y-51502172D01*
X148899999Y-51502155D01*
X151000000Y-51502155D01*
X151000000Y-51625000D01*
X151775000Y-51625000D01*
X151775000Y-51050000D01*
X151452155Y-51050000D01*
X151392627Y-51056401D01*
X151392620Y-51056403D01*
X151257913Y-51106645D01*
X151257906Y-51106649D01*
X151142812Y-51192809D01*
X151142809Y-51192812D01*
X151056649Y-51307906D01*
X151056645Y-51307913D01*
X151006403Y-51442620D01*
X151006401Y-51442627D01*
X151000000Y-51502155D01*
X148899999Y-51502155D01*
X148893598Y-51442627D01*
X148893596Y-51442620D01*
X148843354Y-51307913D01*
X148843350Y-51307906D01*
X148757190Y-51192812D01*
X148757187Y-51192809D01*
X148642093Y-51106649D01*
X148642086Y-51106645D01*
X148507379Y-51056403D01*
X148507372Y-51056401D01*
X148447844Y-51050000D01*
X148125000Y-51050000D01*
X148125000Y-51625000D01*
X147625000Y-51625000D01*
X147625000Y-51050000D01*
X147302155Y-51050000D01*
X147242627Y-51056401D01*
X147242620Y-51056403D01*
X147107913Y-51106645D01*
X147107906Y-51106649D01*
X146992812Y-51192809D01*
X146992809Y-51192812D01*
X146906649Y-51307906D01*
X146906645Y-51307913D01*
X146856403Y-51442620D01*
X146856401Y-51442627D01*
X146850000Y-51502155D01*
X132699999Y-51502155D01*
X132693598Y-51442627D01*
X132693596Y-51442620D01*
X132643354Y-51307913D01*
X132643350Y-51307906D01*
X132557190Y-51192812D01*
X132557187Y-51192809D01*
X132442093Y-51106649D01*
X132442086Y-51106645D01*
X132307379Y-51056403D01*
X132307372Y-51056401D01*
X132247844Y-51050000D01*
X131925000Y-51050000D01*
X131925000Y-51625000D01*
X131425000Y-51625000D01*
X131425000Y-51050000D01*
X131102155Y-51050000D01*
X131042627Y-51056401D01*
X131042620Y-51056403D01*
X130907913Y-51106645D01*
X130907906Y-51106649D01*
X130792812Y-51192809D01*
X130792809Y-51192812D01*
X130706649Y-51307906D01*
X130706645Y-51307913D01*
X130656403Y-51442620D01*
X130656401Y-51442627D01*
X130650000Y-51502155D01*
X128549999Y-51502155D01*
X128543598Y-51442627D01*
X128543596Y-51442620D01*
X128493354Y-51307913D01*
X128493350Y-51307906D01*
X128407190Y-51192812D01*
X128407187Y-51192809D01*
X128292093Y-51106649D01*
X128292086Y-51106645D01*
X128157379Y-51056403D01*
X128157372Y-51056401D01*
X128097844Y-51050000D01*
X127775000Y-51050000D01*
X127775000Y-51625000D01*
X127275000Y-51625000D01*
X127275000Y-51050000D01*
X126974499Y-51050000D01*
X126907460Y-51030315D01*
X126861705Y-50977511D01*
X126850499Y-50926000D01*
X126850499Y-50674499D01*
X126870184Y-50607460D01*
X126922988Y-50561705D01*
X126974494Y-50550499D01*
X128097872Y-50550499D01*
X128157483Y-50544091D01*
X128292331Y-50493796D01*
X128407546Y-50407546D01*
X128420791Y-50389854D01*
X128431768Y-50375190D01*
X128487701Y-50333318D01*
X128531035Y-50325500D01*
X130668965Y-50325500D01*
X130736004Y-50345185D01*
X130768232Y-50375190D01*
X130792449Y-50407541D01*
X130792452Y-50407544D01*
X130792454Y-50407546D01*
X130821095Y-50428987D01*
X130907664Y-50493793D01*
X130907671Y-50493797D01*
X131042517Y-50544091D01*
X131042516Y-50544091D01*
X131048525Y-50544737D01*
X131102127Y-50550500D01*
X132247872Y-50550499D01*
X132307483Y-50544091D01*
X132442331Y-50493796D01*
X132557546Y-50407546D01*
X132643796Y-50292331D01*
X132694091Y-50157483D01*
X132700500Y-50097873D01*
X132700499Y-49352128D01*
X132694091Y-49292517D01*
X132687138Y-49273876D01*
X132643797Y-49157671D01*
X132643793Y-49157664D01*
X132557547Y-49042455D01*
X132557544Y-49042452D01*
X132442335Y-48956206D01*
X132442328Y-48956202D01*
X132307482Y-48905908D01*
X132307483Y-48905908D01*
X132247883Y-48899501D01*
X132247881Y-48899500D01*
X132247873Y-48899500D01*
X132247864Y-48899500D01*
X131102129Y-48899500D01*
X131102123Y-48899501D01*
X131042516Y-48905908D01*
X130907671Y-48956202D01*
X130907664Y-48956206D01*
X130792457Y-49042451D01*
X130792449Y-49042458D01*
X130768232Y-49074810D01*
X130712299Y-49116682D01*
X130668965Y-49124500D01*
X128531035Y-49124500D01*
X128463996Y-49104815D01*
X128431768Y-49074810D01*
X128407550Y-49042458D01*
X128407547Y-49042455D01*
X128407546Y-49042454D01*
X128376833Y-49019462D01*
X128292335Y-48956206D01*
X128292328Y-48956202D01*
X128157482Y-48905908D01*
X128157483Y-48905908D01*
X128097883Y-48899501D01*
X128097881Y-48899500D01*
X128097873Y-48899500D01*
X128097865Y-48899500D01*
X127600097Y-48899500D01*
X127533058Y-48879815D01*
X127512416Y-48863181D01*
X124811415Y-46162180D01*
X124777930Y-46100857D01*
X124782914Y-46031165D01*
X124824786Y-45975232D01*
X124890250Y-45950815D01*
X124899096Y-45950499D01*
X126797871Y-45950499D01*
X126797872Y-45950499D01*
X126857483Y-45944091D01*
X126992331Y-45893796D01*
X127107546Y-45807546D01*
X127193796Y-45692331D01*
X127244091Y-45557483D01*
X127250500Y-45497873D01*
X127250499Y-42402128D01*
X127244091Y-42342517D01*
X127197587Y-42217833D01*
X127192603Y-42148141D01*
X127226088Y-42086818D01*
X127287411Y-42053334D01*
X127313769Y-42050500D01*
X152436231Y-42050500D01*
X152503270Y-42070185D01*
G37*
%TD.AperFunction*%
%TA.AperFunction,Conductor*%
G36*
X111753270Y-42070185D02*
G01*
X111799025Y-42122989D01*
X111808969Y-42192147D01*
X111802413Y-42217833D01*
X111755908Y-42342517D01*
X111749501Y-42402116D01*
X111749501Y-42402123D01*
X111749500Y-42402135D01*
X111749500Y-45497870D01*
X111749501Y-45497876D01*
X111755908Y-45557483D01*
X111806202Y-45692328D01*
X111806206Y-45692335D01*
X111892452Y-45807544D01*
X111892455Y-45807547D01*
X112007664Y-45893793D01*
X112007671Y-45893797D01*
X112142517Y-45944091D01*
X112142516Y-45944091D01*
X112149444Y-45944835D01*
X112202127Y-45950500D01*
X113700902Y-45950499D01*
X113767941Y-45970184D01*
X113813696Y-46022987D01*
X113823640Y-46092146D01*
X113794615Y-46155702D01*
X113788583Y-46162180D01*
X111087582Y-48863181D01*
X111026259Y-48896666D01*
X110999901Y-48899500D01*
X110752130Y-48899500D01*
X110752123Y-48899501D01*
X110692516Y-48905908D01*
X110557671Y-48956202D01*
X110557664Y-48956206D01*
X110442457Y-49042451D01*
X110442449Y-49042458D01*
X110418232Y-49074810D01*
X110362299Y-49116682D01*
X110318965Y-49124500D01*
X108181035Y-49124500D01*
X108113996Y-49104815D01*
X108081768Y-49074810D01*
X108057550Y-49042458D01*
X108057547Y-49042455D01*
X108057546Y-49042454D01*
X108026833Y-49019462D01*
X107942335Y-48956206D01*
X107942328Y-48956202D01*
X107807482Y-48905908D01*
X107807483Y-48905908D01*
X107747883Y-48899501D01*
X107747881Y-48899500D01*
X107747873Y-48899500D01*
X107747864Y-48899500D01*
X106602129Y-48899500D01*
X106602123Y-48899501D01*
X106542516Y-48905908D01*
X106407671Y-48956202D01*
X106407664Y-48956206D01*
X106292455Y-49042452D01*
X106273766Y-49067418D01*
X106217832Y-49109288D01*
X106148140Y-49114272D01*
X106086818Y-49080786D01*
X106053333Y-49019462D01*
X106050500Y-48993106D01*
X106050500Y-42174500D01*
X106070185Y-42107461D01*
X106122989Y-42061706D01*
X106174500Y-42050500D01*
X111686231Y-42050500D01*
X111753270Y-42070185D01*
G37*
%TD.AperFunction*%
%TA.AperFunction,Conductor*%
G36*
X187447942Y-42070185D02*
G01*
X187493697Y-42122989D01*
X187503641Y-42192147D01*
X187474616Y-42255703D01*
X187468584Y-42262181D01*
X185563530Y-44167233D01*
X185502207Y-44200718D01*
X185443756Y-44199327D01*
X185315413Y-44164938D01*
X185315403Y-44164936D01*
X185080001Y-44144341D01*
X185079999Y-44144341D01*
X184844596Y-44164936D01*
X184844586Y-44164938D01*
X184616344Y-44226094D01*
X184616335Y-44226098D01*
X184402171Y-44325964D01*
X184402169Y-44325965D01*
X184208597Y-44461505D01*
X184041505Y-44628597D01*
X183911575Y-44814158D01*
X183856998Y-44857783D01*
X183787500Y-44864977D01*
X183725145Y-44833454D01*
X183708425Y-44814158D01*
X183578494Y-44628597D01*
X183411402Y-44461506D01*
X183411395Y-44461501D01*
X183217834Y-44325967D01*
X183217830Y-44325965D01*
X183155146Y-44296735D01*
X183003663Y-44226097D01*
X183003659Y-44226096D01*
X183003655Y-44226094D01*
X182775413Y-44164938D01*
X182775403Y-44164936D01*
X182540001Y-44144341D01*
X182539999Y-44144341D01*
X182304596Y-44164936D01*
X182304586Y-44164938D01*
X182076344Y-44226094D01*
X182076335Y-44226098D01*
X181862171Y-44325964D01*
X181862169Y-44325965D01*
X181668597Y-44461505D01*
X181501505Y-44628597D01*
X181371575Y-44814158D01*
X181316998Y-44857783D01*
X181247500Y-44864977D01*
X181185145Y-44833454D01*
X181168425Y-44814158D01*
X181038494Y-44628597D01*
X180871402Y-44461506D01*
X180871395Y-44461501D01*
X180677834Y-44325967D01*
X180677830Y-44325965D01*
X180615146Y-44296735D01*
X180463663Y-44226097D01*
X180463659Y-44226096D01*
X180463655Y-44226094D01*
X180235413Y-44164938D01*
X180235403Y-44164936D01*
X180000001Y-44144341D01*
X179999999Y-44144341D01*
X179764596Y-44164936D01*
X179764586Y-44164938D01*
X179536344Y-44226094D01*
X179536335Y-44226098D01*
X179322171Y-44325964D01*
X179322169Y-44325965D01*
X179128597Y-44461505D01*
X178961505Y-44628597D01*
X178831575Y-44814158D01*
X178776998Y-44857783D01*
X178707500Y-44864977D01*
X178645145Y-44833454D01*
X178628425Y-44814158D01*
X178498494Y-44628597D01*
X178331402Y-44461506D01*
X178331395Y-44461501D01*
X178137834Y-44325967D01*
X178137830Y-44325965D01*
X178075146Y-44296735D01*
X177923663Y-44226097D01*
X177923659Y-44226096D01*
X177923655Y-44226094D01*
X177695413Y-44164938D01*
X177695403Y-44164936D01*
X177460001Y-44144341D01*
X177459999Y-44144341D01*
X177224596Y-44164936D01*
X177224586Y-44164938D01*
X176996344Y-44226094D01*
X176996335Y-44226098D01*
X176782171Y-44325964D01*
X176782169Y-44325965D01*
X176588597Y-44461505D01*
X176421503Y-44628599D01*
X176420349Y-44629975D01*
X176419688Y-44630414D01*
X176417676Y-44632427D01*
X176417271Y-44632022D01*
X176362173Y-44668671D01*
X176292312Y-44669772D01*
X176232946Y-44632928D01*
X176207663Y-44589265D01*
X176204814Y-44580666D01*
X176112712Y-44431344D01*
X175988656Y-44307288D01*
X175866803Y-44232129D01*
X175839336Y-44215187D01*
X175839331Y-44215185D01*
X175837862Y-44214698D01*
X175672797Y-44160001D01*
X175672795Y-44160000D01*
X175570010Y-44149500D01*
X174269998Y-44149500D01*
X174269981Y-44149501D01*
X174167203Y-44160000D01*
X174167200Y-44160001D01*
X174000668Y-44215185D01*
X174000663Y-44215187D01*
X173851342Y-44307289D01*
X173727289Y-44431342D01*
X173635187Y-44580663D01*
X173635185Y-44580668D01*
X173618701Y-44630414D01*
X173580001Y-44747203D01*
X173580001Y-44747204D01*
X173580000Y-44747204D01*
X173569500Y-44849983D01*
X173569500Y-45808480D01*
X173549815Y-45875519D01*
X173533181Y-45896161D01*
X173125888Y-46303453D01*
X173125887Y-46303454D01*
X173049222Y-46418192D01*
X172996421Y-46545667D01*
X172996418Y-46545679D01*
X172974034Y-46658213D01*
X172974034Y-46658217D01*
X172969500Y-46681007D01*
X172969500Y-48775500D01*
X172949815Y-48842539D01*
X172897011Y-48888294D01*
X172845500Y-48899500D01*
X171802129Y-48899500D01*
X171802123Y-48899501D01*
X171742516Y-48905908D01*
X171607671Y-48956202D01*
X171607664Y-48956206D01*
X171492457Y-49042451D01*
X171492449Y-49042458D01*
X171468232Y-49074810D01*
X171412299Y-49116682D01*
X171368965Y-49124500D01*
X169231035Y-49124500D01*
X169163996Y-49104815D01*
X169131768Y-49074810D01*
X169107550Y-49042458D01*
X169107547Y-49042455D01*
X169107546Y-49042454D01*
X169076833Y-49019462D01*
X168992335Y-48956206D01*
X168992328Y-48956202D01*
X168857482Y-48905908D01*
X168857483Y-48905908D01*
X168797883Y-48899501D01*
X168797881Y-48899500D01*
X168797873Y-48899500D01*
X168797865Y-48899500D01*
X168300097Y-48899500D01*
X168233058Y-48879815D01*
X168212416Y-48863181D01*
X165511415Y-46162180D01*
X165477930Y-46100857D01*
X165482914Y-46031165D01*
X165524786Y-45975232D01*
X165590250Y-45950815D01*
X165599096Y-45950499D01*
X167547871Y-45950499D01*
X167547872Y-45950499D01*
X167607483Y-45944091D01*
X167742331Y-45893796D01*
X167857546Y-45807546D01*
X167943796Y-45692331D01*
X167994091Y-45557483D01*
X168000500Y-45497873D01*
X168000499Y-43499996D01*
X169194435Y-43499996D01*
X169194435Y-43500003D01*
X169214630Y-43679249D01*
X169214631Y-43679254D01*
X169274211Y-43849523D01*
X169370184Y-44002262D01*
X169497738Y-44129816D01*
X169557287Y-44167233D01*
X169637852Y-44217856D01*
X169650478Y-44225789D01*
X169773385Y-44268796D01*
X169820745Y-44285368D01*
X169820750Y-44285369D01*
X169999996Y-44305565D01*
X170000000Y-44305565D01*
X170000004Y-44305565D01*
X170179249Y-44285369D01*
X170179252Y-44285368D01*
X170179255Y-44285368D01*
X170349522Y-44225789D01*
X170502262Y-44129816D01*
X170629816Y-44002262D01*
X170725789Y-43849522D01*
X170785368Y-43679255D01*
X170785369Y-43679249D01*
X170805565Y-43500003D01*
X170805565Y-43499996D01*
X170785369Y-43320750D01*
X170785368Y-43320745D01*
X170743880Y-43202179D01*
X170725789Y-43150478D01*
X170629816Y-42997738D01*
X170502262Y-42870184D01*
X170427152Y-42822989D01*
X170349523Y-42774211D01*
X170179254Y-42714631D01*
X170179249Y-42714630D01*
X170000004Y-42694435D01*
X169999996Y-42694435D01*
X169820750Y-42714630D01*
X169820745Y-42714631D01*
X169650476Y-42774211D01*
X169497737Y-42870184D01*
X169370184Y-42997737D01*
X169274211Y-43150476D01*
X169214631Y-43320745D01*
X169214630Y-43320750D01*
X169194435Y-43499996D01*
X168000499Y-43499996D01*
X168000499Y-42402128D01*
X167994091Y-42342517D01*
X167947587Y-42217833D01*
X167942603Y-42148141D01*
X167976088Y-42086818D01*
X168037411Y-42053334D01*
X168063769Y-42050500D01*
X187380903Y-42050500D01*
X187447942Y-42070185D01*
G37*
%TD.AperFunction*%
%TA.AperFunction,Conductor*%
G36*
X189150830Y-42770185D02*
G01*
X189196585Y-42822989D01*
X189207011Y-42888384D01*
X189194435Y-42999997D01*
X189194435Y-43000003D01*
X189214630Y-43179249D01*
X189214631Y-43179254D01*
X189274211Y-43349523D01*
X189365542Y-43494875D01*
X189370184Y-43502262D01*
X189497738Y-43629816D01*
X189650478Y-43725789D01*
X189739694Y-43757007D01*
X189820745Y-43785368D01*
X189820750Y-43785369D01*
X189999996Y-43805565D01*
X190000000Y-43805565D01*
X190000004Y-43805565D01*
X190179249Y-43785369D01*
X190179252Y-43785368D01*
X190179255Y-43785368D01*
X190349522Y-43725789D01*
X190502262Y-43629816D01*
X190629816Y-43502262D01*
X190725789Y-43349522D01*
X190785368Y-43179255D01*
X190785369Y-43179249D01*
X190805565Y-43000003D01*
X190805565Y-42999997D01*
X190792989Y-42888384D01*
X190805043Y-42819562D01*
X190852392Y-42768182D01*
X190916209Y-42750500D01*
X193125500Y-42750500D01*
X193192539Y-42770185D01*
X193238294Y-42822989D01*
X193249500Y-42874500D01*
X193249500Y-45497870D01*
X193249501Y-45497876D01*
X193255908Y-45557483D01*
X193306202Y-45692328D01*
X193306206Y-45692335D01*
X193392452Y-45807544D01*
X193392455Y-45807547D01*
X193507664Y-45893793D01*
X193507671Y-45893797D01*
X193642517Y-45944091D01*
X193642516Y-45944091D01*
X193649444Y-45944835D01*
X193702127Y-45950500D01*
X195350902Y-45950499D01*
X195417941Y-45970184D01*
X195463696Y-46022987D01*
X195473640Y-46092146D01*
X195444615Y-46155702D01*
X195438583Y-46162180D01*
X192737582Y-48863181D01*
X192676259Y-48896666D01*
X192649901Y-48899500D01*
X192152129Y-48899500D01*
X192152123Y-48899501D01*
X192092516Y-48905908D01*
X191957671Y-48956202D01*
X191957664Y-48956206D01*
X191842457Y-49042451D01*
X191842449Y-49042458D01*
X191818232Y-49074810D01*
X191762299Y-49116682D01*
X191718965Y-49124500D01*
X189581035Y-49124500D01*
X189513996Y-49104815D01*
X189481768Y-49074810D01*
X189457550Y-49042458D01*
X189457547Y-49042455D01*
X189457546Y-49042454D01*
X189426833Y-49019462D01*
X189342335Y-48956206D01*
X189342328Y-48956202D01*
X189207482Y-48905908D01*
X189207483Y-48905908D01*
X189147883Y-48899501D01*
X189147881Y-48899500D01*
X189147873Y-48899500D01*
X189147865Y-48899500D01*
X188650097Y-48899500D01*
X188583058Y-48879815D01*
X188562416Y-48863181D01*
X186227590Y-46528355D01*
X186227588Y-46528352D01*
X186172358Y-46473122D01*
X186138873Y-46411799D01*
X186143857Y-46342107D01*
X186158462Y-46314320D01*
X186254035Y-46177830D01*
X186353903Y-45963663D01*
X186415063Y-45735408D01*
X186435659Y-45500000D01*
X186415063Y-45264592D01*
X186380671Y-45136239D01*
X186382334Y-45066393D01*
X186412763Y-45016470D01*
X188642416Y-42786819D01*
X188703739Y-42753334D01*
X188730097Y-42750500D01*
X189083791Y-42750500D01*
X189150830Y-42770185D01*
G37*
%TD.AperFunction*%
%TA.AperFunction,Conductor*%
G36*
X208955702Y-43405383D02*
G01*
X208962180Y-43411415D01*
X213263181Y-47712416D01*
X213296666Y-47773739D01*
X213299500Y-47800097D01*
X213299500Y-48775500D01*
X213279815Y-48842539D01*
X213227011Y-48888294D01*
X213175500Y-48899500D01*
X212502129Y-48899500D01*
X212502123Y-48899501D01*
X212442516Y-48905908D01*
X212307671Y-48956202D01*
X212307664Y-48956206D01*
X212192457Y-49042451D01*
X212192449Y-49042458D01*
X212168232Y-49074810D01*
X212112299Y-49116682D01*
X212068965Y-49124500D01*
X209931035Y-49124500D01*
X209863996Y-49104815D01*
X209831768Y-49074810D01*
X209807550Y-49042458D01*
X209807547Y-49042455D01*
X209807546Y-49042454D01*
X209776833Y-49019462D01*
X209692335Y-48956206D01*
X209692328Y-48956202D01*
X209557482Y-48905908D01*
X209557483Y-48905908D01*
X209497883Y-48899501D01*
X209497881Y-48899500D01*
X209497873Y-48899500D01*
X209497865Y-48899500D01*
X209000098Y-48899500D01*
X208933059Y-48879815D01*
X208912417Y-48863181D01*
X206211416Y-46162180D01*
X206177931Y-46100857D01*
X206182915Y-46031165D01*
X206224787Y-45975232D01*
X206290251Y-45950815D01*
X206299097Y-45950499D01*
X208297871Y-45950499D01*
X208297872Y-45950499D01*
X208357483Y-45944091D01*
X208492331Y-45893796D01*
X208607546Y-45807546D01*
X208693796Y-45692331D01*
X208744091Y-45557483D01*
X208750500Y-45497873D01*
X208750499Y-43499095D01*
X208770184Y-43432057D01*
X208822987Y-43386302D01*
X208892146Y-43376358D01*
X208955702Y-43405383D01*
G37*
%TD.AperFunction*%
%TA.AperFunction,Conductor*%
G36*
X214534939Y-42070185D02*
G01*
X214580694Y-42122989D01*
X214591900Y-42174500D01*
X214591900Y-47043302D01*
X214572215Y-47110341D01*
X214519411Y-47156096D01*
X214450253Y-47166040D01*
X214386697Y-47137015D01*
X214380219Y-47130983D01*
X211949501Y-44700265D01*
X209511415Y-42262180D01*
X209477931Y-42200858D01*
X209482915Y-42131166D01*
X209524787Y-42075233D01*
X209590251Y-42050816D01*
X209599097Y-42050500D01*
X214467900Y-42050500D01*
X214534939Y-42070185D01*
G37*
%TD.AperFunction*%
%TA.AperFunction,Conductor*%
G36*
X159325965Y-42070185D02*
G01*
X159371720Y-42122989D01*
X159382688Y-42182184D01*
X159379943Y-42226389D01*
X160120591Y-42967037D01*
X160057007Y-42984075D01*
X159942993Y-43049901D01*
X159849901Y-43142993D01*
X159784075Y-43257007D01*
X159767037Y-43320591D01*
X159017369Y-42570923D01*
X158983885Y-42564752D01*
X158942873Y-42528053D01*
X158941317Y-42529265D01*
X158938169Y-42525220D01*
X158897265Y-42480787D01*
X158769744Y-42342262D01*
X158769739Y-42342258D01*
X158769737Y-42342256D01*
X158679926Y-42272353D01*
X158639113Y-42215643D01*
X158635438Y-42145870D01*
X158670070Y-42085187D01*
X158732011Y-42052860D01*
X158756088Y-42050500D01*
X159258926Y-42050500D01*
X159325965Y-42070185D01*
G37*
%TD.AperFunction*%
%TD*%
%TA.AperFunction,NonConductor*%
G36*
X118575965Y-42070185D02*
G01*
X118621720Y-42122989D01*
X118632688Y-42182184D01*
X118629943Y-42226389D01*
X119370591Y-42967037D01*
X119307007Y-42984075D01*
X119192993Y-43049901D01*
X119099901Y-43142993D01*
X119034075Y-43257007D01*
X119017037Y-43320590D01*
X118267369Y-42570923D01*
X118233885Y-42564752D01*
X118192873Y-42528053D01*
X118191317Y-42529265D01*
X118188169Y-42525220D01*
X118147265Y-42480787D01*
X118019744Y-42342262D01*
X118019739Y-42342258D01*
X118019737Y-42342256D01*
X117929926Y-42272353D01*
X117889113Y-42215643D01*
X117885438Y-42145870D01*
X117920070Y-42085187D01*
X117982011Y-42052860D01*
X118006088Y-42050500D01*
X118508926Y-42050500D01*
X118575965Y-42070185D01*
G37*
%TD.AperFunction*%
M02*
