M48
; DRILL file {KiCad 8.0.8} date 2025-04-07T15:23:33+0200
; FORMAT={-:-/ absolute / inch / decimal}
; #@! TF.CreationDate,2025-04-07T15:23:33+02:00
; #@! TF.GenerationSoftware,Kicad,Pcbnew,8.0.8
; #@! TF.FileFunction,Plated,1,2,PTH
FMAT,2
INCH
; #@! TA.AperFunction,Plated,PTH,ViaDrill
T1C0.0118
; #@! TA.AperFunction,Plated,PTH,ComponentDrill
T2C0.0394
; #@! TA.AperFunction,Plated,PTH,ComponentDrill
T3C0.0787
%
G90
G05
T1
X4.2323Y-1.6929
X4.2913Y-2.126
X6.6929Y-1.7126
X6.8307Y-2.2423
X6.8701Y-1.9882
X7.4803Y-1.6929
X7.5Y-1.8898
X8.3661Y-1.7126
T2
X4.6063Y-1.7106
X4.7047Y-1.7106
X4.8031Y-1.7106
X6.2106Y-1.7106
X6.3091Y-1.7106
X6.4075Y-1.7106
X6.8866Y-1.7913
X6.8866Y-1.8913
X6.9866Y-1.7913
X6.9866Y-1.8913
X7.0866Y-1.7913
X7.0866Y-1.8913
X7.1866Y-1.7913
X7.1866Y-1.8913
X7.2866Y-1.7913
X7.2866Y-1.8913
X7.815Y-1.7106
X7.9134Y-1.7106
X8.0118Y-1.7106
T3
G00X4.4685Y-1.7205
M15
G01X4.4685Y-1.7402
M16
G05
G00X4.4843Y-1.9961
M15
G01X4.4843Y-2.0157
M16
G05
G00X4.9252Y-1.9961
M15
G01X4.9252Y-2.0157
M16
G05
G00X4.9409Y-1.7205
M15
G01X4.9409Y-1.7402
M16
G05
G00X6.0728Y-1.7205
M15
G01X6.0728Y-1.7402
M16
G05
G00X6.0886Y-1.9961
M15
G01X6.0886Y-2.0157
M16
G05
G00X6.5295Y-1.9961
M15
G01X6.5295Y-2.0157
M16
G05
G00X6.5453Y-1.7205
M15
G01X6.5453Y-1.7402
M16
G05
G00X7.6772Y-1.7205
M15
G01X7.6772Y-1.7402
M16
G05
G00X7.6929Y-1.9961
M15
G01X7.6929Y-2.0157
M16
G05
G00X8.1339Y-1.9961
M15
G01X8.1339Y-2.0157
M16
G05
G00X8.1496Y-1.7205
M15
G01X8.1496Y-1.7402
M16
G05
M30
