%TF.GenerationSoftware,KiCad,Pcbnew,8.0.8*%
%TF.CreationDate,2025-04-07T15:23:35+02:00*%
%TF.ProjectId,tv25-btn+Rot,74763235-2d62-4746-9e2b-526f742e6b69,rev?*%
%TF.SameCoordinates,Original*%
%TF.FileFunction,Paste,Top*%
%TF.FilePolarity,Positive*%
%FSLAX46Y46*%
G04 Gerber Fmt 4.6, Leading zero omitted, Abs format (unit mm)*
G04 Created by KiCad (PCBNEW 8.0.8) date 2025-04-07 15:23:35*
%MOMM*%
%LPD*%
G01*
G04 APERTURE LIST*
G04 Aperture macros list*
%AMRoundRect*
0 Rectangle with rounded corners*
0 $1 Rounding radius*
0 $2 $3 $4 $5 $6 $7 $8 $9 X,Y pos of 4 corners*
0 Add a 4 corners polygon primitive as box body*
4,1,4,$2,$3,$4,$5,$6,$7,$8,$9,$2,$3,0*
0 Add four circle primitives for the rounded corners*
1,1,$1+$1,$2,$3*
1,1,$1+$1,$4,$5*
1,1,$1+$1,$6,$7*
1,1,$1+$1,$8,$9*
0 Add four rect primitives between the rounded corners*
20,1,$1+$1,$2,$3,$4,$5,0*
20,1,$1+$1,$4,$5,$6,$7,0*
20,1,$1+$1,$6,$7,$8,$9,0*
20,1,$1+$1,$8,$9,$2,$3,0*%
G04 Aperture macros list end*
%ADD10R,1.050000X0.650000*%
%ADD11RoundRect,0.225000X0.250000X-0.225000X0.250000X0.225000X-0.250000X0.225000X-0.250000X-0.225000X0*%
%ADD12R,1.600000X0.850000*%
G04 APERTURE END LIST*
D10*
%TO.C,SW3*%
X147875000Y-49725000D03*
X152025000Y-49725000D03*
X147875000Y-51875000D03*
X152025000Y-51875000D03*
%TD*%
%TO.C,SW1*%
X107175000Y-49725000D03*
X111325000Y-49725000D03*
X107175000Y-51875000D03*
X111325000Y-51875000D03*
%TD*%
%TO.C,SW6*%
X208925000Y-49725000D03*
X213075000Y-49725000D03*
X208925000Y-51875000D03*
X213075000Y-51875000D03*
%TD*%
%TO.C,SW5*%
X188575000Y-49725000D03*
X192725000Y-49725000D03*
X188575000Y-51875000D03*
X192725000Y-51875000D03*
%TD*%
%TO.C,SW4*%
X168225000Y-49725000D03*
X172375000Y-49725000D03*
X168225000Y-51875000D03*
X172375000Y-51875000D03*
%TD*%
D11*
%TO.C,C1*%
X133500000Y-55880000D03*
X133500000Y-54330000D03*
%TD*%
D12*
%TO.C,D5*%
X192400000Y-55880000D03*
X192400000Y-54130000D03*
X188900000Y-54130000D03*
X188900000Y-55880000D03*
%TD*%
%TO.C,D4*%
X172050000Y-55880000D03*
X172050000Y-54130000D03*
X168550000Y-54130000D03*
X168550000Y-55880000D03*
%TD*%
%TO.C,D3*%
X151700000Y-55880000D03*
X151700000Y-54130000D03*
X148200000Y-54130000D03*
X148200000Y-55880000D03*
%TD*%
%TO.C,D1*%
X111000000Y-55880000D03*
X111000000Y-54130000D03*
X107500000Y-54130000D03*
X107500000Y-55880000D03*
%TD*%
%TO.C,D6*%
X212750000Y-56000000D03*
X212750000Y-54250000D03*
X209250000Y-54250000D03*
X209250000Y-56000000D03*
%TD*%
D11*
%TO.C,C2*%
X174500000Y-55880000D03*
X174500000Y-54330000D03*
%TD*%
D10*
%TO.C,SW2*%
X127525000Y-49725000D03*
X131675000Y-49725000D03*
X127525000Y-51875000D03*
X131675000Y-51875000D03*
%TD*%
D12*
%TO.C,D2*%
X131350000Y-55880000D03*
X131350000Y-54130000D03*
X127850000Y-54130000D03*
X127850000Y-55880000D03*
%TD*%
M02*
