%TF.GenerationSoftware,KiCad,Pcbnew,8.0.8*%
%TF.CreationDate,2025-04-07T15:23:35+02:00*%
%TF.ProjectId,tv25-btn+Rot,74763235-2d62-4746-9e2b-526f742e6b69,rev?*%
%TF.SameCoordinates,Original*%
%TF.FileFunction,Legend,Bot*%
%TF.FilePolarity,Positive*%
%FSLAX46Y46*%
G04 Gerber Fmt 4.6, Leading zero omitted, Abs format (unit mm)*
G04 Created by KiCad (PCBNEW 8.0.8) date 2025-04-07 15:23:35*
%MOMM*%
%LPD*%
G01*
G04 APERTURE LIST*
%ADD10C,0.150000*%
%ADD11C,0.120000*%
G04 APERTURE END LIST*
D10*
X168274819Y-46436666D02*
X168989104Y-46436666D01*
X168989104Y-46436666D02*
X169131961Y-46389047D01*
X169131961Y-46389047D02*
X169227200Y-46293809D01*
X169227200Y-46293809D02*
X169274819Y-46150952D01*
X169274819Y-46150952D02*
X169274819Y-46055714D01*
X169274819Y-47436666D02*
X169274819Y-46865238D01*
X169274819Y-47150952D02*
X168274819Y-47150952D01*
X168274819Y-47150952D02*
X168417676Y-47055714D01*
X168417676Y-47055714D02*
X168512914Y-46960476D01*
X168512914Y-46960476D02*
X168560533Y-46865238D01*
D11*
%TO.C,J1*%
X169710000Y-42210000D02*
X190290000Y-42210000D01*
X169710000Y-51330000D02*
X169710000Y-42210000D01*
X171010000Y-43520000D02*
X177950000Y-43520000D01*
X171010000Y-50020000D02*
X171010000Y-43520000D01*
X174420000Y-40820000D02*
X174920000Y-41820000D01*
X174920000Y-41820000D02*
X175420000Y-40820000D01*
X175420000Y-40820000D02*
X174420000Y-40820000D01*
X177950000Y-43520000D02*
X177950000Y-42210000D01*
X182050000Y-42210000D02*
X182050000Y-43520000D01*
X182050000Y-43520000D02*
X182050000Y-43520000D01*
X182050000Y-43520000D02*
X188990000Y-43520000D01*
X188990000Y-43520000D02*
X188990000Y-50020000D01*
X188990000Y-50020000D02*
X171010000Y-50020000D01*
X190290000Y-42210000D02*
X190290000Y-51330000D01*
X190290000Y-51330000D02*
X169710000Y-51330000D01*
%TD*%
M02*
