%TF.GenerationSoftware,KiCad,Pcbnew,8.0.8*%
%TF.CreationDate,2025-04-07T15:23:35+02:00*%
%TF.ProjectId,tv25-btn+Rot,74763235-2d62-4746-9e2b-526f742e6b69,rev?*%
%TF.SameCoordinates,Original*%
%TF.FileFunction,Copper,L2,Bot*%
%TF.FilePolarity,Positive*%
%FSLAX46Y46*%
G04 Gerber Fmt 4.6, Leading zero omitted, Abs format (unit mm)*
G04 Created by KiCad (PCBNEW 8.0.8) date 2025-04-07 15:23:35*
%MOMM*%
%LPD*%
G01*
G04 APERTURE LIST*
G04 Aperture macros list*
%AMRoundRect*
0 Rectangle with rounded corners*
0 $1 Rounding radius*
0 $2 $3 $4 $5 $6 $7 $8 $9 X,Y pos of 4 corners*
0 Add a 4 corners polygon primitive as box body*
4,1,4,$2,$3,$4,$5,$6,$7,$8,$9,$2,$3,0*
0 Add four circle primitives for the rounded corners*
1,1,$1+$1,$2,$3*
1,1,$1+$1,$4,$5*
1,1,$1+$1,$6,$7*
1,1,$1+$1,$8,$9*
0 Add four rect primitives between the rounded corners*
20,1,$1+$1,$2,$3,$4,$5,0*
20,1,$1+$1,$4,$5,$6,$7,0*
20,1,$1+$1,$6,$7,$8,$9,0*
20,1,$1+$1,$8,$9,$2,$3,0*%
G04 Aperture macros list end*
%TA.AperFunction,ComponentPad*%
%ADD10R,2.500000X3.000000*%
%TD*%
%TA.AperFunction,ComponentPad*%
%ADD11R,2.000000X2.000000*%
%TD*%
%TA.AperFunction,ComponentPad*%
%ADD12C,2.000000*%
%TD*%
%TA.AperFunction,ComponentPad*%
%ADD13RoundRect,0.250000X-0.600000X0.600000X-0.600000X-0.600000X0.600000X-0.600000X0.600000X0.600000X0*%
%TD*%
%TA.AperFunction,ComponentPad*%
%ADD14C,1.700000*%
%TD*%
%TA.AperFunction,ViaPad*%
%ADD15C,0.600000*%
%TD*%
%TA.AperFunction,Conductor*%
%ADD16C,0.400000*%
%TD*%
%TA.AperFunction,Conductor*%
%ADD17C,0.200000*%
%TD*%
G04 APERTURE END LIST*
D10*
%TO.P,SW9,*%
%TO.N,*%
X166250000Y-43950000D03*
X154250000Y-43950000D03*
X165850000Y-50950000D03*
X154650000Y-50950000D03*
D11*
%TO.P,SW9,A,A*%
%TO.N,Net-(J1-Pin_6)*%
X162750000Y-43450000D03*
D12*
%TO.P,SW9,B,B*%
%TO.N,Net-(J1-Pin_5)*%
X157750000Y-43450000D03*
%TO.P,SW9,C,C*%
%TO.N,GND*%
X160250000Y-43450000D03*
%TD*%
D10*
%TO.P,SW7,*%
%TO.N,*%
X207000000Y-43950000D03*
X195000000Y-43950000D03*
X206600000Y-50950000D03*
X195400000Y-50950000D03*
D11*
%TO.P,SW7,A,A*%
%TO.N,Net-(J1-Pin_8)*%
X203500000Y-43450000D03*
D12*
%TO.P,SW7,B,B*%
%TO.N,Net-(J1-Pin_7)*%
X198500000Y-43450000D03*
%TO.P,SW7,C,C*%
%TO.N,GND*%
X201000000Y-43450000D03*
%TD*%
D10*
%TO.P,SW8,*%
%TO.N,*%
X125500000Y-43950000D03*
X113500000Y-43950000D03*
X125100000Y-50950000D03*
X113900000Y-50950000D03*
D11*
%TO.P,SW8,A,A*%
%TO.N,Net-(J1-Pin_4)*%
X122000000Y-43450000D03*
D12*
%TO.P,SW8,B,B*%
%TO.N,Net-(J1-Pin_3)*%
X117000000Y-43450000D03*
%TO.P,SW8,C,C*%
%TO.N,GND*%
X119500000Y-43450000D03*
%TD*%
D13*
%TO.P,J1,1,Pin_1*%
%TO.N,+3V3*%
X174920000Y-45500000D03*
D14*
%TO.P,J1,2,Pin_2*%
%TO.N,Net-(D1-DIN)*%
X174920000Y-48040000D03*
%TO.P,J1,3,Pin_3*%
%TO.N,Net-(J1-Pin_3)*%
X177460000Y-45500000D03*
%TO.P,J1,4,Pin_4*%
%TO.N,Net-(J1-Pin_4)*%
X177460000Y-48040000D03*
%TO.P,J1,5,Pin_5*%
%TO.N,Net-(J1-Pin_5)*%
X180000000Y-45500000D03*
%TO.P,J1,6,Pin_6*%
%TO.N,Net-(J1-Pin_6)*%
X180000000Y-48040000D03*
%TO.P,J1,7,Pin_7*%
%TO.N,Net-(J1-Pin_7)*%
X182540000Y-45500000D03*
%TO.P,J1,8,Pin_8*%
%TO.N,Net-(J1-Pin_8)*%
X182540000Y-48040000D03*
%TO.P,J1,9,Pin_9*%
%TO.N,Net-(D6-DOUT)*%
X185080000Y-45500000D03*
%TO.P,J1,10,Pin_10*%
%TO.N,GND*%
X185080000Y-48040000D03*
%TD*%
D15*
%TO.N,*%
X190000000Y-43000000D03*
%TO.N,GND*%
X190500000Y-48000000D03*
%TO.N,*%
X170000000Y-43500000D03*
%TO.N,GND*%
X212500000Y-43500000D03*
X107500000Y-43000000D03*
%TO.N,+3V3*%
X174500000Y-50499998D03*
X173500000Y-56954000D03*
%TO.N,Net-(D1-DIN)*%
X109000000Y-54000000D03*
%TD*%
D16*
%TO.N,+3V3*%
X173500000Y-51499998D02*
X174500000Y-50499998D01*
X173500000Y-56954000D02*
X173500000Y-51499998D01*
D17*
%TO.N,Net-(J1-Pin_4)*%
X178610000Y-45023654D02*
X178610000Y-46890000D01*
X124590000Y-47240000D02*
X171195256Y-47240000D01*
%TO.N,Net-(J1-Pin_3)*%
X121190000Y-47640000D02*
X171360942Y-47640000D01*
%TO.N,Net-(J1-Pin_4)*%
X122000000Y-44650000D02*
X124590000Y-47240000D01*
%TO.N,Net-(J1-Pin_3)*%
X171360942Y-47640000D02*
X172350942Y-46650000D01*
%TO.N,Net-(J1-Pin_4)*%
X122000000Y-43450000D02*
X122000000Y-44650000D01*
X174085256Y-44350000D02*
X177936346Y-44350000D01*
%TO.N,Net-(J1-Pin_3)*%
X176310000Y-46650000D02*
X177460000Y-45500000D01*
%TO.N,Net-(D1-DIN)*%
X109000000Y-48580000D02*
X109000000Y-54000000D01*
X174920000Y-48040000D02*
X108460000Y-48040000D01*
%TO.N,Net-(J1-Pin_3)*%
X172350942Y-46650000D02*
X176310000Y-46650000D01*
X117000000Y-43450000D02*
X121190000Y-47640000D01*
%TO.N,Net-(J1-Pin_4)*%
X171195256Y-47240000D02*
X174085256Y-44350000D01*
X177936346Y-44350000D02*
X178610000Y-45023654D01*
X178610000Y-46890000D02*
X177460000Y-48040000D01*
%TO.N,Net-(D1-DIN)*%
X108460000Y-48040000D02*
X109000000Y-48580000D01*
%TO.N,Net-(J1-Pin_8)*%
X203500000Y-43450000D02*
X200300000Y-46650000D01*
X200300000Y-46650000D02*
X183930000Y-46650000D01*
X183930000Y-46650000D02*
X182540000Y-48040000D01*
%TO.N,Net-(J1-Pin_5)*%
X157750000Y-43450000D02*
X160050000Y-45750000D01*
X173550000Y-43950000D02*
X178450000Y-43950000D01*
X160050000Y-45750000D02*
X171750000Y-45750000D01*
X171750000Y-45750000D02*
X173550000Y-43950000D01*
X178450000Y-43950000D02*
X180000000Y-45500000D01*
%TD*%
%TA.AperFunction,Conductor*%
%TO.N,GND*%
G36*
X111753270Y-42070185D02*
G01*
X111799025Y-42122989D01*
X111808969Y-42192147D01*
X111802413Y-42217833D01*
X111755908Y-42342517D01*
X111752934Y-42370184D01*
X111749501Y-42402123D01*
X111749500Y-42402135D01*
X111749500Y-45497870D01*
X111749501Y-45497876D01*
X111755908Y-45557483D01*
X111806202Y-45692328D01*
X111806206Y-45692335D01*
X111892452Y-45807544D01*
X111892455Y-45807547D01*
X112007664Y-45893793D01*
X112007671Y-45893797D01*
X112142517Y-45944091D01*
X112142516Y-45944091D01*
X112149444Y-45944835D01*
X112202127Y-45950500D01*
X114797872Y-45950499D01*
X114857483Y-45944091D01*
X114992331Y-45893796D01*
X115107546Y-45807546D01*
X115193796Y-45692331D01*
X115244091Y-45557483D01*
X115250500Y-45497873D01*
X115250499Y-43505117D01*
X115267528Y-43447123D01*
X115253043Y-43419870D01*
X115250499Y-43394880D01*
X115250499Y-42402129D01*
X115250498Y-42402123D01*
X115250497Y-42402116D01*
X115244091Y-42342517D01*
X115197587Y-42217833D01*
X115192603Y-42148141D01*
X115226088Y-42086818D01*
X115287411Y-42053334D01*
X115313769Y-42050500D01*
X115993912Y-42050500D01*
X116060951Y-42070185D01*
X116106706Y-42122989D01*
X116116650Y-42192147D01*
X116087625Y-42255703D01*
X116070074Y-42272353D01*
X115980262Y-42342256D01*
X115980259Y-42342259D01*
X115811833Y-42525217D01*
X115675826Y-42733393D01*
X115575936Y-42961118D01*
X115514892Y-43202175D01*
X115514890Y-43202187D01*
X115498075Y-43405120D01*
X115480662Y-43450245D01*
X115493476Y-43470184D01*
X115498075Y-43494879D01*
X115514890Y-43697812D01*
X115514892Y-43697824D01*
X115575936Y-43938881D01*
X115675826Y-44166606D01*
X115811833Y-44374782D01*
X115811836Y-44374785D01*
X115980256Y-44557738D01*
X116176491Y-44710474D01*
X116176493Y-44710475D01*
X116394332Y-44828364D01*
X116395190Y-44828828D01*
X116515216Y-44870033D01*
X116628964Y-44909083D01*
X116630386Y-44909571D01*
X116875665Y-44950500D01*
X117124335Y-44950500D01*
X117369608Y-44909572D01*
X117369607Y-44909572D01*
X117369614Y-44909571D01*
X117475607Y-44873182D01*
X117545402Y-44870033D01*
X117603548Y-44902783D01*
X119928584Y-47227819D01*
X119962069Y-47289142D01*
X119957085Y-47358834D01*
X119915213Y-47414767D01*
X119849749Y-47439184D01*
X119840903Y-47439500D01*
X108546669Y-47439500D01*
X108546653Y-47439499D01*
X108539057Y-47439499D01*
X108380943Y-47439499D01*
X108273587Y-47468265D01*
X108228210Y-47480424D01*
X108228209Y-47480425D01*
X108178096Y-47509359D01*
X108178095Y-47509360D01*
X108134689Y-47534420D01*
X108091285Y-47559479D01*
X108091282Y-47559481D01*
X107979479Y-47671284D01*
X107959499Y-47705891D01*
X107951054Y-47720520D01*
X107900423Y-47808215D01*
X107859499Y-47960943D01*
X107859499Y-47960945D01*
X107859499Y-48119054D01*
X107859498Y-48119054D01*
X107900423Y-48271785D01*
X107900424Y-48271788D01*
X107902515Y-48275409D01*
X107902518Y-48275414D01*
X107979477Y-48408712D01*
X107979481Y-48408717D01*
X108098349Y-48527585D01*
X108098355Y-48527590D01*
X108363181Y-48792416D01*
X108396666Y-48853739D01*
X108399500Y-48880097D01*
X108399500Y-53417587D01*
X108379815Y-53484626D01*
X108372450Y-53494896D01*
X108370186Y-53497734D01*
X108274211Y-53650476D01*
X108214631Y-53820745D01*
X108214630Y-53820750D01*
X108194435Y-53999996D01*
X108194435Y-54000003D01*
X108214630Y-54179249D01*
X108214631Y-54179254D01*
X108274211Y-54349523D01*
X108292552Y-54378712D01*
X108370184Y-54502262D01*
X108497738Y-54629816D01*
X108650478Y-54725789D01*
X108820745Y-54785368D01*
X108820750Y-54785369D01*
X108999996Y-54805565D01*
X109000000Y-54805565D01*
X109000004Y-54805565D01*
X109179249Y-54785369D01*
X109179252Y-54785368D01*
X109179255Y-54785368D01*
X109349522Y-54725789D01*
X109502262Y-54629816D01*
X109629816Y-54502262D01*
X109707448Y-54378711D01*
X138149500Y-54378711D01*
X138149500Y-54621288D01*
X138181161Y-54861785D01*
X138243947Y-55096104D01*
X138336773Y-55320205D01*
X138336776Y-55320212D01*
X138458064Y-55530289D01*
X138458066Y-55530292D01*
X138458067Y-55530293D01*
X138605733Y-55722736D01*
X138605739Y-55722743D01*
X138777256Y-55894260D01*
X138777262Y-55894265D01*
X138969711Y-56041936D01*
X139179788Y-56163224D01*
X139403900Y-56256054D01*
X139638211Y-56318838D01*
X139818586Y-56342584D01*
X139878711Y-56350500D01*
X139878712Y-56350500D01*
X140121289Y-56350500D01*
X140169388Y-56344167D01*
X140361789Y-56318838D01*
X140596100Y-56256054D01*
X140820212Y-56163224D01*
X141030289Y-56041936D01*
X141222738Y-55894265D01*
X141394265Y-55722738D01*
X141541936Y-55530289D01*
X141663224Y-55320212D01*
X141756054Y-55096100D01*
X141818838Y-54861789D01*
X141850500Y-54621288D01*
X141850500Y-54378712D01*
X141818838Y-54138211D01*
X141756054Y-53903900D01*
X141663224Y-53679788D01*
X141541936Y-53469711D01*
X141394265Y-53277262D01*
X141394260Y-53277256D01*
X141222743Y-53105739D01*
X141222736Y-53105733D01*
X141030293Y-52958067D01*
X141030292Y-52958066D01*
X141030289Y-52958064D01*
X140820212Y-52836776D01*
X140749647Y-52807547D01*
X140596104Y-52743947D01*
X140361785Y-52681161D01*
X140121289Y-52649500D01*
X140121288Y-52649500D01*
X139878712Y-52649500D01*
X139878711Y-52649500D01*
X139638214Y-52681161D01*
X139403895Y-52743947D01*
X139179794Y-52836773D01*
X139179785Y-52836777D01*
X138969706Y-52958067D01*
X138777263Y-53105733D01*
X138777256Y-53105739D01*
X138605739Y-53277256D01*
X138605733Y-53277263D01*
X138458067Y-53469706D01*
X138336777Y-53679785D01*
X138336773Y-53679794D01*
X138243947Y-53903895D01*
X138181161Y-54138214D01*
X138149500Y-54378711D01*
X109707448Y-54378711D01*
X109725789Y-54349522D01*
X109785368Y-54179255D01*
X109805565Y-54000000D01*
X109794737Y-53903900D01*
X109785369Y-53820750D01*
X109785368Y-53820745D01*
X109725788Y-53650476D01*
X109629813Y-53497734D01*
X109627550Y-53494896D01*
X109626659Y-53492715D01*
X109626111Y-53491842D01*
X109626264Y-53491745D01*
X109601144Y-53430209D01*
X109600500Y-53417587D01*
X109600500Y-49402135D01*
X112149500Y-49402135D01*
X112149500Y-52497870D01*
X112149501Y-52497876D01*
X112155908Y-52557483D01*
X112206202Y-52692328D01*
X112206206Y-52692335D01*
X112292452Y-52807544D01*
X112292455Y-52807547D01*
X112407664Y-52893793D01*
X112407671Y-52893797D01*
X112542517Y-52944091D01*
X112542516Y-52944091D01*
X112549444Y-52944835D01*
X112602127Y-52950500D01*
X115197872Y-52950499D01*
X115257483Y-52944091D01*
X115392331Y-52893796D01*
X115507546Y-52807546D01*
X115593796Y-52692331D01*
X115644091Y-52557483D01*
X115650500Y-52497873D01*
X115650499Y-49402135D01*
X123349500Y-49402135D01*
X123349500Y-52497870D01*
X123349501Y-52497876D01*
X123355908Y-52557483D01*
X123406202Y-52692328D01*
X123406206Y-52692335D01*
X123492452Y-52807544D01*
X123492455Y-52807547D01*
X123607664Y-52893793D01*
X123607671Y-52893797D01*
X123742517Y-52944091D01*
X123742516Y-52944091D01*
X123749444Y-52944835D01*
X123802127Y-52950500D01*
X126397872Y-52950499D01*
X126457483Y-52944091D01*
X126592331Y-52893796D01*
X126707546Y-52807546D01*
X126793796Y-52692331D01*
X126844091Y-52557483D01*
X126850500Y-52497873D01*
X126850499Y-49402135D01*
X152899500Y-49402135D01*
X152899500Y-52497870D01*
X152899501Y-52497876D01*
X152905908Y-52557483D01*
X152956202Y-52692328D01*
X152956206Y-52692335D01*
X153042452Y-52807544D01*
X153042455Y-52807547D01*
X153157664Y-52893793D01*
X153157671Y-52893797D01*
X153292517Y-52944091D01*
X153292516Y-52944091D01*
X153299444Y-52944835D01*
X153352127Y-52950500D01*
X155947872Y-52950499D01*
X156007483Y-52944091D01*
X156142331Y-52893796D01*
X156257546Y-52807546D01*
X156343796Y-52692331D01*
X156394091Y-52557483D01*
X156400500Y-52497873D01*
X156400499Y-49402135D01*
X164099500Y-49402135D01*
X164099500Y-52497870D01*
X164099501Y-52497876D01*
X164105908Y-52557483D01*
X164156202Y-52692328D01*
X164156206Y-52692335D01*
X164242452Y-52807544D01*
X164242455Y-52807547D01*
X164357664Y-52893793D01*
X164357671Y-52893797D01*
X164492517Y-52944091D01*
X164492516Y-52944091D01*
X164499444Y-52944835D01*
X164552127Y-52950500D01*
X167147872Y-52950499D01*
X167207483Y-52944091D01*
X167342331Y-52893796D01*
X167457546Y-52807546D01*
X167543796Y-52692331D01*
X167594091Y-52557483D01*
X167600500Y-52497873D01*
X167600499Y-49402135D01*
X193649500Y-49402135D01*
X193649500Y-52497870D01*
X193649501Y-52497876D01*
X193655908Y-52557483D01*
X193706202Y-52692328D01*
X193706206Y-52692335D01*
X193792452Y-52807544D01*
X193792455Y-52807547D01*
X193907664Y-52893793D01*
X193907671Y-52893797D01*
X194042517Y-52944091D01*
X194042516Y-52944091D01*
X194049444Y-52944835D01*
X194102127Y-52950500D01*
X196697872Y-52950499D01*
X196757483Y-52944091D01*
X196892331Y-52893796D01*
X197007546Y-52807546D01*
X197093796Y-52692331D01*
X197144091Y-52557483D01*
X197150500Y-52497873D01*
X197150499Y-49402135D01*
X204849500Y-49402135D01*
X204849500Y-52497870D01*
X204849501Y-52497876D01*
X204855908Y-52557483D01*
X204906202Y-52692328D01*
X204906206Y-52692335D01*
X204992452Y-52807544D01*
X204992455Y-52807547D01*
X205107664Y-52893793D01*
X205107671Y-52893797D01*
X205242517Y-52944091D01*
X205242516Y-52944091D01*
X205249444Y-52944835D01*
X205302127Y-52950500D01*
X207897872Y-52950499D01*
X207957483Y-52944091D01*
X208092331Y-52893796D01*
X208207546Y-52807546D01*
X208293796Y-52692331D01*
X208344091Y-52557483D01*
X208350500Y-52497873D01*
X208350499Y-49402128D01*
X208344091Y-49342517D01*
X208333419Y-49313905D01*
X208293797Y-49207671D01*
X208293793Y-49207664D01*
X208207547Y-49092455D01*
X208207544Y-49092452D01*
X208092335Y-49006206D01*
X208092328Y-49006202D01*
X207957482Y-48955908D01*
X207957483Y-48955908D01*
X207897883Y-48949501D01*
X207897881Y-48949500D01*
X207897873Y-48949500D01*
X207897864Y-48949500D01*
X205302129Y-48949500D01*
X205302123Y-48949501D01*
X205242516Y-48955908D01*
X205107671Y-49006202D01*
X205107664Y-49006206D01*
X204992455Y-49092452D01*
X204992452Y-49092455D01*
X204906206Y-49207664D01*
X204906202Y-49207671D01*
X204855908Y-49342517D01*
X204850249Y-49395157D01*
X204849501Y-49402123D01*
X204849500Y-49402135D01*
X197150499Y-49402135D01*
X197150499Y-49402128D01*
X197144091Y-49342517D01*
X197133419Y-49313905D01*
X197093797Y-49207671D01*
X197093793Y-49207664D01*
X197007547Y-49092455D01*
X197007544Y-49092452D01*
X196892335Y-49006206D01*
X196892328Y-49006202D01*
X196757482Y-48955908D01*
X196757483Y-48955908D01*
X196697883Y-48949501D01*
X196697881Y-48949500D01*
X196697873Y-48949500D01*
X196697864Y-48949500D01*
X194102129Y-48949500D01*
X194102123Y-48949501D01*
X194042516Y-48955908D01*
X193907671Y-49006202D01*
X193907664Y-49006206D01*
X193792455Y-49092452D01*
X193792452Y-49092455D01*
X193706206Y-49207664D01*
X193706202Y-49207671D01*
X193655908Y-49342517D01*
X193650249Y-49395157D01*
X193649501Y-49402123D01*
X193649500Y-49402135D01*
X167600499Y-49402135D01*
X167600499Y-49402128D01*
X167594091Y-49342517D01*
X167583419Y-49313905D01*
X167543797Y-49207671D01*
X167543793Y-49207664D01*
X167457547Y-49092455D01*
X167457544Y-49092452D01*
X167342335Y-49006206D01*
X167342328Y-49006202D01*
X167207482Y-48955908D01*
X167207483Y-48955908D01*
X167147883Y-48949501D01*
X167147881Y-48949500D01*
X167147873Y-48949500D01*
X167147864Y-48949500D01*
X164552129Y-48949500D01*
X164552123Y-48949501D01*
X164492516Y-48955908D01*
X164357671Y-49006202D01*
X164357664Y-49006206D01*
X164242455Y-49092452D01*
X164242452Y-49092455D01*
X164156206Y-49207664D01*
X164156202Y-49207671D01*
X164105908Y-49342517D01*
X164100249Y-49395157D01*
X164099501Y-49402123D01*
X164099500Y-49402135D01*
X156400499Y-49402135D01*
X156400499Y-49402128D01*
X156394091Y-49342517D01*
X156383419Y-49313905D01*
X156343797Y-49207671D01*
X156343793Y-49207664D01*
X156257547Y-49092455D01*
X156257544Y-49092452D01*
X156142335Y-49006206D01*
X156142328Y-49006202D01*
X156007482Y-48955908D01*
X156007483Y-48955908D01*
X155947883Y-48949501D01*
X155947881Y-48949500D01*
X155947873Y-48949500D01*
X155947864Y-48949500D01*
X153352129Y-48949500D01*
X153352123Y-48949501D01*
X153292516Y-48955908D01*
X153157671Y-49006202D01*
X153157664Y-49006206D01*
X153042455Y-49092452D01*
X153042452Y-49092455D01*
X152956206Y-49207664D01*
X152956202Y-49207671D01*
X152905908Y-49342517D01*
X152900249Y-49395157D01*
X152899501Y-49402123D01*
X152899500Y-49402135D01*
X126850499Y-49402135D01*
X126850499Y-49402128D01*
X126844091Y-49342517D01*
X126833419Y-49313905D01*
X126793797Y-49207671D01*
X126793793Y-49207664D01*
X126707547Y-49092455D01*
X126707544Y-49092452D01*
X126592335Y-49006206D01*
X126592328Y-49006202D01*
X126457482Y-48955908D01*
X126457483Y-48955908D01*
X126397883Y-48949501D01*
X126397881Y-48949500D01*
X126397873Y-48949500D01*
X126397864Y-48949500D01*
X123802129Y-48949500D01*
X123802123Y-48949501D01*
X123742516Y-48955908D01*
X123607671Y-49006202D01*
X123607664Y-49006206D01*
X123492455Y-49092452D01*
X123492452Y-49092455D01*
X123406206Y-49207664D01*
X123406202Y-49207671D01*
X123355908Y-49342517D01*
X123350249Y-49395157D01*
X123349501Y-49402123D01*
X123349500Y-49402135D01*
X115650499Y-49402135D01*
X115650499Y-49402128D01*
X115644091Y-49342517D01*
X115633419Y-49313905D01*
X115593797Y-49207671D01*
X115593793Y-49207664D01*
X115507547Y-49092455D01*
X115507544Y-49092452D01*
X115392335Y-49006206D01*
X115392328Y-49006202D01*
X115257482Y-48955908D01*
X115257483Y-48955908D01*
X115197883Y-48949501D01*
X115197881Y-48949500D01*
X115197873Y-48949500D01*
X115197864Y-48949500D01*
X112602129Y-48949500D01*
X112602123Y-48949501D01*
X112542516Y-48955908D01*
X112407671Y-49006202D01*
X112407664Y-49006206D01*
X112292455Y-49092452D01*
X112292452Y-49092455D01*
X112206206Y-49207664D01*
X112206202Y-49207671D01*
X112155908Y-49342517D01*
X112150249Y-49395157D01*
X112149501Y-49402123D01*
X112149500Y-49402135D01*
X109600500Y-49402135D01*
X109600500Y-48764500D01*
X109620185Y-48697461D01*
X109672989Y-48651706D01*
X109724500Y-48640500D01*
X173630909Y-48640500D01*
X173697948Y-48660185D01*
X173743292Y-48712097D01*
X173745965Y-48717830D01*
X173881505Y-48911401D01*
X174048599Y-49078495D01*
X174068536Y-49092455D01*
X174242165Y-49214032D01*
X174242167Y-49214033D01*
X174242170Y-49214035D01*
X174456337Y-49313903D01*
X174684592Y-49375063D01*
X174872918Y-49391539D01*
X174919999Y-49395659D01*
X174920000Y-49395659D01*
X174920001Y-49395659D01*
X174959234Y-49392226D01*
X175155408Y-49375063D01*
X175383663Y-49313903D01*
X175597830Y-49214035D01*
X175791401Y-49078495D01*
X175958495Y-48911401D01*
X176088425Y-48725842D01*
X176143002Y-48682217D01*
X176212500Y-48675023D01*
X176274855Y-48706546D01*
X176291575Y-48725842D01*
X176421500Y-48911395D01*
X176421505Y-48911401D01*
X176588599Y-49078495D01*
X176608536Y-49092455D01*
X176782165Y-49214032D01*
X176782167Y-49214033D01*
X176782170Y-49214035D01*
X176996337Y-49313903D01*
X177224592Y-49375063D01*
X177412918Y-49391539D01*
X177459999Y-49395659D01*
X177460000Y-49395659D01*
X177460001Y-49395659D01*
X177499234Y-49392226D01*
X177695408Y-49375063D01*
X177923663Y-49313903D01*
X178137830Y-49214035D01*
X178331401Y-49078495D01*
X178498495Y-48911401D01*
X178628425Y-48725842D01*
X178683002Y-48682217D01*
X178752500Y-48675023D01*
X178814855Y-48706546D01*
X178831575Y-48725842D01*
X178961500Y-48911395D01*
X178961505Y-48911401D01*
X179128599Y-49078495D01*
X179148536Y-49092455D01*
X179322165Y-49214032D01*
X179322167Y-49214033D01*
X179322170Y-49214035D01*
X179536337Y-49313903D01*
X179764592Y-49375063D01*
X179952918Y-49391539D01*
X179999999Y-49395659D01*
X180000000Y-49395659D01*
X180000001Y-49395659D01*
X180039234Y-49392226D01*
X180235408Y-49375063D01*
X180463663Y-49313903D01*
X180677830Y-49214035D01*
X180871401Y-49078495D01*
X181038495Y-48911401D01*
X181168425Y-48725842D01*
X181223002Y-48682217D01*
X181292500Y-48675023D01*
X181354855Y-48706546D01*
X181371575Y-48725842D01*
X181501500Y-48911395D01*
X181501505Y-48911401D01*
X181668599Y-49078495D01*
X181688536Y-49092455D01*
X181862165Y-49214032D01*
X181862167Y-49214033D01*
X181862170Y-49214035D01*
X182076337Y-49313903D01*
X182304592Y-49375063D01*
X182492918Y-49391539D01*
X182539999Y-49395659D01*
X182540000Y-49395659D01*
X182540001Y-49395659D01*
X182579234Y-49392226D01*
X182775408Y-49375063D01*
X183003663Y-49313903D01*
X183217830Y-49214035D01*
X183411401Y-49078495D01*
X183578495Y-48911401D01*
X183708730Y-48725405D01*
X183763307Y-48681781D01*
X183832805Y-48674587D01*
X183895160Y-48706110D01*
X183911879Y-48725405D01*
X183965072Y-48801372D01*
X183965073Y-48801372D01*
X184597037Y-48169408D01*
X184614075Y-48232993D01*
X184679901Y-48347007D01*
X184772993Y-48440099D01*
X184887007Y-48505925D01*
X184950591Y-48522962D01*
X184318626Y-49154926D01*
X184402417Y-49213598D01*
X184402421Y-49213600D01*
X184616507Y-49313429D01*
X184616516Y-49313433D01*
X184844673Y-49374567D01*
X184844684Y-49374569D01*
X185079998Y-49395157D01*
X185080002Y-49395157D01*
X185315315Y-49374569D01*
X185315326Y-49374567D01*
X185543483Y-49313433D01*
X185543492Y-49313429D01*
X185757580Y-49213599D01*
X185841371Y-49154925D01*
X185209408Y-48522962D01*
X185272993Y-48505925D01*
X185387007Y-48440099D01*
X185480099Y-48347007D01*
X185545925Y-48232993D01*
X185562962Y-48169408D01*
X186194925Y-48801371D01*
X186253599Y-48717580D01*
X186353429Y-48503492D01*
X186353433Y-48503483D01*
X186414567Y-48275326D01*
X186414569Y-48275315D01*
X186435157Y-48040000D01*
X186435157Y-48039998D01*
X186414569Y-47804684D01*
X186414567Y-47804673D01*
X186353433Y-47576516D01*
X186353429Y-47576507D01*
X186283669Y-47426905D01*
X186273177Y-47357827D01*
X186301697Y-47294043D01*
X186360173Y-47255804D01*
X186396051Y-47250500D01*
X200213331Y-47250500D01*
X200213347Y-47250501D01*
X200220943Y-47250501D01*
X200379054Y-47250501D01*
X200379057Y-47250501D01*
X200531785Y-47209577D01*
X200581904Y-47180639D01*
X200668716Y-47130520D01*
X200780520Y-47018716D01*
X200780520Y-47018714D01*
X200790728Y-47008507D01*
X200790730Y-47008504D01*
X202812416Y-44986818D01*
X202873739Y-44953333D01*
X202900097Y-44950499D01*
X204547871Y-44950499D01*
X204547872Y-44950499D01*
X204607483Y-44944091D01*
X204742331Y-44893796D01*
X204857546Y-44807546D01*
X204943796Y-44692331D01*
X204994091Y-44557483D01*
X205000500Y-44497873D01*
X205000499Y-42402128D01*
X204994091Y-42342517D01*
X204947587Y-42217833D01*
X204942603Y-42148141D01*
X204976088Y-42086818D01*
X205037411Y-42053334D01*
X205063769Y-42050500D01*
X205186231Y-42050500D01*
X205253270Y-42070185D01*
X205299025Y-42122989D01*
X205308969Y-42192147D01*
X205302413Y-42217833D01*
X205255908Y-42342517D01*
X205252934Y-42370184D01*
X205249501Y-42402123D01*
X205249500Y-42402135D01*
X205249500Y-45497870D01*
X205249501Y-45497876D01*
X205255908Y-45557483D01*
X205306202Y-45692328D01*
X205306206Y-45692335D01*
X205392452Y-45807544D01*
X205392455Y-45807547D01*
X205507664Y-45893793D01*
X205507671Y-45893797D01*
X205642517Y-45944091D01*
X205642516Y-45944091D01*
X205649444Y-45944835D01*
X205702127Y-45950500D01*
X208297872Y-45950499D01*
X208357483Y-45944091D01*
X208492331Y-45893796D01*
X208607546Y-45807546D01*
X208693796Y-45692331D01*
X208744091Y-45557483D01*
X208750500Y-45497873D01*
X208750499Y-42402128D01*
X208744091Y-42342517D01*
X208697587Y-42217833D01*
X208692603Y-42148141D01*
X208726088Y-42086818D01*
X208787411Y-42053334D01*
X208813769Y-42050500D01*
X214467900Y-42050500D01*
X214534939Y-42070185D01*
X214580694Y-42122989D01*
X214591900Y-42174500D01*
X214591900Y-57129500D01*
X214572215Y-57196539D01*
X214519411Y-57242294D01*
X214467900Y-57253500D01*
X174410576Y-57253500D01*
X174343537Y-57233815D01*
X174297782Y-57181011D01*
X174287356Y-57115617D01*
X174305565Y-56954003D01*
X174305565Y-56953996D01*
X174285369Y-56774750D01*
X174285366Y-56774737D01*
X174225790Y-56604479D01*
X174219506Y-56594478D01*
X174200500Y-56528507D01*
X174200500Y-54378711D01*
X179149500Y-54378711D01*
X179149500Y-54621288D01*
X179181161Y-54861785D01*
X179243947Y-55096104D01*
X179336773Y-55320205D01*
X179336776Y-55320212D01*
X179458064Y-55530289D01*
X179458066Y-55530292D01*
X179458067Y-55530293D01*
X179605733Y-55722736D01*
X179605739Y-55722743D01*
X179777256Y-55894260D01*
X179777262Y-55894265D01*
X179969711Y-56041936D01*
X180179788Y-56163224D01*
X180403900Y-56256054D01*
X180638211Y-56318838D01*
X180818586Y-56342584D01*
X180878711Y-56350500D01*
X180878712Y-56350500D01*
X181121289Y-56350500D01*
X181169388Y-56344167D01*
X181361789Y-56318838D01*
X181596100Y-56256054D01*
X181820212Y-56163224D01*
X182030289Y-56041936D01*
X182222738Y-55894265D01*
X182394265Y-55722738D01*
X182541936Y-55530289D01*
X182663224Y-55320212D01*
X182756054Y-55096100D01*
X182818838Y-54861789D01*
X182850500Y-54621288D01*
X182850500Y-54378712D01*
X182818838Y-54138211D01*
X182756054Y-53903900D01*
X182663224Y-53679788D01*
X182541936Y-53469711D01*
X182394265Y-53277262D01*
X182394260Y-53277256D01*
X182222743Y-53105739D01*
X182222736Y-53105733D01*
X182030293Y-52958067D01*
X182030292Y-52958066D01*
X182030289Y-52958064D01*
X181820212Y-52836776D01*
X181749647Y-52807547D01*
X181596104Y-52743947D01*
X181361785Y-52681161D01*
X181121289Y-52649500D01*
X181121288Y-52649500D01*
X180878712Y-52649500D01*
X180878711Y-52649500D01*
X180638214Y-52681161D01*
X180403895Y-52743947D01*
X180179794Y-52836773D01*
X180179785Y-52836777D01*
X179969706Y-52958067D01*
X179777263Y-53105733D01*
X179777256Y-53105739D01*
X179605739Y-53277256D01*
X179605733Y-53277263D01*
X179458067Y-53469706D01*
X179336777Y-53679785D01*
X179336773Y-53679794D01*
X179243947Y-53903895D01*
X179181161Y-54138214D01*
X179149500Y-54378711D01*
X174200500Y-54378711D01*
X174200500Y-51841516D01*
X174220185Y-51774477D01*
X174236815Y-51753839D01*
X174699290Y-51291363D01*
X174746013Y-51262005D01*
X174849522Y-51225787D01*
X175002262Y-51129814D01*
X175129816Y-51002260D01*
X175225789Y-50849520D01*
X175285368Y-50679253D01*
X175305565Y-50499998D01*
X175285368Y-50320743D01*
X175225789Y-50150476D01*
X175129816Y-49997736D01*
X175002262Y-49870182D01*
X174849523Y-49774209D01*
X174679254Y-49714629D01*
X174679249Y-49714628D01*
X174500004Y-49694433D01*
X174499996Y-49694433D01*
X174320750Y-49714628D01*
X174320745Y-49714629D01*
X174150476Y-49774209D01*
X173997737Y-49870182D01*
X173870184Y-49997735D01*
X173774212Y-50150473D01*
X173774211Y-50150474D01*
X173737992Y-50253982D01*
X173708632Y-50300707D01*
X172955888Y-51053451D01*
X172955884Y-51053456D01*
X172924199Y-51100877D01*
X172916304Y-51112694D01*
X172904866Y-51129813D01*
X172879223Y-51168189D01*
X172826421Y-51295665D01*
X172826418Y-51295675D01*
X172799500Y-51431002D01*
X172799500Y-56528507D01*
X172780494Y-56594478D01*
X172774209Y-56604479D01*
X172714633Y-56774737D01*
X172714630Y-56774750D01*
X172694435Y-56953996D01*
X172694435Y-56954003D01*
X172712644Y-57115617D01*
X172700589Y-57184439D01*
X172653240Y-57235818D01*
X172589424Y-57253500D01*
X106174500Y-57253500D01*
X106107461Y-57233815D01*
X106061706Y-57181011D01*
X106050500Y-57129500D01*
X106050500Y-42174500D01*
X106070185Y-42107461D01*
X106122989Y-42061706D01*
X106174500Y-42050500D01*
X111686231Y-42050500D01*
X111753270Y-42070185D01*
G37*
%TD.AperFunction*%
%TA.AperFunction,Conductor*%
G36*
X152503270Y-42070185D02*
G01*
X152549025Y-42122989D01*
X152558969Y-42192147D01*
X152552413Y-42217833D01*
X152505908Y-42342517D01*
X152502934Y-42370184D01*
X152499501Y-42402123D01*
X152499500Y-42402135D01*
X152499500Y-45497870D01*
X152499501Y-45497876D01*
X152505908Y-45557483D01*
X152556202Y-45692328D01*
X152556206Y-45692335D01*
X152642452Y-45807544D01*
X152642455Y-45807547D01*
X152757664Y-45893793D01*
X152757671Y-45893797D01*
X152892517Y-45944091D01*
X152892516Y-45944091D01*
X152899444Y-45944835D01*
X152952127Y-45950500D01*
X155547872Y-45950499D01*
X155607483Y-45944091D01*
X155742331Y-45893796D01*
X155857546Y-45807546D01*
X155943796Y-45692331D01*
X155994091Y-45557483D01*
X156000500Y-45497873D01*
X156000499Y-43505117D01*
X156017528Y-43447123D01*
X156003043Y-43419870D01*
X156000499Y-43394880D01*
X156000499Y-42402129D01*
X156000498Y-42402123D01*
X156000497Y-42402116D01*
X155994091Y-42342517D01*
X155947587Y-42217833D01*
X155942603Y-42148141D01*
X155976088Y-42086818D01*
X156037411Y-42053334D01*
X156063769Y-42050500D01*
X156743912Y-42050500D01*
X156810951Y-42070185D01*
X156856706Y-42122989D01*
X156866650Y-42192147D01*
X156837625Y-42255703D01*
X156820074Y-42272353D01*
X156730262Y-42342256D01*
X156730259Y-42342259D01*
X156561833Y-42525217D01*
X156425826Y-42733393D01*
X156325936Y-42961118D01*
X156264892Y-43202175D01*
X156264890Y-43202187D01*
X156248075Y-43405120D01*
X156230662Y-43450245D01*
X156243476Y-43470184D01*
X156248075Y-43494879D01*
X156264890Y-43697812D01*
X156264892Y-43697824D01*
X156325936Y-43938881D01*
X156425826Y-44166606D01*
X156561833Y-44374782D01*
X156561836Y-44374785D01*
X156730256Y-44557738D01*
X156926491Y-44710474D01*
X156926493Y-44710475D01*
X157144332Y-44828364D01*
X157145190Y-44828828D01*
X157265216Y-44870033D01*
X157378964Y-44909083D01*
X157380386Y-44909571D01*
X157625665Y-44950500D01*
X157874335Y-44950500D01*
X158119608Y-44909572D01*
X158119607Y-44909572D01*
X158119614Y-44909571D01*
X158225607Y-44873182D01*
X158295402Y-44870033D01*
X158353548Y-44902783D01*
X159565139Y-46114374D01*
X159565149Y-46114385D01*
X159569479Y-46118715D01*
X159569480Y-46118716D01*
X159681284Y-46230520D01*
X159762031Y-46277139D01*
X159818215Y-46309577D01*
X159970942Y-46350500D01*
X159970943Y-46350500D01*
X170936159Y-46350500D01*
X171003198Y-46370185D01*
X171048953Y-46422989D01*
X171058897Y-46492147D01*
X171029872Y-46555703D01*
X171023840Y-46562181D01*
X170982840Y-46603181D01*
X170921517Y-46636666D01*
X170895159Y-46639500D01*
X124890097Y-46639500D01*
X124823058Y-46619815D01*
X124802416Y-46603181D01*
X124361415Y-46162180D01*
X124327930Y-46100857D01*
X124332914Y-46031165D01*
X124374786Y-45975232D01*
X124440250Y-45950815D01*
X124449070Y-45950499D01*
X126797872Y-45950499D01*
X126857483Y-45944091D01*
X126992331Y-45893796D01*
X127107546Y-45807546D01*
X127193796Y-45692331D01*
X127244091Y-45557483D01*
X127250500Y-45497873D01*
X127250499Y-42402128D01*
X127244091Y-42342517D01*
X127197587Y-42217833D01*
X127192603Y-42148141D01*
X127226088Y-42086818D01*
X127287411Y-42053334D01*
X127313769Y-42050500D01*
X152436231Y-42050500D01*
X152503270Y-42070185D01*
G37*
%TD.AperFunction*%
%TA.AperFunction,Conductor*%
G36*
X189643137Y-42070185D02*
G01*
X189688892Y-42122989D01*
X189698836Y-42192147D01*
X189669811Y-42255703D01*
X189642070Y-42279494D01*
X189497737Y-42370184D01*
X189370184Y-42497737D01*
X189274211Y-42650476D01*
X189214631Y-42820745D01*
X189214630Y-42820750D01*
X189194435Y-42999996D01*
X189194435Y-43000003D01*
X189214630Y-43179249D01*
X189214631Y-43179254D01*
X189274211Y-43349523D01*
X189349585Y-43469479D01*
X189370184Y-43502262D01*
X189497738Y-43629816D01*
X189650478Y-43725789D01*
X189739694Y-43757007D01*
X189820745Y-43785368D01*
X189820750Y-43785369D01*
X189999996Y-43805565D01*
X190000000Y-43805565D01*
X190000004Y-43805565D01*
X190179249Y-43785369D01*
X190179252Y-43785368D01*
X190179255Y-43785368D01*
X190349522Y-43725789D01*
X190502262Y-43629816D01*
X190629816Y-43502262D01*
X190725789Y-43349522D01*
X190785368Y-43179255D01*
X190785369Y-43179249D01*
X190805565Y-43000003D01*
X190805565Y-42999996D01*
X190785369Y-42820750D01*
X190785368Y-42820745D01*
X190725788Y-42650476D01*
X190629815Y-42497737D01*
X190502262Y-42370184D01*
X190357930Y-42279494D01*
X190311639Y-42227159D01*
X190300991Y-42158105D01*
X190329366Y-42094257D01*
X190387756Y-42055885D01*
X190423902Y-42050500D01*
X193186231Y-42050500D01*
X193253270Y-42070185D01*
X193299025Y-42122989D01*
X193308969Y-42192147D01*
X193302413Y-42217833D01*
X193255908Y-42342517D01*
X193252934Y-42370184D01*
X193249501Y-42402123D01*
X193249500Y-42402135D01*
X193249500Y-45497870D01*
X193249501Y-45497876D01*
X193255908Y-45557483D01*
X193306202Y-45692328D01*
X193306206Y-45692335D01*
X193392452Y-45807544D01*
X193392453Y-45807544D01*
X193392454Y-45807546D01*
X193417418Y-45826234D01*
X193459288Y-45882168D01*
X193464272Y-45951860D01*
X193430786Y-46013182D01*
X193369462Y-46046667D01*
X193343106Y-46049500D01*
X186492503Y-46049500D01*
X186425464Y-46029815D01*
X186379709Y-45977011D01*
X186369765Y-45907853D01*
X186372728Y-45893407D01*
X186385887Y-45844297D01*
X186415063Y-45735408D01*
X186435659Y-45500000D01*
X186415063Y-45264592D01*
X186353903Y-45036337D01*
X186254035Y-44822171D01*
X186248425Y-44814158D01*
X186118494Y-44628597D01*
X185951402Y-44461506D01*
X185951395Y-44461501D01*
X185757834Y-44325967D01*
X185757830Y-44325965D01*
X185714082Y-44305565D01*
X185543663Y-44226097D01*
X185543659Y-44226096D01*
X185543655Y-44226094D01*
X185315413Y-44164938D01*
X185315403Y-44164936D01*
X185080001Y-44144341D01*
X185079999Y-44144341D01*
X184844596Y-44164936D01*
X184844586Y-44164938D01*
X184616344Y-44226094D01*
X184616335Y-44226098D01*
X184402171Y-44325964D01*
X184402169Y-44325965D01*
X184208597Y-44461505D01*
X184041505Y-44628597D01*
X183911575Y-44814158D01*
X183856998Y-44857783D01*
X183787500Y-44864977D01*
X183725145Y-44833454D01*
X183708425Y-44814158D01*
X183578494Y-44628597D01*
X183411402Y-44461506D01*
X183411395Y-44461501D01*
X183217834Y-44325967D01*
X183217830Y-44325965D01*
X183174082Y-44305565D01*
X183003663Y-44226097D01*
X183003659Y-44226096D01*
X183003655Y-44226094D01*
X182775413Y-44164938D01*
X182775403Y-44164936D01*
X182540001Y-44144341D01*
X182539999Y-44144341D01*
X182304596Y-44164936D01*
X182304586Y-44164938D01*
X182076344Y-44226094D01*
X182076335Y-44226098D01*
X181862171Y-44325964D01*
X181862169Y-44325965D01*
X181668597Y-44461505D01*
X181501505Y-44628597D01*
X181371575Y-44814158D01*
X181316998Y-44857783D01*
X181247500Y-44864977D01*
X181185145Y-44833454D01*
X181168425Y-44814158D01*
X181038494Y-44628597D01*
X180871402Y-44461506D01*
X180871395Y-44461501D01*
X180677834Y-44325967D01*
X180677830Y-44325965D01*
X180634082Y-44305565D01*
X180463663Y-44226097D01*
X180463659Y-44226096D01*
X180463655Y-44226094D01*
X180235413Y-44164938D01*
X180235403Y-44164936D01*
X180000001Y-44144341D01*
X179999999Y-44144341D01*
X179764596Y-44164936D01*
X179764583Y-44164939D01*
X179636241Y-44199327D01*
X179566392Y-44197664D01*
X179516468Y-44167233D01*
X178937590Y-43588355D01*
X178937588Y-43588352D01*
X178818717Y-43469481D01*
X178818716Y-43469480D01*
X178731904Y-43419360D01*
X178731904Y-43419359D01*
X178731900Y-43419358D01*
X178681785Y-43390423D01*
X178529057Y-43349499D01*
X178370943Y-43349499D01*
X178363347Y-43349499D01*
X178363331Y-43349500D01*
X173470940Y-43349500D01*
X173430019Y-43360464D01*
X173430019Y-43360465D01*
X173392751Y-43370451D01*
X173318214Y-43390423D01*
X173318209Y-43390426D01*
X173181290Y-43469475D01*
X173181282Y-43469481D01*
X173069478Y-43581286D01*
X171537584Y-45113181D01*
X171476261Y-45146666D01*
X171449903Y-45149500D01*
X168124500Y-45149500D01*
X168057461Y-45129815D01*
X168011706Y-45077011D01*
X168000500Y-45025500D01*
X168000499Y-43499996D01*
X169194435Y-43499996D01*
X169194435Y-43500003D01*
X169214630Y-43679249D01*
X169214631Y-43679254D01*
X169274211Y-43849523D01*
X169367897Y-43998622D01*
X169370184Y-44002262D01*
X169497738Y-44129816D01*
X169557287Y-44167233D01*
X169637852Y-44217856D01*
X169650478Y-44225789D01*
X169820745Y-44285368D01*
X169820750Y-44285369D01*
X169999996Y-44305565D01*
X170000000Y-44305565D01*
X170000004Y-44305565D01*
X170179249Y-44285369D01*
X170179252Y-44285368D01*
X170179255Y-44285368D01*
X170349522Y-44225789D01*
X170502262Y-44129816D01*
X170629816Y-44002262D01*
X170725789Y-43849522D01*
X170785368Y-43679255D01*
X170785369Y-43679249D01*
X170805565Y-43500003D01*
X170805565Y-43499996D01*
X170785369Y-43320750D01*
X170785368Y-43320745D01*
X170743880Y-43202179D01*
X170725789Y-43150478D01*
X170629816Y-42997738D01*
X170502262Y-42870184D01*
X170349523Y-42774211D01*
X170179254Y-42714631D01*
X170179249Y-42714630D01*
X170000004Y-42694435D01*
X169999996Y-42694435D01*
X169820750Y-42714630D01*
X169820745Y-42714631D01*
X169650476Y-42774211D01*
X169497737Y-42870184D01*
X169370184Y-42997737D01*
X169274211Y-43150476D01*
X169214631Y-43320745D01*
X169214630Y-43320750D01*
X169194435Y-43499996D01*
X168000499Y-43499996D01*
X168000499Y-42402129D01*
X168000498Y-42402123D01*
X168000497Y-42402116D01*
X167994091Y-42342517D01*
X167947587Y-42217833D01*
X167942603Y-42148141D01*
X167976088Y-42086818D01*
X168037411Y-42053334D01*
X168063769Y-42050500D01*
X189576098Y-42050500D01*
X189643137Y-42070185D01*
G37*
%TD.AperFunction*%
%TA.AperFunction,Conductor*%
G36*
X159325965Y-42070185D02*
G01*
X159371720Y-42122989D01*
X159382688Y-42182184D01*
X159379943Y-42226389D01*
X160120591Y-42967037D01*
X160057007Y-42984075D01*
X159942993Y-43049901D01*
X159849901Y-43142993D01*
X159784075Y-43257007D01*
X159767037Y-43320591D01*
X159017369Y-42570923D01*
X158983885Y-42564752D01*
X158942873Y-42528053D01*
X158941317Y-42529265D01*
X158938169Y-42525220D01*
X158897265Y-42480787D01*
X158769744Y-42342262D01*
X158769739Y-42342258D01*
X158769737Y-42342256D01*
X158679926Y-42272353D01*
X158639113Y-42215643D01*
X158635438Y-42145870D01*
X158670070Y-42085187D01*
X158732011Y-42052860D01*
X158756088Y-42050500D01*
X159258926Y-42050500D01*
X159325965Y-42070185D01*
G37*
%TD.AperFunction*%
%TA.AperFunction,Conductor*%
G36*
X200075965Y-42070185D02*
G01*
X200121720Y-42122989D01*
X200132688Y-42182184D01*
X200129943Y-42226389D01*
X200870591Y-42967037D01*
X200807007Y-42984075D01*
X200692993Y-43049901D01*
X200599901Y-43142993D01*
X200534075Y-43257007D01*
X200517037Y-43320590D01*
X199767369Y-42570923D01*
X199733885Y-42564752D01*
X199692873Y-42528053D01*
X199691317Y-42529265D01*
X199688169Y-42525220D01*
X199647265Y-42480787D01*
X199519744Y-42342262D01*
X199519739Y-42342258D01*
X199519737Y-42342256D01*
X199429926Y-42272353D01*
X199389113Y-42215643D01*
X199385438Y-42145870D01*
X199420070Y-42085187D01*
X199482011Y-42052860D01*
X199506088Y-42050500D01*
X200008926Y-42050500D01*
X200075965Y-42070185D01*
G37*
%TD.AperFunction*%
%TD*%
%TA.AperFunction,NonConductor*%
G36*
X118575965Y-42070185D02*
G01*
X118621720Y-42122989D01*
X118632688Y-42182184D01*
X118629943Y-42226389D01*
X119370591Y-42967037D01*
X119307007Y-42984075D01*
X119192993Y-43049901D01*
X119099901Y-43142993D01*
X119034075Y-43257007D01*
X119017037Y-43320591D01*
X118267369Y-42570923D01*
X118233885Y-42564752D01*
X118192873Y-42528053D01*
X118191317Y-42529265D01*
X118188169Y-42525220D01*
X118147265Y-42480787D01*
X118019744Y-42342262D01*
X118019739Y-42342258D01*
X118019737Y-42342256D01*
X117929926Y-42272353D01*
X117889113Y-42215643D01*
X117885438Y-42145870D01*
X117920070Y-42085187D01*
X117982011Y-42052860D01*
X118006088Y-42050500D01*
X118508926Y-42050500D01*
X118575965Y-42070185D01*
G37*
%TD.AperFunction*%
%TA.AperFunction,NonConductor*%
G36*
X197560951Y-42070185D02*
G01*
X197606706Y-42122989D01*
X197616650Y-42192147D01*
X197587625Y-42255703D01*
X197570074Y-42272353D01*
X197480262Y-42342256D01*
X197480259Y-42342259D01*
X197311833Y-42525217D01*
X197175826Y-42733393D01*
X197075936Y-42961118D01*
X197014892Y-43202175D01*
X197014890Y-43202187D01*
X196998075Y-43405120D01*
X196980662Y-43450245D01*
X196993476Y-43470184D01*
X196998075Y-43494879D01*
X197014890Y-43697812D01*
X197014892Y-43697824D01*
X197075936Y-43938881D01*
X197175826Y-44166606D01*
X197311833Y-44374782D01*
X197311836Y-44374785D01*
X197480256Y-44557738D01*
X197676491Y-44710474D01*
X197676493Y-44710475D01*
X197894332Y-44828364D01*
X197895190Y-44828828D01*
X198015216Y-44870033D01*
X198128964Y-44909083D01*
X198130386Y-44909571D01*
X198375665Y-44950500D01*
X198624335Y-44950500D01*
X198869614Y-44909571D01*
X199104810Y-44828828D01*
X199323509Y-44710474D01*
X199519744Y-44557738D01*
X199688164Y-44374785D01*
X199688169Y-44374777D01*
X199691311Y-44370741D01*
X199693050Y-44372094D01*
X199739095Y-44332764D01*
X199768375Y-44328069D01*
X200517037Y-43579408D01*
X200534075Y-43642993D01*
X200599901Y-43757007D01*
X200692993Y-43850099D01*
X200807007Y-43915925D01*
X200870589Y-43932962D01*
X200129943Y-44673609D01*
X200176768Y-44710055D01*
X200176771Y-44710057D01*
X200395385Y-44828364D01*
X200395396Y-44828369D01*
X200630507Y-44909083D01*
X200873817Y-44949684D01*
X200936703Y-44980134D01*
X200973142Y-45039749D01*
X200971567Y-45109601D01*
X200941089Y-45159674D01*
X200087584Y-46013181D01*
X200026261Y-46046666D01*
X199999903Y-46049500D01*
X196656894Y-46049500D01*
X196589855Y-46029815D01*
X196544100Y-45977011D01*
X196534156Y-45907853D01*
X196563181Y-45844297D01*
X196582582Y-45826234D01*
X196607546Y-45807546D01*
X196693796Y-45692331D01*
X196744091Y-45557483D01*
X196750500Y-45497873D01*
X196750499Y-43505117D01*
X196767528Y-43447123D01*
X196753043Y-43419870D01*
X196750499Y-43394880D01*
X196750499Y-42402129D01*
X196750498Y-42402123D01*
X196750497Y-42402116D01*
X196744091Y-42342517D01*
X196697587Y-42217833D01*
X196692603Y-42148141D01*
X196726088Y-42086818D01*
X196787411Y-42053334D01*
X196813769Y-42050500D01*
X197493912Y-42050500D01*
X197560951Y-42070185D01*
G37*
%TD.AperFunction*%
M02*
