  0
SECTION
  2
HEADER
  9
$ANGBASE
  50
0.0
  9
$ANGDIR
  70
1
  9
$MEASUREMENT
  70
0
  0
ENDSEC
  0
SECTION
  2
TABLES
  0
TABLE
  2
LTYPE
  70
4
  0
LTYPE
  5
40F
  2
CONTINUOUS
  70
0
  3
Solid line
  72
65
  73
0
  40
0.0
  0
LTYPE
  5
410
  2
DASHDOT
 70
0
  3
Dash Dot ____ _ ____ _
 72
65
 73
4
 40
2.0
 49
1.25
 49
-0.25
 49
0.25
 49
-0.25
  0
LTYPE
  5
411
  2
DASHED
 70
0
  3
Dashed __ __ __ __ __
 72
65
 73
2
 40
0.75
 49
0.5
 49
-0.25
  0
LTYPE
  5
43B
  2
DOTTED
 70
0
  3
Dotted .  .  .  .
 72
65
 73
2
 40
0.2
 49
0.0
 49
-0.2
  0
ENDTAB
  0
TABLE
  2
STYLE
  70
4
  0
STYLE
  2
KICAD
  70
0
  40
0
  41
1
  42
1
  50
0
  71
0
  3
isocp.shx
  0
STYLE
  2
KICADB
  70
0
  40
0
  41
1
  42
1
  50
0
  71
0
  3
isocp.shx
  0
STYLE
  2
KICADI
  70
0
  40
0
  41
1
  42
1
  50
15
  71
0
  3
isocp.shx
  0
STYLE
  2
KICADBI
  70
0
  40
0
  41
1
  42
1
  50
15
  71
0
  3
isocp.shx
  0
ENDTAB
  0
TABLE
  2
LAYER
  70
1
  0
LAYER
  2
BLACK
  70
0
  62
7
  6
CONTINUOUS
  0
ENDTAB
  0
ENDSEC
  0
SECTION
  2
ENTITIES
0
LINE
8
BLACK
6
CONTINUOUS
10
4.1510799212598428
20
-5.0352350000000001
11
4.1622043700787401
21
-5.0383519291338583
0
LINE
8
BLACK
6
CONTINUOUS
10
4.1622043700787401
20
-5.0383519291338583
11
4.1728007874015747
21
-5.0429546062992125
0
LINE
8
BLACK
6
CONTINUOUS
10
4.1728007874015747
20
-5.0429546062992125
11
4.1826717716535429
21
-5.0489572834645671
0
LINE
8
BLACK
6
CONTINUOUS
10
4.1826717716535429
20
-5.0489572834645671
11
4.1916334251968506
21
-5.056248149606299
0
LINE
8
BLACK
6
CONTINUOUS
10
4.1916334251968506
20
-5.056248149606299
11
4.1995188582677168
21
-5.064691377952756
0
LINE
8
BLACK
6
CONTINUOUS
10
4.1995188582677168
20
-5.064691377952756
11
4.2061811811023624
21
-5.074129724409449
0
LINE
8
BLACK
6
CONTINUOUS
10
4.2061811811023624
20
-5.074129724409449
11
4.2114962204724407
21
-5.0843873228346457
0
LINE
8
BLACK
6
CONTINUOUS
10
4.2114962204724407
20
-5.0843873228346457
11
4.215365039370079
21
-5.0952731102362208
0
LINE
8
BLACK
6
CONTINUOUS
10
4.215365039370079
20
-5.0952731102362208
11
4.2177155511811026
21
-5.1065843307086611
0
LINE
8
BLACK
6
CONTINUOUS
10
4.2177155511811026
20
-5.1065843307086611
11
4.2185039370078741
21
-5.1181102362204722
0
LINE
8
BLACK
6
CONTINUOUS
10
4.2185039370078741
20
-5.1181102362204722
11
4.2177155511811026
21
-5.1296361417322833
0
LINE
8
BLACK
6
CONTINUOUS
10
4.2177155511811026
20
-5.1296361417322833
11
4.215365039370079
21
-5.1409473622047246
0
LINE
8
BLACK
6
CONTINUOUS
10
4.215365039370079
20
-5.1409473622047246
11
4.2114962204724407
21
-5.1518331496062988
0
LINE
8
BLACK
6
CONTINUOUS
10
4.2114962204724407
20
-5.1518331496062988
11
4.2061811811023624
21
-5.1620907480314964
0
LINE
8
BLACK
6
CONTINUOUS
10
4.2061811811023624
20
-5.1620907480314964
11
4.1995188582677168
21
-5.1715290944881884
0
LINE
8
BLACK
6
CONTINUOUS
10
4.1995188582677168
20
-5.1715290944881884
11
4.1916334251968506
21
-5.1799723228346455
0
LINE
8
BLACK
6
CONTINUOUS
10
4.1916334251968506
20
-5.1799723228346455
11
4.1826717716535429
21
-5.1872631889763774
0
LINE
8
BLACK
6
CONTINUOUS
10
4.1826717716535429
20
-5.1872631889763774
11
4.1728007874015747
21
-5.1932658661417319
0
LINE
8
BLACK
6
CONTINUOUS
10
4.1728007874015747
20
-5.1932658661417319
11
4.1622043700787401
21
-5.1978685433070861
0
LINE
8
BLACK
6
CONTINUOUS
10
4.1622043700787401
20
-5.1978685433070861
11
4.1510799212598428
21
-5.2009854724409443
0
LINE
8
BLACK
6
CONTINUOUS
10
4.1510799212598428
20
-5.2009854724409443
11
4.1396346850393702
21
-5.202558582677165
0
LINE
8
BLACK
6
CONTINUOUS
10
4.1396346850393702
20
-5.202558582677165
11
4.1280818503937011
21
-5.202558582677165
0
LINE
8
BLACK
6
CONTINUOUS
10
4.1280818503937011
20
-5.202558582677165
11
4.1166366141732285
21
-5.2009854724409443
0
LINE
8
BLACK
6
CONTINUOUS
10
4.1166366141732285
20
-5.2009854724409443
11
4.1055121653543303
21
-5.1978685433070861
0
LINE
8
BLACK
6
CONTINUOUS
10
4.1055121653543303
20
-5.1978685433070861
11
4.0949157480314957
21
-5.1932658661417319
0
LINE
8
BLACK
6
CONTINUOUS
10
4.0949157480314957
20
-5.1932658661417319
11
4.0850447637795275
21
-5.1872631889763774
0
LINE
8
BLACK
6
CONTINUOUS
10
4.0850447637795275
20
-5.1872631889763774
11
4.0760831102362207
21
-5.1799723228346455
0
LINE
8
BLACK
6
CONTINUOUS
10
4.0760831102362207
20
-5.1799723228346455
11
4.0681976771653545
21
-5.1715290944881884
0
LINE
8
BLACK
6
CONTINUOUS
10
4.0681976771653545
20
-5.1715290944881884
11
4.0615353543307089
21
-5.1620907480314964
0
LINE
8
BLACK
6
CONTINUOUS
10
4.0615353543307089
20
-5.1620907480314964
11
4.0562203149606297
21
-5.1518331496062988
0
LINE
8
BLACK
6
CONTINUOUS
10
4.0562203149606297
20
-5.1518331496062988
11
4.0523514960629923
21
-5.1409473622047246
0
LINE
8
BLACK
6
CONTINUOUS
10
4.0523514960629923
20
-5.1409473622047246
11
4.0500009842519686
21
-5.1296361417322833
0
LINE
8
BLACK
6
CONTINUOUS
10
4.0500009842519686
20
-5.1296361417322833
11
4.0492125984251963
21
-5.1181102362204722
0
LINE
8
BLACK
6
CONTINUOUS
10
4.0492125984251963
20
-5.1181102362204722
11
4.0500009842519686
21
-5.1065843307086611
0
LINE
8
BLACK
6
CONTINUOUS
10
4.0500009842519686
20
-5.1065843307086611
11
4.0523514960629923
21
-5.0952731102362208
0
LINE
8
BLACK
6
CONTINUOUS
10
4.0523514960629923
20
-5.0952731102362208
11
4.0562203149606297
21
-5.0843873228346457
0
LINE
8
BLACK
6
CONTINUOUS
10
4.0562203149606297
20
-5.0843873228346457
11
4.0615353543307089
21
-5.074129724409449
0
LINE
8
BLACK
6
CONTINUOUS
10
4.0615353543307089
20
-5.074129724409449
11
4.0681976771653545
21
-5.064691377952756
0
LINE
8
BLACK
6
CONTINUOUS
10
4.0681976771653545
20
-5.064691377952756
11
4.0760831102362207
21
-5.056248149606299
0
LINE
8
BLACK
6
CONTINUOUS
10
4.0760831102362207
20
-5.056248149606299
11
4.0850447637795275
21
-5.0489572834645671
0
LINE
8
BLACK
6
CONTINUOUS
10
4.0850447637795275
20
-5.0489572834645671
11
4.0949157480314957
21
-5.0429546062992125
0
LINE
8
BLACK
6
CONTINUOUS
10
4.0949157480314957
20
-5.0429546062992125
11
4.1055121653543303
21
-5.0383519291338583
0
LINE
8
BLACK
6
CONTINUOUS
10
4.1055121653543303
20
-5.0383519291338583
11
4.1166366141732285
21
-5.0352350000000001
0
LINE
8
BLACK
6
CONTINUOUS
10
4.1166366141732285
20
-5.0352350000000001
11
4.1280818503937011
21
-5.0336618897637795
0
LINE
8
BLACK
6
CONTINUOUS
10
4.1280818503937011
20
-5.0336618897637795
11
4.1396346850393702
21
-5.0336618897637795
0
LINE
8
BLACK
6
CONTINUOUS
10
4.1396346850393702
20
-5.0336618897637795
11
4.1510799212598428
21
-5.0352350000000001
0
LINE
8
BLACK
6
CONTINUOUS
10
6.1589539370078743
20
-5.0352350000000001
11
6.1700783858267716
21
-5.0383519291338583
0
LINE
8
BLACK
6
CONTINUOUS
10
6.1700783858267716
20
-5.0383519291338583
11
6.1806748031496062
21
-5.0429546062992125
0
LINE
8
BLACK
6
CONTINUOUS
10
6.1806748031496062
20
-5.0429546062992125
11
6.1905457874015744
21
-5.0489572834645671
0
LINE
8
BLACK
6
CONTINUOUS
10
6.1905457874015744
20
-5.0489572834645671
11
6.199507440944882
21
-5.056248149606299
0
LINE
8
BLACK
6
CONTINUOUS
10
6.199507440944882
20
-5.056248149606299
11
6.2073928740157482
21
-5.064691377952756
0
LINE
8
BLACK
6
CONTINUOUS
10
6.2073928740157482
20
-5.064691377952756
11
6.2140551968503939
21
-5.074129724409449
0
LINE
8
BLACK
6
CONTINUOUS
10
6.2140551968503939
20
-5.074129724409449
11
6.2193702362204721
21
-5.0843873228346457
0
LINE
8
BLACK
6
CONTINUOUS
10
6.2193702362204721
20
-5.0843873228346457
11
6.2232390551181105
21
-5.0952731102362208
0
LINE
8
BLACK
6
CONTINUOUS
10
6.2232390551181105
20
-5.0952731102362208
11
6.2255895669291341
21
-5.1065843307086611
0
LINE
8
BLACK
6
CONTINUOUS
10
6.2255895669291341
20
-5.1065843307086611
11
6.2263779527559056
21
-5.1181102362204722
0
LINE
8
BLACK
6
CONTINUOUS
10
6.2263779527559056
20
-5.1181102362204722
11
6.2255895669291341
21
-5.1296361417322833
0
LINE
8
BLACK
6
CONTINUOUS
10
6.2255895669291341
20
-5.1296361417322833
11
6.2232390551181105
21
-5.1409473622047246
0
LINE
8
BLACK
6
CONTINUOUS
10
6.2232390551181105
20
-5.1409473622047246
11
6.2193702362204721
21
-5.1518331496062988
0
LINE
8
BLACK
6
CONTINUOUS
10
6.2193702362204721
20
-5.1518331496062988
11
6.2140551968503939
21
-5.1620907480314964
0
LINE
8
BLACK
6
CONTINUOUS
10
6.2140551968503939
20
-5.1620907480314964
11
6.2073928740157482
21
-5.1715290944881884
0
LINE
8
BLACK
6
CONTINUOUS
10
6.2073928740157482
20
-5.1715290944881884
11
6.199507440944882
21
-5.1799723228346455
0
LINE
8
BLACK
6
CONTINUOUS
10
6.199507440944882
20
-5.1799723228346455
11
6.1905457874015744
21
-5.1872631889763774
0
LINE
8
BLACK
6
CONTINUOUS
10
6.1905457874015744
20
-5.1872631889763774
11
6.1806748031496062
21
-5.1932658661417319
0
LINE
8
BLACK
6
CONTINUOUS
10
6.1806748031496062
20
-5.1932658661417319
11
6.1700783858267716
21
-5.1978685433070861
0
LINE
8
BLACK
6
CONTINUOUS
10
6.1700783858267716
20
-5.1978685433070861
11
6.1589539370078743
21
-5.2009854724409443
0
LINE
8
BLACK
6
CONTINUOUS
10
6.1589539370078743
20
-5.2009854724409443
11
6.1475087007874016
21
-5.202558582677165
0
LINE
8
BLACK
6
CONTINUOUS
10
6.1475087007874016
20
-5.202558582677165
11
6.1359558661417317
21
-5.202558582677165
0
LINE
8
BLACK
6
CONTINUOUS
10
6.1359558661417317
20
-5.202558582677165
11
6.1245106299212599
21
-5.2009854724409443
0
LINE
8
BLACK
6
CONTINUOUS
10
6.1245106299212599
20
-5.2009854724409443
11
6.1133861811023618
21
-5.1978685433070861
0
LINE
8
BLACK
6
CONTINUOUS
10
6.1133861811023618
20
-5.1978685433070861
11
6.1027897637795272
21
-5.1932658661417319
0
LINE
8
BLACK
6
CONTINUOUS
10
6.1027897637795272
20
-5.1932658661417319
11
6.092918779527559
21
-5.1872631889763774
0
LINE
8
BLACK
6
CONTINUOUS
10
6.092918779527559
20
-5.1872631889763774
11
6.0839571259842522
21
-5.1799723228346455
0
LINE
8
BLACK
6
CONTINUOUS
10
6.0839571259842522
20
-5.1799723228346455
11
6.076071692913386
21
-5.1715290944881884
0
LINE
8
BLACK
6
CONTINUOUS
10
6.076071692913386
20
-5.1715290944881884
11
6.0694093700787404
21
-5.1620907480314964
0
LINE
8
BLACK
6
CONTINUOUS
10
6.0694093700787404
20
-5.1620907480314964
11
6.0640943307086612
21
-5.1518331496062988
0
LINE
8
BLACK
6
CONTINUOUS
10
6.0640943307086612
20
-5.1518331496062988
11
6.0602255118110238
21
-5.1409473622047246
0
LINE
8
BLACK
6
CONTINUOUS
10
6.0602255118110238
20
-5.1409473622047246
11
6.0578750000000001
21
-5.1296361417322833
0
LINE
8
BLACK
6
CONTINUOUS
10
6.0578750000000001
20
-5.1296361417322833
11
6.0570866141732278
21
-5.1181102362204722
0
LINE
8
BLACK
6
CONTINUOUS
10
6.0570866141732278
20
-5.1181102362204722
11
6.0578750000000001
21
-5.1065843307086611
0
LINE
8
BLACK
6
CONTINUOUS
10
6.0578750000000001
20
-5.1065843307086611
11
6.0602255118110238
21
-5.0952731102362208
0
LINE
8
BLACK
6
CONTINUOUS
10
6.0602255118110238
20
-5.0952731102362208
11
6.0640943307086612
21
-5.0843873228346457
0
LINE
8
BLACK
6
CONTINUOUS
10
6.0640943307086612
20
-5.0843873228346457
11
6.0694093700787404
21
-5.074129724409449
0
LINE
8
BLACK
6
CONTINUOUS
10
6.0694093700787404
20
-5.074129724409449
11
6.076071692913386
21
-5.064691377952756
0
LINE
8
BLACK
6
CONTINUOUS
10
6.076071692913386
20
-5.064691377952756
11
6.0839571259842522
21
-5.056248149606299
0
LINE
8
BLACK
6
CONTINUOUS
10
6.0839571259842522
20
-5.056248149606299
11
6.092918779527559
21
-5.0489572834645671
0
LINE
8
BLACK
6
CONTINUOUS
10
6.092918779527559
20
-5.0489572834645671
11
6.1027897637795272
21
-5.0429546062992125
0
LINE
8
BLACK
6
CONTINUOUS
10
6.1027897637795272
20
-5.0429546062992125
11
6.1133861811023618
21
-5.0383519291338583
0
LINE
8
BLACK
6
CONTINUOUS
10
6.1133861811023618
20
-5.0383519291338583
11
6.1245106299212599
21
-5.0352350000000001
0
LINE
8
BLACK
6
CONTINUOUS
10
6.1245106299212599
20
-5.0352350000000001
11
6.1359558661417317
21
-5.0336618897637795
0
LINE
8
BLACK
6
CONTINUOUS
10
6.1359558661417317
20
-5.0336618897637795
11
6.1475087007874016
21
-5.0336618897637795
0
LINE
8
BLACK
6
CONTINUOUS
10
6.1475087007874016
20
-5.0336618897637795
11
6.1589539370078743
21
-5.0352350000000001
0
LINE
8
BLACK
6
CONTINUOUS
10
4.5756954330708659
20
-4.8532126771653541
11
4.5820866141732282
21
-4.8560581889763776
0
LINE
8
BLACK
6
CONTINUOUS
10
4.5820866141732282
20
-4.8560581889763776
11
4.5877464960629917
21
-4.8601703543307089
0
LINE
8
BLACK
6
CONTINUOUS
10
4.5877464960629917
20
-4.8601703543307089
11
4.5924277165354326
21
-4.8653694094488191
0
LINE
8
BLACK
6
CONTINUOUS
10
4.5924277165354326
20
-4.8653694094488191
11
4.5959257480314957
21
-4.87142811023622
0
LINE
8
BLACK
6
CONTINUOUS
10
4.5959257480314957
20
-4.87142811023622
11
4.598087598425197
21
-4.8780816929133861
0
LINE
8
BLACK
6
CONTINUOUS
10
4.598087598425197
20
-4.8780816929133861
11
4.5988188976377948
21
-4.88503937007874
0
LINE
8
BLACK
6
CONTINUOUS
10
4.5988188976377948
20
-4.88503937007874
11
4.598087598425197
21
-4.8919970472440948
0
LINE
8
BLACK
6
CONTINUOUS
10
4.598087598425197
20
-4.8919970472440948
11
4.5959257480314957
21
-4.89865062992126
0
LINE
8
BLACK
6
CONTINUOUS
10
4.5959257480314957
20
-4.89865062992126
11
4.5924277165354326
21
-4.9047093307086609
0
LINE
8
BLACK
6
CONTINUOUS
10
4.5924277165354326
20
-4.9047093307086609
11
4.5877464960629917
21
-4.9099083858267711
0
LINE
8
BLACK
6
CONTINUOUS
10
4.5877464960629917
20
-4.9099083858267711
11
4.5820866141732282
21
-4.9140205511811024
0
LINE
8
BLACK
6
CONTINUOUS
10
4.5820866141732282
20
-4.9140205511811024
11
4.5756954330708659
21
-4.9168660629921259
0
LINE
8
BLACK
6
CONTINUOUS
10
4.5756954330708659
20
-4.9168660629921259
11
4.5688523228346458
21
-4.9183206299212596
0
LINE
8
BLACK
6
CONTINUOUS
10
4.5688523228346458
20
-4.9183206299212596
11
4.5618563385826771
21
-4.9183206299212596
0
LINE
8
BLACK
6
CONTINUOUS
10
4.5618563385826771
20
-4.9183206299212596
11
4.5550132283464562
21
-4.9168660629921259
0
LINE
8
BLACK
6
CONTINUOUS
10
4.5550132283464562
20
-4.9168660629921259
11
4.5486220472440948
21
-4.9140205511811024
0
LINE
8
BLACK
6
CONTINUOUS
10
4.5486220472440948
20
-4.9140205511811024
11
4.5429621653543304
21
-4.9099083858267711
0
LINE
8
BLACK
6
CONTINUOUS
10
4.5429621653543304
20
-4.9099083858267711
11
4.5382809448818895
21
-4.9047093307086609
0
LINE
8
BLACK
6
CONTINUOUS
10
4.5382809448818895
20
-4.9047093307086609
11
4.5347829133858264
21
-4.89865062992126
0
LINE
8
BLACK
6
CONTINUOUS
10
4.5347829133858264
20
-4.89865062992126
11
4.532621062992126
21
-4.8919970472440948
0
LINE
8
BLACK
6
CONTINUOUS
10
4.532621062992126
20
-4.8919970472440948
11
4.5318897637795272
21
-4.88503937007874
0
LINE
8
BLACK
6
CONTINUOUS
10
4.5318897637795272
20
-4.88503937007874
11
4.532621062992126
21
-4.8780816929133861
0
LINE
8
BLACK
6
CONTINUOUS
10
4.532621062992126
20
-4.8780816929133861
11
4.5347829133858264
21
-4.87142811023622
0
LINE
8
BLACK
6
CONTINUOUS
10
4.5347829133858264
20
-4.87142811023622
11
4.5382809448818895
21
-4.8653694094488191
0
LINE
8
BLACK
6
CONTINUOUS
10
4.5382809448818895
20
-4.8653694094488191
11
4.5429621653543304
21
-4.8601703543307089
0
LINE
8
BLACK
6
CONTINUOUS
10
4.5429621653543304
20
-4.8601703543307089
11
4.5486220472440948
21
-4.8560581889763776
0
LINE
8
BLACK
6
CONTINUOUS
10
4.5486220472440948
20
-4.8560581889763776
11
4.5550132283464562
21
-4.8532126771653541
0
LINE
8
BLACK
6
CONTINUOUS
10
4.5550132283464562
20
-4.8532126771653541
11
4.5618563385826771
21
-4.8517581102362204
0
LINE
8
BLACK
6
CONTINUOUS
10
4.5618563385826771
20
-4.8517581102362204
11
4.5688523228346458
21
-4.8517581102362204
0
LINE
8
BLACK
6
CONTINUOUS
10
4.5688523228346458
20
-4.8517581102362204
11
4.5756954330708659
21
-4.8532126771653541
0
LINE
8
BLACK
6
CONTINUOUS
10
4.6756954330708664
20
-4.8532126771653541
11
4.6820866141732278
21
-4.8560581889763776
0
LINE
8
BLACK
6
CONTINUOUS
10
4.6820866141732278
20
-4.8560581889763776
11
4.6877464960629922
21
-4.8601703543307089
0
LINE
8
BLACK
6
CONTINUOUS
10
4.6877464960629922
20
-4.8601703543307089
11
4.6924277165354331
21
-4.8653694094488191
0
LINE
8
BLACK
6
CONTINUOUS
10
4.6924277165354331
20
-4.8653694094488191
11
4.6959257480314962
21
-4.87142811023622
0
LINE
8
BLACK
6
CONTINUOUS
10
4.6959257480314962
20
-4.87142811023622
11
4.6980875984251966
21
-4.8780816929133861
0
LINE
8
BLACK
6
CONTINUOUS
10
4.6980875984251966
20
-4.8780816929133861
11
4.6988188976377954
21
-4.88503937007874
0
LINE
8
BLACK
6
CONTINUOUS
10
4.6988188976377954
20
-4.88503937007874
11
4.6980875984251966
21
-4.8919970472440948
0
LINE
8
BLACK
6
CONTINUOUS
10
4.6980875984251966
20
-4.8919970472440948
11
4.6959257480314962
21
-4.89865062992126
0
LINE
8
BLACK
6
CONTINUOUS
10
4.6959257480314962
20
-4.89865062992126
11
4.6924277165354331
21
-4.9047093307086609
0
LINE
8
BLACK
6
CONTINUOUS
10
4.6924277165354331
20
-4.9047093307086609
11
4.6877464960629922
21
-4.9099083858267711
0
LINE
8
BLACK
6
CONTINUOUS
10
4.6877464960629922
20
-4.9099083858267711
11
4.6820866141732278
21
-4.9140205511811024
0
LINE
8
BLACK
6
CONTINUOUS
10
4.6820866141732278
20
-4.9140205511811024
11
4.6756954330708664
21
-4.9168660629921259
0
LINE
8
BLACK
6
CONTINUOUS
10
4.6756954330708664
20
-4.9168660629921259
11
4.6688523228346455
21
-4.9183206299212596
0
LINE
8
BLACK
6
CONTINUOUS
10
4.6688523228346455
20
-4.9183206299212596
11
4.6618563385826768
21
-4.9183206299212596
0
LINE
8
BLACK
6
CONTINUOUS
10
4.6618563385826768
20
-4.9183206299212596
11
4.6550132283464567
21
-4.9168660629921259
0
LINE
8
BLACK
6
CONTINUOUS
10
4.6550132283464567
20
-4.9168660629921259
11
4.6486220472440944
21
-4.9140205511811024
0
LINE
8
BLACK
6
CONTINUOUS
10
4.6486220472440944
20
-4.9140205511811024
11
4.6429621653543309
21
-4.9099083858267711
0
LINE
8
BLACK
6
CONTINUOUS
10
4.6429621653543309
20
-4.9099083858267711
11
4.63828094488189
21
-4.9047093307086609
0
LINE
8
BLACK
6
CONTINUOUS
10
4.63828094488189
20
-4.9047093307086609
11
4.6347829133858269
21
-4.89865062992126
0
LINE
8
BLACK
6
CONTINUOUS
10
4.6347829133858269
20
-4.89865062992126
11
4.6326210629921256
21
-4.8919970472440948
0
LINE
8
BLACK
6
CONTINUOUS
10
4.6326210629921256
20
-4.8919970472440948
11
4.6318897637795278
21
-4.88503937007874
0
LINE
8
BLACK
6
CONTINUOUS
10
4.6318897637795278
20
-4.88503937007874
11
4.6326210629921256
21
-4.8780816929133861
0
LINE
8
BLACK
6
CONTINUOUS
10
4.6326210629921256
20
-4.8780816929133861
11
4.6347829133858269
21
-4.87142811023622
0
LINE
8
BLACK
6
CONTINUOUS
10
4.6347829133858269
20
-4.87142811023622
11
4.63828094488189
21
-4.8653694094488191
0
LINE
8
BLACK
6
CONTINUOUS
10
4.63828094488189
20
-4.8653694094488191
11
4.6429621653543309
21
-4.8601703543307089
0
LINE
8
BLACK
6
CONTINUOUS
10
4.6429621653543309
20
-4.8601703543307089
11
4.6486220472440944
21
-4.8560581889763776
0
LINE
8
BLACK
6
CONTINUOUS
10
4.6486220472440944
20
-4.8560581889763776
11
4.6550132283464567
21
-4.8532126771653541
0
LINE
8
BLACK
6
CONTINUOUS
10
4.6550132283464567
20
-4.8532126771653541
11
4.6618563385826768
21
-4.8517581102362204
0
LINE
8
BLACK
6
CONTINUOUS
10
4.6618563385826768
20
-4.8517581102362204
11
4.6688523228346455
21
-4.8517581102362204
0
LINE
8
BLACK
6
CONTINUOUS
10
4.6688523228346455
20
-4.8517581102362204
11
4.6756954330708664
21
-4.8532126771653541
0
LINE
8
BLACK
6
CONTINUOUS
10
4.5756954330708659
20
-4.7532126771653544
11
4.5820866141732282
21
-4.756058188976378
0
LINE
8
BLACK
6
CONTINUOUS
10
4.5820866141732282
20
-4.756058188976378
11
4.5877464960629917
21
-4.7601703543307083
0
LINE
8
BLACK
6
CONTINUOUS
10
4.5877464960629917
20
-4.7601703543307083
11
4.5924277165354326
21
-4.7653694094488186
0
LINE
8
BLACK
6
CONTINUOUS
10
4.5924277165354326
20
-4.7653694094488186
11
4.5959257480314957
21
-4.7714281102362204
0
LINE
8
BLACK
6
CONTINUOUS
10
4.5959257480314957
20
-4.7714281102362204
11
4.598087598425197
21
-4.7780816929133856
0
LINE
8
BLACK
6
CONTINUOUS
10
4.598087598425197
20
-4.7780816929133856
11
4.5988188976377948
21
-4.7850393700787404
0
LINE
8
BLACK
6
CONTINUOUS
10
4.5988188976377948
20
-4.7850393700787404
11
4.598087598425197
21
-4.7919970472440943
0
LINE
8
BLACK
6
CONTINUOUS
10
4.598087598425197
20
-4.7919970472440943
11
4.5959257480314957
21
-4.7986506299212595
0
LINE
8
BLACK
6
CONTINUOUS
10
4.5959257480314957
20
-4.7986506299212595
11
4.5924277165354326
21
-4.8047093307086612
0
LINE
8
BLACK
6
CONTINUOUS
10
4.5924277165354326
20
-4.8047093307086612
11
4.5877464960629917
21
-4.8099083858267715
0
LINE
8
BLACK
6
CONTINUOUS
10
4.5877464960629917
20
-4.8099083858267715
11
4.5820866141732282
21
-4.8140205511811018
0
LINE
8
BLACK
6
CONTINUOUS
10
4.5820866141732282
20
-4.8140205511811018
11
4.5756954330708659
21
-4.8168660629921263
0
LINE
8
BLACK
6
CONTINUOUS
10
4.5756954330708659
20
-4.8168660629921263
11
4.5688523228346458
21
-4.81832062992126
0
LINE
8
BLACK
6
CONTINUOUS
10
4.5688523228346458
20
-4.81832062992126
11
4.5618563385826771
21
-4.81832062992126
0
LINE
8
BLACK
6
CONTINUOUS
10
4.5618563385826771
20
-4.81832062992126
11
4.5550132283464562
21
-4.8168660629921263
0
LINE
8
BLACK
6
CONTINUOUS
10
4.5550132283464562
20
-4.8168660629921263
11
4.5486220472440948
21
-4.8140205511811018
0
LINE
8
BLACK
6
CONTINUOUS
10
4.5486220472440948
20
-4.8140205511811018
11
4.5429621653543304
21
-4.8099083858267715
0
LINE
8
BLACK
6
CONTINUOUS
10
4.5429621653543304
20
-4.8099083858267715
11
4.5382809448818895
21
-4.8047093307086612
0
LINE
8
BLACK
6
CONTINUOUS
10
4.5382809448818895
20
-4.8047093307086612
11
4.5347829133858264
21
-4.7986506299212595
0
LINE
8
BLACK
6
CONTINUOUS
10
4.5347829133858264
20
-4.7986506299212595
11
4.532621062992126
21
-4.7919970472440943
0
LINE
8
BLACK
6
CONTINUOUS
10
4.532621062992126
20
-4.7919970472440943
11
4.5318897637795272
21
-4.7850393700787404
0
LINE
8
BLACK
6
CONTINUOUS
10
4.5318897637795272
20
-4.7850393700787404
11
4.532621062992126
21
-4.7780816929133856
0
LINE
8
BLACK
6
CONTINUOUS
10
4.532621062992126
20
-4.7780816929133856
11
4.5347829133858264
21
-4.7714281102362204
0
LINE
8
BLACK
6
CONTINUOUS
10
4.5347829133858264
20
-4.7714281102362204
11
4.5382809448818895
21
-4.7653694094488186
0
LINE
8
BLACK
6
CONTINUOUS
10
4.5382809448818895
20
-4.7653694094488186
11
4.5429621653543304
21
-4.7601703543307083
0
LINE
8
BLACK
6
CONTINUOUS
10
4.5429621653543304
20
-4.7601703543307083
11
4.5486220472440948
21
-4.756058188976378
0
LINE
8
BLACK
6
CONTINUOUS
10
4.5486220472440948
20
-4.756058188976378
11
4.5550132283464562
21
-4.7532126771653544
0
LINE
8
BLACK
6
CONTINUOUS
10
4.5550132283464562
20
-4.7532126771653544
11
4.5618563385826771
21
-4.7517581102362207
0
LINE
8
BLACK
6
CONTINUOUS
10
4.5618563385826771
20
-4.7517581102362207
11
4.5688523228346458
21
-4.7517581102362207
0
LINE
8
BLACK
6
CONTINUOUS
10
4.5688523228346458
20
-4.7517581102362207
11
4.5756954330708659
21
-4.7532126771653544
0
LINE
8
BLACK
6
CONTINUOUS
10
4.6756954330708664
20
-4.7532126771653544
11
4.6820866141732278
21
-4.756058188976378
0
LINE
8
BLACK
6
CONTINUOUS
10
4.6820866141732278
20
-4.756058188976378
11
4.6877464960629922
21
-4.7601703543307083
0
LINE
8
BLACK
6
CONTINUOUS
10
4.6877464960629922
20
-4.7601703543307083
11
4.6924277165354331
21
-4.7653694094488186
0
LINE
8
BLACK
6
CONTINUOUS
10
4.6924277165354331
20
-4.7653694094488186
11
4.6959257480314962
21
-4.7714281102362204
0
LINE
8
BLACK
6
CONTINUOUS
10
4.6959257480314962
20
-4.7714281102362204
11
4.6980875984251966
21
-4.7780816929133856
0
LINE
8
BLACK
6
CONTINUOUS
10
4.6980875984251966
20
-4.7780816929133856
11
4.6988188976377954
21
-4.7850393700787404
0
LINE
8
BLACK
6
CONTINUOUS
10
4.6988188976377954
20
-4.7850393700787404
11
4.6980875984251966
21
-4.7919970472440943
0
LINE
8
BLACK
6
CONTINUOUS
10
4.6980875984251966
20
-4.7919970472440943
11
4.6959257480314962
21
-4.7986506299212595
0
LINE
8
BLACK
6
CONTINUOUS
10
4.6959257480314962
20
-4.7986506299212595
11
4.6924277165354331
21
-4.8047093307086612
0
LINE
8
BLACK
6
CONTINUOUS
10
4.6924277165354331
20
-4.8047093307086612
11
4.6877464960629922
21
-4.8099083858267715
0
LINE
8
BLACK
6
CONTINUOUS
10
4.6877464960629922
20
-4.8099083858267715
11
4.6820866141732278
21
-4.8140205511811018
0
LINE
8
BLACK
6
CONTINUOUS
10
4.6820866141732278
20
-4.8140205511811018
11
4.6756954330708664
21
-4.8168660629921263
0
LINE
8
BLACK
6
CONTINUOUS
10
4.6756954330708664
20
-4.8168660629921263
11
4.6688523228346455
21
-4.81832062992126
0
LINE
8
BLACK
6
CONTINUOUS
10
4.6688523228346455
20
-4.81832062992126
11
4.6618563385826768
21
-4.81832062992126
0
LINE
8
BLACK
6
CONTINUOUS
10
4.6618563385826768
20
-4.81832062992126
11
4.6550132283464567
21
-4.8168660629921263
0
LINE
8
BLACK
6
CONTINUOUS
10
4.6550132283464567
20
-4.8168660629921263
11
4.6486220472440944
21
-4.8140205511811018
0
LINE
8
BLACK
6
CONTINUOUS
10
4.6486220472440944
20
-4.8140205511811018
11
4.6429621653543309
21
-4.8099083858267715
0
LINE
8
BLACK
6
CONTINUOUS
10
4.6429621653543309
20
-4.8099083858267715
11
4.63828094488189
21
-4.8047093307086612
0
LINE
8
BLACK
6
CONTINUOUS
10
4.63828094488189
20
-4.8047093307086612
11
4.6347829133858269
21
-4.7986506299212595
0
LINE
8
BLACK
6
CONTINUOUS
10
4.6347829133858269
20
-4.7986506299212595
11
4.6326210629921256
21
-4.7919970472440943
0
LINE
8
BLACK
6
CONTINUOUS
10
4.6326210629921256
20
-4.7919970472440943
11
4.6318897637795278
21
-4.7850393700787404
0
LINE
8
BLACK
6
CONTINUOUS
10
4.6318897637795278
20
-4.7850393700787404
11
4.6326210629921256
21
-4.7780816929133856
0
LINE
8
BLACK
6
CONTINUOUS
10
4.6326210629921256
20
-4.7780816929133856
11
4.6347829133858269
21
-4.7714281102362204
0
LINE
8
BLACK
6
CONTINUOUS
10
4.6347829133858269
20
-4.7714281102362204
11
4.63828094488189
21
-4.7653694094488186
0
LINE
8
BLACK
6
CONTINUOUS
10
4.63828094488189
20
-4.7653694094488186
11
4.6429621653543309
21
-4.7601703543307083
0
LINE
8
BLACK
6
CONTINUOUS
10
4.6429621653543309
20
-4.7601703543307083
11
4.6486220472440944
21
-4.756058188976378
0
LINE
8
BLACK
6
CONTINUOUS
10
4.6486220472440944
20
-4.756058188976378
11
4.6550132283464567
21
-4.7532126771653544
0
LINE
8
BLACK
6
CONTINUOUS
10
4.6550132283464567
20
-4.7532126771653544
11
4.6618563385826768
21
-4.7517581102362207
0
LINE
8
BLACK
6
CONTINUOUS
10
4.6618563385826768
20
-4.7517581102362207
11
4.6688523228346455
21
-4.7517581102362207
0
LINE
8
BLACK
6
CONTINUOUS
10
4.6688523228346455
20
-4.7517581102362207
11
4.6756954330708664
21
-4.7532126771653544
0
LINE
8
BLACK
6
CONTINUOUS
10
4.5756954330708659
20
-4.6532126771653539
11
4.5820866141732282
21
-4.6560581889763775
0
LINE
8
BLACK
6
CONTINUOUS
10
4.5820866141732282
20
-4.6560581889763775
11
4.5877464960629917
21
-4.6601703543307087
0
LINE
8
BLACK
6
CONTINUOUS
10
4.5877464960629917
20
-4.6601703543307087
11
4.5924277165354326
21
-4.6653694094488189
0
LINE
8
BLACK
6
CONTINUOUS
10
4.5924277165354326
20
-4.6653694094488189
11
4.5959257480314957
21
-4.6714281102362207
0
LINE
8
BLACK
6
CONTINUOUS
10
4.5959257480314957
20
-4.6714281102362207
11
4.598087598425197
21
-4.6780816929133859
0
LINE
8
BLACK
6
CONTINUOUS
10
4.598087598425197
20
-4.6780816929133859
11
4.5988188976377948
21
-4.6850393700787398
0
LINE
8
BLACK
6
CONTINUOUS
10
4.5988188976377948
20
-4.6850393700787398
11
4.598087598425197
21
-4.6919970472440946
0
LINE
8
BLACK
6
CONTINUOUS
10
4.598087598425197
20
-4.6919970472440946
11
4.5959257480314957
21
-4.6986506299212598
0
LINE
8
BLACK
6
CONTINUOUS
10
4.5959257480314957
20
-4.6986506299212598
11
4.5924277165354326
21
-4.7047093307086616
0
LINE
8
BLACK
6
CONTINUOUS
10
4.5924277165354326
20
-4.7047093307086616
11
4.5877464960629917
21
-4.7099083858267718
0
LINE
8
BLACK
6
CONTINUOUS
10
4.5877464960629917
20
-4.7099083858267718
11
4.5820866141732282
21
-4.7140205511811022
0
LINE
8
BLACK
6
CONTINUOUS
10
4.5820866141732282
20
-4.7140205511811022
11
4.5756954330708659
21
-4.7168660629921257
0
LINE
8
BLACK
6
CONTINUOUS
10
4.5756954330708659
20
-4.7168660629921257
11
4.5688523228346458
21
-4.7183206299212594
0
LINE
8
BLACK
6
CONTINUOUS
10
4.5688523228346458
20
-4.7183206299212594
11
4.5618563385826771
21
-4.7183206299212594
0
LINE
8
BLACK
6
CONTINUOUS
10
4.5618563385826771
20
-4.7183206299212594
11
4.5550132283464562
21
-4.7168660629921257
0
LINE
8
BLACK
6
CONTINUOUS
10
4.5550132283464562
20
-4.7168660629921257
11
4.5486220472440948
21
-4.7140205511811022
0
LINE
8
BLACK
6
CONTINUOUS
10
4.5486220472440948
20
-4.7140205511811022
11
4.5429621653543304
21
-4.7099083858267718
0
LINE
8
BLACK
6
CONTINUOUS
10
4.5429621653543304
20
-4.7099083858267718
11
4.5382809448818895
21
-4.7047093307086616
0
LINE
8
BLACK
6
CONTINUOUS
10
4.5382809448818895
20
-4.7047093307086616
11
4.5347829133858264
21
-4.6986506299212598
0
LINE
8
BLACK
6
CONTINUOUS
10
4.5347829133858264
20
-4.6986506299212598
11
4.532621062992126
21
-4.6919970472440946
0
LINE
8
BLACK
6
CONTINUOUS
10
4.532621062992126
20
-4.6919970472440946
11
4.5318897637795272
21
-4.6850393700787398
0
LINE
8
BLACK
6
CONTINUOUS
10
4.5318897637795272
20
-4.6850393700787398
11
4.532621062992126
21
-4.6780816929133859
0
LINE
8
BLACK
6
CONTINUOUS
10
4.532621062992126
20
-4.6780816929133859
11
4.5347829133858264
21
-4.6714281102362207
0
LINE
8
BLACK
6
CONTINUOUS
10
4.5347829133858264
20
-4.6714281102362207
11
4.5382809448818895
21
-4.6653694094488189
0
LINE
8
BLACK
6
CONTINUOUS
10
4.5382809448818895
20
-4.6653694094488189
11
4.5429621653543304
21
-4.6601703543307087
0
LINE
8
BLACK
6
CONTINUOUS
10
4.5429621653543304
20
-4.6601703543307087
11
4.5486220472440948
21
-4.6560581889763775
0
LINE
8
BLACK
6
CONTINUOUS
10
4.5486220472440948
20
-4.6560581889763775
11
4.5550132283464562
21
-4.6532126771653539
0
LINE
8
BLACK
6
CONTINUOUS
10
4.5550132283464562
20
-4.6532126771653539
11
4.5618563385826771
21
-4.6517581102362202
0
LINE
8
BLACK
6
CONTINUOUS
10
4.5618563385826771
20
-4.6517581102362202
11
4.5688523228346458
21
-4.6517581102362202
0
LINE
8
BLACK
6
CONTINUOUS
10
4.5688523228346458
20
-4.6517581102362202
11
4.5756954330708659
21
-4.6532126771653539
0
LINE
8
BLACK
6
CONTINUOUS
10
4.6756954330708664
20
-4.6532126771653539
11
4.6820866141732278
21
-4.6560581889763775
0
LINE
8
BLACK
6
CONTINUOUS
10
4.6820866141732278
20
-4.6560581889763775
11
4.6877464960629922
21
-4.6601703543307087
0
LINE
8
BLACK
6
CONTINUOUS
10
4.6877464960629922
20
-4.6601703543307087
11
4.6924277165354331
21
-4.6653694094488189
0
LINE
8
BLACK
6
CONTINUOUS
10
4.6924277165354331
20
-4.6653694094488189
11
4.6959257480314962
21
-4.6714281102362207
0
LINE
8
BLACK
6
CONTINUOUS
10
4.6959257480314962
20
-4.6714281102362207
11
4.6980875984251966
21
-4.6780816929133859
0
LINE
8
BLACK
6
CONTINUOUS
10
4.6980875984251966
20
-4.6780816929133859
11
4.6988188976377954
21
-4.6850393700787398
0
LINE
8
BLACK
6
CONTINUOUS
10
4.6988188976377954
20
-4.6850393700787398
11
4.6980875984251966
21
-4.6919970472440946
0
LINE
8
BLACK
6
CONTINUOUS
10
4.6980875984251966
20
-4.6919970472440946
11
4.6959257480314962
21
-4.6986506299212598
0
LINE
8
BLACK
6
CONTINUOUS
10
4.6959257480314962
20
-4.6986506299212598
11
4.6924277165354331
21
-4.7047093307086616
0
LINE
8
BLACK
6
CONTINUOUS
10
4.6924277165354331
20
-4.7047093307086616
11
4.6877464960629922
21
-4.7099083858267718
0
LINE
8
BLACK
6
CONTINUOUS
10
4.6877464960629922
20
-4.7099083858267718
11
4.6820866141732278
21
-4.7140205511811022
0
LINE
8
BLACK
6
CONTINUOUS
10
4.6820866141732278
20
-4.7140205511811022
11
4.6756954330708664
21
-4.7168660629921257
0
LINE
8
BLACK
6
CONTINUOUS
10
4.6756954330708664
20
-4.7168660629921257
11
4.6688523228346455
21
-4.7183206299212594
0
LINE
8
BLACK
6
CONTINUOUS
10
4.6688523228346455
20
-4.7183206299212594
11
4.6618563385826768
21
-4.7183206299212594
0
LINE
8
BLACK
6
CONTINUOUS
10
4.6618563385826768
20
-4.7183206299212594
11
4.6550132283464567
21
-4.7168660629921257
0
LINE
8
BLACK
6
CONTINUOUS
10
4.6550132283464567
20
-4.7168660629921257
11
4.6486220472440944
21
-4.7140205511811022
0
LINE
8
BLACK
6
CONTINUOUS
10
4.6486220472440944
20
-4.7140205511811022
11
4.6429621653543309
21
-4.7099083858267718
0
LINE
8
BLACK
6
CONTINUOUS
10
4.6429621653543309
20
-4.7099083858267718
11
4.63828094488189
21
-4.7047093307086616
0
LINE
8
BLACK
6
CONTINUOUS
10
4.63828094488189
20
-4.7047093307086616
11
4.6347829133858269
21
-4.6986506299212598
0
LINE
8
BLACK
6
CONTINUOUS
10
4.6347829133858269
20
-4.6986506299212598
11
4.6326210629921256
21
-4.6919970472440946
0
LINE
8
BLACK
6
CONTINUOUS
10
4.6326210629921256
20
-4.6919970472440946
11
4.6318897637795278
21
-4.6850393700787398
0
LINE
8
BLACK
6
CONTINUOUS
10
4.6318897637795278
20
-4.6850393700787398
11
4.6326210629921256
21
-4.6780816929133859
0
LINE
8
BLACK
6
CONTINUOUS
10
4.6326210629921256
20
-4.6780816929133859
11
4.6347829133858269
21
-4.6714281102362207
0
LINE
8
BLACK
6
CONTINUOUS
10
4.6347829133858269
20
-4.6714281102362207
11
4.63828094488189
21
-4.6653694094488189
0
LINE
8
BLACK
6
CONTINUOUS
10
4.63828094488189
20
-4.6653694094488189
11
4.6429621653543309
21
-4.6601703543307087
0
LINE
8
BLACK
6
CONTINUOUS
10
4.6429621653543309
20
-4.6601703543307087
11
4.6486220472440944
21
-4.6560581889763775
0
LINE
8
BLACK
6
CONTINUOUS
10
4.6486220472440944
20
-4.6560581889763775
11
4.6550132283464567
21
-4.6532126771653539
0
LINE
8
BLACK
6
CONTINUOUS
10
4.6550132283464567
20
-4.6532126771653539
11
4.6618563385826768
21
-4.6517581102362202
0
LINE
8
BLACK
6
CONTINUOUS
10
4.6618563385826768
20
-4.6517581102362202
11
4.6688523228346455
21
-4.6517581102362202
0
LINE
8
BLACK
6
CONTINUOUS
10
4.6688523228346455
20
-4.6517581102362202
11
4.6756954330708664
21
-4.6532126771653539
0
LINE
8
BLACK
6
CONTINUOUS
10
4.1967723228346454
20
-4.2749927165354329
11
4.2043419291338582
21
-4.2764984251968503
0
LINE
8
BLACK
6
CONTINUOUS
10
4.2043419291338582
20
-4.2764984251968503
11
4.2114723228346458
21
-4.2794519291338577
0
LINE
8
BLACK
6
CONTINUOUS
10
4.2114723228346458
20
-4.2794519291338577
11
4.2178894881889759
21
-4.2837397637795274
0
LINE
8
BLACK
6
CONTINUOUS
10
4.2178894881889759
20
-4.2837397637795274
11
4.2233468503937006
21
-4.2891971259842521
0
LINE
8
BLACK
6
CONTINUOUS
10
4.2233468503937006
20
-4.2891971259842521
11
4.2276346850393702
21
-4.2956142913385822
0
LINE
8
BLACK
6
CONTINUOUS
10
4.2276346850393702
20
-4.2956142913385822
11
4.2305881889763777
21
-4.3027446850393698
0
LINE
8
BLACK
6
CONTINUOUS
10
4.2305881889763777
20
-4.3027446850393698
11
4.2320938976377951
21
-4.3103142913385826
0
LINE
8
BLACK
6
CONTINUOUS
10
4.2320938976377951
20
-4.3103142913385826
11
4.2320938976377951
21
-4.3180321653543308
0
LINE
8
BLACK
6
CONTINUOUS
10
4.2320938976377951
20
-4.3180321653543308
11
4.2305881889763777
21
-4.3256017716535435
0
LINE
8
BLACK
6
CONTINUOUS
10
4.2305881889763777
20
-4.3256017716535435
11
4.2276346850393702
21
-4.3327321653543303
0
LINE
8
BLACK
6
CONTINUOUS
10
4.2276346850393702
20
-4.3327321653543303
11
4.2233468503937006
21
-4.3391493307086613
0
LINE
8
BLACK
6
CONTINUOUS
10
4.2233468503937006
20
-4.3391493307086613
11
4.2178894881889759
21
-4.344606692913386
0
LINE
8
BLACK
6
CONTINUOUS
10
4.2178894881889759
20
-4.344606692913386
11
4.2114723228346458
21
-4.3488945275590547
0
LINE
8
BLACK
6
CONTINUOUS
10
4.2114723228346458
20
-4.3488945275590547
11
4.2043419291338582
21
-4.351848031496063
0
LINE
8
BLACK
6
CONTINUOUS
10
4.2043419291338582
20
-4.351848031496063
11
4.1967723228346454
21
-4.3533537401574804
0
LINE
8
BLACK
6
CONTINUOUS
10
4.1967723228346454
20
-4.3533537401574804
11
4.1929133858267713
21
-4.3535433070866141
0
LINE
8
BLACK
6
CONTINUOUS
10
4.1929133858267713
20
-4.3535433070866141
11
4.0748031496062991
21
-4.3535433070866141
0
LINE
8
BLACK
6
CONTINUOUS
10
4.0748031496062991
20
-4.3535433070866141
11
4.070944212598425
21
-4.3533537401574804
0
LINE
8
BLACK
6
CONTINUOUS
10
4.070944212598425
20
-4.3533537401574804
11
4.0633746062992122
21
-4.351848031496063
0
LINE
8
BLACK
6
CONTINUOUS
10
4.0633746062992122
20
-4.351848031496063
11
4.0562442125984255
21
-4.3488945275590547
0
LINE
8
BLACK
6
CONTINUOUS
10
4.0562442125984255
20
-4.3488945275590547
11
4.0498270472440945
21
-4.344606692913386
0
LINE
8
BLACK
6
CONTINUOUS
10
4.0498270472440945
20
-4.344606692913386
11
4.0443696850393698
21
-4.3391493307086613
0
LINE
8
BLACK
6
CONTINUOUS
10
4.0443696850393698
20
-4.3391493307086613
11
4.040081850393701
21
-4.3327321653543303
0
LINE
8
BLACK
6
CONTINUOUS
10
4.040081850393701
20
-4.3327321653543303
11
4.0371283464566927
21
-4.3256017716535435
0
LINE
8
BLACK
6
CONTINUOUS
10
4.0371283464566927
20
-4.3256017716535435
11
4.0356226377952753
21
-4.3180321653543308
0
LINE
8
BLACK
6
CONTINUOUS
10
4.0356226377952753
20
-4.3180321653543308
11
4.0356226377952753
21
-4.3103142913385826
0
LINE
8
BLACK
6
CONTINUOUS
10
4.0356226377952753
20
-4.3103142913385826
11
4.0371283464566927
21
-4.3027446850393698
0
LINE
8
BLACK
6
CONTINUOUS
10
4.0371283464566927
20
-4.3027446850393698
11
4.040081850393701
21
-4.2956142913385822
0
LINE
8
BLACK
6
CONTINUOUS
10
4.040081850393701
20
-4.2956142913385822
11
4.0443696850393698
21
-4.2891971259842521
0
LINE
8
BLACK
6
CONTINUOUS
10
4.0443696850393698
20
-4.2891971259842521
11
4.0498270472440945
21
-4.2837397637795274
0
LINE
8
BLACK
6
CONTINUOUS
10
4.0498270472440945
20
-4.2837397637795274
11
4.0562442125984255
21
-4.2794519291338577
0
LINE
8
BLACK
6
CONTINUOUS
10
4.0562442125984255
20
-4.2794519291338577
11
4.0633746062992122
21
-4.2764984251968503
0
LINE
8
BLACK
6
CONTINUOUS
10
4.0633746062992122
20
-4.2764984251968503
11
4.070944212598425
21
-4.2749927165354329
0
LINE
8
BLACK
6
CONTINUOUS
10
4.070944212598425
20
-4.2749927165354329
11
4.0748031496062991
21
-4.2748031496062993
0
LINE
8
BLACK
6
CONTINUOUS
10
4.0748031496062991
20
-4.2748031496062993
11
4.1929133858267713
21
-4.2748031496062993
0
LINE
8
BLACK
6
CONTINUOUS
10
4.1929133858267713
20
-4.2748031496062993
11
4.1967723228346454
21
-4.2749927165354329
0
LINE
8
BLACK
6
CONTINUOUS
10
5.0785468503937006
20
-4.2113864173228341
11
5.0859324015748033
21
-4.2136267716535434
0
LINE
8
BLACK
6
CONTINUOUS
10
5.0859324015748033
20
-4.2136267716535434
11
5.0927389763779525
21
-4.2172649606299215
0
LINE
8
BLACK
6
CONTINUOUS
10
5.0927389763779525
20
-4.2172649606299215
11
5.0987049999999998
21
-4.2221611417322835
0
LINE
8
BLACK
6
CONTINUOUS
10
5.0987049999999998
20
-4.2221611417322835
11
5.1036011811023618
21
-4.2281271653543309
0
LINE
8
BLACK
6
CONTINUOUS
10
5.1036011811023618
20
-4.2281271653543309
11
5.10723937007874
21
-4.23493374015748
0
LINE
8
BLACK
6
CONTINUOUS
10
5.10723937007874
20
-4.23493374015748
11
5.1094797244094483
21
-4.2423192913385828
0
LINE
8
BLACK
6
CONTINUOUS
10
5.1094797244094483
20
-4.2423192913385828
11
5.1102362204724407
21
-4.25
0
LINE
8
BLACK
6
CONTINUOUS
10
5.1102362204724407
20
-4.25
11
5.1094797244094483
21
-4.2576807086614172
0
LINE
8
BLACK
6
CONTINUOUS
10
5.1094797244094483
20
-4.2576807086614172
11
5.10723937007874
21
-4.26506625984252
0
LINE
8
BLACK
6
CONTINUOUS
10
5.10723937007874
20
-4.26506625984252
11
5.1036011811023618
21
-4.2718728346456691
0
LINE
8
BLACK
6
CONTINUOUS
10
5.1036011811023618
20
-4.2718728346456691
11
5.0987049999999998
21
-4.2778388582677165
0
LINE
8
BLACK
6
CONTINUOUS
10
5.0987049999999998
20
-4.2778388582677165
11
5.0927389763779525
21
-4.2827350393700785
0
LINE
8
BLACK
6
CONTINUOUS
10
5.0927389763779525
20
-4.2827350393700785
11
5.0859324015748033
21
-4.2863732283464566
0
LINE
8
BLACK
6
CONTINUOUS
10
5.0859324015748033
20
-4.2863732283464566
11
5.0785468503937006
21
-4.288613582677165
0
LINE
8
BLACK
6
CONTINUOUS
10
5.0785468503937006
20
-4.288613582677165
11
5.0708661417322833
21
-4.2893700787401574
0
LINE
8
BLACK
6
CONTINUOUS
10
5.0708661417322833
20
-4.2893700787401574
11
5.0631854330708661
21
-4.288613582677165
0
LINE
8
BLACK
6
CONTINUOUS
10
5.0631854330708661
20
-4.288613582677165
11
5.0557998818897634
21
-4.2863732283464566
0
LINE
8
BLACK
6
CONTINUOUS
10
5.0557998818897634
20
-4.2863732283464566
11
5.0489933070866142
21
-4.2827350393700785
0
LINE
8
BLACK
6
CONTINUOUS
10
5.0489933070866142
20
-4.2827350393700785
11
5.0430272834645669
21
-4.2778388582677165
0
LINE
8
BLACK
6
CONTINUOUS
10
5.0430272834645669
20
-4.2778388582677165
11
5.0381311023622048
21
-4.2718728346456691
0
LINE
8
BLACK
6
CONTINUOUS
10
5.0381311023622048
20
-4.2718728346456691
11
5.0344929133858267
21
-4.26506625984252
0
LINE
8
BLACK
6
CONTINUOUS
10
5.0344929133858267
20
-4.26506625984252
11
5.0322525590551184
21
-4.2576807086614172
0
LINE
8
BLACK
6
CONTINUOUS
10
5.0322525590551184
20
-4.2576807086614172
11
5.0314960629921259
21
-4.25
0
LINE
8
BLACK
6
CONTINUOUS
10
5.0314960629921259
20
-4.25
11
5.0322525590551184
21
-4.2423192913385828
0
LINE
8
BLACK
6
CONTINUOUS
10
5.0322525590551184
20
-4.2423192913385828
11
5.0344929133858267
21
-4.23493374015748
0
LINE
8
BLACK
6
CONTINUOUS
10
5.0344929133858267
20
-4.23493374015748
11
5.0381311023622048
21
-4.2281271653543309
0
LINE
8
BLACK
6
CONTINUOUS
10
5.0381311023622048
20
-4.2281271653543309
11
5.0430272834645669
21
-4.2221611417322835
0
LINE
8
BLACK
6
CONTINUOUS
10
5.0430272834645669
20
-4.2221611417322835
11
5.0489933070866142
21
-4.2172649606299215
0
LINE
8
BLACK
6
CONTINUOUS
10
5.0489933070866142
20
-4.2172649606299215
11
5.0557998818897634
21
-4.2136267716535434
0
LINE
8
BLACK
6
CONTINUOUS
10
5.0557998818897634
20
-4.2136267716535434
11
5.0631854330708661
21
-4.2113864173228341
0
LINE
8
BLACK
6
CONTINUOUS
10
5.0631854330708661
20
-4.2113864173228341
11
5.0708661417322833
21
-4.2106299212598426
0
LINE
8
BLACK
6
CONTINUOUS
10
5.0708661417322833
20
-4.2106299212598426
11
5.0785468503937006
21
-4.2113864173228341
0
LINE
8
BLACK
6
CONTINUOUS
10
5.2124051181102358
20
-4.2113864173228341
11
5.2197906692913385
21
-4.2136267716535434
0
LINE
8
BLACK
6
CONTINUOUS
10
5.2197906692913385
20
-4.2136267716535434
11
5.2265972440944877
21
-4.2172649606299215
0
LINE
8
BLACK
6
CONTINUOUS
10
5.2265972440944877
20
-4.2172649606299215
11
5.232563267716535
21
-4.2221611417322835
0
LINE
8
BLACK
6
CONTINUOUS
10
5.232563267716535
20
-4.2221611417322835
11
5.2374594488188979
21
-4.2281271653543309
0
LINE
8
BLACK
6
CONTINUOUS
10
5.2374594488188979
20
-4.2281271653543309
11
5.2410976377952752
21
-4.23493374015748
0
LINE
8
BLACK
6
CONTINUOUS
10
5.2410976377952752
20
-4.23493374015748
11
5.2433379921259844
21
-4.2423192913385828
0
LINE
8
BLACK
6
CONTINUOUS
10
5.2433379921259844
20
-4.2423192913385828
11
5.2440944881889759
21
-4.25
0
LINE
8
BLACK
6
CONTINUOUS
10
5.2440944881889759
20
-4.25
11
5.2433379921259844
21
-4.2576807086614172
0
LINE
8
BLACK
6
CONTINUOUS
10
5.2433379921259844
20
-4.2576807086614172
11
5.2410976377952752
21
-4.26506625984252
0
LINE
8
BLACK
6
CONTINUOUS
10
5.2410976377952752
20
-4.26506625984252
11
5.2374594488188979
21
-4.2718728346456691
0
LINE
8
BLACK
6
CONTINUOUS
10
5.2374594488188979
20
-4.2718728346456691
11
5.232563267716535
21
-4.2778388582677165
0
LINE
8
BLACK
6
CONTINUOUS
10
5.232563267716535
20
-4.2778388582677165
11
5.2265972440944877
21
-4.2827350393700785
0
LINE
8
BLACK
6
CONTINUOUS
10
5.2265972440944877
20
-4.2827350393700785
11
5.2197906692913385
21
-4.2863732283464566
0
LINE
8
BLACK
6
CONTINUOUS
10
5.2197906692913385
20
-4.2863732283464566
11
5.2124051181102358
21
-4.288613582677165
0
LINE
8
BLACK
6
CONTINUOUS
10
5.2124051181102358
20
-4.288613582677165
11
5.2047244094488185
21
-4.2893700787401574
0
LINE
8
BLACK
6
CONTINUOUS
10
5.2047244094488185
20
-4.2893700787401574
11
5.1970437007874013
21
-4.288613582677165
0
LINE
8
BLACK
6
CONTINUOUS
10
5.1970437007874013
20
-4.288613582677165
11
5.1896581496062995
21
-4.2863732283464566
0
LINE
8
BLACK
6
CONTINUOUS
10
5.1896581496062995
20
-4.2863732283464566
11
5.1828515748031494
21
-4.2827350393700785
0
LINE
8
BLACK
6
CONTINUOUS
10
5.1828515748031494
20
-4.2827350393700785
11
5.1768855511811021
21
-4.2778388582677165
0
LINE
8
BLACK
6
CONTINUOUS
10
5.1768855511811021
20
-4.2778388582677165
11
5.17198937007874
21
-4.2718728346456691
0
LINE
8
BLACK
6
CONTINUOUS
10
5.17198937007874
20
-4.2718728346456691
11
5.1683511811023619
21
-4.26506625984252
0
LINE
8
BLACK
6
CONTINUOUS
10
5.1683511811023619
20
-4.26506625984252
11
5.1661108267716536
21
-4.2576807086614172
0
LINE
8
BLACK
6
CONTINUOUS
10
5.1661108267716536
20
-4.2576807086614172
11
5.1653543307086611
21
-4.25
0
LINE
8
BLACK
6
CONTINUOUS
10
5.1653543307086611
20
-4.25
11
5.1661108267716536
21
-4.2423192913385828
0
LINE
8
BLACK
6
CONTINUOUS
10
5.1661108267716536
20
-4.2423192913385828
11
5.1683511811023619
21
-4.23493374015748
0
LINE
8
BLACK
6
CONTINUOUS
10
5.1683511811023619
20
-4.23493374015748
11
5.17198937007874
21
-4.2281271653543309
0
LINE
8
BLACK
6
CONTINUOUS
10
5.17198937007874
20
-4.2281271653543309
11
5.1768855511811021
21
-4.2221611417322835
0
LINE
8
BLACK
6
CONTINUOUS
10
5.1768855511811021
20
-4.2221611417322835
11
5.1828515748031494
21
-4.2172649606299215
0
LINE
8
BLACK
6
CONTINUOUS
10
5.1828515748031494
20
-4.2172649606299215
11
5.1896581496062995
21
-4.2136267716535434
0
LINE
8
BLACK
6
CONTINUOUS
10
5.1896581496062995
20
-4.2136267716535434
11
5.1970437007874013
21
-4.2113864173228341
0
LINE
8
BLACK
6
CONTINUOUS
10
5.1970437007874013
20
-4.2113864173228341
11
5.2047244094488185
21
-4.2106299212598426
0
LINE
8
BLACK
6
CONTINUOUS
10
5.2047244094488185
20
-4.2106299212598426
11
5.2124051181102358
21
-4.2113864173228341
0
LINE
8
BLACK
6
CONTINUOUS
10
4.1457098031496065
20
-4.1725193700787404
11
4.1531618897637799
21
-4.1754062992125984
0
LINE
8
BLACK
6
CONTINUOUS
10
4.1531618897637799
20
-4.1754062992125984
11
4.159956614173228
21
-4.17961342519685
0
LINE
8
BLACK
6
CONTINUOUS
10
4.159956614173228
20
-4.17961342519685
11
4.1658625984251971
21
-4.1849974409448816
0
LINE
8
BLACK
6
CONTINUOUS
10
4.1658625984251971
20
-4.1849974409448816
11
4.1706787007874011
21
-4.1913749999999999
0
LINE
8
BLACK
6
CONTINUOUS
10
4.1706787007874011
20
-4.1913749999999999
11
4.1742409055118106
21
-4.1985288976377948
0
LINE
8
BLACK
6
CONTINUOUS
10
4.1742409055118106
20
-4.1985288976377948
11
4.1764279527559056
21
-4.2062155905511807
0
LINE
8
BLACK
6
CONTINUOUS
10
4.1764279527559056
20
-4.2062155905511807
11
4.1771653543307083
21
-4.214173228346457
0
LINE
8
BLACK
6
CONTINUOUS
10
4.1771653543307083
20
-4.214173228346457
11
4.1764279527559056
21
-4.2221308661417325
0
LINE
8
BLACK
6
CONTINUOUS
10
4.1764279527559056
20
-4.2221308661417325
11
4.1742409055118106
21
-4.2298175590551184
0
LINE
8
BLACK
6
CONTINUOUS
10
4.1742409055118106
20
-4.2298175590551184
11
4.1706787007874011
21
-4.2369714566929133
0
LINE
8
BLACK
6
CONTINUOUS
10
4.1706787007874011
20
-4.2369714566929133
11
4.1658625984251971
21
-4.2433490157480316
0
LINE
8
BLACK
6
CONTINUOUS
10
4.1658625984251971
20
-4.2433490157480316
11
4.159956614173228
21
-4.2487330314960632
0
LINE
8
BLACK
6
CONTINUOUS
10
4.159956614173228
20
-4.2487330314960632
11
4.1531618897637799
21
-4.2529401574803147
0
LINE
8
BLACK
6
CONTINUOUS
10
4.1531618897637799
20
-4.2529401574803147
11
4.1457098031496065
21
-4.2558270866141727
0
LINE
8
BLACK
6
CONTINUOUS
10
4.1457098031496065
20
-4.2558270866141727
11
4.1378541338582675
21
-4.2572955905511813
0
LINE
8
BLACK
6
CONTINUOUS
10
4.1378541338582675
20
-4.2572955905511813
11
4.1298624015748029
21
-4.2572955905511813
0
LINE
8
BLACK
6
CONTINUOUS
10
4.1298624015748029
20
-4.2572955905511813
11
4.1220067322834648
21
-4.2558270866141727
0
LINE
8
BLACK
6
CONTINUOUS
10
4.1220067322834648
20
-4.2558270866141727
11
4.1145546456692914
21
-4.2529401574803147
0
LINE
8
BLACK
6
CONTINUOUS
10
4.1145546456692914
20
-4.2529401574803147
11
4.1077599212598424
21
-4.2487330314960632
0
LINE
8
BLACK
6
CONTINUOUS
10
4.1077599212598424
20
-4.2487330314960632
11
4.1018539370078742
21
-4.2433490157480316
0
LINE
8
BLACK
6
CONTINUOUS
10
4.1018539370078742
20
-4.2433490157480316
11
4.0970378346456693
21
-4.2369714566929133
0
LINE
8
BLACK
6
CONTINUOUS
10
4.0970378346456693
20
-4.2369714566929133
11
4.0934756299212598
21
-4.2298175590551184
0
LINE
8
BLACK
6
CONTINUOUS
10
4.0934756299212598
20
-4.2298175590551184
11
4.0912885826771657
21
-4.2221308661417325
0
LINE
8
BLACK
6
CONTINUOUS
10
4.0912885826771657
20
-4.2221308661417325
11
4.090551181102362
21
-4.214173228346457
0
LINE
8
BLACK
6
CONTINUOUS
10
4.090551181102362
20
-4.214173228346457
11
4.0912885826771657
21
-4.2062155905511807
0
LINE
8
BLACK
6
CONTINUOUS
10
4.0912885826771657
20
-4.2062155905511807
11
4.0934756299212598
21
-4.1985288976377948
0
LINE
8
BLACK
6
CONTINUOUS
10
4.0934756299212598
20
-4.1985288976377948
11
4.0970378346456693
21
-4.1913749999999999
0
LINE
8
BLACK
6
CONTINUOUS
10
4.0970378346456693
20
-4.1913749999999999
11
4.1018539370078742
21
-4.1849974409448816
0
LINE
8
BLACK
6
CONTINUOUS
10
4.1018539370078742
20
-4.1849974409448816
11
4.1077599212598424
21
-4.17961342519685
0
LINE
8
BLACK
6
CONTINUOUS
10
4.1077599212598424
20
-4.17961342519685
11
4.1145546456692914
21
-4.1754062992125984
0
LINE
8
BLACK
6
CONTINUOUS
10
4.1145546456692914
20
-4.1754062992125984
11
4.1220067322834648
21
-4.1725193700787404
0
LINE
8
BLACK
6
CONTINUOUS
10
4.1220067322834648
20
-4.1725193700787404
11
4.1298624015748029
21
-4.1710508661417318
0
LINE
8
BLACK
6
CONTINUOUS
10
4.1298624015748029
20
-4.1710508661417318
11
4.1378541338582675
21
-4.1710508661417318
0
LINE
8
BLACK
6
CONTINUOUS
10
4.1378541338582675
20
-4.1710508661417318
11
4.1457098031496065
21
-4.1725193700787404
0
LINE
8
BLACK
6
CONTINUOUS
10
5.1465207874015748
20
-4.1895911417322838
11
5.1517732283464568
21
-4.1923478346456688
0
LINE
8
BLACK
6
CONTINUOUS
10
5.1517732283464568
20
-4.1923478346456688
11
5.1562133464566928
21
-4.1962814173228349
0
LINE
8
BLACK
6
CONTINUOUS
10
5.1562133464566928
20
-4.1962814173228349
11
5.1595830708661419
21
-4.2011633070866141
0
LINE
8
BLACK
6
CONTINUOUS
10
5.1595830708661419
20
-4.2011633070866141
11
5.1616865748031495
21
-4.2067097637795277
0
LINE
8
BLACK
6
CONTINUOUS
10
5.1616865748031495
20
-4.2067097637795277
11
5.1624015748031491
21
-4.21259842519685
0
LINE
8
BLACK
6
CONTINUOUS
10
5.1624015748031491
20
-4.21259842519685
11
5.1616865748031495
21
-4.2184870866141733
0
LINE
8
BLACK
6
CONTINUOUS
10
5.1616865748031495
20
-4.2184870866141733
11
5.1595830708661419
21
-4.2240335433070868
0
LINE
8
BLACK
6
CONTINUOUS
10
5.1595830708661419
20
-4.2240335433070868
11
5.1562133464566928
21
-4.228915433070866
0
LINE
8
BLACK
6
CONTINUOUS
10
5.1562133464566928
20
-4.228915433070866
11
5.1517732283464568
21
-4.2328490157480312
0
LINE
8
BLACK
6
CONTINUOUS
10
5.1517732283464568
20
-4.2328490157480312
11
5.1465207874015748
21
-4.2356057086614172
0
LINE
8
BLACK
6
CONTINUOUS
10
5.1465207874015748
20
-4.2356057086614172
11
5.1407612204724407
21
-4.2370253149606301
0
LINE
8
BLACK
6
CONTINUOUS
10
5.1407612204724407
20
-4.2370253149606301
11
5.1348293307086612
21
-4.2370253149606301
0
LINE
8
BLACK
6
CONTINUOUS
10
5.1348293307086612
20
-4.2370253149606301
11
5.1290697637795271
21
-4.2356057086614172
0
LINE
8
BLACK
6
CONTINUOUS
10
5.1290697637795271
20
-4.2356057086614172
11
5.123817322834646
21
-4.2328490157480312
0
LINE
8
BLACK
6
CONTINUOUS
10
5.123817322834646
20
-4.2328490157480312
11
5.119377204724409
21
-4.228915433070866
0
LINE
8
BLACK
6
CONTINUOUS
10
5.119377204724409
20
-4.228915433070866
11
5.1160074803149609
21
-4.2240335433070868
0
LINE
8
BLACK
6
CONTINUOUS
10
5.1160074803149609
20
-4.2240335433070868
11
5.1139039763779524
21
-4.2184870866141733
0
LINE
8
BLACK
6
CONTINUOUS
10
5.1139039763779524
20
-4.2184870866141733
11
5.1131889763779528
21
-4.21259842519685
0
LINE
8
BLACK
6
CONTINUOUS
10
5.1131889763779528
20
-4.21259842519685
11
5.1139039763779524
21
-4.2067097637795277
0
LINE
8
BLACK
6
CONTINUOUS
10
5.1139039763779524
20
-4.2067097637795277
11
5.1160074803149609
21
-4.2011633070866141
0
LINE
8
BLACK
6
CONTINUOUS
10
5.1160074803149609
20
-4.2011633070866141
11
5.119377204724409
21
-4.1962814173228349
0
LINE
8
BLACK
6
CONTINUOUS
10
5.119377204724409
20
-4.1962814173228349
11
5.123817322834646
21
-4.1923478346456688
0
LINE
8
BLACK
6
CONTINUOUS
10
5.123817322834646
20
-4.1923478346456688
11
5.1290697637795271
21
-4.1895911417322838
0
LINE
8
BLACK
6
CONTINUOUS
10
5.1290697637795271
20
-4.1895911417322838
11
5.1348293307086612
21
-4.1881715354330709
0
LINE
8
BLACK
6
CONTINUOUS
10
5.1348293307086612
20
-4.1881715354330709
11
5.1407612204724407
21
-4.1881715354330709
0
LINE
8
BLACK
6
CONTINUOUS
10
5.1407612204724407
20
-4.1881715354330709
11
5.1465207874015748
21
-4.1895911417322838
0
LINE
8
BLACK
6
CONTINUOUS
10
5.0785468503937006
20
-4.083433661417323
11
5.0859324015748033
21
-4.0856740157480314
0
LINE
8
BLACK
6
CONTINUOUS
10
5.0859324015748033
20
-4.0856740157480314
11
5.0927389763779525
21
-4.0893122047244095
0
LINE
8
BLACK
6
CONTINUOUS
10
5.0927389763779525
20
-4.0893122047244095
11
5.0987049999999998
21
-4.0942083858267715
0
LINE
8
BLACK
6
CONTINUOUS
10
5.0987049999999998
20
-4.0942083858267715
11
5.1036011811023618
21
-4.1001744094488188
0
LINE
8
BLACK
6
CONTINUOUS
10
5.1036011811023618
20
-4.1001744094488188
11
5.10723937007874
21
-4.106980984251968
0
LINE
8
BLACK
6
CONTINUOUS
10
5.10723937007874
20
-4.106980984251968
11
5.1094797244094483
21
-4.1143665354330707
0
LINE
8
BLACK
6
CONTINUOUS
10
5.1094797244094483
20
-4.1143665354330707
11
5.1102362204724407
21
-4.122047244094488
0
LINE
8
BLACK
6
CONTINUOUS
10
5.1102362204724407
20
-4.122047244094488
11
5.1094797244094483
21
-4.1297279527559052
0
LINE
8
BLACK
6
CONTINUOUS
10
5.1094797244094483
20
-4.1297279527559052
11
5.10723937007874
21
-4.1371135039370079
0
LINE
8
BLACK
6
CONTINUOUS
10
5.10723937007874
20
-4.1371135039370079
11
5.1036011811023618
21
-4.1439200787401571
0
LINE
8
BLACK
6
CONTINUOUS
10
5.1036011811023618
20
-4.1439200787401571
11
5.0987049999999998
21
-4.1498861023622045
0
LINE
8
BLACK
6
CONTINUOUS
10
5.0987049999999998
20
-4.1498861023622045
11
5.0927389763779525
21
-4.1547822834645665
0
LINE
8
BLACK
6
CONTINUOUS
10
5.0927389763779525
20
-4.1547822834645665
11
5.0859324015748033
21
-4.1584204724409446
0
LINE
8
BLACK
6
CONTINUOUS
10
5.0859324015748033
20
-4.1584204724409446
11
5.0785468503937006
21
-4.1606608267716538
0
LINE
8
BLACK
6
CONTINUOUS
10
5.0785468503937006
20
-4.1606608267716538
11
5.0708661417322833
21
-4.1614173228346454
0
LINE
8
BLACK
6
CONTINUOUS
10
5.0708661417322833
20
-4.1614173228346454
11
5.0631854330708661
21
-4.1606608267716538
0
LINE
8
BLACK
6
CONTINUOUS
10
5.0631854330708661
20
-4.1606608267716538
11
5.0557998818897634
21
-4.1584204724409446
0
LINE
8
BLACK
6
CONTINUOUS
10
5.0557998818897634
20
-4.1584204724409446
11
5.0489933070866142
21
-4.1547822834645665
0
LINE
8
BLACK
6
CONTINUOUS
10
5.0489933070866142
20
-4.1547822834645665
11
5.0430272834645669
21
-4.1498861023622045
0
LINE
8
BLACK
6
CONTINUOUS
10
5.0430272834645669
20
-4.1498861023622045
11
5.0381311023622048
21
-4.1439200787401571
0
LINE
8
BLACK
6
CONTINUOUS
10
5.0381311023622048
20
-4.1439200787401571
11
5.0344929133858267
21
-4.1371135039370079
0
LINE
8
BLACK
6
CONTINUOUS
10
5.0344929133858267
20
-4.1371135039370079
11
5.0322525590551184
21
-4.1297279527559052
0
LINE
8
BLACK
6
CONTINUOUS
10
5.0322525590551184
20
-4.1297279527559052
11
5.0314960629921259
21
-4.122047244094488
0
LINE
8
BLACK
6
CONTINUOUS
10
5.0314960629921259
20
-4.122047244094488
11
5.0322525590551184
21
-4.1143665354330707
0
LINE
8
BLACK
6
CONTINUOUS
10
5.0322525590551184
20
-4.1143665354330707
11
5.0344929133858267
21
-4.106980984251968
0
LINE
8
BLACK
6
CONTINUOUS
10
5.0344929133858267
20
-4.106980984251968
11
5.0381311023622048
21
-4.1001744094488188
0
LINE
8
BLACK
6
CONTINUOUS
10
5.0381311023622048
20
-4.1001744094488188
11
5.0430272834645669
21
-4.0942083858267715
0
LINE
8
BLACK
6
CONTINUOUS
10
5.0430272834645669
20
-4.0942083858267715
11
5.0489933070866142
21
-4.0893122047244095
0
LINE
8
BLACK
6
CONTINUOUS
10
5.0489933070866142
20
-4.0893122047244095
11
5.0557998818897634
21
-4.0856740157480314
0
LINE
8
BLACK
6
CONTINUOUS
10
5.0557998818897634
20
-4.0856740157480314
11
5.0631854330708661
21
-4.083433661417323
0
LINE
8
BLACK
6
CONTINUOUS
10
5.0631854330708661
20
-4.083433661417323
11
5.0708661417322833
21
-4.0826771653543306
0
LINE
8
BLACK
6
CONTINUOUS
10
5.0708661417322833
20
-4.0826771653543306
11
5.0785468503937006
21
-4.083433661417323
0
LINE
8
BLACK
6
CONTINUOUS
10
5.2124051181102358
20
-4.083433661417323
11
5.2197906692913385
21
-4.0856740157480314
0
LINE
8
BLACK
6
CONTINUOUS
10
5.2197906692913385
20
-4.0856740157480314
11
5.2265972440944877
21
-4.0893122047244095
0
LINE
8
BLACK
6
CONTINUOUS
10
5.2265972440944877
20
-4.0893122047244095
11
5.232563267716535
21
-4.0942083858267715
0
LINE
8
BLACK
6
CONTINUOUS
10
5.232563267716535
20
-4.0942083858267715
11
5.2374594488188979
21
-4.1001744094488188
0
LINE
8
BLACK
6
CONTINUOUS
10
5.2374594488188979
20
-4.1001744094488188
11
5.2410976377952752
21
-4.106980984251968
0
LINE
8
BLACK
6
CONTINUOUS
10
5.2410976377952752
20
-4.106980984251968
11
5.2433379921259844
21
-4.1143665354330707
0
LINE
8
BLACK
6
CONTINUOUS
10
5.2433379921259844
20
-4.1143665354330707
11
5.2440944881889759
21
-4.122047244094488
0
LINE
8
BLACK
6
CONTINUOUS
10
5.2440944881889759
20
-4.122047244094488
11
5.2433379921259844
21
-4.1297279527559052
0
LINE
8
BLACK
6
CONTINUOUS
10
5.2433379921259844
20
-4.1297279527559052
11
5.2410976377952752
21
-4.1371135039370079
0
LINE
8
BLACK
6
CONTINUOUS
10
5.2410976377952752
20
-4.1371135039370079
11
5.2374594488188979
21
-4.1439200787401571
0
LINE
8
BLACK
6
CONTINUOUS
10
5.2374594488188979
20
-4.1439200787401571
11
5.232563267716535
21
-4.1498861023622045
0
LINE
8
BLACK
6
CONTINUOUS
10
5.232563267716535
20
-4.1498861023622045
11
5.2265972440944877
21
-4.1547822834645665
0
LINE
8
BLACK
6
CONTINUOUS
10
5.2265972440944877
20
-4.1547822834645665
11
5.2197906692913385
21
-4.1584204724409446
0
LINE
8
BLACK
6
CONTINUOUS
10
5.2197906692913385
20
-4.1584204724409446
11
5.2124051181102358
21
-4.1606608267716538
0
LINE
8
BLACK
6
CONTINUOUS
10
5.2124051181102358
20
-4.1606608267716538
11
5.2047244094488185
21
-4.1614173228346454
0
LINE
8
BLACK
6
CONTINUOUS
10
5.2047244094488185
20
-4.1614173228346454
11
5.1970437007874013
21
-4.1606608267716538
0
LINE
8
BLACK
6
CONTINUOUS
10
5.1970437007874013
20
-4.1606608267716538
11
5.1896581496062995
21
-4.1584204724409446
0
LINE
8
BLACK
6
CONTINUOUS
10
5.1896581496062995
20
-4.1584204724409446
11
5.1828515748031494
21
-4.1547822834645665
0
LINE
8
BLACK
6
CONTINUOUS
10
5.1828515748031494
20
-4.1547822834645665
11
5.1768855511811021
21
-4.1498861023622045
0
LINE
8
BLACK
6
CONTINUOUS
10
5.1768855511811021
20
-4.1498861023622045
11
5.17198937007874
21
-4.1439200787401571
0
LINE
8
BLACK
6
CONTINUOUS
10
5.17198937007874
20
-4.1439200787401571
11
5.1683511811023619
21
-4.1371135039370079
0
LINE
8
BLACK
6
CONTINUOUS
10
5.1683511811023619
20
-4.1371135039370079
11
5.1661108267716536
21
-4.1297279527559052
0
LINE
8
BLACK
6
CONTINUOUS
10
5.1661108267716536
20
-4.1297279527559052
11
5.1653543307086611
21
-4.122047244094488
0
LINE
8
BLACK
6
CONTINUOUS
10
5.1653543307086611
20
-4.122047244094488
11
5.1661108267716536
21
-4.1143665354330707
0
LINE
8
BLACK
6
CONTINUOUS
10
5.1661108267716536
20
-4.1143665354330707
11
5.1683511811023619
21
-4.106980984251968
0
LINE
8
BLACK
6
CONTINUOUS
10
5.1683511811023619
20
-4.106980984251968
11
5.17198937007874
21
-4.1001744094488188
0
LINE
8
BLACK
6
CONTINUOUS
10
5.17198937007874
20
-4.1001744094488188
11
5.1768855511811021
21
-4.0942083858267715
0
LINE
8
BLACK
6
CONTINUOUS
10
5.1768855511811021
20
-4.0942083858267715
11
5.1828515748031494
21
-4.0893122047244095
0
LINE
8
BLACK
6
CONTINUOUS
10
5.1828515748031494
20
-4.0893122047244095
11
5.1896581496062995
21
-4.0856740157480314
0
LINE
8
BLACK
6
CONTINUOUS
10
5.1896581496062995
20
-4.0856740157480314
11
5.1970437007874013
21
-4.083433661417323
0
LINE
8
BLACK
6
CONTINUOUS
10
5.1970437007874013
20
-4.083433661417323
11
5.2047244094488185
21
-4.0826771653543306
0
LINE
8
BLACK
6
CONTINUOUS
10
5.2047244094488185
20
-4.0826771653543306
11
5.2124051181102358
21
-4.083433661417323
0
LINE
8
BLACK
6
CONTINUOUS
10
4.1967723228346454
20
-4.0749927165354327
11
4.2043419291338582
21
-4.0764984251968501
0
LINE
8
BLACK
6
CONTINUOUS
10
4.2043419291338582
20
-4.0764984251968501
11
4.2114723228346458
21
-4.0794519291338585
0
LINE
8
BLACK
6
CONTINUOUS
10
4.2114723228346458
20
-4.0794519291338585
11
4.2178894881889759
21
-4.0837397637795272
0
LINE
8
BLACK
6
CONTINUOUS
10
4.2178894881889759
20
-4.0837397637795272
11
4.2233468503937006
21
-4.0891971259842519
0
LINE
8
BLACK
6
CONTINUOUS
10
4.2233468503937006
20
-4.0891971259842519
11
4.2276346850393702
21
-4.0956142913385829
0
LINE
8
BLACK
6
CONTINUOUS
10
4.2276346850393702
20
-4.0956142913385829
11
4.2305881889763777
21
-4.1027446850393696
0
LINE
8
BLACK
6
CONTINUOUS
10
4.2305881889763777
20
-4.1027446850393696
11
4.2320938976377951
21
-4.1103142913385824
0
LINE
8
BLACK
6
CONTINUOUS
10
4.2320938976377951
20
-4.1103142913385824
11
4.2320938976377951
21
-4.1180321653543306
0
LINE
8
BLACK
6
CONTINUOUS
10
4.2320938976377951
20
-4.1180321653543306
11
4.2305881889763777
21
-4.1256017716535434
0
LINE
8
BLACK
6
CONTINUOUS
10
4.2305881889763777
20
-4.1256017716535434
11
4.2276346850393702
21
-4.132732165354331
0
LINE
8
BLACK
6
CONTINUOUS
10
4.2276346850393702
20
-4.132732165354331
11
4.2233468503937006
21
-4.1391493307086611
0
LINE
8
BLACK
6
CONTINUOUS
10
4.2233468503937006
20
-4.1391493307086611
11
4.2178894881889759
21
-4.1446066929133858
0
LINE
8
BLACK
6
CONTINUOUS
10
4.2178894881889759
20
-4.1446066929133858
11
4.2114723228346458
21
-4.1488945275590554
0
LINE
8
BLACK
6
CONTINUOUS
10
4.2114723228346458
20
-4.1488945275590554
11
4.2043419291338582
21
-4.1518480314960629
0
LINE
8
BLACK
6
CONTINUOUS
10
4.2043419291338582
20
-4.1518480314960629
11
4.1967723228346454
21
-4.1533537401574803
0
LINE
8
BLACK
6
CONTINUOUS
10
4.1967723228346454
20
-4.1533537401574803
11
4.1929133858267713
21
-4.1535433070866139
0
LINE
8
BLACK
6
CONTINUOUS
10
4.1929133858267713
20
-4.1535433070866139
11
4.0748031496062991
21
-4.1535433070866139
0
LINE
8
BLACK
6
CONTINUOUS
10
4.0748031496062991
20
-4.1535433070866139
11
4.070944212598425
21
-4.1533537401574803
0
LINE
8
BLACK
6
CONTINUOUS
10
4.070944212598425
20
-4.1533537401574803
11
4.0633746062992122
21
-4.1518480314960629
0
LINE
8
BLACK
6
CONTINUOUS
10
4.0633746062992122
20
-4.1518480314960629
11
4.0562442125984255
21
-4.1488945275590554
0
LINE
8
BLACK
6
CONTINUOUS
10
4.0562442125984255
20
-4.1488945275590554
11
4.0498270472440945
21
-4.1446066929133858
0
LINE
8
BLACK
6
CONTINUOUS
10
4.0498270472440945
20
-4.1446066929133858
11
4.0443696850393698
21
-4.1391493307086611
0
LINE
8
BLACK
6
CONTINUOUS
10
4.0443696850393698
20
-4.1391493307086611
11
4.040081850393701
21
-4.132732165354331
0
LINE
8
BLACK
6
CONTINUOUS
10
4.040081850393701
20
-4.132732165354331
11
4.0371283464566927
21
-4.1256017716535434
0
LINE
8
BLACK
6
CONTINUOUS
10
4.0371283464566927
20
-4.1256017716535434
11
4.0356226377952753
21
-4.1180321653543306
0
LINE
8
BLACK
6
CONTINUOUS
10
4.0356226377952753
20
-4.1180321653543306
11
4.0356226377952753
21
-4.1103142913385824
0
LINE
8
BLACK
6
CONTINUOUS
10
4.0356226377952753
20
-4.1103142913385824
11
4.0371283464566927
21
-4.1027446850393696
0
LINE
8
BLACK
6
CONTINUOUS
10
4.0371283464566927
20
-4.1027446850393696
11
4.040081850393701
21
-4.0956142913385829
0
LINE
8
BLACK
6
CONTINUOUS
10
4.040081850393701
20
-4.0956142913385829
11
4.0443696850393698
21
-4.0891971259842519
0
LINE
8
BLACK
6
CONTINUOUS
10
4.0443696850393698
20
-4.0891971259842519
11
4.0498270472440945
21
-4.0837397637795272
0
LINE
8
BLACK
6
CONTINUOUS
10
4.0498270472440945
20
-4.0837397637795272
11
4.0562442125984255
21
-4.0794519291338585
0
LINE
8
BLACK
6
CONTINUOUS
10
4.0562442125984255
20
-4.0794519291338585
11
4.0633746062992122
21
-4.0764984251968501
0
LINE
8
BLACK
6
CONTINUOUS
10
4.0633746062992122
20
-4.0764984251968501
11
4.070944212598425
21
-4.0749927165354327
0
LINE
8
BLACK
6
CONTINUOUS
10
4.070944212598425
20
-4.0749927165354327
11
4.0748031496062991
21
-4.0748031496062991
0
LINE
8
BLACK
6
CONTINUOUS
10
4.0748031496062991
20
-4.0748031496062991
11
4.1929133858267713
21
-4.0748031496062991
0
LINE
8
BLACK
6
CONTINUOUS
10
4.1929133858267713
20
-4.0748031496062991
11
4.1967723228346454
21
-4.0749927165354327
0
LINE
8
BLACK
6
CONTINUOUS
10
4.1457098031496065
20
-3.9725193700787402
11
4.1531618897637799
21
-3.9754062992125982
0
LINE
8
BLACK
6
CONTINUOUS
10
4.1531618897637799
20
-3.9754062992125982
11
4.159956614173228
21
-3.9796134251968502
0
LINE
8
BLACK
6
CONTINUOUS
10
4.159956614173228
20
-3.9796134251968502
11
4.1658625984251971
21
-3.9849974409448818
0
LINE
8
BLACK
6
CONTINUOUS
10
4.1658625984251971
20
-3.9849974409448818
11
4.1706787007874011
21
-3.9913750000000001
0
LINE
8
BLACK
6
CONTINUOUS
10
4.1706787007874011
20
-3.9913750000000001
11
4.1742409055118106
21
-3.9985288976377951
0
LINE
8
BLACK
6
CONTINUOUS
10
4.1742409055118106
20
-3.9985288976377951
11
4.1764279527559056
21
-4.0062155905511814
0
LINE
8
BLACK
6
CONTINUOUS
10
4.1764279527559056
20
-4.0062155905511814
11
4.1771653543307083
21
-4.0141732283464568
0
LINE
8
BLACK
6
CONTINUOUS
10
4.1771653543307083
20
-4.0141732283464568
11
4.1764279527559056
21
-4.0221308661417323
0
LINE
8
BLACK
6
CONTINUOUS
10
4.1764279527559056
20
-4.0221308661417323
11
4.1742409055118106
21
-4.0298175590551182
0
LINE
8
BLACK
6
CONTINUOUS
10
4.1742409055118106
20
-4.0298175590551182
11
4.1706787007874011
21
-4.0369714566929131
0
LINE
8
BLACK
6
CONTINUOUS
10
4.1706787007874011
20
-4.0369714566929131
11
4.1658625984251971
21
-4.0433490157480314
0
LINE
8
BLACK
6
CONTINUOUS
10
4.1658625984251971
20
-4.0433490157480314
11
4.159956614173228
21
-4.048733031496063
0
LINE
8
BLACK
6
CONTINUOUS
10
4.159956614173228
20
-4.048733031496063
11
4.1531618897637799
21
-4.0529401574803146
0
LINE
8
BLACK
6
CONTINUOUS
10
4.1531618897637799
20
-4.0529401574803146
11
4.1457098031496065
21
-4.0558270866141735
0
LINE
8
BLACK
6
CONTINUOUS
10
4.1457098031496065
20
-4.0558270866141735
11
4.1378541338582675
21
-4.0572955905511812
0
LINE
8
BLACK
6
CONTINUOUS
10
4.1378541338582675
20
-4.0572955905511812
11
4.1298624015748029
21
-4.0572955905511812
0
LINE
8
BLACK
6
CONTINUOUS
10
4.1298624015748029
20
-4.0572955905511812
11
4.1220067322834648
21
-4.0558270866141735
0
LINE
8
BLACK
6
CONTINUOUS
10
4.1220067322834648
20
-4.0558270866141735
11
4.1145546456692914
21
-4.0529401574803146
0
LINE
8
BLACK
6
CONTINUOUS
10
4.1145546456692914
20
-4.0529401574803146
11
4.1077599212598424
21
-4.048733031496063
0
LINE
8
BLACK
6
CONTINUOUS
10
4.1077599212598424
20
-4.048733031496063
11
4.1018539370078742
21
-4.0433490157480314
0
LINE
8
BLACK
6
CONTINUOUS
10
4.1018539370078742
20
-4.0433490157480314
11
4.0970378346456693
21
-4.0369714566929131
0
LINE
8
BLACK
6
CONTINUOUS
10
4.0970378346456693
20
-4.0369714566929131
11
4.0934756299212598
21
-4.0298175590551182
0
LINE
8
BLACK
6
CONTINUOUS
10
4.0934756299212598
20
-4.0298175590551182
11
4.0912885826771657
21
-4.0221308661417323
0
LINE
8
BLACK
6
CONTINUOUS
10
4.0912885826771657
20
-4.0221308661417323
11
4.090551181102362
21
-4.0141732283464568
0
LINE
8
BLACK
6
CONTINUOUS
10
4.090551181102362
20
-4.0141732283464568
11
4.0912885826771657
21
-4.0062155905511814
0
LINE
8
BLACK
6
CONTINUOUS
10
4.0912885826771657
20
-4.0062155905511814
11
4.0934756299212598
21
-3.9985288976377951
0
LINE
8
BLACK
6
CONTINUOUS
10
4.0934756299212598
20
-3.9985288976377951
11
4.0970378346456693
21
-3.9913750000000001
0
LINE
8
BLACK
6
CONTINUOUS
10
4.0970378346456693
20
-3.9913750000000001
11
4.1018539370078742
21
-3.9849974409448818
0
LINE
8
BLACK
6
CONTINUOUS
10
4.1018539370078742
20
-3.9849974409448818
11
4.1077599212598424
21
-3.9796134251968502
0
LINE
8
BLACK
6
CONTINUOUS
10
4.1077599212598424
20
-3.9796134251968502
11
4.1145546456692914
21
-3.9754062992125982
0
LINE
8
BLACK
6
CONTINUOUS
10
4.1145546456692914
20
-3.9754062992125982
11
4.1220067322834648
21
-3.9725193700787402
0
LINE
8
BLACK
6
CONTINUOUS
10
4.1220067322834648
20
-3.9725193700787402
11
4.1298624015748029
21
-3.9710508661417321
0
LINE
8
BLACK
6
CONTINUOUS
10
4.1298624015748029
20
-3.9710508661417321
11
4.1378541338582675
21
-3.9710508661417321
0
LINE
8
BLACK
6
CONTINUOUS
10
4.1378541338582675
20
-3.9710508661417321
11
4.1457098031496065
21
-3.9725193700787402
0
LINE
8
BLACK
6
CONTINUOUS
10
6.1053149606299213
20
-4.0541338582677167
11
6.0383858267716537
21
-4.0541338582677167
0
LINE
8
BLACK
6
CONTINUOUS
10
6.0383858267716537
20
-4.0541338582677167
11
6.0383858267716537
21
-3.9872047244094486
0
LINE
8
BLACK
6
CONTINUOUS
10
6.0383858267716537
20
-3.9872047244094486
11
6.1053149606299213
21
-3.9872047244094486
0
LINE
8
BLACK
6
CONTINUOUS
10
6.1053149606299213
20
-3.9872047244094486
11
6.1053149606299213
21
-4.0541338582677167
0
LINE
8
BLACK
6
CONTINUOUS
10
6.182191496062992
20
-3.988842598425197
11
6.1885826771653543
21
-3.9916881102362205
0
LINE
8
BLACK
6
CONTINUOUS
10
6.1885826771653543
20
-3.9916881102362205
11
6.1942425590551178
21
-3.9958002755905513
0
LINE
8
BLACK
6
CONTINUOUS
10
6.1942425590551178
20
-3.9958002755905513
11
6.1989237795275587
21
-4.0009993307086615
0
LINE
8
BLACK
6
CONTINUOUS
10
6.1989237795275587
20
-4.0009993307086615
11
6.2024218110236218
21
-4.0070580314960633
0
LINE
8
BLACK
6
CONTINUOUS
10
6.2024218110236218
20
-4.0070580314960633
11
6.2045836614173231
21
-4.0137116141732285
0
LINE
8
BLACK
6
CONTINUOUS
10
6.2045836614173231
20
-4.0137116141732285
11
6.2053149606299209
21
-4.0206692913385824
0
LINE
8
BLACK
6
CONTINUOUS
10
6.2053149606299209
20
-4.0206692913385824
11
6.2045836614173231
21
-4.0276269685039372
0
LINE
8
BLACK
6
CONTINUOUS
10
6.2045836614173231
20
-4.0276269685039372
11
6.2024218110236218
21
-4.0342805511811024
0
LINE
8
BLACK
6
CONTINUOUS
10
6.2024218110236218
20
-4.0342805511811024
11
6.1989237795275587
21
-4.0403392519685042
0
LINE
8
BLACK
6
CONTINUOUS
10
6.1989237795275587
20
-4.0403392519685042
11
6.1942425590551178
21
-4.0455383070866144
0
LINE
8
BLACK
6
CONTINUOUS
10
6.1942425590551178
20
-4.0455383070866144
11
6.1885826771653543
21
-4.0496504724409448
0
LINE
8
BLACK
6
CONTINUOUS
10
6.1885826771653543
20
-4.0496504724409448
11
6.182191496062992
21
-4.0524959842519683
0
LINE
8
BLACK
6
CONTINUOUS
10
6.182191496062992
20
-4.0524959842519683
11
6.1753483858267719
21
-4.053950551181102
0
LINE
8
BLACK
6
CONTINUOUS
10
6.1753483858267719
20
-4.053950551181102
11
6.1683524015748032
21
-4.053950551181102
0
LINE
8
BLACK
6
CONTINUOUS
10
6.1683524015748032
20
-4.053950551181102
11
6.1615092913385823
21
-4.0524959842519683
0
LINE
8
BLACK
6
CONTINUOUS
10
6.1615092913385823
20
-4.0524959842519683
11
6.15511811023622
21
-4.0496504724409448
0
LINE
8
BLACK
6
CONTINUOUS
10
6.15511811023622
20
-4.0496504724409448
11
6.1494582283464565
21
-4.0455383070866144
0
LINE
8
BLACK
6
CONTINUOUS
10
6.1494582283464565
20
-4.0455383070866144
11
6.1447770078740156
21
-4.0403392519685042
0
LINE
8
BLACK
6
CONTINUOUS
10
6.1447770078740156
20
-4.0403392519685042
11
6.1412789763779525
21
-4.0342805511811024
0
LINE
8
BLACK
6
CONTINUOUS
10
6.1412789763779525
20
-4.0342805511811024
11
6.1391171259842521
21
-4.0276269685039372
0
LINE
8
BLACK
6
CONTINUOUS
10
6.1391171259842521
20
-4.0276269685039372
11
6.1383858267716533
21
-4.0206692913385824
0
LINE
8
BLACK
6
CONTINUOUS
10
6.1383858267716533
20
-4.0206692913385824
11
6.1391171259842521
21
-4.0137116141732285
0
LINE
8
BLACK
6
CONTINUOUS
10
6.1391171259842521
20
-4.0137116141732285
11
6.1412789763779525
21
-4.0070580314960633
0
LINE
8
BLACK
6
CONTINUOUS
10
6.1412789763779525
20
-4.0070580314960633
11
6.1447770078740156
21
-4.0009993307086615
0
LINE
8
BLACK
6
CONTINUOUS
10
6.1447770078740156
20
-4.0009993307086615
11
6.1494582283464565
21
-3.9958002755905513
0
LINE
8
BLACK
6
CONTINUOUS
10
6.1494582283464565
20
-3.9958002755905513
11
6.15511811023622
21
-3.9916881102362205
0
LINE
8
BLACK
6
CONTINUOUS
10
6.15511811023622
20
-3.9916881102362205
11
6.1615092913385823
21
-3.988842598425197
0
LINE
8
BLACK
6
CONTINUOUS
10
6.1615092913385823
20
-3.988842598425197
11
6.1683524015748032
21
-3.9873880314960628
0
LINE
8
BLACK
6
CONTINUOUS
10
6.1683524015748032
20
-3.9873880314960628
11
6.1753483858267719
21
-3.9873880314960628
0
LINE
8
BLACK
6
CONTINUOUS
10
6.1753483858267719
20
-3.9873880314960628
11
6.182191496062992
21
-3.988842598425197
0
LINE
8
BLACK
6
CONTINUOUS
10
4.1967723228346454
20
-3.874992716535433
11
4.2043419291338582
21
-3.8764984251968504
0
LINE
8
BLACK
6
CONTINUOUS
10
4.2043419291338582
20
-3.8764984251968504
11
4.2114723228346458
21
-3.8794519291338583
0
LINE
8
BLACK
6
CONTINUOUS
10
4.2114723228346458
20
-3.8794519291338583
11
4.2178894881889759
21
-3.8837397637795275
0
LINE
8
BLACK
6
CONTINUOUS
10
4.2178894881889759
20
-3.8837397637795275
11
4.2233468503937006
21
-3.8891971259842517
0
LINE
8
BLACK
6
CONTINUOUS
10
4.2233468503937006
20
-3.8891971259842517
11
4.2276346850393702
21
-3.8956142913385827
0
LINE
8
BLACK
6
CONTINUOUS
10
4.2276346850393702
20
-3.8956142913385827
11
4.2305881889763777
21
-3.9027446850393699
0
LINE
8
BLACK
6
CONTINUOUS
10
4.2305881889763777
20
-3.9027446850393699
11
4.2320938976377951
21
-3.9103142913385827
0
LINE
8
BLACK
6
CONTINUOUS
10
4.2320938976377951
20
-3.9103142913385827
11
4.2320938976377951
21
-3.9180321653543304
0
LINE
8
BLACK
6
CONTINUOUS
10
4.2320938976377951
20
-3.9180321653543304
11
4.2305881889763777
21
-3.9256017716535432
0
LINE
8
BLACK
6
CONTINUOUS
10
4.2305881889763777
20
-3.9256017716535432
11
4.2276346850393702
21
-3.9327321653543308
0
LINE
8
BLACK
6
CONTINUOUS
10
4.2276346850393702
20
-3.9327321653543308
11
4.2233468503937006
21
-3.9391493307086614
0
LINE
8
BLACK
6
CONTINUOUS
10
4.2233468503937006
20
-3.9391493307086614
11
4.2178894881889759
21
-3.9446066929133856
0
LINE
8
BLACK
6
CONTINUOUS
10
4.2178894881889759
20
-3.9446066929133856
11
4.2114723228346458
21
-3.9488945275590552
0
LINE
8
BLACK
6
CONTINUOUS
10
4.2114723228346458
20
-3.9488945275590552
11
4.2043419291338582
21
-3.9518480314960631
0
LINE
8
BLACK
6
CONTINUOUS
10
4.2043419291338582
20
-3.9518480314960631
11
4.1967723228346454
21
-3.9533537401574801
0
LINE
8
BLACK
6
CONTINUOUS
10
4.1967723228346454
20
-3.9533537401574801
11
4.1929133858267713
21
-3.9535433070866142
0
LINE
8
BLACK
6
CONTINUOUS
10
4.1929133858267713
20
-3.9535433070866142
11
4.0748031496062991
21
-3.9535433070866142
0
LINE
8
BLACK
6
CONTINUOUS
10
4.0748031496062991
20
-3.9535433070866142
11
4.070944212598425
21
-3.9533537401574801
0
LINE
8
BLACK
6
CONTINUOUS
10
4.070944212598425
20
-3.9533537401574801
11
4.0633746062992122
21
-3.9518480314960631
0
LINE
8
BLACK
6
CONTINUOUS
10
4.0633746062992122
20
-3.9518480314960631
11
4.0562442125984255
21
-3.9488945275590552
0
LINE
8
BLACK
6
CONTINUOUS
10
4.0562442125984255
20
-3.9488945275590552
11
4.0498270472440945
21
-3.9446066929133856
0
LINE
8
BLACK
6
CONTINUOUS
10
4.0498270472440945
20
-3.9446066929133856
11
4.0443696850393698
21
-3.9391493307086614
0
LINE
8
BLACK
6
CONTINUOUS
10
4.0443696850393698
20
-3.9391493307086614
11
4.040081850393701
21
-3.9327321653543308
0
LINE
8
BLACK
6
CONTINUOUS
10
4.040081850393701
20
-3.9327321653543308
11
4.0371283464566927
21
-3.9256017716535432
0
LINE
8
BLACK
6
CONTINUOUS
10
4.0371283464566927
20
-3.9256017716535432
11
4.0356226377952753
21
-3.9180321653543304
0
LINE
8
BLACK
6
CONTINUOUS
10
4.0356226377952753
20
-3.9180321653543304
11
4.0356226377952753
21
-3.9103142913385827
0
LINE
8
BLACK
6
CONTINUOUS
10
4.0356226377952753
20
-3.9103142913385827
11
4.0371283464566927
21
-3.9027446850393699
0
LINE
8
BLACK
6
CONTINUOUS
10
4.0371283464566927
20
-3.9027446850393699
11
4.040081850393701
21
-3.8956142913385827
0
LINE
8
BLACK
6
CONTINUOUS
10
4.040081850393701
20
-3.8956142913385827
11
4.0443696850393698
21
-3.8891971259842517
0
LINE
8
BLACK
6
CONTINUOUS
10
4.0443696850393698
20
-3.8891971259842517
11
4.0498270472440945
21
-3.8837397637795275
0
LINE
8
BLACK
6
CONTINUOUS
10
4.0498270472440945
20
-3.8837397637795275
11
4.0562442125984255
21
-3.8794519291338583
0
LINE
8
BLACK
6
CONTINUOUS
10
4.0562442125984255
20
-3.8794519291338583
11
4.0633746062992122
21
-3.8764984251968504
0
LINE
8
BLACK
6
CONTINUOUS
10
4.0633746062992122
20
-3.8764984251968504
11
4.070944212598425
21
-3.874992716535433
0
LINE
8
BLACK
6
CONTINUOUS
10
4.070944212598425
20
-3.874992716535433
11
4.0748031496062991
21
-3.8748031496062993
0
LINE
8
BLACK
6
CONTINUOUS
10
4.0748031496062991
20
-3.8748031496062993
11
4.1929133858267713
21
-3.8748031496062993
0
LINE
8
BLACK
6
CONTINUOUS
10
4.1929133858267713
20
-3.8748031496062993
11
4.1967723228346454
21
-3.874992716535433
0
LINE
8
BLACK
6
CONTINUOUS
10
6.1463589370078742
20
-3.7663312992125983
11
6.1539285433070861
21
-3.7678370078740158
0
LINE
8
BLACK
6
CONTINUOUS
10
6.1539285433070861
20
-3.7678370078740158
11
6.1610589370078737
21
-3.7707905118110236
0
LINE
8
BLACK
6
CONTINUOUS
10
6.1610589370078737
20
-3.7707905118110236
11
6.1674761023622047
21
-3.7750783464566928
0
LINE
8
BLACK
6
CONTINUOUS
10
6.1674761023622047
20
-3.7750783464566928
11
6.1729334645669294
21
-3.7805357086614171
0
LINE
8
BLACK
6
CONTINUOUS
10
6.1729334645669294
20
-3.7805357086614171
11
6.1772212992125981
21
-3.7869528740157481
0
LINE
8
BLACK
6
CONTINUOUS
10
6.1772212992125981
20
-3.7869528740157481
11
6.1801748031496064
21
-3.7940832677165353
0
LINE
8
BLACK
6
CONTINUOUS
10
6.1801748031496064
20
-3.7940832677165353
11
6.1816805118110238
21
-3.801652874015748
0
LINE
8
BLACK
6
CONTINUOUS
10
6.1816805118110238
20
-3.801652874015748
11
6.1816805118110238
21
-3.8093707480314958
0
LINE
8
BLACK
6
CONTINUOUS
10
6.1816805118110238
20
-3.8093707480314958
11
6.1801748031496064
21
-3.8169403543307086
0
LINE
8
BLACK
6
CONTINUOUS
10
6.1801748031496064
20
-3.8169403543307086
11
6.1772212992125981
21
-3.8240707480314962
0
LINE
8
BLACK
6
CONTINUOUS
10
6.1772212992125981
20
-3.8240707480314962
11
6.1729334645669294
21
-3.8304879133858267
0
LINE
8
BLACK
6
CONTINUOUS
10
6.1729334645669294
20
-3.8304879133858267
11
6.1674761023622047
21
-3.835945275590551
0
LINE
8
BLACK
6
CONTINUOUS
10
6.1674761023622047
20
-3.835945275590551
11
6.1610589370078737
21
-3.8402331102362206
0
LINE
8
BLACK
6
CONTINUOUS
10
6.1610589370078737
20
-3.8402331102362206
11
6.1539285433070861
21
-3.843186614173228
0
LINE
8
BLACK
6
CONTINUOUS
10
6.1539285433070861
20
-3.843186614173228
11
6.1463589370078742
21
-3.8446923228346455
0
LINE
8
BLACK
6
CONTINUOUS
10
6.1463589370078742
20
-3.8446923228346455
11
6.1425000000000001
21
-3.8448818897637795
0
LINE
8
BLACK
6
CONTINUOUS
10
6.1425000000000001
20
-3.8448818897637795
11
6.1031299212598427
21
-3.8448818897637795
0
LINE
8
BLACK
6
CONTINUOUS
10
6.1031299212598427
20
-3.8448818897637795
11
6.0992709842519686
21
-3.8446923228346455
0
LINE
8
BLACK
6
CONTINUOUS
10
6.0992709842519686
20
-3.8446923228346455
11
6.0917013779527558
21
-3.843186614173228
0
LINE
8
BLACK
6
CONTINUOUS
10
6.0917013779527558
20
-3.843186614173228
11
6.0845709842519682
21
-3.8402331102362206
0
LINE
8
BLACK
6
CONTINUOUS
10
6.0845709842519682
20
-3.8402331102362206
11
6.0781538188976381
21
-3.835945275590551
0
LINE
8
BLACK
6
CONTINUOUS
10
6.0781538188976381
20
-3.835945275590551
11
6.0726964566929134
21
-3.8304879133858267
0
LINE
8
BLACK
6
CONTINUOUS
10
6.0726964566929134
20
-3.8304879133858267
11
6.0684086220472437
21
-3.8240707480314962
0
LINE
8
BLACK
6
CONTINUOUS
10
6.0684086220472437
20
-3.8240707480314962
11
6.0654551181102363
21
-3.8169403543307086
0
LINE
8
BLACK
6
CONTINUOUS
10
6.0654551181102363
20
-3.8169403543307086
11
6.0639494094488189
21
-3.8093707480314958
0
LINE
8
BLACK
6
CONTINUOUS
10
6.0639494094488189
20
-3.8093707480314958
11
6.0639494094488189
21
-3.801652874015748
0
LINE
8
BLACK
6
CONTINUOUS
10
6.0639494094488189
20
-3.801652874015748
11
6.0654551181102363
21
-3.7940832677165353
0
LINE
8
BLACK
6
CONTINUOUS
10
6.0654551181102363
20
-3.7940832677165353
11
6.0684086220472437
21
-3.7869528740157481
0
LINE
8
BLACK
6
CONTINUOUS
10
6.0684086220472437
20
-3.7869528740157481
11
6.0726964566929134
21
-3.7805357086614171
0
LINE
8
BLACK
6
CONTINUOUS
10
6.0726964566929134
20
-3.7805357086614171
11
6.0781538188976381
21
-3.7750783464566928
0
LINE
8
BLACK
6
CONTINUOUS
10
6.0781538188976381
20
-3.7750783464566928
11
6.0845709842519682
21
-3.7707905118110236
0
LINE
8
BLACK
6
CONTINUOUS
10
6.0845709842519682
20
-3.7707905118110236
11
6.0917013779527558
21
-3.7678370078740158
0
LINE
8
BLACK
6
CONTINUOUS
10
6.0917013779527558
20
-3.7678370078740158
11
6.0992709842519686
21
-3.7663312992125983
0
LINE
8
BLACK
6
CONTINUOUS
10
6.0992709842519686
20
-3.7663312992125983
11
6.1031299212598427
21
-3.7661417322834643
0
LINE
8
BLACK
6
CONTINUOUS
10
6.1031299212598427
20
-3.7661417322834643
11
6.1425000000000001
21
-3.7661417322834643
0
LINE
8
BLACK
6
CONTINUOUS
10
6.1425000000000001
20
-3.7661417322834643
11
6.1463589370078742
21
-3.7663312992125983
0
LINE
8
BLACK
6
CONTINUOUS
10
6.1463589370078742
20
-3.5663312992125982
11
6.1539285433070861
21
-3.5678370078740156
0
LINE
8
BLACK
6
CONTINUOUS
10
6.1539285433070861
20
-3.5678370078740156
11
6.1610589370078737
21
-3.5707905118110235
0
LINE
8
BLACK
6
CONTINUOUS
10
6.1610589370078737
20
-3.5707905118110235
11
6.1674761023622047
21
-3.5750783464566926
0
LINE
8
BLACK
6
CONTINUOUS
10
6.1674761023622047
20
-3.5750783464566926
11
6.1729334645669294
21
-3.5805357086614173
0
LINE
8
BLACK
6
CONTINUOUS
10
6.1729334645669294
20
-3.5805357086614173
11
6.1772212992125981
21
-3.5869528740157479
0
LINE
8
BLACK
6
CONTINUOUS
10
6.1772212992125981
20
-3.5869528740157479
11
6.1801748031496064
21
-3.5940832677165355
0
LINE
8
BLACK
6
CONTINUOUS
10
6.1801748031496064
20
-3.5940832677165355
11
6.1816805118110238
21
-3.6016528740157479
0
LINE
8
BLACK
6
CONTINUOUS
10
6.1816805118110238
20
-3.6016528740157479
11
6.1816805118110238
21
-3.609370748031496
0
LINE
8
BLACK
6
CONTINUOUS
10
6.1816805118110238
20
-3.609370748031496
11
6.1801748031496064
21
-3.6169403543307084
0
LINE
8
BLACK
6
CONTINUOUS
10
6.1801748031496064
20
-3.6169403543307084
11
6.1772212992125981
21
-3.624070748031496
0
LINE
8
BLACK
6
CONTINUOUS
10
6.1772212992125981
20
-3.624070748031496
11
6.1729334645669294
21
-3.6304879133858265
0
LINE
8
BLACK
6
CONTINUOUS
10
6.1729334645669294
20
-3.6304879133858265
11
6.1674761023622047
21
-3.6359452755905513
0
LINE
8
BLACK
6
CONTINUOUS
10
6.1674761023622047
20
-3.6359452755905513
11
6.1610589370078737
21
-3.6402331102362204
0
LINE
8
BLACK
6
CONTINUOUS
10
6.1610589370078737
20
-3.6402331102362204
11
6.1539285433070861
21
-3.6431866141732283
0
LINE
8
BLACK
6
CONTINUOUS
10
6.1539285433070861
20
-3.6431866141732283
11
6.1463589370078742
21
-3.6446923228346457
0
LINE
8
BLACK
6
CONTINUOUS
10
6.1463589370078742
20
-3.6446923228346457
11
6.1425000000000001
21
-3.6448818897637794
0
LINE
8
BLACK
6
CONTINUOUS
10
6.1425000000000001
20
-3.6448818897637794
11
6.1031299212598427
21
-3.6448818897637794
0
LINE
8
BLACK
6
CONTINUOUS
10
6.1031299212598427
20
-3.6448818897637794
11
6.0992709842519686
21
-3.6446923228346457
0
LINE
8
BLACK
6
CONTINUOUS
10
6.0992709842519686
20
-3.6446923228346457
11
6.0917013779527558
21
-3.6431866141732283
0
LINE
8
BLACK
6
CONTINUOUS
10
6.0917013779527558
20
-3.6431866141732283
11
6.0845709842519682
21
-3.6402331102362204
0
LINE
8
BLACK
6
CONTINUOUS
10
6.0845709842519682
20
-3.6402331102362204
11
6.0781538188976381
21
-3.6359452755905513
0
LINE
8
BLACK
6
CONTINUOUS
10
6.0781538188976381
20
-3.6359452755905513
11
6.0726964566929134
21
-3.6304879133858265
0
LINE
8
BLACK
6
CONTINUOUS
10
6.0726964566929134
20
-3.6304879133858265
11
6.0684086220472437
21
-3.624070748031496
0
LINE
8
BLACK
6
CONTINUOUS
10
6.0684086220472437
20
-3.624070748031496
11
6.0654551181102363
21
-3.6169403543307084
0
LINE
8
BLACK
6
CONTINUOUS
10
6.0654551181102363
20
-3.6169403543307084
11
6.0639494094488189
21
-3.609370748031496
0
LINE
8
BLACK
6
CONTINUOUS
10
6.0639494094488189
20
-3.609370748031496
11
6.0639494094488189
21
-3.6016528740157479
0
LINE
8
BLACK
6
CONTINUOUS
10
6.0639494094488189
20
-3.6016528740157479
11
6.0654551181102363
21
-3.5940832677165355
0
LINE
8
BLACK
6
CONTINUOUS
10
6.0654551181102363
20
-3.5940832677165355
11
6.0684086220472437
21
-3.5869528740157479
0
LINE
8
BLACK
6
CONTINUOUS
10
6.0684086220472437
20
-3.5869528740157479
11
6.0726964566929134
21
-3.5805357086614173
0
LINE
8
BLACK
6
CONTINUOUS
10
6.0726964566929134
20
-3.5805357086614173
11
6.0781538188976381
21
-3.5750783464566926
0
LINE
8
BLACK
6
CONTINUOUS
10
6.0781538188976381
20
-3.5750783464566926
11
6.0845709842519682
21
-3.5707905118110235
0
LINE
8
BLACK
6
CONTINUOUS
10
6.0845709842519682
20
-3.5707905118110235
11
6.0917013779527558
21
-3.5678370078740156
0
LINE
8
BLACK
6
CONTINUOUS
10
6.0917013779527558
20
-3.5678370078740156
11
6.0992709842519686
21
-3.5663312992125982
0
LINE
8
BLACK
6
CONTINUOUS
10
6.0992709842519686
20
-3.5663312992125982
11
6.1031299212598427
21
-3.5661417322834645
0
LINE
8
BLACK
6
CONTINUOUS
10
6.1031299212598427
20
-3.5661417322834645
11
6.1425000000000001
21
-3.5661417322834645
0
LINE
8
BLACK
6
CONTINUOUS
10
6.1425000000000001
20
-3.5661417322834645
11
6.1463589370078742
21
-3.5663312992125982
0
LINE
8
BLACK
6
CONTINUOUS
10
6.1463589370078742
20
-3.3663312992125984
11
6.1539285433070861
21
-3.3678370078740159
0
LINE
8
BLACK
6
CONTINUOUS
10
6.1539285433070861
20
-3.3678370078740159
11
6.1610589370078737
21
-3.3707905118110237
0
LINE
8
BLACK
6
CONTINUOUS
10
6.1610589370078737
20
-3.3707905118110237
11
6.1674761023622047
21
-3.3750783464566929
0
LINE
8
BLACK
6
CONTINUOUS
10
6.1674761023622047
20
-3.3750783464566929
11
6.1729334645669294
21
-3.3805357086614172
0
LINE
8
BLACK
6
CONTINUOUS
10
6.1729334645669294
20
-3.3805357086614172
11
6.1772212992125981
21
-3.3869528740157477
0
LINE
8
BLACK
6
CONTINUOUS
10
6.1772212992125981
20
-3.3869528740157477
11
6.1801748031496064
21
-3.3940832677165353
0
LINE
8
BLACK
6
CONTINUOUS
10
6.1801748031496064
20
-3.3940832677165353
11
6.1816805118110238
21
-3.4016528740157481
0
LINE
8
BLACK
6
CONTINUOUS
10
6.1816805118110238
20
-3.4016528740157481
11
6.1816805118110238
21
-3.4093707480314959
0
LINE
8
BLACK
6
CONTINUOUS
10
6.1816805118110238
20
-3.4093707480314959
11
6.1801748031496064
21
-3.4169403543307086
0
LINE
8
BLACK
6
CONTINUOUS
10
6.1801748031496064
20
-3.4169403543307086
11
6.1772212992125981
21
-3.4240707480314958
0
LINE
8
BLACK
6
CONTINUOUS
10
6.1772212992125981
20
-3.4240707480314958
11
6.1729334645669294
21
-3.4304879133858268
0
LINE
8
BLACK
6
CONTINUOUS
10
6.1729334645669294
20
-3.4304879133858268
11
6.1674761023622047
21
-3.4359452755905511
0
LINE
8
BLACK
6
CONTINUOUS
10
6.1674761023622047
20
-3.4359452755905511
11
6.1610589370078737
21
-3.4402331102362202
0
LINE
8
BLACK
6
CONTINUOUS
10
6.1610589370078737
20
-3.4402331102362202
11
6.1539285433070861
21
-3.4431866141732281
0
LINE
8
BLACK
6
CONTINUOUS
10
6.1539285433070861
20
-3.4431866141732281
11
6.1463589370078742
21
-3.4446923228346455
0
LINE
8
BLACK
6
CONTINUOUS
10
6.1463589370078742
20
-3.4446923228346455
11
6.1425000000000001
21
-3.4448818897637796
0
LINE
8
BLACK
6
CONTINUOUS
10
6.1425000000000001
20
-3.4448818897637796
11
6.1031299212598427
21
-3.4448818897637796
0
LINE
8
BLACK
6
CONTINUOUS
10
6.1031299212598427
20
-3.4448818897637796
11
6.0992709842519686
21
-3.4446923228346455
0
LINE
8
BLACK
6
CONTINUOUS
10
6.0992709842519686
20
-3.4446923228346455
11
6.0917013779527558
21
-3.4431866141732281
0
LINE
8
BLACK
6
CONTINUOUS
10
6.0917013779527558
20
-3.4431866141732281
11
6.0845709842519682
21
-3.4402331102362202
0
LINE
8
BLACK
6
CONTINUOUS
10
6.0845709842519682
20
-3.4402331102362202
11
6.0781538188976381
21
-3.4359452755905511
0
LINE
8
BLACK
6
CONTINUOUS
10
6.0781538188976381
20
-3.4359452755905511
11
6.0726964566929134
21
-3.4304879133858268
0
LINE
8
BLACK
6
CONTINUOUS
10
6.0726964566929134
20
-3.4304879133858268
11
6.0684086220472437
21
-3.4240707480314958
0
LINE
8
BLACK
6
CONTINUOUS
10
6.0684086220472437
20
-3.4240707480314958
11
6.0654551181102363
21
-3.4169403543307086
0
LINE
8
BLACK
6
CONTINUOUS
10
6.0654551181102363
20
-3.4169403543307086
11
6.0639494094488189
21
-3.4093707480314959
0
LINE
8
BLACK
6
CONTINUOUS
10
6.0639494094488189
20
-3.4093707480314959
11
6.0639494094488189
21
-3.4016528740157481
0
LINE
8
BLACK
6
CONTINUOUS
10
6.0639494094488189
20
-3.4016528740157481
11
6.0654551181102363
21
-3.3940832677165353
0
LINE
8
BLACK
6
CONTINUOUS
10
6.0654551181102363
20
-3.3940832677165353
11
6.0684086220472437
21
-3.3869528740157477
0
LINE
8
BLACK
6
CONTINUOUS
10
6.0684086220472437
20
-3.3869528740157477
11
6.0726964566929134
21
-3.3805357086614172
0
LINE
8
BLACK
6
CONTINUOUS
10
6.0726964566929134
20
-3.3805357086614172
11
6.0781538188976381
21
-3.3750783464566929
0
LINE
8
BLACK
6
CONTINUOUS
10
6.0781538188976381
20
-3.3750783464566929
11
6.0845709842519682
21
-3.3707905118110237
0
LINE
8
BLACK
6
CONTINUOUS
10
6.0845709842519682
20
-3.3707905118110237
11
6.0917013779527558
21
-3.3678370078740159
0
LINE
8
BLACK
6
CONTINUOUS
10
6.0917013779527558
20
-3.3678370078740159
11
6.0992709842519686
21
-3.3663312992125984
0
LINE
8
BLACK
6
CONTINUOUS
10
6.0992709842519686
20
-3.3663312992125984
11
6.1031299212598427
21
-3.3661417322834644
0
LINE
8
BLACK
6
CONTINUOUS
10
6.1031299212598427
20
-3.3661417322834644
11
6.1425000000000001
21
-3.3661417322834644
0
LINE
8
BLACK
6
CONTINUOUS
10
6.1425000000000001
20
-3.3661417322834644
11
6.1463589370078742
21
-3.3663312992125984
0
LINE
8
BLACK
6
CONTINUOUS
10
4.1510799212598428
20
-3.0273609842519686
11
4.1622043700787401
21
-3.0304779133858268
0
LINE
8
BLACK
6
CONTINUOUS
10
4.1622043700787401
20
-3.0304779133858268
11
4.1728007874015747
21
-3.0350805905511811
0
LINE
8
BLACK
6
CONTINUOUS
10
4.1728007874015747
20
-3.0350805905511811
11
4.1826717716535429
21
-3.0410832677165351
0
LINE
8
BLACK
6
CONTINUOUS
10
4.1826717716535429
20
-3.0410832677165351
11
4.1916334251968506
21
-3.0483741338582675
0
LINE
8
BLACK
6
CONTINUOUS
10
4.1916334251968506
20
-3.0483741338582675
11
4.1995188582677168
21
-3.0568173622047246
0
LINE
8
BLACK
6
CONTINUOUS
10
4.1995188582677168
20
-3.0568173622047246
11
4.2061811811023624
21
-3.0662557086614171
0
LINE
8
BLACK
6
CONTINUOUS
10
4.2061811811023624
20
-3.0662557086614171
11
4.2114962204724407
21
-3.0765133070866142
0
LINE
8
BLACK
6
CONTINUOUS
10
4.2114962204724407
20
-3.0765133070866142
11
4.215365039370079
21
-3.0873990944881888
0
LINE
8
BLACK
6
CONTINUOUS
10
4.215365039370079
20
-3.0873990944881888
11
4.2177155511811026
21
-3.0987103149606297
0
LINE
8
BLACK
6
CONTINUOUS
10
4.2177155511811026
20
-3.0987103149606297
11
4.2185039370078741
21
-3.1102362204724407
0
LINE
8
BLACK
6
CONTINUOUS
10
4.2185039370078741
20
-3.1102362204724407
11
4.2177155511811026
21
-3.1217621259842518
0
LINE
8
BLACK
6
CONTINUOUS
10
4.2177155511811026
20
-3.1217621259842518
11
4.215365039370079
21
-3.1330733464566927
0
LINE
8
BLACK
6
CONTINUOUS
10
4.215365039370079
20
-3.1330733464566927
11
4.2114962204724407
21
-3.1439591338582678
0
LINE
8
BLACK
6
CONTINUOUS
10
4.2114962204724407
20
-3.1439591338582678
11
4.2061811811023624
21
-3.1542167322834644
0
LINE
8
BLACK
6
CONTINUOUS
10
4.2061811811023624
20
-3.1542167322834644
11
4.1995188582677168
21
-3.1636550787401574
0
LINE
8
BLACK
6
CONTINUOUS
10
4.1995188582677168
20
-3.1636550787401574
11
4.1916334251968506
21
-3.172098307086614
0
LINE
8
BLACK
6
CONTINUOUS
10
4.1916334251968506
20
-3.172098307086614
11
4.1826717716535429
21
-3.1793891732283464
0
LINE
8
BLACK
6
CONTINUOUS
10
4.1826717716535429
20
-3.1793891732283464
11
4.1728007874015747
21
-3.1853918503937009
0
LINE
8
BLACK
6
CONTINUOUS
10
4.1728007874015747
20
-3.1853918503937009
11
4.1622043700787401
21
-3.1899945275590551
0
LINE
8
BLACK
6
CONTINUOUS
10
4.1622043700787401
20
-3.1899945275590551
11
4.1510799212598428
21
-3.1931114566929133
0
LINE
8
BLACK
6
CONTINUOUS
10
4.1510799212598428
20
-3.1931114566929133
11
4.1396346850393702
21
-3.1946845669291339
0
LINE
8
BLACK
6
CONTINUOUS
10
4.1396346850393702
20
-3.1946845669291339
11
4.1280818503937011
21
-3.1946845669291339
0
LINE
8
BLACK
6
CONTINUOUS
10
4.1280818503937011
20
-3.1946845669291339
11
4.1166366141732285
21
-3.1931114566929133
0
LINE
8
BLACK
6
CONTINUOUS
10
4.1166366141732285
20
-3.1931114566929133
11
4.1055121653543303
21
-3.1899945275590551
0
LINE
8
BLACK
6
CONTINUOUS
10
4.1055121653543303
20
-3.1899945275590551
11
4.0949157480314957
21
-3.1853918503937009
0
LINE
8
BLACK
6
CONTINUOUS
10
4.0949157480314957
20
-3.1853918503937009
11
4.0850447637795275
21
-3.1793891732283464
0
LINE
8
BLACK
6
CONTINUOUS
10
4.0850447637795275
20
-3.1793891732283464
11
4.0760831102362207
21
-3.172098307086614
0
LINE
8
BLACK
6
CONTINUOUS
10
4.0760831102362207
20
-3.172098307086614
11
4.0681976771653545
21
-3.1636550787401574
0
LINE
8
BLACK
6
CONTINUOUS
10
4.0681976771653545
20
-3.1636550787401574
11
4.0615353543307089
21
-3.1542167322834644
0
LINE
8
BLACK
6
CONTINUOUS
10
4.0615353543307089
20
-3.1542167322834644
11
4.0562203149606297
21
-3.1439591338582678
0
LINE
8
BLACK
6
CONTINUOUS
10
4.0562203149606297
20
-3.1439591338582678
11
4.0523514960629923
21
-3.1330733464566927
0
LINE
8
BLACK
6
CONTINUOUS
10
4.0523514960629923
20
-3.1330733464566927
11
4.0500009842519686
21
-3.1217621259842518
0
LINE
8
BLACK
6
CONTINUOUS
10
4.0500009842519686
20
-3.1217621259842518
11
4.0492125984251963
21
-3.1102362204724407
0
LINE
8
BLACK
6
CONTINUOUS
10
4.0492125984251963
20
-3.1102362204724407
11
4.0500009842519686
21
-3.0987103149606297
0
LINE
8
BLACK
6
CONTINUOUS
10
4.0500009842519686
20
-3.0987103149606297
11
4.0523514960629923
21
-3.0873990944881888
0
LINE
8
BLACK
6
CONTINUOUS
10
4.0523514960629923
20
-3.0873990944881888
11
4.0562203149606297
21
-3.0765133070866142
0
LINE
8
BLACK
6
CONTINUOUS
10
4.0562203149606297
20
-3.0765133070866142
11
4.0615353543307089
21
-3.0662557086614171
0
LINE
8
BLACK
6
CONTINUOUS
10
4.0615353543307089
20
-3.0662557086614171
11
4.0681976771653545
21
-3.0568173622047246
0
LINE
8
BLACK
6
CONTINUOUS
10
4.0681976771653545
20
-3.0568173622047246
11
4.0760831102362207
21
-3.0483741338582675
0
LINE
8
BLACK
6
CONTINUOUS
10
4.0760831102362207
20
-3.0483741338582675
11
4.0850447637795275
21
-3.0410832677165351
0
LINE
8
BLACK
6
CONTINUOUS
10
4.0850447637795275
20
-3.0410832677165351
11
4.0949157480314957
21
-3.0350805905511811
0
LINE
8
BLACK
6
CONTINUOUS
10
4.0949157480314957
20
-3.0350805905511811
11
4.1055121653543303
21
-3.0304779133858268
0
LINE
8
BLACK
6
CONTINUOUS
10
4.1055121653543303
20
-3.0304779133858268
11
4.1166366141732285
21
-3.0273609842519686
0
LINE
8
BLACK
6
CONTINUOUS
10
4.1166366141732285
20
-3.0273609842519686
11
4.1280818503937011
21
-3.025787874015748
0
LINE
8
BLACK
6
CONTINUOUS
10
4.1280818503937011
20
-3.025787874015748
11
4.1396346850393702
21
-3.025787874015748
0
LINE
8
BLACK
6
CONTINUOUS
10
4.1396346850393702
20
-3.025787874015748
11
4.1510799212598428
21
-3.0273609842519686
0
LINE
8
BLACK
6
CONTINUOUS
10
6.1589539370078743
20
-3.0273609842519686
11
6.1700783858267716
21
-3.0304779133858268
0
LINE
8
BLACK
6
CONTINUOUS
10
6.1700783858267716
20
-3.0304779133858268
11
6.1806748031496062
21
-3.0350805905511811
0
LINE
8
BLACK
6
CONTINUOUS
10
6.1806748031496062
20
-3.0350805905511811
11
6.1905457874015744
21
-3.0410832677165351
0
LINE
8
BLACK
6
CONTINUOUS
10
6.1905457874015744
20
-3.0410832677165351
11
6.199507440944882
21
-3.0483741338582675
0
LINE
8
BLACK
6
CONTINUOUS
10
6.199507440944882
20
-3.0483741338582675
11
6.2073928740157482
21
-3.0568173622047246
0
LINE
8
BLACK
6
CONTINUOUS
10
6.2073928740157482
20
-3.0568173622047246
11
6.2140551968503939
21
-3.0662557086614171
0
LINE
8
BLACK
6
CONTINUOUS
10
6.2140551968503939
20
-3.0662557086614171
11
6.2193702362204721
21
-3.0765133070866142
0
LINE
8
BLACK
6
CONTINUOUS
10
6.2193702362204721
20
-3.0765133070866142
11
6.2232390551181105
21
-3.0873990944881888
0
LINE
8
BLACK
6
CONTINUOUS
10
6.2232390551181105
20
-3.0873990944881888
11
6.2255895669291341
21
-3.0987103149606297
0
LINE
8
BLACK
6
CONTINUOUS
10
6.2255895669291341
20
-3.0987103149606297
11
6.2263779527559056
21
-3.1102362204724407
0
LINE
8
BLACK
6
CONTINUOUS
10
6.2263779527559056
20
-3.1102362204724407
11
6.2255895669291341
21
-3.1217621259842518
0
LINE
8
BLACK
6
CONTINUOUS
10
6.2255895669291341
20
-3.1217621259842518
11
6.2232390551181105
21
-3.1330733464566927
0
LINE
8
BLACK
6
CONTINUOUS
10
6.2232390551181105
20
-3.1330733464566927
11
6.2193702362204721
21
-3.1439591338582678
0
LINE
8
BLACK
6
CONTINUOUS
10
6.2193702362204721
20
-3.1439591338582678
11
6.2140551968503939
21
-3.1542167322834644
0
LINE
8
BLACK
6
CONTINUOUS
10
6.2140551968503939
20
-3.1542167322834644
11
6.2073928740157482
21
-3.1636550787401574
0
LINE
8
BLACK
6
CONTINUOUS
10
6.2073928740157482
20
-3.1636550787401574
11
6.199507440944882
21
-3.172098307086614
0
LINE
8
BLACK
6
CONTINUOUS
10
6.199507440944882
20
-3.172098307086614
11
6.1905457874015744
21
-3.1793891732283464
0
LINE
8
BLACK
6
CONTINUOUS
10
6.1905457874015744
20
-3.1793891732283464
11
6.1806748031496062
21
-3.1853918503937009
0
LINE
8
BLACK
6
CONTINUOUS
10
6.1806748031496062
20
-3.1853918503937009
11
6.1700783858267716
21
-3.1899945275590551
0
LINE
8
BLACK
6
CONTINUOUS
10
6.1700783858267716
20
-3.1899945275590551
11
6.1589539370078743
21
-3.1931114566929133
0
LINE
8
BLACK
6
CONTINUOUS
10
6.1589539370078743
20
-3.1931114566929133
11
6.1475087007874016
21
-3.1946845669291339
0
LINE
8
BLACK
6
CONTINUOUS
10
6.1475087007874016
20
-3.1946845669291339
11
6.1359558661417317
21
-3.1946845669291339
0
LINE
8
BLACK
6
CONTINUOUS
10
6.1359558661417317
20
-3.1946845669291339
11
6.1245106299212599
21
-3.1931114566929133
0
LINE
8
BLACK
6
CONTINUOUS
10
6.1245106299212599
20
-3.1931114566929133
11
6.1133861811023618
21
-3.1899945275590551
0
LINE
8
BLACK
6
CONTINUOUS
10
6.1133861811023618
20
-3.1899945275590551
11
6.1027897637795272
21
-3.1853918503937009
0
LINE
8
BLACK
6
CONTINUOUS
10
6.1027897637795272
20
-3.1853918503937009
11
6.092918779527559
21
-3.1793891732283464
0
LINE
8
BLACK
6
CONTINUOUS
10
6.092918779527559
20
-3.1793891732283464
11
6.0839571259842522
21
-3.172098307086614
0
LINE
8
BLACK
6
CONTINUOUS
10
6.0839571259842522
20
-3.172098307086614
11
6.076071692913386
21
-3.1636550787401574
0
LINE
8
BLACK
6
CONTINUOUS
10
6.076071692913386
20
-3.1636550787401574
11
6.0694093700787404
21
-3.1542167322834644
0
LINE
8
BLACK
6
CONTINUOUS
10
6.0694093700787404
20
-3.1542167322834644
11
6.0640943307086612
21
-3.1439591338582678
0
LINE
8
BLACK
6
CONTINUOUS
10
6.0640943307086612
20
-3.1439591338582678
11
6.0602255118110238
21
-3.1330733464566927
0
LINE
8
BLACK
6
CONTINUOUS
10
6.0602255118110238
20
-3.1330733464566927
11
6.0578750000000001
21
-3.1217621259842518
0
LINE
8
BLACK
6
CONTINUOUS
10
6.0578750000000001
20
-3.1217621259842518
11
6.0570866141732278
21
-3.1102362204724407
0
LINE
8
BLACK
6
CONTINUOUS
10
6.0570866141732278
20
-3.1102362204724407
11
6.0578750000000001
21
-3.0987103149606297
0
LINE
8
BLACK
6
CONTINUOUS
10
6.0578750000000001
20
-3.0987103149606297
11
6.0602255118110238
21
-3.0873990944881888
0
LINE
8
BLACK
6
CONTINUOUS
10
6.0602255118110238
20
-3.0873990944881888
11
6.0640943307086612
21
-3.0765133070866142
0
LINE
8
BLACK
6
CONTINUOUS
10
6.0640943307086612
20
-3.0765133070866142
11
6.0694093700787404
21
-3.0662557086614171
0
LINE
8
BLACK
6
CONTINUOUS
10
6.0694093700787404
20
-3.0662557086614171
11
6.076071692913386
21
-3.0568173622047246
0
LINE
8
BLACK
6
CONTINUOUS
10
6.076071692913386
20
-3.0568173622047246
11
6.0839571259842522
21
-3.0483741338582675
0
LINE
8
BLACK
6
CONTINUOUS
10
6.0839571259842522
20
-3.0483741338582675
11
6.092918779527559
21
-3.0410832677165351
0
LINE
8
BLACK
6
CONTINUOUS
10
6.092918779527559
20
-3.0410832677165351
11
6.1027897637795272
21
-3.0350805905511811
0
LINE
8
BLACK
6
CONTINUOUS
10
6.1027897637795272
20
-3.0350805905511811
11
6.1133861811023618
21
-3.0304779133858268
0
LINE
8
BLACK
6
CONTINUOUS
10
6.1133861811023618
20
-3.0304779133858268
11
6.1245106299212599
21
-3.0273609842519686
0
LINE
8
BLACK
6
CONTINUOUS
10
6.1245106299212599
20
-3.0273609842519686
11
6.1359558661417317
21
-3.025787874015748
0
LINE
8
BLACK
6
CONTINUOUS
10
6.1359558661417317
20
-3.025787874015748
11
6.1475087007874016
21
-3.025787874015748
0
LINE
8
BLACK
6
CONTINUOUS
10
6.1475087007874016
20
-3.025787874015748
11
6.1589539370078743
21
-3.0273609842519686
0
LINE
8
BLACK
6
CONTINUOUS
10
4.6384645669291338
20
-3.1884645669291336
11
4.5715354330708662
21
-3.1884645669291336
0
LINE
8
BLACK
6
CONTINUOUS
10
4.5715354330708662
20
-3.1884645669291336
11
4.5715354330708662
21
-3.0191732283464567
0
LINE
8
BLACK
6
CONTINUOUS
10
4.5715354330708662
20
-3.0191732283464567
11
4.6384645669291338
21
-3.0191732283464567
0
LINE
8
BLACK
6
CONTINUOUS
10
4.6384645669291338
20
-3.0191732283464567
11
4.6384645669291338
21
-3.1884645669291336
0
LINE
8
BLACK
6
CONTINUOUS
10
4.4158319291338586
20
-3.0205463779527557
11
4.4216075196850388
21
-3.0229387401574801
0
LINE
8
BLACK
6
CONTINUOUS
10
4.4216075196850388
20
-3.0229387401574801
11
4.4268054724409449
21
-3.0264118897637795
0
LINE
8
BLACK
6
CONTINUOUS
10
4.4268054724409449
20
-3.0264118897637795
11
4.4312259055118108
21
-3.0308323228346454
0
LINE
8
BLACK
6
CONTINUOUS
10
4.4312259055118108
20
-3.0308323228346454
11
4.4346990551181102
21
-3.0360302755905511
0
LINE
8
BLACK
6
CONTINUOUS
10
4.4346990551181102
20
-3.0360302755905511
11
4.4370914173228346
21
-3.0418058661417322
0
LINE
8
BLACK
6
CONTINUOUS
10
4.4370914173228346
20
-3.0418058661417322
11
4.4383110236220471
21
-3.0479372440944883
0
LINE
8
BLACK
6
CONTINUOUS
10
4.4383110236220471
20
-3.0479372440944883
11
4.4384645669291336
21
-3.051062992125984
0
LINE
8
BLACK
6
CONTINUOUS
10
4.4384645669291336
20
-3.051062992125984
11
4.4384645669291336
21
-3.1565748031496064
0
LINE
8
BLACK
6
CONTINUOUS
10
4.4384645669291336
20
-3.1565748031496064
11
4.4383110236220471
21
-3.1597005511811025
0
LINE
8
BLACK
6
CONTINUOUS
10
4.4383110236220471
20
-3.1597005511811025
11
4.4370914173228346
21
-3.1658319291338581
0
LINE
8
BLACK
6
CONTINUOUS
10
4.4370914173228346
20
-3.1658319291338581
11
4.4346990551181102
21
-3.1716075196850393
0
LINE
8
BLACK
6
CONTINUOUS
10
4.4346990551181102
20
-3.1716075196850393
11
4.4312259055118108
21
-3.1768054724409449
0
LINE
8
BLACK
6
CONTINUOUS
10
4.4312259055118108
20
-3.1768054724409449
11
4.4268054724409449
21
-3.1812259055118108
0
LINE
8
BLACK
6
CONTINUOUS
10
4.4268054724409449
20
-3.1812259055118108
11
4.4216075196850388
21
-3.1846990551181102
0
LINE
8
BLACK
6
CONTINUOUS
10
4.4216075196850388
20
-3.1846990551181102
11
4.4158319291338586
21
-3.1870914173228346
0
LINE
8
BLACK
6
CONTINUOUS
10
4.4158319291338586
20
-3.1870914173228346
11
4.4097005511811025
21
-3.1883110236220471
0
LINE
8
BLACK
6
CONTINUOUS
10
4.4097005511811025
20
-3.1883110236220471
11
4.4034490551181102
21
-3.1883110236220471
0
LINE
8
BLACK
6
CONTINUOUS
10
4.4034490551181102
20
-3.1883110236220471
11
4.3973176771653542
21
-3.1870914173228346
0
LINE
8
BLACK
6
CONTINUOUS
10
4.3973176771653542
20
-3.1870914173228346
11
4.391542086614173
21
-3.1846990551181102
0
LINE
8
BLACK
6
CONTINUOUS
10
4.391542086614173
20
-3.1846990551181102
11
4.3863441338582678
21
-3.1812259055118108
0
LINE
8
BLACK
6
CONTINUOUS
10
4.3863441338582678
20
-3.1812259055118108
11
4.3819237007874019
21
-3.1768054724409449
0
LINE
8
BLACK
6
CONTINUOUS
10
4.3819237007874019
20
-3.1768054724409449
11
4.3784505511811025
21
-3.1716075196850393
0
LINE
8
BLACK
6
CONTINUOUS
10
4.3784505511811025
20
-3.1716075196850393
11
4.3760581889763781
21
-3.1658319291338581
0
LINE
8
BLACK
6
CONTINUOUS
10
4.3760581889763781
20
-3.1658319291338581
11
4.3748385826771656
21
-3.1597005511811025
0
LINE
8
BLACK
6
CONTINUOUS
10
4.3748385826771656
20
-3.1597005511811025
11
4.3746850393700782
21
-3.1565748031496064
0
LINE
8
BLACK
6
CONTINUOUS
10
4.3746850393700782
20
-3.1565748031496064
11
4.3746850393700782
21
-3.051062992125984
0
LINE
8
BLACK
6
CONTINUOUS
10
4.3746850393700782
20
-3.051062992125984
11
4.3748385826771656
21
-3.0479372440944883
0
LINE
8
BLACK
6
CONTINUOUS
10
4.3748385826771656
20
-3.0479372440944883
11
4.3760581889763781
21
-3.0418058661417322
0
LINE
8
BLACK
6
CONTINUOUS
10
4.3760581889763781
20
-3.0418058661417322
11
4.3784505511811025
21
-3.0360302755905511
0
LINE
8
BLACK
6
CONTINUOUS
10
4.3784505511811025
20
-3.0360302755905511
11
4.3819237007874019
21
-3.0308323228346454
0
LINE
8
BLACK
6
CONTINUOUS
10
4.3819237007874019
20
-3.0308323228346454
11
4.3863441338582678
21
-3.0264118897637795
0
LINE
8
BLACK
6
CONTINUOUS
10
4.3863441338582678
20
-3.0264118897637795
11
4.391542086614173
21
-3.0229387401574801
0
LINE
8
BLACK
6
CONTINUOUS
10
4.391542086614173
20
-3.0229387401574801
11
4.3973176771653542
21
-3.0205463779527557
0
LINE
8
BLACK
6
CONTINUOUS
10
4.3973176771653542
20
-3.0205463779527557
11
4.4034490551181102
21
-3.0193267716535432
0
LINE
8
BLACK
6
CONTINUOUS
10
4.4034490551181102
20
-3.0193267716535432
11
4.4097005511811025
21
-3.0193267716535432
0
LINE
8
BLACK
6
CONTINUOUS
10
4.4097005511811025
20
-3.0193267716535432
11
4.4158319291338586
21
-3.0205463779527557
0
LINE
8
BLACK
6
CONTINUOUS
10
4.5152730708661419
20
-3.0205803149606298
11
4.5211912992125987
21
-3.0230316929133858
0
LINE
8
BLACK
6
CONTINUOUS
10
4.5211912992125987
20
-3.0230316929133858
11
4.5265175590551179
21
-3.026590590551181
0
LINE
8
BLACK
6
CONTINUOUS
10
4.5265175590551179
20
-3.026590590551181
11
4.531047204724409
21
-3.0311202362204726
0
LINE
8
BLACK
6
CONTINUOUS
10
4.531047204724409
20
-3.0311202362204726
11
4.5346061023622042
21
-3.0364464960629922
0
LINE
8
BLACK
6
CONTINUOUS
10
4.5346061023622042
20
-3.0364464960629922
11
4.5370574803149601
21
-3.0423647244094489
0
LINE
8
BLACK
6
CONTINUOUS
10
4.5370574803149601
20
-3.0423647244094489
11
4.5383072047244095
21
-3.0486474803149606
0
LINE
8
BLACK
6
CONTINUOUS
10
4.5383072047244095
20
-3.0486474803149606
11
4.5384645669291341
21
-3.0518503937007875
0
LINE
8
BLACK
6
CONTINUOUS
10
4.5384645669291341
20
-3.0518503937007875
11
4.5384645669291341
21
-3.1557874015748029
0
LINE
8
BLACK
6
CONTINUOUS
10
4.5384645669291341
20
-3.1557874015748029
11
4.5383072047244095
21
-3.1589903149606298
0
LINE
8
BLACK
6
CONTINUOUS
10
4.5383072047244095
20
-3.1589903149606298
11
4.5370574803149601
21
-3.1652730708661418
0
LINE
8
BLACK
6
CONTINUOUS
10
4.5370574803149601
20
-3.1652730708661418
11
4.5346061023622042
21
-3.1711912992125986
0
LINE
8
BLACK
6
CONTINUOUS
10
4.5346061023622042
20
-3.1711912992125986
11
4.531047204724409
21
-3.1765175590551182
0
LINE
8
BLACK
6
CONTINUOUS
10
4.531047204724409
20
-3.1765175590551182
11
4.5265175590551179
21
-3.1810472047244094
0
LINE
8
BLACK
6
CONTINUOUS
10
4.5265175590551179
20
-3.1810472047244094
11
4.5211912992125987
21
-3.1846061023622045
0
LINE
8
BLACK
6
CONTINUOUS
10
4.5211912992125987
20
-3.1846061023622045
11
4.5152730708661419
21
-3.1870574803149605
0
LINE
8
BLACK
6
CONTINUOUS
10
4.5152730708661419
20
-3.1870574803149605
11
4.5089903149606299
21
-3.1883072047244094
0
LINE
8
BLACK
6
CONTINUOUS
10
4.5089903149606299
20
-3.1883072047244094
11
4.5025844881889761
21
-3.1883072047244094
0
LINE
8
BLACK
6
CONTINUOUS
10
4.5025844881889761
20
-3.1883072047244094
11
4.4963017322834649
21
-3.1870574803149605
0
LINE
8
BLACK
6
CONTINUOUS
10
4.4963017322834649
20
-3.1870574803149605
11
4.4903835039370081
21
-3.1846061023622045
0
LINE
8
BLACK
6
CONTINUOUS
10
4.4903835039370081
20
-3.1846061023622045
11
4.485057244094488
21
-3.1810472047244094
0
LINE
8
BLACK
6
CONTINUOUS
10
4.485057244094488
20
-3.1810472047244094
11
4.4805275984251969
21
-3.1765175590551182
0
LINE
8
BLACK
6
CONTINUOUS
10
4.4805275984251969
20
-3.1765175590551182
11
4.4769687007874017
21
-3.1711912992125986
0
LINE
8
BLACK
6
CONTINUOUS
10
4.4769687007874017
20
-3.1711912992125986
11
4.4745173228346458
21
-3.1652730708661418
0
LINE
8
BLACK
6
CONTINUOUS
10
4.4745173228346458
20
-3.1652730708661418
11
4.4732675984251964
21
-3.1589903149606298
0
LINE
8
BLACK
6
CONTINUOUS
10
4.4732675984251964
20
-3.1589903149606298
11
4.4731102362204727
21
-3.1557874015748029
0
LINE
8
BLACK
6
CONTINUOUS
10
4.4731102362204727
20
-3.1557874015748029
11
4.4731102362204727
21
-3.0518503937007875
0
LINE
8
BLACK
6
CONTINUOUS
10
4.4731102362204727
20
-3.0518503937007875
11
4.4732675984251964
21
-3.0486474803149606
0
LINE
8
BLACK
6
CONTINUOUS
10
4.4732675984251964
20
-3.0486474803149606
11
4.4745173228346458
21
-3.0423647244094489
0
LINE
8
BLACK
6
CONTINUOUS
10
4.4745173228346458
20
-3.0423647244094489
11
4.4769687007874017
21
-3.0364464960629922
0
LINE
8
BLACK
6
CONTINUOUS
10
4.4769687007874017
20
-3.0364464960629922
11
4.4805275984251969
21
-3.0311202362204726
0
LINE
8
BLACK
6
CONTINUOUS
10
4.4805275984251969
20
-3.0311202362204726
11
4.485057244094488
21
-3.026590590551181
0
LINE
8
BLACK
6
CONTINUOUS
10
4.485057244094488
20
-3.026590590551181
11
4.4903835039370081
21
-3.0230316929133858
0
LINE
8
BLACK
6
CONTINUOUS
10
4.4903835039370081
20
-3.0230316929133858
11
4.4963017322834649
21
-3.0205803149606298
0
LINE
8
BLACK
6
CONTINUOUS
10
4.4963017322834649
20
-3.0205803149606298
11
4.5025844881889761
21
-3.0193305905511809
0
LINE
8
BLACK
6
CONTINUOUS
10
4.5025844881889761
20
-3.0193305905511809
11
4.5089903149606299
21
-3.0193305905511809
0
LINE
8
BLACK
6
CONTINUOUS
10
4.5089903149606299
20
-3.0193305905511809
11
4.5152730708661419
21
-3.0205803149606298
0
LINE
8
BLACK
6
CONTINUOUS
10
5.3169137795275585
20
-2.900420157480315
11
5.3222542125984251
21
-2.9035034645669291
0
LINE
8
BLACK
6
CONTINUOUS
10
5.3222542125984251
20
-2.9035034645669291
11
5.3266146456692915
21
-2.9078638976377951
0
LINE
8
BLACK
6
CONTINUOUS
10
5.3266146456692915
20
-2.9078638976377951
11
5.3296979527559056
21
-2.9132043307086612
0
LINE
8
BLACK
6
CONTINUOUS
10
5.3296979527559056
20
-2.9132043307086612
11
5.3312939763779523
21
-2.9191607874015748
0
LINE
8
BLACK
6
CONTINUOUS
10
5.3312939763779523
20
-2.9191607874015748
11
5.3314960629921258
21
-2.9222440944881889
0
LINE
8
BLACK
6
CONTINUOUS
10
5.3314960629921258
20
-2.9222440944881889
11
5.3314960629921258
21
-2.9616141732283463
0
LINE
8
BLACK
6
CONTINUOUS
10
5.3314960629921258
20
-2.9616141732283463
11
5.3312939763779523
21
-2.9646974803149604
0
LINE
8
BLACK
6
CONTINUOUS
10
5.3312939763779523
20
-2.9646974803149604
11
5.3296979527559056
21
-2.9706539370078739
0
LINE
8
BLACK
6
CONTINUOUS
10
5.3296979527559056
20
-2.9706539370078739
11
5.3266146456692915
21
-2.9759943700787401
0
LINE
8
BLACK
6
CONTINUOUS
10
5.3266146456692915
20
-2.9759943700787401
11
5.3222542125984251
21
-2.9803548031496061
0
LINE
8
BLACK
6
CONTINUOUS
10
5.3222542125984251
20
-2.9803548031496061
11
5.3169137795275585
21
-2.9834381102362202
0
LINE
8
BLACK
6
CONTINUOUS
10
5.3169137795275585
20
-2.9834381102362202
11
5.3109573228346454
21
-2.9850341338582678
0
LINE
8
BLACK
6
CONTINUOUS
10
5.3109573228346454
20
-2.9850341338582678
11
5.3047907086614172
21
-2.9850341338582678
0
LINE
8
BLACK
6
CONTINUOUS
10
5.3047907086614172
20
-2.9850341338582678
11
5.2988342519685041
21
-2.9834381102362202
0
LINE
8
BLACK
6
CONTINUOUS
10
5.2988342519685041
20
-2.9834381102362202
11
5.2934938188976375
21
-2.9803548031496061
0
LINE
8
BLACK
6
CONTINUOUS
10
5.2934938188976375
20
-2.9803548031496061
11
5.2891333858267719
21
-2.9759943700787401
0
LINE
8
BLACK
6
CONTINUOUS
10
5.2891333858267719
20
-2.9759943700787401
11
5.286050078740157
21
-2.9706539370078739
0
LINE
8
BLACK
6
CONTINUOUS
10
5.286050078740157
20
-2.9706539370078739
11
5.2844540551181103
21
-2.9646974803149604
0
LINE
8
BLACK
6
CONTINUOUS
10
5.2844540551181103
20
-2.9646974803149604
11
5.2842519685039369
21
-2.9616141732283463
0
LINE
8
BLACK
6
CONTINUOUS
10
5.2842519685039369
20
-2.9616141732283463
11
5.2842519685039369
21
-2.9222440944881889
0
LINE
8
BLACK
6
CONTINUOUS
10
5.2842519685039369
20
-2.9222440944881889
11
5.2844540551181103
21
-2.9191607874015748
0
LINE
8
BLACK
6
CONTINUOUS
10
5.2844540551181103
20
-2.9191607874015748
11
5.286050078740157
21
-2.9132043307086612
0
LINE
8
BLACK
6
CONTINUOUS
10
5.286050078740157
20
-2.9132043307086612
11
5.2891333858267719
21
-2.9078638976377951
0
LINE
8
BLACK
6
CONTINUOUS
10
5.2891333858267719
20
-2.9078638976377951
11
5.2934938188976375
21
-2.9035034645669291
0
LINE
8
BLACK
6
CONTINUOUS
10
5.2934938188976375
20
-2.9035034645669291
11
5.2988342519685041
21
-2.900420157480315
0
LINE
8
BLACK
6
CONTINUOUS
10
5.2988342519685041
20
-2.900420157480315
11
5.3047907086614172
21
-2.8988241338582679
0
LINE
8
BLACK
6
CONTINUOUS
10
5.3047907086614172
20
-2.8988241338582679
11
5.3109573228346454
21
-2.8988241338582679
0
LINE
8
BLACK
6
CONTINUOUS
10
5.3109573228346454
20
-2.8988241338582679
11
5.3169137795275585
21
-2.900420157480315
0
LINE
8
BLACK
6
CONTINUOUS
10
4.9767562992125987
20
-2.8994359055118109
11
4.9820967322834644
21
-2.9025192125984249
0
LINE
8
BLACK
6
CONTINUOUS
10
4.9820967322834644
20
-2.9025192125984249
11
4.9864571653543308
21
-2.9068796456692914
0
LINE
8
BLACK
6
CONTINUOUS
10
4.9864571653543308
20
-2.9068796456692914
11
4.9895404724409449
21
-2.9122200787401575
0
LINE
8
BLACK
6
CONTINUOUS
10
4.9895404724409449
20
-2.9122200787401575
11
4.9911364960629916
21
-2.9181765354330707
0
LINE
8
BLACK
6
CONTINUOUS
10
4.9911364960629916
20
-2.9181765354330707
11
4.991338582677165
21
-2.9212598425196852
0
LINE
8
BLACK
6
CONTINUOUS
10
4.991338582677165
20
-2.9212598425196852
11
4.991338582677165
21
-2.9606299212598426
0
LINE
8
BLACK
6
CONTINUOUS
10
4.991338582677165
20
-2.9606299212598426
11
4.9911364960629916
21
-2.9637132283464567
0
LINE
8
BLACK
6
CONTINUOUS
10
4.9911364960629916
20
-2.9637132283464567
11
4.9895404724409449
21
-2.9696696850393702
0
LINE
8
BLACK
6
CONTINUOUS
10
4.9895404724409449
20
-2.9696696850393702
11
4.9864571653543308
21
-2.975010118110236
0
LINE
8
BLACK
6
CONTINUOUS
10
4.9864571653543308
20
-2.975010118110236
11
4.9820967322834644
21
-2.9793705511811024
0
LINE
8
BLACK
6
CONTINUOUS
10
4.9820967322834644
20
-2.9793705511811024
11
4.9767562992125987
21
-2.9824538582677165
0
LINE
8
BLACK
6
CONTINUOUS
10
4.9767562992125987
20
-2.9824538582677165
11
4.9707998425196847
21
-2.9840498818897636
0
LINE
8
BLACK
6
CONTINUOUS
10
4.9707998425196847
20
-2.9840498818897636
11
4.9646332283464565
21
-2.9840498818897636
0
LINE
8
BLACK
6
CONTINUOUS
10
4.9646332283464565
20
-2.9840498818897636
11
4.9586767716535434
21
-2.9824538582677165
0
LINE
8
BLACK
6
CONTINUOUS
10
4.9586767716535434
20
-2.9824538582677165
11
4.9533363385826767
21
-2.9793705511811024
0
LINE
8
BLACK
6
CONTINUOUS
10
4.9533363385826767
20
-2.9793705511811024
11
4.9489759055118112
21
-2.975010118110236
0
LINE
8
BLACK
6
CONTINUOUS
10
4.9489759055118112
20
-2.975010118110236
11
4.9458925984251971
21
-2.9696696850393702
0
LINE
8
BLACK
6
CONTINUOUS
10
4.9458925984251971
20
-2.9696696850393702
11
4.9442965748031495
21
-2.9637132283464567
0
LINE
8
BLACK
6
CONTINUOUS
10
4.9442965748031495
20
-2.9637132283464567
11
4.9440944881889761
21
-2.9606299212598426
0
LINE
8
BLACK
6
CONTINUOUS
10
4.9440944881889761
20
-2.9606299212598426
11
4.9440944881889761
21
-2.9212598425196852
0
LINE
8
BLACK
6
CONTINUOUS
10
4.9440944881889761
20
-2.9212598425196852
11
4.9442965748031495
21
-2.9181765354330707
0
LINE
8
BLACK
6
CONTINUOUS
10
4.9442965748031495
20
-2.9181765354330707
11
4.9458925984251971
21
-2.9122200787401575
0
LINE
8
BLACK
6
CONTINUOUS
10
4.9458925984251971
20
-2.9122200787401575
11
4.9489759055118112
21
-2.9068796456692914
0
LINE
8
BLACK
6
CONTINUOUS
10
4.9489759055118112
20
-2.9068796456692914
11
4.9533363385826767
21
-2.9025192125984249
0
LINE
8
BLACK
6
CONTINUOUS
10
4.9533363385826767
20
-2.9025192125984249
11
4.9586767716535434
21
-2.8994359055118109
0
LINE
8
BLACK
6
CONTINUOUS
10
4.9586767716535434
20
-2.8994359055118109
11
4.9646332283464565
21
-2.8978398818897637
0
LINE
8
BLACK
6
CONTINUOUS
10
4.9646332283464565
20
-2.8978398818897637
11
4.9707998425196847
21
-2.8978398818897637
0
LINE
8
BLACK
6
CONTINUOUS
10
4.9707998425196847
20
-2.8978398818897637
11
4.9767562992125987
21
-2.8994359055118109
0
LINE
8
BLACK
6
CONTINUOUS
10
5.0261479527559052
20
-2.9016758661417321
11
5.0291261811023622
21
-2.9024738582677165
0
LINE
8
BLACK
6
CONTINUOUS
10
5.0291261811023622
20
-2.9024738582677165
11
5.0317963779527561
21
-2.9040155118110236
0
LINE
8
BLACK
6
CONTINUOUS
10
5.0317963779527561
20
-2.9040155118110236
11
5.0339766141732278
21
-2.9061957480314962
0
LINE
8
BLACK
6
CONTINUOUS
10
5.0339766141732278
20
-2.9061957480314962
11
5.0355182677165349
21
-2.9088659448818897
0
LINE
8
BLACK
6
CONTINUOUS
10
5.0355182677165349
20
-2.9088659448818897
11
5.0363162598425193
21
-2.9118441732283462
0
LINE
8
BLACK
6
CONTINUOUS
10
5.0363162598425193
20
-2.9118441732283462
11
5.0363162598425193
21
-2.9149274803149607
0
LINE
8
BLACK
6
CONTINUOUS
10
5.0363162598425193
20
-2.9149274803149607
11
5.0355182677165349
21
-2.9179057086614173
0
LINE
8
BLACK
6
CONTINUOUS
10
5.0355182677165349
20
-2.9179057086614173
11
5.0339766141732278
21
-2.9205759055118108
0
LINE
8
BLACK
6
CONTINUOUS
10
5.0339766141732278
20
-2.9205759055118108
11
5.0317963779527561
21
-2.9227561417322834
0
LINE
8
BLACK
6
CONTINUOUS
10
5.0317963779527561
20
-2.9227561417322834
11
5.0291261811023622
21
-2.9242977952755904
0
LINE
8
BLACK
6
CONTINUOUS
10
5.0291261811023622
20
-2.9242977952755904
11
5.0261479527559052
21
-2.9250957874015748
0
LINE
8
BLACK
6
CONTINUOUS
10
5.0261479527559052
20
-2.9250957874015748
11
5.0246062992125982
21
-2.9251968503937009
0
LINE
8
BLACK
6
CONTINUOUS
10
5.0246062992125982
20
-2.9251968503937009
11
5.0147637795275593
21
-2.9251968503937009
0
LINE
8
BLACK
6
CONTINUOUS
10
5.0147637795275593
20
-2.9251968503937009
11
5.0132221259842522
21
-2.9250957874015748
0
LINE
8
BLACK
6
CONTINUOUS
10
5.0132221259842522
20
-2.9250957874015748
11
5.0102438976377952
21
-2.9242977952755904
0
LINE
8
BLACK
6
CONTINUOUS
10
5.0102438976377952
20
-2.9242977952755904
11
5.0075737007874013
21
-2.9227561417322834
0
LINE
8
BLACK
6
CONTINUOUS
10
5.0075737007874013
20
-2.9227561417322834
11
5.0053934645669287
21
-2.9205759055118108
0
LINE
8
BLACK
6
CONTINUOUS
10
5.0053934645669287
20
-2.9205759055118108
11
5.0038518110236216
21
-2.9179057086614173
0
LINE
8
BLACK
6
CONTINUOUS
10
5.0038518110236216
20
-2.9179057086614173
11
5.0030538188976381
21
-2.9149274803149607
0
LINE
8
BLACK
6
CONTINUOUS
10
5.0030538188976381
20
-2.9149274803149607
11
5.0030538188976381
21
-2.9118441732283462
0
LINE
8
BLACK
6
CONTINUOUS
10
5.0030538188976381
20
-2.9118441732283462
11
5.0038518110236216
21
-2.9088659448818897
0
LINE
8
BLACK
6
CONTINUOUS
10
5.0038518110236216
20
-2.9088659448818897
11
5.0053934645669287
21
-2.9061957480314962
0
LINE
8
BLACK
6
CONTINUOUS
10
5.0053934645669287
20
-2.9061957480314962
11
5.0075737007874013
21
-2.9040155118110236
0
LINE
8
BLACK
6
CONTINUOUS
10
5.0075737007874013
20
-2.9040155118110236
11
5.0102438976377952
21
-2.9024738582677165
0
LINE
8
BLACK
6
CONTINUOUS
10
5.0102438976377952
20
-2.9024738582677165
11
5.0132221259842522
21
-2.9016758661417321
0
LINE
8
BLACK
6
CONTINUOUS
10
5.0132221259842522
20
-2.9016758661417321
11
5.0147637795275593
21
-2.901574803149606
0
LINE
8
BLACK
6
CONTINUOUS
10
5.0147637795275593
20
-2.901574803149606
11
5.0246062992125982
21
-2.901574803149606
0
LINE
8
BLACK
6
CONTINUOUS
10
5.0246062992125982
20
-2.901574803149606
11
5.0261479527559052
21
-2.9016758661417321
0
LINE
8
BLACK
6
CONTINUOUS
10
5.2618110236220472
20
-2.9031571653543304
11
5.2649532677165354
21
-2.9057938582677165
0
LINE
8
BLACK
6
CONTINUOUS
10
5.2649532677165354
20
-2.9057938582677165
11
5.2670042519685039
21
-2.909346220472441
0
LINE
8
BLACK
6
CONTINUOUS
10
5.2670042519685039
20
-2.909346220472441
11
5.2677165354330704
21
-2.9133858267716537
0
LINE
8
BLACK
6
CONTINUOUS
10
5.2677165354330704
20
-2.9133858267716537
11
5.2670042519685039
21
-2.917425433070866
0
LINE
8
BLACK
6
CONTINUOUS
10
5.2670042519685039
20
-2.917425433070866
11
5.2649532677165354
21
-2.9209777952755904
0
LINE
8
BLACK
6
CONTINUOUS
10
5.2649532677165354
20
-2.9209777952755904
11
5.2618110236220472
21
-2.9236144881889765
0
LINE
8
BLACK
6
CONTINUOUS
10
5.2618110236220472
20
-2.9236144881889765
11
5.2579564566929129
21
-2.9250174015748032
0
LINE
8
BLACK
6
CONTINUOUS
10
5.2579564566929129
20
-2.9250174015748032
11
5.2538545669291334
21
-2.9250174015748032
0
LINE
8
BLACK
6
CONTINUOUS
10
5.2538545669291334
20
-2.9250174015748032
11
5.25
21
-2.9236144881889765
0
LINE
8
BLACK
6
CONTINUOUS
10
5.25
20
-2.9236144881889765
11
5.2468577559055118
21
-2.9209777952755904
0
LINE
8
BLACK
6
CONTINUOUS
10
5.2468577559055118
20
-2.9209777952755904
11
5.2448067716535434
21
-2.917425433070866
0
LINE
8
BLACK
6
CONTINUOUS
10
5.2448067716535434
20
-2.917425433070866
11
5.2440944881889759
21
-2.9133858267716537
0
LINE
8
BLACK
6
CONTINUOUS
10
5.2440944881889759
20
-2.9133858267716537
11
5.2448067716535434
21
-2.909346220472441
0
LINE
8
BLACK
6
CONTINUOUS
10
5.2448067716535434
20
-2.909346220472441
11
5.2468577559055118
21
-2.9057938582677165
0
LINE
8
BLACK
6
CONTINUOUS
10
5.2468577559055118
20
-2.9057938582677165
11
5.25
21
-2.9031571653543304
0
LINE
8
BLACK
6
CONTINUOUS
10
5.25
20
-2.9031571653543304
11
5.2538545669291334
21
-2.9017542519685038
0
LINE
8
BLACK
6
CONTINUOUS
10
5.2538545669291334
20
-2.9017542519685038
11
5.2579564566929129
21
-2.9017542519685038
0
LINE
8
BLACK
6
CONTINUOUS
10
5.2579564566929129
20
-2.9017542519685038
11
5.2618110236220472
21
-2.9031571653543304
0
LINE
8
BLACK
6
CONTINUOUS
10
4.978002204724409
20
-2.733809212598425
11
4.9844195669291338
21
-2.7364673622047242
0
LINE
8
BLACK
6
CONTINUOUS
10
4.9844195669291338
20
-2.7364673622047242
11
4.9901950393700787
21
-2.7403264173228346
0
LINE
8
BLACK
6
CONTINUOUS
10
4.9901950393700787
20
-2.7403264173228346
11
4.9951066535433073
21
-2.7452380314960627
0
LINE
8
BLACK
6
CONTINUOUS
10
4.9951066535433073
20
-2.7452380314960627
11
4.9989657086614177
21
-2.7510135039370076
0
LINE
8
BLACK
6
CONTINUOUS
10
4.9989657086614177
20
-2.7510135039370076
11
5.0016238582677168
21
-2.7574308661417324
0
LINE
8
BLACK
6
CONTINUOUS
10
5.0016238582677168
20
-2.7574308661417324
11
5.0029789763779524
21
-2.7642435039370077
0
LINE
8
BLACK
6
CONTINUOUS
10
5.0029789763779524
20
-2.7642435039370077
11
5.0031496062992122
21
-2.7677165354330708
0
LINE
8
BLACK
6
CONTINUOUS
10
5.0031496062992122
20
-2.7677165354330708
11
5.0031496062992122
21
-2.8149606299212597
0
LINE
8
BLACK
6
CONTINUOUS
10
5.0031496062992122
20
-2.8149606299212597
11
5.0029789763779524
21
-2.8184336614173229
0
LINE
8
BLACK
6
CONTINUOUS
10
5.0029789763779524
20
-2.8184336614173229
11
5.0016238582677168
21
-2.8252462992125982
0
LINE
8
BLACK
6
CONTINUOUS
10
5.0016238582677168
20
-2.8252462992125982
11
4.9989657086614177
21
-2.831663661417323
0
LINE
8
BLACK
6
CONTINUOUS
10
4.9989657086614177
20
-2.831663661417323
11
4.9951066535433073
21
-2.8374391338582678
0
LINE
8
BLACK
6
CONTINUOUS
10
4.9951066535433073
20
-2.8374391338582678
11
4.9901950393700787
21
-2.842350748031496
0
LINE
8
BLACK
6
CONTINUOUS
10
4.9901950393700787
20
-2.842350748031496
11
4.9844195669291338
21
-2.8462098031496064
0
LINE
8
BLACK
6
CONTINUOUS
10
4.9844195669291338
20
-2.8462098031496064
11
4.978002204724409
21
-2.8488679527559055
0
LINE
8
BLACK
6
CONTINUOUS
10
4.978002204724409
20
-2.8488679527559055
11
4.9711895669291337
21
-2.8502230708661416
0
LINE
8
BLACK
6
CONTINUOUS
10
4.9711895669291337
20
-2.8502230708661416
11
4.9642435039370074
21
-2.8502230708661416
0
LINE
8
BLACK
6
CONTINUOUS
10
4.9642435039370074
20
-2.8502230708661416
11
4.9574308661417321
21
-2.8488679527559055
0
LINE
8
BLACK
6
CONTINUOUS
10
4.9574308661417321
20
-2.8488679527559055
11
4.9510135039370073
21
-2.8462098031496064
0
LINE
8
BLACK
6
CONTINUOUS
10
4.9510135039370073
20
-2.8462098031496064
11
4.9452380314960624
21
-2.842350748031496
0
LINE
8
BLACK
6
CONTINUOUS
10
4.9452380314960624
20
-2.842350748031496
11
4.9403264173228347
21
-2.8374391338582678
0
LINE
8
BLACK
6
CONTINUOUS
10
4.9403264173228347
20
-2.8374391338582678
11
4.9364673622047244
21
-2.831663661417323
0
LINE
8
BLACK
6
CONTINUOUS
10
4.9364673622047244
20
-2.831663661417323
11
4.9338092125984252
21
-2.8252462992125982
0
LINE
8
BLACK
6
CONTINUOUS
10
4.9338092125984252
20
-2.8252462992125982
11
4.9324540944881887
21
-2.8184336614173229
0
LINE
8
BLACK
6
CONTINUOUS
10
4.9324540944881887
20
-2.8184336614173229
11
4.9322834645669289
21
-2.8149606299212597
0
LINE
8
BLACK
6
CONTINUOUS
10
4.9322834645669289
20
-2.8149606299212597
11
4.9322834645669289
21
-2.7677165354330708
0
LINE
8
BLACK
6
CONTINUOUS
10
4.9322834645669289
20
-2.7677165354330708
11
4.9324540944881887
21
-2.7642435039370077
0
LINE
8
BLACK
6
CONTINUOUS
10
4.9324540944881887
20
-2.7642435039370077
11
4.9338092125984252
21
-2.7574308661417324
0
LINE
8
BLACK
6
CONTINUOUS
10
4.9338092125984252
20
-2.7574308661417324
11
4.9364673622047244
21
-2.7510135039370076
0
LINE
8
BLACK
6
CONTINUOUS
10
4.9364673622047244
20
-2.7510135039370076
11
4.9403264173228347
21
-2.7452380314960627
0
LINE
8
BLACK
6
CONTINUOUS
10
4.9403264173228347
20
-2.7452380314960627
11
4.9452380314960624
21
-2.7403264173228346
0
LINE
8
BLACK
6
CONTINUOUS
10
4.9452380314960624
20
-2.7403264173228346
11
4.9510135039370073
21
-2.7364673622047242
0
LINE
8
BLACK
6
CONTINUOUS
10
4.9510135039370073
20
-2.7364673622047242
11
4.9574308661417321
21
-2.733809212598425
0
LINE
8
BLACK
6
CONTINUOUS
10
4.9574308661417321
20
-2.733809212598425
11
4.9642435039370074
21
-2.732454094488189
0
LINE
8
BLACK
6
CONTINUOUS
10
4.9642435039370074
20
-2.732454094488189
11
4.9711895669291337
21
-2.732454094488189
0
LINE
8
BLACK
6
CONTINUOUS
10
4.9711895669291337
20
-2.732454094488189
11
4.978002204724409
21
-2.733809212598425
0
LINE
8
BLACK
6
CONTINUOUS
10
5.3181596850393698
20
-2.733809212598425
11
5.3245770472440945
21
-2.7364673622047242
0
LINE
8
BLACK
6
CONTINUOUS
10
5.3245770472440945
20
-2.7364673622047242
11
5.3303525196850394
21
-2.7403264173228346
0
LINE
8
BLACK
6
CONTINUOUS
10
5.3303525196850394
20
-2.7403264173228346
11
5.335264133858268
21
-2.7452380314960627
0
LINE
8
BLACK
6
CONTINUOUS
10
5.335264133858268
20
-2.7452380314960627
11
5.3391231889763775
21
-2.7510135039370076
0
LINE
8
BLACK
6
CONTINUOUS
10
5.3391231889763775
20
-2.7510135039370076
11
5.3417813385826767
21
-2.7574308661417324
0
LINE
8
BLACK
6
CONTINUOUS
10
5.3417813385826767
20
-2.7574308661417324
11
5.3431364566929131
21
-2.7642435039370077
0
LINE
8
BLACK
6
CONTINUOUS
10
5.3431364566929131
20
-2.7642435039370077
11
5.343307086614173
21
-2.7677165354330708
0
LINE
8
BLACK
6
CONTINUOUS
10
5.343307086614173
20
-2.7677165354330708
11
5.343307086614173
21
-2.8149606299212597
0
LINE
8
BLACK
6
CONTINUOUS
10
5.343307086614173
20
-2.8149606299212597
11
5.3431364566929131
21
-2.8184336614173229
0
LINE
8
BLACK
6
CONTINUOUS
10
5.3431364566929131
20
-2.8184336614173229
11
5.3417813385826767
21
-2.8252462992125982
0
LINE
8
BLACK
6
CONTINUOUS
10
5.3417813385826767
20
-2.8252462992125982
11
5.3391231889763775
21
-2.831663661417323
0
LINE
8
BLACK
6
CONTINUOUS
10
5.3391231889763775
20
-2.831663661417323
11
5.335264133858268
21
-2.8374391338582678
0
LINE
8
BLACK
6
CONTINUOUS
10
5.335264133858268
20
-2.8374391338582678
11
5.3303525196850394
21
-2.842350748031496
0
LINE
8
BLACK
6
CONTINUOUS
10
5.3303525196850394
20
-2.842350748031496
11
5.3245770472440945
21
-2.8462098031496064
0
LINE
8
BLACK
6
CONTINUOUS
10
5.3245770472440945
20
-2.8462098031496064
11
5.3181596850393698
21
-2.8488679527559055
0
LINE
8
BLACK
6
CONTINUOUS
10
5.3181596850393698
20
-2.8488679527559055
11
5.3113470472440945
21
-2.8502230708661416
0
LINE
8
BLACK
6
CONTINUOUS
10
5.3113470472440945
20
-2.8502230708661416
11
5.3044009842519682
21
-2.8502230708661416
0
LINE
8
BLACK
6
CONTINUOUS
10
5.3044009842519682
20
-2.8502230708661416
11
5.2975883464566929
21
-2.8488679527559055
0
LINE
8
BLACK
6
CONTINUOUS
10
5.2975883464566929
20
-2.8488679527559055
11
5.2911709842519681
21
-2.8462098031496064
0
LINE
8
BLACK
6
CONTINUOUS
10
5.2911709842519681
20
-2.8462098031496064
11
5.2853955118110232
21
-2.842350748031496
0
LINE
8
BLACK
6
CONTINUOUS
10
5.2853955118110232
20
-2.842350748031496
11
5.2804838976377955
21
-2.8374391338582678
0
LINE
8
BLACK
6
CONTINUOUS
10
5.2804838976377955
20
-2.8374391338582678
11
5.2766248425196851
21
-2.831663661417323
0
LINE
8
BLACK
6
CONTINUOUS
10
5.2766248425196851
20
-2.831663661417323
11
5.2739666929133859
21
-2.8252462992125982
0
LINE
8
BLACK
6
CONTINUOUS
10
5.2739666929133859
20
-2.8252462992125982
11
5.2726115748031495
21
-2.8184336614173229
0
LINE
8
BLACK
6
CONTINUOUS
10
5.2726115748031495
20
-2.8184336614173229
11
5.2724409448818896
21
-2.8149606299212597
0
LINE
8
BLACK
6
CONTINUOUS
10
5.2724409448818896
20
-2.8149606299212597
11
5.2724409448818896
21
-2.7677165354330708
0
LINE
8
BLACK
6
CONTINUOUS
10
5.2724409448818896
20
-2.7677165354330708
11
5.2726115748031495
21
-2.7642435039370077
0
LINE
8
BLACK
6
CONTINUOUS
10
5.2726115748031495
20
-2.7642435039370077
11
5.2739666929133859
21
-2.7574308661417324
0
LINE
8
BLACK
6
CONTINUOUS
10
5.2739666929133859
20
-2.7574308661417324
11
5.2766248425196851
21
-2.7510135039370076
0
LINE
8
BLACK
6
CONTINUOUS
10
5.2766248425196851
20
-2.7510135039370076
11
5.2804838976377955
21
-2.7452380314960627
0
LINE
8
BLACK
6
CONTINUOUS
10
5.2804838976377955
20
-2.7452380314960627
11
5.2853955118110232
21
-2.7403264173228346
0
LINE
8
BLACK
6
CONTINUOUS
10
5.2853955118110232
20
-2.7403264173228346
11
5.2911709842519681
21
-2.7364673622047242
0
LINE
8
BLACK
6
CONTINUOUS
10
5.2911709842519681
20
-2.7364673622047242
11
5.2975883464566929
21
-2.733809212598425
0
LINE
8
BLACK
6
CONTINUOUS
10
5.2975883464566929
20
-2.733809212598425
11
5.3044009842519682
21
-2.732454094488189
0
LINE
8
BLACK
6
CONTINUOUS
10
5.3044009842519682
20
-2.732454094488189
11
5.3113470472440945
21
-2.732454094488189
0
LINE
8
BLACK
6
CONTINUOUS
10
5.3113470472440945
20
-2.732454094488189
11
5.3181596850393698
21
-2.733809212598425
  0
ENDSEC
  0
EOF
