  0
SECTION
  2
HEADER
  9
$ANGBASE
  50
0.0
  9
$ANGDIR
  70
1
  9
$MEASUREMENT
  70
0
  0
ENDSEC
  0
SECTION
  2
TABLES
  0
TABLE
  2
LTYPE
  70
4
  0
LTYPE
  5
40F
  2
CONTINUOUS
  70
0
  3
Solid line
  72
65
  73
0
  40
0.0
  0
LTYPE
  5
410
  2
DASHDOT
 70
0
  3
Dash Dot ____ _ ____ _
 72
65
 73
4
 40
2.0
 49
1.25
 49
-0.25
 49
0.25
 49
-0.25
  0
LTYPE
  5
411
  2
DASHED
 70
0
  3
Dashed __ __ __ __ __
 72
65
 73
2
 40
0.75
 49
0.5
 49
-0.25
  0
LTYPE
  5
43B
  2
DOTTED
 70
0
  3
Dotted .  .  .  .
 72
65
 73
2
 40
0.2
 49
0.0
 49
-0.2
  0
ENDTAB
  0
TABLE
  2
STYLE
  70
4
  0
STYLE
  2
KICAD
  70
0
  40
0
  41
1
  42
1
  50
0
  71
0
  3
isocp.shx
  0
STYLE
  2
KICADB
  70
0
  40
0
  41
1
  42
1
  50
0
  71
0
  3
isocp.shx
  0
STYLE
  2
KICADI
  70
0
  40
0
  41
1
  42
1
  50
15
  71
0
  3
isocp.shx
  0
STYLE
  2
KICADBI
  70
0
  40
0
  41
1
  42
1
  50
15
  71
0
  3
isocp.shx
  0
ENDTAB
  0
TABLE
  2
LAYER
  70
1
  0
LAYER
  2
BLACK
  70
0
  62
7
  6
CONTINUOUS
  0
ENDTAB
  0
ENDSEC
  0
SECTION
  2
ENTITIES
0
LINE
8
BLACK
6
CONTINUOUS
10
5.5118110236220472
20
-2.715551181102362
11
5.5222171653543306
21
-2.7162332283464568
0
LINE
8
BLACK
6
CONTINUOUS
10
5.5222171653543306
20
-2.7162332283464568
11
5.5324452362204726
21
-2.7182677165354332
0
LINE
8
BLACK
6
CONTINUOUS
10
5.5324452362204726
20
-2.7182677165354332
11
5.5423202362204727
21
-2.7216198425196851
0
LINE
8
BLACK
6
CONTINUOUS
10
5.5423202362204727
20
-2.7216198425196851
11
5.5516732283464565
21
-2.7262322440944882
0
LINE
8
BLACK
6
CONTINUOUS
10
5.5516732283464565
20
-2.7262322440944882
11
5.5603441732283461
21
-2.7320259448818898
0
LINE
8
BLACK
6
CONTINUOUS
10
5.5603441732283461
20
-2.7320259448818898
11
5.5681846850393697
21
-2.7389019291338581
0
LINE
8
BLACK
6
CONTINUOUS
10
5.5681846850393697
20
-2.7389019291338581
11
5.5750606692913385
21
-2.7467424409448817
0
LINE
8
BLACK
6
CONTINUOUS
10
5.5750606692913385
20
-2.7467424409448817
11
5.5808543700787396
21
-2.7554133858267718
0
LINE
8
BLACK
6
CONTINUOUS
10
5.5808543700787396
20
-2.7554133858267718
11
5.5854667716535431
21
-2.764766377952756
0
LINE
8
BLACK
6
CONTINUOUS
10
5.5854667716535431
20
-2.764766377952756
11
5.588818897637795
21
-2.7746413779527557
0
LINE
8
BLACK
6
CONTINUOUS
10
5.588818897637795
20
-2.7746413779527557
11
5.5908533858267715
21
-2.7848694488188976
0
LINE
8
BLACK
6
CONTINUOUS
10
5.5908533858267715
20
-2.7848694488188976
11
5.5915354330708658
21
-2.795275590551181
0
LINE
8
BLACK
6
CONTINUOUS
10
5.5915354330708658
20
-2.795275590551181
11
5.5915354330708658
21
-2.9429133858267718
0
LINE
8
BLACK
6
CONTINUOUS
10
5.5915354330708658
20
-2.9429133858267718
11
5.5915354330708658
21
-2.9467090551181103
0
LINE
8
BLACK
6
CONTINUOUS
10
5.5915354330708658
20
-2.9467090551181103
11
5.5927229921259842
21
-2.9542068897637797
0
LINE
8
BLACK
6
CONTINUOUS
10
5.5927229921259842
20
-2.9542068897637797
11
5.5950688188976381
21
-2.9614266535433069
0
LINE
8
BLACK
6
CONTINUOUS
10
5.5950688188976381
20
-2.9614266535433069
11
5.5985151968503937
21
-2.9681905511811024
0
LINE
8
BLACK
6
CONTINUOUS
10
5.5985151968503937
20
-2.9681905511811024
11
5.6029772440944878
21
-2.9743320472440944
0
LINE
8
BLACK
6
CONTINUOUS
10
5.6029772440944878
20
-2.9743320472440944
11
5.6083451181102362
21
-2.9796999212598423
0
LINE
8
BLACK
6
CONTINUOUS
10
5.6083451181102362
20
-2.9796999212598423
11
5.6144866141732281
21
-2.9841619685039369
0
LINE
8
BLACK
6
CONTINUOUS
10
5.6144866141732281
20
-2.9841619685039369
11
5.6212505118110236
21
-2.9876083464566929
0
LINE
8
BLACK
6
CONTINUOUS
10
5.6212505118110236
20
-2.9876083464566929
11
5.6284702755905514
21
-2.9899541732283463
0
LINE
8
BLACK
6
CONTINUOUS
10
5.6284702755905514
20
-2.9899541732283463
11
5.6359681102362202
21
-2.9911417322834644
0
LINE
8
BLACK
6
CONTINUOUS
10
5.6359681102362202
20
-2.9911417322834644
11
5.6397637795275593
21
-2.9911417322834644
0
LINE
8
BLACK
6
CONTINUOUS
10
5.6397637795275593
20
-2.9911417322834644
11
6.1417322834645667
21
-2.9911417322834644
0
LINE
8
BLACK
6
CONTINUOUS
10
6.1417322834645667
20
-2.9911417322834644
11
6.1541810629921256
21
-2.9917941338582676
0
LINE
8
BLACK
6
CONTINUOUS
10
6.1541810629921256
20
-2.9917941338582676
11
6.1664934251968502
21
-2.9937442519685038
0
LINE
8
BLACK
6
CONTINUOUS
10
6.1664934251968502
20
-2.9937442519685038
11
6.1785344881889763
21
-2.9969706299212597
0
LINE
8
BLACK
6
CONTINUOUS
10
6.1785344881889763
20
-2.9969706299212597
11
6.1901723622047244
21
-3.0014379921259842
0
LINE
8
BLACK
6
CONTINUOUS
10
6.1901723622047244
20
-3.0014379921259842
11
6.2012795275590546
21
-3.0070973622047243
0
LINE
8
BLACK
6
CONTINUOUS
10
6.2012795275590546
20
-3.0070973622047243
11
6.2117342519685037
21
-3.0138867716535431
0
LINE
8
BLACK
6
CONTINUOUS
10
6.2117342519685037
20
-3.0138867716535431
11
6.2214220472440944
21
-3.0217317716535432
0
LINE
8
BLACK
6
CONTINUOUS
10
6.2214220472440944
20
-3.0217317716535432
11
6.2302367322834646
21
-3.0305464566929134
0
LINE
8
BLACK
6
CONTINUOUS
10
6.2302367322834646
20
-3.0305464566929134
11
6.2380817322834643
21
-3.0402342519685037
0
LINE
8
BLACK
6
CONTINUOUS
10
6.2380817322834643
20
-3.0402342519685037
11
6.2448711417322835
21
-3.0506889763779528
0
LINE
8
BLACK
6
CONTINUOUS
10
6.2448711417322835
20
-3.0506889763779528
11
6.2505305118110233
21
-3.0617961417322834
0
LINE
8
BLACK
6
CONTINUOUS
10
6.2505305118110233
20
-3.0617961417322834
11
6.2549978740157481
21
-3.0734340157480315
0
LINE
8
BLACK
6
CONTINUOUS
10
6.2549978740157481
20
-3.0734340157480315
11
6.2582242519685041
21
-3.0854750787401573
0
LINE
8
BLACK
6
CONTINUOUS
10
6.2582242519685041
20
-3.0854750787401573
11
6.2601743700787402
21
-3.0977874409448818
0
LINE
8
BLACK
6
CONTINUOUS
10
6.2601743700787402
20
-3.0977874409448818
11
6.2608267716535435
21
-3.1102362204724407
0
LINE
8
BLACK
6
CONTINUOUS
10
6.2608267716535435
20
-3.1102362204724407
11
6.2608267716535435
21
-5.1181102362204722
0
LINE
8
BLACK
6
CONTINUOUS
10
6.2608267716535435
20
-5.1181102362204722
11
6.2601743700787402
21
-5.1305590157480312
0
LINE
8
BLACK
6
CONTINUOUS
10
6.2601743700787402
20
-5.1305590157480312
11
6.2582242519685041
21
-5.1428713779527557
0
LINE
8
BLACK
6
CONTINUOUS
10
6.2582242519685041
20
-5.1428713779527557
11
6.2549978740157481
21
-5.1549124409448819
0
LINE
8
BLACK
6
CONTINUOUS
10
6.2549978740157481
20
-5.1549124409448819
11
6.2505305118110233
21
-5.16655031496063
0
LINE
8
BLACK
6
CONTINUOUS
10
6.2505305118110233
20
-5.16655031496063
11
6.2448711417322835
21
-5.1776574803149602
0
LINE
8
BLACK
6
CONTINUOUS
10
6.2448711417322835
20
-5.1776574803149602
11
6.2380817322834643
21
-5.1881122047244093
0
LINE
8
BLACK
6
CONTINUOUS
10
6.2380817322834643
20
-5.1881122047244093
11
6.2302367322834646
21
-5.1978
0
LINE
8
BLACK
6
CONTINUOUS
10
6.2302367322834646
20
-5.1978
11
6.2214220472440944
21
-5.2066146850393702
0
LINE
8
BLACK
6
CONTINUOUS
10
6.2214220472440944
20
-5.2066146850393702
11
6.2117342519685037
21
-5.2144596850393699
0
LINE
8
BLACK
6
CONTINUOUS
10
6.2117342519685037
20
-5.2144596850393699
11
6.2012795275590546
21
-5.2212490944881891
0
LINE
8
BLACK
6
CONTINUOUS
10
6.2012795275590546
20
-5.2212490944881891
11
6.1901723622047244
21
-5.2269084645669288
0
LINE
8
BLACK
6
CONTINUOUS
10
6.1901723622047244
20
-5.2269084645669288
11
6.1785344881889763
21
-5.2313758267716537
0
LINE
8
BLACK
6
CONTINUOUS
10
6.1785344881889763
20
-5.2313758267716537
11
6.1664934251968502
21
-5.2346022047244096
0
LINE
8
BLACK
6
CONTINUOUS
10
6.1664934251968502
20
-5.2346022047244096
11
6.1541810629921256
21
-5.2365523228346458
0
LINE
8
BLACK
6
CONTINUOUS
10
6.1541810629921256
20
-5.2365523228346458
11
6.1417322834645667
21
-5.2372047244094491
0
LINE
8
BLACK
6
CONTINUOUS
10
6.1417322834645667
20
-5.2372047244094491
11
4.1338582677165352
21
-5.2372047244094491
0
LINE
8
BLACK
6
CONTINUOUS
10
4.1338582677165352
20
-5.2372047244094491
11
4.1214094881889762
21
-5.2365523228346458
0
LINE
8
BLACK
6
CONTINUOUS
10
4.1214094881889762
20
-5.2365523228346458
11
4.1090971259842517
21
-5.2346022047244096
0
LINE
8
BLACK
6
CONTINUOUS
10
4.1090971259842517
20
-5.2346022047244096
11
4.0970560629921255
21
-5.2313758267716537
0
LINE
8
BLACK
6
CONTINUOUS
10
4.0970560629921255
20
-5.2313758267716537
11
4.0854181889763774
21
-5.2269084645669288
0
LINE
8
BLACK
6
CONTINUOUS
10
4.0854181889763774
20
-5.2269084645669288
11
4.0743110236220472
21
-5.2212490944881891
0
LINE
8
BLACK
6
CONTINUOUS
10
4.0743110236220472
20
-5.2212490944881891
11
4.0638562992125982
21
-5.2144596850393699
0
LINE
8
BLACK
6
CONTINUOUS
10
4.0638562992125982
20
-5.2144596850393699
11
4.0541685039370075
21
-5.2066146850393702
0
LINE
8
BLACK
6
CONTINUOUS
10
4.0541685039370075
20
-5.2066146850393702
11
4.0453538188976381
21
-5.1978
0
LINE
8
BLACK
6
CONTINUOUS
10
4.0453538188976381
20
-5.1978
11
4.0375088188976376
21
-5.1881122047244093
0
LINE
8
BLACK
6
CONTINUOUS
10
4.0375088188976376
20
-5.1881122047244093
11
4.0307194094488192
21
-5.1776574803149602
0
LINE
8
BLACK
6
CONTINUOUS
10
4.0307194094488192
20
-5.1776574803149602
11
4.0250600393700786
21
-5.16655031496063
0
LINE
8
BLACK
6
CONTINUOUS
10
4.0250600393700786
20
-5.16655031496063
11
4.0205926771653546
21
-5.1549124409448819
0
LINE
8
BLACK
6
CONTINUOUS
10
4.0205926771653546
20
-5.1549124409448819
11
4.0173662992125987
21
-5.1428713779527557
0
LINE
8
BLACK
6
CONTINUOUS
10
4.0173662992125987
20
-5.1428713779527557
11
4.0154161811023625
21
-5.1305590157480312
0
LINE
8
BLACK
6
CONTINUOUS
10
4.0154161811023625
20
-5.1305590157480312
11
4.0147637795275593
21
-5.1181102362204722
0
LINE
8
BLACK
6
CONTINUOUS
10
4.0147637795275593
20
-5.1181102362204722
11
4.0147637795275593
21
-3.1102362204724407
0
LINE
8
BLACK
6
CONTINUOUS
10
4.0147637795275593
20
-3.1102362204724407
11
4.0154161811023625
21
-3.0977874409448818
0
LINE
8
BLACK
6
CONTINUOUS
10
4.0154161811023625
20
-3.0977874409448818
11
4.0173662992125987
21
-3.0854750787401573
0
LINE
8
BLACK
6
CONTINUOUS
10
4.0173662992125987
20
-3.0854750787401573
11
4.0205926771653546
21
-3.0734340157480315
0
LINE
8
BLACK
6
CONTINUOUS
10
4.0205926771653546
20
-3.0734340157480315
11
4.0250600393700786
21
-3.0617961417322834
0
LINE
8
BLACK
6
CONTINUOUS
10
4.0250600393700786
20
-3.0617961417322834
11
4.0307194094488192
21
-3.0506889763779528
0
LINE
8
BLACK
6
CONTINUOUS
10
4.0307194094488192
20
-3.0506889763779528
11
4.0375088188976376
21
-3.0402342519685037
0
LINE
8
BLACK
6
CONTINUOUS
10
4.0375088188976376
20
-3.0402342519685037
11
4.0453538188976381
21
-3.0305464566929134
0
LINE
8
BLACK
6
CONTINUOUS
10
4.0453538188976381
20
-3.0305464566929134
11
4.0541685039370075
21
-3.0217317716535432
0
LINE
8
BLACK
6
CONTINUOUS
10
4.0541685039370075
20
-3.0217317716535432
11
4.0638562992125982
21
-3.0138867716535431
0
LINE
8
BLACK
6
CONTINUOUS
10
4.0638562992125982
20
-3.0138867716535431
11
4.0743110236220472
21
-3.0070973622047243
0
LINE
8
BLACK
6
CONTINUOUS
10
4.0743110236220472
20
-3.0070973622047243
11
4.0854181889763774
21
-3.0014379921259842
0
LINE
8
BLACK
6
CONTINUOUS
10
4.0854181889763774
20
-3.0014379921259842
11
4.0970560629921255
21
-2.9969706299212597
0
LINE
8
BLACK
6
CONTINUOUS
10
4.0970560629921255
20
-2.9969706299212597
11
4.1090971259842517
21
-2.9937442519685038
0
LINE
8
BLACK
6
CONTINUOUS
10
4.1090971259842517
20
-2.9937442519685038
11
4.1214094881889762
21
-2.9917941338582676
0
LINE
8
BLACK
6
CONTINUOUS
10
4.1214094881889762
20
-2.9917941338582676
11
4.1338582677165352
21
-2.9911417322834644
0
LINE
8
BLACK
6
CONTINUOUS
10
4.1338582677165352
20
-2.9911417322834644
11
4.5964566929133861
21
-2.9911417322834644
0
LINE
8
BLACK
6
CONTINUOUS
10
4.5964566929133861
20
-2.9911417322834644
11
4.6002523622047242
21
-2.9911417322834644
0
LINE
8
BLACK
6
CONTINUOUS
10
4.6002523622047242
20
-2.9911417322834644
11
4.607750196850394
21
-2.9899541732283463
0
LINE
8
BLACK
6
CONTINUOUS
10
4.607750196850394
20
-2.9899541732283463
11
4.6149699606299208
21
-2.9876083464566929
0
LINE
8
BLACK
6
CONTINUOUS
10
4.6149699606299208
20
-2.9876083464566929
11
4.6217338582677163
21
-2.9841619685039369
0
LINE
8
BLACK
6
CONTINUOUS
10
4.6217338582677163
20
-2.9841619685039369
11
4.6278753543307083
21
-2.9796999212598423
0
LINE
8
BLACK
6
CONTINUOUS
10
4.6278753543307083
20
-2.9796999212598423
11
4.6332432283464566
21
-2.9743320472440944
0
LINE
8
BLACK
6
CONTINUOUS
10
4.6332432283464566
20
-2.9743320472440944
11
4.6377052755905508
21
-2.9681905511811024
0
LINE
8
BLACK
6
CONTINUOUS
10
4.6377052755905508
20
-2.9681905511811024
11
4.6411516535433073
21
-2.9614266535433069
0
LINE
8
BLACK
6
CONTINUOUS
10
4.6411516535433073
20
-2.9614266535433069
11
4.6434974803149602
21
-2.9542068897637797
0
LINE
8
BLACK
6
CONTINUOUS
10
4.6434974803149602
20
-2.9542068897637797
11
4.6446850393700787
21
-2.9467090551181103
0
LINE
8
BLACK
6
CONTINUOUS
10
4.6446850393700787
20
-2.9467090551181103
11
4.6446850393700787
21
-2.9429133858267718
0
LINE
8
BLACK
6
CONTINUOUS
10
4.6446850393700787
20
-2.9429133858267718
11
4.6446850393700787
21
-2.795275590551181
0
LINE
8
BLACK
6
CONTINUOUS
10
4.6446850393700787
20
-2.795275590551181
11
4.645367086614173
21
-2.7848694488188976
0
LINE
8
BLACK
6
CONTINUOUS
10
4.645367086614173
20
-2.7848694488188976
11
4.6474015748031494
21
-2.7746413779527557
0
LINE
8
BLACK
6
CONTINUOUS
10
4.6474015748031494
20
-2.7746413779527557
11
4.6507537007874014
21
-2.764766377952756
0
LINE
8
BLACK
6
CONTINUOUS
10
4.6507537007874014
20
-2.764766377952756
11
4.6553661023622048
21
-2.7554133858267718
0
LINE
8
BLACK
6
CONTINUOUS
10
4.6553661023622048
20
-2.7554133858267718
11
4.661159803149606
21
-2.7467424409448817
0
LINE
8
BLACK
6
CONTINUOUS
10
4.661159803149606
20
-2.7467424409448817
11
4.6680357874015748
21
-2.7389019291338581
0
LINE
8
BLACK
6
CONTINUOUS
10
4.6680357874015748
20
-2.7389019291338581
11
4.6758762992125984
21
-2.7320259448818898
0
LINE
8
BLACK
6
CONTINUOUS
10
4.6758762992125984
20
-2.7320259448818898
11
4.684547244094488
21
-2.7262322440944882
0
LINE
8
BLACK
6
CONTINUOUS
10
4.684547244094488
20
-2.7262322440944882
11
4.6939002362204727
21
-2.7216198425196851
0
LINE
8
BLACK
6
CONTINUOUS
10
4.6939002362204727
20
-2.7216198425196851
11
4.7037752362204728
21
-2.7182677165354332
0
LINE
8
BLACK
6
CONTINUOUS
10
4.7037752362204728
20
-2.7182677165354332
11
4.7140033070866139
21
-2.7162332283464568
0
LINE
8
BLACK
6
CONTINUOUS
10
4.7140033070866139
20
-2.7162332283464568
11
4.7244094488188972
21
-2.715551181102362
0
LINE
8
BLACK
6
CONTINUOUS
10
4.7244094488188972
20
-2.715551181102362
11
5.5118110236220472
21
-2.715551181102362
0
LINE
8
BLACK
6
CONTINUOUS
10
4.7244094488188972
20
-2.7175196850393699
11
4.7193130708661419
21
-2.7175196850393699
0
LINE
8
BLACK
6
CONTINUOUS
10
4.7193130708661419
20
-2.7175196850393699
11
4.7092074803149604
21
-2.718850118110236
0
LINE
8
BLACK
6
CONTINUOUS
10
4.7092074803149604
20
-2.718850118110236
11
4.6993620078740159
21
-2.721488188976378
0
LINE
8
BLACK
6
CONTINUOUS
10
4.6993620078740159
20
-2.721488188976378
11
4.6899450787401573
21
-2.7253887795275591
0
LINE
8
BLACK
6
CONTINUOUS
10
4.6899450787401573
20
-2.7253887795275591
11
4.6811178740157482
21
-2.7304851968503936
0
LINE
8
BLACK
6
CONTINUOUS
10
4.6811178740157482
20
-2.7304851968503936
11
4.6730314173228349
21
-2.7366901574803149
0
LINE
8
BLACK
6
CONTINUOUS
10
4.6730314173228349
20
-2.7366901574803149
11
4.6658240157480311
21
-2.7438975590551182
0
LINE
8
BLACK
6
CONTINUOUS
10
4.6658240157480311
20
-2.7438975590551182
11
4.6596190551181103
21
-2.7519840157480315
0
LINE
8
BLACK
6
CONTINUOUS
10
4.6596190551181103
20
-2.7519840157480315
11
4.6545226377952753
21
-2.7608112204724411
0
LINE
8
BLACK
6
CONTINUOUS
10
4.6545226377952753
20
-2.7608112204724411
11
4.6506220472440942
21
-2.7702281496062993
0
LINE
8
BLACK
6
CONTINUOUS
10
4.6506220472440942
20
-2.7702281496062993
11
4.6479839763779527
21
-2.7800736220472442
0
LINE
8
BLACK
6
CONTINUOUS
10
4.6479839763779527
20
-2.7800736220472442
11
4.6466535433070861
21
-2.7901792125984253
0
LINE
8
BLACK
6
CONTINUOUS
10
4.6466535433070861
20
-2.7901792125984253
11
4.6466535433070861
21
-2.795275590551181
0
LINE
8
BLACK
6
CONTINUOUS
10
4.6466535433070861
20
-2.795275590551181
11
4.6466535433070861
21
-2.9429133858267718
0
LINE
8
BLACK
6
CONTINUOUS
10
4.6466535433070861
20
-2.9429133858267718
11
4.646035551181102
21
-2.9507659055118109
0
LINE
8
BLACK
6
CONTINUOUS
10
4.646035551181102
20
-2.9507659055118109
11
4.6441967322834641
21
-2.9584250787401576
0
LINE
8
BLACK
6
CONTINUOUS
10
4.6441967322834641
20
-2.9584250787401576
11
4.6411824015748033
21
-2.9657022834645668
0
LINE
8
BLACK
6
CONTINUOUS
10
4.6411824015748033
20
-2.9657022834645668
11
4.6370668110236215
21
-2.9724183464566929
0
LINE
8
BLACK
6
CONTINUOUS
10
4.6370668110236215
20
-2.9724183464566929
11
4.6319512204724411
21
-2.9784079133858268
0
LINE
8
BLACK
6
CONTINUOUS
10
4.6319512204724411
20
-2.9784079133858268
11
4.6259616535433068
21
-2.9835235039370076
0
LINE
8
BLACK
6
CONTINUOUS
10
4.6259616535433068
20
-2.9835235039370076
11
4.6192455905511807
21
-2.987639094488189
0
LINE
8
BLACK
6
CONTINUOUS
10
4.6192455905511807
20
-2.987639094488189
11
4.6119683858267715
21
-2.9906534251968502
0
LINE
8
BLACK
6
CONTINUOUS
10
4.6119683858267715
20
-2.9906534251968502
11
4.6043092125984248
21
-2.9924922440944881
0
LINE
8
BLACK
6
CONTINUOUS
10
4.6043092125984248
20
-2.9924922440944881
11
4.5964566929133861
21
-2.9931102362204722
0
LINE
8
BLACK
6
CONTINUOUS
10
4.5964566929133861
20
-2.9931102362204722
11
4.1338582677165352
21
-2.9931102362204722
0
LINE
8
BLACK
6
CONTINUOUS
10
4.1338582677165352
20
-2.9931102362204722
11
4.1277199606299213
21
-2.9931102362204722
0
LINE
8
BLACK
6
CONTINUOUS
10
4.1277199606299213
20
-2.9931102362204722
11
4.1155105905511808
21
-2.994393464566929
0
LINE
8
BLACK
6
CONTINUOUS
10
4.1155105905511808
20
-2.994393464566929
11
4.1035022440944884
21
-2.9969459448818898
0
LINE
8
BLACK
6
CONTINUOUS
10
4.1035022440944884
20
-2.9969459448818898
11
4.091826456692913
21
-3.0007396062992124
0
LINE
8
BLACK
6
CONTINUOUS
10
4.091826456692913
20
-3.0007396062992124
11
4.0806112204724405
21
-3.0057329921259841
0
LINE
8
BLACK
6
CONTINUOUS
10
4.0806112204724405
20
-3.0057329921259841
11
4.0699793307086614
21
-3.0118712992125984
0
LINE
8
BLACK
6
CONTINUOUS
10
4.0699793307086614
20
-3.0118712992125984
11
4.0600473228346452
21
-3.0190873228346455
0
LINE
8
BLACK
6
CONTINUOUS
10
4.0600473228346452
20
-3.0190873228346455
11
4.0509240157480315
21
-3.0273019685039371
0
LINE
8
BLACK
6
CONTINUOUS
10
4.0509240157480315
20
-3.0273019685039371
11
4.0427093700787404
21
-3.0364252755905512
0
LINE
8
BLACK
6
CONTINUOUS
10
4.0427093700787404
20
-3.0364252755905512
11
4.0354933464566924
21
-3.0463572834645669
0
LINE
8
BLACK
6
CONTINUOUS
10
4.0354933464566924
20
-3.0463572834645669
11
4.0293550393700786
21
-3.0569891732283465
0
LINE
8
BLACK
6
CONTINUOUS
10
4.0293550393700786
20
-3.0569891732283465
11
4.0243616535433073
21
-3.068204409448819
0
LINE
8
BLACK
6
CONTINUOUS
10
4.0243616535433073
20
-3.068204409448819
11
4.0205679921259838
21
-3.0798801968503935
0
LINE
8
BLACK
6
CONTINUOUS
10
4.0205679921259838
20
-3.0798801968503935
11
4.0180155118110239
21
-3.0918885433070864
0
LINE
8
BLACK
6
CONTINUOUS
10
4.0180155118110239
20
-3.0918885433070864
11
4.0167322834645667
21
-3.1040979133858269
0
LINE
8
BLACK
6
CONTINUOUS
10
4.0167322834645667
20
-3.1040979133858269
11
4.0167322834645667
21
-3.1102362204724407
0
LINE
8
BLACK
6
CONTINUOUS
10
4.0167322834645667
20
-3.1102362204724407
11
4.0167322834645667
21
-5.1181102362204722
0
LINE
8
BLACK
6
CONTINUOUS
10
4.0167322834645667
20
-5.1181102362204722
11
4.0167322834645667
21
-5.1242485433070861
0
LINE
8
BLACK
6
CONTINUOUS
10
4.0167322834645667
20
-5.1242485433070861
11
4.0180155118110239
21
-5.1364579133858266
0
LINE
8
BLACK
6
CONTINUOUS
10
4.0180155118110239
20
-5.1364579133858266
11
4.0205679921259838
21
-5.1484662598425199
0
LINE
8
BLACK
6
CONTINUOUS
10
4.0205679921259838
20
-5.1484662598425199
11
4.0243616535433073
21
-5.1601420472440944
0
LINE
8
BLACK
6
CONTINUOUS
10
4.0243616535433073
20
-5.1601420472440944
11
4.0293550393700786
21
-5.1713572834645669
0
LINE
8
BLACK
6
CONTINUOUS
10
4.0293550393700786
20
-5.1713572834645669
11
4.0354933464566924
21
-5.1819891732283461
0
LINE
8
BLACK
6
CONTINUOUS
10
4.0354933464566924
20
-5.1819891732283461
11
4.0427093700787404
21
-5.1919211811023622
0
LINE
8
BLACK
6
CONTINUOUS
10
4.0427093700787404
20
-5.1919211811023622
11
4.0509240157480315
21
-5.2010444881889759
0
LINE
8
BLACK
6
CONTINUOUS
10
4.0509240157480315
20
-5.2010444881889759
11
4.0600473228346452
21
-5.2092591338582679
0
LINE
8
BLACK
6
CONTINUOUS
10
4.0600473228346452
20
-5.2092591338582679
11
4.0699793307086614
21
-5.216475157480315
0
LINE
8
BLACK
6
CONTINUOUS
10
4.0699793307086614
20
-5.216475157480315
11
4.0806112204724405
21
-5.2226134645669289
0
LINE
8
BLACK
6
CONTINUOUS
10
4.0806112204724405
20
-5.2226134645669289
11
4.091826456692913
21
-5.227606850393701
0
LINE
8
BLACK
6
CONTINUOUS
10
4.091826456692913
20
-5.227606850393701
11
4.1035022440944884
21
-5.2314005118110236
0
LINE
8
BLACK
6
CONTINUOUS
10
4.1035022440944884
20
-5.2314005118110236
11
4.1155105905511808
21
-5.2339529921259844
0
LINE
8
BLACK
6
CONTINUOUS
10
4.1155105905511808
20
-5.2339529921259844
11
4.1277199606299213
21
-5.2352362204724407
0
LINE
8
BLACK
6
CONTINUOUS
10
4.1277199606299213
20
-5.2352362204724407
11
4.1338582677165352
21
-5.2352362204724407
0
LINE
8
BLACK
6
CONTINUOUS
10
4.1338582677165352
20
-5.2352362204724407
11
6.1417322834645667
21
-5.2352362204724407
0
LINE
8
BLACK
6
CONTINUOUS
10
6.1417322834645667
20
-5.2352362204724407
11
6.1478705905511806
21
-5.2352362204724407
0
LINE
8
BLACK
6
CONTINUOUS
10
6.1478705905511806
20
-5.2352362204724407
11
6.160079960629921
21
-5.2339529921259844
0
LINE
8
BLACK
6
CONTINUOUS
10
6.160079960629921
20
-5.2339529921259844
11
6.1720883070866144
21
-5.2314005118110236
0
LINE
8
BLACK
6
CONTINUOUS
10
6.1720883070866144
20
-5.2314005118110236
11
6.1837640944881889
21
-5.227606850393701
0
LINE
8
BLACK
6
CONTINUOUS
10
6.1837640944881889
20
-5.227606850393701
11
6.1949793307086614
21
-5.2226134645669289
0
LINE
8
BLACK
6
CONTINUOUS
10
6.1949793307086614
20
-5.2226134645669289
11
6.2056112204724405
21
-5.216475157480315
0
LINE
8
BLACK
6
CONTINUOUS
10
6.2056112204724405
20
-5.216475157480315
11
6.2155432283464567
21
-5.2092591338582679
0
LINE
8
BLACK
6
CONTINUOUS
10
6.2155432283464567
20
-5.2092591338582679
11
6.2246665354330704
21
-5.2010444881889759
0
LINE
8
BLACK
6
CONTINUOUS
10
6.2246665354330704
20
-5.2010444881889759
11
6.2328811811023623
21
-5.1919211811023622
0
LINE
8
BLACK
6
CONTINUOUS
10
6.2328811811023623
20
-5.1919211811023622
11
6.2400972047244094
21
-5.1819891732283461
0
LINE
8
BLACK
6
CONTINUOUS
10
6.2400972047244094
20
-5.1819891732283461
11
6.2462355118110233
21
-5.1713572834645669
0
LINE
8
BLACK
6
CONTINUOUS
10
6.2462355118110233
20
-5.1713572834645669
11
6.2512288976377954
21
-5.1601420472440944
0
LINE
8
BLACK
6
CONTINUOUS
10
6.2512288976377954
20
-5.1601420472440944
11
6.2550225590551181
21
-5.1484662598425199
0
LINE
8
BLACK
6
CONTINUOUS
10
6.2550225590551181
20
-5.1484662598425199
11
6.2575750393700789
21
-5.1364579133858266
0
LINE
8
BLACK
6
CONTINUOUS
10
6.2575750393700789
20
-5.1364579133858266
11
6.2588582677165352
21
-5.1242485433070861
0
LINE
8
BLACK
6
CONTINUOUS
10
6.2588582677165352
20
-5.1242485433070861
11
6.2588582677165352
21
-5.1181102362204722
0
LINE
8
BLACK
6
CONTINUOUS
10
6.2588582677165352
20
-5.1181102362204722
11
6.2588582677165352
21
-3.1102362204724407
0
LINE
8
BLACK
6
CONTINUOUS
10
6.2588582677165352
20
-3.1102362204724407
11
6.2588582677165352
21
-3.1040979133858269
0
LINE
8
BLACK
6
CONTINUOUS
10
6.2588582677165352
20
-3.1040979133858269
11
6.2575750393700789
21
-3.0918885433070864
0
LINE
8
BLACK
6
CONTINUOUS
10
6.2575750393700789
20
-3.0918885433070864
11
6.2550225590551181
21
-3.0798801968503935
0
LINE
8
BLACK
6
CONTINUOUS
10
6.2550225590551181
20
-3.0798801968503935
11
6.2512288976377954
21
-3.068204409448819
0
LINE
8
BLACK
6
CONTINUOUS
10
6.2512288976377954
20
-3.068204409448819
11
6.2462355118110233
21
-3.0569891732283465
0
LINE
8
BLACK
6
CONTINUOUS
10
6.2462355118110233
20
-3.0569891732283465
11
6.2400972047244094
21
-3.0463572834645669
0
LINE
8
BLACK
6
CONTINUOUS
10
6.2400972047244094
20
-3.0463572834645669
11
6.2328811811023623
21
-3.0364252755905512
0
LINE
8
BLACK
6
CONTINUOUS
10
6.2328811811023623
20
-3.0364252755905512
11
6.2246665354330704
21
-3.0273019685039371
0
LINE
8
BLACK
6
CONTINUOUS
10
6.2246665354330704
20
-3.0273019685039371
11
6.2155432283464567
21
-3.0190873228346455
0
LINE
8
BLACK
6
CONTINUOUS
10
6.2155432283464567
20
-3.0190873228346455
11
6.2056112204724405
21
-3.0118712992125984
0
LINE
8
BLACK
6
CONTINUOUS
10
6.2056112204724405
20
-3.0118712992125984
11
6.1949793307086614
21
-3.0057329921259841
0
LINE
8
BLACK
6
CONTINUOUS
10
6.1949793307086614
20
-3.0057329921259841
11
6.1837640944881889
21
-3.0007396062992124
0
LINE
8
BLACK
6
CONTINUOUS
10
6.1837640944881889
20
-3.0007396062992124
11
6.1720883070866144
21
-2.9969459448818898
0
LINE
8
BLACK
6
CONTINUOUS
10
6.1720883070866144
20
-2.9969459448818898
11
6.160079960629921
21
-2.994393464566929
0
LINE
8
BLACK
6
CONTINUOUS
10
6.160079960629921
20
-2.994393464566929
11
6.1478705905511806
21
-2.9931102362204722
0
LINE
8
BLACK
6
CONTINUOUS
10
6.1478705905511806
20
-2.9931102362204722
11
6.1417322834645667
21
-2.9931102362204722
0
LINE
8
BLACK
6
CONTINUOUS
10
6.1417322834645667
20
-2.9931102362204722
11
5.6397637795275593
21
-2.9931102362204722
0
LINE
8
BLACK
6
CONTINUOUS
10
5.6397637795275593
20
-2.9931102362204722
11
5.6319112598425196
21
-2.9924922440944881
0
LINE
8
BLACK
6
CONTINUOUS
10
5.6319112598425196
20
-2.9924922440944881
11
5.624252086614173
21
-2.9906534251968502
0
LINE
8
BLACK
6
CONTINUOUS
10
5.624252086614173
20
-2.9906534251968502
11
5.6169748818897638
21
-2.987639094488189
0
LINE
8
BLACK
6
CONTINUOUS
10
5.6169748818897638
20
-2.987639094488189
11
5.6102588188976377
21
-2.9835235039370076
0
LINE
8
BLACK
6
CONTINUOUS
10
5.6102588188976377
20
-2.9835235039370076
11
5.6042692519685042
21
-2.9784079133858268
0
LINE
8
BLACK
6
CONTINUOUS
10
5.6042692519685042
20
-2.9784079133858268
11
5.599153661417323
21
-2.9724183464566929
0
LINE
8
BLACK
6
CONTINUOUS
10
5.599153661417323
20
-2.9724183464566929
11
5.595038070866142
21
-2.9657022834645668
0
LINE
8
BLACK
6
CONTINUOUS
10
5.595038070866142
20
-2.9657022834645668
11
5.5920237401574804
21
-2.9584250787401576
0
LINE
8
BLACK
6
CONTINUOUS
10
5.5920237401574804
20
-2.9584250787401576
11
5.5901849212598425
21
-2.9507659055118109
0
LINE
8
BLACK
6
CONTINUOUS
10
5.5901849212598425
20
-2.9507659055118109
11
5.5895669291338583
21
-2.9429133858267718
0
LINE
8
BLACK
6
CONTINUOUS
10
5.5895669291338583
20
-2.9429133858267718
11
5.5895669291338583
21
-2.795275590551181
0
LINE
8
BLACK
6
CONTINUOUS
10
5.5895669291338583
20
-2.795275590551181
11
5.5895669291338583
21
-2.7901792125984253
0
LINE
8
BLACK
6
CONTINUOUS
10
5.5895669291338583
20
-2.7901792125984253
11
5.5882364960629918
21
-2.7800736220472442
0
LINE
8
BLACK
6
CONTINUOUS
10
5.5882364960629918
20
-2.7800736220472442
11
5.5855984251968502
21
-2.7702281496062993
0
LINE
8
BLACK
6
CONTINUOUS
10
5.5855984251968502
20
-2.7702281496062993
11
5.5816978346456692
21
-2.7608112204724411
0
LINE
8
BLACK
6
CONTINUOUS
10
5.5816978346456692
20
-2.7608112204724411
11
5.5766014173228342
21
-2.7519840157480315
0
LINE
8
BLACK
6
CONTINUOUS
10
5.5766014173228342
20
-2.7519840157480315
11
5.5703964566929134
21
-2.7438975590551182
0
LINE
8
BLACK
6
CONTINUOUS
10
5.5703964566929134
20
-2.7438975590551182
11
5.5631890551181105
21
-2.7366901574803149
0
LINE
8
BLACK
6
CONTINUOUS
10
5.5631890551181105
20
-2.7366901574803149
11
5.5551025984251972
21
-2.7304851968503936
0
LINE
8
BLACK
6
CONTINUOUS
10
5.5551025984251972
20
-2.7304851968503936
11
5.5462753937007871
21
-2.7253887795275591
0
LINE
8
BLACK
6
CONTINUOUS
10
5.5462753937007871
20
-2.7253887795275591
11
5.5368584645669294
21
-2.721488188976378
0
LINE
8
BLACK
6
CONTINUOUS
10
5.5368584645669294
20
-2.721488188976378
11
5.5270129921259841
21
-2.718850118110236
0
LINE
8
BLACK
6
CONTINUOUS
10
5.5270129921259841
20
-2.718850118110236
11
5.5169074015748034
21
-2.7175196850393699
0
LINE
8
BLACK
6
CONTINUOUS
10
5.5169074015748034
20
-2.7175196850393699
11
5.5118110236220472
21
-2.7175196850393699
0
LINE
8
BLACK
6
CONTINUOUS
10
5.5118110236220472
20
-2.7175196850393699
11
4.7244094488188972
21
-2.7175196850393699
  0
ENDSEC
  0
EOF
