<?xml version="1.0" encoding="utf-8"?>
<!-- Generator: Adobe Illustrator 10, SVG Export Plug-In . SVG Version: 3.0.0 Build 76)  -->
<!DOCTYPE svg PUBLIC "-//W3C//DTD SVG 1.0//EN"    "http://www.w3.org/TR/2001/REC-SVG-20010904/DTD/svg10.dtd" [
	<!ENTITY ns_flows "http://ns.adobe.com/Flows/1.0/">
	<!ENTITY ns_extend "http://ns.adobe.com/Extensibility/1.0/">
	<!ENTITY ns_ai "http://ns.adobe.com/AdobeIllustrator/10.0/">
	<!ENTITY ns_graphs "http://ns.adobe.com/Graphs/1.0/">
	<!ENTITY ns_vars "http://ns.adobe.com/Variables/1.0/">
	<!ENTITY ns_imrep "http://ns.adobe.com/ImageReplacement/1.0/">
	<!ENTITY ns_sfw "http://ns.adobe.com/SaveForWeb/1.0/">
	<!ENTITY ns_custom "http://ns.adobe.com/GenericCustomNamespace/1.0/">
	<!ENTITY ns_adobe_xpath "http://ns.adobe.com/XPath/1.0/">
	<!ENTITY ns_svg "http://www.w3.org/2000/svg">
	<!ENTITY ns_xlink "http://www.w3.org/1999/xlink">
]>
<svg 
	 xmlns:x="&ns_extend;" xmlns:i="&ns_ai;" xmlns:graph="&ns_graphs;" i:viewOrigin="36.75 819.6582" i:rulerOrigin="-2 -0.8887" i:pageBounds="2 840.8887 593.9873 0.8887"
	 xmlns="&ns_svg;" xmlns:xlink="&ns_xlink;" xmlns:a="http://ns.adobe.com/AdobeSVGViewerExtensions/3.0/"
	 width="532.25" height="34" viewBox="0 0 532.25 34" overflow="visible" enable-background="new 0 0 532.25 34"
	 xml:space="preserve">
	<metadata>
		<variableSets  xmlns="&ns_vars;">
			<variableSet  varSetName="binding1" locked="none">
				<variables></variables>
				<v:sampleDataSets  xmlns="&ns_custom;" xmlns:v="&ns_vars;"></v:sampleDataSets>
			</variableSet>
		</variableSets>
		<sfw  xmlns="&ns_sfw;">
			<slices></slices>
			<sliceSourceBounds  y="785.658" x="36.75" width="532.25" height="34" bottomLeftOrigin="true"></sliceSourceBounds>
		</sfw>
	</metadata>
	<g id="Layer_1" i:layer="yes" i:dimmedPercent="50" i:rgbTrio="#4F008000FFFF">
		<g>
			<g>
				<defs>
					<path id="XMLID_1_" d="M0.25,34V0h532v34H0.25z"/>
				</defs>
				<clipPath id="XMLID_2_">
					<use xlink:href="#XMLID_1_" />
				</clipPath>
				
					<path i:knockout="Off" clip-path="url(#XMLID_2_)" fill="none" stroke="#000000" stroke-width="0.5" stroke-linecap="square" stroke-miterlimit="10" d="
					M0.25,20h528"/>
			</g>
			<g>
				<defs>
					<path id="XMLID_3_" d="M151.25,33V0h381v33H151.25z"/>
				</defs>
				<clipPath id="XMLID_4_">
					<use xlink:href="#XMLID_3_" />
				</clipPath>
				<g>
					<path i:knockout="Off" clip-path="url(#XMLID_4_)" d="M152.954,25.416h1.44c0.992,0,1.64,0.424,1.64,1.448
						c0,0.72-0.552,1.2-1.24,1.288v0.016c0.448,0.056,0.544,0.296,0.72,0.672l0.952,2.16h-0.608l-0.808-1.888
						c-0.32-0.72-0.56-0.744-1.088-0.744h-0.456V31h-0.552V25.416z M153.506,27.888h0.584c0.648,0,1.392-0.248,1.392-1.024
						c0-0.912-0.648-0.968-1.408-0.968h-0.568V27.888z"/>
					<path i:knockout="Off" clip-path="url(#XMLID_4_)" d="M158.922,26.824c1.32,0,1.904,1.024,1.904,2.136
						s-0.584,2.136-1.904,2.136c-1.32,0-1.904-1.024-1.904-2.136S157.602,26.824,158.922,26.824z M158.922,30.664
						c0.88,0,1.352-0.76,1.352-1.704s-0.472-1.704-1.352-1.704s-1.352,0.76-1.352,1.704S158.042,30.664,158.922,30.664z"/>
					<path i:knockout="Off" clip-path="url(#XMLID_4_)" d="M164.962,30.04c0,0.312,0,0.632,0.032,0.96h-0.488v-0.728h-0.016
						c-0.168,0.368-0.472,0.824-1.32,0.824c-1.008,0-1.392-0.672-1.392-1.568V26.92h0.504v2.48c0,0.768,0.272,1.264,0.968,1.264
						c0.92,0,1.208-0.808,1.208-1.488V26.92h0.504V30.04z"/>
					<path i:knockout="Off" clip-path="url(#XMLID_4_)" d="M167.986,27.352h-0.928v2.64c0,0.368,0.136,0.672,0.544,0.672
						c0.192,0,0.32-0.04,0.464-0.096l0.032,0.416c-0.12,0.048-0.368,0.112-0.616,0.112c-0.896,0-0.928-0.616-0.928-1.36v-2.384h-0.8
						V26.92h0.8v-0.984l0.504-0.176v1.16h0.928V27.352z"/>
					<path i:knockout="Off" clip-path="url(#XMLID_4_)" d="M171.626,30.872c-0.352,0.144-0.808,0.224-1.184,0.224
						c-1.352,0-1.856-0.912-1.856-2.136c0-1.248,0.688-2.136,1.72-2.136c1.152,0,1.624,0.928,1.624,2.024v0.256h-2.792
						c0,0.864,0.464,1.56,1.344,1.56c0.368,0,0.904-0.152,1.144-0.304V30.872z M171.378,28.672c0-0.712-0.288-1.416-1.04-1.416
						c-0.744,0-1.2,0.744-1.2,1.416H171.378z"/>
					<path i:knockout="Off" clip-path="url(#XMLID_4_)" d="M178.346,31h-0.504v-0.648h-0.016c-0.272,0.52-0.688,0.744-1.272,0.744
						c-1.12,0-1.68-0.928-1.68-2.136c0-1.24,0.48-2.136,1.68-2.136c0.8,0,1.2,0.584,1.272,0.784h0.016V25h0.504V31z M176.634,30.664
						c0.896,0,1.208-0.96,1.208-1.704s-0.312-1.704-1.208-1.704c-0.96,0-1.208,0.912-1.208,1.704S175.674,30.664,176.634,30.664z"/>
					<path i:knockout="Off" clip-path="url(#XMLID_4_)" d="M182.298,30.872c-0.352,0.144-0.808,0.224-1.184,0.224
						c-1.352,0-1.856-0.912-1.856-2.136c0-1.248,0.688-2.136,1.72-2.136c1.152,0,1.624,0.928,1.624,2.024v0.256h-2.792
						c0,0.864,0.464,1.56,1.344,1.56c0.368,0,0.904-0.152,1.144-0.304V30.872z M182.05,28.672c0-0.712-0.288-1.416-1.04-1.416
						c-0.744,0-1.2,0.744-1.2,1.416H182.05z"/>
					<path i:knockout="Off" clip-path="url(#XMLID_4_)" d="M185.786,25h0.504v6h-0.504V25z"/>
					<path i:knockout="Off" clip-path="url(#XMLID_4_)" d="M189.906,30.344h-0.016c-0.224,0.488-0.792,0.752-1.296,0.752
						c-1.16,0-1.344-0.784-1.344-1.152c0-1.368,1.456-1.432,2.512-1.432h0.096v-0.208c0-0.696-0.248-1.048-0.928-1.048
						c-0.424,0-0.824,0.096-1.2,0.336v-0.488c0.312-0.152,0.84-0.28,1.2-0.28c1.008,0,1.432,0.456,1.432,1.52v1.8
						c0,0.328,0,0.576,0.04,0.856h-0.496V30.344z M189.858,28.944h-0.144c-0.872,0-1.912,0.088-1.912,0.984
						c0,0.536,0.384,0.736,0.848,0.736c1.184,0,1.208-1.032,1.208-1.472V28.944z"/>
					<path i:knockout="Off" clip-path="url(#XMLID_4_)" d="M193.77,25.416h2.656v0.48h-2.104v1.992h2.008v0.48h-2.008V31h-0.552
						V25.416z"/>
					<path i:knockout="Off" clip-path="url(#XMLID_4_)" d="M198.93,26.824c1.32,0,1.904,1.024,1.904,2.136s-0.584,2.136-1.904,2.136
						s-1.904-1.024-1.904-2.136S197.61,26.824,198.93,26.824z M198.93,30.664c0.88,0,1.352-0.76,1.352-1.704
						s-0.472-1.704-1.352-1.704s-1.352,0.76-1.352,1.704S198.05,30.664,198.93,30.664z"/>
					<path i:knockout="Off" clip-path="url(#XMLID_4_)" d="M201.786,27.88c0-0.312,0-0.632-0.032-0.96h0.488v0.728h0.016
						c0.168-0.368,0.472-0.824,1.32-0.824c1.008,0,1.392,0.672,1.392,1.568V31h-0.504v-2.48c0-0.768-0.272-1.264-0.968-1.264
						c-0.92,0-1.208,0.808-1.208,1.488V31h-0.504V27.88z"/>
					<path i:knockout="Off" clip-path="url(#XMLID_4_)" d="M209.466,31h-0.504v-0.648h-0.016c-0.272,0.52-0.688,0.744-1.272,0.744
						c-1.12,0-1.68-0.928-1.68-2.136c0-1.24,0.48-2.136,1.68-2.136c0.8,0,1.2,0.584,1.272,0.784h0.016V25h0.504V31z M207.753,30.664
						c0.896,0,1.208-0.96,1.208-1.704s-0.312-1.704-1.208-1.704c-0.96,0-1.208,0.912-1.208,1.704S206.793,30.664,207.753,30.664z"/>
					<path i:knockout="Off" clip-path="url(#XMLID_4_)" d="M213.417,30.872c-0.352,0.144-0.808,0.224-1.184,0.224
						c-1.352,0-1.856-0.912-1.856-2.136c0-1.248,0.688-2.136,1.72-2.136c1.152,0,1.624,0.928,1.624,2.024v0.256h-2.792
						c0,0.864,0.464,1.56,1.344,1.56c0.368,0,0.904-0.152,1.144-0.304V30.872z M213.169,28.672c0-0.712-0.288-1.416-1.04-1.416
						c-0.744,0-1.2,0.744-1.2,1.416H213.169z"/>
					<path i:knockout="Off" clip-path="url(#XMLID_4_)" d="M214.682,27.832c0-0.448,0-0.616-0.032-0.912h0.504v0.784h0.016
						c0.184-0.456,0.528-0.88,1.048-0.88c0.12,0,0.264,0.024,0.352,0.048V27.4c-0.104-0.032-0.24-0.048-0.368-0.048
						c-0.8,0-1.016,0.896-1.016,1.632V31h-0.504V27.832z"/>
					<path i:knockout="Off" clip-path="url(#XMLID_4_)" d="M217.85,25.16h-0.504v0.672h0.504V25.16z M217.346,31h0.504v-4.08h-0.504
						V31z"/>
					<path i:knockout="Off" clip-path="url(#XMLID_4_)" d="M221.857,30.872c-0.352,0.144-0.808,0.224-1.184,0.224
						c-1.352,0-1.856-0.912-1.856-2.136c0-1.248,0.688-2.136,1.72-2.136c1.152,0,1.624,0.928,1.624,2.024v0.256h-2.792
						c0,0.864,0.464,1.56,1.344,1.56c0.368,0,0.904-0.152,1.144-0.304V30.872z M221.609,28.672c0-0.712-0.288-1.416-1.04-1.416
						c-0.744,0-1.2,0.744-1.2,1.416H221.609z"/>
					<path i:knockout="Off" clip-path="url(#XMLID_4_)" d="M226.938,25.36c0.872,0,1.672,0.392,1.672,1.304
						c0,0.688-0.616,1.144-1.144,1.432c0.76,0.272,1.328,0.592,1.328,1.472c0,1.096-0.96,1.488-1.856,1.488
						c-0.888,0-1.856-0.464-1.856-1.488c0-0.856,0.56-1.208,1.288-1.472c-0.576-0.272-1.112-0.696-1.112-1.432
						C225.257,25.728,226.257,25.36,226.938,25.36z M226.938,28.304c-0.648,0.264-1.304,0.488-1.304,1.264
						c0,0.624,0.664,1.008,1.304,1.008c0.656,0,1.304-0.288,1.304-1.056C228.241,28.816,227.449,28.568,226.938,28.304z
						 M226.938,27.896c0.504-0.248,1.12-0.608,1.12-1.184c0-0.592-0.6-0.872-1.12-0.872c-0.584,0-1.128,0.288-1.128,0.872
						C225.81,27.352,226.481,27.672,226.938,27.896z"/>
					<path i:knockout="Off" clip-path="url(#XMLID_4_)" d="M232.489,26.984c-0.144-0.048-0.496-0.16-0.984-0.16
						c-1.208,0-2.016,0.88-2.016,2.136c0,1.136,0.64,2.136,1.952,2.136c0.384,0,0.704-0.024,1.048-0.144l-0.048-0.472
						c-0.304,0.112-0.6,0.184-0.92,0.184c-0.92,0-1.48-0.776-1.48-1.704c0-0.992,0.552-1.704,1.536-1.704
						c0.272,0,0.6,0.088,0.872,0.208L232.489,26.984z"/>
					<path i:knockout="Off" clip-path="url(#XMLID_4_)" d="M241.633,25.416h0.496V31h-0.552v-4.96l-0.904,0.792l-0.304-0.36
						L241.633,25.416z"/>
					<path i:knockout="Off" clip-path="url(#XMLID_4_)" d="M247.161,25.896h-2.864v-0.48h3.408v0.48L245.545,31h-0.608
						L247.161,25.896z"/>
					<path i:knockout="Off" clip-path="url(#XMLID_4_)" d="M252.337,28.208c0,1.168-0.24,2.848-1.832,2.848s-1.832-1.68-1.832-2.848
						c0-1.304,0.344-2.848,1.832-2.848S252.337,26.904,252.337,28.208z M249.226,28.208c0,0.928,0.12,2.368,1.28,2.368
						s1.28-1.44,1.28-2.368c0-0.928-0.12-2.368-1.28-2.368S249.226,27.28,249.226,28.208z"/>
					<path i:knockout="Off" clip-path="url(#XMLID_4_)" d="M256.785,28.208c0,1.168-0.24,2.848-1.832,2.848
						c-1.592,0-1.832-1.68-1.832-2.848c0-1.304,0.344-2.848,1.832-2.848C256.441,25.36,256.785,26.904,256.785,28.208z
						 M253.673,28.208c0,0.928,0.12,2.368,1.28,2.368c1.16,0,1.28-1.44,1.28-2.368c0-0.928-0.12-2.368-1.28-2.368
						C253.793,25.84,253.673,27.28,253.673,28.208z"/>
					<path i:knockout="Off" clip-path="url(#XMLID_4_)" d="M260.018,25.416h2.655v0.48h-2.104v1.992h2.008v0.48h-2.008V31h-0.552
						V25.416z"/>
					<path i:knockout="Off" clip-path="url(#XMLID_4_)" d="M263.585,27.832c0-0.448,0-0.616-0.031-0.912h0.504v0.784h0.016
						c0.184-0.456,0.528-0.88,1.048-0.88c0.12,0,0.264,0.024,0.353,0.048V27.4c-0.104-0.032-0.24-0.048-0.368-0.048
						c-0.8,0-1.017,0.896-1.017,1.632V31h-0.504V27.832z"/>
					<path i:knockout="Off" clip-path="url(#XMLID_4_)" d="M266.753,25.16h-0.504v0.672h0.504V25.16z M266.249,31h0.504v-4.08
						h-0.504V31z"/>
					<path i:knockout="Off" clip-path="url(#XMLID_4_)" d="M267.977,25h0.505v2.608h0.016c0.072-0.2,0.472-0.784,1.271-0.784
						c1.2,0,1.681,0.896,1.681,2.136c0,1.208-0.561,2.136-1.681,2.136c-0.584,0-0.999-0.224-1.271-0.744h-0.016V31h-0.505V25z
						 M269.689,27.256c-0.92,0-1.208,0.96-1.208,1.704s0.312,1.704,1.208,1.704c0.96,0,1.208-0.912,1.208-1.704
						S270.649,27.256,269.689,27.256z"/>
					<path i:knockout="Off" clip-path="url(#XMLID_4_)" d="M274.065,26.824c1.319,0,1.903,1.024,1.903,2.136
						s-0.584,2.136-1.903,2.136c-1.32,0-1.904-1.024-1.904-2.136S272.745,26.824,274.065,26.824z M274.065,30.664
						c0.88,0,1.352-0.76,1.352-1.704s-0.472-1.704-1.352-1.704c-0.881,0-1.353,0.76-1.353,1.704S273.185,30.664,274.065,30.664z"/>
					<path i:knockout="Off" clip-path="url(#XMLID_4_)" d="M280.105,30.04c0,0.312,0,0.632,0.031,0.96h-0.487v-0.728h-0.017
						c-0.168,0.368-0.472,0.824-1.319,0.824c-1.009,0-1.393-0.672-1.393-1.568V26.92h0.504v2.48c0,0.768,0.272,1.264,0.968,1.264
						c0.921,0,1.208-0.808,1.208-1.488V26.92h0.505V30.04z"/>
					<path i:knockout="Off" clip-path="url(#XMLID_4_)" d="M281.369,27.832c0-0.448,0-0.616-0.032-0.912h0.504v0.784h0.017
						c0.184-0.456,0.527-0.88,1.048-0.88c0.12,0,0.264,0.024,0.352,0.048V27.4c-0.104-0.032-0.24-0.048-0.368-0.048
						c-0.8,0-1.016,0.896-1.016,1.632V31h-0.504V27.832z"/>
					<path i:knockout="Off" clip-path="url(#XMLID_4_)" d="M287.265,30.664c0,1.136-0.512,2.064-1.912,2.064
						c-0.535,0-1.023-0.152-1.231-0.216l0.04-0.504c0.312,0.16,0.76,0.288,1.2,0.288c1.296,0,1.407-0.944,1.407-2.096h-0.016
						c-0.272,0.592-0.72,0.8-1.24,0.8c-1.304,0-1.72-1.136-1.72-2.04c0-1.24,0.48-2.136,1.68-2.136c0.544,0,0.896,0.072,1.272,0.56
						h0.016V26.92h0.504V30.664z M285.521,30.568c0.912,0,1.24-0.864,1.24-1.608c0-0.984-0.288-1.704-1.208-1.704
						c-0.96,0-1.208,0.912-1.208,1.704C284.345,29.76,284.665,30.568,285.521,30.568z"/>
					<path i:knockout="Off" clip-path="url(#XMLID_4_)" d="M292.833,30.288c0.328,0.208,0.712,0.328,1.232,0.328
						c0.688,0,1.256-0.352,1.256-1.144c0-1.096-2.561-1.232-2.561-2.696c0-0.896,0.784-1.456,1.769-1.456
						c0.271,0,0.712,0.04,1.096,0.184l-0.088,0.504c-0.248-0.136-0.641-0.208-1.017-0.208c-0.575,0-1.208,0.24-1.208,0.96
						c0,1.12,2.561,1.128,2.561,2.76c0,1.128-0.968,1.576-1.832,1.576c-0.544,0-0.968-0.112-1.264-0.24L292.833,30.288z"/>
					<path i:knockout="Off" clip-path="url(#XMLID_4_)" d="M300.113,30.04c0,0.312,0,0.632,0.031,0.96h-0.487v-0.728h-0.017
						c-0.168,0.368-0.472,0.824-1.319,0.824c-1.009,0-1.393-0.672-1.393-1.568V26.92h0.504v2.48c0,0.768,0.272,1.264,0.969,1.264
						c0.92,0,1.208-0.808,1.208-1.488V26.92h0.504V30.04z"/>
					<path i:knockout="Off" clip-path="url(#XMLID_4_)" d="M301.881,25.832h-0.504V25.16h0.504V25.832z M301.377,26.92h0.504V31
						h-0.504V26.92z"/>
					<path i:knockout="Off" clip-path="url(#XMLID_4_)" d="M302.841,30.408c0.304,0.152,0.672,0.256,1.064,0.256
						c0.479,0,0.903-0.264,0.903-0.728c0-0.968-1.96-0.816-1.96-2c0-0.808,0.656-1.112,1.328-1.112c0.216,0,0.648,0.048,1.008,0.184
						l-0.048,0.44c-0.264-0.12-0.624-0.192-0.904-0.192c-0.52,0-0.88,0.16-0.88,0.68c0,0.76,2.008,0.664,2.008,2
						c0,0.864-0.808,1.16-1.424,1.16c-0.392,0-0.783-0.048-1.144-0.192L302.841,30.408z"/>
					<path i:knockout="Off" clip-path="url(#XMLID_4_)" d="M305.953,30.408c0.304,0.152,0.672,0.256,1.063,0.256
						c0.48,0,0.904-0.264,0.904-0.728c0-0.968-1.96-0.816-1.96-2c0-0.808,0.656-1.112,1.328-1.112c0.216,0,0.647,0.048,1.008,0.184
						l-0.048,0.44c-0.265-0.12-0.624-0.192-0.904-0.192c-0.52,0-0.88,0.16-0.88,0.68c0,0.76,2.008,0.664,2.008,2
						c0,0.864-0.808,1.16-1.424,1.16c-0.392,0-0.784-0.048-1.144-0.192L305.953,30.408z"/>
					<path i:knockout="Off" clip-path="url(#XMLID_4_)" d="M312.112,30.872c-0.352,0.144-0.808,0.224-1.184,0.224
						c-1.352,0-1.856-0.912-1.856-2.136c0-1.248,0.688-2.136,1.721-2.136c1.151,0,1.624,0.928,1.624,2.024v0.256h-2.792
						c0,0.864,0.464,1.56,1.344,1.56c0.368,0,0.904-0.152,1.144-0.304V30.872z M311.864,28.672c0-0.712-0.287-1.416-1.039-1.416
						c-0.744,0-1.2,0.744-1.2,1.416H311.864z"/>
					<path i:knockout="Off" clip-path="url(#XMLID_4_)" d="M318.921,25.896h-1.648v-0.48h3.849v0.48h-1.648V31h-0.552V25.896z"/>
					<path i:knockout="Off" clip-path="url(#XMLID_4_)" d="M323.112,25.32h0.553l-2.168,5.776h-0.553L323.112,25.32z"/>
					<path i:knockout="Off" clip-path="url(#XMLID_4_)" d="M324.033,25.416h2.655v0.48h-2.104v1.992h2.008v0.48h-2.008V31h-0.552
						V25.416z"/>
					<path i:knockout="Off" clip-path="url(#XMLID_4_)" d="M328.4,26.92h-0.647v0.672h0.647V26.92z M327.753,31h0.647v-0.672h-0.647
						V31z"/>
					<path i:knockout="Off" clip-path="url(#XMLID_4_)" d="M331.784,28.696h1.752v-1.752h0.553v1.752h1.752v0.552h-1.752V31h-0.553
						v-1.752h-1.752V28.696z"/>
					<path i:knockout="Off" clip-path="url(#XMLID_4_)" d="M336.4,29.168l2.512-3.752h0.704v3.816h0.824v0.48h-0.824V31h-0.552
						v-1.288H336.4V29.168z M339.064,25.968h-0.016l-2.145,3.264h2.16V25.968z"/>
					<path i:knockout="Off" clip-path="url(#XMLID_4_)" d="M342.912,25.416h0.496V31h-0.552v-4.96l-0.904,0.792l-0.304-0.36
						L342.912,25.416z"/>
					<path i:knockout="Off" clip-path="url(#XMLID_4_)" d="M347.736,30.52l1.28-1.416c0.672-0.744,1.344-1.576,1.344-2.256
						c0-0.592-0.432-1.008-0.983-1.008c-0.505,0-0.904,0.144-1.345,0.4l-0.096-0.504c0.408-0.2,0.952-0.376,1.408-0.376
						c0.903,0,1.616,0.456,1.616,1.464c0,0.832-0.816,1.8-1.536,2.592l-1.008,1.104h2.672V31h-3.353V30.52z"/>
					<path i:knockout="Off" clip-path="url(#XMLID_4_)" d="M352.225,28.408c0-1.688,0.632-3.048,2.52-3.048
						c0.305,0,0.601,0.056,0.896,0.128l-0.048,0.528c-0.232-0.104-0.601-0.176-0.92-0.176c-1.448-0.024-1.896,1.184-1.896,2.32
						h0.017c0.287-0.472,0.792-0.688,1.312-0.688c0.736,0,1.736,0.36,1.736,1.744c0,1.088-0.681,1.84-1.824,1.84
						C352.536,31.056,352.225,29.72,352.225,28.408z M352.832,29.192c0,0.688,0.377,1.384,1.2,1.384c0.816,0,1.256-0.568,1.256-1.32
						c0-0.816-0.407-1.304-1.184-1.304C353.305,27.952,352.832,28.456,352.832,29.192z"/>
					<path i:knockout="Off" clip-path="url(#XMLID_4_)" d="M358.641,29.168l2.512-3.752h0.704v3.816h0.824v0.48h-0.824V31h-0.552
						v-1.288h-2.664V29.168z M361.305,25.968h-0.017l-2.144,3.264h2.16V25.968z"/>
					<path i:knockout="Off" clip-path="url(#XMLID_4_)" d="M363.305,30.52l1.28-1.416c0.672-0.744,1.344-1.576,1.344-2.256
						c0-0.592-0.433-1.008-0.984-1.008c-0.504,0-0.904,0.144-1.344,0.4l-0.096-0.504c0.407-0.2,0.951-0.376,1.407-0.376
						c0.904,0,1.616,0.456,1.616,1.464c0,0.832-0.815,1.8-1.536,2.592l-1.008,1.104h2.672V31h-3.352V30.52z"/>
					<path i:knockout="Off" clip-path="url(#XMLID_4_)" d="M367.536,29.168l2.513-3.752h0.704v3.816h0.823v0.48h-0.823V31H370.2
						v-1.288h-2.664V29.168z M370.2,25.968h-0.016l-2.144,3.264h2.159V25.968z"/>
					<path i:knockout="Off" clip-path="url(#XMLID_4_)" d="M376.272,25.416h0.496V31h-0.552v-4.96l-0.904,0.792l-0.304-0.36
						L376.272,25.416z"/>
					<path i:knockout="Off" clip-path="url(#XMLID_4_)" d="M378.872,30.52l1.28-1.416c0.672-0.744,1.344-1.576,1.344-2.256
						c0-0.592-0.432-1.008-0.983-1.008c-0.504,0-0.904,0.144-1.344,0.4l-0.097-0.504c0.408-0.2,0.952-0.376,1.408-0.376
						c0.904,0,1.616,0.456,1.616,1.464c0,0.832-0.816,1.8-1.536,2.592l-1.008,1.104h2.672V31h-3.353V30.52z"/>
					<path i:knockout="Off" clip-path="url(#XMLID_4_)" d="M388.473,25.896h-2.864v-0.48h3.408v0.48L386.856,31h-0.608
						L388.473,25.896z"/>
					<path i:knockout="Off" clip-path="url(#XMLID_4_)" d="M392.921,25.896h-2.864v-0.48h3.408v0.48L391.305,31h-0.608
						L392.921,25.896z"/>
					<path i:knockout="Off" clip-path="url(#XMLID_4_)" d="M403.312,31h-0.608l-1.111-3.528h-0.017L400.465,31h-0.608l-1.312-4.08
						h0.552l1.072,3.528h0.016l1.136-3.528h0.608l1.08,3.528h0.016l1.128-3.528h0.504L403.312,31z"/>
					<path i:knockout="Off" clip-path="url(#XMLID_4_)" d="M409.536,31h-0.607l-1.112-3.528h-0.016L406.688,31h-0.608l-1.312-4.08
						h0.552l1.072,3.528h0.016l1.137-3.528h0.607l1.08,3.528h0.016l1.129-3.528h0.504L409.536,31z"/>
					<path i:knockout="Off" clip-path="url(#XMLID_4_)" d="M415.761,31h-0.608l-1.112-3.528h-0.016L412.912,31h-0.607l-1.312-4.08
						h0.553l1.071,3.528h0.017l1.136-3.528h0.608l1.079,3.528h0.017l1.128-3.528h0.504L415.761,31z"/>
					<path i:knockout="Off" clip-path="url(#XMLID_4_)" d="M417.944,31h0.648v-0.672h-0.648V31z"/>
					<path i:knockout="Off" clip-path="url(#XMLID_4_)" d="M422.36,30.344h-0.016c-0.225,0.488-0.792,0.752-1.296,0.752
						c-1.16,0-1.345-0.784-1.345-1.152c0-1.368,1.456-1.432,2.513-1.432h0.096v-0.208c0-0.696-0.248-1.048-0.928-1.048
						c-0.424,0-0.824,0.096-1.2,0.336v-0.488c0.312-0.152,0.84-0.28,1.2-0.28c1.008,0,1.432,0.456,1.432,1.52v1.8
						c0,0.328,0,0.576,0.04,0.856h-0.496V30.344z M422.312,28.944h-0.145c-0.871,0-1.911,0.088-1.911,0.984
						c0,0.536,0.384,0.736,0.848,0.736c1.184,0,1.208-1.032,1.208-1.472V28.944z"/>
					<path i:knockout="Off" clip-path="url(#XMLID_4_)" d="M424.017,27.88c0-0.312,0-0.632-0.032-0.96h0.488v0.728h0.016
						c0.168-0.368,0.473-0.824,1.32-0.824c1.008,0,1.392,0.672,1.392,1.568V31h-0.504v-2.48c0-0.768-0.271-1.264-0.968-1.264
						c-0.92,0-1.208,0.808-1.208,1.488V31h-0.504V27.88z"/>
					<path i:knockout="Off" clip-path="url(#XMLID_4_)" d="M429.681,31.608c-0.192,0.56-0.48,1.12-1.048,1.12
						c-0.185,0-0.376-0.024-0.544-0.064l0.048-0.432c0.096,0.032,0.191,0.064,0.376,0.064c0.432,0,0.576-0.36,0.735-0.888
						l0.104-0.36l-1.448-4.128h0.552l1.145,3.408l-0.008-0.008h0.016l1.176-3.4h0.528L429.681,31.608z"/>
					<path i:knockout="Off" clip-path="url(#XMLID_4_)" d="M436.944,31v-2.712c0-0.576-0.216-1.032-0.864-1.032
						c-0.552,0-1.096,0.472-1.096,1.488V31h-0.504v-2.712c0-0.576-0.216-1.032-0.864-1.032c-0.552,0-1.096,0.472-1.096,1.488V31
						h-0.504v-3.12c0-0.312,0-0.632-0.032-0.96h0.488v0.688l0.016,0.008c0.16-0.28,0.4-0.792,1.272-0.792
						c0.359,0,0.951,0.152,1.079,0.864h0.017c0.184-0.48,0.664-0.864,1.304-0.864c0.824,0,1.288,0.576,1.288,1.368V31H436.944z"/>
					<path i:knockout="Off" clip-path="url(#XMLID_4_)" d="M441.024,30.344h-0.017c-0.224,0.488-0.791,0.752-1.296,0.752
						c-1.159,0-1.344-0.784-1.344-1.152c0-1.368,1.456-1.432,2.512-1.432h0.097v-0.208c0-0.696-0.248-1.048-0.929-1.048
						c-0.424,0-0.823,0.096-1.199,0.336v-0.488c0.312-0.152,0.84-0.28,1.199-0.28c1.009,0,1.433,0.456,1.433,1.52v1.8
						c0,0.328,0,0.576,0.04,0.856h-0.496V30.344z M440.977,28.944h-0.145c-0.872,0-1.912,0.088-1.912,0.984
						c0,0.536,0.385,0.736,0.849,0.736c1.184,0,1.208-1.032,1.208-1.472V28.944z"/>
					<path i:knockout="Off" clip-path="url(#XMLID_4_)" d="M442.832,31h0.648v-0.672h-0.648V31z"/>
					<path i:knockout="Off" clip-path="url(#XMLID_4_)" d="M447.601,26.984c-0.145-0.048-0.496-0.16-0.984-0.16
						c-1.208,0-2.016,0.88-2.016,2.136c0,1.136,0.64,2.136,1.952,2.136c0.384,0,0.703-0.024,1.048-0.144l-0.048-0.472
						c-0.305,0.112-0.601,0.184-0.921,0.184c-0.92,0-1.479-0.776-1.479-1.704c0-0.992,0.552-1.704,1.536-1.704
						c0.271,0,0.6,0.088,0.872,0.208L447.601,26.984z"/>
					<path i:knockout="Off" clip-path="url(#XMLID_4_)" d="M448.456,25h0.504v2.608h0.017c0.216-0.448,0.672-0.784,1.271-0.784
						c1.096,0,1.393,0.728,1.393,1.736V31h-0.505v-2.432c0-0.704-0.136-1.312-0.968-1.312c-0.896,0-1.208,0.848-1.208,1.56V31
						h-0.504V25z"/>
					<path i:knockout="Off" clip-path="url(#XMLID_4_)" d="M460.08,25.832h-0.504V25.16h0.504V25.832z M459.576,26.92h0.504V31
						h-0.504V26.92z"/>
					<path i:knockout="Off" clip-path="url(#XMLID_4_)" d="M461.353,27.88c0-0.312,0-0.632-0.032-0.96h0.487v0.728h0.017
						c0.168-0.368,0.472-0.824,1.32-0.824c1.008,0,1.392,0.672,1.392,1.568V31h-0.504v-2.48c0-0.768-0.272-1.264-0.968-1.264
						c-0.92,0-1.208,0.808-1.208,1.488V31h-0.504V27.88z"/>
					<path i:knockout="Off" clip-path="url(#XMLID_4_)" d="M466.145,27.352h-0.824V26.92h0.824v-0.296
						c0-0.856,0.031-1.72,1.079-1.72c0.16,0,0.376,0.024,0.473,0.08l-0.032,0.44c-0.104-0.056-0.256-0.088-0.4-0.088
						c-0.688,0-0.615,0.744-0.615,1.232v0.352h0.92v0.432h-0.92V31h-0.504V27.352z"/>
					<path i:knockout="Off" clip-path="url(#XMLID_4_)" d="M470.056,26.824c1.32,0,1.904,1.024,1.904,2.136
						s-0.584,2.136-1.904,2.136c-1.319,0-1.903-1.024-1.903-2.136S468.736,26.824,470.056,26.824z M470.056,30.664
						c0.88,0,1.353-0.76,1.353-1.704s-0.473-1.704-1.353-1.704s-1.352,0.76-1.352,1.704S469.176,30.664,470.056,30.664z"/>
					<path i:knockout="Off" clip-path="url(#XMLID_4_)" d="M476.528,28.872c-0.048,0.136-0.08,0.28-0.08,0.392
						c0,0.096,0.048,0.184,0.176,0.184c0.6,0,1.176-0.784,1.176-1.712c0-1.24-1.104-1.936-2.312-1.936c-1.345,0-2.36,1.016-2.36,2.4
						c0,1.4,1.016,2.416,2.36,2.416c0.903,0,1.664-0.352,2.111-0.888h0.488c-0.496,0.856-1.456,1.368-2.6,1.368
						c-1.92,0-2.889-1.448-2.889-2.888c0-1.448,0.969-2.888,2.889-2.888c1.399,0,2.84,0.84,2.84,2.416
						c0,1.368-1.136,2.192-1.809,2.192c-0.352,0-0.567-0.16-0.632-0.488h-0.016c-0.2,0.232-0.44,0.488-0.984,0.488
						c-0.632,0-1.08-0.544-1.08-1.2c0-1.04,0.736-2.168,1.849-2.168c0.368,0,0.695,0.184,0.88,0.616l0.168-0.48h0.504
						L476.528,28.872z M474.984,29.448c0.775,0,1.312-1.024,1.312-1.688c0-0.56-0.352-0.72-0.64-0.72
						c-0.513,0-1.248,0.68-1.248,1.64C474.424,29.168,474.648,29.448,474.984,29.448z"/>
					<path i:knockout="Off" clip-path="url(#XMLID_4_)" d="M481.656,30.344h-0.017c-0.224,0.488-0.792,0.752-1.296,0.752
						c-1.16,0-1.344-0.784-1.344-1.152c0-1.368,1.456-1.432,2.512-1.432h0.096v-0.208c0-0.696-0.247-1.048-0.928-1.048
						c-0.424,0-0.824,0.096-1.2,0.336v-0.488c0.312-0.152,0.841-0.28,1.2-0.28c1.008,0,1.433,0.456,1.433,1.52v1.8
						c0,0.328,0,0.576,0.04,0.856h-0.496V30.344z M481.607,28.944h-0.144c-0.872,0-1.912,0.088-1.912,0.984
						c0,0.536,0.384,0.736,0.849,0.736c1.184,0,1.207-1.032,1.207-1.472V28.944z"/>
					<path i:knockout="Off" clip-path="url(#XMLID_4_)" d="M483.312,31h0.505v-2.256c0-0.68,0.287-1.488,1.207-1.488
						c0.696,0,0.969,0.496,0.969,1.264V31h0.504v-2.608c0-0.896-0.384-1.568-1.393-1.568c-0.848,0-1.151,0.456-1.319,0.824h-0.017
						V26.92h-0.487c0.031,0.328,0.031,0.648,0.031,0.96V31z"/>
					<path i:knockout="Off" clip-path="url(#XMLID_4_)" d="M488.976,31.608c-0.191,0.56-0.479,1.12-1.048,1.12
						c-0.184,0-0.376-0.024-0.544-0.064l0.048-0.432c0.097,0.032,0.192,0.064,0.376,0.064c0.433,0,0.576-0.36,0.736-0.888
						l0.104-0.36L487.2,26.92h0.552l1.144,3.408l-0.008-0.008h0.017l1.176-3.4h0.527L488.976,31.608z"/>
					<path i:knockout="Off" clip-path="url(#XMLID_4_)" d="M496.24,31v-2.712c0-0.576-0.217-1.032-0.864-1.032
						c-0.552,0-1.097,0.472-1.097,1.488V31h-0.504v-2.712c0-0.576-0.216-1.032-0.863-1.032c-0.553,0-1.097,0.472-1.097,1.488V31
						h-0.504v-3.12c0-0.312,0-0.632-0.032-0.96h0.488v0.688l0.017,0.008c0.159-0.28,0.399-0.792,1.271-0.792
						c0.36,0,0.952,0.152,1.08,0.864h0.016c0.185-0.48,0.664-0.864,1.305-0.864c0.823,0,1.288,0.576,1.288,1.368V31H496.24z"/>
					<path i:knockout="Off" clip-path="url(#XMLID_4_)" d="M500.319,30.344h-0.016c-0.224,0.488-0.792,0.752-1.296,0.752
						c-1.16,0-1.344-0.784-1.344-1.152c0-1.368,1.456-1.432,2.512-1.432h0.096v-0.208c0-0.696-0.248-1.048-0.928-1.048
						c-0.424,0-0.824,0.096-1.2,0.336v-0.488c0.312-0.152,0.84-0.28,1.2-0.28c1.008,0,1.432,0.456,1.432,1.52v1.8
						c0,0.328,0,0.576,0.04,0.856h-0.496V30.344z M500.271,28.944h-0.144c-0.872,0-1.912,0.088-1.912,0.984
						c0,0.536,0.384,0.736,0.848,0.736c1.185,0,1.208-1.032,1.208-1.472V28.944z"/>
					<path i:knockout="Off" clip-path="url(#XMLID_4_)" d="M502.128,31h0.647v-0.672h-0.647V31z"/>
					<path i:knockout="Off" clip-path="url(#XMLID_4_)" d="M506.855,27.464c-0.271-0.12-0.6-0.208-0.872-0.208
						c-0.983,0-1.536,0.712-1.536,1.704c0,0.928,0.561,1.704,1.48,1.704c0.32,0,0.616-0.072,0.92-0.184l0.048,0.472
						c-0.344,0.12-0.664,0.144-1.048,0.144c-1.312,0-1.952-1-1.952-2.136c0-1.256,0.809-2.136,2.017-2.136
						c0.487,0,0.84,0.112,0.983,0.16L506.855,27.464z"/>
					<path i:knockout="Off" clip-path="url(#XMLID_4_)" d="M507.752,25h0.504v2.608h0.016c0.216-0.448,0.672-0.784,1.272-0.784
						c1.096,0,1.392,0.728,1.392,1.736V31h-0.504v-2.432c0-0.704-0.136-1.312-0.968-1.312c-0.896,0-1.208,0.848-1.208,1.56V31
						h-0.504V25z"/>
				</g>
			</g>
		</g>
		<g>
			<path i:knockout="Off" d="M15.655,11.467c-0.103,0.102-0.206,0.152-0.319,0.152c-0.37,0-0.626-0.091-0.782-0.284
				c-0.133-0.163-0.195-0.428-0.195-0.804c0,0.03,0,0.03,0.01-0.01c0-0.051,0-0.112,0-0.194v-0.203c0-0.345-0.051-0.59-0.165-0.742
				c-0.133-0.173-0.359-0.264-0.698-0.264c-0.269,0-0.536,0.091-0.792,0.264c-0.288,0.193-0.432,0.407-0.432,0.661
				c0,0.315,0.092,0.549,0.288,0.702c0.267,0.163,0.535,0.325,0.802,0.499c-0.051,0.254-0.319,0.376-0.792,0.376
				c-0.401,0-0.719-0.122-0.966-0.356c-0.247-0.234-0.37-0.549-0.37-0.945c0-0.753,0.421-1.17,1.265-1.261
				c0.237-0.02,0.524-0.102,0.885-0.245c0.555-0.213,0.833-0.467,0.833-0.753c0-0.172-0.113-0.345-0.329-0.508
				c-0.226-0.173-0.431-0.254-0.617-0.254c-0.042,0-0.103,0.01-0.174,0.021c-0.073,0.02-0.134,0.03-0.176,0.03
				c-0.154,0-0.266-0.041-0.35-0.111V7.084c0-0.214,0.268-0.325,0.803-0.325c0.401,0,0.627,0.01,0.699,0.02
				c0.38,0.071,0.658,0.285,0.854,0.621c0.165,0.285,0.247,0.63,0.247,1.047c0,0.112-0.01,0.285-0.021,0.508
				c-0.01,0.225-0.021,0.397-0.021,0.509c0,0.275,0.031,0.508,0.083,0.701c0.041,0.092,0.144,0.265,0.318,0.529
				c0.175,0.274,0.268,0.427,0.268,0.458C15.81,11.264,15.757,11.366,15.655,11.467"/>
			<path i:knockout="Off" d="M26.78,11.467c-0.092,0.081-0.186,0.122-0.278,0.122c-0.123,0-0.246-0.031-0.359-0.102
				c-0.114-0.071-0.175-0.163-0.175-0.274c0-0.193,0.011-0.488,0.031-0.886c0.03-0.396,0.041-0.691,0.041-0.884
				c0-1.189-0.37-1.902-1.1-2.115c-0.34-0.102-0.658-0.102-0.958,0c-0.215,0.071-0.359,0.285-0.421,0.631
				c-0.03,0.173-0.072,0.417-0.133,0.711v2.431c0.011,0.021,0.011,0.041,0.011,0.071c0,0.091-0.062,0.183-0.175,0.254
				c-0.113,0.071-0.226,0.112-0.329,0.112c-0.114,0-0.196-0.041-0.257-0.122c-0.113-0.153-0.175-0.336-0.175-0.569V8.824
				c0,0,0.011-0.072,0.011-0.214c0-0.153,0-0.295,0-0.438V7.186c0-0.111,0.052-0.193,0.144-0.264
				C22.76,6.85,22.862,6.81,22.976,6.81c0.092,0,0.236,0.02,0.422,0.051c0.185,0.041,0.329,0.061,0.421,0.061
				c0.082,0,0.38-0.071,0.885-0.203c0.297-0.082,0.534-0.112,0.708-0.102c0.236,0.021,0.524,0.143,0.854,0.356
				c0.38,0.254,0.576,0.488,0.597,0.722c0.031,0.376,0.051,1.556,0.051,3.519C26.914,11.304,26.873,11.396,26.78,11.467"/>
			<path i:knockout="Off" d="M33.566,13.369c0.01-0.152,0.062-0.254,0.144-0.305c0.134-0.091,0.412-0.152,0.823-0.172
				c0.37-0.021,0.637-0.122,0.792-0.306c0.226-0.254,0.339-0.579,0.339-0.966c0-0.224-0.144-0.59-0.421-1.098
				c-0.268-0.478-0.422-0.763-0.453-0.834c-0.75-1.678-1.131-2.532-1.131-2.583c0-0.111,0.031-0.213,0.103-0.304
				c0.071-0.092,0.165-0.143,0.268-0.143c0.195,0,0.339,0.062,0.432,0.184c0.247,0.315,0.503,0.752,0.76,1.322l0.637,1.393
				c0.104,0.224,0.258,0.326,0.422,0.326c0.031,0,0.062-0.01,0.092-0.041c0.525-0.499,0.915-1.292,1.172-2.369
				c0.011-0.092,0.051-0.275,0.103-0.53c0.031-0.142,0.175-0.213,0.442-0.213c0.247,0,0.371,0.132,0.371,0.387
				c0,0.152-0.196,0.62-0.586,1.403c-0.092,0.092-0.206,0.265-0.329,0.498c-0.103,0.508-0.318,1.067-0.637,1.668
				c-0.042,0.082-0.124,0.234-0.247,0.468c-0.031,0.062-0.072,0.204-0.155,0.417c-0.123,0.335-0.226,0.579-0.319,0.722
				c-0.144,0.224-0.33,0.407-0.555,0.56c-0.052,0.03-0.123,0.101-0.206,0.213c-0.083,0.112-0.154,0.173-0.206,0.214
				c-0.287,0.193-0.637,0.294-1.048,0.294C33.895,13.572,33.7,13.501,33.566,13.369"/>
			<path i:knockout="Off" d="M52.681,11.355c-0.164,0.101-0.309,0.152-0.421,0.152c-0.154,0-0.247-0.071-0.278-0.204
				c-0.051-0.224-0.103-1.18-0.133-2.877c-0.01-0.356-0.185-0.651-0.545-0.865c-0.309-0.193-0.658-0.285-1.039-0.285
				c-0.123,0-0.236,0.01-0.339,0.041c-0.062,0.03-0.123,0.092-0.185,0.172c-0.195,0.356-0.309,0.662-0.33,0.937
				c-0.02,0.234-0.02,0.711,0,1.414c0.021,0.59,0,1.057-0.051,1.403c-0.021,0.173-0.184,0.264-0.483,0.264
				c-0.093,0-0.165-0.02-0.206-0.061c-0.153-0.153-0.226-0.387-0.226-0.681c0-0.092,0.01-0.214,0.021-0.387
				c0.021-0.173,0.03-0.305,0.03-0.386c0.011-0.712-0.009-1.2-0.051-1.455c-0.031-0.183-0.113-0.386-0.247-0.6
				c-0.133-0.224-0.278-0.407-0.431-0.529c-0.072-0.062-0.309-0.132-0.71-0.224c-0.083-0.061-0.154-0.091-0.205-0.091
				c-0.01-0.031-0.031-0.071-0.062-0.122c0.176-0.213,0.484-0.325,0.906-0.325c0.236,0,0.462,0.03,0.658,0.111
				c0.062,0.02,0.267,0.122,0.606,0.295c0.237,0.122,0.441,0.183,0.606,0.183c0.083,0,0.166-0.02,0.237-0.051
				c0.052-0.03,0.144-0.091,0.257-0.204c0.113-0.112,0.216-0.182,0.309-0.213c0.349-0.102,0.657-0.153,0.925-0.153
				c0.145,0,0.298,0.021,0.453,0.051c0.535,0.112,0.884,0.702,1.038,1.76c0.072,0.478,0.113,1.098,0.113,1.881
				c0,0.315,0.011,0.559,0.021,0.732C52.928,11.152,52.845,11.254,52.681,11.355z M46.336,7.196c0,0.071-0.082,0.345-0.247,0.833
				c-0.113,0.325-0.164,0.722-0.164,1.2c0,0.173,0.02,0.519,0.051,1.017c0.031,0.397,0.042,0.722,0.031,0.956
				c-0.031,0.051-0.082,0.122-0.144,0.214c-0.155,0.081-0.288,0.122-0.401,0.122c-0.278,0-0.412-0.244-0.412-0.732
				c0-0.071,0.01-0.193,0.021-0.355c0.011-0.163,0.021-0.286,0.021-0.367c-0.041-1.373-0.051-2.369-0.021-3.009
				c0-0.112,0.113-0.204,0.309-0.274c0.072-0.031,0.145-0.041,0.236-0.041c0.329,0,0.555,0.102,0.689,0.295
				C46.327,7.084,46.336,7.135,46.336,7.196"/>
			<path i:knockout="Off" d="M64.012,11.467c-0.103,0.102-0.206,0.152-0.319,0.152c-0.37,0-0.627-0.091-0.782-0.284
				c-0.133-0.163-0.195-0.428-0.195-0.804c0,0.03,0,0.03,0.01-0.01c0-0.051,0-0.112,0-0.194v-0.203c0-0.345-0.051-0.59-0.165-0.742
				c-0.133-0.173-0.36-0.264-0.698-0.264c-0.268,0-0.535,0.091-0.792,0.264c-0.288,0.193-0.433,0.407-0.433,0.661
				c0,0.315,0.093,0.549,0.288,0.702c0.268,0.163,0.535,0.325,0.803,0.499c-0.052,0.254-0.319,0.376-0.792,0.376
				c-0.401,0-0.72-0.122-0.967-0.356c-0.246-0.234-0.37-0.549-0.37-0.945c0-0.753,0.421-1.17,1.265-1.261
				c0.236-0.02,0.524-0.102,0.884-0.245c0.555-0.213,0.833-0.467,0.833-0.753c0-0.172-0.113-0.345-0.329-0.508
				c-0.226-0.173-0.432-0.254-0.617-0.254c-0.041,0-0.102,0.01-0.174,0.021c-0.072,0.02-0.134,0.03-0.175,0.03
				c-0.154,0-0.267-0.041-0.35-0.111V7.084c0-0.214,0.268-0.325,0.802-0.325c0.401,0,0.628,0.01,0.699,0.02
				c0.381,0.071,0.658,0.285,0.854,0.621c0.165,0.285,0.247,0.63,0.247,1.047c0,0.112-0.011,0.285-0.02,0.508
				c-0.011,0.225-0.021,0.397-0.021,0.509c0,0.275,0.03,0.508,0.083,0.701c0.041,0.092,0.144,0.265,0.318,0.529
				c0.175,0.274,0.267,0.427,0.267,0.458C64.165,11.264,64.114,11.366,64.012,11.467"/>
			<path i:knockout="Off" d="M3.076,13.849c0,0,0.072-0.076,0.153-0.405c0.022-0.085,0.03-0.176,0.03-0.226
				c0-0.472,0.006-0.703,0.006-0.703V5.806c0-0.082,0-0.153,0-0.216c0,0,0.007-0.372-0.019-0.584
				C3.221,4.792,3.107,4.587,3.069,4.549l2.083,0.011v0.233H3.91v8.838h1.242v0.217H3.076"/>
			<path i:knockout="Off" d="M73.241,13.885h-2.076v-0.219h1.243V4.83h-1.243V4.596l2.084-0.011
				c-0.038,0.037-0.152,0.242-0.178,0.455c-0.025,0.213-0.019,0.585-0.019,0.585c0,0.063,0,0.135,0,0.216v6.709
				c0,0,0.006,0.231,0.006,0.704c0,0.049,0.008,0.14,0.029,0.225C73.169,13.809,73.241,13.885,73.241,13.885"/>
		</g>
	</g>
</svg>
