%TF.GenerationSoftware,KiCad,Pcbnew,8.0.8*%
%TF.CreationDate,2025-04-01T17:59:14+02:00*%
%TF.ProjectId,biuzzcharge,6269757a-7a63-4686-9172-67652e6b6963,rev?*%
%TF.SameCoordinates,Original*%
%TF.FileFunction,Legend,Bot*%
%TF.FilePolarity,Positive*%
%FSLAX46Y46*%
G04 Gerber Fmt 4.6, Leading zero omitted, Abs format (unit mm)*
G04 Created by KiCad (PCBNEW 8.0.8) date 2025-04-01 17:59:14*
%MOMM*%
%LPD*%
G01*
G04 APERTURE LIST*
%ADD10C,0.150000*%
%ADD11C,0.120000*%
G04 APERTURE END LIST*
D10*
X106184819Y-110051666D02*
X106899104Y-110051666D01*
X106899104Y-110051666D02*
X107041961Y-110004047D01*
X107041961Y-110004047D02*
X107137200Y-109908809D01*
X107137200Y-109908809D02*
X107184819Y-109765952D01*
X107184819Y-109765952D02*
X107184819Y-109670714D01*
X107184819Y-111051666D02*
X107184819Y-110480238D01*
X107184819Y-110765952D02*
X106184819Y-110765952D01*
X106184819Y-110765952D02*
X106327676Y-110670714D01*
X106327676Y-110670714D02*
X106422914Y-110575476D01*
X106422914Y-110575476D02*
X106470533Y-110480238D01*
D11*
%TO.C,J1*%
X107730000Y-106000000D02*
X107730000Y-104730000D01*
X107730000Y-104730000D02*
X109000000Y-104730000D01*
X111160000Y-107440000D02*
X111160000Y-107042929D01*
X111920000Y-107440000D02*
X111920000Y-107042929D01*
X108620000Y-107440000D02*
X108620000Y-107110000D01*
X109380000Y-107440000D02*
X109380000Y-107110000D01*
X112870000Y-107440000D02*
X107670000Y-107440000D01*
X110270000Y-110100000D02*
X110270000Y-107440000D01*
X112870000Y-110100000D02*
X112870000Y-107440000D01*
X107670000Y-107440000D02*
X107670000Y-110100000D01*
X108620000Y-116100000D02*
X108620000Y-110100000D01*
X108680000Y-116100000D02*
X108680000Y-110100000D01*
X108800000Y-116100000D02*
X108800000Y-110100000D01*
X108920000Y-116100000D02*
X108920000Y-110100000D01*
X109040000Y-116100000D02*
X109040000Y-110100000D01*
X109160000Y-116100000D02*
X109160000Y-110100000D01*
X109280000Y-116100000D02*
X109280000Y-110100000D01*
X111160000Y-116100000D02*
X111160000Y-110100000D01*
X107670000Y-110100000D02*
X112870000Y-110100000D01*
X109380000Y-116100000D02*
X108620000Y-116100000D01*
X109380000Y-110100000D02*
X109380000Y-116100000D01*
X111920000Y-116100000D02*
X111160000Y-116100000D01*
X111920000Y-110100000D02*
X111920000Y-116100000D01*
%TD*%
M02*
