%TF.GenerationSoftware,KiCad,Pcbnew,8.0.8*%
%TF.CreationDate,2025-04-01T17:59:14+02:00*%
%TF.ProjectId,biuzzcharge,6269757a-7a63-4686-9172-67652e6b6963,rev?*%
%TF.SameCoordinates,Original*%
%TF.FileFunction,Legend,Top*%
%TF.FilePolarity,Positive*%
%FSLAX46Y46*%
G04 Gerber Fmt 4.6, Leading zero omitted, Abs format (unit mm)*
G04 Created by KiCad (PCBNEW 8.0.8) date 2025-04-01 17:59:14*
%MOMM*%
%LPD*%
G01*
G04 APERTURE LIST*
%ADD10C,0.150000*%
%ADD11C,0.120000*%
G04 APERTURE END LIST*
D10*
X80238095Y-90254819D02*
X80238095Y-89254819D01*
X80238095Y-89731009D02*
X80809523Y-89731009D01*
X80809523Y-90254819D02*
X80809523Y-89254819D01*
X81238095Y-89350057D02*
X81285714Y-89302438D01*
X81285714Y-89302438D02*
X81380952Y-89254819D01*
X81380952Y-89254819D02*
X81619047Y-89254819D01*
X81619047Y-89254819D02*
X81714285Y-89302438D01*
X81714285Y-89302438D02*
X81761904Y-89350057D01*
X81761904Y-89350057D02*
X81809523Y-89445295D01*
X81809523Y-89445295D02*
X81809523Y-89540533D01*
X81809523Y-89540533D02*
X81761904Y-89683390D01*
X81761904Y-89683390D02*
X81190476Y-90254819D01*
X81190476Y-90254819D02*
X81809523Y-90254819D01*
X130238095Y-88454819D02*
X130238095Y-87454819D01*
X130238095Y-87931009D02*
X130809523Y-87931009D01*
X130809523Y-88454819D02*
X130809523Y-87454819D01*
X131809523Y-88454819D02*
X131238095Y-88454819D01*
X131523809Y-88454819D02*
X131523809Y-87454819D01*
X131523809Y-87454819D02*
X131428571Y-87597676D01*
X131428571Y-87597676D02*
X131333333Y-87692914D01*
X131333333Y-87692914D02*
X131238095Y-87740533D01*
X109648666Y-102090819D02*
X109648666Y-102805104D01*
X109648666Y-102805104D02*
X109601047Y-102947961D01*
X109601047Y-102947961D02*
X109505809Y-103043200D01*
X109505809Y-103043200D02*
X109362952Y-103090819D01*
X109362952Y-103090819D02*
X109267714Y-103090819D01*
X110077238Y-102186057D02*
X110124857Y-102138438D01*
X110124857Y-102138438D02*
X110220095Y-102090819D01*
X110220095Y-102090819D02*
X110458190Y-102090819D01*
X110458190Y-102090819D02*
X110553428Y-102138438D01*
X110553428Y-102138438D02*
X110601047Y-102186057D01*
X110601047Y-102186057D02*
X110648666Y-102281295D01*
X110648666Y-102281295D02*
X110648666Y-102376533D01*
X110648666Y-102376533D02*
X110601047Y-102519390D01*
X110601047Y-102519390D02*
X110029619Y-103090819D01*
X110029619Y-103090819D02*
X110648666Y-103090819D01*
%TO.C,J2*%
D11*
X107442000Y-86380000D02*
X112522000Y-86380000D01*
X112522000Y-101620000D01*
X107442000Y-101620000D01*
X107442000Y-86380000D01*
%TD*%
M02*
