%TF.GenerationSoftware,KiCad,Pcbnew,8.0.8*%
%TF.CreationDate,2025-04-01T17:59:14+02:00*%
%TF.ProjectId,biuzzcharge,6269757a-7a63-4686-9172-67652e6b6963,rev?*%
%TF.SameCoordinates,Original*%
%TF.FileFunction,Copper,L1,Top*%
%TF.FilePolarity,Positive*%
%FSLAX46Y46*%
G04 Gerber Fmt 4.6, Leading zero omitted, Abs format (unit mm)*
G04 Created by KiCad (PCBNEW 8.0.8) date 2025-04-01 17:59:14*
%MOMM*%
%LPD*%
G01*
G04 APERTURE LIST*
%TA.AperFunction,ComponentPad*%
%ADD10C,2.200000*%
%TD*%
%TA.AperFunction,ComponentPad*%
%ADD11R,1.700000X1.700000*%
%TD*%
%TA.AperFunction,ComponentPad*%
%ADD12O,1.700000X1.700000*%
%TD*%
G04 APERTURE END LIST*
D10*
%TO.P,J2,1,Pin_1*%
%TO.N,+5V*%
X109982000Y-91460000D03*
%TO.P,J2,2,Pin_2*%
%TO.N,GND*%
X109982000Y-96540000D03*
%TD*%
D11*
%TO.P,J1,1,Pin_1*%
%TO.N,GND*%
X109000000Y-106000000D03*
D12*
%TO.P,J1,2,Pin_2*%
%TO.N,+5V*%
X111540000Y-106000000D03*
%TD*%
%TA.AperFunction,Conductor*%
%TO.N,+5V*%
G36*
X120442539Y-82520185D02*
G01*
X120488294Y-82572989D01*
X120499500Y-82624500D01*
X120499500Y-117375500D01*
X120479815Y-117442539D01*
X120427011Y-117488294D01*
X120375500Y-117499500D01*
X99624500Y-117499500D01*
X99557461Y-117479815D01*
X99511706Y-117427011D01*
X99500500Y-117375500D01*
X99500500Y-105102135D01*
X107649500Y-105102135D01*
X107649500Y-106897870D01*
X107649501Y-106897876D01*
X107655908Y-106957483D01*
X107706202Y-107092328D01*
X107706206Y-107092335D01*
X107792452Y-107207544D01*
X107792455Y-107207547D01*
X107907664Y-107293793D01*
X107907671Y-107293797D01*
X108042517Y-107344091D01*
X108042516Y-107344091D01*
X108049444Y-107344835D01*
X108102127Y-107350500D01*
X109897872Y-107350499D01*
X109957483Y-107344091D01*
X110092331Y-107293796D01*
X110207546Y-107207546D01*
X110293796Y-107092331D01*
X110343002Y-106960401D01*
X110384872Y-106904468D01*
X110450337Y-106880050D01*
X110518610Y-106894901D01*
X110546865Y-106916053D01*
X110668917Y-107038105D01*
X110862421Y-107173600D01*
X111076507Y-107273429D01*
X111076516Y-107273433D01*
X111290000Y-107330634D01*
X111290000Y-106433012D01*
X111347007Y-106465925D01*
X111474174Y-106500000D01*
X111605826Y-106500000D01*
X111732993Y-106465925D01*
X111790000Y-106433012D01*
X111790000Y-107330633D01*
X112003483Y-107273433D01*
X112003492Y-107273429D01*
X112217578Y-107173600D01*
X112411082Y-107038105D01*
X112578105Y-106871082D01*
X112713600Y-106677578D01*
X112813429Y-106463492D01*
X112813432Y-106463486D01*
X112870636Y-106250000D01*
X111973012Y-106250000D01*
X112005925Y-106192993D01*
X112040000Y-106065826D01*
X112040000Y-105934174D01*
X112005925Y-105807007D01*
X111973012Y-105750000D01*
X112870636Y-105750000D01*
X112870635Y-105749999D01*
X112813432Y-105536513D01*
X112813429Y-105536507D01*
X112713600Y-105322422D01*
X112713599Y-105322420D01*
X112578113Y-105128926D01*
X112578108Y-105128920D01*
X112411082Y-104961894D01*
X112217578Y-104826399D01*
X112003492Y-104726570D01*
X112003486Y-104726567D01*
X111790000Y-104669364D01*
X111790000Y-105566988D01*
X111732993Y-105534075D01*
X111605826Y-105500000D01*
X111474174Y-105500000D01*
X111347007Y-105534075D01*
X111290000Y-105566988D01*
X111290000Y-104669364D01*
X111289999Y-104669364D01*
X111076513Y-104726567D01*
X111076507Y-104726570D01*
X110862422Y-104826399D01*
X110862420Y-104826400D01*
X110668926Y-104961886D01*
X110546865Y-105083947D01*
X110485542Y-105117431D01*
X110415850Y-105112447D01*
X110359917Y-105070575D01*
X110343002Y-105039598D01*
X110293797Y-104907671D01*
X110293793Y-104907664D01*
X110207547Y-104792455D01*
X110207544Y-104792452D01*
X110092335Y-104706206D01*
X110092328Y-104706202D01*
X109957482Y-104655908D01*
X109957483Y-104655908D01*
X109897883Y-104649501D01*
X109897881Y-104649500D01*
X109897873Y-104649500D01*
X109897864Y-104649500D01*
X108102129Y-104649500D01*
X108102123Y-104649501D01*
X108042516Y-104655908D01*
X107907671Y-104706202D01*
X107907664Y-104706206D01*
X107792455Y-104792452D01*
X107792452Y-104792455D01*
X107706206Y-104907664D01*
X107706202Y-104907671D01*
X107655908Y-105042517D01*
X107649501Y-105102116D01*
X107649500Y-105102135D01*
X99500500Y-105102135D01*
X99500500Y-93878711D01*
X101149500Y-93878711D01*
X101149500Y-94121288D01*
X101181161Y-94361785D01*
X101243947Y-94596104D01*
X101334470Y-94814646D01*
X101336776Y-94820212D01*
X101458064Y-95030289D01*
X101458066Y-95030292D01*
X101458067Y-95030293D01*
X101605733Y-95222736D01*
X101605739Y-95222743D01*
X101777256Y-95394260D01*
X101777262Y-95394265D01*
X101969711Y-95541936D01*
X102179788Y-95663224D01*
X102403900Y-95756054D01*
X102638211Y-95818838D01*
X102818586Y-95842584D01*
X102878711Y-95850500D01*
X102878712Y-95850500D01*
X103121289Y-95850500D01*
X103169388Y-95844167D01*
X103361789Y-95818838D01*
X103596100Y-95756054D01*
X103820212Y-95663224D01*
X104030289Y-95541936D01*
X104222738Y-95394265D01*
X104394265Y-95222738D01*
X104541936Y-95030289D01*
X104663224Y-94820212D01*
X104756054Y-94596100D01*
X104818838Y-94361789D01*
X104850500Y-94121288D01*
X104850500Y-93878712D01*
X104818838Y-93638211D01*
X104756054Y-93403900D01*
X104663224Y-93179788D01*
X104541936Y-92969711D01*
X104396589Y-92780291D01*
X104394266Y-92777263D01*
X104394260Y-92777256D01*
X104222743Y-92605739D01*
X104222736Y-92605733D01*
X104030293Y-92458067D01*
X104030292Y-92458066D01*
X104030289Y-92458064D01*
X103820212Y-92336776D01*
X103820205Y-92336773D01*
X103596104Y-92243947D01*
X103361785Y-92181161D01*
X103121289Y-92149500D01*
X103121288Y-92149500D01*
X102878712Y-92149500D01*
X102878711Y-92149500D01*
X102638214Y-92181161D01*
X102403895Y-92243947D01*
X102179794Y-92336773D01*
X102179785Y-92336777D01*
X101969706Y-92458067D01*
X101777263Y-92605733D01*
X101777256Y-92605739D01*
X101605739Y-92777256D01*
X101605733Y-92777263D01*
X101458067Y-92969706D01*
X101336777Y-93179785D01*
X101336773Y-93179794D01*
X101243947Y-93403895D01*
X101181161Y-93638214D01*
X101149500Y-93878711D01*
X99500500Y-93878711D01*
X99500500Y-88821577D01*
X107231500Y-88821577D01*
X107231500Y-89018422D01*
X107262290Y-89212826D01*
X107323117Y-89400029D01*
X107412476Y-89575405D01*
X107528172Y-89734646D01*
X107667354Y-89873828D01*
X107826595Y-89989524D01*
X107909455Y-90031743D01*
X108001970Y-90078882D01*
X108001972Y-90078882D01*
X108001975Y-90078884D01*
X108102317Y-90111487D01*
X108189173Y-90139709D01*
X108383578Y-90170500D01*
X108994691Y-90170500D01*
X109061730Y-90190185D01*
X109082372Y-90206819D01*
X109935554Y-91060000D01*
X109929339Y-91060000D01*
X109827606Y-91087259D01*
X109736394Y-91139920D01*
X109661920Y-91214394D01*
X109609259Y-91305606D01*
X109582000Y-91407339D01*
X109582000Y-91413552D01*
X108684266Y-90515818D01*
X108683567Y-90516637D01*
X108551980Y-90731368D01*
X108455603Y-90964043D01*
X108396812Y-91208927D01*
X108377052Y-91460000D01*
X108396812Y-91711072D01*
X108455603Y-91955956D01*
X108551980Y-92188631D01*
X108683568Y-92403362D01*
X108684266Y-92404179D01*
X109582000Y-91506445D01*
X109582000Y-91512661D01*
X109609259Y-91614394D01*
X109661920Y-91705606D01*
X109736394Y-91780080D01*
X109827606Y-91832741D01*
X109929339Y-91860000D01*
X109935553Y-91860000D01*
X109082372Y-92713181D01*
X109021049Y-92746666D01*
X108994691Y-92749500D01*
X108383578Y-92749500D01*
X108189173Y-92780290D01*
X108001970Y-92841117D01*
X107826594Y-92930476D01*
X107772593Y-92969711D01*
X107667354Y-93046172D01*
X107667352Y-93046174D01*
X107667351Y-93046174D01*
X107528174Y-93185351D01*
X107528174Y-93185352D01*
X107528172Y-93185354D01*
X107478485Y-93253741D01*
X107412476Y-93344594D01*
X107323117Y-93519970D01*
X107262290Y-93707173D01*
X107231500Y-93901577D01*
X107231500Y-94098422D01*
X107262290Y-94292826D01*
X107323117Y-94480029D01*
X107412476Y-94655405D01*
X107528172Y-94814646D01*
X107667354Y-94953828D01*
X107826595Y-95069524D01*
X107909455Y-95111743D01*
X108001970Y-95158882D01*
X108001972Y-95158882D01*
X108001975Y-95158884D01*
X108102317Y-95191487D01*
X108189173Y-95219709D01*
X108383578Y-95250500D01*
X108383583Y-95250500D01*
X108709564Y-95250500D01*
X108776603Y-95270185D01*
X108822358Y-95322989D01*
X108832302Y-95392147D01*
X108803854Y-95455030D01*
X108761924Y-95504124D01*
X108683161Y-95596343D01*
X108683160Y-95596346D01*
X108551533Y-95811140D01*
X108455126Y-96043889D01*
X108396317Y-96288848D01*
X108376551Y-96540000D01*
X108396317Y-96791151D01*
X108455126Y-97036110D01*
X108551533Y-97268859D01*
X108683160Y-97483653D01*
X108683161Y-97483656D01*
X108683164Y-97483659D01*
X108803854Y-97624969D01*
X108832425Y-97688730D01*
X108821988Y-97757815D01*
X108775857Y-97810291D01*
X108709564Y-97829500D01*
X108383578Y-97829500D01*
X108189173Y-97860290D01*
X108001970Y-97921117D01*
X107826594Y-98010476D01*
X107735741Y-98076485D01*
X107667354Y-98126172D01*
X107667352Y-98126174D01*
X107667351Y-98126174D01*
X107528174Y-98265351D01*
X107528174Y-98265352D01*
X107528172Y-98265354D01*
X107478485Y-98333741D01*
X107412476Y-98424594D01*
X107323117Y-98599970D01*
X107262290Y-98787173D01*
X107231500Y-98981577D01*
X107231500Y-99178422D01*
X107262290Y-99372826D01*
X107323117Y-99560029D01*
X107412476Y-99735405D01*
X107528172Y-99894646D01*
X107667354Y-100033828D01*
X107826595Y-100149524D01*
X107909455Y-100191743D01*
X108001970Y-100238882D01*
X108001972Y-100238882D01*
X108001975Y-100238884D01*
X108102317Y-100271487D01*
X108189173Y-100299709D01*
X108383578Y-100330500D01*
X108383583Y-100330500D01*
X111580422Y-100330500D01*
X111774826Y-100299709D01*
X111962025Y-100238884D01*
X112137405Y-100149524D01*
X112296646Y-100033828D01*
X112435828Y-99894646D01*
X112551524Y-99735405D01*
X112640884Y-99560025D01*
X112701709Y-99372826D01*
X112732500Y-99178422D01*
X112732500Y-98981577D01*
X112701709Y-98787173D01*
X112640882Y-98599970D01*
X112551523Y-98424594D01*
X112435828Y-98265354D01*
X112296646Y-98126172D01*
X112137405Y-98010476D01*
X111962029Y-97921117D01*
X111774826Y-97860290D01*
X111580422Y-97829500D01*
X111580417Y-97829500D01*
X111254436Y-97829500D01*
X111187397Y-97809815D01*
X111141642Y-97757011D01*
X111131698Y-97687853D01*
X111160145Y-97624969D01*
X111280836Y-97483659D01*
X111412466Y-97268859D01*
X111508873Y-97036111D01*
X111567683Y-96791148D01*
X111587449Y-96540000D01*
X111567683Y-96288852D01*
X111508873Y-96043889D01*
X111428769Y-95850500D01*
X111412466Y-95811140D01*
X111280839Y-95596346D01*
X111280838Y-95596343D01*
X111234366Y-95541932D01*
X111160145Y-95455030D01*
X111131575Y-95391270D01*
X111142012Y-95322185D01*
X111188143Y-95269709D01*
X111254436Y-95250500D01*
X111580422Y-95250500D01*
X111774826Y-95219709D01*
X111962025Y-95158884D01*
X112137405Y-95069524D01*
X112296646Y-94953828D01*
X112435828Y-94814646D01*
X112551524Y-94655405D01*
X112640884Y-94480025D01*
X112701709Y-94292826D01*
X112728878Y-94121288D01*
X112732500Y-94098422D01*
X112732500Y-93901577D01*
X112728878Y-93878711D01*
X115149500Y-93878711D01*
X115149500Y-94121288D01*
X115181161Y-94361785D01*
X115243947Y-94596104D01*
X115334470Y-94814646D01*
X115336776Y-94820212D01*
X115458064Y-95030289D01*
X115458066Y-95030292D01*
X115458067Y-95030293D01*
X115605733Y-95222736D01*
X115605739Y-95222743D01*
X115777256Y-95394260D01*
X115777262Y-95394265D01*
X115969711Y-95541936D01*
X116179788Y-95663224D01*
X116403900Y-95756054D01*
X116638211Y-95818838D01*
X116818586Y-95842584D01*
X116878711Y-95850500D01*
X116878712Y-95850500D01*
X117121289Y-95850500D01*
X117169388Y-95844167D01*
X117361789Y-95818838D01*
X117596100Y-95756054D01*
X117820212Y-95663224D01*
X118030289Y-95541936D01*
X118222738Y-95394265D01*
X118394265Y-95222738D01*
X118541936Y-95030289D01*
X118663224Y-94820212D01*
X118756054Y-94596100D01*
X118818838Y-94361789D01*
X118850500Y-94121288D01*
X118850500Y-93878712D01*
X118818838Y-93638211D01*
X118756054Y-93403900D01*
X118663224Y-93179788D01*
X118541936Y-92969711D01*
X118396589Y-92780291D01*
X118394266Y-92777263D01*
X118394260Y-92777256D01*
X118222743Y-92605739D01*
X118222736Y-92605733D01*
X118030293Y-92458067D01*
X118030292Y-92458066D01*
X118030289Y-92458064D01*
X117820212Y-92336776D01*
X117820205Y-92336773D01*
X117596104Y-92243947D01*
X117361785Y-92181161D01*
X117121289Y-92149500D01*
X117121288Y-92149500D01*
X116878712Y-92149500D01*
X116878711Y-92149500D01*
X116638214Y-92181161D01*
X116403895Y-92243947D01*
X116179794Y-92336773D01*
X116179785Y-92336777D01*
X115969706Y-92458067D01*
X115777263Y-92605733D01*
X115777256Y-92605739D01*
X115605739Y-92777256D01*
X115605733Y-92777263D01*
X115458067Y-92969706D01*
X115336777Y-93179785D01*
X115336773Y-93179794D01*
X115243947Y-93403895D01*
X115181161Y-93638214D01*
X115149500Y-93878711D01*
X112728878Y-93878711D01*
X112701709Y-93707173D01*
X112640882Y-93519970D01*
X112551523Y-93344594D01*
X112435828Y-93185354D01*
X112296646Y-93046172D01*
X112137405Y-92930476D01*
X111962029Y-92841117D01*
X111774826Y-92780290D01*
X111580422Y-92749500D01*
X111580417Y-92749500D01*
X110969309Y-92749500D01*
X110902270Y-92729815D01*
X110881628Y-92713181D01*
X110028447Y-91860000D01*
X110034661Y-91860000D01*
X110136394Y-91832741D01*
X110227606Y-91780080D01*
X110302080Y-91705606D01*
X110354741Y-91614394D01*
X110382000Y-91512661D01*
X110382000Y-91506447D01*
X111279732Y-92404180D01*
X111280430Y-92403363D01*
X111280432Y-92403361D01*
X111412019Y-92188631D01*
X111508396Y-91955956D01*
X111567187Y-91711072D01*
X111586947Y-91460000D01*
X111567187Y-91208927D01*
X111508396Y-90964043D01*
X111412019Y-90731368D01*
X111280429Y-90516634D01*
X111279733Y-90515819D01*
X111279732Y-90515819D01*
X110382000Y-91413551D01*
X110382000Y-91407339D01*
X110354741Y-91305606D01*
X110302080Y-91214394D01*
X110227606Y-91139920D01*
X110136394Y-91087259D01*
X110034661Y-91060000D01*
X110028446Y-91060000D01*
X110881628Y-90206819D01*
X110942951Y-90173334D01*
X110969309Y-90170500D01*
X111580422Y-90170500D01*
X111774826Y-90139709D01*
X111962025Y-90078884D01*
X112137405Y-89989524D01*
X112296646Y-89873828D01*
X112435828Y-89734646D01*
X112551524Y-89575405D01*
X112640884Y-89400025D01*
X112701709Y-89212826D01*
X112732500Y-89018422D01*
X112732500Y-88821577D01*
X112701709Y-88627173D01*
X112640882Y-88439970D01*
X112551523Y-88264594D01*
X112435828Y-88105354D01*
X112296646Y-87966172D01*
X112137405Y-87850476D01*
X111962029Y-87761117D01*
X111774826Y-87700290D01*
X111580422Y-87669500D01*
X111580417Y-87669500D01*
X108383583Y-87669500D01*
X108383578Y-87669500D01*
X108189173Y-87700290D01*
X108001970Y-87761117D01*
X107826594Y-87850476D01*
X107735741Y-87916485D01*
X107667354Y-87966172D01*
X107667352Y-87966174D01*
X107667351Y-87966174D01*
X107528174Y-88105351D01*
X107528174Y-88105352D01*
X107528172Y-88105354D01*
X107478485Y-88173741D01*
X107412476Y-88264594D01*
X107323117Y-88439970D01*
X107262290Y-88627173D01*
X107231500Y-88821577D01*
X99500500Y-88821577D01*
X99500500Y-82624500D01*
X99520185Y-82557461D01*
X99572989Y-82511706D01*
X99624500Y-82500500D01*
X120375500Y-82500500D01*
X120442539Y-82520185D01*
G37*
%TD.AperFunction*%
%TD*%
M02*
